<svg width="20" height="20" viewBox="0 0 20 20" fill="none" xmlns="http://www.w3.org/2000/svg">
<path fill-rule="evenodd" clip-rule="evenodd" d="M10 2.875C5.46774 2.875 2 6.11648 2 9.875C2 13.6335 5.46774 16.875 10 16.875C10.6209 16.875 11.224 16.8131 11.8023 16.6965C11.9231 16.6721 12.0473 16.6703 12.1687 16.6911L17.4315 17.592L16.3869 14.8917C16.258 14.5583 16.3168 14.1814 16.5412 13.9032C17.4673 12.7549 18 11.3654 18 9.875C18 6.11648 14.5323 2.875 10 2.875ZM0 9.875C0 4.79696 4.59113 0.875 10 0.875C15.4089 0.875 20 4.79696 20 9.875C20 11.6524 19.4276 13.3032 18.4527 14.6883L19.9327 18.5142C20.0625 18.8499 20.0019 19.2295 19.774 19.5082C19.5461 19.7868 19.1861 19.9214 18.8313 19.8607L12.0104 18.6931C11.3601 18.8125 10.6877 18.875 10 18.875C4.59113 18.875 0 14.953 0 9.875Z" fill="url(#paint0_linear)"/>
<defs>
<linearGradient id="paint0_linear" x1="0.797546" y1="-0.26958" x2="30.1331" y2="13.1946" gradientUnits="userSpaceOnUse">
<stop stop-color="#0ACF83"/>
<stop offset="1" stop-color="#10FF26"/>
</linearGradient>
</defs>
</svg>
