<svg width="22" height="22" viewBox="0 0 22 22" fill="none" xmlns="http://www.w3.org/2000/svg">
<path d="M10.5423 2.425C13.3423 2.425 13.6923 2.425 14.8298 2.5125C17.7173 2.6 19.0298 4 19.1173 6.8C19.2048 7.9375 19.2048 8.2 19.2048 11C19.2048 13.8 19.2048 14.15 19.1173 15.2C19.0298 18 17.6298 19.4 14.8298 19.4875C13.6923 19.575 13.4298 19.575 10.5423 19.575C7.7423 19.575 7.3923 19.575 6.3423 19.4875C3.4548 19.4 2.1423 18 2.0548 15.2C1.9673 14.0625 1.9673 13.8 1.9673 11C1.9673 8.2 1.9673 7.85 2.0548 6.8C2.1423 4 3.5423 2.6 6.3423 2.5125C7.3923 2.425 7.7423 2.425 10.5423 2.425ZM10.5423 0.5C7.6548 0.5 7.3048 0.5 6.2548 0.5875C2.4048 0.7625 0.304797 2.8625 0.129797 6.7125C0.0422974 7.7625 0.0422974 8.1125 0.0422974 11C0.0422974 13.8875 0.0422974 14.2375 0.129797 15.2875C0.304797 19.1375 2.4048 21.2375 6.2548 21.4125C7.3048 21.5 7.6548 21.5 10.5423 21.5C13.4298 21.5 13.7798 21.5 14.8298 21.4125C18.6798 21.2375 20.7798 19.1375 20.9548 15.2875C21.0423 14.2375 21.0423 13.8875 21.0423 11C21.0423 8.1125 21.0423 7.7625 20.9548 6.7125C20.7798 2.8625 18.6798 0.7625 14.8298 0.5875C13.7798 0.5 13.4298 0.5 10.5423 0.5ZM10.5423 5.575C7.5673 5.575 5.1173 8.025 5.1173 11C5.1173 13.975 7.5673 16.425 10.5423 16.425C13.5173 16.425 15.9673 13.975 15.9673 11C15.9673 8.025 13.5173 5.575 10.5423 5.575ZM10.5423 14.5C8.6173 14.5 7.0423 12.925 7.0423 11C7.0423 9.075 8.6173 7.5 10.5423 7.5C12.4673 7.5 14.0423 9.075 14.0423 11C14.0423 12.925 12.4673 14.5 10.5423 14.5ZM16.1423 4.175C15.4423 4.175 14.9173 4.7 14.9173 5.4C14.9173 6.1 15.4423 6.625 16.1423 6.625C16.8423 6.625 17.3673 6.1 17.3673 5.4C17.3673 4.7 16.8423 4.175 16.1423 4.175Z" fill="#F6F6F6"/>
</svg>
