<svg width="27" height="24" viewBox="0 0 27 24" fill="none" xmlns="http://www.w3.org/2000/svg">
<path d="M13.4999 0.0700684C6.5249 0.0700684 0.899902 4.52507 0.899902 10.0151C0.899902 13.6151 3.2849 16.7201 6.8849 18.4751C6.6149 19.4651 5.9399 22.0301 5.8049 22.5701C5.6249 23.2451 6.0749 23.2451 6.3449 23.0651C6.5699 22.9301 9.8099 20.7251 11.2049 19.7801C11.9699 19.8701 12.7349 19.9601 13.5449 19.9601C20.5199 19.9601 26.1449 15.5051 26.1449 10.0151C26.1449 4.52507 20.4749 0.0700684 13.4999 0.0700684Z" fill="#381E1F"/>
<path d="M8.77504 7.85449C7.87504 7.85449 4.77004 7.85449 4.77004 7.85449C4.00504 7.85449 4.00504 9.15949 4.77004 9.15949H6.07504C6.07504 9.15949 6.07504 12.7595 6.07504 13.5695C6.07504 14.1995 7.42504 14.1995 7.42504 13.5695V9.15949C7.42504 9.15949 7.87504 9.15949 8.73004 9.15949C9.58504 9.11449 9.58504 7.85449 8.77504 7.85449Z" fill="url(#paint0_linear)"/>
<path d="M11.835 8.26004C11.655 7.85504 10.53 7.63004 10.215 8.26004C9.90002 8.98004 8.73002 12.355 8.32502 13.21C8.05502 13.84 9.27002 14.38 9.54002 13.75L9.81002 12.85H12.195C12.195 12.85 12.105 12.895 12.42 13.75C12.69 14.425 13.905 13.975 13.68 13.255C13.365 12.22 12.06 8.75504 11.835 8.26004ZM10.26 11.59L11.07 9.29504L11.79 11.59H10.26Z" fill="url(#paint1_linear)"/>
<path d="M17.3699 12.67C16.7399 12.67 15.6149 12.67 15.6149 12.67C15.6149 12.67 15.6149 9.25002 15.6149 8.44002C15.6149 7.63002 14.1749 7.63002 14.1749 8.44002C14.1749 9.56502 14.1749 13.255 14.1749 13.255C14.1749 13.255 14.0849 13.975 14.7149 13.975C15.3449 13.975 16.7399 13.975 17.3699 13.975C17.9999 13.975 17.9549 12.67 17.3699 12.67Z" fill="url(#paint2_linear)"/>
<path d="M22.6798 13.075L20.8348 10.645C20.8348 10.645 22.0948 9.29505 22.5898 8.80005C22.8598 8.53004 22.0048 7.63004 21.6898 7.90004C21.4198 8.17004 19.4398 10.15 19.4398 10.15C19.4398 10.15 19.4398 8.93504 19.4398 8.26004C19.4398 7.72004 18.0898 7.76505 18.0898 8.30505C18.0898 8.80005 18.0898 13.345 18.0898 13.66C18.0898 14.2 19.4398 14.2 19.4398 13.66C19.4398 13.03 19.4398 11.86 19.4398 11.86L19.8448 11.545L21.5548 13.885C21.9598 14.335 23.0398 13.525 22.6798 13.075Z" fill="url(#paint3_linear)"/>
<defs>
<linearGradient id="paint0_linear" x1="4.2007" y1="10.9265" x2="9.38358" y2="10.9265" gradientUnits="userSpaceOnUse">
<stop stop-color="#E5DD4A"/>
<stop offset="0.0237429" stop-color="#E5DC47"/>
<stop offset="0.1784" stop-color="#E4D83C"/>
<stop offset="0.3958" stop-color="#E4D635"/>
<stop offset="1" stop-color="#E4D533"/>
</linearGradient>
<linearGradient id="paint1_linear" x1="8.32605" y1="10.9333" x2="13.7612" y2="10.9333" gradientUnits="userSpaceOnUse">
<stop stop-color="#E5DD4A"/>
<stop offset="0.0237429" stop-color="#E5DC47"/>
<stop offset="0.1784" stop-color="#E4D83C"/>
<stop offset="0.3958" stop-color="#E4D635"/>
<stop offset="1" stop-color="#E4D533"/>
</linearGradient>
<linearGradient id="paint2_linear" x1="14.1857" y1="10.9251" x2="17.8121" y2="10.9251" gradientUnits="userSpaceOnUse">
<stop stop-color="#E5DD4A"/>
<stop offset="0.0237429" stop-color="#E5DC47"/>
<stop offset="0.1784" stop-color="#E4D83C"/>
<stop offset="0.3958" stop-color="#E4D635"/>
<stop offset="1" stop-color="#E4D533"/>
</linearGradient>
<linearGradient id="paint3_linear" x1="18.1169" y1="10.9394" x2="22.7616" y2="10.9394" gradientUnits="userSpaceOnUse">
<stop stop-color="#E5DD4A"/>
<stop offset="0.0237429" stop-color="#E5DC47"/>
<stop offset="0.1784" stop-color="#E4D83C"/>
<stop offset="0.3958" stop-color="#E4D635"/>
<stop offset="1" stop-color="#E4D533"/>
</linearGradient>
</defs>
</svg>
