<svg width="15" height="19" viewBox="0 0 15 19" fill="none" xmlns="http://www.w3.org/2000/svg">
<path d="M7.72436 18.0037C6.42081 16.9263 5.21254 15.7452 4.11218 14.4727C2.4609 12.5617 0.500001 9.71571 0.500001 7.00371C0.498537 4.17126 2.25887 1.6171 4.95956 0.53311C7.66026 -0.550883 10.769 0.0489528 12.8351 2.05271C14.1937 3.36332 14.9548 5.1461 14.9488 7.00371C14.9488 9.71571 12.9878 12.5617 11.3365 14.4727C10.2362 15.7452 9.02791 16.9263 7.72436 18.0037ZM7.72436 2.00371C4.87584 2.00702 2.56752 4.24366 2.5641 7.00371C2.5641 8.16971 3.108 10.1887 5.69638 13.1897C6.33433 13.9278 7.01123 14.6334 7.72436 15.3037C8.43755 14.6342 9.11478 13.9296 9.75337 13.1927C12.3407 10.1877 12.8846 8.16871 12.8846 7.00371C12.8812 4.24366 10.5729 2.00702 7.72436 2.00371ZM7.72436 10.0037C6.0144 10.0037 4.62821 8.66057 4.62821 7.00371C4.62821 5.34686 6.0144 4.00371 7.72436 4.00371C9.43432 4.00371 10.8205 5.34686 10.8205 7.00371C10.8205 7.79936 10.4943 8.56242 9.91367 9.12503C9.33303 9.68764 8.54551 10.0037 7.72436 10.0037Z" fill="#333333"/>
</svg>
