<svg width="24" height="25" viewBox="0 0 24 25" fill="none" xmlns="http://www.w3.org/2000/svg">
<path d="M12 19.5C8.13401 19.5 5 16.366 5 12.5C5 8.63401 8.13401 5.5 12 5.5C15.866 5.5 19 8.63401 19 12.5C18.9956 16.3642 15.8642 19.4956 12 19.5ZM12 7.5C9.23858 7.5 7 9.73858 7 12.5C7 15.2614 9.23858 17.5 12 17.5C14.7614 17.5 17 15.2614 17 12.5C17 9.73858 14.7614 7.5 12 7.5ZM12 15.5C10.3431 15.5 9 14.1569 9 12.5C9 10.8431 10.3431 9.5 12 9.5C13.6569 9.5 15 10.8431 15 12.5C15 13.2956 14.6839 14.0587 14.1213 14.6213C13.5587 15.1839 12.7956 15.5 12 15.5Z" fill="#2E3A59"/>
</svg>
