<svg width="21" height="20" viewBox="0 0 21 20" fill="none" xmlns="http://www.w3.org/2000/svg">
<path fill-rule="evenodd" clip-rule="evenodd" d="M9.875 6.25V3.78086C6.92224 4.07403 4.57403 6.42224 4.28086 9.375H6.75V10.625H4.28086C4.57403 13.5778 6.92224 15.926 9.875 16.2191V13.75H11.125V16.2191C14.0778 15.926 16.426 13.5778 16.7191 10.625H14.25V9.375H16.7191C16.426 6.42224 14.0778 4.07403 11.125 3.78086V6.25H9.875ZM11.125 17.4743C14.7686 17.1737 17.6737 14.2686 17.9743 10.625H20.5V9.375H17.9743C17.6737 5.73138 14.7686 2.82626 11.125 2.52567V0H9.875V2.52567C6.23138 2.82626 3.32626 5.73138 3.02567 9.375H0.5V10.625H3.02567C3.32626 14.2686 6.23138 17.1737 9.875 17.4743V20H11.125V17.4743Z" fill="url(#paint0_linear)"/>
<defs>
<linearGradient id="paint0_linear" x1="31.1818" y1="14.7727" x2="1.37244" y2="26.4228" gradientUnits="userSpaceOnUse">
<stop stop-color="#46FFA2"/>
<stop offset="1" stop-color="#3FFFA3"/>
</linearGradient>
</defs>
</svg>
