<svg width="16" height="16" viewBox="0 0 16 16" fill="none" xmlns="http://www.w3.org/2000/svg">
<path d="M7.63 15.5C3.48787 15.5 0.130005 12.1421 0.130005 8C0.130005 3.85786 3.48787 0.5 7.63 0.5C11.7721 0.5 15.13 3.85786 15.13 8C15.1255 12.1403 11.7703 15.4955 7.63 15.5ZM1.63 8.129C1.66549 11.4299 4.36084 14.0822 7.66191 14.0645C10.963 14.0467 13.6297 11.3656 13.6297 8.0645C13.6297 4.76338 10.963 2.08233 7.66191 2.0645C4.36084 2.04684 1.66549 4.69907 1.63 8V8.129ZM8.38 11.75H6.88V8.75H3.88V7.25H6.88V4.25H8.38V7.25H11.38V8.75H8.38V11.75Z" fill="#333333"/>
</svg>
