<svg width="15" height="16" viewBox="0 0 15 16" fill="none" xmlns="http://www.w3.org/2000/svg">
<path d="M7.5 15.5C3.35786 15.5 0 12.1421 0 8C0 3.85786 3.35786 0.5 7.5 0.5C11.6421 0.5 15 3.85786 15 8C14.9955 12.1403 11.6403 15.4955 7.5 15.5ZM1.5 8.129C1.53549 11.4299 4.23083 14.0822 7.5319 14.0645C10.833 14.0467 13.4997 11.3656 13.4997 8.0645C13.4997 4.76338 10.833 2.08233 7.5319 2.0645C4.23083 2.04684 1.53549 4.69907 1.5 8V8.129ZM8.25 11.75H6.75V8.75H3.75V7.25H6.75V4.25H8.25V7.25H11.25V8.75H8.25V11.75Z" fill="#0ACF83"/>
</svg>
