<svg width="48" height="36" viewBox="0 0 48 36" fill="none" xmlns="http://www.w3.org/2000/svg">
<mask id="path-1-outside-1" maskUnits="userSpaceOnUse" x="12.5" y="0" width="30" height="36" fill="black">
<rect fill="white" x="12.5" width="30" height="36"/>
<path fill-rule="evenodd" clip-rule="evenodd" d="M27.5 27C26.6758 27 25.8711 26.9169 25.0936 26.7587C24.4428 28.0861 23.0781 29 21.5 29C19.2909 29 17.5 27.2091 17.5 25C17.5 24.1243 17.7814 23.3143 18.2587 22.6555C16.5358 20.578 15.5 17.9099 15.5 15C15.5 8.37258 20.8726 3 27.5 3C34.1274 3 39.5 8.37258 39.5 15C39.5 21.6274 34.1274 27 27.5 27ZM15.5 31C15.5 32.1046 16.3954 33 17.5 33C18.6046 33 19.5 32.1046 19.5 31C19.5 29.8954 18.6046 29 17.5 29C16.3954 29 15.5 29.8954 15.5 31Z"/>
</mask>
<path fill-rule="evenodd" clip-rule="evenodd" d="M27.5 27C26.6758 27 25.8711 26.9169 25.0936 26.7587C24.4428 28.0861 23.0781 29 21.5 29C19.2909 29 17.5 27.2091 17.5 25C17.5 24.1243 17.7814 23.3143 18.2587 22.6555C16.5358 20.578 15.5 17.9099 15.5 15C15.5 8.37258 20.8726 3 27.5 3C34.1274 3 39.5 8.37258 39.5 15C39.5 21.6274 34.1274 27 27.5 27ZM15.5 31C15.5 32.1046 16.3954 33 17.5 33C18.6046 33 19.5 32.1046 19.5 31C19.5 29.8954 18.6046 29 17.5 29C16.3954 29 15.5 29.8954 15.5 31Z" fill="white"/>
<path d="M25.0936 26.7587L22.4 25.438L23.4205 23.3566L25.692 23.819L25.0936 26.7587ZM18.2587 22.6555L20.5679 20.7404L22.0534 22.5315L20.6881 24.4158L18.2587 22.6555ZM25.692 23.819C26.2736 23.9373 26.878 24 27.5 24V30C26.4737 30 25.4685 29.8965 24.4952 29.6984L25.692 23.819ZM21.5 26C21.8901 26 22.2338 25.777 22.4 25.438L27.7873 28.0794C26.6518 30.3952 24.2662 32 21.5 32V26ZM20.5 25C20.5 25.5523 20.9477 26 21.5 26V32C17.634 32 14.5 28.866 14.5 25H20.5ZM20.6881 24.4158C20.5693 24.5797 20.5 24.7773 20.5 25H14.5C14.5 23.4712 14.9936 22.0488 15.8294 20.8953L20.6881 24.4158ZM18.5 15C18.5 17.1851 19.2749 19.1812 20.5679 20.7404L15.9495 24.5706C13.7967 21.9747 12.5 18.6348 12.5 15H18.5ZM27.5 6C22.5294 6 18.5 10.0294 18.5 15H12.5C12.5 6.71573 19.2157 0 27.5 0V6ZM36.5 15C36.5 10.0294 32.4706 6 27.5 6V0C35.7843 0 42.5 6.71573 42.5 15H36.5ZM27.5 24C32.4706 24 36.5 19.9706 36.5 15H42.5C42.5 23.2843 35.7843 30 27.5 30V24ZM17.5 36C14.7386 36 12.5 33.7614 12.5 31H18.5C18.5 30.4477 18.0523 30 17.5 30V36ZM22.5 31C22.5 33.7614 20.2614 36 17.5 36V30C16.9477 30 16.5 30.4477 16.5 31H22.5ZM17.5 26C20.2614 26 22.5 28.2386 22.5 31H16.5C16.5 31.5523 16.9477 32 17.5 32V26ZM12.5 31C12.5 28.2386 14.7386 26 17.5 26V32C18.0523 32 18.5 31.5523 18.5 31H12.5Z" fill="#FCFCFC" mask="url(#path-1-outside-1)"/>
<mask id="path-3-outside-2" maskUnits="userSpaceOnUse" x="14.5" y="2" width="26" height="32" fill="black">
<rect fill="white" x="14.5" y="2" width="26" height="32"/>
<path fill-rule="evenodd" clip-rule="evenodd" d="M27.5 27C26.6758 27 25.8711 26.9169 25.0936 26.7587C24.4428 28.0861 23.0781 29 21.5 29C19.2909 29 17.5 27.2091 17.5 25C17.5 24.1243 17.7814 23.3143 18.2587 22.6555C16.5358 20.578 15.5 17.9099 15.5 15C15.5 8.37258 20.8726 3 27.5 3C34.1274 3 39.5 8.37258 39.5 15C39.5 21.6274 34.1274 27 27.5 27ZM15.5 31C15.5 32.1046 16.3954 33 17.5 33C18.6046 33 19.5 32.1046 19.5 31C19.5 29.8954 18.6046 29 17.5 29C16.3954 29 15.5 29.8954 15.5 31Z"/>
</mask>
<path fill-rule="evenodd" clip-rule="evenodd" d="M27.5 27C26.6758 27 25.8711 26.9169 25.0936 26.7587C24.4428 28.0861 23.0781 29 21.5 29C19.2909 29 17.5 27.2091 17.5 25C17.5 24.1243 17.7814 23.3143 18.2587 22.6555C16.5358 20.578 15.5 17.9099 15.5 15C15.5 8.37258 20.8726 3 27.5 3C34.1274 3 39.5 8.37258 39.5 15C39.5 21.6274 34.1274 27 27.5 27ZM15.5 31C15.5 32.1046 16.3954 33 17.5 33C18.6046 33 19.5 32.1046 19.5 31C19.5 29.8954 18.6046 29 17.5 29C16.3954 29 15.5 29.8954 15.5 31Z" fill="#ECEBEB"/>
<path d="M25.0936 26.7587L24.1958 26.3184L24.5359 25.6246L25.2931 25.7788L25.0936 26.7587ZM18.2587 22.6555L19.0285 22.0172L19.5236 22.6142L19.0685 23.2423L18.2587 22.6555ZM25.2931 25.7788C26.0053 25.9237 26.7432 26 27.5 26V28C26.6085 28 25.7369 27.9101 24.8942 27.7386L25.2931 25.7788ZM21.5 28C22.6821 28 23.7065 27.3164 24.1958 26.3184L25.9915 27.1989C25.1791 28.8558 23.4741 30 21.5 30V28ZM18.5 25C18.5 26.6569 19.8431 28 21.5 28V30C18.7386 30 16.5 27.7614 16.5 25H18.5ZM19.0685 23.2423C18.7107 23.7361 18.5 24.342 18.5 25H16.5C16.5 23.9066 16.8521 22.8925 17.449 22.0688L19.0685 23.2423ZM16.5 15C16.5 17.6683 17.4488 20.1124 19.0285 22.0172L17.489 23.2939C15.6227 21.0435 14.5 18.1516 14.5 15H16.5ZM27.5 4C21.4249 4 16.5 8.92487 16.5 15H14.5C14.5 7.8203 20.3203 2 27.5 2V4ZM38.5 15C38.5 8.92487 33.5751 4 27.5 4V2C34.6797 2 40.5 7.8203 40.5 15H38.5ZM27.5 26C33.5751 26 38.5 21.0751 38.5 15H40.5C40.5 22.1797 34.6797 28 27.5 28V26ZM17.5 34C15.8431 34 14.5 32.6569 14.5 31H16.5C16.5 31.5523 16.9477 32 17.5 32V34ZM20.5 31C20.5 32.6569 19.1569 34 17.5 34V32C18.0523 32 18.5 31.5523 18.5 31H20.5ZM17.5 28C19.1569 28 20.5 29.3431 20.5 31H18.5C18.5 30.4477 18.0523 30 17.5 30V28ZM14.5 31C14.5 29.3431 15.8431 28 17.5 28V30C16.9477 30 16.5 30.4477 16.5 31H14.5Z" fill="#ECEBEB" mask="url(#path-3-outside-2)"/>
<path fill-rule="evenodd" clip-rule="evenodd" d="M22.8334 17.879C22.8334 17.0513 22.8915 15.8578 23.0958 15.5261C23.3 15.1945 25.0803 13.5518 25.656 12.2141C26.2317 10.8763 26.3309 9 27.2764 9C28.2218 9 28.5314 9.71533 28.4311 11.1848C28.3308 12.6542 27.6284 13.5611 28.1224 13.919C28.4581 14.1622 29.0501 13.7645 30.4863 13.7645C31.1121 13.7645 32.1667 13.7645 32.1667 14.6032C32.1667 15.442 31.982 15.3457 31.8977 15.9151C31.8134 16.4845 32.0672 16.7605 31.7868 17.4029C31.5064 18.0453 31.1612 18.1242 31.0007 18.5842C30.8402 19.0443 30.8964 19.5389 30.1456 20.2129C29.3948 20.887 28.1966 21 27.2764 21C26.3562 21 23.6223 20.6917 23.2458 19.8212C22.8693 18.9508 22.8334 18.6334 22.8334 17.879Z" fill="#005FFF"/>
</svg>
