<?xml version="1.0" encoding="utf-8"?>
<!-- Generator: Adobe Illustrator 25.3.1, SVG Export Plug-In . SVG Version: 6.00 Build 0)  -->
<svg version="1.1" id="Layer_1" xmlns="http://www.w3.org/2000/svg" xmlns:xlink="http://www.w3.org/1999/xlink" x="0px" y="0px"
	 viewBox="0 0 20 20" style="enable-background:new 0 0 20 20;" xml:space="preserve">
<style type="text/css">
	.st0{fill:url(#SVGID_1_);}
	.st1{fill:url(#SVGID_2_);}
</style>
<linearGradient id="SVGID_1_" gradientUnits="userSpaceOnUse" x1="-1.8375" y1="17.1614" x2="28.0042" y2="4.1497" gradientTransform="matrix(1 0 0 -1 0 22)">
	<stop  offset="0" style="stop-color:#FF5486"/>
	<stop  offset="0.9987" style="stop-color:#AD0000"/>
</linearGradient>
<path class="st0" d="M10,20C4.5,20,0,15.5,0,10C0,4.5,4.5,0,10,0c5.5,0,10,4.5,10,10C20,15.5,15.5,20,10,20z M10,18L10,18
	c4.4,0,8-3.6,8-8c0-4.4-3.6-8-8-8c-4.4,0-8,3.6-8,8C2,14.4,5.6,18,10,18z"/>
<linearGradient id="SVGID_2_" gradientUnits="userSpaceOnUse" x1="4.3488" y1="12.4637" x2="15.6507" y2="7.5358" gradientTransform="matrix(6.123234e-17 1 -1 6.123234e-17 19.9995 0)">
	<stop  offset="0" style="stop-color:#FF5486"/>
	<stop  offset="0.9987" style="stop-color:#AD0000"/>
</linearGradient>
<polygon class="st1" points="13.5,15.2 15.2,13.5 11.8,10 15.2,6.5 13.5,4.8 10,8.2 6.5,4.8 4.8,6.5 8.2,10 4.8,13.5 6.5,15.2 
	10,11.8 "/>
</svg>
