<svg width="49" height="36" viewBox="0 0 49 36" fill="none" xmlns="http://www.w3.org/2000/svg">
<mask id="path-1-outside-1" maskUnits="userSpaceOnUse" x="5.5" y="0" width="30" height="36" fill="black">
<rect fill="white" x="5.5" width="30" height="36"/>
<path fill-rule="evenodd" clip-rule="evenodd" d="M20.5 27C21.3242 27 22.1289 26.9169 22.9064 26.7587C23.5572 28.0861 24.9219 29 26.5 29C28.7091 29 30.5 27.2091 30.5 25C30.5 24.1243 30.2186 23.3143 29.7413 22.6555C31.4642 20.578 32.5 17.9099 32.5 15C32.5 8.37258 27.1274 3 20.5 3C13.8726 3 8.5 8.37258 8.5 15C8.5 21.6274 13.8726 27 20.5 27ZM32.5 31C32.5 32.1046 31.6046 33 30.5 33C29.3954 33 28.5 32.1046 28.5 31C28.5 29.8954 29.3954 29 30.5 29C31.6046 29 32.5 29.8954 32.5 31Z"/>
</mask>
<path fill-rule="evenodd" clip-rule="evenodd" d="M20.5 27C21.3242 27 22.1289 26.9169 22.9064 26.7587C23.5572 28.0861 24.9219 29 26.5 29C28.7091 29 30.5 27.2091 30.5 25C30.5 24.1243 30.2186 23.3143 29.7413 22.6555C31.4642 20.578 32.5 17.9099 32.5 15C32.5 8.37258 27.1274 3 20.5 3C13.8726 3 8.5 8.37258 8.5 15C8.5 21.6274 13.8726 27 20.5 27ZM32.5 31C32.5 32.1046 31.6046 33 30.5 33C29.3954 33 28.5 32.1046 28.5 31C28.5 29.8954 29.3954 29 30.5 29C31.6046 29 32.5 29.8954 32.5 31Z" fill="white"/>
<path d="M22.9064 26.7587L25.6 25.438L24.5795 23.3566L22.308 23.819L22.9064 26.7587ZM29.7413 22.6555L27.4321 20.7404L25.9466 22.5315L27.3119 24.4158L29.7413 22.6555ZM22.308 23.819C21.7264 23.9373 21.122 24 20.5 24V30C21.5263 30 22.5315 29.8965 23.5048 29.6984L22.308 23.819ZM26.5 26C26.1099 26 25.7662 25.777 25.6 25.438L20.2127 28.0794C21.3482 30.3952 23.7338 32 26.5 32V26ZM27.5 25C27.5 25.5523 27.0523 26 26.5 26V32C30.366 32 33.5 28.866 33.5 25H27.5ZM27.3119 24.4158C27.4307 24.5797 27.5 24.7773 27.5 25H33.5C33.5 23.4712 33.0064 22.0488 32.1706 20.8953L27.3119 24.4158ZM29.5 15C29.5 17.1851 28.7251 19.1812 27.4321 20.7404L32.0505 24.5706C34.2033 21.9747 35.5 18.6348 35.5 15H29.5ZM20.5 6C25.4706 6 29.5 10.0294 29.5 15H35.5C35.5 6.71573 28.7843 0 20.5 0V6ZM11.5 15C11.5 10.0294 15.5294 6 20.5 6V0C12.2157 0 5.5 6.71573 5.5 15H11.5ZM20.5 24C15.5294 24 11.5 19.9706 11.5 15H5.5C5.5 23.2843 12.2157 30 20.5 30V24ZM30.5 36C33.2614 36 35.5 33.7614 35.5 31H29.5C29.5 30.4477 29.9477 30 30.5 30V36ZM25.5 31C25.5 33.7614 27.7386 36 30.5 36V30C31.0523 30 31.5 30.4477 31.5 31H25.5ZM30.5 26C27.7386 26 25.5 28.2386 25.5 31H31.5C31.5 31.5523 31.0523 32 30.5 32V26ZM35.5 31C35.5 28.2386 33.2614 26 30.5 26V32C29.9477 32 29.5 31.5523 29.5 31H35.5Z" fill="#FCFCFC" mask="url(#path-1-outside-1)"/>
<mask id="path-3-outside-2" maskUnits="userSpaceOnUse" x="7.5" y="2" width="26" height="32" fill="black">
<rect fill="white" x="7.5" y="2" width="26" height="32"/>
<path fill-rule="evenodd" clip-rule="evenodd" d="M20.5 27C21.3242 27 22.1289 26.9169 22.9064 26.7587C23.5572 28.0861 24.9219 29 26.5 29C28.7091 29 30.5 27.2091 30.5 25C30.5 24.1243 30.2186 23.3143 29.7413 22.6555C31.4642 20.578 32.5 17.9099 32.5 15C32.5 8.37258 27.1274 3 20.5 3C13.8726 3 8.5 8.37258 8.5 15C8.5 21.6274 13.8726 27 20.5 27ZM32.5 31C32.5 32.1046 31.6046 33 30.5 33C29.3954 33 28.5 32.1046 28.5 31C28.5 29.8954 29.3954 29 30.5 29C31.6046 29 32.5 29.8954 32.5 31Z"/>
</mask>
<path fill-rule="evenodd" clip-rule="evenodd" d="M20.5 27C21.3242 27 22.1289 26.9169 22.9064 26.7587C23.5572 28.0861 24.9219 29 26.5 29C28.7091 29 30.5 27.2091 30.5 25C30.5 24.1243 30.2186 23.3143 29.7413 22.6555C31.4642 20.578 32.5 17.9099 32.5 15C32.5 8.37258 27.1274 3 20.5 3C13.8726 3 8.5 8.37258 8.5 15C8.5 21.6274 13.8726 27 20.5 27ZM32.5 31C32.5 32.1046 31.6046 33 30.5 33C29.3954 33 28.5 32.1046 28.5 31C28.5 29.8954 29.3954 29 30.5 29C31.6046 29 32.5 29.8954 32.5 31Z" fill="white"/>
<path d="M22.9064 26.7587L23.8042 26.3184L23.4641 25.6246L22.7069 25.7788L22.9064 26.7587ZM29.7413 22.6555L28.9715 22.0172L28.4764 22.6142L28.9315 23.2423L29.7413 22.6555ZM22.7069 25.7788C21.9947 25.9237 21.2568 26 20.5 26V28C21.3915 28 22.2631 27.9101 23.1058 27.7386L22.7069 25.7788ZM26.5 28C25.3179 28 24.2935 27.3164 23.8042 26.3184L22.0085 27.1989C22.8209 28.8558 24.5259 30 26.5 30V28ZM29.5 25C29.5 26.6569 28.1569 28 26.5 28V30C29.2614 30 31.5 27.7614 31.5 25H29.5ZM28.9315 23.2423C29.2893 23.7361 29.5 24.342 29.5 25H31.5C31.5 23.9066 31.1479 22.8925 30.551 22.0688L28.9315 23.2423ZM31.5 15C31.5 17.6683 30.5512 20.1124 28.9715 22.0172L30.511 23.2939C32.3773 21.0435 33.5 18.1516 33.5 15H31.5ZM20.5 4C26.5751 4 31.5 8.92487 31.5 15H33.5C33.5 7.8203 27.6797 2 20.5 2V4ZM9.5 15C9.5 8.92487 14.4249 4 20.5 4V2C13.3203 2 7.5 7.8203 7.5 15H9.5ZM20.5 26C14.4249 26 9.5 21.0751 9.5 15H7.5C7.5 22.1797 13.3203 28 20.5 28V26ZM30.5 34C32.1569 34 33.5 32.6569 33.5 31H31.5C31.5 31.5523 31.0523 32 30.5 32V34ZM27.5 31C27.5 32.6569 28.8431 34 30.5 34V32C29.9477 32 29.5 31.5523 29.5 31H27.5ZM30.5 28C28.8431 28 27.5 29.3431 27.5 31H29.5C29.5 30.4477 29.9477 30 30.5 30V28ZM33.5 31C33.5 29.3431 32.1569 28 30.5 28V30C31.0523 30 31.5 30.4477 31.5 31H33.5Z" fill="#ECEBEB" mask="url(#path-3-outside-2)"/>
<path fill-rule="evenodd" clip-rule="evenodd" d="M15.8334 17.879C15.8334 17.0513 15.8915 15.8578 16.0958 15.5261C16.3 15.1945 18.0803 13.5518 18.656 12.2141C19.2317 10.8763 19.3309 9 20.2764 9C21.2218 9 21.5314 9.71533 21.4311 11.1848C21.3308 12.6542 20.6284 13.5611 21.1224 13.919C21.4581 14.1622 22.0501 13.7645 23.4863 13.7645C24.1121 13.7645 25.1667 13.7645 25.1667 14.6032C25.1667 15.442 24.982 15.3457 24.8977 15.9151C24.8134 16.4845 25.0672 16.7605 24.7868 17.4029C24.5064 18.0453 24.1612 18.1242 24.0007 18.5842C23.8402 19.0443 23.8964 19.5389 23.1456 20.2129C22.3948 20.887 21.1966 21 20.2764 21C19.3562 21 16.6223 20.6917 16.2458 19.8212C15.8693 18.9508 15.8334 18.6334 15.8334 17.879Z" fill="#7A7A7A"/>
</svg>
