<svg width="24" height="24" viewBox="0 0 24 24" fill="none" xmlns="http://www.w3.org/2000/svg">
<path d="M17.8758 14.4658C16.2307 14.4658 14.8923 15.8042 14.8923 17.4493C14.8923 19.0944 16.2307 20.4327 17.8758 20.4327C19.5212 20.4327 20.8592 19.0944 20.8592 17.4493C20.8592 15.8042 19.5209 14.4658 17.8758 14.4658ZM17.8758 18.941C17.0531 18.941 16.3841 18.272 16.3841 17.4493C16.3841 16.6266 17.0531 15.9575 17.8758 15.9575C18.6985 15.9575 19.3675 16.6266 19.3675 17.4493C19.3675 18.272 18.6985 18.941 17.8758 18.941Z" fill="#495057"/>
<path d="M7.68243 14.4658C6.03732 14.4658 4.69897 15.8042 4.69897 17.4493C4.69897 19.0944 6.03732 20.4327 7.68243 20.4327C9.32755 20.4327 10.6659 19.0944 10.6659 17.4493C10.6659 15.8042 9.32755 14.4658 7.68243 14.4658ZM7.68243 18.941C6.85976 18.941 6.1907 18.272 6.1907 17.4493C6.1907 16.6266 6.85976 15.9575 7.68243 15.9575C8.50487 15.9575 9.17416 16.6266 9.17416 17.4493C9.17416 18.272 8.50511 18.941 7.68243 18.941Z" fill="#495057"/>
<path d="M19.8851 5.92636C19.7583 5.67451 19.5004 5.51562 19.2185 5.51562H15.2903V7.00735H18.7585L20.7895 11.0469L22.1226 10.3766L19.8851 5.92636Z" fill="#495057"/>
<path d="M15.6383 16.7285H9.99463V18.2202H15.6383V16.7285Z" fill="#495057"/>
<path d="M5.44474 16.7285H2.85912C2.44714 16.7285 2.11328 17.0624 2.11328 17.4744C2.11328 17.8863 2.44719 18.2202 2.85912 18.2202H5.44479C5.85677 18.2202 6.19063 17.8863 6.19063 17.4744C6.19063 17.0624 5.85673 16.7285 5.44474 16.7285Z" fill="#495057"/>
<path d="M23.5121 12.1687L22.045 10.2792C21.904 10.0972 21.6865 9.9908 21.456 9.9908H16.036V4.76977C16.036 4.35778 15.7021 4.02393 15.2902 4.02393H2.85912C2.44714 4.02393 2.11328 4.35783 2.11328 4.76977C2.11328 5.1817 2.44719 5.51561 2.85912 5.51561H14.5443V10.7366C14.5443 11.1486 14.8782 11.4825 15.2901 11.4825H21.0907L22.1769 12.8817V16.7284H20.1134C19.7014 16.7284 19.3675 17.0623 19.3675 17.4742C19.3675 17.8862 19.7014 18.2201 20.1134 18.2201H22.9228C23.3348 18.2201 23.6687 17.8862 23.6687 17.4742V12.6262C23.6687 12.4606 23.6135 12.2995 23.5121 12.1687Z" fill="#495057"/>
<path d="M5.39509 12.9492H1.9641C1.55212 12.9492 1.21826 13.2831 1.21826 13.6951C1.21826 14.107 1.55217 14.4409 1.9641 14.4409H5.39505C5.80703 14.4409 6.14089 14.107 6.14089 13.6951C6.14089 13.2831 5.80703 12.9492 5.39509 12.9492Z" fill="#495057"/>
<path d="M7.11055 10.0156H0.745841C0.333904 10.0156 0 10.3495 0 10.7615C0 11.1735 0.333904 11.5074 0.745841 11.5074H7.11055C7.52253 11.5074 7.85639 11.1734 7.85639 10.7615C7.85639 10.3496 7.52253 10.0156 7.11055 10.0156Z" fill="#495057"/>
<path d="M8.32881 7.08203H1.9641C1.55212 7.08203 1.21826 7.41594 1.21826 7.82787C1.21826 8.23986 1.55217 8.57371 1.9641 8.57371H8.32881C8.74079 8.57371 9.07465 8.23981 9.07465 7.82787C9.07465 7.41594 8.74079 7.08203 8.32881 7.08203Z" fill="#495057"/>
</svg>
