<svg width="13" height="14" viewBox="0 0 13 14" fill="none" xmlns="http://www.w3.org/2000/svg">
<path d="M10.1111 14H2.88889C2.09114 14 1.44444 13.3732 1.44444 12.6V3.5H0V2.1H2.88889V1.4C2.88889 0.626801 3.53559 0 4.33333 0H8.66667C9.46441 0 10.1111 0.626801 10.1111 1.4V2.1H13V3.5H11.5556V12.6C11.5556 13.3732 10.9089 14 10.1111 14ZM2.88889 3.5V12.6H10.1111V3.5H2.88889ZM4.33333 1.4V2.1H8.66667V1.4H4.33333ZM8.66667 11.2H7.22222V4.9H8.66667V11.2ZM5.77778 11.2H4.33333V4.9H5.77778V11.2Z" fill="#4F4F4F"/>
</svg>
