<svg width="16" height="25" viewBox="0 0 16 25" fill="none" xmlns="http://www.w3.org/2000/svg">
<path d="M2.307 11.6484H14.5606C15.1933 11.6484 15.7129 12.1055 15.7129 12.6678V23.5009C15.7129 24.0632 15.1933 24.5214 14.5606 24.5214H2.307C1.67193 24.5214 1.15233 24.0643 1.15233 23.5009V12.6678C1.15233 12.1067 1.67193 11.6484 2.307 11.6484ZM7.60903 18.0478V20.4041C7.61088 20.6157 7.69837 20.8181 7.85264 20.9678C8.00691 21.1174 8.21562 21.2022 8.43379 21.204C8.65289 21.2034 8.86293 21.1191 9.0184 20.9694C9.17388 20.8197 9.26228 20.6166 9.26444 20.4041V18.0523C9.5826 17.9022 9.85078 17.6683 10.0383 17.3773C10.2258 17.0863 10.3251 16.75 10.3248 16.4068C10.3233 15.9223 10.1242 15.4582 9.77098 15.1156C9.41778 14.773 8.93918 14.5799 8.43968 14.5784C7.93971 14.5784 7.4602 14.7711 7.10667 15.1139C6.75313 15.4568 6.55452 15.9219 6.55452 16.4068C6.55283 16.7484 6.64985 17.0836 6.83456 17.3744C7.01928 17.6653 7.28431 17.9001 7.5996 18.0523L7.60903 18.0478Z" stroke="black" stroke-width="0.5" stroke-miterlimit="10"/>
<path d="M12.115 10.1271V6.81318C12.1138 5.88474 11.7328 4.99468 11.0558 4.33828C10.3788 3.68188 9.461 3.31273 8.50373 3.31183C7.54594 3.31183 6.62734 3.68061 5.94975 4.33714C5.27216 4.99367 4.89103 5.88425 4.89009 6.81318V10.1271H2.59608V6.81318C2.59795 5.29504 3.22059 3.83959 4.32742 2.7661C5.43425 1.69261 6.9349 1.08873 8.50019 1.08691C10.0655 1.08873 11.5661 1.69261 12.673 2.7661C13.7798 3.83959 14.4024 5.29504 14.4043 6.81318V10.1271H12.115Z" stroke="black" stroke-width="0.5" stroke-miterlimit="10"/>
</svg>
