<svg width="25" height="26" fill="none" xmlns="http://www.w3.org/2000/svg">
    <path d="M16.415 11.509h-.863a6.356 6.356 0 0 0-5.567-6.306v-.074a2.998 2.998 0 0 1 2.994-2.994h6.876a2.998 2.998 0 0 1 2.994 2.994v19.8h1.586V5.146a4.584 4.584 0 0 0-4.58-4.58h-6.876a4.584 4.584 0 0 0-4.584 4.58v.074a6.355 6.355 0 0 0-5.566 6.29h-.863v1.841h14.453l-.004-1.841z" stroke="#000" stroke-width=".5" stroke-miterlimit="10"/>
    <path d="M4.724 16.791c0-.495-.896-1.974-.896-1.974l-.153.265c-.256.446-.743 1.346-.743 1.71a.896.896 0 0 0 .768.883.637.637 0 0 0 .128 0 .896.896 0 0 0 .896-.884zM8.007 16.791c0-.495-.896-1.974-.896-1.974s-.896 1.479-.896 1.974a.897.897 0 1 0 1.792 0zM10.394 17.703a.896.896 0 0 0 .896-.896c0-.496-.896-1.974-.896-1.974s-.9 1.478-.9 1.974a.9.9 0 0 0 .9.896zM13.677 17.703a.896.896 0 0 0 .896-.896c0-.496-.896-1.974-.896-1.974s-.9 1.478-.9 1.974a.9.9 0 0 0 .9.896zM3.304 20.138c0-.413-.644-1.545-.826-1.879l-.054-.095s-.9 1.478-.9 1.974a.904.904 0 0 0 .652.867.93.93 0 0 0 .215.025.898.898 0 0 0 .913-.892zM5.088 20.799a.86.86 0 0 0 .326.19.896.896 0 0 0 1.173-.85c0-.497-.896-1.975-.896-1.975s-.285.467-.537.966a3.133 3.133 0 0 0-.363 1.008.892.892 0 0 0 .297.66zM8.074 20.138a.896.896 0 0 0 1.531.634.9.9 0 0 0 .265-.634c0-.496-.9-1.974-.9-1.974s-.896 1.478-.896 1.974zM11.356 20.138a.896.896 0 0 0 1.532.634.9.9 0 0 0 .265-.634c0-.496-.9-1.974-.9-1.974s-.897 1.478-.897 1.974zM14.639 20.138a.896.896 0 0 0 1.792 0c0-.496-.896-1.974-.896-1.974s-.896 1.478-.896 1.974zM1.883 23.484c0-.496-.9-1.974-.9-1.974s-.896 1.478-.896 1.974a.896.896 0 0 0 .586.826.877.877 0 0 0 .31.057.9.9 0 0 0 .9-.883zM5.162 23.484c0-.496-.896-1.974-.896-1.974s-.302.495-.554 1.011a2.824 2.824 0 0 0-.342.963.892.892 0 0 0 .64.854.876.876 0 0 0 .89-.22.896.896 0 0 0 .262-.634zM6.653 23.484a.896.896 0 0 0 1.792 0c0-.496-.896-1.974-.896-1.974s-.896 1.482-.896 1.974zM9.936 23.484a.896.896 0 0 0 1.792 0c0-.496-.896-1.974-.896-1.974s-.896 1.482-.896 1.974zM13.218 23.484a.896.896 0 0 0 1.793 0c0-.496-.897-1.974-.897-1.974s-.896 1.482-.896 1.974zM16.502 23.484a.896.896 0 0 0 .896.896.896.896 0 0 0 .884-.896c0-.496-.896-1.974-.896-1.974s-.884 1.482-.884 1.974z" fill="#000"/>
</svg>
