<svg width="27" height="23" fill="none" xmlns="http://www.w3.org/2000/svg">
    <mask id="a" fill="#fff">
        <path d="M26.431 7.294a.398.398 0 0 0-.072-.288c-.026-.032-2.562-3.394-4.303-5.23C20.396.022 18.202.068 16.891.096h-.408a.339.339 0 0 0-.233.11.351.351 0 0 0-.09.246c0 1.183-1.194 2.142-2.661 2.142s-2.661-.96-2.661-2.142a.348.348 0 0 0-.195-.325.331.331 0 0 0-.128-.031h-.408C8.797.068 6.602.022 4.942 1.776 3.2 3.603.665 6.974.638 7.006a.373.373 0 0 0-.067.288.356.356 0 0 0 .148.246L6.4 11.386v10.816a.697.697 0 0 0 .18.49.673.673 0 0 0 .466.222h12.906a.664.664 0 0 0 .468-.22.688.688 0 0 0 .178-.492V11.377l5.68-3.846a.375.375 0 0 0 .153-.237zm-5.833 3.256V4.39h-.646v17.813H7.046V4.389H6.4v6.17L1.383 7.13c.673-.877 2.607-3.375 4.012-4.855C6.867.721 8.815.762 10.107.79h.12c.203 1.406 1.598 2.498 3.28 2.498 1.684 0 3.08-1.091 3.286-2.498h.12c1.289-.028 3.24-.069 4.708 1.484 1.404 1.48 3.338 3.978 4.012 4.855l-5.035 3.421z"/>
    </mask>
    <path d="M26.431 7.294a.398.398 0 0 0-.072-.288c-.026-.032-2.562-3.394-4.303-5.23C20.396.022 18.202.068 16.891.096h-.408a.339.339 0 0 0-.233.11.351.351 0 0 0-.09.246c0 1.183-1.194 2.142-2.661 2.142s-2.661-.96-2.661-2.142a.348.348 0 0 0-.195-.325.331.331 0 0 0-.128-.031h-.408C8.797.068 6.602.022 4.942 1.776 3.2 3.603.665 6.974.638 7.006a.373.373 0 0 0-.067.288.356.356 0 0 0 .148.246L6.4 11.386v10.816a.697.697 0 0 0 .18.49.673.673 0 0 0 .466.222h12.906a.664.664 0 0 0 .468-.22.688.688 0 0 0 .178-.492V11.377l5.68-3.846a.375.375 0 0 0 .153-.237zm-5.833 3.256V4.39h-.646v17.813H7.046V4.389H6.4v6.17L1.383 7.13c.673-.877 2.607-3.375 4.012-4.855C6.867.721 8.815.762 10.107.79h.12c.203 1.406 1.598 2.498 3.28 2.498 1.684 0 3.08-1.091 3.286-2.498h.12c1.289-.028 3.24-.069 4.708 1.484 1.404 1.48 3.338 3.978 4.012 4.855l-5.035 3.421z" fill="#000"/>
    <path d="m26.36 7.006.809-.587-.021-.03-.024-.027-.764.644zm-4.304-5.23-.726.688.726-.688zM16.891.096v1H16.912l-.02-1zm-.408 0v-1h-.053l.053 1zm-.323.356h1V.425l-1 .027zm-5.322 0-1-.04v.04h1zm-.323-.356.04-1h-.04v1zm-.408 0-.021 1h.02v-1zm-5.165 1.68.724.69.002-.002-.726-.688zM.638 7.006l-.764-.644-.02.024-.02.026.804.594zm-.067.288.993-.123-.004-.026-.004-.025-.985.174zm.148.246-.57.822.01.006.56-.828zM6.4 11.386h1v-.53l-.44-.298-.56.828zm0 10.816 1 .033v-.034h-1zm.646.712L7 23.913l.023.001h.023v-1zm12.906 0v1h.04l-.04-1zm.646-.713h-1v.04l1-.04zm0-10.824-.56-.828-.44.297v.53h1zm5.68-3.846.561.828.007-.004.007-.005-.574-.819zm-5.68 3.02h-1v1.888l1.562-1.062-.562-.827zm0-6.162h1v-1h-1v1zm-.646 0v-1h-1v1h1zm0 17.813v1h1v-1h-1zm-12.906 0h-1v1h1v-1zm0-17.813h1v-1h-1v1zm-.646 0v-1h-1v1h1zm0 6.17-.564.826 1.564 1.07v-1.896h-1zM1.383 7.13.59 6.52l-.643.838.872.597.564-.826zm4.012-4.855.725.689v-.001l-.725-.688zM10.107.79l-.022 1H10.106v-1zm.12 0 .99-.142-.123-.858h-.866v1zm6.566 0v-1h-.864l-.126.855.99.145zm.12 0v1h.022l-.021-1zm4.708 1.484-.727.687.002.002.725-.689zm4.012 4.855.562.827.876-.595-.645-.84-.793.608zm1.789.3a1.398 1.398 0 0 0-.253-1.01L25.55 7.593a.602.602 0 0 1-.11-.435l1.982.272zm-.298-1.067c.057.067-2.586-3.422-4.342-5.274L21.33 2.464c1.725 1.82 4.153 5.055 4.264 5.186l1.53-1.288zm-4.342-5.273C20.787-1.02 18.154-.931 16.87-.904l.042 2c1.337-.029 3.093-.032 4.418 1.368l1.452-1.375zm-5.89-1.993h-.409v2h.408v-2zm-.462 0a1.339 1.339 0 0 0-.92.439L16.99.878a.661.661 0 0 1-.455.216L16.43-.903zm-.92.439a1.35 1.35 0 0 0-.35.944l2-.054a.65.65 0 0 1-.169.453L15.509-.465zm-.35.917c0 .438-.532 1.142-1.661 1.142v2c1.806 0 3.66-1.215 3.66-3.142h-2zm-1.661 1.142c-1.13 0-1.661-.704-1.661-1.142h-2c0 1.927 1.855 3.142 3.661 3.142v-2zM11.837.492a1.347 1.347 0 0 0-.079-.512l-1.88.68a.652.652 0 0 1-.04-.248l2 .08zm-.079-.512a1.344 1.344 0 0 0-.268-.446L10.008.877a.656.656 0 0 1-.13-.218l1.88-.68zm-.268-.446a1.337 1.337 0 0 0-.422-.312l-.85 1.81a.662.662 0 0 1-.21-.155L11.49-.466zm-.422-.312a1.332 1.332 0 0 0-.513-.126l-.08 1.999a.667.667 0 0 1-.257-.063l.85-1.81zm-.553-.126h-.408v2h.408v-2zm-.388 0C8.845-.931 6.211-1.02 4.216 1.089l1.452 1.375c1.325-1.4 3.08-1.397 4.418-1.369l.041-2zm-5.91 1.99C2.46 2.931-.184 6.432-.125 6.362l1.53 1.288c.112-.134 2.537-3.374 4.262-5.184l-1.448-1.38zM-.165 6.412c-.111.15-.19.322-.232.503l1.947.455a.627.627 0 0 1-.106.23L-.166 6.412zm-.232.503c-.043.181-.048.37-.016.552l1.97-.347a.624.624 0 0 1-.007.25l-1.947-.455zm-.023.501c.023.188.085.369.183.532l1.714-1.03a.644.644 0 0 1 .088.253l-1.985.245zm.183.532c.098.163.23.304.387.414l1.14-1.643a.65.65 0 0 1 .187.2L-.238 7.947zm.397.42 5.68 3.846 1.122-1.656L1.28 6.712.159 8.368zM5.4 11.386v10.816h2V11.385h-2zm0 10.782c-.014.439.141.869.439 1.197L7.32 22.02c.055.06.082.138.08.214l-2-.067zm.439 1.197c.297.328.714.527 1.16.548l.094-1.998c.09.004.171.044.227.106L5.84 23.365zm1.207.549h12.906v-2H7.046v2zm12.945 0c.223-.01.44-.063.641-.157l-.85-1.81a.337.337 0 0 1 .13-.032l.08 1.998zm.641-.157c.201-.095.38-.228.529-.391l-1.482-1.344a.329.329 0 0 1 .103-.076l.85 1.81zm.529-.391c.148-.163.262-.354.337-.56l-1.882-.68a.313.313 0 0 1 .063-.104l1.482 1.344zm.337-.56c.074-.207.108-.426.099-.645l-1.998.08a.305.305 0 0 1 .017-.115l1.882.68zm.1-.605V11.377h-2V22.2h2zm-.44-9.996 5.681-3.846-1.12-1.656-5.682 3.846 1.121 1.656zm5.695-3.855c.295-.207.495-.52.56-.87l-1.964-.373c.03-.156.12-.299.256-.395l1.148 1.638zm-5.255 2.2V4.39h-2v6.161h2zm-1-7.161h-.646v2h.646v-2zm-1.646 1v17.813h2V4.389h-2zm1 16.813H7.046v2h12.906v-2zm-11.906 1V4.389h-2v17.813h2zm-1-18.813H6.4v2h.646v-2zm-1.646 1v6.17h2V4.39h-2zm1.565 5.345-5.017-3.43-1.13 1.65 5.018 3.43 1.129-1.65zM2.177 7.738c.68-.885 2.581-3.34 3.943-4.775L4.67 1.586C3.223 3.11 1.257 5.652.59 6.52l1.587 1.218zM6.12 2.962c1.134-1.196 2.636-1.2 3.964-1.172l.043-2C8.872-.237 6.479-.323 4.669 1.586l1.452 1.376zm3.986-1.172h.12v-2h-.12v2zm-.87-.858c.288 1.999 2.199 3.356 4.27 3.356v-2c-1.293 0-2.172-.826-2.29-1.64l-1.98.284zm4.27 3.356c2.074 0 3.982-1.357 4.275-3.353l-1.979-.29c-.12.817-1.003 1.643-2.295 1.643v2zm3.286-2.498h.12v-2h-.12v2zm.142 0c1.325-.029 2.83-.024 3.96 1.17l1.453-1.373C20.542-.323 18.143-.237 16.892-.21l.043 2zm3.96 1.173c1.363 1.435 3.265 3.89 3.944 4.775l1.587-1.218c-.667-.868-2.633-3.41-4.08-4.934l-1.45 1.377zm4.175 3.34-5.034 3.42 1.124 1.654 5.035-3.42-1.125-1.655z" fill="#000" mask="url(#a)"/>
</svg>
