<?xml version="1.0" encoding="utf-8"?>
<!-- Generator: Adobe Illustrator 25.4.1, SVG Export Plug-In . SVG Version: 6.00 Build 0)  -->
<svg version="1.1" id="Layer_1" xmlns="http://www.w3.org/2000/svg" xmlns:xlink="http://www.w3.org/1999/xlink" x="0px" y="0px"
	 viewBox="0 0 94 94" style="enable-background:new 0 0 94 94;" xml:space="preserve">
<style type="text/css">
	.st0{fill:#FFFFFF;stroke:#FFFFFF;stroke-width:4;}
</style>
<path class="st0" d="M2.1,46.5c0-11.7,0-20.3,0.7-26.7C3.5,13.4,4.9,9.6,7.3,7.2C9.7,4.8,13.5,3.4,20,2.7C26.4,2,35,2,46.6,2
	s20.3,0,26.7,0.7C79.8,3.4,83.6,4.8,86,7.2c2.4,2.4,3.8,6.2,4.5,12.6c0.7,6.4,0.7,15,0.7,26.7s0,20.3-0.7,26.7
	c-0.7,6.4-2.1,10.2-4.5,12.6c-2.4,2.4-6.2,3.8-12.6,4.5c-6.4,0.7-15,0.7-26.7,0.7s-20.3,0-26.7-0.7c-6.4-0.7-10.2-2.1-12.6-4.5
	c-2.4-2.4-3.8-6.2-4.5-12.6C2.1,66.8,2.1,58.2,2.1,46.5z"/>
</svg>
