<svg width="94" height="94" viewBox="0 0 94 94" fill="none" xmlns="http://www.w3.org/2000/svg">
<path d="M2.09961 46.55C2.09961 34.8636 2.10258 26.2684 2.81472 19.8591C3.5285 13.4351 4.91885 9.64669 7.33257 7.23296C9.74629 4.81924 13.5347 3.42889 19.9588 2.71511C26.3681 2.00297 34.9632 2 46.6496 2C58.336 2 66.9312 2.00297 73.3405 2.71511C79.7645 3.42889 83.5529 4.81924 85.9667 7.23296C88.3804 9.64669 89.7707 13.4351 90.4845 19.8591C91.1966 26.2684 91.1996 34.8636 91.1996 46.55C91.1996 58.2364 91.1966 66.8316 90.4845 73.2409C89.7707 79.6649 88.3804 83.4533 85.9667 85.867C83.5529 88.2808 79.7645 89.6711 73.3405 90.3849C66.9312 91.097 58.336 91.1 46.6496 91.1C34.9632 91.1 26.3681 91.097 19.9588 90.3849C13.5347 89.6711 9.74629 88.2808 7.33257 85.867C4.91885 83.4533 3.5285 79.6649 2.81472 73.2409C2.10258 66.8316 2.09961 58.2364 2.09961 46.55Z" fill="url(#paint0_linear)" stroke="url(#paint1_linear)" stroke-width="4"/>
<defs>
<linearGradient id="paint0_linear" x1="8.41211" y1="10.4737" x2="100.87" y2="31.8872" gradientUnits="userSpaceOnUse">
<stop stop-color="#46FF42"/>
<stop offset="1" stop-color="#3FFFA3"/>
</linearGradient>
<linearGradient id="paint1_linear" x1="8.41211" y1="10.4737" x2="100.87" y2="31.8872" gradientUnits="userSpaceOnUse">
<stop stop-color="#46FF42"/>
<stop offset="1" stop-color="#3FFFA3"/>
</linearGradient>
</defs>
</svg>
