<?xml version="1.0" encoding="utf-8"?>
<!-- Generator: Adobe Illustrator 26.0.1, SVG Export Plug-In . SVG Version: 6.00 Build 0)  -->
<svg version="1.1" id="Layer_1" xmlns="http://www.w3.org/2000/svg" xmlns:xlink="http://www.w3.org/1999/xlink" x="0px" y="0px"
	 viewBox="0 0 22 23.5" style="enable-background:new 0 0 22 23.5;" xml:space="preserve">
<style type="text/css">
	.st0{fill:#FFFFFF;}
</style>
<g>
	<path class="st0" d="M16,1.5V0h-3v1.5H9V0H6v1.5H0v22h22v-22H16z M19,20.5H3v-16h3V7h3V4.5h4V7h3V4.5h3V20.5z"/>
	<path class="st0" d="M5.3,9.9c-0.4,0.2-0.7,0.5-1.1,0.7v2.4c0.2-0.2,0.5-0.3,0.7-0.5c0.2-0.2,0.5-0.3,0.7-0.5
		C5.8,12,6,11.8,6.2,11.7h0.1v6.8h2.8V9.2H6.3C6,9.4,5.6,9.7,5.3,9.9z"/>
	<path class="st0" d="M17.1,11.4V9.2h-6.5l-0.3,5.6h2.6c0-0.1,0.1-0.2,0.2-0.2c0.1-0.1,0.2-0.2,0.3-0.2s0.3-0.1,0.5-0.1
		c0.2,0,0.4,0.1,0.6,0.2c0.2,0.1,0.3,0.2,0.4,0.4c0.1,0.2,0.1,0.4,0.1,0.6s0,0.4-0.2,0.6c-0.1,0.2-0.2,0.3-0.4,0.4
		c-0.2,0.1-0.4,0.2-0.6,0.2c-0.2,0-0.3,0-0.4-0.1c-0.1,0-0.3-0.1-0.4-0.2s-0.2-0.2-0.3-0.2c-0.1-0.1-0.1-0.2-0.1-0.3H10
		c0,0.4,0.1,0.8,0.3,1.1c0.2,0.4,0.4,0.7,0.7,0.9s0.7,0.5,1.2,0.6c0.5,0.2,1,0.2,1.6,0.2c0.8,0,1.4-0.1,2-0.4c0.6-0.3,1-0.7,1.4-1.2
		s0.5-1.1,0.5-1.8c0-0.7-0.1-1.3-0.4-1.7s-0.7-0.8-1.1-1c-0.5-0.2-0.9-0.3-1.5-0.3c-0.4,0-0.7,0-0.9,0.1s-0.5,0.2-0.6,0.3
		c-0.2,0.1-0.3,0.2-0.3,0.3h-0.1l0.1-1.6H17.1z"/>
</g>
</svg>
