<svg width="17" height="17" viewBox="0 0 17 17" fill="none" xmlns="http://www.w3.org/2000/svg">
<path fill-rule="evenodd" clip-rule="evenodd" d="M2.03284 8.02876C2.29392 7.76841 2.7172 7.76841 2.97828 8.02876L5.65237 10.6954C5.91344 10.9558 5.91344 11.3779 5.65237 11.6382C5.39129 11.8986 4.96801 11.8986 4.70693 11.6382L2.03284 8.97157C1.77177 8.71122 1.77177 8.28911 2.03284 8.02876Z" fill="#005FFF"/>
<path fill-rule="evenodd" clip-rule="evenodd" d="M6.71253 8.69526C6.9736 8.43491 7.39689 8.43491 7.65796 8.69526L9.66353 10.6953C9.92461 10.9556 9.92461 11.3777 9.66353 11.6381C9.40246 11.8984 8.97917 11.8984 8.7181 11.6381L6.71253 9.63807C6.45146 9.37772 6.45146 8.95561 6.71253 8.69526Z" fill="#005FFF"/>
<path fill-rule="evenodd" clip-rule="evenodd" d="M11.0005 5.36177C11.2616 5.62212 11.2616 6.04423 11.0005 6.30457L5.65235 11.6379C5.39127 11.8983 4.96799 11.8983 4.70691 11.6379C4.44584 11.3776 4.44584 10.9554 4.70691 10.6951L10.0551 5.36177C10.3162 5.10142 10.7395 5.10142 11.0005 5.36177Z" fill="#005FFF"/>
<path fill-rule="evenodd" clip-rule="evenodd" d="M15.0116 5.36177C15.2727 5.62212 15.2727 6.04423 15.0116 6.30457L9.66346 11.6379C9.40238 11.8983 8.9791 11.8983 8.71802 11.6379C8.45695 11.3776 8.45695 10.9554 8.71802 10.6951L14.0662 5.36177C14.3273 5.10142 14.7506 5.10142 15.0116 5.36177Z" fill="#005FFF"/>
</svg>
