<svg width="18" height="18" viewBox="0 0 18 18" fill="none" xmlns="http://www.w3.org/2000/svg">
<circle opacity="0.2" cx="9" cy="9" r="9" fill="#25D482"/>
<path d="M6.19238 7.41797H7.78027C7.81543 6.75586 8.26074 6.32812 8.93457 6.32812C9.60254 6.32812 10.0479 6.73242 10.0479 7.28906C10.0479 7.8457 9.81934 8.13281 9.06348 8.58398C8.25488 9.05859 7.93262 9.58594 8.00879 10.5059L8.02051 10.8457H9.57324V10.5352C9.57324 9.96094 9.79004 9.67383 10.5693 9.22266C11.3955 8.73633 11.8232 8.12109 11.8232 7.23633C11.8232 5.90039 10.7158 4.96875 9.04004 4.96875C7.24121 4.96875 6.22168 5.97656 6.19238 7.41797ZM8.81738 13.6465C9.35059 13.6465 9.77832 13.2422 9.77832 12.7266C9.77832 12.2109 9.35059 11.8066 8.81738 11.8066C8.29004 11.8066 7.8623 12.2109 7.8623 12.7266C7.8623 13.2422 8.29004 13.6465 8.81738 13.6465Z" fill="#25D482"/>
</svg>
