<svg width="18" height="22" viewBox="0 0 18 22" fill="none" xmlns="http://www.w3.org/2000/svg">
<path d="M9.00016 21.3335C10.1918 21.3335 11.1668 20.3585 11.1668 19.1668H6.8335C6.8335 20.3585 7.8085 21.3335 9.00016 21.3335ZM15.5002 14.8335V9.41683C15.5002 6.091 13.7343 3.30683 10.6252 2.57016V1.8335C10.6252 0.934329 9.89933 0.208496 9.00016 0.208496C8.101 0.208496 7.37516 0.934329 7.37516 1.8335V2.57016C4.27683 3.30683 2.50016 6.08016 2.50016 9.41683V14.8335L0.333496 17.0002V18.0835H17.6668V17.0002L15.5002 14.8335ZM13.3335 15.9168H4.66683V9.41683C4.66683 6.73016 6.30266 4.54183 9.00016 4.54183C11.6977 4.54183 13.3335 6.73016 13.3335 9.41683V15.9168Z" fill="#333333"/>
</svg>
