<?xml version="1.0" encoding="utf-8"?>
<!-- Generator: Adobe Illustrator 26.0.1, SVG Export Plug-In . SVG Version: 6.00 Build 0)  -->
<svg version="1.1" id="Layer_1" xmlns="http://www.w3.org/2000/svg" xmlns:xlink="http://www.w3.org/1999/xlink" x="0px" y="0px"
	 viewBox="0 0 18 22" style="enable-background:new 0 0 18 22;" xml:space="preserve">
<style type="text/css">
	.st0{fill:#FFFFFF;}
</style>
<path class="st0" d="M9,21.3c1.2,0,2.2-1,2.2-2.2H6.8C6.8,20.4,7.8,21.3,9,21.3z M15.5,14.8V9.4c0-3.3-1.8-6.1-4.9-6.8V1.8
	c0-0.9-0.7-1.6-1.6-1.6c-0.9,0-1.6,0.7-1.6,1.6v0.7C4.3,3.3,2.5,6.1,2.5,9.4v5.4L0.3,17v1.1h17.3V17L15.5,14.8z M13.3,15.9H4.7V9.4
	c0-2.7,1.6-4.9,4.3-4.9c2.7,0,4.3,2.2,4.3,4.9V15.9z"/>
</svg>
