<?xml version="1.0" encoding="utf-8"?>
<!-- Generator: Adobe Illustrator 26.0.1, SVG Export Plug-In . SVG Version: 6.00 Build 0)  -->
<svg version="1.1" id="Layer_1" xmlns="http://www.w3.org/2000/svg" xmlns:xlink="http://www.w3.org/1999/xlink" x="0px" y="0px"
	 viewBox="0 0 17 18" style="enable-background:new 0 0 17 18;" xml:space="preserve">
<style type="text/css">
	.st0{fill:#FFFFFF;}
</style>
<path class="st0" d="M13.6,17.3c-0.9,0-1.8-0.4-2.3-1.1c-0.6-0.7-0.7-1.6-0.5-2.5l-5.2-3c-0.9,0.8-2.2,1-3.3,0.4
	c-1.1-0.6-1.7-1.7-1.5-3S1.7,6,2.9,5.7C4.1,5.5,5.4,6,6,7l4.7-2.7c-0.1-0.2-0.1-0.5-0.1-0.7c0-1.4,1-2.6,2.3-2.9
	c1.4-0.3,2.7,0.4,3.3,1.7c0.6,1.3,0.2,2.8-1,3.6c-1.1,0.8-2.7,0.7-3.7-0.2L6.5,8.7c0,0.2,0,0.4-0.1,0.6l5.2,3c1-0.9,2.4-1,3.5-0.3
	c1.1,0.7,1.6,2,1.3,3.3C16,16.5,14.9,17.3,13.6,17.3z M13.6,13.2c-0.7,0-1.2,0.6-1.2,1.2c0,0.7,0.6,1.2,1.2,1.2
	c0.7,0,1.2-0.6,1.2-1.2C14.8,13.7,14.3,13.2,13.6,13.2z M3.6,7.3c-0.7,0-1.2,0.6-1.2,1.2c0,0.7,0.6,1.2,1.2,1.2s1.2-0.6,1.2-1.2
	C4.8,7.9,4.3,7.3,3.6,7.3z M13.6,2.3c-0.7,0-1.2,0.6-1.2,1.2c0,0.7,0.6,1.2,1.2,1.2c0.7,0,1.2-0.6,1.2-1.2
	C14.8,2.9,14.3,2.3,13.6,2.3z"/>
</svg>
