<svg xmlns="http://www.w3.org/2000/svg" width="24" height="24" fill="none" viewBox="0 0 24 24">
    <path fill="#fff" d="M17.5 22c-1.082.013-2.108-.482-2.772-1.336-.664-.855-.89-1.97-.611-3.016l-6.26-3.578c-1.082.991-2.667 1.2-3.97.525-1.302-.676-2.043-2.093-1.856-3.548.188-1.455 1.264-2.638 2.695-2.961 1.431-.324 2.912.281 3.707 1.514l5.683-3.249c-.074-.278-.112-.564-.116-.85-.014-1.674 1.148-3.128 2.783-3.482 1.636-.354 3.295.488 3.975 2.017.68 1.53.192 3.325-1.167 4.302-1.36.976-3.217.864-4.449-.268l-6.151 3.515c-.006.26-.042.517-.108.768l6.259 3.577c1.152-1.057 2.867-1.22 4.198-.4 1.331.821 1.955 2.427 1.527 3.931-.428 1.504-1.803 2.541-3.367 2.54zm0-5c-.828 0-1.5.672-1.5 1.5s.672 1.5 1.5 1.5 1.5-.672 1.5-1.5-.672-1.5-1.5-1.5zm-12-7c-.828 0-1.5.672-1.5 1.5 0 .829.672 1.5 1.5 1.5S7 12.33 7 11.5c0-.828-.672-1.5-1.5-1.5zm12-6c-.828 0-1.5.672-1.5 1.5 0 .829.672 1.5 1.5 1.5S19 6.33 19 5.5c0-.828-.672-1.5-1.5-1.5z"/>
</svg>
