<svg width="17" height="18" viewBox="0 0 17 18" fill="none" xmlns="http://www.w3.org/2000/svg">
<path d="M13.5834 17.3332C12.6817 17.3437 11.8271 16.9316 11.2737 16.2197C10.7202 15.5077 10.5317 14.5778 10.7643 13.7066L5.54762 10.7249C4.64619 11.5508 3.32485 11.7256 2.23969 11.1625C1.15453 10.5994 0.536679 9.41843 0.692923 8.20591C0.849167 6.99339 1.74622 6.0076 2.93868 5.73803C4.13114 5.46845 5.365 5.9725 6.02762 6.99991L10.7634 4.2924C10.7022 4.06089 10.6697 3.8227 10.6668 3.58324C10.6548 2.18883 11.6233 0.977524 12.9861 0.682257C14.349 0.38699 15.7319 1.08886 16.2982 2.36317C16.8644 3.63748 16.4584 5.13426 15.3259 5.94783C14.1934 6.76139 12.6453 6.66831 11.6184 5.72491L6.49262 8.65407C6.48754 8.87017 6.45734 9.08495 6.40262 9.29407L11.6184 12.2749C12.5787 11.3937 14.0074 11.2577 15.1167 11.9418C16.2259 12.626 16.7456 13.9638 16.3891 15.2174C16.0326 16.471 14.8867 17.3352 13.5834 17.3332ZM13.5834 13.1666C12.8931 13.1666 12.3334 13.7262 12.3334 14.4166C12.3334 15.1069 12.8931 15.6666 13.5834 15.6666C14.2738 15.6666 14.8334 15.1069 14.8334 14.4166C14.8334 13.7262 14.2738 13.1666 13.5834 13.1666ZM3.58345 7.33324C2.89309 7.33324 2.33345 7.89288 2.33345 8.58324C2.33345 9.27359 2.89309 9.83324 3.58345 9.83324C4.27381 9.83324 4.83345 9.27359 4.83345 8.58324C4.83345 7.89288 4.27381 7.33324 3.58345 7.33324ZM13.5834 2.33324C12.8931 2.33324 12.3334 2.89288 12.3334 3.58324C12.3334 4.27359 12.8931 4.83324 13.5834 4.83324C14.2738 4.83324 14.8334 4.27359 14.8334 3.58324C14.8334 2.89288 14.2738 2.33324 13.5834 2.33324Z" fill="url(#paint0_linear)"/>
<defs>
<linearGradient id="paint0_linear" x1="2.08707" y1="2.49603" x2="17.9392" y2="5.98399" gradientUnits="userSpaceOnUse">
<stop stop-color="#46FF42"/>
<stop offset="1" stop-color="#3FFFA3"/>
</linearGradient>
</defs>
</svg>
