<?xml version="1.0" encoding="utf-8"?>
<!-- Generator: Adobe Illustrator 26.0.1, SVG Export Plug-In . SVG Version: 6.00 Build 0)  -->
<svg version="1.1" id="Layer_1" xmlns="http://www.w3.org/2000/svg" xmlns:xlink="http://www.w3.org/1999/xlink" x="0px" y="0px"
	 viewBox="0 0 20 20" style="enable-background:new 0 0 20 20;" xml:space="preserve">
<style type="text/css">
	.st0{fill:#EC582C;}
</style>
<path class="st0" d="M6.1,7.9L4.6,9.5l5.4,5.4l5.4-5.4l-1.5-1.5l-2.8,2.8V0.2H8.9v10.5L6.1,7.9z M19.8,17.6V2.4
	c0-0.6-0.2-1.1-0.6-1.5c-0.4-0.4-1-0.6-1.5-0.6h-4.3v2.2h4.3v15.2H2.4V2.4h4.3V0.2H2.4c-0.6,0-1.1,0.2-1.5,0.6
	c-0.4,0.4-0.6,1-0.6,1.5l0,15.2c0,1.2,1,2.2,2.2,2.2h15.2C18.8,19.8,19.8,18.8,19.8,17.6z"/>
</svg>
