<svg width="26" height="14" fill="none" xmlns="http://www.w3.org/2000/svg">
    <mask id="a" fill="#fff">
        <path fill-rule="evenodd" clip-rule="evenodd" d="M21.655 6.004a1.889 1.889 0 0 1 3.777 0v5.666a1.889 1.889 0 0 1-2.311 1.84c-.17.032-.344.049-.522.049H3.398c-.178 0-.353-.017-.522-.048A1.889 1.889 0 0 1 .565 11.67V6.004a1.889 1.889 0 1 1 3.777 0v1.889h17.313v-1.89z"/>
    </mask>
    <path d="m23.12 13.51.112-.487-.1-.023-.103.02.092.49zm-20.244 0 .092-.49-.102-.02-.101.024.111.487zm1.466-5.617h-.5v.5h.5v-.5zm17.313 0v.5h.5v-.5h-.5zm1.889-4.278a2.389 2.389 0 0 0-2.389 2.389h1c0-.767.622-1.389 1.389-1.389v-1zm2.388 2.389c0-1.32-1.069-2.389-2.388-2.389v1c.767 0 1.388.622 1.388 1.389h1zm0 5.666V6.004h-1v5.666h1zm-2.388 2.388c1.319 0 2.388-1.069 2.388-2.388h-1c0 .767-.621 1.388-1.388 1.388v1zm-.535-.06c.173.04.351.06.535.06v-1c-.108 0-.212-.012-.312-.035l-.223.975zm-.41.06c.21 0 .414-.018.613-.056l-.183-.983c-.139.026-.283.04-.43.04v1zm-19.201 0h19.201v-1H3.398v1zm-.613-.056c.199.037.404.057.613.057v-1c-.147 0-.291-.014-.43-.04l-.183.983zm-.02-.979a1.4 1.4 0 0 1-.311.035v1c.183 0 .362-.02.534-.06l-.223-.974zm-.311.035a1.389 1.389 0 0 1-1.39-1.388h-1c0 1.319 1.07 2.388 2.39 2.388v-1zm-1.39-1.388v-.944h-1v.944h1zm0-.944V6.004h-1v4.722h1zm0-4.722c0-.767.623-1.389 1.39-1.389v-1a2.389 2.389 0 0 0-2.39 2.389h1zm1.39-1.389c.766 0 1.388.622 1.388 1.389h1c0-1.32-1.07-2.389-2.388-2.389v1zm1.388 1.389v1.889h1v-1.89h-1zm17.813 1.389H4.342v1h17.313v-1zm-.5-1.39v1.89h1v-1.89h-1z" fill="#000" mask="url(#a)"/>
    <path fill-rule="evenodd" clip-rule="evenodd" d="M7.018 1.153H18.98a3.75 3.75 0 0 1 3.705 3.168c.15-.076.31-.134.479-.168a4.25 4.25 0 0 0-4.184-3.5H7.02a4.25 4.25 0 0 0-4.185 3.5c.17.035.33.092.48.169a3.75 3.75 0 0 1 3.704-3.169zM4.343 7.53v.362h.411a3.77 3.77 0 0 1-.411-.362zm16.9.362h.413v-.363c-.129.13-.267.252-.413.363z" fill="#000"/>
</svg>
