<svg id="Layer_1" data-name="Layer 1" xmlns="http://www.w3.org/2000/svg" xmlns:xlink="http://www.w3.org/1999/xlink" viewBox="0 0 22.16 22.74">
  <defs>
    <style>
      .cls-1 {
        fill: none;
      }

      .cls-2 {
        clip-path: url(#clip-path);
      }

      .cls-3 {
        fill: #1d1d1d;
      }
    </style>
    <clipPath id="clip-path">
      <rect class="cls-1" width="22.16" height="22.74" transform="translate(22.16 22.74) rotate(-180)"/>
    </clipPath>
  </defs>
  <g class="cls-2">
    <path class="cls-3" d="M0-28.34A51.22,51.22,0,0,1,51.08-79.41h81.48a51.22,51.22,0,0,1,51.07,51.07,51.22,51.22,0,0,1-51.07,51.08H51.08a50.74,50.74,0,0,1-28.92-9,30.45,30.45,0,0,1-5,4A32.76,32.76,0,0,1,0,22.74a41.94,41.94,0,0,0,7.11-14A41.42,41.42,0,0,0,8.64,0,50.7,50.7,0,0,1,0-28.34Z"/>
  </g>
</svg>
