<svg xmlns="http://www.w3.org/2000/svg" viewBox="0 0 488 488">
  <defs>
    <style>
      .cls-1 {
        fill: none;
      }
    </style>
  </defs>
  <g id="Layer_2" data-name="Layer 2">
    <g id="레이어_1" data-name="레이어 1">
      <rect class="cls-1" width="488" height="488"/>
      <path d="M243.89,347.7a60.9,60.9,0,0,1-19.8,2.9q-24.5,0-40.36-15.71t-15.89-40.58a81.32,81.32,0,0,1,4.39-26.09,57,57,0,0,1,14.3-22.72q17.94,22.62,38.77,47.68l36.53,43.94q-9.52,7.68-17.94,10.58m10-162.27q-6.63,13.15-20.83,23-14.4-19.6-21.31-33.31t-6.91-24.54q0-12.49,7.47-20.25t19.62-7.74a25.75,25.75,0,0,1,20.65,9.42q7.93,9.42,7.94,25.85a60.37,60.37,0,0,1-6.63,27.52M405.34,362a176.43,176.43,0,0,1-24.48-3.27q-12.33-2.53-20.37-6.83-7.11-3.73-18.22-13.74T314,308a213.71,213.71,0,0,0,15-21.9q6.16-10.47,11.59-20,4.49-7.86,9.43-16.38t8.32-11.89q7.85-8,16-10.66T399.36,223v-14.2H294.9V223q15.14,3,23.45,6.46t8.32,9.08q0,9.91-5.89,24.52t-17.65,32q-18.51-21.51-29.62-34.69T242,221q25.23-15,36.07-30.57A60.68,60.68,0,0,0,288.92,155q0-22.81-18.12-36.65t-47.28-13.84q-31.2,0-53.62,17.48T147.47,166.4a75,75,0,0,0,6.64,30.67q6.63,15,23.45,36.27A219.34,219.34,0,0,0,149,249a93.44,93.44,0,0,0-21.3,18.79,75.6,75.6,0,0,0-13,21.69q-4,10.85-4,26,0,30.29,22.33,49.17t57.27,18.89a111.07,111.07,0,0,0,42-7.95q19.72-7.94,39.52-26.27,5.06,6.36,12.15,14.5T295.46,377H405.34Z"/>
    </g>
  </g>
</svg>
