<?xml version="1.0" encoding="utf-8"?>
<!-- Generator: Adobe Illustrator 25.1.0, SVG Export Plug-In . SVG Version: 6.00 Build 0)  -->
<svg version="1.1" id="Layer_1" xmlns="http://www.w3.org/2000/svg" xmlns:xlink="http://www.w3.org/1999/xlink" x="0px" y="0px"
	 viewBox="0 0 318.3 210.6" style="enable-background:new 0 0 318.3 210.6;" xml:space="preserve">
<style type="text/css">
	.st0{fill:#1D1D1D;}
	.st1{fill:#FFFFFF;}
	.st2{fill:none;}
</style>
<g>
	<path class="st0" d="M122,197.4c-0.3,0-0.5,0-0.8,0C121.5,197.4,121.7,197.4,122,197.4z"/>
	<path class="st1" d="M120.9,197.4c0.1,0,0.2,0,0.3,0C121.1,197.4,121,197.4,120.9,197.4C120.9,197.4,120.9,197.4,120.9,197.4z"/>
	<g>
		<path class="st2" d="M120.9,197.4c0.1,0,0.2,0,0.3,0C121.1,197.4,121,197.4,120.9,197.4C120.9,197.4,120.9,197.4,120.9,197.4z"/>
		<path class="st2" d="M143.1,156.5c-2.6-0.8-5.4-1.4-8.1-1.8c-2.5-0.4-5-0.7-7.3-1c-2.2,2.9-4.3,6-6.4,9.3v0.1v0.1
			c-0.8,1.4-1.6,2.7-2.3,4.1c2,0.3,4,0.5,5.8,0.3c1.3,0,2.6-0.1,3.8-0.2c4-0.3,7.8-1,11.4-2.1h0.1h0.1c0.6-0.1,2.1-0.7,5.3-2.1
			c1.9-0.9,3.8-2,5.4-3.2c-0.5-0.3-1-0.6-1.5-0.9C147.5,158,145.4,157.1,143.1,156.5z"/>
		<path class="st0" d="M152.3,154.4c-2.3-1.3-4.9-2.4-7.6-3.1c-2.9-0.8-5.9-1.5-8.8-1.9c-3.1-0.5-6-0.9-8.8-1.2h-0.2h-0.2
			c-0.4-0.3-0.8-0.4-1.3-0.4c-3,3.8-6,7.9-8.8,12.4c-1.3,2.1-2.4,4.1-3.4,6.2c-0.7,1.6-1.1,2.9-1.1,4c0,0.4,0.1,0.7,0.5,1.1
			c0,0,0.8,0.8,3.8,1.2h0.1h0.1c2.8,0.5,5.6,0.7,8.4,0.7c1.4,0,2.8,0,4-0.2c4.3-0.3,8.5-1.1,12.5-2.3h0.1h0.1c1-0.3,2.8-1,6.2-2.5
			c2.6-1.2,5-2.6,7.1-4.3c1.7-1.3,2.8-2.7,3.4-4.1c0-0.1,0-0.1,0-0.1s0-0.1,0-0.2c-0.1-0.2-0.3-0.6-0.7-1
			C156.2,157,154.4,155.5,152.3,154.4z M145.5,163.2c-3.2,1.4-4.7,2-5.3,2.1h-0.1H140c-3.6,1.1-7.4,1.8-11.4,2.1
			c-1.2,0.1-2.5,0.2-3.8,0.2c-1.8,0.2-3.8,0-5.8-0.3c0.7-1.4,1.5-2.7,2.3-4.1v-0.1V163c2.1-3.3,4.2-6.4,6.4-9.3
			c2.3,0.3,4.8,0.6,7.3,1c2.7,0.4,5.5,1,8.1,1.8c2.3,0.6,4.4,1.5,6.3,2.6c0.5,0.3,1,0.6,1.5,0.9
			C149.3,161.2,147.4,162.3,145.5,163.2z"/>
		<path class="st0" d="M82.4,145.3c-2.6-1.1-4.5-3.3-5.7-6.6c-2.9-7.5,1-11.5,2.8-12.9c2.1-1.7,4.6-2.8,7.2-3.4
			c1.4-0.8,2.9-1.2,4.6-1.2c0,0-0.1,0-0.1,0c-1.7,0-3.3,0.4-4.6,1.2c-2.6,0.6-5,1.7-7.2,3.4c-1.8,1.4-5.7,5.4-2.8,12.9
			c1.2,3.3,3.1,5.5,5.7,6.6c1.5,0.6,3.1,1.1,5.1,1.5c2,0.5,4.1,0.7,6.3,0.7c0,0,0.1,0,0.1,0c-2.2,0-4.3-0.2-6.3-0.7
			C85.6,146.4,83.9,145.9,82.4,145.3z"/>
		<path class="st0" d="M268.8,42.7c-2.2-0.7-4.4-1.3-6.7-1.8C264.3,41.4,266.6,42,268.8,42.7z"/>
		<path class="st0" d="M106.7,195.8c-3.2-0.9-6.3-2.2-9.2-3.9c-3.3-2-5.9-4.7-7.8-8.1c-2.5-4.1-3.6-8.6-3.4-13.2
			c0.2-4.1,1-8.2,2.5-12.2c1.3-3.7,3.2-7.4,5.5-10.9c0,0-0.1,0-0.1,0c-2.3,3.5-4.1,7.2-5.5,10.9c-1.5,4-2.3,8.1-2.5,12.2
			c-0.2,4.6,0.9,9,3.4,13.2c1.9,3.5,4.6,6.2,7.8,8.1c2.9,1.7,6,3,9.2,3.9c3.1,0.8,6.3,1.3,9.6,1.5c1.6,0.1,3.1,0.1,4.6,0.1
			c0,0,0,0,0.1,0c-1.5,0-3,0-4.6-0.1C113,197.1,109.8,196.6,106.7,195.8z"/>
		<path class="st0" d="M106.8,120.5c3.3-0.3,6.8-0.6,10.2-0.9c4.1-4.4,8.4-8.6,12.8-12.7c5-4.6,9.9-9.2,14.8-13.6
			c2.6-2.3,5.4-5.1,8.4-8.3c3.7-4,7.7-6.8,11.9-8.4c1.5-0.5,3-0.8,4.4-0.8c0,0,0,0,0,0c-1.5,0-3,0.3-4.5,0.8h-0.1
			c-4.2,1.6-8.2,4.4-11.9,8.4c-2.9,3.2-5.8,6-8.4,8.3c-4.9,4.4-9.9,9-14.8,13.6c-4.3,4.1-8.6,8.4-12.7,12.7
			c-3.4,0.3-6.9,0.6-10.2,0.9c-3.8,0.3-7.6,0.7-11.4,1c0,0,0,0,0.1,0C99.2,121.2,103,120.9,106.8,120.5z"/>
		<path class="st0" d="M34.4,129.4c1.9,4.4,5.6,8.5,11.2,12l0.1,0.1l0.1,0.1c1.9,1.3,3.5,2.6,5,4c1.3,1.2,3.2,3.6,3.2,7.4
			c0-4-1.9-6.5-3.2-7.7c-1.5-1.4-3.2-2.7-5-4l-0.1-0.1l-0.1-0.1c-5.6-3.5-9.3-7.6-11.2-12c-1.6-3.8-2.3-7.6-2.2-11.5
			C32,121.6,32.7,125.5,34.4,129.4z"/>
		<path class="st0" d="M9.7,135.3c-2.5-7-3.4-14.2-2.7-21.2c0.7-6.8,2.5-13.4,5.4-19.7c2.8-6.2,6.5-12,10.9-17.3
			c4.3-5.2,9-10,13.9-14.2c11.1-9.5,23.6-17.3,37.1-23.1c13.2-5.7,26.9-10.5,40.6-14.2c12.4-3.2,25-5.7,37.5-7.4
			c12.3-1.7,25-2.9,37.6-3.7c12.1-0.9,24.4-1.3,36.7-1.3c2,0,4,0,5.9-0.1c14.7,0.2,29.2,2.2,43.3,5.9h0.1h0.1
			c5.8,1.7,11.8,4.1,17.6,7.1c6.6,3.4,11.6,8.5,14.9,14.9c0,0,0-0.1-0.1-0.1c-3.3-6.5-8.3-11.6-14.9-15c-5.9-3-11.8-5.4-17.6-7.1
			h-0.1c-14.1-3.7-28.7-5.7-43.3-5.9c-2,0-4.1,0-6.1,0c-12.2,0-24.6,0.5-36.6,1.3c-12.6,0.8-25.3,2-37.7,3.7
			c-12.5,1.7-25.1,4.2-37.5,7.4C101,29,87.3,33.8,74.1,39.5c-13.5,5.8-26,13.6-37.2,23.1c-4.9,4.2-9.5,9-13.8,14.2
			C18.7,82.2,15,88,12.2,94.1c-2.9,6.3-4.7,12.9-5.4,19.7C6.1,120.8,7,128,9.5,135l0.1,0.2c0,0.1,0.1,0.2,0.1,0.2v0V135.3z"/>
		<path class="st0" d="M170.7,75.9c0.8,0.1,1.5,0.3,2.3,0.5C172.2,76.1,171.4,76,170.7,75.9z"/>
		<path class="st0" d="M135.8,149.1c-3-0.5-6-0.9-8.7-1.2h-0.2h-0.2c-0.4-0.1-0.9-0.1-1.4-0.2c-3,3.8-6,7.9-8.8,12.4
			c-1.3,2-2.4,4-3.3,6.1c-0.7,1.6-1.1,3-1.1,4.1c0,0,0,0.1,0,0.1c0-1.1,0.4-2.4,1.1-4c1-2.1,2.1-4.1,3.4-6.2
			c2.8-4.5,5.8-8.6,8.8-12.4c0.5,0,0.9,0.1,1.3,0.4h0.2h0.2c2.8,0.3,5.7,0.7,8.8,1.2c2.9,0.4,5.9,1.1,8.8,1.9
			c2.7,0.7,5.3,1.8,7.6,3.1c2.1,1.1,3.9,2.6,5.4,4.3c0.4,0.5,0.6,0.8,0.7,1c-0.1-0.2-0.2-0.7-0.8-1.3c-1.5-1.7-3.3-3.1-5.4-4.3
			c-2.4-1.3-4.9-2.3-7.6-3.1C141.7,150.2,138.8,149.5,135.8,149.1z"/>
		<path class="st0" d="M168.6,136.9c1.5,1.1,2.9,2.4,4.2,3.6c-1.3-1.3-2.8-2.6-4.3-3.7c-0.5-0.3-0.8-0.6-1.3-0.9c0,0,0,0,0,0
			C167.7,136.2,168.1,136.6,168.6,136.9z"/>
		<path class="st0" d="M211.4,32c-7.7,0.5-15.2,0.9-22.4,1.4c-12.4,0.8-25.1,2.1-38.1,4c-13,1.9-25.8,4.5-38.4,8.1
			c-12.5,3.5-24.6,8.2-36.1,14s-21.9,13.1-31.2,22C40.3,86.3,36.3,91.4,33,97c3.3-5.6,7.3-10.7,12.3-15.5c9.3-8.9,19.7-16.2,31.2-22
			s23.6-10.5,36.1-14c12.6-3.6,25.4-6.2,38.4-8.1c13-1.9,25.7-3.2,38.1-4C196.3,32.9,203.8,32.5,211.4,32c4.7-0.3,9.3-0.4,13.9-0.4
			c0,0,0,0,0,0C220.6,31.6,216,31.7,211.4,32z"/>
		<path class="st1" d="M169.4,75.8C169.4,75.8,169.4,75.8,169.4,75.8c0.1,0,0.3,0,0.4,0C169.7,75.8,169.5,75.8,169.4,75.8z"/>
		<path class="st1" d="M308.6,41.1C308.6,41.1,308.6,41,308.6,41.1c0.1,0.1,0.2,0.3,0.3,0.6C308.8,41.5,308.7,41.3,308.6,41.1z"/>
		<path class="st1" d="M46.7,164.6c-1.7,0.8-3.5,1.2-5.2,1.2c-2.1,0-4.1-0.6-6.1-1.7c-5.6-3.3-10.7-7.4-15.1-12.1
			c-4.5-4.8-8.1-10.4-10.6-16.6v0.1c2.5,6.3,6.1,11.9,10.7,16.8c4.4,4.7,9.5,8.8,15.1,12.1c1.9,1.1,4,1.7,6,1.7
			c1.8,0,3.5-0.4,5.2-1.2c3.7-1.7,6.2-4.8,7-8.8C53.9,155,54,154,54,153c0,0.9-0.1,1.8-0.3,2.8C52.8,159.8,50.4,162.9,46.7,164.6z"
			/>
		<path class="st1" d="M158.4,160c-0.6,1.4-1.7,2.8-3.4,4.1c-2.1,1.7-4.5,3.1-7.1,4.3c-3.4,1.5-5.2,2.2-6.2,2.5h-0.1h-0.1
			c-4,1.2-8.2,2-12.5,2.3c-1.2,0.2-2.6,0.2-4,0.2c-2.8,0-5.6-0.2-8.4-0.7h-0.1h-0.1c-3-0.4-3.8-1.2-3.8-1.2
			c-0.4-0.4-0.5-0.7-0.5-1.1c0,0,0,0.1,0,0.1c0,0.4,0.1,0.7,0.5,1.2c0,0,0.8,0.7,3.8,1.2h0.2c2.8,0.5,5.6,0.7,8.4,0.7
			c1.4,0,2.8-0.1,4.2-0.2c4.3-0.4,8.5-1.1,12.5-2.3h0.1c1.4-0.4,3.5-1.2,6.2-2.5c2.6-1.2,5-2.6,7.1-4.3c1.7-1.3,2.8-2.7,3.4-4.1
			c0-0.1,0-0.2-0.1-0.5C158.4,159.8,158.4,159.9,158.4,160C158.4,159.9,158.4,159.9,158.4,160z"/>
		<path class="st1" d="M95.3,121.5c-1.2-0.1-2.3-0.2-3.2-0.3c0,0-0.1,0-0.1,0C93,121.3,94.2,121.4,95.3,121.5
			C95.3,121.5,95.3,121.5,95.3,121.5z"/>
		<path class="st1" d="M182,161.5c-0.1,5.2-2.3,10.5-6.4,15.6l-0.1,0.1c-3.1,3.7-6.8,6.8-11,9.4c-4.1,2.5-8.4,4.5-12.9,6
			c-4.4,1.5-8.9,2.6-13.5,3.2c-4.4,0.7-8.8,1.1-13,1.3c-1,0.2-2,0.3-3.1,0.3c1.1,0,2.3,0,3.3-0.1c4.2-0.2,8.6-0.6,13-1.3
			c4.6-0.7,9.1-1.8,13.5-3.2c4.5-1.5,8.8-3.5,12.9-6c4.2-2.6,7.9-5.7,11-9.4v-0.1v-0.1c4.2-5.2,6.3-10.4,6.4-15.6
			c0.1-5-1.1-9.7-3.7-14c-1.5-2.5-3.4-4.9-5.6-7.1c2.2,2.1,4,4.5,5.5,7C180.9,151.8,182.1,156.5,182,161.5z"/>
		<path class="st1" d="M234.2,37.6c-3-0.1-6.1-0.2-9.1-0.2c-4.5,0-9.1,0.1-13.6,0.4c-7.7,0.5-15.2,0.9-22.4,1.4
			c-12.2,0.8-24.9,2.1-37.7,3.9c-12.7,1.8-25.4,4.5-37.6,7.9c-12.1,3.4-23.9,8-35,13.6c-10.9,5.5-21,12.6-29.9,21
			c-4.4,4.3-8.2,9-11.2,14.2c-2.9,4.9-4.7,10-5.3,15.1c-0.1,0.9-0.2,1.8-0.2,2.7c0-0.8,0.1-1.6,0.2-2.4c0.6-5.1,2.4-10.1,5.3-15.1
			c3-5.1,6.8-9.9,11.2-14.2C58,77.3,68,70.2,79,64.7c11.1-5.6,22.9-10.2,35-13.6c12.2-3.5,24.9-6.1,37.6-7.9
			c12.8-1.8,25.5-3.1,37.7-3.9c6.7-0.4,14.1-0.9,22.4-1.4c4.5-0.3,9.1-0.4,13.6-0.4c3,0,6.1,0.1,9.1,0.2c7.5,0.3,15.1,1,22.4,2.2
			c1.8,0.3,3.5,0.6,5.2,1c-1.8-0.4-3.6-0.8-5.4-1.1C249.3,38.6,241.8,37.9,234.2,37.6z"/>
		<path class="st1" d="M270,43.1c2.3,0.8,4.7,1.6,6.9,2.6c0.3,0.1,0.6,0.3,0.9,0.4c-0.4-0.2-0.7-0.3-1.1-0.5
			C274.5,44.7,272.3,43.8,270,43.1z"/>
		<path class="st1" d="M179.9,82.1c1.4,2.4,2,5.1,1.7,7.9c-0.3,3.1-1.9,5.9-4.5,7.9c-5.4,4.6-10.9,9.3-16.4,14
			c-0.7,0.6-1.4,1.2-2.1,1.8c0,0,0.1,0,0.1,0c0.7-0.6,1.4-1.2,2.1-1.8c5.5-4.7,11-9.4,16.4-14c2.6-2.1,4.2-4.8,4.5-7.9
			c0.3-2.8-0.3-5.5-1.7-7.9c-1.4-2.4-3.4-4.2-6-5.3c-0.4-0.1-0.7-0.3-1.1-0.4c0.3,0.1,0.6,0.2,1,0.4
			C176.4,77.9,178.5,79.7,179.9,82.1z"/>
		<path class="st1" d="M136.3,146.3c-3.1-0.5-6.1-0.9-8.8-1.2h-0.1h-0.1c-0.7-0.1-1.5-0.2-2.3-0.3c-0.2,0-0.6,0-0.9,0
			c-3.5,4.1-6.8,8.8-10,13.8c-1.4,2.2-2.6,4.3-3.6,6.5c-0.9,1.9-1.3,3.7-1.3,5.2c0,1.2,0.4,2.2,1.3,3.1c0.6,0.7,2.1,1.6,5.5,2h0.1
			c2.9,0.5,5.9,0.8,8.9,0.8c1.5,0,3-0.1,4.5-0.2c4.5-0.4,8.9-1.2,13.1-2.4c1.7-0.5,3.9-1.3,6.7-2.6c2.8-1.3,5.3-2.8,7.6-4.6
			c2.1-1.6,3.5-3.4,4.3-5.2c0.2-0.5,0.8-1.9-1.3-4.5c-1.7-1.9-3.7-3.6-6.2-5c-2.5-1.4-5.3-2.5-8.2-3.4
			C142.5,147.4,139.4,146.8,136.3,146.3z M157.6,158.4c0.5,0.6,0.7,1.1,0.8,1.3c0.1,0.3,0.1,0.4,0.1,0.5c-0.6,1.4-1.7,2.8-3.4,4.1
			c-2.1,1.7-4.5,3.1-7.1,4.3c-2.7,1.3-4.8,2.1-6.2,2.5h-0.1c-4,1.2-8.2,1.9-12.5,2.3c-1.4,0.1-2.8,0.2-4.2,0.2
			c-2.8,0-5.6-0.2-8.4-0.7h-0.2c-3-0.5-3.8-1.2-3.8-1.2c-0.4-0.5-0.5-0.8-0.5-1.2c0,0,0-0.1,0-0.1c0,0,0-0.1,0-0.1
			c0-1.1,0.4-2.5,1.1-4.1c0.9-2.1,2-4.1,3.3-6.1c2.8-4.5,5.8-8.6,8.8-12.4c0.5,0.1,1,0.1,1.4,0.2h0.2h0.2c2.7,0.3,5.7,0.7,8.7,1.2
			c3,0.4,5.9,1.1,8.8,1.9c2.7,0.8,5.2,1.8,7.6,3.1C154.3,155.3,156.1,156.7,157.6,158.4z"/>
		<path class="st1" d="M225.3,31.6c3.2,0,6.3,0.1,9.4,0.2C231.6,31.7,228.5,31.6,225.3,31.6C225.4,31.6,225.4,31.6,225.3,31.6z"/>
		<path class="st1" d="M136.8,143.5c-3.2-0.5-6.2-0.9-8.9-1.2c-0.8-0.2-1.7-0.3-2.5-0.4c-0.9-0.1-1.7-0.1-2.5-0.1
			c-3.9,4.5-7.6,9.6-11.1,15.2c-1.4,2.2-2.7,4.5-3.7,6.9c-1,2.3-1.6,4.5-1.6,6.4c0,1.9,0.7,3.6,2.1,5.1c1.4,1.4,3.7,2.4,7.1,2.9
			c3,0.6,6.1,0.8,9.3,0.8c1.6,0,3.1-0.1,4.7-0.2c4.7-0.4,9.3-1.2,13.6-2.5c1.8-0.5,4.1-1.4,7.1-2.8s5.7-3,8.2-4.9
			c2.5-1.9,4.2-4.1,5.2-6.4s0.4-4.8-1.7-7.4c-1.9-2.3-4.3-4.1-7-5.7c-2.7-1.5-5.7-2.7-8.8-3.6C143.2,144.7,140,144,136.8,143.5z
			 M159.9,156.7c2.1,2.6,1.5,4,1.3,4.5c-0.8,1.8-2.2,3.6-4.3,5.2c-2.3,1.8-4.8,3.3-7.6,4.6c-2.8,1.3-5,2.1-6.7,2.6
			c-4.2,1.2-8.6,2-13.1,2.4c-1.5,0.1-3,0.2-4.5,0.2c-3,0-6-0.3-8.9-0.8H116c-3.4-0.4-4.9-1.3-5.5-2c-0.9-0.9-1.3-1.9-1.3-3.1
			c0-1.5,0.4-3.3,1.3-5.2c1-2.2,2.2-4.3,3.6-6.5c3.2-5,6.5-9.7,10-13.8c0.3,0,0.7,0,0.9,0c0.8,0.1,1.6,0.2,2.3,0.3h0.1h0.1
			c2.7,0.3,5.7,0.7,8.8,1.2c3.1,0.5,6.2,1.1,9.2,2c2.9,0.9,5.7,2,8.2,3.4C156.2,153.1,158.2,154.8,159.9,156.7z"/>
		<g>
			<path class="st2" d="M270,43.1c2.3,0.8,4.7,1.6,6.9,2.6c0.3,0.1,0.6,0.3,0.9,0.4c-0.4-0.2-0.7-0.3-1.1-0.5
				C274.5,44.7,272.3,43.8,270,43.1z"/>
			<path class="st2" d="M234.2,37.6c-3-0.1-6.1-0.2-9.1-0.2c-4.5,0-9.1,0.1-13.6,0.4c-7.7,0.5-15.2,0.9-22.4,1.4
				c-12.2,0.8-24.9,2.1-37.7,3.9c-12.7,1.8-25.4,4.5-37.6,7.9c-12.1,3.4-23.9,8-35,13.6c-10.9,5.5-21,12.6-29.9,21
				c-4.4,4.3-8.2,9-11.2,14.2c-2.9,4.9-4.7,10-5.3,15.1c-0.1,0.9-0.2,1.8-0.2,2.7c0-0.8,0.1-1.6,0.2-2.4c0.6-5.1,2.4-10.1,5.3-15.1
				c3-5.1,6.8-9.9,11.2-14.2C58,77.3,68,70.2,79,64.7c11.1-5.6,22.9-10.2,35-13.6c12.2-3.5,24.9-6.1,37.6-7.9
				c12.8-1.8,25.5-3.1,37.7-3.9c6.7-0.4,14.1-0.9,22.4-1.4c4.5-0.3,9.1-0.4,13.6-0.4c3,0,6.1,0.1,9.1,0.2c7.5,0.3,15.1,1,22.4,2.2
				c1.8,0.3,3.5,0.6,5.2,1c-1.8-0.4-3.6-0.8-5.4-1.1C249.3,38.6,241.8,37.9,234.2,37.6z"/>
			<path class="st2" d="M95.3,121.5c-1.2-0.1-2.3-0.2-3.2-0.3c0,0-0.1,0-0.1,0C93,121.3,94.2,121.4,95.3,121.5
				C95.3,121.5,95.3,121.5,95.3,121.5z"/>
			<path class="st2" d="M46.7,164.6c-1.7,0.8-3.5,1.2-5.2,1.2c-2.1,0-4.1-0.6-6.1-1.7c-5.6-3.3-10.7-7.4-15.1-12.1
				c-4.5-4.8-8.1-10.4-10.6-16.6v0.1c2.5,6.3,6.1,11.9,10.7,16.8c4.4,4.7,9.5,8.8,15.1,12.1c1.9,1.1,4,1.7,6,1.7
				c1.8,0,3.5-0.4,5.2-1.2c3.7-1.7,6.2-4.8,7-8.8C53.9,155,54,154,54,153c0,0.9-0.1,1.8-0.3,2.8C52.8,159.8,50.4,162.9,46.7,164.6z"
				/>
			<path class="st2" d="M179.9,82.1c1.4,2.4,2,5.1,1.7,7.9c-0.3,3.1-1.9,5.9-4.5,7.9c-5.4,4.6-10.9,9.3-16.4,14
				c-0.7,0.6-1.4,1.2-2.1,1.8c0,0,0.1,0,0.1,0c0.7-0.6,1.4-1.2,2.1-1.8c5.5-4.7,11-9.4,16.4-14c2.6-2.1,4.2-4.8,4.5-7.9
				c0.3-2.8-0.3-5.5-1.7-7.9c-1.4-2.4-3.4-4.2-6-5.3c-0.4-0.1-0.7-0.3-1.1-0.4c0.3,0.1,0.6,0.2,1,0.4
				C176.4,77.9,178.5,79.7,179.9,82.1z"/>
			<path class="st2" d="M106.8,120.5c3.3-0.3,6.8-0.6,10.2-0.9c4.1-4.4,8.4-8.6,12.8-12.7c5-4.6,9.9-9.2,14.8-13.6
				c2.6-2.3,5.4-5.1,8.4-8.3c3.7-4,7.7-6.8,11.9-8.4c1.5-0.5,3-0.8,4.4-0.8c0,0,0,0,0,0c-1.5,0-3,0.3-4.5,0.8h-0.1
				c-4.2,1.6-8.2,4.4-11.9,8.4c-2.9,3.2-5.8,6-8.4,8.3c-4.9,4.4-9.9,9-14.8,13.6c-4.3,4.1-8.6,8.4-12.7,12.7
				c-3.4,0.3-6.9,0.6-10.2,0.9c-3.8,0.3-7.6,0.7-11.4,1c0,0,0,0,0.1,0C99.2,121.2,103,120.9,106.8,120.5z"/>
			<path class="st2" d="M34.4,129.4c1.9,4.4,5.6,8.5,11.2,12l0.1,0.1l0.1,0.1c1.9,1.3,3.5,2.6,5,4c1.3,1.2,3.2,3.6,3.2,7.4
				c0-4-1.9-6.5-3.2-7.7c-1.5-1.4-3.2-2.7-5-4l-0.1-0.1l-0.1-0.1c-5.6-3.5-9.3-7.6-11.2-12c-1.6-3.8-2.3-7.6-2.2-11.5
				C32,121.6,32.7,125.5,34.4,129.4z"/>
			<path class="st2" d="M120.9,197.4c0.1,0,0.2,0,0.3,0C121.1,197.4,121,197.4,120.9,197.4C120.9,197.4,120.9,197.4,120.9,197.4z"/>
			<path class="st2" d="M170.7,75.9c0.8,0.1,1.5,0.3,2.3,0.5C172.2,76.1,171.4,76,170.7,75.9z"/>
			<path class="st2" d="M308.6,41.1C308.6,41.1,308.6,41,308.6,41.1c0.1,0.1,0.2,0.3,0.3,0.6C308.8,41.5,308.7,41.3,308.6,41.1z"/>
			<path class="st2" d="M9.7,135.3c-2.5-7-3.4-14.2-2.7-21.2c0.7-6.8,2.5-13.4,5.4-19.7c2.8-6.2,6.5-12,10.9-17.3
				c4.3-5.2,9-10,13.9-14.2c11.1-9.5,23.6-17.3,37.1-23.1c13.2-5.7,26.9-10.5,40.6-14.2c12.4-3.2,25-5.7,37.5-7.4
				c12.3-1.7,25-2.9,37.6-3.7c12.1-0.9,24.4-1.3,36.7-1.3c2,0,4,0,5.9-0.1c14.7,0.2,29.2,2.2,43.3,5.9h0.1h0.1
				c5.8,1.7,11.8,4.1,17.6,7.1c6.6,3.4,11.6,8.5,14.9,14.9c0,0,0-0.1-0.1-0.1c-3.3-6.5-8.3-11.6-14.9-15c-5.9-3-11.8-5.4-17.6-7.1
				h-0.1c-14.1-3.7-28.7-5.7-43.3-5.9c-2,0-4.1,0-6.1,0c-12.2,0-24.6,0.5-36.6,1.3c-12.6,0.8-25.3,2-37.7,3.7
				c-12.5,1.7-25.1,4.2-37.5,7.4C101,29,87.3,33.8,74.1,39.5c-13.5,5.8-26,13.6-37.2,23.1c-4.9,4.2-9.5,9-13.8,14.2
				C18.7,82.2,15,88,12.2,94.1c-2.9,6.3-4.7,12.9-5.4,19.7C6.1,120.8,7,128,9.5,135l0.1,0.2c0,0.1,0.1,0.2,0.1,0.2v0V135.3z"/>
			<path class="st2" d="M268.8,42.7c-2.2-0.7-4.4-1.3-6.7-1.8C264.3,41.4,266.6,42,268.8,42.7z"/>
			<path class="st2" d="M169.4,75.8C169.4,75.8,169.4,75.8,169.4,75.8c0.1,0,0.3,0,0.4,0C169.7,75.8,169.5,75.8,169.4,75.8z"/>
			<path class="st2" d="M225.3,31.6c3.2,0,6.3,0.1,9.4,0.2C231.6,31.7,228.5,31.6,225.3,31.6C225.4,31.6,225.4,31.6,225.3,31.6z"/>
			<path class="st2" d="M168.6,136.9c1.5,1.1,2.9,2.4,4.2,3.6c-1.3-1.3-2.8-2.6-4.3-3.7c-0.5-0.3-0.8-0.6-1.3-0.9c0,0,0,0,0,0
				C167.7,136.2,168.1,136.6,168.6,136.9z"/>
			<path class="st2" d="M136.8,143.5c-3.2-0.5-6.2-0.9-8.9-1.2c-0.8-0.2-1.7-0.3-2.5-0.4c-0.9-0.1-1.7-0.1-2.5-0.1
				c-3.9,4.5-7.6,9.6-11.1,15.2c-1.4,2.2-2.7,4.5-3.7,6.9c-1,2.3-1.6,4.5-1.6,6.4c0,1.9,0.7,3.6,2.1,5.1c1.4,1.4,3.7,2.4,7.1,2.9
				c3,0.6,6.1,0.8,9.3,0.8c1.6,0,3.1-0.1,4.7-0.2c4.7-0.4,9.3-1.2,13.6-2.5c1.8-0.5,4.1-1.4,7.1-2.8s5.7-3,8.2-4.9
				c2.5-1.9,4.2-4.1,5.2-6.4s0.4-4.8-1.7-7.4c-1.9-2.3-4.3-4.1-7-5.7c-2.7-1.5-5.7-2.7-8.8-3.6C143.2,144.7,140,144,136.8,143.5z"/>
			<path class="st2" d="M211.4,32c-7.7,0.5-15.2,0.9-22.4,1.4c-12.4,0.8-25.1,2.1-38.1,4c-13,1.9-25.8,4.5-38.4,8.1
				c-12.5,3.5-24.6,8.2-36.1,14s-21.9,13.1-31.2,22C40.3,86.3,36.3,91.4,33,97c3.3-5.6,7.3-10.7,12.3-15.5
				c9.3-8.9,19.7-16.2,31.2-22s23.6-10.5,36.1-14c12.6-3.6,25.4-6.2,38.4-8.1c13-1.9,25.7-3.2,38.1-4
				C196.3,32.9,203.8,32.5,211.4,32c4.7-0.3,9.3-0.4,13.9-0.4c0,0,0,0,0,0C220.6,31.6,216,31.7,211.4,32z"/>
			<path class="st2" d="M82.4,145.3c-2.6-1.1-4.5-3.3-5.7-6.6c-2.9-7.5,1-11.5,2.8-12.9c2.1-1.7,4.6-2.8,7.2-3.4
				c1.4-0.8,2.9-1.2,4.6-1.2c0,0-0.1,0-0.1,0c-1.7,0-3.3,0.4-4.6,1.2c-2.6,0.6-5,1.7-7.2,3.4c-1.8,1.4-5.7,5.4-2.8,12.9
				c1.2,3.3,3.1,5.5,5.7,6.6c1.5,0.6,3.1,1.1,5.1,1.5c2,0.5,4.1,0.7,6.3,0.7c0,0,0.1,0,0.1,0c-2.2,0-4.3-0.2-6.3-0.7
				C85.6,146.4,83.9,145.9,82.4,145.3z"/>
			<path class="st2" d="M106.7,195.8c-3.2-0.9-6.3-2.2-9.2-3.9c-3.3-2-5.9-4.7-7.8-8.1c-2.5-4.1-3.6-8.6-3.4-13.2
				c0.2-4.1,1-8.2,2.5-12.2c1.3-3.7,3.2-7.4,5.5-10.9c0,0-0.1,0-0.1,0c-2.3,3.5-4.1,7.2-5.5,10.9c-1.5,4-2.3,8.1-2.5,12.2
				c-0.2,4.6,0.9,9,3.4,13.2c1.9,3.5,4.6,6.2,7.8,8.1c2.9,1.7,6,3,9.2,3.9c3.1,0.8,6.3,1.3,9.6,1.5c1.6,0.1,3.1,0.1,4.6,0.1
				c0,0,0,0,0.1,0c-1.5,0-3,0-4.6-0.1C113,197.1,109.8,196.6,106.7,195.8z"/>
			<path class="st2" d="M182,161.5c-0.1,5.2-2.3,10.5-6.4,15.6l-0.1,0.1c-3.1,3.7-6.8,6.8-11,9.4c-4.1,2.5-8.4,4.5-12.9,6
				c-4.4,1.5-8.9,2.6-13.5,3.2c-4.4,0.7-8.8,1.1-13,1.3c-1,0.2-2,0.3-3.1,0.3c1.1,0,2.3,0,3.3-0.1c4.2-0.2,8.6-0.6,13-1.3
				c4.6-0.7,9.1-1.8,13.5-3.2c4.5-1.5,8.8-3.5,12.9-6c4.2-2.6,7.9-5.7,11-9.4v-0.1v-0.1c4.2-5.2,6.3-10.4,6.4-15.6
				c0.1-5-1.1-9.7-3.7-14c-1.5-2.5-3.4-4.9-5.6-7.1c2.2,2.1,4,4.5,5.5,7C180.9,151.8,182.1,156.5,182,161.5z"/>
			<path class="st0" d="M313.7,38.6L313.7,38.6v-0.2c-3.8-7.6-9.7-13.5-17.4-17.5c-6.2-3.2-12.4-5.7-18.6-7.5h-0.1h-0.1
				C263,9.5,248,7.5,232.8,7.3c-2,0.2-4.1,0.2-6.1,0.2c-12.4,0-24.9,0.4-37,1.3c-12.7,0.8-25.5,2.1-38,3.8
				c-12.7,1.7-25.5,4.2-38.1,7.5h-0.1h-0.1c-14,3.8-27.9,8.7-41.3,14.5c-14,6.1-27,14.1-38.6,24C28.4,63,23.5,68,19,73.5
				C14.3,79.2,10.4,85.4,7.3,92c-3.3,6.7-5.3,13.9-6,21.4c-0.8,7.9,0.2,15.9,3,23.7l0.1,0.2l0.1,0.2c2.8,6.9,6.7,13.2,11.8,18.5
				c4.8,5.1,10.3,9.5,16.3,13.1c2.8,1.6,5.8,2.5,8.9,2.5c2.6,0,5.1-0.6,7.6-1.7c5.4-2.5,9-7,10.2-12.8c1.3-6.1-0.3-11.9-4.5-15.9
				c-1.7-1.6-3.5-3.1-5.6-4.5l-0.2-0.2l-0.2-0.1c-4.6-2.9-7.6-6-9-9.4c-1.6-3.7-2.1-7.4-1.6-11.3c0.5-4.4,2-8.6,4.6-12.9
				c2.7-4.7,6.2-9,10.2-13c8.5-8,18-14.8,28.5-20c10.8-5.4,22.2-9.9,34-13.2c12-3.4,24.4-6,36.9-7.8c12.7-1.8,25.2-3.1,37.3-3.9
				c6.7-0.4,14-0.9,22.4-1.4c4.4-0.3,8.8-0.4,13.2-0.4c2.9,0,5.9,0.1,8.9,0.2c7.3,0.3,14.6,1,21.7,2.1c6.6,1,12.9,2.9,18.8,5.4
				c3.5,1.5,4.8,2.6,5.2,3c-0.3,1-1.1,2.5-3,4.6c-2.3,2.6-5,5.1-8,7.4c-3.3,2.5-6.6,4.9-9.9,7c-3.2,2.1-6,3.7-8.2,4.8l-0.1,0.1
				l-0.1,0.1c-16.9,8.9-34.8,16-53.3,21.2c-5.8,1.6-11.7,3.1-17.7,4.5c0.5-0.4,1-0.9,1.5-1.3c3.7-3,6-7.2,6.5-11.8
				c0.4-4-0.5-7.9-2.5-11.4c-2-3.4-5-6.1-8.6-7.7c-2.2-1-4.5-1.5-6.9-1.5c-2.1,0-4.3,0.4-6.4,1.2h-0.1H163c-5,1.9-9.7,5.2-14,9.9
				c-2.9,3.1-5.5,5.7-8,7.9c-4.9,4.4-9.9,9-14.8,13.6c-3.9,3.7-7.8,7.5-11.5,11.3c-2.7,0.2-5.5,0.5-8.2,0.8c-3.6,0.4-7.2,0.7-10.7,1
				c-1-0.1-2-0.2-3-0.3c-0.4,0-0.8,0-1.2,0c-2.3,0-4.6,0.5-6.6,1.5c-3.2,0.8-6.1,2.2-8.7,4.3c-4.5,3.5-8.1,10.4-4.7,19.4
				c2.2,5.9,6,8.6,8.8,9.8c1.5,0.7,3.2,1.2,5,1.6c-0.7,1.4-1.3,2.9-1.8,4.3c-1.7,4.5-2.7,9.2-2.9,13.9c-0.3,5.7,1.1,11.2,4.2,16.4
				c2.4,4.2,5.7,7.6,9.8,10.1c3.3,2,6.9,3.5,10.7,4.5c3.5,0.9,7.1,1.5,10.7,1.7c1.7,0.1,3.3,0.1,4.9,0.1s3.2,0,4.7-0.1
				c4.4-0.2,8.9-0.6,13.6-1.3c4.9-0.7,9.7-1.9,14.4-3.5c4.9-1.6,9.6-3.8,14-6.5c4.7-2.9,8.9-6.4,12.4-10.5l0.1-0.1l0.1-0.1
				c5-6.2,7.6-12.6,7.7-19.1c0.1-6.1-1.4-11.8-4.5-17c-1.2-1.9-2.5-3.8-4-5.6c5.5-1.2,10.9-2.5,16.2-3.9
				c14.8-3.8,29.6-8.5,44.1-14.1c5.4-2,11-4.2,16.6-6.6c5.8-2.5,11.5-5.3,17.1-8.3c5.8-3.1,11.3-6.7,16.4-10.5
				c5.3-4,10.3-8.5,14.6-13.4c4.6-5.2,8.2-11.3,10.7-18.1C318.3,55.8,317.7,46.9,313.7,38.6z M309.9,62.2
				c-2.2,6.1-5.4,11.6-9.6,16.3c-4.1,4.6-8.8,8.9-13.8,12.6c-5,3.7-10.3,7.1-15.8,10.1s-11.1,5.7-16.7,8.1c-5.5,2.4-11,4.5-16.4,6.5
				c-14.3,5.5-28.9,10.2-43.5,13.9c-8.8,2.3-17.8,4.3-26.9,6.2c0.4,0.3,0.8,0.6,1.3,0.9c1.6,1.2,3,2.4,4.3,3.7
				c2.2,2.2,4.1,4.5,5.6,7.1c2.6,4.3,3.8,9,3.7,14c-0.1,5.2-2.2,10.4-6.4,15.6v0.1v0.1c-3.1,3.7-6.8,6.8-11,9.4
				c-4.1,2.5-8.4,4.5-12.9,6c-4.4,1.4-8.9,2.5-13.5,3.2c-4.4,0.7-8.8,1.1-13,1.3c-1.1,0.1-2.2,0.1-3.3,0.1c-0.3,0-0.5,0-0.8,0
				c-0.1,0-0.2,0-0.3,0c0,0,0,0,0,0c0,0,0,0-0.1,0c-1.5,0-3,0-4.6-0.1c-3.3-0.2-6.5-0.7-9.6-1.5c-3.2-0.9-6.3-2.2-9.2-3.9
				c-3.2-1.9-5.9-4.6-7.8-8.1c-2.5-4.2-3.6-8.6-3.4-13.2c0.2-4.1,1-8.2,2.5-12.2c1.4-3.7,3.2-7.4,5.5-10.9c-0.2,0-0.3,0-0.4,0
				c0,0-0.1,0-0.1,0c-2.2,0-4.3-0.2-6.3-0.7c-2-0.4-3.6-0.9-5.1-1.5c-2.6-1.1-4.5-3.3-5.7-6.6c-2.9-7.5,1-11.5,2.8-12.9
				c2.2-1.7,4.6-2.8,7.2-3.4c1.3-0.8,2.9-1.2,4.6-1.2c0,0,0.1,0,0.1,0c0.2,0,0.4,0,0.7,0c0,0,0.1,0,0.1,0c1,0.1,2.1,0.2,3.2,0.3
				c3.8-0.3,7.6-0.7,11.4-1c3.3-0.3,6.8-0.6,10.2-0.9c4.1-4.3,8.4-8.6,12.7-12.7c4.9-4.6,9.9-9.2,14.8-13.6c2.6-2.3,5.5-5.1,8.4-8.3
				c3.7-4,7.7-6.8,11.9-8.4h0.1c1.5-0.5,3-0.8,4.5-0.8c0,0,0,0,0,0c0,0,0,0,0.1,0c0.1,0,0.3,0,0.4,0c0.3,0,0.5,0,0.8,0
				c0,0,0.1,0,0.1,0c0.8,0.1,1.5,0.3,2.3,0.5c0.4,0.1,0.7,0.2,1.1,0.4c2.6,1.1,4.6,2.9,6,5.3c1.4,2.4,2,5.1,1.7,7.9
				c-0.3,3.1-1.9,5.8-4.5,7.9c-5.4,4.6-10.9,9.3-16.4,14c-0.7,0.6-1.4,1.2-2.1,1.8c13.5-2.5,26.7-5.6,39.7-9.2
				c18.9-5.3,37.2-12.5,54.5-21.6l0.1-0.1c2.4-1.2,5.3-2.9,8.7-5.1c3.5-2.2,6.9-4.7,10.3-7.3c3.2-2.5,6.2-5.2,8.8-8.1
				c2.2-2.5,3.7-4.9,4.3-7.1c0.4-1.5,0.3-2.8-0.6-4.3c-0.6-0.9-2.1-2.7-6.7-4.8c-0.3-0.1-0.6-0.3-0.9-0.4c-2.2-1-4.5-1.8-6.9-2.6
				c-0.1,0-0.3-0.1-0.4-0.1c-0.3-0.1-0.5-0.2-0.8-0.2c-2.2-0.7-4.4-1.3-6.7-1.8c-1.7-0.4-3.5-0.7-5.2-1c-7.3-1.2-14.9-1.9-22.4-2.2
				c-3-0.1-6.1-0.2-9.1-0.2c-4.5,0-9.1,0.1-13.6,0.4c-8.3,0.5-15.7,1-22.4,1.4c-12.2,0.8-24.9,2.1-37.7,3.9
				c-12.7,1.8-25.4,4.4-37.6,7.9c-12.1,3.4-23.9,8-35,13.6c-11,5.5-21,12.6-30.1,21.2c-4.4,4.3-8.2,9.1-11.2,14.2
				c-2.9,5-4.7,10-5.3,15.1c-0.1,0.8-0.2,1.6-0.2,2.4c-0.1,3.9,0.6,7.8,2.2,11.5c1.9,4.4,5.6,8.5,11.2,12l0.1,0.1l0.1,0.1
				c1.8,1.3,3.5,2.6,5,4c1.3,1.2,3.2,3.8,3.2,7.7c0,0.9-0.1,2-0.3,3.1c-0.8,4-3.3,7.1-7,8.8c-1.7,0.8-3.4,1.2-5.2,1.2
				c-2,0-4.1-0.6-6-1.7c-5.6-3.3-10.7-7.4-15.1-12.1c-4.6-4.9-8.2-10.5-10.7-16.8v-0.1c0-0.1-0.1-0.2-0.1-0.2L9.5,135
				c-2.5-7-3.4-14.2-2.7-21.2c0.7-6.8,2.5-13.4,5.4-19.7C15,88,18.7,82.2,23.1,76.8c4.3-5.2,8.9-10,13.8-14.2
				c11.2-9.5,23.7-17.3,37.2-23.1C87.3,33.8,101,29,114.7,25.3c12.4-3.2,25-5.7,37.5-7.4c12.4-1.7,25.1-2.9,37.7-3.7
				c12-0.8,24.4-1.3,36.6-1.3c2,0,4.1,0,6.1,0c14.6,0.2,29.2,2.2,43.3,5.9h0.1c5.8,1.7,11.7,4.1,17.6,7.1c6.6,3.4,11.6,8.5,14.9,15
				c0,0,0,0.1,0.1,0.1c0,0,0,0.1,0,0.1c0.1,0.2,0.2,0.4,0.3,0.6c0.1,0.2,0.2,0.5,0.3,0.7c0,0.1,0,0.1,0.1,0.2
				c0.2,0.4,0.3,0.8,0.5,1.2c0,0,0,0,0,0c0.2,0.4,0.3,0.8,0.4,1.3c0.1,0.3,0.2,0.5,0.2,0.8c0,0.1,0.1,0.3,0.1,0.4
				C312.1,51.6,311.9,57,309.9,62.2z"/>
			<path class="st0" d="M198.5,104.5c18.9-5.2,37.2-12.5,54.5-21.6h0.1h0.1c2.4-1.2,5.4-2.9,8.8-5.1c3.4-2.2,6.9-4.7,10.3-7.3
				c3.3-2.5,6.2-5.2,8.8-8.1c2.2-2.5,3.7-4.9,4.3-7.1c0.5-1.5,0.3-2.9-0.6-4.3c-0.6-0.9-2.2-2.8-7-4.9c4.5,2.1,6.1,3.9,6.7,4.8
				c0.9,1.5,1,2.8,0.6,4.3c-0.6,2.2-2.1,4.6-4.3,7.1c-2.6,2.9-5.6,5.6-8.8,8.1c-3.4,2.6-6.8,5.1-10.3,7.3c-3.4,2.2-6.3,3.9-8.7,5.1
				l-0.1,0.1c-17.3,9.1-35.6,16.3-54.5,21.6c-13,3.6-26.2,6.7-39.7,9.2c0,0,0,0,0,0C172.2,111.2,185.5,108.1,198.5,104.5z"/>
			<path class="st1" d="M309.8,62.1c-2.2,6.1-5.5,11.6-9.6,16.3c-4.1,4.6-8.7,8.9-13.8,12.6c-4.9,3.7-10.2,7.1-15.8,10.1
				c-5.5,3-11.1,5.7-16.7,8.1c-5.5,2.4-11,4.5-16.4,6.5c-14.3,5.5-28.9,10.2-43.5,13.9c-8.8,2.3-17.8,4.3-26.9,6.2
				c0,0,0.1,0.1,0.1,0.1c9.1-1.9,18.1-3.9,26.9-6.2c14.6-3.7,29.2-8.4,43.5-13.9c5.4-2,10.9-4.1,16.4-6.5c5.6-2.4,11.2-5.1,16.7-8.1
				s10.8-6.4,15.8-10.1c5-3.7,9.7-8,13.8-12.6c4.2-4.7,7.4-10.2,9.6-16.3c2-5.2,2.2-10.6,0.7-15.9C312,51.6,311.7,56.9,309.8,62.1z"
				/>
			<path class="st1" d="M194,129.6c14.6-3.7,29.2-8.4,43.5-13.9c5.4-2,10.9-4.1,16.4-6.5c5.6-2.4,11.2-5.1,16.7-8.1
				c5.6-3,10.9-6.4,15.8-10.1c5.1-3.7,9.7-8,13.8-12.6c4.1-4.7,7.4-10.2,9.6-16.3c1.9-5.2,2.2-10.5,0.8-15.8c0-0.1-0.1-0.3-0.1-0.4
				c-0.1-0.3-0.1-0.5-0.2-0.8c-0.1-0.4-0.3-0.8-0.4-1.3c0,0,0,0,0,0c-0.1-0.4-0.3-0.8-0.5-1.2c0-0.1,0-0.1-0.1-0.2
				c-0.1-0.2-0.2-0.5-0.3-0.7c-0.1-0.2-0.2-0.4-0.3-0.6c-3.3-6.5-8.3-11.5-14.9-14.9c-5.8-3-11.8-5.4-17.6-7.1H276h-0.1
				c-14.1-3.7-28.6-5.7-43.3-5.9c-1.9,0.1-3.9,0.1-5.9,0.1c-12.3,0-24.6,0.4-36.7,1.3c-12.6,0.8-25.3,2-37.6,3.7
				c-12.5,1.7-25.1,4.2-37.5,7.4c-13.7,3.7-27.4,8.5-40.6,14.2c-13.5,5.8-26,13.6-37.1,23.1c-4.9,4.2-9.6,9-13.9,14.2
				c-4.4,5.3-8.1,11.1-10.9,17.3c-2.9,6.3-4.7,12.9-5.4,19.7c-0.7,7,0.2,14.2,2.7,21.2v0.1v0c2.5,6.2,6.1,11.7,10.6,16.6
				c4.4,4.7,9.5,8.8,15.1,12.1c2,1.1,4,1.7,6.1,1.7c1.7,0,3.5-0.4,5.2-1.2c3.7-1.7,6.1-4.8,7-8.8c0.2-1,0.3-1.9,0.3-2.8
				c-0.1-3.8-1.9-6.2-3.2-7.4c-1.5-1.4-3.1-2.7-5-4l-0.1-0.1l-0.1-0.1c-5.6-3.5-9.3-7.6-11.2-12c-1.7-3.9-2.4-7.8-2.2-11.8
				c0-0.9,0.1-1.8,0.2-2.7c0.6-5.1,2.4-10.2,5.3-15.1c3-5.2,6.8-9.9,11.2-14.2c8.9-8.4,19-15.5,29.9-21c11.1-5.6,22.9-10.2,35-13.6
				c12.2-3.4,24.9-6.1,37.6-7.9c12.8-1.8,25.5-3.1,37.7-3.9c7.2-0.5,14.7-0.9,22.4-1.4c4.5-0.3,9.1-0.4,13.6-0.4
				c3,0,6.1,0.1,9.1,0.2c7.6,0.3,15.1,1,22.4,2.2c1.8,0.3,3.6,0.7,5.4,1.1c2.3,0.5,4.5,1.1,6.7,1.8c0.3,0.1,0.5,0.2,0.8,0.2
				c0.1,0,0.3,0.1,0.4,0.1c2.3,0.7,4.5,1.6,6.7,2.5c0.4,0.2,0.8,0.3,1.1,0.5c4.8,2.1,6.4,4,7,4.9c0.9,1.4,1.1,2.8,0.6,4.3
				c-0.6,2.2-2.1,4.6-4.3,7.1c-2.6,2.9-5.5,5.6-8.8,8.1c-3.4,2.6-6.9,5.1-10.3,7.3c-3.4,2.2-6.4,3.9-8.8,5.1h-0.1H253
				c-17.3,9.1-35.6,16.4-54.5,21.6c-13,3.6-26.3,6.7-39.8,9.2c0,0,0,0,0,0c0,0-0.1,0-0.1,0c0.7-0.6,1.4-1.2,2.1-1.8
				c5.5-4.7,11-9.4,16.4-14c2.6-2,4.2-4.8,4.5-7.9c0.3-2.8-0.3-5.5-1.7-7.9c-1.4-2.4-3.5-4.2-6-5.3c-0.3-0.2-0.6-0.3-1-0.4
				c-0.7-0.2-1.5-0.4-2.3-0.5c0,0-0.1,0-0.1,0c-0.2,0-0.5,0-0.8,0c-0.2,0-0.3,0-0.5,0c-1.5,0-3,0.3-4.4,0.8
				c-4.2,1.6-8.2,4.4-11.9,8.4c-3,3.2-5.8,6-8.4,8.3c-4.9,4.4-9.8,9-14.8,13.6c-4.4,4.1-8.7,8.3-12.8,12.7
				c-3.4,0.3-6.9,0.6-10.2,0.9c-3.8,0.4-7.6,0.7-11.4,1c0,0,0,0-0.1,0c0,0,0,0,0,0c-1.1-0.1-2.3-0.2-3.3-0.3c-0.3,0-0.5,0-0.7,0
				c-1.7,0-3.2,0.4-4.6,1.2c-2.6,0.6-5.1,1.7-7.2,3.4c-1.8,1.4-5.7,5.4-2.8,12.9c1.2,3.3,3.1,5.5,5.7,6.6c1.5,0.6,3.2,1.1,5.1,1.5
				c2,0.5,4.1,0.7,6.3,0.7c0.1,0,0.2,0,0.4,0c0,0,0.1,0,0.1,0c-2.3,3.5-4.2,7.2-5.5,10.9c-1.5,4-2.3,8.1-2.5,12.2
				c-0.2,4.6,0.9,9.1,3.4,13.2c1.9,3.4,4.5,6.1,7.8,8.1c2.9,1.7,6,3,9.2,3.9c3.1,0.8,6.3,1.3,9.6,1.5c1.6,0.1,3.1,0.1,4.6,0.1
				c0.1,0,0.2,0,0.3,0c0.3,0,0.5,0,0.8,0c1.1,0,2.2-0.1,3.1-0.3c4.2-0.2,8.6-0.6,13-1.3c4.6-0.6,9.1-1.7,13.5-3.2
				c4.5-1.5,8.8-3.5,12.9-6c4.2-2.6,7.9-5.7,11-9.4l0.1-0.1c4.1-5.1,6.3-10.4,6.4-15.6c0.1-5-1.1-9.7-3.7-14c-1.5-2.5-3.3-4.8-5.5-7
				c-1.3-1.3-2.7-2.5-4.2-3.6c-0.5-0.3-0.9-0.7-1.4-1c0,0,0,0,0,0c0,0-0.1-0.1-0.1-0.1C176.2,133.9,185.2,131.9,194,129.6z
				 M167.3,139.2c3.8,2.9,6.9,6.2,9.1,9.9c2.3,3.8,3.4,8,3.3,12.5c-0.1,4.6-2.1,9.3-5.8,13.9c-3,3.5-6.4,6.4-10.4,8.8
				c-3.9,2.4-8,4.3-12.3,5.7c-4.2,1.4-8.6,2.5-13,3.1c-4.4,0.7-8.6,1.1-12.7,1.2c-1.8,0.2-3.2,0.3-4.7,0.3s-2.9,0-4.4-0.1
				c-3.1-0.2-6.1-0.7-9-1.4c-3-0.8-5.8-2-8.5-3.6c-2.8-1.7-5.1-4.1-6.8-7.1c-2.2-3.6-3.2-7.6-3-11.7c0.2-3.8,1-7.6,2.3-11.4
				c1.4-3.6,3.2-7.2,5.5-10.7c1-1.6,2.1-3.1,3.1-4.6c-0.8,0.1-1.6,0.2-2.4,0.3c-1.3,0.2-2.6,0.3-3.8,0.3c-2,0-3.9-0.2-5.6-0.7
				c-1.8-0.4-3.3-0.8-4.6-1.4c-1.9-0.8-3.3-2.5-4.2-5c-2.1-5.4,0.3-8.4,1.9-9.6c1.9-1.5,4.1-2.5,6.6-3c1-0.7,2.2-1,3.5-1
				c0.2,0,0.4,0,0.6,0c1.1,0.1,2.2,0.2,3.5,0.3c3.9-0.3,7.8-0.7,11.7-1.1c3.7-0.4,7.5-0.7,11.3-1c4.3-4.5,8.8-9,13.4-13.3
				c4.9-4.6,9.9-9.2,14.8-13.5c2.7-2.4,5.6-5.2,8.6-8.5c3.4-3.7,7.1-6.3,10.8-7.7c1.2-0.4,2.4-0.7,3.5-0.7c1.2,0,2.4,0.2,3.4,0.7
				c2,0.9,3.6,2.3,4.7,4.2s1.6,4,1.3,6.2c-0.2,2.4-1.4,4.4-3.4,6c-5.5,4.7-10.9,9.3-16.5,14.1c-3.2,2.7-6.4,5.6-9.5,8.5
				c16.9-2.8,33.6-6.4,49.9-11c19.1-5.3,37.6-12.7,55-21.8c2.5-1.3,5.6-3,9.1-5.3c3.5-2.3,7.1-4.8,10.5-7.5c3.4-2.6,6.5-5.5,9.2-8.5
				c2.5-2.8,4.2-5.6,4.9-8.2c0.7-2.3,0.4-4.4-0.9-6.6c-1.4-2.3-4.4-4.4-9.2-6.4c-6.5-2.8-13.5-4.8-20.8-5.9
				c-7.4-1.2-15.1-1.9-22.7-2.2c-3.1-0.1-6.2-0.2-9.2-0.2c-4.6,0-9.2,0.1-13.8,0.4c-7.7,0.5-15.2,0.9-22.4,1.4
				c-12.3,0.8-25,2.1-37.9,4c-12.8,1.8-25.6,4.5-38,8C101,51.8,89,56.4,77.7,62.1C66.5,67.7,56.2,75,47.1,83.6
				c-4.6,4.5-8.5,9.4-11.7,14.8c-3.1,5.3-5,10.7-5.7,16.2c-0.7,5.3,0.1,10.6,2.2,15.7c2.1,5,6.2,9.5,12.3,13.3l0.1,0.1
				c1.7,1.2,3.3,2.5,4.7,3.7c1.4,1.3,2.9,3.8,2,7.9c-0.7,3.1-2.6,5.5-5.4,6.8c-1.3,0.6-2.7,0.9-4,0.9c-1.6,0-3.1-0.4-4.6-1.3
				c-5.4-3.2-10.2-7.1-14.5-11.6c-4.3-4.6-7.7-9.9-10.1-15.9v-0.1c-2.4-6.6-3.3-13.4-2.6-20c0.7-6.5,2.4-12.8,5.2-18.8
				c2.7-5.9,6.3-11.5,10.5-16.6c4.2-5.1,8.7-9.8,13.5-13.9C49.9,55.7,62.1,48,75.4,42.3c13.1-5.7,26.6-10.4,40.2-14.1
				c12.3-3.2,24.8-5.6,37.2-7.3c12.3-1.7,24.9-2.9,37.5-3.7c12-0.8,24.2-1.2,36.5-1.2c2,0,4.1,0,6.1,0c14.4,0.2,28.7,2.1,42.6,5.8
				c5.7,1.6,11.4,3.9,17.1,6.9c6.1,3.1,10.7,7.7,13.7,13.7c3.1,6.4,3.5,12.7,1.2,18.9c-2.1,5.8-5.2,11-9.1,15.4
				c-4,4.5-8.5,8.6-13.3,12.2s-10,6.9-15.4,9.9c-5.4,2.9-10.9,5.6-16.4,8c-5.5,2.3-11,4.5-16.3,6.4c-14.1,5.5-28.7,10.1-43.2,13.8
				c-11.2,2.9-22.6,5.4-34,7.6C162.4,135.9,165,137.4,167.3,139.2z"/>
			<g>
				<path class="st2" d="M225.3,31.6c3.2,0,6.3,0.1,9.4,0.2C231.6,31.7,228.5,31.6,225.3,31.6C225.4,31.6,225.4,31.6,225.3,31.6z"/>
				<path class="st2" d="M211.4,32c-7.7,0.5-15.2,0.9-22.4,1.4c-12.4,0.8-25.1,2.1-38.1,4c-13,1.9-25.8,4.5-38.4,8.1
					c-12.5,3.5-24.6,8.2-36.1,14s-21.9,13.1-31.2,22C40.3,86.3,36.3,91.4,33,97c3.3-5.6,7.3-10.7,12.3-15.5
					c9.3-8.9,19.7-16.2,31.2-22s23.6-10.5,36.1-14c12.6-3.6,25.4-6.2,38.4-8.1c13-1.9,25.7-3.2,38.1-4
					C196.3,32.9,203.8,32.5,211.4,32c4.7-0.3,9.3-0.4,13.9-0.4c0,0,0,0,0,0C220.6,31.6,216,31.7,211.4,32z"/>
				<path class="st2" d="M136.8,143.5c-3.2-0.5-6.2-0.9-8.9-1.2c-0.8-0.2-1.7-0.3-2.5-0.4c-0.9-0.1-1.7-0.1-2.5-0.1
					c-3.9,4.5-7.6,9.6-11.1,15.2c-1.4,2.2-2.7,4.5-3.7,6.9c-1,2.3-1.6,4.5-1.6,6.4c0,1.9,0.7,3.6,2.1,5.1c1.4,1.4,3.7,2.4,7.1,2.9
					c3,0.6,6.1,0.8,9.3,0.8c1.6,0,3.1-0.1,4.7-0.2c4.7-0.4,9.3-1.2,13.6-2.5c1.8-0.5,4.1-1.4,7.1-2.8s5.7-3,8.2-4.9
					c2.5-1.9,4.2-4.1,5.2-6.4s0.4-4.8-1.7-7.4c-1.9-2.3-4.3-4.1-7-5.7c-2.7-1.5-5.7-2.7-8.8-3.6C143.2,144.7,140,144,136.8,143.5z"
					/>
				<path class="st0" d="M291.2,31.2c-5.5-2.9-11-5.1-16.5-6.7C261,20.9,247,19,232.8,18.8c-2.1,0-4.1,0-6.1,0
					c-12.2,0-24.3,0.5-36.3,1.3c-12.6,0.8-25,2-37.3,3.7c-12.3,1.6-24.6,4-36.8,7.2c-13.5,3.6-26.8,8.3-39.8,13.9
					C63.5,50.6,51.6,58,40.7,67c-4.6,4-9,8.5-13.1,13.5c-4.1,4.9-7.4,10.3-10.1,16c-2.6,5.8-4.3,11.7-4.9,17.9
					c-0.7,6.2,0.1,12.4,2.4,18.7c2.2,5.7,5.4,10.7,9.5,15s8.8,8,13.9,11.1c1.1,0.6,2.1,0.9,3.2,0.9c0.9,0,1.8-0.3,2.8-0.7
					c2.1-0.9,3.4-2.6,3.9-4.8c0.5-2.3,0.1-4-1.2-5.2c-1.2-1.2-2.7-2.4-4.3-3.5c-6.6-4.2-11.1-9.1-13.4-14.6
					c-2.3-5.5-3.1-11.2-2.4-17.1c0.7-5.8,2.7-11.6,6-17.2c3.3-5.6,7.3-10.7,12.2-15.5c9.3-8.9,19.7-16.2,31.2-22s23.6-10.5,36.1-14
					c12.6-3.6,25.4-6.2,38.4-8.1c13-1.9,25.7-3.2,38.1-4c7.2-0.5,14.7-0.9,22.4-1.4c4.6-0.3,9.2-0.4,13.9-0.4c0,0,0,0,0,0
					c0,0,0,0,0.1,0c3.1,0,6.2,0.1,9.3,0.2c7.8,0.3,15.4,1.1,23,2.3c7.6,1.2,14.7,3.2,21.5,6.1c5.3,2.3,8.8,4.8,10.5,7.6
					c1.7,2.8,2.1,5.7,1.2,8.8c-0.8,3.1-2.7,6.2-5.5,9.3c-2.8,3.1-6,6.1-9.5,8.8s-7.1,5.3-10.7,7.6c-3.6,2.3-6.7,4.1-9.3,5.4
					c-17.7,9.4-36.2,16.7-55.6,22.1c-19.4,5.4-39.1,9.5-59.2,12.4c5.3-5.1,10.8-10.1,16.3-14.8c5.5-4.7,11-9.4,16.5-14.1
					c1.4-1.1,2.2-2.5,2.4-4.1c0.1-1.6-0.2-3.1-1-4.5c-0.8-1.3-2-2.4-3.4-3c-0.7-0.3-1.5-0.5-2.3-0.5s-1.6,0.2-2.5,0.5
					c-3.4,1.3-6.7,3.6-9.8,7c-3.1,3.4-6.1,6.3-8.8,8.7c-5,4.5-9.9,9-14.7,13.5c-4.8,4.5-9.5,9.2-14,14c-4.2,0.3-8.3,0.7-12.3,1.1
					c-4.1,0.4-8.1,0.8-12.1,1.1c-1.3-0.2-2.5-0.3-3.6-0.4c-0.2,0-0.3,0-0.4,0c-1,0-1.7,0.3-2.3,0.9c-2.2,0.3-4.2,1.1-6,2.5
					c-1.8,1.4-2.1,3.5-1,6.4c0.7,1.8,1.6,2.9,2.7,3.4c1.1,0.5,2.5,0.9,4.1,1.2c1.6,0.4,3.2,0.6,5,0.6c1.1,0,2.2,0,3.4-0.2
					c3.1-0.4,6-0.6,8.7-0.6c-2.2,2.9-4.4,6-6.6,9.3c-2.2,3.3-3.9,6.6-5.2,10.1s-2,7-2.2,10.5c-0.1,3.5,0.8,6.9,2.7,10.1
					c1.5,2.5,3.4,4.6,5.8,6c2.4,1.5,5,2.6,7.7,3.3s5.5,1.1,8.4,1.3c1.5,0.1,2.9,0.1,4.3,0.1c1.4,0,2.8,0,4.2-0.1
					c4-0.2,8.1-0.6,12.4-1.2c4.2-0.6,8.4-1.6,12.5-3c4.1-1.3,8-3.1,11.7-5.4c3.6-2.3,6.9-5,9.6-8.2c3.4-4.2,5.1-8.3,5.2-12.2
					c0.1-4-0.9-7.6-2.9-11c-2-3.3-4.8-6.3-8.3-9c-3.5-2.7-7.3-4.8-11.3-6.2l-5.3-1.7c14.9-2.6,29.6-5.7,44.1-9.4
					c14.4-3.7,28.7-8.3,42.9-13.8c5.3-1.9,10.7-4.1,16.2-6.4c5.5-2.3,10.9-4.9,16.2-7.8c5.3-2.8,10.4-6.1,15.1-9.6s9-7.5,12.9-11.8
					c3.7-4.2,6.6-9,8.6-14.5c2-5.4,1.6-11-1.1-16.6C300.9,38.2,296.7,34.1,291.2,31.2z M155.1,149.2c2.7,1.6,5.1,3.4,7,5.7
					c2.1,2.6,2.7,5.1,1.7,7.4s-2.7,4.5-5.2,6.4c-2.5,1.9-5.2,3.5-8.2,4.9s-5.3,2.3-7.1,2.8c-4.3,1.3-8.9,2.1-13.6,2.5
					c-1.6,0.1-3.1,0.2-4.7,0.2c-3.2,0-6.3-0.2-9.3-0.8c-3.4-0.5-5.7-1.5-7.1-2.9c-1.4-1.5-2.1-3.2-2.1-5.1c0-1.9,0.6-4.1,1.6-6.4
					c1-2.4,2.3-4.7,3.7-6.9c3.5-5.6,7.2-10.7,11.1-15.2c0.8,0,1.6,0,2.5,0.1c0.8,0.1,1.7,0.2,2.5,0.4c2.7,0.3,5.7,0.7,8.9,1.2
					c3.2,0.5,6.4,1.2,9.5,2.1C149.4,146.5,152.4,147.7,155.1,149.2z"/>
				<path class="st1" d="M306.3,42.4c-3-6-7.6-10.6-13.7-13.7c-5.7-3-11.4-5.3-17.1-6.9c-13.9-3.7-28.2-5.6-42.6-5.8
					c-2,0-4.1,0-6.1,0c-12.3,0-24.5,0.4-36.5,1.2c-12.6,0.8-25.2,2-37.5,3.7c-12.4,1.7-24.9,4.1-37.2,7.3
					c-13.6,3.7-27.1,8.4-40.2,14.1C62.1,48,49.9,55.7,39,64.8c-4.8,4.1-9.3,8.8-13.5,13.9c-4.2,5.1-7.8,10.7-10.5,16.6
					c-2.8,6-4.5,12.3-5.2,18.8c-0.7,6.6,0.2,13.4,2.6,20v0.1c2.4,6,5.8,11.3,10.1,15.9c4.3,4.5,9.1,8.4,14.5,11.6
					c1.5,0.9,3,1.3,4.6,1.3c1.3,0,2.7-0.3,4-0.9c2.8-1.3,4.7-3.7,5.4-6.8c0.9-4.1-0.6-6.6-2-7.9c-1.4-1.2-3-2.5-4.7-3.7l-0.1-0.1
					c-6.1-3.8-10.2-8.3-12.3-13.3c-2.1-5.1-2.9-10.4-2.2-15.7c0.7-5.5,2.6-10.9,5.7-16.2c3.2-5.4,7.1-10.3,11.7-14.8
					c9.1-8.6,19.4-15.9,30.6-21.5C89,56.4,101,51.8,113.3,48.3c12.4-3.5,25.2-6.2,38-8c12.9-1.9,25.6-3.2,37.9-4
					c7.2-0.5,14.7-0.9,22.4-1.4c4.6-0.3,9.2-0.4,13.8-0.4c3,0,6.1,0.1,9.2,0.2c7.6,0.3,15.3,1,22.7,2.2c7.3,1.1,14.3,3.1,20.8,5.9
					c4.8,2,7.8,4.1,9.2,6.4c1.3,2.2,1.6,4.3,0.9,6.6c-0.7,2.6-2.4,5.4-4.9,8.2c-2.7,3-5.8,5.9-9.2,8.5c-3.4,2.7-7,5.2-10.5,7.5
					c-3.5,2.3-6.6,4-9.1,5.3c-17.4,9.1-35.9,16.5-55,21.8c-16.3,4.6-33,8.2-49.9,11c3.1-2.9,6.3-5.8,9.5-8.5
					c5.6-4.8,11-9.4,16.5-14.1c2-1.6,3.2-3.6,3.4-6c0.3-2.2-0.2-4.3-1.3-6.2S175,80,173,79.1c-1-0.5-2.2-0.7-3.4-0.7
					c-1.1,0-2.3,0.3-3.5,0.7c-3.7,1.4-7.4,4-10.8,7.7c-3,3.3-5.9,6.1-8.6,8.5c-4.9,4.3-9.9,8.9-14.8,13.5
					c-4.6,4.3-9.1,8.8-13.4,13.3c-3.8,0.3-7.6,0.6-11.3,1c-3.9,0.4-7.8,0.8-11.7,1.1c-1.3-0.1-2.4-0.2-3.5-0.3c-0.2,0-0.4,0-0.6,0
					c-1.3,0-2.5,0.3-3.5,1c-2.5,0.5-4.7,1.5-6.6,3c-1.6,1.2-4,4.2-1.9,9.6c0.9,2.5,2.3,4.2,4.2,5c1.3,0.6,2.8,1,4.6,1.4
					c1.7,0.5,3.6,0.7,5.6,0.7c1.2,0,2.5-0.1,3.8-0.3c0.8-0.1,1.6-0.2,2.4-0.3c-1,1.5-2.1,3-3.1,4.6c-2.3,3.5-4.1,7.1-5.5,10.7
					c-1.3,3.8-2.1,7.6-2.3,11.4c-0.2,4.1,0.8,8.1,3,11.7c1.7,3,4,5.4,6.8,7.1c2.7,1.6,5.5,2.8,8.5,3.6c2.9,0.7,5.9,1.2,9,1.4
					c1.5,0.1,2.9,0.1,4.4,0.1s2.9-0.1,4.7-0.3c4.1-0.1,8.3-0.5,12.7-1.2c4.4-0.6,8.8-1.7,13-3.1c4.3-1.4,8.4-3.3,12.3-5.7
					c4-2.4,7.4-5.3,10.4-8.8c3.7-4.6,5.7-9.3,5.8-13.9c0.1-4.5-1-8.7-3.3-12.5c-2.2-3.7-5.3-7-9.1-9.9c-2.3-1.8-4.9-3.3-7.5-4.6
					c11.4-2.2,22.8-4.7,34-7.6c14.5-3.7,29.1-8.3,43.2-13.8c5.3-1.9,10.8-4.1,16.3-6.4c5.5-2.4,11-5.1,16.4-8
					c5.4-3,10.6-6.3,15.4-9.9s9.3-7.7,13.3-12.2c3.9-4.4,7-9.6,9.1-15.4C309.8,55.1,309.4,48.8,306.3,42.4z M304.7,60.3
					c-2,5.5-4.9,10.3-8.6,14.5c-3.9,4.3-8.2,8.3-12.9,11.8s-9.8,6.8-15.1,9.6c-5.3,2.9-10.7,5.5-16.2,7.8
					c-5.5,2.3-10.9,4.5-16.2,6.4c-14.2,5.5-28.5,10.1-42.9,13.8c-14.5,3.7-29.2,6.8-44.1,9.4l5.3,1.7c4,1.4,7.8,3.5,11.3,6.2
					c3.5,2.7,6.3,5.7,8.3,9c2,3.4,3,7,2.9,11c-0.1,3.9-1.8,8-5.2,12.2c-2.7,3.2-6,5.9-9.6,8.2c-3.7,2.3-7.6,4.1-11.7,5.4
					c-4.1,1.4-8.3,2.4-12.5,3c-4.3,0.6-8.4,1-12.4,1.2c-1.4,0.1-2.8,0.1-4.2,0.1c-1.4,0-2.8,0-4.3-0.1c-2.9-0.2-5.7-0.6-8.4-1.3
					s-5.3-1.8-7.7-3.3c-2.4-1.4-4.3-3.5-5.8-6c-1.9-3.2-2.8-6.6-2.7-10.1c0.2-3.5,0.9-7,2.2-10.5s3-6.8,5.2-10.1
					c2.2-3.3,4.4-6.4,6.6-9.3c-2.7,0-5.6,0.2-8.7,0.6c-1.2,0.2-2.3,0.2-3.4,0.2c-1.8,0-3.4-0.2-5-0.6c-1.6-0.3-3-0.7-4.1-1.2
					c-1.1-0.5-2-1.6-2.7-3.4c-1.1-2.9-0.8-5,1-6.4c1.8-1.4,3.8-2.2,6-2.5c0.6-0.6,1.3-0.9,2.3-0.9c0.1,0,0.2,0,0.4,0
					c1.1,0.1,2.3,0.2,3.6,0.4c4-0.3,8-0.7,12.1-1.1c4-0.4,8.1-0.8,12.3-1.1c4.5-4.8,9.2-9.5,14-14c4.8-4.5,9.7-9,14.7-13.5
					c2.7-2.4,5.7-5.3,8.8-8.7c3.1-3.4,6.4-5.7,9.8-7c0.9-0.3,1.7-0.5,2.5-0.5s1.6,0.2,2.3,0.5c1.4,0.6,2.6,1.7,3.4,3
					c0.8,1.4,1.1,2.9,1,4.5c-0.2,1.6-1,3-2.4,4.1c-5.5,4.7-11,9.4-16.5,14.1c-5.5,4.7-11,9.7-16.3,14.8c20.1-2.9,39.8-7,59.2-12.4
					c19.4-5.4,37.9-12.7,55.6-22.1c2.6-1.3,5.7-3.1,9.3-5.4c3.6-2.3,7.2-4.9,10.7-7.6s6.7-5.7,9.5-8.8c2.8-3.1,4.7-6.2,5.5-9.3
					c0.9-3.1,0.5-6-1.2-8.8c-1.7-2.8-5.2-5.3-10.5-7.6c-6.8-2.9-13.9-4.9-21.5-6.1c-7.6-1.2-15.2-2-23-2.3c-3.1-0.1-6.2-0.2-9.4-0.2
					c-4.7,0-9.3,0.1-13.8,0.4c-7.7,0.5-15.2,0.9-22.4,1.4c-12.4,0.8-25.1,2.1-38.1,4c-13,1.9-25.8,4.5-38.4,8.1
					c-12.5,3.5-24.6,8.2-36.1,14s-21.9,13.1-31.2,22c-5,4.8-9,9.9-12.3,15.5c-3.3,5.6-5.3,11.4-6,17.2c-0.7,5.9,0.1,11.6,2.4,17.1
					c2.3,5.5,6.8,10.4,13.4,14.6c1.6,1.1,3.1,2.3,4.3,3.5c1.3,1.2,1.7,2.9,1.2,5.2c-0.5,2.2-1.8,3.9-3.9,4.8c-1,0.4-1.9,0.7-2.8,0.7
					c-1.1,0-2.1-0.3-3.2-0.9c-5.1-3.1-9.8-6.8-13.9-11.1s-7.3-9.3-9.5-15c-2.3-6.3-3.1-12.5-2.4-18.7c0.6-6.2,2.3-12.1,4.9-17.9
					c2.7-5.7,6-11.1,10.1-16c4.1-5,8.5-9.5,13.1-13.5c10.9-9,22.8-16.4,35.8-22.1c13-5.6,26.3-10.3,39.8-13.9
					c12.2-3.2,24.5-5.6,36.8-7.2c12.3-1.7,24.7-2.9,37.3-3.7c12-0.8,24.1-1.3,36.3-1.3c2,0,4,0,6.1,0c14.2,0.2,28.2,2.1,41.9,5.7
					c5.5,1.6,11,3.8,16.5,6.7c5.5,2.9,9.7,7,12.4,12.5C306.3,49.3,306.7,54.9,304.7,60.3z"/>
			</g>
		</g>
	</g>
</g>
</svg>
