<?xml version="1.0" encoding="utf-8"?>
<!-- Generator: Adobe Illustrator 25.1.0, SVG Export Plug-In . SVG Version: 6.00 Build 0)  -->
<svg version="1.1" id="Layer_1" xmlns="http://www.w3.org/2000/svg" xmlns:xlink="http://www.w3.org/1999/xlink" x="0px" y="0px"
	 viewBox="0 0 318.3 210.6" style="enable-background:new 0 0 318.3 210.6;" xml:space="preserve">
<style type="text/css">
	.st0{fill:none;}
</style>
<g>
	<path class="st0" d="M51,117.3v0.1v17.5h0.6v-21.7c-0.2,0-0.4,0.1-0.6,0.1V117.3z"/>
	<path d="M162.6,103.2h-29.1H105h-9.2v-1V85.4v-1.9V66.6V66h13.9H144h18.6h18.6h4.2c26.9-0.9,53.8-3.5,80.4-7.7c0,0-0.1-0.1-0.1-0.1
		c-11.4-12.4-31.7-18.3-55.5-18.3h-47.7h-59.9H56.6h-1.9h-1.9h-3.2v15.4h3.2h1.9h1.9v2.4v1.9v1.9v21.7v2.5v21.7v1.9v1.9v44.2h-1.9
		H53v-15.4h-0.1h-3.1h-1.9h-1.9v-22.4v-0.1v-8v-0.1c2.3-0.4,4.6-0.8,6.8-1.2V85.7c-2.3,0-4.6,0-6.8,0.1v-2.5v-0.1
		c2.3,0,4.6,0,6.8,0.1V60.9c-15.4-2.6-30.8-5.7-46-9.3c0,11.4,0,22.8,0,34.2h0v0.1v31.4v0.1v22.4H5H3.1H0v15.4h3.1H5h1.9h39.2h1.9
		h1.8v3.6v11.9h3.2h1.9h1.9h39.2h1.9h1.9h3.2v-15.4h-3.2h-1.9h-1.9v-28.9l66.8,0.1l47.7,0.1c23.5,0,43.7-4.2,55.1-15.8
		c-25.5-4-51.3-6.5-77.1-7.5H162.6z"/>
	<path d="M269,64.1c-15.8,2.5-31.9,4.5-47.7,5.9c-2.4,0.2-4.9,0.4-7.3,0.6c-0.1,0-13.5,1-28.4,1.6c-11,0.4-40.8,0.9-83.6,0.1V81
		l213.8-0.7V54.8c-14,3.3-28.4,6.2-42.8,8.6L269,64.1z"/>
	<rect x="318.3" y="51.6" width="0" height="0"/>
	<path d="M144.4,96.3c30.3,0,55.1,1,70.6,2.3c17.9,1.4,44.9,5,53.7,6.4c2.1,0.4,4.1,0.7,4.1,0.7c7.5,1.3,13.4,2.4,17.1,3.1V88.5
		l-188-0.6v9.1C117,96.5,131.2,96.3,144.4,96.3z"/>
</g>
</svg>
