<svg width="38" height="24" viewBox="0 0 38 24" fill="none" xmlns="http://www.w3.org/2000/svg">
<rect x="0.4375" y="0.5" width="37" height="23" rx="5" fill="#1B197B"/>
<path d="M16.8468 9.93L15.6318 13.5H14.8068L13.5968 9.93H14.3618L15.0318 12.055C15.0418 12.0917 15.0601 12.16 15.0868 12.26C15.1135 12.3567 15.1401 12.46 15.1668 12.57C15.1935 12.6767 15.2118 12.7667 15.2218 12.84C15.2318 12.7667 15.2485 12.6767 15.2718 12.57C15.2985 12.46 15.3235 12.3567 15.3468 12.26C15.3735 12.16 15.3935 12.0917 15.4068 12.055L16.0818 9.93H16.8468ZM18.3938 13.5H16.7688V13.07L17.2038 12.87V10.56L16.7688 10.36V9.93H18.3938V10.36L17.9588 10.56V12.87L18.3938 13.07V13.5ZM20.8671 12.51C20.8671 12.8267 20.7521 13.08 20.5221 13.27C20.2955 13.4567 19.9721 13.55 19.5521 13.55C19.1755 13.55 18.8388 13.4783 18.5421 13.335V12.63C18.7121 12.7033 18.8871 12.7717 19.0671 12.835C19.2505 12.895 19.4321 12.925 19.6121 12.925C19.7988 12.925 19.9305 12.89 20.0071 12.82C20.0871 12.7467 20.1271 12.655 20.1271 12.545C20.1271 12.455 20.0955 12.3783 20.0321 12.315C19.9721 12.2517 19.8905 12.1933 19.7871 12.14C19.6838 12.0833 19.5655 12.0233 19.4321 11.96C19.3488 11.92 19.2588 11.8733 19.1621 11.82C19.0655 11.7633 18.9721 11.695 18.8821 11.615C18.7955 11.5317 18.7238 11.4317 18.6671 11.315C18.6105 11.1983 18.5821 11.0583 18.5821 10.895C18.5821 10.575 18.6905 10.3267 18.9071 10.15C19.1238 9.97 19.4188 9.88 19.7921 9.88C19.9788 9.88 20.1555 9.90167 20.3221 9.945C20.4888 9.98833 20.6655 10.05 20.8521 10.13L20.6071 10.72C20.4438 10.6533 20.2971 10.6017 20.1671 10.565C20.0371 10.5283 19.9038 10.51 19.7671 10.51C19.6238 10.51 19.5138 10.5433 19.4371 10.61C19.3605 10.6767 19.3221 10.7633 19.3221 10.87C19.3221 10.9967 19.3788 11.0967 19.4921 11.17C19.6055 11.2433 19.7738 11.3333 19.9971 11.44C20.1805 11.5267 20.3355 11.6167 20.4621 11.71C20.5921 11.8033 20.6921 11.9133 20.7621 12.04C20.8321 12.1667 20.8671 12.3233 20.8671 12.51ZM23.461 13.5L23.201 12.65H21.901L21.641 13.5H20.826L22.086 9.915H23.011L24.276 13.5H23.461ZM23.021 12.015L22.761 11.185C22.7444 11.1283 22.7227 11.0567 22.696 10.97C22.6694 10.8833 22.6427 10.795 22.616 10.705C22.5894 10.615 22.5677 10.5367 22.551 10.47C22.5344 10.5367 22.511 10.62 22.481 10.72C22.4544 10.8167 22.4277 10.91 22.401 11C22.3777 11.0867 22.3594 11.1483 22.346 11.185L22.091 12.015H23.021Z" fill="white"/>
</svg>
