<?xml version="1.0" encoding="utf-8"?>
<!-- Generator: Adobe Illustrator 25.1.0, SVG Export Plug-In . SVG Version: 6.00 Build 0)  -->
<svg version="1.1" id="Layer_1" xmlns="http://www.w3.org/2000/svg" xmlns:xlink="http://www.w3.org/1999/xlink" x="0px" y="0px"
	 viewBox="0 0 480 800" style="enable-background:new 0 0 480 800;" xml:space="preserve">
<style type="text/css">
	.st0{fill:#FFCE00;}
	.st1{fill:#1D1D1D;}
	.st2{clip-path:url(#SVGID_2_);fill:#1D1D1D;}
	.st3{clip-path:url(#SVGID_4_);fill:#1C1C1C;}
	.st4{clip-path:url(#SVGID_4_);fill:none;stroke:#1C1C1C;stroke-width:2;stroke-miterlimit:10;}
</style>
<rect y="0" class="st0" width="480" height="800"/>
<g>
	<path class="st1" d="M470,10v780H10V10H470 M480,0H0v800h480V0L480,0z"/>
</g>
<g>
	<defs>
		<rect id="SVGID_1_" x="399.3" y="35.9" width="46" height="43.5"/>
	</defs>
	<clipPath id="SVGID_2_">
		<use xlink:href="#SVGID_1_"  style="overflow:visible;"/>
	</clipPath>
	<path class="st2" d="M422.7,44.2c0-1.7-0.4-3.1-1.2-4c-0.8-1-1.9-1.5-3.2-1.5c-1.3,0-2.3,0.4-3.1,1.2c-0.8,0.8-1.2,1.9-1.2,3.2
		c0,1.1,0.4,2.4,1.1,3.8c0.7,1.4,1.8,3.2,3.3,5.2c1.5-1,2.6-2.2,3.3-3.6C422.4,47.1,422.7,45.7,422.7,44.2 M422.9,72.2
		c-1.6-2-3.5-4.3-5.7-6.9c-2.2-2.6-4.2-5.1-6.1-7.4c-1,1-1.8,2.2-2.2,3.5c-0.5,1.4-0.7,2.7-0.7,4.1c0,2.6,0.8,4.7,2.5,6.3
		c1.7,1.6,3.8,2.5,6.3,2.5c1.2,0,2.2-0.2,3.1-0.5C421,73.5,421.9,73,422.9,72.2 M445.3,78.4h-17.2c-0.5-0.5-1.1-1.2-1.8-2.1
		c-0.7-0.8-1.4-1.6-1.9-2.3c-2.1,1.9-4.1,3.3-6.2,4.1c-2.1,0.8-4.2,1.2-6.5,1.2c-3.6,0-6.6-1-8.9-2.9c-2.3-2-3.5-4.5-3.5-7.7
		c0-1.6,0.2-2.9,0.6-4.1c0.4-1.1,1.1-2.3,2-3.4c0.9-1.1,2-2.1,3.3-2.9c1.3-0.9,2.8-1.7,4.5-2.4c-1.8-2.2-3-4.1-3.7-5.7
		c-0.7-1.6-1-3.2-1-4.8c0-2.8,1.2-5.1,3.5-6.9c2.3-1.8,5.1-2.7,8.4-2.7c3,0,5.5,0.7,7.4,2.2c1.9,1.4,2.8,3.3,2.8,5.7
		c0,2.1-0.6,3.9-1.7,5.5c-1.1,1.6-3,3.2-5.6,4.8c2.1,2.7,3.8,4.8,4.9,6.1c1.2,1.4,2.7,3.2,4.6,5.4c1.2-1.8,2.1-3.5,2.8-5
		c0.6-1.5,0.9-2.8,0.9-3.8c0-0.6-0.4-1.1-1.3-1.4c-0.9-0.4-2.1-0.7-3.7-1v-2.2h16.3v2.2c-1.8,0.2-3.1,0.4-3.9,0.6
		c-0.8,0.3-1.7,0.8-2.5,1.7c-0.4,0.4-0.8,1-1.3,1.9c-0.5,0.9-1,1.7-1.5,2.6c-0.6,1-1.2,2-1.8,3.1c-0.6,1.1-1.4,2.2-2.3,3.4
		c1.8,2.1,3.3,3.7,4.4,4.7c1.2,1,2.1,1.8,2.8,2.1c0.8,0.4,1.9,0.8,3.2,1.1c1.3,0.3,2.6,0.4,3.8,0.5V78.4z"/>
</g>
<g>
	<defs>
		<rect id="SVGID_3_" x="34" y="36" width="411" height="728"/>
	</defs>
	<clipPath id="SVGID_4_">
		<use xlink:href="#SVGID_3_"  style="overflow:visible;"/>
	</clipPath>
	<path class="st3" d="M442,708.4c0-28.1-23-51.1-51.1-51.1h-81.5c-28.1,0-51.1,23-51.1,51.1s23,51.1,51.1,51.1h81.5
		c10.7,0,20.7-3.3,28.9-9c1.4,1.3,3,2.7,5,4c6.7,4.3,13.4,4.9,17.1,5c-2.2-2.9-5.3-7.6-7.1-14c-0.9-3.2-1.4-6.2-1.5-8.7
		C438.8,728.6,442,718.9,442,708.4z"/>
	<path class="st4" d="M146.7,211.9h-59c-28.1,0-51.1,23-51.1,51.1v0c0,9.8,2.8,19,7.6,26.8h0c-0.1,2.8-0.5,6.4-1.6,10.3
		c-1.8,6.4-4.9,11.1-7.1,14c3.7-0.1,10.5-0.7,17.1-5c2.3-1.4,4.1-3,5.5-4.5c8.4,6,18.6,9.5,29.6,9.5h59c28.1,0,51.1-23,51.1-51.1v0
		C197.8,234.9,174.8,211.9,146.7,211.9z M307.8,100.2H87.7c-28.1,0-51.1,23-51.1,51.1c0,9.8,2.8,19,7.6,26.8h0
		c-0.1,2.8-0.5,6.4-1.6,10.3c-1.8,6.4-4.9,11.1-7.1,14c3.7-0.1,10.5-0.7,17.1-5c2.3-1.4,4.1-3,5.5-4.5c8.4,6,18.6,9.5,29.6,9.5
		h220.1c28.1,0,51.1-23,51.1-51.1C358.9,123.2,335.9,100.2,307.8,100.2z"/>
	<path class="st4" d="M146.7,435.9h-59c-28.1,0-51.1,23-51.1,51.1v0c0,9.8,2.8,19,7.6,26.8h0c-0.1,2.8-0.5,6.4-1.6,10.3
		c-1.8,6.4-4.9,11.1-7.1,14c3.7-0.1,10.5-0.7,17.1-5c2.3-1.4,4.1-3,5.5-4.5c8.4,6,18.6,9.5,29.6,9.5h59c28.1,0,51.1-23,51.1-51.1v0
		C197.8,458.9,174.8,435.9,146.7,435.9z M307.8,324.2H87.7c-28.1,0-51.1,23-51.1,51.1c0,9.8,2.8,19,7.6,26.8h0
		c-0.1,2.8-0.5,6.4-1.6,10.3c-1.8,6.4-4.9,11.1-7.1,14c3.7-0.1,10.5-0.7,17.1-5c2.3-1.4,4.1-3,5.5-4.5c8.4,6,18.6,9.5,29.6,9.5
		h220.1c28.1,0,51.1-23,51.1-51.1C358.9,347.2,335.9,324.2,307.8,324.2z M307.8,547.2H87.7c-28.1,0-51.1,23-51.1,51.1
		c0,9.8,2.8,19,7.6,26.8h0c-0.1,2.8-0.5,6.4-1.6,10.3c-1.8,6.4-4.9,11.1-7.1,14c3.7-0.1,10.5-0.7,17.1-5c2.3-1.4,4.1-3,5.5-4.5
		c8.4,6,18.6,9.5,29.6,9.5h220.1c28.1,0,51.1-23,51.1-51.1C358.9,570.2,335.9,547.2,307.8,547.2z"/>
</g>
</svg>
