<svg xmlns="http://www.w3.org/2000/svg" width="101" height="100" fill="none" viewBox="0 0 101 100">
    <path fill="#fff" stroke="url(#paint0_linear)" stroke-width="3" d="M2 50c0-12.537.002-21.812.772-28.74.771-6.94 2.285-11.196 5.039-13.95 2.753-2.753 7.009-4.267 13.948-5.038C28.688 1.502 37.963 1.5 50.5 1.5c12.537 0 21.812.002 28.74.772 6.94.771 11.196 2.285 13.95 5.039 2.753 2.753 4.267 7.009 5.038 13.948C98.998 28.188 99 37.463 99 50c0 12.537-.002 21.812-.772 28.74-.771 6.94-2.285 11.196-5.039 13.95-2.753 2.753-7.009 4.267-13.948 5.038-6.929.77-16.204.772-28.741.772-12.537 0-21.812-.002-28.74-.772-6.94-.771-11.196-2.285-13.95-5.039-2.753-2.753-4.267-7.009-5.038-13.948C2.002 71.812 2 62.537 2 50z"/>
    <path fill="#333" d="M59.027 24.181L50.5 16.895l-8.526 7.181-2-.737 9.474-9.707c.21-.316.631-.632 1.052-.632.422 0 .843.316.948.632l9.474 9.707-1.895.842z"/>
    <path fill="url(#paint1_linear)" d="M48.395 35.339H33.658c-.632 0-1.053-.421-1.053-1.053V23.76c0-.632.422-1.053 1.053-1.053h14.737c.631 0 1.053.421 1.053 1.053v10.526c0 .632-.422 1.053-1.053 1.053z"/>
    <path fill="url(#paint2_linear)" d="M67.342 35.339H52.605c-.631 0-1.052-.421-1.052-1.053V23.76c0-.632.42-1.053 1.052-1.053h14.737c.632 0 1.053.421 1.053 1.053v10.526c0 .632-.421 1.053-1.053 1.053z"/>
    <path fill="#333" d="M47.343 39.55H34.71v-4.211h2.105v2.105h8.421v-2.105h2.105v4.21z"/>
    <path fill="#333" d="M50.5 60.602c-1.684 0-3.263-.631-4.421-1.79l-3.684-3.684 1.473-1.473 3.684 3.684c.843.737 1.895 1.158 2.948 1.158 2.316 0 4.21-1.895 4.21-4.21 0-1.159-.42-2.106-1.263-2.948l-6.737-6.737c-.947-.947-1.579-2.316-1.579-3.684v-2.421h2.106v2.42c0 .843.315 1.685.947 2.211l6.737 6.737c1.263 1.263 1.895 2.842 1.895 4.421 0 3.474-2.843 6.316-6.316 6.316z"/>
    <path fill="#333" d="M41.868 63.76c-2.842 0-5.579-1.369-7.263-3.684l-.842-1.053c-2.105-2.842-3.263-6.316-3.263-9.895 0-3.684 1.263-7.368 3.579-10.316l.842-1.052 1.684 1.263-.842 1.053c-2 2.631-3.158 5.789-3.158 9.052 0 3.053 1.053 6.105 2.842 8.632l.842 1.052c1.369 1.79 3.369 2.843 5.58 2.843 1.894 0 3.684-.737 4.947-2l.842-.843 1.474 1.474-.843.842c-1.684 1.684-4 2.632-6.42 2.632zM66.29 39.55H53.658v-4.211h2.105v2.105h8.422v-2.105h2.105v4.21zM57.156 53.578l-3.051 3.052 1.488 1.488 3.052-3.051-1.489-1.489z"/>
    <path fill="#333" d="M51.237 47.655l-1.474-1.474 2.948-2.947c.631-.632.947-1.369.947-2.21v-2.527h2.105v2.42c0 1.37-.526 2.738-1.579 3.685l-2.947 3.053zM59.132 63.76c-2.421 0-4.737-.947-6.421-2.632l-.842-.842 1.473-1.473.842.842c1.369 1.368 3.053 2 4.948 2 2.21 0 4.316-1.053 5.579-2.842l.842-1.053c1.79-2.421 2.842-5.474 2.842-8.632 0-3.263-1.158-6.42-3.158-8.947l-.842-1.053 1.684-1.263.842 1.053c2.316 2.947 3.58 6.526 3.58 10.316 0 3.579-1.159 7.052-3.264 9.894l-.842 1.053c-1.684 2.21-4.421 3.579-7.263 3.579z"/>
    <path fill="#333" d="M62.922 44.286c-.316-.526-.632-.947-.948-1.368l1.684-1.264c.421.527.842 1.158 1.158 1.685l-1.895.947zM63.026 57.549l-1.684-1.263.842-1.053c1.263-1.79 2-3.894 2-6.105 0-1.158-.21-2.21-.526-3.368l2-.737c.42 1.263.736 2.631.736 4 0 2.631-.842 5.263-2.42 7.368l-.948 1.158zM38.921 22.707h-2.105V35.34h2.105V22.707zM64.185 22.707H62.08V35.34h2.105V22.707z"/>
    <path fill="#333" d="M68.394 27.97h-5.263v2.106h5.263v-2.105zM37.869 27.97h-5.264v2.106h5.264v-2.105zM38.079 44.286l-1.895-1.052c.316-.632.737-1.158 1.158-1.684l1.684 1.263c-.316.42-.631.947-.947 1.473zM37.974 57.549l-.842-1.053c-1.579-2.105-2.421-4.736-2.421-7.368 0-1.368.21-2.737.737-4l1.895.737c-.316 1.052-.527 2.105-.527 3.263 0 2.21.737 4.316 2 6.105l.842 1.053-1.684 1.263z"/>
    <path fill="#BDBDBD" d="M39.623 82.8h7.546v2.996h1.148v-3.92h-8.694v.924zm1.372-6.944H47.1v1.456h-6.104v-1.456zm3.626 3.864v-1.498h3.612v-4.69H47.1v1.428h-6.104v-1.428h-1.134v4.69h3.612v1.498H38.35v.938h11.368v-.938h-5.096zm16.925-6.468h-1.148v7.49h1.148v-7.49zm-2.716 5.81c-1.862-.63-3.164-2.24-3.164-4.032v-1.232h-1.148v1.232c0 1.89-1.274 3.654-3.164 4.354l.588.91c1.484-.56 2.632-1.764 3.164-3.262.574 1.358 1.708 2.422 3.15 2.94l.574-.91zm-1.428 5.796c-1.918 0-3.08-.546-3.08-1.456 0-.924 1.162-1.47 3.08-1.47 1.904 0 3.052.546 3.052 1.47 0 .91-1.148 1.456-3.052 1.456zm0-3.822c-2.618 0-4.214.854-4.214 2.366 0 1.498 1.596 2.366 4.214 2.366 2.59 0 4.2-.868 4.2-2.366 0-1.512-1.61-2.366-4.2-2.366z"/>
    <defs>
        <linearGradient id="paint0_linear" x1="4.488" x2="153.697" y1="-6.024" y2="59.035" gradientUnits="userSpaceOnUse">
            <stop stop-color="#0ACF83"/>
            <stop offset="1" stop-color="#10FF26"/>
        </linearGradient>
        <linearGradient id="paint1_linear" x1="33.277" x2="55.63" y1="21.946" y2="34.941" gradientUnits="userSpaceOnUse">
            <stop stop-color="#0ACF83"/>
            <stop offset="1" stop-color="#10FF26"/>
        </linearGradient>
        <linearGradient id="paint2_linear" x1="52.224" x2="74.577" y1="21.946" y2="34.941" gradientUnits="userSpaceOnUse">
            <stop stop-color="#0ACF83"/>
            <stop offset="1" stop-color="#10FF26"/>
        </linearGradient>
    </defs>
</svg>
