<svg xmlns="http://www.w3.org/2000/svg" width="101" height="100" fill="none" viewBox="0 0 101 100">
    <path fill="#fff" stroke="url(#paint0_linear)" stroke-width="3" d="M2 50c0-12.537.002-21.812.772-28.74.771-6.94 2.285-11.196 5.039-13.95 2.753-2.753 7.009-4.267 13.948-5.038C28.688 1.502 37.963 1.5 50.5 1.5c12.537 0 21.812.002 28.74.772 6.94.771 11.196 2.285 13.95 5.039 2.753 2.753 4.267 7.009 5.038 13.948C98.998 28.188 99 37.463 99 50c0 12.537-.002 21.812-.772 28.74-.771 6.94-2.285 11.196-5.039 13.95-2.753 2.753-7.009 4.267-13.948 5.038-6.929.77-16.204.772-28.741.772-12.537 0-21.812-.002-28.74-.772-6.94-.771-11.196-2.285-13.95-5.039-2.753-2.753-4.267-7.009-5.038-13.948C2.002 71.812 2 62.537 2 50z"/>
    <path fill="url(#paint1_linear)" d="M38.71 41c4.81 0 8.708-3.943 8.708-8.806 0-4.864-3.899-8.807-8.709-8.807S30 27.33 30 32.194C30 37.057 33.9 41 38.71 41z"/>
    <path fill="#333" d="M58.941 62H47.083c-1.675 0-3.215-.949-4.086-2.371l-3.752-6.706c-.335-.61-.536-1.22-.536-1.897 0-2.168 1.742-3.862 3.819-3.862h15.475c.938 0 1.742-.61 1.943-1.558l1.608-6.57h6.03l-4.087 19.238C63.027 60.442 61.085 62 58.94 62zM42.528 48.452c-1.407 0-2.48 1.151-2.48 2.506 0 .474.135.88.336 1.287l3.752 6.707c.602 1.016 1.741 1.693 2.947 1.693h11.858c1.54 0 2.948-1.152 3.283-2.642l3.818-17.68h-3.35l-1.406 5.554c-.402 1.49-1.742 2.575-3.283 2.575H42.528z"/>
    <path fill="#333" d="M63.698 39.78l-1.34-.27L66.98 20H71l-4.288 19.78-1.273-.27 3.885-18.155h-1.273L63.698 39.78zM60.817 52.516h-3.35v1.355h3.35v-1.355zM56.127 52.516H43.398v1.355h12.73v-1.355zM60.147 55.226H49.428v1.355h10.72v-1.355zM48.088 55.226h-3.35v1.355h3.35v-1.355zM39.982 62h-2.546l-.938-10.094c-.268-3.184-2.076-6.029-4.823-7.654l-.335-.136v-3.794h14.738v3.794l-.335.203c-1.54.88-2.813 2.168-3.684 3.726v.136l-1.273-.407.134-.339c.938-1.693 2.278-3.116 3.886-4.132v-1.626H32.68v1.626c2.947 1.83 4.89 4.945 5.158 8.468l.804 8.874h.134l.67-7.587 1.34.068-.067.813-.737 8.06z"/>
    <path fill="#333" d="M45.408 43.032H32.01v1.355h13.398v-1.355zM38.709 26.774c.37 0 .67-.303.67-.677 0-.374-.3-.678-.67-.678-.37 0-.67.304-.67.678 0 .374.3.677.67.677zM38.709 29.484c.37 0 .67-.303.67-.677 0-.375-.3-.678-.67-.678-.37 0-.67.303-.67.678 0 .374.3.677.67.677zM38.709 32.871c.37 0 .67-.303.67-.678 0-.374-.3-.677-.67-.677-.37 0-.67.303-.67.678 0 .374.3.677.67.677zM36.364 30.5c.37 0 .67-.303.67-.677 0-.374-.3-.678-.67-.678-.37 0-.67.304-.67.678 0 .374.3.677.67.677zM35.36 32.871c.37 0 .67-.303.67-.678 0-.374-.3-.677-.67-.677-.37 0-.67.303-.67.678 0 .374.3.677.67.677zM36.364 35.242c.37 0 .67-.303.67-.677 0-.374-.3-.678-.67-.678-.37 0-.67.303-.67.678 0 .374.3.677.67.677zM38.709 36.258c.37 0 .67-.303.67-.677 0-.374-.3-.678-.67-.678-.37 0-.67.304-.67.678 0 .374.3.677.67.677zM41.054 35.242c.37 0 .67-.303.67-.677 0-.374-.3-.678-.67-.678-.37 0-.67.303-.67.678 0 .374.3.677.67.677zM42.059 32.871c.37 0 .67-.303.67-.678 0-.374-.3-.677-.67-.677-.37 0-.67.303-.67.678 0 .374.3.677.67.677zM41.054 30.5c.37 0 .67-.303.67-.677 0-.374-.3-.678-.67-.678-.37 0-.67.304-.67.678 0 .374.3.677.67.677zM36.297 26.571c.201.339.067.745-.267.948-.336.204-.738.068-.938-.27-.134-.34-.067-.746.267-.949.335-.135.737-.068.938.271zM33.819 28.535c.334.204.401.61.267.949-.2.338-.602.406-.937.27-.335-.203-.402-.609-.268-.948.2-.338.603-.406.938-.27zM32.68 32.871c.37 0 .67-.303.67-.678 0-.374-.3-.677-.67-.677-.37 0-.67.303-.67.678 0 .374.3.677.67.677zM33.149 34.632c.335-.203.736-.067.938.271.2.339.066.745-.269.949-.334.203-.736.067-.937-.271-.134-.339-.067-.745.268-.949zM35.092 37.139c.2-.34.602-.407.938-.271.334.135.401.61.267.948-.2.339-.602.406-.938.271-.334-.203-.401-.61-.267-.948zM38.709 38.968c.37 0 .67-.304.67-.678 0-.374-.3-.677-.67-.677-.37 0-.67.303-.67.677 0 .374.3.678.67.678zM41.12 37.816c-.2-.339-.066-.745.269-.948.335-.204.737-.068.938.27.2.34.067.746-.268.95-.335.134-.737.067-.938-.272zM43.6 35.852c-.335-.204-.402-.61-.268-.949.134-.338.603-.406.938-.27.335.203.402.609.268.948-.201.338-.603.406-.938.27zM44.738 32.871c.37 0 .67-.303.67-.678 0-.374-.3-.677-.67-.677-.37 0-.67.303-.67.678 0 .374.3.677.67.677zM44.27 29.755c-.335.203-.737.068-.938-.271-.201-.339-.067-.745.268-.949.335-.203.737-.067.938.271.134.34.067.746-.268.949zM42.327 27.248c-.201.34-.603.407-.938.271-.335-.135-.402-.61-.268-.948.2-.339.603-.406.938-.271.335.203.402.61.268.948zM58.941 59.29H47.083c-.737 0-1.407-.406-1.742-1.016l-3.751-6.706c-.134-.203-.201-.407-.201-.61 0-.677.536-1.151 1.139-1.151h15.475c.804 0 1.54-.204 2.278-.61l.134-.068h2.278l-1.876 8.536c-.134.948-.938 1.625-1.876 1.625zm-16.079-8.129l3.618 6.436c.134.203.335.339.603.339h11.858c.335 0 .603-.204.67-.542l1.474-6.91h-.268c-.871.474-1.81.677-2.747.677H42.862z"/>
    <path fill="#BDBDBD" d="M48.037 75.776c.238-1.232.238-2.184.238-2.982v-.812h-8.554v.924h7.42c0 .756-.014 1.61-.238 2.758l1.134.112zm-7.154 5.796h7.448v-3.01h-8.624v.91h7.476v1.26H39.75v3.15h8.89v-.91h-7.756v-1.4zm3.29-5.082v-2.184h-1.148v2.184h-4.634v.91h11.312v-.91h-5.53zm14.293 1.54h-3.122v-4.368h3.122v4.368zm-4.27 0h-1.918v.938h9.254v-.938h-1.918v-4.368h1.946v-.924h-9.31v.924h1.946v4.368zm-2.954 3.444v.952h11.382v-.952H51.242z"/>
    <defs>
        <linearGradient id="paint0_linear" x1="4.488" x2="153.697" y1="-6.024" y2="59.035" gradientUnits="userSpaceOnUse">
            <stop stop-color="#0ACF83"/>
            <stop offset="1" stop-color="#10FF26"/>
        </linearGradient>
        <linearGradient id="paint1_linear" x1="30.695" x2="56.776" y1="22.326" y2="33.573" gradientUnits="userSpaceOnUse">
            <stop stop-color="#0ACF83"/>
            <stop offset="1" stop-color="#10FF26"/>
        </linearGradient>
    </defs>
</svg>
