<svg width="33" height="34" viewBox="0 0 33 34" fill="none" xmlns="http://www.w3.org/2000/svg">
<path d="M6.8484 17.1345C10.6183 17.1345 13.6743 14.0443 13.6743 10.2323C13.6743 6.4203 10.6183 3.33008 6.8484 3.33008C3.07854 3.33008 0.0224609 6.4203 0.0224609 10.2323C0.0224609 14.0443 3.07854 17.1345 6.8484 17.1345Z" fill="url(#paint0_linear)"/>
<path d="M22.7058 33.5935H13.412C12.0994 33.5935 10.8917 32.8502 10.2091 31.7353L7.26869 26.479C7.00615 26.0011 6.84863 25.5233 6.84863 24.9923C6.84863 23.2933 8.21382 21.966 9.84154 21.966H21.9707C22.7058 21.966 23.3359 21.4881 23.4934 20.7448L24.7536 15.5947H29.4792L26.2763 30.6734C25.9087 32.3724 24.386 33.5935 22.7058 33.5935ZM9.84154 22.9748C8.73889 22.9748 7.89878 23.8774 7.89878 24.9392C7.89878 25.3109 8.00379 25.6295 8.16131 25.948L11.1017 31.2043C11.5743 32.0007 12.4669 32.5317 13.412 32.5317H22.7058C23.9135 32.5317 25.0161 31.6291 25.2787 30.461L28.2716 16.6035H25.6462L24.5436 20.9572C24.2285 22.1253 23.1784 22.9748 21.9707 22.9748H9.84154Z" fill="#333333"/>
<path d="M26.4339 16.1792L25.3838 15.9668L29.0068 0.675781H32.1572L28.7968 16.1792L27.7991 15.9668L30.8445 1.73766H29.8469L26.4339 16.1792Z" fill="#333333"/>
<path d="M24.1761 26.1611H21.5508V27.223H24.1761V26.1611Z" fill="#333333"/>
<path d="M20.5003 26.1611H10.5239V27.223H20.5003V26.1611Z" fill="#333333"/>
<path d="M23.6511 28.2842H15.25V29.3461H23.6511V28.2842Z" fill="#333333"/>
<path d="M14.1996 28.2842H11.5742V29.3461H14.1996V28.2842Z" fill="#333333"/>
<path d="M7.84618 33.5935H5.85091L5.11581 25.6826C4.90578 23.1872 3.48809 20.9572 1.33529 19.683L1.07275 19.5768V16.6035H12.6243V19.5768L12.3618 19.7361C11.1541 20.4263 10.1565 21.4351 9.47391 22.6562V22.7624L8.47627 22.4438L8.58128 22.1784C9.31638 20.851 10.3665 19.7361 11.6267 18.9396V17.6654H2.1229V18.9396C4.43321 20.3732 5.95592 22.8155 6.16595 25.5764L6.79604 32.5317H6.90105L7.42613 26.5852L8.47627 26.6383L8.42376 27.2754L7.84618 33.5935Z" fill="#333333"/>
<path d="M12.0991 18.7275H1.59766V19.7894H12.0991V18.7275Z" fill="#333333"/>
<path d="M6.8488 5.9857C7.13879 5.9857 7.37387 5.748 7.37387 5.45477C7.37387 5.16154 7.13879 4.92383 6.8488 4.92383C6.55881 4.92383 6.32373 5.16154 6.32373 5.45477C6.32373 5.748 6.55881 5.9857 6.8488 5.9857Z" fill="#333333"/>
<path d="M6.8488 8.10875C7.13879 8.10875 7.37387 7.87104 7.37387 7.57781C7.37387 7.28458 7.13879 7.04688 6.8488 7.04688C6.55881 7.04688 6.32373 7.28458 6.32373 7.57781C6.32373 7.87104 6.55881 8.10875 6.8488 8.10875Z" fill="#333333"/>
<path d="M6.8488 10.763C7.13879 10.763 7.37387 10.5253 7.37387 10.2321C7.37387 9.93888 7.13879 9.70117 6.8488 9.70117C6.55881 9.70117 6.32373 9.93888 6.32373 10.2321C6.32373 10.5253 6.55881 10.763 6.8488 10.763Z" fill="#333333"/>
<path d="M5.01091 8.90563C5.3009 8.90563 5.53598 8.66792 5.53598 8.37469C5.53598 8.08146 5.3009 7.84375 5.01091 7.84375C4.72092 7.84375 4.48584 8.08146 4.48584 8.37469C4.48584 8.66792 4.72092 8.90563 5.01091 8.90563Z" fill="#333333"/>
<path d="M4.22331 10.763C4.5133 10.763 4.74839 10.5253 4.74839 10.2321C4.74839 9.93888 4.5133 9.70117 4.22331 9.70117C3.93332 9.70117 3.69824 9.93888 3.69824 10.2321C3.69824 10.5253 3.93332 10.763 4.22331 10.763Z" fill="#333333"/>
<path d="M5.01091 12.6224C5.3009 12.6224 5.53598 12.3847 5.53598 12.0915C5.53598 11.7983 5.3009 11.5605 5.01091 11.5605C4.72092 11.5605 4.48584 11.7983 4.48584 12.0915C4.48584 12.3847 4.72092 12.6224 5.01091 12.6224Z" fill="#333333"/>
<path d="M6.8488 13.4183C7.13879 13.4183 7.37387 13.1806 7.37387 12.8874C7.37387 12.5942 7.13879 12.3564 6.8488 12.3564C6.55881 12.3564 6.32373 12.5942 6.32373 12.8874C6.32373 13.1806 6.55881 13.4183 6.8488 13.4183Z" fill="#333333"/>
<path d="M8.6862 12.6224C8.97619 12.6224 9.21128 12.3847 9.21128 12.0915C9.21128 11.7983 8.97619 11.5605 8.6862 11.5605C8.39622 11.5605 8.16113 11.7983 8.16113 12.0915C8.16113 12.3847 8.39622 12.6224 8.6862 12.6224Z" fill="#333333"/>
<path d="M9.4738 10.763C9.76379 10.763 9.99888 10.5253 9.99888 10.2321C9.99888 9.93888 9.76379 9.70117 9.4738 9.70117C9.18381 9.70117 8.94873 9.93888 8.94873 10.2321C8.94873 10.5253 9.18381 10.763 9.4738 10.763Z" fill="#333333"/>
<path d="M8.6862 8.90563C8.97619 8.90563 9.21128 8.66792 9.21128 8.37469C9.21128 8.08146 8.97619 7.84375 8.6862 7.84375C8.39622 7.84375 8.16113 8.08146 8.16113 8.37469C8.16113 8.66792 8.39622 8.90563 8.6862 8.90563Z" fill="#333333"/>
<path d="M4.95824 5.82615C5.11576 6.09162 5.01075 6.41018 4.74821 6.56946C4.48568 6.72875 4.17063 6.62256 4.01311 6.35709C3.9081 6.09162 3.9606 5.77306 4.22314 5.61378C4.48568 5.50759 4.80072 5.56068 4.95824 5.82615Z" fill="#333333"/>
<path d="M3.0153 7.36573C3.27784 7.52501 3.33034 7.84357 3.22533 8.10904C3.06781 8.37451 2.75277 8.42761 2.49023 8.32142C2.22769 8.16214 2.17519 7.84357 2.2802 7.5781C2.43772 7.31263 2.75277 7.25954 3.0153 7.36573Z" fill="#333333"/>
<path d="M2.12273 10.763C2.41272 10.763 2.6478 10.5253 2.6478 10.2321C2.6478 9.93888 2.41272 9.70117 2.12273 9.70117C1.83274 9.70117 1.59766 9.93888 1.59766 10.2321C1.59766 10.5253 1.83274 10.763 2.12273 10.763Z" fill="#333333"/>
<path d="M2.49023 12.1442C2.75277 11.9849 3.06781 12.0911 3.22533 12.3565C3.38285 12.622 3.27784 12.9406 3.0153 13.0999C2.75277 13.2591 2.43772 13.153 2.2802 12.8875C2.17519 12.622 2.22769 12.3035 2.49023 12.1442Z" fill="#333333"/>
<path d="M4.01311 14.1084C4.17063 13.8429 4.48568 13.7898 4.74821 13.896C5.01075 14.0022 5.06326 14.3738 4.95824 14.6393C4.80072 14.9048 4.48568 14.9579 4.22314 14.8517C3.9606 14.6924 3.9081 14.3738 4.01311 14.1084Z" fill="#333333"/>
<path d="M6.8488 15.5423C7.13879 15.5423 7.37387 15.3046 7.37387 15.0114C7.37387 14.7182 7.13879 14.4805 6.8488 14.4805C6.55881 14.4805 6.32373 14.7182 6.32373 15.0114C6.32373 15.3046 6.55881 15.5423 6.8488 15.5423Z" fill="#333333"/>
<path d="M8.73856 14.6394C8.58104 14.374 8.68605 14.0554 8.94859 13.8961C9.21113 13.7368 9.52617 13.843 9.68369 14.1085C9.84121 14.374 9.7362 14.6925 9.47366 14.8518C9.21113 14.958 8.89608 14.9049 8.73856 14.6394Z" fill="#333333"/>
<path d="M10.6816 13.0997C10.4191 12.9405 10.3666 12.6219 10.4716 12.3564C10.5766 12.091 10.9442 12.0379 11.2067 12.144C11.4692 12.3033 11.5218 12.6219 11.4167 12.8874C11.2592 13.1528 10.9442 13.2059 10.6816 13.0997Z" fill="#333333"/>
<path d="M11.5744 10.763C11.8644 10.763 12.0995 10.5253 12.0995 10.2321C12.0995 9.93888 11.8644 9.70117 11.5744 9.70117C11.2844 9.70117 11.0493 9.93888 11.0493 10.2321C11.0493 10.5253 11.2844 10.763 11.5744 10.763Z" fill="#333333"/>
<path d="M11.2066 8.32154C10.944 8.48082 10.629 8.37464 10.4715 8.10917C10.314 7.8437 10.419 7.52513 10.6815 7.36585C10.944 7.20657 11.2591 7.31276 11.4166 7.57823C11.5216 7.8437 11.4691 8.16226 11.2066 8.32154Z" fill="#333333"/>
<path d="M9.68383 6.35709C9.5263 6.62256 9.21126 6.67565 8.94873 6.56946C8.68619 6.46328 8.63368 6.09162 8.7387 5.82615C8.89622 5.56068 9.21126 5.50759 9.4738 5.61378C9.73633 5.77306 9.78884 6.09162 9.68383 6.35709Z" fill="#333333"/>
<path d="M22.7056 31.4699H13.4118C12.8343 31.4699 12.3092 31.1514 12.0467 30.6735L9.10625 25.4172C9.00124 25.258 8.94873 25.0987 8.94873 24.9394C8.94873 24.4085 9.36879 24.0368 9.84135 24.0368H21.9705C22.6006 24.0368 23.1782 23.8775 23.7558 23.559L23.8608 23.5059H25.646L24.1758 30.1957C24.0708 30.939 23.4407 31.4699 22.7056 31.4699ZM10.1039 25.0987L12.9393 30.1426C13.0443 30.3019 13.2018 30.4081 13.4118 30.4081H22.7056C22.9682 30.4081 23.1782 30.2488 23.2307 29.9833L24.3858 24.5677H24.1758C23.4932 24.9394 22.7581 25.0987 22.023 25.0987H10.1039Z" fill="#333333"/>
<defs>
<linearGradient id="paint0_linear" x1="1.24138" y1="4.88307" x2="14.8143" y2="7.99185" gradientUnits="userSpaceOnUse">
<stop stop-color="#46FF42"/>
<stop offset="1" stop-color="#3FFFA3"/>
</linearGradient>
</defs>
</svg>
