<svg width="36" height="30" viewBox="0 0 36 30" fill="none" xmlns="http://www.w3.org/2000/svg">
<path d="M35.7661 12.2155L27.1665 0.598564C26.9776 0.33107 26.6648 0.15625 26.3111 0.15625H9.96642C9.61496 0.15625 9.30404 0.328923 9.11466 0.593577L0.511503 12.2155C0.203298 12.6318 0.249824 13.2102 0.620716 13.5726L4.59082 17.4513C4.80166 17.6573 5.09043 17.7649 5.3854 17.7473C5.68044 17.7297 5.95417 17.5887 6.13882 17.3593L8.92172 13.9004V16.5415L4.88907 28.5719C4.78292 28.8888 4.83634 29.237 5.03269 29.5079C5.22904 29.7788 5.54435 29.9394 5.8802 29.9394H30.3974C30.7331 29.9394 31.0486 29.7788 31.2449 29.5079C31.4413 29.237 31.4947 28.8887 31.3886 28.5719L27.356 16.5415V13.9004L30.1388 17.3593C30.3235 17.5887 30.5973 17.7297 30.8922 17.7473C31.1877 17.7646 31.476 17.6572 31.6868 17.4513L35.6569 13.5726C36.0277 13.2102 36.0743 12.6318 35.7661 12.2155ZM18.1388 7.16518L14.5969 2.23414H21.6807L18.1388 7.16518ZM5.22994 15.1628L2.73135 12.7217L10.4949 2.23414H12.0291L16.8549 8.95266L12.0291 15.6712H11.0112V10.9387C11.0112 10.4975 10.731 10.1044 10.3122 9.95836C9.89349 9.81221 9.42781 9.94513 9.1506 10.2896L5.22994 15.1628ZM7.32978 27.8615L10.7195 17.7491H12.5641C12.5647 17.7491 12.5652 17.7491 12.5659 17.7491C12.5663 17.7491 12.5666 17.7491 12.567 17.7491H16.1322L13.3825 21.6554C13.0516 22.1254 13.1665 22.7733 13.6393 23.1023C13.8217 23.2293 14.0306 23.2902 14.2375 23.2902C14.5669 23.2902 14.8911 23.1357 15.0943 22.847L18.1388 18.5218L21.1834 22.847C21.3866 23.1356 21.7107 23.2902 22.0401 23.2902C22.2471 23.2902 22.4561 23.2292 22.6384 23.1023C23.1111 22.7732 23.2261 22.1254 22.8952 21.6553L20.1454 17.7491H25.5581L28.9479 27.8615H7.32978ZM31.0476 15.1628L27.127 10.2896C26.8498 9.94513 26.384 9.81228 25.9653 9.95836C25.5466 10.1044 25.2664 10.4975 25.2664 10.9387V15.6712H14.5969L24.2486 2.23414H25.7828L33.5462 12.7217L31.0476 15.1628Z" fill="#333333"/>
<rect x="11.1616" y="15.832" width="13.9544" height="2.3513" fill="url(#paint0_linear)"/>
<defs>
<linearGradient id="paint0_linear" x1="12.4076" y1="16.0966" x2="17.4613" y2="23.0429" gradientUnits="userSpaceOnUse">
<stop stop-color="#46FF42"/>
<stop offset="1" stop-color="#3FFFA3"/>
</linearGradient>
</defs>
</svg>
