<svg width="42" height="48" viewBox="0 0 42 48" fill="none" xmlns="http://www.w3.org/2000/svg">
<g clip-path="url(#clip0)">
<path d="M32.9038 14.6651L32.5958 15.0589L32.9863 15.3712L33.9671 16.1552L16.4435 38.5605L15.4628 37.7765L15.0722 37.4643L14.7642 37.8582L12.2906 41.0209C11.0363 42.6246 8.73093 42.825 7.24761 41.4907C5.90408 40.2684 5.80664 38.1112 6.98322 36.6068L9.37435 33.5496L9.68238 33.1557L9.29184 32.8435L8.31107 32.0595L25.8346 9.6541L26.8154 10.4381L27.206 10.7503L27.514 10.3565L29.9876 7.19379C31.2923 5.5256 33.7632 5.36692 35.2107 6.91894C36.3788 8.20047 36.3932 10.2036 35.295 11.6078L32.9038 14.6651Z" fill="white" stroke="url(#paint0_linear)"/>
<path d="M5.50804 43.5939C3.04676 41.3979 2.84483 37.5242 4.90615 34.8886L27.7731 5.65128C29.752 3.12113 33.2662 2.33234 35.9544 4.02442C39.109 5.97509 39.7634 10.2676 37.4822 13.1843L14.3954 42.7028C12.1967 45.514 8.14073 45.9269 5.50804 43.5939ZM35.2401 4.65276C32.9701 3.35209 30.1078 4.09093 28.4862 6.16425L5.59181 35.4367C3.88778 37.6155 3.95316 40.8089 5.91379 42.7189C8.18977 44.9381 11.7859 44.6145 13.7098 42.1547L36.7966 12.6362C38.8029 10.0709 38.1686 6.25135 35.2401 4.65276Z" fill="#333333"/>
<path d="M10.0094 36.9124L9.32373 36.3643L8.77404 37.0671L9.4597 37.6152L10.0094 36.9124Z" fill="#333333"/>
<path d="M12.0665 38.5569L11.3809 38.0088L10.8312 38.7116L11.5168 39.2597L12.0665 38.5569Z" fill="#333333"/>
<path d="M8.36046 39.0208L7.6748 38.4727L7.12512 39.1755L7.81078 39.7236L8.36046 39.0208Z" fill="#333333"/>
<path d="M10.4171 40.6653L9.73145 40.1172L9.18176 40.82L9.86742 41.3681L10.4171 40.6653Z" fill="#333333"/>
<path d="M33.5045 11.1467L32.8188 10.5986L32.2692 11.3015L32.9548 11.8496L33.5045 11.1467Z" fill="#333333"/>
<path d="M31.4469 9.50222L30.7612 8.9541L30.2115 9.65692L30.8972 10.205L31.4469 9.50222Z" fill="#333333"/>
<path d="M35.1534 9.03835L34.4678 8.49023L33.9181 9.19305L34.6037 9.74117L35.1534 9.03835Z" fill="#333333"/>
<path d="M33.0963 7.39382L32.4106 6.8457L31.861 7.54852L32.5466 8.09664L33.0963 7.39382Z" fill="#333333"/>
</g>
<defs>
<linearGradient id="paint0_linear" x1="28.3399" y1="7.29312" x2="37.2929" y2="15.1738" gradientUnits="userSpaceOnUse">
<stop stop-color="#46FF42"/>
<stop offset="1" stop-color="#3FFFA3"/>
</linearGradient>
<clipPath id="clip0">
<rect width="12.2894" height="49.966" fill="white" transform="matrix(0.781098 0.624408 -0.616067 0.787694 31.7305 0.59082)"/>
</clipPath>
</defs>
</svg>
