<svg width="37" height="43" viewBox="0 0 37 43" fill="none" xmlns="http://www.w3.org/2000/svg">
<path d="M30.3644 42.2899C28.6414 42.2899 27.7502 41.4369 26.9778 40.6977C26.2648 40.0154 25.6706 39.4468 24.4229 39.4468C23.1752 39.4468 22.5811 40.0154 21.8681 40.6977C21.0957 41.4369 20.2045 42.2899 18.4815 42.2899C16.7585 42.2899 15.8673 41.4369 15.0949 40.6977C14.3819 40.0154 13.7877 39.4468 12.54 39.4468C11.2923 39.4468 10.6982 40.0154 9.98521 40.6977C9.21283 41.4369 8.32161 42.2899 6.59859 42.2899C4.87556 42.2899 3.98435 41.4369 3.21196 40.6977C2.49898 40.0154 1.90484 39.4468 0.657134 39.4468H0.0629883V38.3096H0.657134C2.38015 38.3096 3.27137 39.1625 4.04376 39.9017C4.75674 40.584 5.35088 41.1526 6.59859 41.1526C7.84629 41.1526 8.44044 40.584 9.15341 39.9017C9.9258 39.1625 10.817 38.3096 12.54 38.3096C14.2631 38.3096 15.1543 39.1625 15.9267 39.9017C16.6396 40.584 17.2338 41.1526 18.4815 41.1526C19.7292 41.1526 20.3233 40.584 21.0363 39.9017C21.8087 39.1625 22.6999 38.3096 24.4229 38.3096C26.146 38.3096 27.0372 39.1625 27.8096 39.9017C28.5225 40.584 29.1167 41.1526 30.3644 41.1526C31.6121 41.1526 32.2062 40.584 32.9192 39.9017C33.6916 39.1625 34.5828 38.3096 36.3058 38.3096H36.9V39.4468H36.3058C35.0581 39.4468 34.464 40.0154 33.751 40.6977C32.9786 41.4369 32.0874 42.2899 30.3644 42.2899Z" fill="#333333"/>
<path d="M30.3644 38.3094C28.6414 38.3094 27.7502 37.4565 26.9778 36.7173C26.2648 36.0349 25.6706 35.4663 24.4229 35.4663C23.1752 35.4663 22.5811 36.0349 21.8681 36.7173C21.0957 37.4565 20.2045 38.3094 18.4815 38.3094C16.7585 38.3094 15.8673 37.4565 15.0949 36.7173C14.3819 36.0349 13.7877 35.4663 12.54 35.4663C11.2923 35.4663 10.6982 36.0349 9.98521 36.7173C9.21283 37.4565 8.32161 38.3094 6.59859 38.3094C4.87556 38.3094 3.98435 37.4565 3.21196 36.7173C2.49898 36.0349 1.90484 35.4663 0.657134 35.4663H0.0629883V34.3291H0.657134C2.38015 34.3291 3.27137 35.182 4.04376 35.9212C4.75674 36.6036 5.35088 37.1722 6.59859 37.1722C7.84629 37.1722 8.44044 36.6036 9.15341 35.9212C9.9258 35.182 10.817 34.3291 12.54 34.3291C14.2631 34.3291 15.1543 35.182 15.9267 35.9212C16.6396 36.6036 17.2338 37.1722 18.4815 37.1722C19.7292 37.1722 20.3233 36.6036 21.0363 35.9212C21.8087 35.182 22.6999 34.3291 24.4229 34.3291C26.146 34.3291 27.0372 35.182 27.8096 35.9212C28.5225 36.6036 29.1167 37.1722 30.3644 37.1722C31.6121 37.1722 32.2062 36.6036 32.9192 35.9212C33.6916 35.182 34.5828 34.3291 36.3058 34.3291H36.9V35.4663H36.3058C35.0581 35.4663 34.464 36.0349 33.751 36.7173C32.9786 37.4565 32.0874 38.3094 30.3644 38.3094Z" fill="#333333"/>
<path d="M30.3644 34.3289C28.6414 34.3289 27.7502 33.476 26.9778 32.7368C26.2648 32.0545 25.6706 31.4859 24.4229 31.4859C23.1752 31.4859 22.5811 32.0545 21.8681 32.7368C21.0957 33.476 20.2045 34.3289 18.4815 34.3289C16.7585 34.3289 15.8673 33.476 15.0949 32.7368C14.3819 32.0545 13.7877 31.4859 12.54 31.4859C11.2923 31.4859 10.6982 32.0545 9.98521 32.7368C9.21283 33.476 8.32161 34.3289 6.59859 34.3289C4.87556 34.3289 3.98435 33.476 3.21196 32.7368C2.49898 32.0545 1.90484 31.4859 0.657134 31.4859H0.0629883V30.3486H0.657134C2.38015 30.3486 3.27137 31.2016 4.04376 31.9408C4.75674 32.6231 5.35088 33.1917 6.59859 33.1917C7.84629 33.1917 8.44044 32.6231 9.15341 31.9408C9.9258 31.2016 10.817 30.3486 12.54 30.3486C14.2631 30.3486 15.1543 31.2016 15.9267 31.9408C16.6396 32.6231 17.2338 33.1917 18.4815 33.1917C19.7292 33.1917 20.3233 32.6231 21.0363 31.9408C21.8087 31.2016 22.6999 30.3486 24.4229 30.3486C26.146 30.3486 27.0372 31.2016 27.8096 31.9408C28.5225 32.6231 29.1167 33.1917 30.3644 33.1917C31.6121 33.1917 32.2062 32.6231 32.9192 31.9408C33.6916 31.2016 34.5828 30.3486 36.3058 30.3486H36.9V31.4859H36.3058C35.0581 31.4859 34.464 32.0545 33.751 32.7368C32.9786 33.476 32.0874 34.3289 30.3644 34.3289Z" fill="#333333"/>
<path d="M9.94385 29.0523L25.6192 25.5254L26.0111 30.6199L26.4029 34.1468L25.6192 35.7144L22.4841 36.89L18.9572 38.0657L13.0789 37.6738L9.94385 29.0523Z" fill="#E0E0E0"/>
<path d="M25.6193 26.7009L10.3358 30.2276C9.0818 23.9576 7.07013 11.4175 6.41699 5.93106C8.76829 3.57976 17.3897 2.01223 19.3491 3.18788C20.9167 4.1284 24.1824 19.2551 25.6193 26.7009Z" fill="url(#paint0_linear)"/>
<path fill-rule="evenodd" clip-rule="evenodd" d="M18.8475 3.72152C18.0215 3.51388 15.9646 3.29683 12.8108 3.96952L12.8109 3.96968C9.65668 4.64255 7.86722 5.6802 7.1978 6.20688C7.86374 16.4686 9.35648 24.1806 10.835 29.4544L25.0139 26.4297C24.2115 21.0116 22.4272 13.3617 18.8475 3.72152ZM25.1535 27.4224L11.1127 30.4177C12.0857 33.6991 13.0296 35.9201 13.7019 37.1128C14.8974 37.2958 17.3956 37.4639 19.844 36.9417L19.8439 36.9415C22.2925 36.4192 24.505 35.2461 25.5218 34.5912C25.6488 33.2279 25.6042 30.8152 25.1535 27.4224ZM12.4972 2.50267L12.4972 2.50284C8.70394 3.31215 6.55518 4.66856 5.88312 5.37407L5.65715 5.61128L5.67763 5.93825C6.84277 24.5427 10.7154 35.1303 12.5925 38.1853L12.7647 38.4654L13.0874 38.5286C14.2412 38.7547 17.2131 39.0367 20.1576 38.4085L20.1575 38.4084C23.1018 37.7802 25.6995 36.3101 26.6606 35.6329L26.9294 35.4435L26.9722 35.1175C27.4392 31.5625 26.6542 20.3162 20.1257 2.85592L20.011 2.54906L19.7079 2.42471C18.8064 2.05485 16.2909 1.69338 12.4972 2.50267Z" fill="#333333"/>
<circle cx="13.4708" cy="8.67439" r="0.783766" fill="#E0E0E0"/>
<circle cx="14.255" cy="11.8092" r="0.783766" fill="#E0E0E0"/>
<ellipse cx="15.0386" cy="14.9449" rx="0.783766" ry="0.783767" fill="#E0E0E0"/>
<defs>
<linearGradient id="paint0_linear" x1="8.13148" y1="5.87502" x2="27.7099" y2="9.04822" gradientUnits="userSpaceOnUse">
<stop stop-color="#46FF42"/>
<stop offset="1" stop-color="#3FFFA3"/>
</linearGradient>
</defs>
</svg>
