<svg width="32" height="32" viewBox="0 0 32 32" fill="none" xmlns="http://www.w3.org/2000/svg">
<path d="M29.8412 31.7794H29.3356C28.6277 31.7794 27.9198 31.6277 27.313 31.3244C26.7062 31.6277 25.9983 31.7794 25.2903 31.7794H20.2338C19.5259 31.7794 18.818 31.6277 18.2112 31.3244C17.6044 31.6277 16.8965 31.7794 16.1885 31.7794H15.6829C14.975 31.7794 14.2671 31.6277 13.6603 31.3244C13.0535 31.6277 12.3456 31.7794 11.6376 31.7794H7.08675C6.37883 31.7794 5.67091 31.6277 5.06413 31.3244C4.45734 31.6277 3.74942 31.7794 3.0415 31.7794V30.7681C3.64829 30.7681 4.20451 30.6164 4.71017 30.3636L5.06413 30.2119L5.41808 30.3636C5.92374 30.6164 6.53053 30.7681 7.08675 30.7681H11.6376C12.2444 30.7681 12.8007 30.6164 13.3063 30.3636L13.6603 30.2119L14.0142 30.3636C14.5199 30.6164 15.1267 30.7681 15.6829 30.7681H16.1885C16.7953 30.7681 17.3516 30.6164 17.8572 30.3636L18.2112 30.2119L18.5651 30.3636C19.0708 30.6164 19.6776 30.7681 20.2338 30.7681H25.2903C25.8971 30.7681 26.4534 30.6164 26.959 30.3636L27.313 30.2119L27.6669 30.3636C28.1726 30.6164 28.7794 30.7681 29.3356 30.7681H29.8412V31.7794Z" fill="#333333"/>
<path d="M15.1774 22.6772L14.6718 21.1602L13.1548 21.6658L17.7057 11.5527L18.2113 13.0697L19.7283 12.564L15.1774 22.6772Z" fill="url(#paint0_linear)"/>
<path d="M17.1998 22.6772L17.7055 21.1602L19.2224 21.6658L14.6715 11.5527L14.1659 13.0697L12.6489 12.564L17.1998 22.6772Z" fill="url(#paint1_linear)"/>
<path d="M15.7446 20.406L10.6831 31.0449L11.5963 31.4794L16.6578 20.8404L15.7446 20.406Z" fill="#333333"/>
<path d="M18.1605 17.6716L17.2504 17.2165L17.9583 15.7501C19.8292 11.806 22.0541 7.91241 24.4812 4.27169C24.6835 3.9683 24.7846 3.61434 24.7846 3.26038C24.7846 2.24907 23.9756 1.44002 22.9643 1.44002C22.1552 1.44002 21.4473 1.94568 21.1945 2.70416L20.8911 3.76604C19.7786 7.35619 18.4134 10.9463 16.8458 14.3848L16.6436 14.7893L15.7334 14.3848L15.9357 13.9803C17.5032 10.5924 18.8179 7.0528 19.9303 3.46264L20.2337 2.40077C20.6383 1.23776 21.7001 0.428711 22.9643 0.428711C24.5318 0.428711 25.7959 1.69285 25.7959 3.26038C25.7959 3.8166 25.6443 4.37282 25.3409 4.82791C22.9137 8.46863 20.7394 12.261 18.8685 16.2052L18.1605 17.6716Z" fill="#333333"/>
<path d="M9.05862 31.476L8.14844 31.0715L14.2669 17.6211L15.1771 18.0762L15.1265 18.1773L9.05862 31.476Z" fill="#333333"/>
<path d="M22.762 3.96834C23.0413 3.96834 23.2677 3.74195 23.2677 3.46269C23.2677 3.18342 23.0413 2.95703 22.762 2.95703C22.4827 2.95703 22.2563 3.18342 22.2563 3.46269C22.2563 3.74195 22.4827 3.96834 22.762 3.96834Z" fill="#333333"/>
<path d="M20.79 31.476L13.5085 16.2052C11.6376 12.2611 9.46329 8.46863 7.03614 4.82791C6.73275 4.37282 6.58105 3.8166 6.58105 3.26038C6.58105 1.69285 7.84519 0.428711 9.41273 0.428711C10.6769 0.428711 11.7387 1.23776 12.1433 2.40077L12.4467 3.46264C13.5591 7.0528 14.9244 10.5924 16.4413 13.9803L24.2284 31.0714L23.3183 31.476L15.5312 14.3848C13.9636 10.9463 12.5984 7.35619 11.4859 3.76604L11.1825 2.70416C10.9297 1.94568 10.2218 1.44002 9.41273 1.44002C8.40141 1.44002 7.59237 2.24907 7.59237 3.26038C7.59237 3.61434 7.6935 3.9683 7.89576 4.27169C10.3229 7.91241 12.5478 11.806 14.4187 15.7501L21.7002 31.0209L20.79 31.476Z" fill="#333333"/>
<path d="M9.61503 3.96834C9.8943 3.96834 10.1207 3.74195 10.1207 3.46269C10.1207 3.18342 9.8943 2.95703 9.61503 2.95703C9.33577 2.95703 9.10938 3.18342 9.10938 3.46269C9.10938 3.74195 9.33577 3.96834 9.61503 3.96834Z" fill="#333333"/>
<path d="M29.3438 0.828067L24.792 31.1807L25.7921 31.3306L30.3439 0.978044L29.3438 0.828067Z" fill="#333333"/>
<path d="M29.7401 11.0471L29.0827 10.8954C26.9084 10.3392 25.5937 8.21546 26.0488 6.04114C26.3016 4.9287 26.959 4.01852 27.9197 3.41173C28.8805 2.80494 29.9929 2.65325 31.1053 2.90608L31.4593 2.95664L31.257 3.96795L30.8525 3.86682C30.0435 3.66456 29.1839 3.81626 28.4759 4.22078C27.768 4.67587 27.2624 5.38379 27.0601 6.19284C26.7061 7.8615 27.7175 9.4796 29.3355 9.88412L29.9929 10.0358L29.7401 11.0471Z" fill="#333333"/>
<path d="M24.3738 24.0366L24.2075 25.0342L28.2476 25.7075L28.4139 24.71L24.3738 24.0366Z" fill="#333333"/>
<path d="M3.03866 0.877366L2.03857 1.02734L6.59039 31.3799L7.59047 31.23L3.03866 0.877366Z" fill="#333333"/>
<path d="M2.6372 11.0479L2.43493 10.0366L3.04172 9.88488C4.65982 9.48036 5.67113 7.86226 5.31717 6.1936C5.11491 5.38455 4.65982 4.67663 3.90133 4.22154C3.24398 3.76645 2.38437 3.66532 1.57532 3.86758L1.12023 3.96871L0.917969 2.9574L1.32249 2.85627C2.43493 2.60344 3.54738 2.75514 4.50812 3.36193C5.46887 3.96871 6.12622 4.87889 6.37905 5.99134C6.83414 8.16566 5.51943 10.2894 3.34511 10.8456L2.6372 11.0479Z" fill="#333333"/>
<path d="M7.98396 24.0203L3.94385 24.6924L4.1098 25.6899L8.14991 25.0178L7.98396 24.0203Z" fill="#333333"/>
<path d="M9.61483 14.5869H8.60352V15.5982H9.61483V14.5869Z" fill="#333333"/>
<path d="M8.6036 15.5986H7.59229V16.6099H8.6036V15.5986Z" fill="#333333"/>
<path d="M9.61483 16.6094H8.60352V17.6207H9.61483V16.6094Z" fill="#333333"/>
<path d="M10.6261 15.5986H9.61475V16.6099H10.6261V15.5986Z" fill="#333333"/>
<path d="M25.2906 11.5527H24.2793V12.564H25.2906V11.5527Z" fill="#333333"/>
<path d="M24.2789 12.5645H23.2676V13.5758H24.2789V12.5645Z" fill="#333333"/>
<path d="M25.2906 13.5762H24.2793V14.5875H25.2906V13.5762Z" fill="#333333"/>
<path d="M26.3014 12.5645H25.29V13.5758H26.3014V12.5645Z" fill="#333333"/>
<path d="M16.6939 1.94531H15.6826V2.95662H16.6939V1.94531Z" fill="#333333"/>
<path d="M15.6827 2.95703H14.6714V3.96834H15.6827V2.95703Z" fill="#333333"/>
<path d="M16.6939 3.96777H15.6826V4.97909H16.6939V3.96777Z" fill="#333333"/>
<path d="M17.7056 2.95703H16.6943V3.96834H17.7056V2.95703Z" fill="#333333"/>
<path d="M31.8638 30.7676H30.8525V31.7789H31.8638V30.7676Z" fill="#333333"/>
<path d="M3.04179 30.7676H2.53613V31.7789H3.04179V30.7676Z" fill="#333333"/>
<path d="M1.5245 30.7676H0.513184V31.7789H1.5245V30.7676Z" fill="#333333"/>
<defs>
<linearGradient id="paint0_linear" x1="13.7417" y1="12.8042" x2="20.4936" y2="13.7283" gradientUnits="userSpaceOnUse">
<stop stop-color="#46FF42"/>
<stop offset="1" stop-color="#3FFFA3"/>
</linearGradient>
<linearGradient id="paint1_linear" x1="13.2358" y1="12.8042" x2="19.9878" y2="13.7283" gradientUnits="userSpaceOnUse">
<stop stop-color="#46FF42"/>
<stop offset="1" stop-color="#3FFFA3"/>
</linearGradient>
</defs>
</svg>
