<svg xmlns="http://www.w3.org/2000/svg" width="101" height="100" fill="none" viewBox="0 0 101 100">
    <path fill="#fff" stroke="#BDBDBD" d="M1 50c0-12.512 0-21.854.778-28.851.778-7 2.324-11.544 5.326-14.545 3-3.002 7.544-4.548 14.545-5.326C28.646.501 37.988.5 50.5.5s21.854 0 28.851.778c7 .778 11.544 2.324 14.545 5.326 3.001 3 4.548 7.544 5.326 14.545.777 6.997.778 16.339.778 28.851s0 21.854-.778 28.851c-.778 7-2.325 11.544-5.326 14.545-3 3.001-7.544 4.548-14.545 5.326-6.997.777-16.339.778-28.851.778s-21.854 0-28.851-.778c-7-.778-11.544-2.325-14.545-5.326-3.002-3-4.548-7.544-5.326-14.545C1.001 71.854 1 62.512 1 50z"/>
    <path fill="#333" d="M68.295 39.242l-8.681-11.793c-.191-.272-.507-.449-.864-.449h-16.5c-.355 0-.669.175-.86.444l-8.685 11.798c-.31.423-.264 1.01.11 1.378l4.008 3.937c.213.21.505.319.803.3.297-.017.574-.16.76-.393l2.81-3.512v2.681l-4.072 12.213c-.107.322-.053.675.145.95.199.275.517.438.856.438h24.75c.339 0 .657-.163.856-.438.198-.275.252-.628.145-.95l-4.071-12.212v-2.682l2.809 3.512c.186.233.463.376.76.394.299.017.59-.092.803-.3l4.007-3.938c.375-.368.422-.955.11-1.378zM50.5 34.115l-3.575-5.006h7.15L50.5 34.115zm-13.031 8.119l-2.523-2.478 7.837-10.647h1.55l4.87 6.82-4.87 6.821h-1.028v-4.804c0-.448-.283-.847-.706-.995-.423-.149-.893-.014-1.172.336l-3.958 4.947zm2.12 12.891l3.421-10.266h5.465l-2.776 3.966c-.334.477-.218 1.135.259 1.469.184.129.395.19.604.19.332 0 .66-.156.865-.45l3.073-4.39 3.074 4.39c.205.294.532.45.864.45.21 0 .42-.062.604-.19.477-.334.594-.992.26-1.47l-2.776-3.965h5.464l3.422 10.266H39.588zM63.53 42.234l-3.957-4.947c-.28-.35-.75-.485-1.173-.336-.423.148-.706.547-.706.995v4.804h-10.77l9.743-13.64h1.549l7.837 10.646-2.523 2.478z"/>
    <path fill="url(#paint0_linear)" d="M43.5 43H57.5V45H43.5z"/>
    <path fill="#BDBDBD" d="M33.044 77.816c1.946-.336 3.794-1.386 4.564-2.87.756 1.484 2.618 2.534 4.564 2.87l.448-.91c-2.212-.322-4.382-1.764-4.382-3.416v-.07h3.934v-.924h-9.17v.924h3.962v.07c0 1.652-2.17 3.094-4.354 3.416l.434.91zm10.234 1.05h-11.34v.938h5.068v4.466h1.148v-4.466h5.138l-.014-.938zm11.828-7.14h-1.148v8.512h1.148v-8.512zm-2.632 6.048c-1.847-.602-3.15-2.128-3.15-3.808v-.364h2.843v-.924h-6.889v.924h2.87v.364c0 1.834-1.26 3.514-3.164 4.186l.616.896c1.484-.546 2.646-1.708 3.164-3.192.575 1.316 1.708 2.324 3.15 2.814l.56-.896zm-.853 1.764h-1.177v.322c0 1.764-1.96 3.094-4.2 3.458l.434.91c1.905-.35 3.627-1.316 4.355-2.758.742 1.442 2.45 2.408 4.353 2.758l.448-.91c-2.254-.364-4.214-1.694-4.214-3.458v-.322zM68.49 76.5c-2.282-.336-4.522-1.89-4.522-3.64v-.7h-1.205v.7c0 1.792-2.212 3.304-4.493 3.64l.461.924c1.96-.336 3.85-1.414 4.634-2.94.812 1.512 2.702 2.604 4.648 2.94l.477-.924zm.546 2.282h-11.34v.952h5.068v4.55h1.147v-4.55h5.138l-.014-.952z"/>
    <defs>
        <linearGradient id="paint0_linear" x1="44.058" x2="46.468" y1="42.88" y2="50.235" gradientUnits="userSpaceOnUse">
            <stop stop-color="#0ACF83"/>
            <stop offset="1" stop-color="#10FF26"/>
        </linearGradient>
    </defs>
</svg>
