<svg xmlns="http://www.w3.org/2000/svg" width="101" height="100" fill="none" viewBox="0 0 101 100">
    <path fill="#fff" stroke="#BDBDBD" d="M1 50c0-12.512 0-21.854.778-28.851.778-7 2.324-11.544 5.326-14.545 3-3.002 7.544-4.548 14.545-5.326C28.646.501 37.988.5 50.5.5s21.854 0 28.851.778c7 .778 11.544 2.324 14.545 5.326 3.001 3 4.548 7.544 5.326 14.545.777 6.997.778 16.339.778 28.851s0 21.854-.778 28.851c-.778 7-2.325 11.544-5.326 14.545-3 3.001-7.544 4.548-14.545 5.326-6.997.777-16.339.778-28.851.778s-21.854 0-28.851-.778c-7-.778-11.544-2.325-14.545-5.326-3.002-3-4.548-7.544-5.326-14.545C1.001 71.854 1 62.512 1 50z"/>
    <g clip-path="url(#clip0)">
        <path fill="#fff" stroke="url(#paint0_linear)" d="M65.787 28.045l-.31.392.392.31 1.377 1.089-22.778 28.807-1.377-1.088-.392-.31-.31.392-3.191 4.035c-1.667 2.108-4.734 2.375-6.71.616-1.797-1.616-1.917-4.455-.36-6.424l3.085-3.901.31-.392-.392-.31-1.377-1.089 22.779-28.807 1.376 1.088.392.31.31-.392 3.191-4.035c1.733-2.192 5.022-2.406 6.952-.358 1.56 1.691 1.573 4.326.117 6.166l-3.084 3.9z"/>
        <path fill="#333" d="M30.337 64.867c-3.174-2.802-3.435-7.744-.776-11.107l29.496-37.304c2.553-3.228 7.086-4.234 10.553-2.075 4.07 2.488 4.914 7.965 1.971 11.687L41.801 63.73c-2.836 3.587-8.068 4.114-11.464 1.137zM68.69 15.182c-2.928-1.66-6.62-.716-8.712 1.929L30.445 54.459c-2.198 2.78-2.113 6.855.416 9.292 2.936 2.831 7.574 2.418 10.056-.72l29.78-37.663c2.588-3.273 1.77-8.146-2.008-10.186z"/>
        <path fill="#333" d="M36.144 56.342l-.885-.7-.709.897.885.7.709-.897zM38.797 58.44l-.884-.7-.71.897.885.7.709-.897zM34.017 59.032l-.885-.7-.709.898.885.699.709-.897zM36.67 61.13l-.884-.7-.71.898.885.699.71-.897zM66.45 23.468l-.885-.7-.709.897.885.7.709-.897zM63.797 21.37l-.885-.7-.709.897.884.7.71-.897zM68.577 20.778l-.885-.7-.709.897.885.7.709-.897zM65.924 18.68l-.885-.7-.709.897.885.7.709-.897z"/>
    </g>
    <path fill="#BDBDBD" d="M29.867 77.8c-2.198-.42-4.578-2.325-4.578-4.467v-.966h-1.204v.966c0 2.142-2.366 4.032-4.564 4.466l.518.952c1.89-.448 3.85-1.792 4.648-3.626.798 1.848 2.758 3.192 4.662 3.626l.518-.952zM19.045 81.41v.952h11.382v-.952H19.045zm19.137.07v-3.36h3.836v-.924h-7.56v-4.634H33.31v5.558h3.724v3.36H31.91v.938h11.41v-.938h-5.138zm12.276-8.568c1.919 0 3.22.714 3.22 1.82 0 1.12-1.301 1.834-3.22 1.834-1.904 0-3.206-.714-3.206-1.834 0-1.106 1.302-1.82 3.206-1.82zm0 4.578c2.619 0 4.397-1.064 4.397-2.758 0-1.68-1.778-2.744-4.396-2.744-2.605 0-4.383 1.064-4.383 2.744 0 1.694 1.779 2.758 4.383 2.758zm5.712 1.19H44.803v.952h5.082v4.424h1.148v-4.424h5.137v-.952zm3.99-3.122h6.412v2.31h-6.413v-2.31zm3.78 5.936v-2.702h3.752v-6.412h-1.12v2.24h-6.413v-2.24h-1.133v6.412h3.752v2.702h-5.096v.938h11.382v-.938H63.94zm16.686-3.99h-7.49v-3.92H80.5v-.952h-8.498v5.81h8.624v-.938zm-10.08 3.892v.952h11.396v-.952H70.546z"/>
    <defs>
        <linearGradient id="paint0_linear" x1="65.468" x2="83.894" y1="10.201" y2="28.364" gradientUnits="userSpaceOnUse">
            <stop stop-color="#0ACF83"/>
            <stop offset="1" stop-color="#10FF26"/>
        </linearGradient>
        <clipPath id="clip0">
            <path fill="#fff" d="M0 0H15.785V64.018H0z" transform="rotate(38.334 17.696 97.296)"/>
        </clipPath>
    </defs>
</svg>
