<svg width="38" height="39" viewBox="0 0 38 39" fill="none" xmlns="http://www.w3.org/2000/svg">
<path d="M17.7741 27.0176L17.1612 25.1789L15.3225 25.7918L20.8386 13.5337L21.4515 15.3724L23.2903 14.7595L17.7741 27.0176Z" fill="#E0E0E0"/>
<path d="M20.2258 27.0176L20.8388 25.1789L22.6775 25.7918L17.1613 13.5337L16.5484 15.3724L14.7097 14.7595L20.2258 27.0176Z" fill="#E0E0E0"/>
<path d="M35.5483 38.0498H34.9354C34.0774 38.0498 33.2193 37.8659 32.4838 37.4982C31.7483 37.8659 30.8903 38.0498 30.0322 38.0498H23.9032C23.0451 38.0498 22.187 37.8659 21.4515 37.4982C20.7161 37.8659 19.858 38.0498 18.9999 38.0498H18.387C17.529 38.0498 16.6709 37.8659 15.9354 37.4982C15.1999 37.8659 14.3419 38.0498 13.4838 38.0498H7.96768C7.10961 38.0498 6.25155 37.8659 5.51607 37.4982C4.78058 37.8659 3.92252 38.0498 3.06445 38.0498V36.824C3.79994 36.824 4.47413 36.6401 5.08703 36.3337L5.51607 36.1498L5.9451 36.3337C6.558 36.6401 7.29349 36.824 7.96768 36.824H13.4838C14.2193 36.824 14.8935 36.6401 15.5064 36.3337L15.9354 36.1498L16.3645 36.3337C16.9774 36.6401 17.7128 36.824 18.387 36.824H18.9999C19.7354 36.824 20.4096 36.6401 21.0225 36.3337L21.4515 36.1498L21.8806 36.3337C22.4935 36.6401 23.229 36.824 23.9032 36.824H30.0322C30.7677 36.824 31.4419 36.6401 32.0548 36.3337L32.4838 36.1498L32.9128 36.3337C33.5257 36.6401 34.2612 36.824 34.9354 36.824H35.5483V38.0498Z" fill="white"/>
<path d="M18.4621 24.264L12.3271 37.1594L13.4341 37.686L19.569 24.7906L18.4621 24.264Z" fill="white"/>
<path d="M21.3904 20.9498L20.2872 20.3982L21.1453 18.6208C23.413 13.8401 26.1098 9.12077 29.0517 4.70787C29.2969 4.34013 29.4195 3.91109 29.4195 3.48206C29.4195 2.25626 28.4388 1.27561 27.213 1.27561C26.2324 1.27561 25.3743 1.88851 25.0678 2.80787L24.7001 4.09497C23.3517 8.44658 21.6969 12.7982 19.7969 16.9659L19.5517 17.4563L18.4485 16.9659L18.6936 16.4756C20.5936 12.3692 22.1872 8.07884 23.5356 3.72722L23.9033 2.44013C24.3936 1.03045 25.6807 0.0498047 27.213 0.0498047C29.113 0.0498047 30.6453 1.58206 30.6453 3.48206C30.6453 4.15626 30.4614 4.83045 30.0937 5.38206C27.1517 9.79496 24.5162 14.3917 22.2485 19.1724L21.3904 20.9498Z" fill="white"/>
<path d="M10.3581 37.6821L9.25488 37.1918L16.671 20.8885L17.7742 21.4402L17.7129 21.5627L10.3581 37.6821Z" fill="white"/>
<path d="M26.9679 4.34019C27.3064 4.34019 27.5808 4.06578 27.5808 3.72728C27.5808 3.38879 27.3064 3.11438 26.9679 3.11438C26.6294 3.11438 26.355 3.38879 26.355 3.72728C26.355 4.06578 26.6294 4.34019 26.9679 4.34019Z" fill="white"/>
<path d="M24.5773 37.6821L15.7515 19.1724C13.4838 14.3917 10.8483 9.79497 7.90635 5.38206C7.53861 4.83045 7.35474 4.15626 7.35474 3.48206C7.35474 1.58206 8.88699 0.0498047 10.787 0.0498047C12.3193 0.0498047 13.6063 1.03045 14.0967 2.44013L14.4644 3.72722C15.8128 8.07884 17.4676 12.3692 19.3064 16.4756L28.7451 37.1917L27.6418 37.6821L18.2031 16.9659C16.3031 12.7982 14.6483 8.44658 13.2999 4.09497L12.9322 2.80787C12.6257 1.88851 11.7676 1.27561 10.787 1.27561C9.56119 1.27561 8.58054 2.25626 8.58054 3.48206C8.58054 3.9111 8.70312 4.34013 8.94829 4.70787C11.8902 9.12077 14.587 13.8401 16.8547 18.6208L25.6805 37.1305L24.5773 37.6821Z" fill="white"/>
<path d="M11.0321 4.34019C11.3706 4.34019 11.645 4.06578 11.645 3.72728C11.645 3.38879 11.3706 3.11438 11.0321 3.11438C10.6936 3.11438 10.4192 3.38879 10.4192 3.72728C10.4192 4.06578 10.6936 4.34019 11.0321 4.34019Z" fill="white"/>
<path d="M34.9452 0.533826L29.428 37.3241L30.6402 37.5059L36.1574 0.715613L34.9452 0.533826Z" fill="white"/>
<path d="M35.4258 12.9207L34.629 12.7368C31.9936 12.0626 30.4 9.48845 30.9516 6.85297C31.2581 5.50458 32.0549 4.40135 33.2194 3.66587C34.3839 2.93038 35.7323 2.74651 37.0807 3.05296L37.5097 3.11425L37.2645 4.34006L36.7742 4.21748C35.7936 3.97232 34.7516 4.15619 33.8936 4.64651C33.0355 5.19813 32.4226 6.05619 32.1774 7.03684C31.7484 9.05942 32.9742 11.0207 34.9355 11.511L35.7323 11.6949L35.4258 12.9207Z" fill="white"/>
<path d="M28.9215 28.6638L28.72 29.8729L33.617 30.6891L33.8185 29.48L28.9215 28.6638Z" fill="white"/>
<path d="M3.06083 0.593604L1.84863 0.775391L7.36587 37.5657L8.57807 37.3839L3.06083 0.593604Z" fill="white"/>
<path d="M2.57411 12.9207L2.32894 11.6949L3.06443 11.511C5.02572 11.0207 6.25152 9.05943 5.82249 7.03685C5.57733 6.0562 5.02572 5.19814 4.10636 4.64652C3.30959 4.09491 2.26765 3.97233 1.28701 4.21749L0.735396 4.34007L0.490234 3.11427L0.980557 2.99169C2.32894 2.68523 3.67733 2.8691 4.84185 3.60459C6.00636 4.34007 6.80314 5.4433 7.10959 6.79169C7.6612 9.42717 6.06765 12.0014 3.43217 12.6756L2.57411 12.9207Z" fill="white"/>
<path d="M9.05521 28.6455L4.1582 29.4602L4.35936 30.6693L9.25636 29.8547L9.05521 28.6455Z" fill="white"/>
<path d="M11.0322 17.2111H9.8064V18.4369H11.0322V17.2111Z" fill="white"/>
<path d="M9.80637 18.4369H8.58057V19.6627H9.80637V18.4369Z" fill="white"/>
<path d="M11.0322 19.6627H9.8064V20.8885H11.0322V19.6627Z" fill="white"/>
<path d="M12.258 18.4369H11.0322V19.6627H12.258V18.4369Z" fill="white"/>
<path d="M30.0322 13.5337H28.8064V14.7595H30.0322V13.5337Z" fill="white"/>
<path d="M28.8064 14.7595H27.5806V15.9853H28.8064V14.7595Z" fill="white"/>
<path d="M30.0322 15.9852H28.8064V17.211H30.0322V15.9852Z" fill="white"/>
<path d="M31.258 14.7595H30.0322V15.9853H31.258V14.7595Z" fill="white"/>
<path d="M19.613 1.88855H18.3872V3.11436H19.613V1.88855Z" fill="white"/>
<path d="M18.3872 3.11438H17.1614V4.34019H18.3872V3.11438Z" fill="white"/>
<path d="M19.613 4.34009H18.3872V5.56589H19.613V4.34009Z" fill="white"/>
<path d="M20.8386 3.11438H19.6128V4.34019H20.8386V3.11438Z" fill="white"/>
<path d="M38 36.824H36.7742V38.0498H38V36.824Z" fill="white"/>
<path d="M3.06456 36.824H2.45166V38.0498H3.06456V36.824Z" fill="white"/>
<path d="M1.22581 36.824H0V38.0498H1.22581V36.824Z" fill="white"/>
</svg>
