<?xml version="1.0" encoding="utf-8"?>
<!-- Generator: Adobe Illustrator 26.0.1, SVG Export Plug-In . SVG Version: 6.00 Build 0)  -->
<svg version="1.1" id="Layer_1" xmlns="http://www.w3.org/2000/svg" xmlns:xlink="http://www.w3.org/1999/xlink" x="0px" y="0px"
	 viewBox="0 0 160 279.7" style="enable-background:new 0 0 160 279.7;" xml:space="preserve">
<style type="text/css">
	.st0{fill:#FADB5F;}
	.st1{fill:#EC582B;}
	.st2{fill:#00618F;}
</style>
<g id="Group_79_00000000914204143173409900000009347379983514056889_" transform="translate(-3887 -3971)">
	<g id="Group_78_00000176764851899590844590000001015260383138058407_" transform="translate(3797.412 2887.495)">
		<g id="Rectangle_47_00000026152688200299500390000013190392752808293297_">
			<path class="st0" d="M206.9,1093.7L206.9,1093.7c20.8,0,37.6,16.8,37.6,37.6v0.6c0,20.8-16.8,37.6-37.6,37.6l0,0
				c-20.8,0-37.6-16.8-37.6-37.6v-0.6C169.3,1110.6,186.1,1093.7,206.9,1093.7z"/>
		</g>
		<g id="Rectangle_48_00000176748524383176647200000015907146299408575663_">
			<path class="st1" d="M132.3,1277.1L132.3,1277.1c20.8,0,37.6,16.8,37.6,37.6v0.6c0,20.8-16.8,37.6-37.6,37.6l0,0
				c-20.8,0-37.6-16.8-37.6-37.6v-0.6C94.7,1293.9,111.5,1277.1,132.3,1277.1z"/>
		</g>
	</g>
	<g id="Group_77_00000060729236947084578930000007564819189442016187_" transform="translate(3227 1575)">
		<g id="Rectangle_30_00000051357647098225769590000007556683571290644123_">
			<path class="st2" d="M740,2647.8c-36.4,0-66.1-29.6-66.1-66.1V2490c0-36.4,29.6-66.1,66.1-66.1c36.4,0,66.1,29.6,66.1,66.1v91.7
				C806.1,2618.1,776.4,2647.8,740,2647.8z M740,2430.3c-32.9,0-59.8,26.8-59.8,59.8v91.7c0,32.9,26.8,59.8,59.8,59.8
				s59.8-26.8,59.8-59.8v-91.7C799.8,2457.1,772.9,2430.3,740,2430.3z"/>
		</g>
		<g id="Path_109_00000177456279838742759340000005611245804611771320_">
			<path class="st2" d="M748.5,2497.2c-1,0-1.9-0.5-2.6-1.3l-32.3-44.7l-33,44.8c-1,1.4-3,1.7-4.4,0.7s-1.7-3-0.7-4.4L711,2444
				c0.6-0.8,1.5-1.3,2.6-1.3c1,0,2,0.5,2.5,1.3l34.8,48.3c1,1.4,0.7,3.4-0.7,4.4C749.7,2497,749.1,2497.2,748.5,2497.2z"/>
		</g>
		<g id="Rectangle_28_00000160874586937500497210000009730252251815650180_">
			<path class="st2" d="M755.3,2548.5h-65.8c-1.7,0-3.2-1.4-3.2-3.2v-37.9c0-1.7,1.4-3.2,3.2-3.2h65.8c1.7,0,3.2,1.4,3.2,3.2v37.9
				C758.4,2547.1,757,2548.5,755.3,2548.5z M692.6,2542.2h59.5v-31.6h-59.5V2542.2z"/>
		</g>
		<g id="Rectangle_29_00000097460080060919176180000017961967477832985743_">
			<path class="st2" d="M790.5,2567.5h-65.8c-1.7,0-3.2-1.4-3.2-3.2v-37.9c0-1.7,1.4-3.2,3.2-3.2h65.8c1.7,0,3.2,1.4,3.2,3.2v37.9
				C793.7,2566,792.3,2567.5,790.5,2567.5z M727.9,2561.1h59.5v-31.6h-59.5V2561.1z"/>
		</g>
		<g id="Path_110_00000058578694153117351870000003182177799042873776_">
			<path class="st2" d="M790.5,2622.2c-1.7,0-3.2-1.4-3.2-3.2v-33.4h-62.6c-1.7,0-3.2-1.4-3.2-3.2c0-1.7,1.4-3.2,3.2-3.2h65.8
				c1.7,0,3.2,1.4,3.2,3.2v36.6C793.7,2620.8,792.3,2622.2,790.5,2622.2z"/>
		</g>
		<g id="Path_111_00000070094825709270097910000003685846742019497884_">
			<path class="st2" d="M756.8,2585.5c-1.7,0-3.2-1.4-3.2-3.2v-7c0-1.7,1.4-3.2,3.2-3.2c1.7,0,3.2,1.4,3.2,3.2v7
				C760,2584.1,758.5,2585.5,756.8,2585.5z"/>
		</g>
		<g id="Ellipse_4_00000160173151701021271180000005793684926465079177_">
			<circle class="st2" cx="713.4" cy="2495.7" r="4.1"/>
		</g>
	</g>
</g>
</svg>
