<svg width="35" height="35" viewBox="0 0 35 35" fill="none" xmlns="http://www.w3.org/2000/svg">
<path d="M26.2497 32.0835H8.74967C7.13884 32.0835 5.83301 30.7776 5.83301 29.1668V5.83346C5.83301 4.22263 7.13884 2.9168 8.74967 2.9168H18.958C18.9711 2.9151 18.9843 2.9151 18.9974 2.9168H19.0061C19.0199 2.92111 19.0341 2.92404 19.0484 2.92555C19.177 2.93379 19.304 2.9588 19.4261 2.99992H19.448H19.4699H19.4874C19.5143 3.01877 19.5396 3.03974 19.5632 3.06263C19.7221 3.13325 19.8669 3.23207 19.9905 3.3543L28.7405 12.1043C28.8627 12.2279 28.9616 12.3727 29.0322 12.5316C29.0453 12.5637 29.0555 12.5943 29.0657 12.6278L29.0803 12.6687C29.121 12.7903 29.145 12.9169 29.1518 13.0449C29.153 13.0595 29.1565 13.0737 29.162 13.0872V13.096C29.1644 13.1055 29.1658 13.1153 29.1663 13.1251V29.1668C29.1663 29.9403 28.859 30.6822 28.3121 31.2292C27.7651 31.7762 27.0232 32.0835 26.2497 32.0835ZM21.0347 20.4168V27.7085H22.4055V24.7335H24.5347V23.5114H22.4055V21.6433H24.7913V20.4168H21.0347ZM15.6388 20.4168V27.7085H17.3976C18.1354 27.7447 18.8498 27.4444 19.3401 26.8918C19.8431 26.25 20.095 25.4469 20.0488 24.6328V23.4516C20.0826 22.6461 19.8236 21.8555 19.3197 21.2262C18.8452 20.6861 18.1524 20.3887 17.434 20.4168H15.6388ZM10.208 20.4168V27.7085H11.5788V25.1433H12.4918C13.1014 25.177 13.6968 24.9513 14.1309 24.522C14.5452 24.0588 14.7601 23.451 14.7288 22.8303C14.7559 22.1948 14.5412 21.5727 14.128 21.0891C13.7193 20.6358 13.1292 20.3892 12.5195 20.4168H10.208ZM18.958 5.83346V13.1251H26.2497L18.958 5.83346ZM17.4209 26.4864H17.0097V21.6433H17.5084C17.8626 21.6224 18.2031 21.7828 18.4126 22.0691C18.6264 22.5114 18.718 23.0028 18.678 23.4924V24.7597C18.71 25.226 18.6089 25.6918 18.3863 26.1028C18.1473 26.3819 17.7863 26.5253 17.4209 26.4864ZM12.5195 23.9168H11.5774V21.6433H12.5326C12.7711 21.6458 12.9914 21.7709 13.1159 21.9743C13.2737 22.2347 13.3499 22.5364 13.3347 22.8405C13.353 23.1242 13.2776 23.406 13.1203 23.6426C12.9753 23.8247 12.752 23.9265 12.5195 23.9168Z" fill="url(#paint0_linear)"/>
<defs>
<linearGradient id="paint0_linear" x1="6.76348" y1="1.15842" x2="43.7036" y2="14.0433" gradientUnits="userSpaceOnUse">
<stop stop-color="#0ACF83"/>
<stop offset="1" stop-color="#10FF26"/>
</linearGradient>
</defs>
</svg>
