<svg width="19" height="5" viewBox="0 0 19 5" fill="none" xmlns="http://www.w3.org/2000/svg">
<path d="M2.08453 1.51C1.79453 1.51 1.57287 1.61833 1.41953 1.835C1.2662 2.05167 1.18953 2.34833 1.18953 2.725C1.18953 3.105 1.25953 3.4 1.39953 3.61C1.54287 3.81667 1.7712 3.92 2.08453 3.92C2.22787 3.92 2.37287 3.90333 2.51953 3.87C2.6662 3.83667 2.82453 3.79 2.99453 3.73V4.365C2.83787 4.42833 2.68286 4.475 2.52953 4.505C2.3762 4.535 2.20453 4.55 2.01453 4.55C1.64453 4.55 1.3412 4.475 1.10453 4.325C0.867865 4.17167 0.692865 3.95833 0.579532 3.685C0.466198 3.40833 0.409532 3.08667 0.409532 2.72C0.409532 2.36 0.474532 2.04167 0.604532 1.765C0.734532 1.48833 0.922865 1.27167 1.16953 1.115C1.41953 0.958333 1.72453 0.88 2.08453 0.88C2.2612 0.88 2.43787 0.903333 2.61453 0.95C2.79453 0.993333 2.9662 1.05333 3.12953 1.13L2.88453 1.745C2.7512 1.68167 2.6162 1.62667 2.47953 1.58C2.3462 1.53333 2.21453 1.51 2.08453 1.51ZM5.69813 4.5L5.43813 3.65H4.13813L3.87813 4.5H3.06313L4.32313 0.915H5.24813L6.51313 4.5H5.69813ZM5.25813 3.015L4.99813 2.185C4.98146 2.12833 4.95979 2.05667 4.93313 1.97C4.90646 1.88333 4.87979 1.795 4.85313 1.705C4.82646 1.615 4.80479 1.53667 4.78813 1.47C4.77146 1.53667 4.74813 1.62 4.71813 1.72C4.69146 1.81667 4.66479 1.91 4.63813 2C4.61479 2.08667 4.59646 2.14833 4.58313 2.185L4.32813 3.015H5.25813ZM7.76527 0.93C8.25194 0.93 8.61027 1.01833 8.84027 1.195C9.07361 1.37167 9.19027 1.64 9.19027 2C9.19027 2.16333 9.15861 2.30667 9.09527 2.43C9.03527 2.55 8.95361 2.65333 8.85027 2.74C8.75027 2.82333 8.64194 2.89167 8.52527 2.945L9.57527 4.5H8.73527L7.88527 3.13H7.48027V4.5H6.72527V0.93H7.76527ZM7.71027 1.55H7.48027V2.515H7.72527C7.97527 2.515 8.15361 2.47333 8.26027 2.39C8.37027 2.30667 8.42527 2.18333 8.42527 2.02C8.42527 1.85 8.36694 1.73 8.25027 1.66C8.13361 1.58667 7.95361 1.55 7.71027 1.55ZM10.8261 0.93C11.3127 0.93 11.6711 1.01833 11.9011 1.195C12.1344 1.37167 12.2511 1.64 12.2511 2C12.2511 2.16333 12.2194 2.30667 12.1561 2.43C12.0961 2.55 12.0144 2.65333 11.9111 2.74C11.8111 2.82333 11.7027 2.89167 11.5861 2.945L12.6361 4.5H11.7961L10.9461 3.13H10.5411V4.5H9.78605V0.93H10.8261ZM10.7711 1.55H10.5411V2.515H10.7861C11.0361 2.515 11.2144 2.47333 11.3211 2.39C11.4311 2.30667 11.4861 2.18333 11.4861 2.02C11.4861 1.85 11.4277 1.73 11.3111 1.66C11.1944 1.58667 11.0144 1.55 10.7711 1.55ZM16.0868 2.71C16.0868 3.08 16.0252 3.40333 15.9018 3.68C15.7818 3.95333 15.5952 4.16667 15.3418 4.32C15.0918 4.47333 14.7735 4.55 14.3868 4.55C14.0002 4.55 13.6802 4.47333 13.4268 4.32C13.1768 4.16667 12.9902 3.95167 12.8668 3.675C12.7468 3.39833 12.6868 3.075 12.6868 2.705C12.6868 2.335 12.7468 2.01333 12.8668 1.74C12.9902 1.46667 13.1768 1.255 13.4268 1.105C13.6802 0.951667 14.0018 0.875 14.3918 0.875C14.7785 0.875 15.0968 0.951667 15.3468 1.105C15.5968 1.255 15.7818 1.46833 15.9018 1.745C16.0252 2.01833 16.0868 2.34 16.0868 2.71ZM13.4818 2.71C13.4818 3.08333 13.5535 3.37833 13.6968 3.595C13.8402 3.80833 14.0702 3.915 14.3868 3.915C14.7102 3.915 14.9418 3.80833 15.0818 3.595C15.2218 3.37833 15.2918 3.08333 15.2918 2.71C15.2918 2.33667 15.2218 2.04333 15.0818 1.83C14.9418 1.61333 14.7118 1.505 14.3918 1.505C14.0718 1.505 13.8402 1.61333 13.6968 1.83C13.5535 2.04333 13.4818 2.33667 13.4818 2.71ZM17.81 4.5H17.055V1.56H16.085V0.93H18.78V1.56H17.81V4.5Z" fill="#333333"/>
</svg>
