<svg xmlns="http://www.w3.org/2000/svg" width="101" height="100" fill="none" viewBox="0 0 101 100">
    <path fill="#fff" stroke="#BDBDBD" d="M1 50c0-12.512 0-21.854.778-28.851.778-7 2.324-11.544 5.326-14.545 3-3.002 7.544-4.548 14.545-5.326C28.646.501 37.988.5 50.5.5s21.854 0 28.851.778c7 .778 11.544 2.324 14.545 5.326 3.001 3 4.548 7.544 5.326 14.545.777 6.997.778 16.339.778 28.851s0 21.854-.778 28.851c-.778 7-2.325 11.544-5.326 14.545-3 3.001-7.544 4.548-14.545 5.326-6.997.777-16.339.778-28.851.778s-21.854 0-28.851-.778c-7-.778-11.544-2.325-14.545-5.326-3.002-3-4.548-7.544-5.326-14.545C1.001 71.854 1 62.512 1 50z"/>
    <g clip-path="url(#clip0)">
        <path fill="#333" d="M43.145 62H34.63l-2.645-5.677c-.968-2.13-1.484-4.388-1.484-6.71 0-3.42 1.032-6.645 3.097-9.42 1.355-1.87 2.064-4.128 2.064-6.451v-.258c0-1.097-.129-2.194-.451-3.226l-.645-2.322c-.13-.452-.194-.904-.194-1.29v-.13c0-2.516 2-4.516 4.516-4.516s4.516 2 4.516 4.516v.13c0 .386-.064.838-.193 1.225l-.645 2.323c-.323 1.032-.452 2.129-.452 3.225v.258c0 2.323.71 4.581 2.064 6.452.388.516.71 1.032.968 1.548l-1.097.646c-.258-.452-.58-.968-.903-1.42-1.484-2.129-2.322-4.58-2.322-7.161v-.258c0-1.226.193-2.452.516-3.613l.645-2.323c.064-.322.129-.645.129-.903v-.129c0-1.806-1.42-3.226-3.226-3.226s-3.226 1.42-3.226 3.226v.13c0 .322.065.58.13.902l.645 2.323c.322 1.161.516 2.387.516 3.613v.258c0 2.58-.84 5.097-2.323 7.226-1.87 2.451-2.839 5.484-2.839 8.645 0 2.129.452 4.258 1.355 6.193l2.258 4.904h6.904l.774-1.742 1.225.451-.064.258L43.145 62z"/>
        <path fill="#333" d="M41.468 31.032h-5.161v1.29h5.16v-1.29zM41.468 33.613h-5.161v1.29h5.16v-1.29zM41.468 36.194h-5.161v1.29h5.16v-1.29zM34.113 58.322l-.774-1.032c1.806-1.355 2.968-4.322 2.968-7.548s-1.162-6.194-2.968-7.613l.774-1.032c2.13 1.677 3.484 4.967 3.484 8.645 0 3.677-1.355 6.968-3.484 8.58z"/>
        <path fill="#333" d="M35.661 43.935h-3.226v1.29h3.226v-1.29zM36.307 46.516H31.79v1.29h4.517v-1.29zM36.952 49.097h-5.807v1.29h5.807v-1.29zM36.307 51.678H31.79v1.29h4.517v-1.29zM35.661 54.258h-3.226v1.29h3.226v-1.29zM66.37 62h-8.515l-1.162-2.516 1.162-.58.129.257.71 1.613h6.903l2.258-4.968c.903-1.935 1.354-4 1.354-6.193 0-3.161-.967-6.13-2.838-8.645-1.484-2.194-2.323-4.645-2.323-7.226v-.258c0-1.226.194-2.452.516-3.613l.645-2.323c.065-.322.13-.645.13-.903v-.129c0-1.806-1.42-3.226-3.226-3.226-1.807 0-3.226 1.42-3.226 3.226v.13c0 .322.064.58.129.902l.645 2.323c.323 1.161.516 2.387.516 3.613v.258c0 2.58-.839 5.097-2.322 7.226-.323.516-.71.967-.968 1.484l-1.097-.645c.323-.581.645-1.097 1.032-1.678 1.355-1.87 2.065-4.129 2.065-6.452v-.258c0-1.096-.13-2.193-.452-3.225l-.645-2.323c-.129-.387-.194-.839-.194-1.226v-.129c0-2.516 2-4.516 4.517-4.516 2.516 0 4.516 2 4.516 4.516v.13c0 .386-.065.838-.194 1.225l-.645 2.323c-.323 1.032-.452 2.129-.452 3.225v.258c0 2.323.71 4.581 2.065 6.452 2 2.774 3.097 6 3.097 9.42 0 2.322-.516 4.58-1.484 6.71L66.37 62z"/>
        <path fill="#333" d="M64.694 31.032h-5.162v1.29h5.162v-1.29zM64.694 33.613h-5.162v1.29h5.162v-1.29zM64.694 36.194h-5.162v1.29h5.162v-1.29zM66.887 58.323c-2.129-1.613-3.484-4.904-3.484-8.581 0-3.677 1.355-6.968 3.484-8.58l.774 1.032c-1.806 1.354-2.967 4.322-2.967 7.548s1.16 6.194 2.967 7.613l-.774.968z"/>
        <path fill="#333" d="M68.565 43.935h-3.226v1.29h3.226v-1.29zM69.21 46.516h-4.517v1.29h4.517v-1.29zM69.855 49.097h-5.807v1.29h5.807v-1.29zM69.21 51.678h-4.517v1.29h4.517v-1.29zM68.565 54.258h-3.226v1.29h3.226v-1.29z"/>
        <path fill="url(#paint0_linear)" d="M50.5 62c-6.065 0-10.968-4.903-10.968-10.968 0-6.064 4.904-10.967 10.968-10.967 6.065 0 10.968 4.903 10.968 10.967C61.468 57.097 56.564 62 50.5 62z"/>
        <path fill="#333" d="M42.242 52.452c-.065-.452-.13-.968-.13-1.42h1.291c0 .387.065.774.13 1.162l-1.291.258zM50.5 59.42c-3.548 0-6.71-2.259-7.935-5.614l1.225-.451c1.032 2.903 3.678 4.774 6.71 4.774v1.29zM50.5 46.516c-1.097 0-1.935-.838-1.935-1.935s.838-1.936 1.935-1.936 1.935.839 1.935 1.936c0 1.096-.838 1.935-1.935 1.935zm0-2.58c-.387 0-.645.258-.645.645s.258.645.645.645.645-.258.645-.645-.258-.645-.645-.645zM54.371 51.032c-1.097 0-1.936-.838-1.936-1.935s.84-1.936 1.936-1.936c1.097 0 1.935.84 1.935 1.936 0 1.097-.838 1.935-1.935 1.935zm0-2.58c-.387 0-.645.258-.645.645s.258.645.645.645.645-.258.645-.645-.258-.645-.645-.645zM46.629 51.032c-1.097 0-1.936-.838-1.936-1.935s.84-1.936 1.936-1.936c1.097 0 1.935.84 1.935 1.936 0 1.097-.838 1.935-1.935 1.935zm0-2.58c-.387 0-.645.258-.645.645s.258.645.645.645.645-.258.645-.645-.258-.645-.645-.645z"/>
    </g>
    <path fill="#BDBDBD" d="M40.883 82.796h7.378v-2.8h-8.54v.868h7.406v1.092h-7.364v2.94h8.876v-.882h-7.756v-1.218zm.112-8.064H47.1v1.204h-6.104v-1.204zm3.612 3.29v-1.204h3.626v-4.144H47.1v1.19h-6.104v-1.19h-1.134v4.144h3.598v1.204h-5.11v.924h11.368v-.924h-5.11zm16.939-5.544h-1.148v7.728h1.148v-7.728zm-2.674 5.628c-1.988.322-3.626.392-5.852.392v-1.764h4.55v-3.472h-5.712v.938h4.578v1.652H51.9v3.584h1.008c2.324 0 4.032-.07 6.09-.406l-.126-.924zm-1.484 6.006c-1.904 0-3.052-.504-3.052-1.372 0-.854 1.148-1.358 3.052-1.358 1.932 0 3.08.504 3.08 1.358 0 .868-1.148 1.372-3.08 1.372zm0-3.64c-2.604 0-4.2.826-4.2 2.268 0 1.456 1.596 2.282 4.2 2.282 2.618 0 4.228-.826 4.228-2.282 0-1.442-1.61-2.268-4.228-2.268z"/>
    <defs>
        <linearGradient id="paint0_linear" x1="40.407" x2="73.137" y1="38.743" y2="53.014" gradientUnits="userSpaceOnUse">
            <stop stop-color="#0ACF83"/>
            <stop offset="1" stop-color="#10FF26"/>
        </linearGradient>
        <clipPath id="clip0">
            <path fill="#fff" d="M0 0H40V40H0z" transform="translate(30.5 22)"/>
        </clipPath>
    </defs>
</svg>
