<svg width="79" height="79" viewBox="0 0 79 79" fill="none" xmlns="http://www.w3.org/2000/svg">
<path d="M0.75 39.1883C0.75 29.3729 0.751113 22.0749 1.35773 16.6154C1.96496 11.1503 3.16547 7.69227 5.42887 5.42887C7.69227 3.16547 11.1503 1.96496 16.6154 1.35773C22.0749 0.751113 29.3729 0.75 39.1883 0.75C49.0037 0.75 56.3017 0.751113 61.7612 1.35773C67.2263 1.96496 70.6843 3.16547 72.9477 5.42887C75.2111 7.69227 76.4117 11.1503 77.0189 16.6154C77.6255 22.0749 77.6266 29.3729 77.6266 39.1883C77.6266 49.0037 77.6255 56.3017 77.0189 61.7612C76.4117 67.2263 75.2111 70.6843 72.9477 72.9477C70.6843 75.2111 67.2263 76.4117 61.7612 77.0189C56.3017 77.6255 49.0037 77.6266 39.1883 77.6266C29.3729 77.6266 22.0749 77.6255 16.6154 77.0189C11.1503 76.4117 7.69227 75.2111 5.42887 72.9477C3.16547 70.6843 1.96496 67.2263 1.35773 61.7612C0.751113 56.3017 0.75 49.0037 0.75 39.1883Z" fill="white" stroke="url(#paint0_linear)" stroke-width="1.5"/>
<defs>
<linearGradient id="paint0_linear" x1="6.99791" y1="8.81736" x2="84.8341" y2="26.8444" gradientUnits="userSpaceOnUse">
<stop stop-color="#46FF42"/>
<stop offset="1" stop-color="#3FFFA3"/>
</linearGradient>
</defs>
</svg>
