<svg width="78" height="79" viewBox="0 0 78 79" fill="none" xmlns="http://www.w3.org/2000/svg">
<path d="M0.876465 39.1883C0.876465 29.3791 0.877191 22.0642 1.47913 16.5872C2.08154 11.106 3.27728 7.57539 5.57724 5.25015C7.87611 2.92602 11.3656 1.71798 16.7851 1.10919C22.2015 0.500758 29.4359 0.5 39.1388 0.5C48.8417 0.5 56.0761 0.500758 61.4925 1.10919C66.912 1.71798 70.4015 2.92602 72.7004 5.25015C75.0003 7.57539 76.1961 11.106 76.7985 16.5872C77.4004 22.0642 77.4011 29.3791 77.4011 39.1883C77.4011 48.9975 77.4004 56.3124 76.7985 61.7894C76.1961 67.2706 75.0003 70.8012 72.7004 73.1265C70.4015 75.4506 66.912 76.6586 61.4925 77.2674C56.0761 77.8759 48.8417 77.8766 39.1388 77.8766C29.4359 77.8766 22.2015 77.8759 16.7851 77.2674C11.3656 76.6586 7.87611 75.4506 5.57724 73.1265C3.27728 70.8012 2.08154 67.2706 1.47913 61.7894C0.877191 56.3124 0.876465 48.9975 0.876465 39.1883Z" fill="white" stroke="#BDBDBD"/>
</svg>
