<svg width="40" height="46" viewBox="0 0 40 46" fill="none" xmlns="http://www.w3.org/2000/svg">
<path d="M11.8948 32.4695C12.2533 31.9524 12.9631 31.8238 13.4802 32.1824C13.9973 32.5409 14.1259 33.2507 13.7674 33.7678L9.09342 40.5092C8.7349 41.0263 8.02506 41.1548 7.50796 40.7963C6.99086 40.4378 6.86231 39.7279 7.22083 39.2108L11.8948 32.4695Z" fill="#333333"/>
<path d="M20.1567 21.3525L21.2803 22.1315L13.4904 33.3671L12.3668 32.5881L20.1567 21.3525Z" fill="#333333"/>
<path fill-rule="evenodd" clip-rule="evenodd" d="M18.6035 16.3936L20.1768 22.4753L26.424 21.8157L18.6035 16.3936ZM19.7665 18.0582L20.6803 21.7507L24.4587 21.3115L19.7665 18.0582Z" fill="#333333"/>
<path d="M21.6794 7.15807C24.0456 3.7452 28.7305 2.89673 32.1434 5.26297C35.5563 7.62922 36.4048 12.3141 34.0385 15.727L31.9612 18.7231C29.595 22.136 24.9101 22.9845 21.4972 20.6182C18.0843 18.252 17.2359 13.5671 19.6021 10.1542L21.6794 7.15807Z" fill="white"/>
<path fill-rule="evenodd" clip-rule="evenodd" d="M21.162 6.79948C23.7264 3.10086 28.8035 2.18136 32.5021 4.74572C36.2007 7.31008 37.1202 12.3872 34.5559 16.0858L32.4786 19.082C29.9142 22.7806 24.8371 23.7001 21.1384 21.1357C17.4398 18.5714 16.5203 13.4942 19.0847 9.79562L21.162 6.79948ZM31.7847 5.78049C28.6575 3.61236 24.3649 4.38979 22.1968 7.51692L20.1195 10.5131C17.9513 13.6402 18.7288 17.9328 21.8559 20.101C24.983 22.2691 29.2757 21.4917 31.4438 18.3645L33.5211 15.3684C35.6892 12.2413 34.9118 7.94862 31.7847 5.78049Z" fill="#333333"/>
<mask id="mask0" style="mask-type:alpha" maskUnits="userSpaceOnUse" x="18" y="3" width="18" height="19">
<path d="M21.6794 7.15807C24.0456 3.7452 28.7305 2.89673 32.1434 5.26297C35.5563 7.62922 36.4048 12.3141 34.0385 15.727L31.9612 18.7231C29.595 22.136 24.9101 22.9845 21.4972 20.6182C18.0843 18.252 17.2359 13.5671 19.6021 10.1542L21.6794 7.15807Z" fill="#C4C4C4"/>
</mask>
<g mask="url(#mask0)">
<path fill-rule="evenodd" clip-rule="evenodd" d="M24.2462 -5.52598L45.0155 8.87401L44.4637 9.66999L42.7877 8.508L41.2831 10.6781L42.9585 11.8397L42.4066 12.6357L40.7312 11.4741L39.6367 13.0528L41.3146 14.2161L40.7627 15.012L39.0848 13.8487L37.5796 16.0198L39.255 17.1814L38.7031 17.9774L37.0277 16.8158L35.934 18.3932L37.6095 19.5548L37.0576 20.3507L35.3822 19.1891L33.8769 21.3602L35.5548 22.5235L35.0029 23.3195L33.325 22.1562L32.2314 23.7336L33.9093 24.8969L33.3574 25.6928L31.6795 24.5295L30.1734 26.7018L31.8488 27.8634L31.2969 28.6594L29.6215 27.4978L28.5279 29.0752L30.2033 30.2368L29.6514 31.0328L8.88204 16.6328L9.43392 15.8368L11.1161 17.0031L12.2098 15.4257L10.5276 14.2594L11.0794 13.4634L12.7617 14.6298L14.2678 12.4575L12.588 11.2929L13.1399 10.4969L14.8196 11.6615L15.9133 10.0841L14.2335 8.91948L14.7854 8.1235L16.4652 9.28812L17.9704 7.11708L16.2882 5.95074L16.8401 5.15476L18.5223 6.3211L19.6159 4.7437L17.9337 3.57737L18.4856 2.78139L20.1678 3.94772L21.6731 1.77668L19.9933 0.612052L20.5452 -0.183928L22.2249 0.980695L23.3195 -0.597931L21.6372 -1.76426L22.1891 -2.56024L23.8713 -1.39391L25.376 -3.56406L23.6943 -4.73L24.2462 -5.52598ZM28.1299 28.7992L29.2236 27.2219L27.7297 26.1862L26.6361 27.7636L28.1299 28.7992ZM29.7754 26.4259L31.2815 24.2536L29.7877 23.2179L28.2816 25.3902L29.7754 26.4259ZM31.8334 23.4576L32.9271 21.8802L31.4333 20.8445L30.3396 22.4219L31.8334 23.4576ZM33.4789 21.0842L34.9842 18.9132L33.4904 17.8775L31.9851 20.0485L33.4789 21.0842ZM35.5361 18.1172L36.6297 16.5398L35.1359 15.5041L34.0423 17.0815L35.5361 18.1172ZM37.1816 15.7438L38.6868 13.5728L37.193 12.5371L35.6878 14.7081L37.1816 15.7438ZM39.2387 12.7768L40.3332 11.1982L38.8394 10.1625L37.7449 11.7411L39.2387 12.7768ZM40.8851 10.4022L42.3897 8.23206L40.8959 7.19637L39.3913 9.36651L40.8851 10.4022ZM38.5336 5.55854L40.4979 6.92043L38.9933 9.09057L37.029 7.72869L38.5336 5.55854ZM36.4771 8.52467L38.4414 9.88655L37.3469 11.4652L35.3826 10.1033L36.4771 8.52467ZM34.8308 10.8993L36.795 12.2612L35.2898 14.4322L33.3255 13.0703L34.8308 10.8993ZM32.7736 13.8663L34.7379 15.2282L33.6443 16.8056L31.68 15.4437L32.7736 13.8663ZM31.1281 16.2397L33.0924 17.6016L31.5871 19.7726L29.6229 18.4107L31.1281 16.2397ZM29.071 19.2067L31.0353 20.5686L29.9416 22.146L27.9773 20.7841L29.071 19.2067ZM27.4255 21.5801L29.3897 22.942L27.8836 25.1142L25.9194 23.7524L27.4255 21.5801ZM25.3675 24.5483L27.3318 25.9102L26.2381 27.4876L24.2738 26.1257L25.3675 24.5483ZM23.8758 25.8498L24.9695 24.2724L23.4769 23.2376L22.3833 24.8149L23.8758 25.8498ZM25.5214 23.4764L27.0275 21.3041L25.5349 20.2693L24.0288 22.4416L25.5214 23.4764ZM27.5793 20.5082L28.673 18.9308L27.1804 17.8959L26.0868 19.4733L27.5793 20.5082ZM29.2249 18.1348L30.7301 15.9637L29.2376 14.9289L27.7323 17.0999L29.2249 18.1348ZM31.282 15.1678L32.3756 13.5904L30.8831 12.5555L29.7894 14.1329L31.282 15.1678ZM32.9275 12.7944L34.4328 10.6233L32.9402 9.5885L31.435 11.7595L32.9275 12.7944ZM34.9846 9.82735L36.0792 8.24873L34.5866 7.21389L33.4921 8.79252L34.9846 9.82735ZM36.631 7.45275L38.1357 5.2826L36.6431 4.24777L35.1385 6.41791L36.631 7.45275ZM34.2808 2.60994L36.2451 3.97183L34.7405 6.14197L32.7762 4.78009L34.2808 2.60994ZM32.2243 5.57607L34.1886 6.93795L33.0941 8.51658L31.1298 7.15469L32.2243 5.57607ZM30.5779 7.95067L32.5422 9.31256L31.037 11.4836L29.0727 10.1217L30.5779 7.95067ZM28.5208 10.9177L30.4851 12.2796L29.3914 13.857L27.4272 12.4951L28.5208 10.9177ZM26.8753 13.2911L28.8396 14.653L27.3343 16.824L25.37 15.4621L26.8753 13.2911ZM24.8182 16.2581L26.7824 17.62L25.6888 19.1974L23.7245 17.8355L24.8182 16.2581ZM23.1726 18.6315L25.1369 19.9934L23.6308 22.1656L21.6665 20.8038L23.1726 18.6315ZM21.1147 21.5997L23.0789 22.9616L21.9853 24.539L20.021 23.1771L21.1147 21.5997ZM19.623 22.9012L20.7167 21.3238L19.2241 20.289L18.1305 21.8663L19.623 22.9012ZM21.2685 20.5278L22.7746 18.3555L21.2821 17.3207L19.776 19.493L21.2685 20.5278ZM23.3265 17.5596L24.4202 15.9822L22.9276 14.9473L21.834 16.5247L23.3265 17.5596ZM24.9721 15.1862L26.4773 13.0151L24.9847 11.9803L23.4795 14.1513L24.9721 15.1862ZM27.0292 12.2192L28.1228 10.6418L26.6303 9.60692L25.5366 11.1843L27.0292 12.2192ZM28.6747 9.84578L30.18 7.67473L28.6874 6.6399L27.1821 8.81094L28.6747 9.84578ZM30.7318 6.87875L31.8263 5.30013L30.3338 4.26529L29.2393 5.84392L30.7318 6.87875ZM32.3782 4.50415L33.8828 2.334L32.3903 1.29917L30.8856 3.46931L32.3782 4.50415ZM30.028 -0.338659L31.9923 1.02323L30.4877 3.19337L28.5234 1.83149L30.028 -0.338659ZM27.9715 2.62747L29.9358 3.98935L28.8413 5.56798L26.877 4.20609L27.9715 2.62747ZM26.3251 5.00207L28.2894 6.36396L26.7841 8.53501L24.8199 7.17312L26.3251 5.00207ZM24.268 7.9691L26.2323 9.33099L25.1386 10.9084L23.1743 9.54649L24.268 7.9691ZM22.6225 10.3425L24.5867 11.7044L23.0815 13.8754L21.1172 12.5135L22.6225 10.3425ZM20.5653 13.3095L22.5296 14.6714L21.436 16.2488L19.4717 14.8869L20.5653 13.3095ZM18.9198 15.6829L20.8841 17.0448L19.378 19.217L17.4137 17.8551L18.9198 15.6829ZM16.8618 18.6511L18.8261 20.013L17.7325 21.5904L15.7682 20.2285L16.8618 18.6511ZM25.7739 -3.28812L24.2693 -1.11797L26.2348 0.244772L27.7395 -1.92537L25.7739 -3.28812ZM23.7174 -0.321993L22.6229 1.25663L24.5884 2.61938L25.683 1.04075L23.7174 -0.321993ZM22.0711 2.05261L20.5658 4.22366L22.5313 5.5864L24.0366 3.41536L22.0711 2.05261ZM20.0139 5.01964L18.9203 6.59703L20.8858 7.95978L21.9795 6.38239L20.0139 5.01964ZM18.3684 7.39301L16.8632 9.56406L18.8287 10.9268L20.3339 8.75576L18.3684 7.39301ZM16.3113 10.36L15.2176 11.9374L17.1831 13.3002L18.2768 11.7228L16.3113 10.36ZM14.6658 12.7334L13.1597 14.9057L15.1252 16.2684L16.6313 14.0962L14.6658 12.7334ZM12.6078 15.7017L11.5141 17.2791L13.4796 18.6418L14.5733 17.0644L12.6078 15.7017ZM15.3702 19.9526L13.8776 18.9177L14.9713 17.3404L16.4639 18.3752L15.3702 19.9526ZM17.0157 17.5792L15.5232 16.5444L17.0293 14.3721L18.5218 15.4069L17.0157 17.5792ZM19.0737 14.611L17.5811 13.5761L18.6748 11.9987L20.1674 13.0336L19.0737 14.611ZM20.7192 12.2376L19.2267 11.2027L20.7319 9.0317L22.2245 10.0665L20.7192 12.2376ZM22.7764 9.27055L21.2838 8.23572L22.3774 6.65832L23.87 7.69316L22.7764 9.27055ZM24.4219 6.89718L22.9293 5.86234L24.4346 3.6913L25.9271 4.72613L24.4219 6.89718ZM26.479 3.93015L24.9864 2.89532L26.0809 1.31669L27.5735 2.35153L26.479 3.93015ZM28.1254 1.55555L26.6328 0.52071L28.1374 -1.64943L29.63 -0.614597L28.1254 1.55555Z" fill="#333333"/>
</g>
<path d="M16.0681 7.14934C15.2486 7.99443 13.8991 8.01514 13.0541 7.1956C12.209 6.37607 12.1883 5.02662 13.0078 4.18153C13.8273 3.33645 15.1768 3.31573 16.0219 4.13527C16.867 4.95481 16.8877 6.30426 16.0681 7.14934Z" fill="url(#paint0_linear)"/>
<path fill-rule="evenodd" clip-rule="evenodd" d="M13.406 6.83267C14.0507 7.45782 15.08 7.44202 15.7052 6.79738C16.3303 6.15274 16.3145 5.12336 15.6699 4.49821C15.0253 3.87305 13.9959 3.88885 13.3707 4.53349C12.7456 5.17814 12.7614 6.20751 13.406 6.83267ZM13.0541 7.1956C13.8991 8.01514 15.2486 7.99443 16.0681 7.14934C16.8877 6.30426 16.867 4.95481 16.0219 4.13527C15.1768 3.31573 13.8273 3.33645 13.0078 4.18153C12.1883 5.02662 12.209 6.37607 13.0541 7.1956Z" fill="#333333"/>
<path fill-rule="evenodd" clip-rule="evenodd" d="M13.5935 4.74825C13.2949 4.45868 12.8494 4.38151 12.4708 4.55378L7.30295 6.90526C6.71742 7.17169 6.53983 7.89484 6.88743 8.39781C6.77069 9.06923 6.9773 9.78482 7.50341 10.295C8.02342 10.7993 8.73439 10.9855 9.39536 10.8572L9.50669 10.9651C9.39877 11.6297 9.60665 12.3345 10.1266 12.8388C10.6527 13.349 11.3742 13.5335 12.0417 13.3963C12.5551 13.7283 13.2725 13.5286 13.5208 12.9352L15.7126 7.69755C15.8732 7.31383 15.7824 6.87093 15.4838 6.58135L13.5935 4.74825Z" fill="white"/>
<path fill-rule="evenodd" clip-rule="evenodd" d="M14.4818 9.66123L10.5471 5.84547L10.7817 5.60352L14.7165 9.41927L14.4818 9.66123Z" fill="#333333"/>
<path fill-rule="evenodd" clip-rule="evenodd" d="M7.42096 8.28058L7.38552 8.48442C7.29621 8.99808 7.45438 9.54322 7.85537 9.9321C8.25173 10.3165 8.79335 10.459 9.29902 10.3608L9.55797 10.3106L10.048 10.7858L10.0057 11.0461C9.92316 11.5546 10.0823 12.0915 10.4786 12.4759C10.8796 12.8647 11.4293 13.0061 11.9399 12.9011L12.1425 12.8594L12.3163 12.9718C12.5722 13.1373 12.9309 13.0352 13.0545 12.74L15.2462 7.50239C15.3265 7.31053 15.2811 7.08908 15.1318 6.94429L13.2416 5.11119C13.0923 4.9664 12.8695 4.92782 12.6802 5.01395L7.51234 7.36543C7.2211 7.49795 7.13004 7.85962 7.30334 8.11038L7.42096 8.28058ZM9.47953 11.3558C9.49147 11.8963 9.70782 12.4326 10.1266 12.8388C10.6527 13.349 11.3742 13.5335 12.0417 13.3963C12.5551 13.7283 13.2725 13.5286 13.5208 12.9352L15.7126 7.69755C15.8732 7.31383 15.7824 6.87093 15.4838 6.58135L13.5935 4.74825C13.2949 4.45868 12.8494 4.38151 12.4708 4.55378L7.30295 6.90526C6.71742 7.17169 6.53983 7.89484 6.88743 8.39781C6.77069 9.06923 6.9773 9.78482 7.50341 10.295C7.92226 10.7012 8.46499 10.901 9.0057 10.8963C9.0281 10.8961 9.0505 10.8956 9.07289 10.8947C9.18101 10.8903 9.28884 10.8778 9.39536 10.8572L9.50669 10.9651C9.48929 11.0722 9.48011 11.1804 9.4791 11.2885C9.47889 11.311 9.47904 11.3334 9.47953 11.3558Z" fill="#333333"/>
<path d="M23.2947 32.7677C24.1142 31.9226 25.4637 31.9019 26.3087 32.7214C27.1538 33.5409 27.1745 34.8904 26.355 35.7355C25.5355 36.5805 24.186 36.6013 23.3409 35.7817C22.4958 34.9622 22.4751 33.6127 23.2947 32.7677Z" fill="url(#paint1_linear)"/>
<path fill-rule="evenodd" clip-rule="evenodd" d="M25.9568 33.0843C25.3121 32.4592 24.2828 32.475 23.6576 33.1196C23.0324 33.7643 23.0482 34.7936 23.6929 35.4188C24.3375 36.0439 25.3669 36.0281 25.9921 35.3835C26.6172 34.7389 26.6014 33.7095 25.9568 33.0843ZM26.3087 32.7214C25.4636 31.9019 24.1142 31.9226 23.2947 32.7677C22.4751 33.6127 22.4958 34.9622 23.3409 35.7817C24.186 36.6013 25.5355 36.5805 26.355 35.7355C27.1745 34.8904 27.1538 33.5409 26.3087 32.7214Z" fill="#333333"/>
<path fill-rule="evenodd" clip-rule="evenodd" d="M25.7693 35.1687C26.0679 35.4583 26.5134 35.5355 26.892 35.3632L32.0598 33.0117C32.6454 32.7453 32.823 32.0222 32.4754 31.5192C32.5921 30.8478 32.3855 30.1322 31.8594 29.622C31.3394 29.1177 30.6284 28.9315 29.9674 29.0598L29.8561 28.9519C29.964 28.2873 29.7561 27.5825 29.2362 27.0782C28.7101 26.568 27.9885 26.3835 27.3211 26.5207C26.8077 26.1887 26.0903 26.3884 25.842 26.9818L23.6502 32.2194C23.4896 32.6032 23.5804 33.0461 23.879 33.3356L25.7693 35.1687Z" fill="white"/>
<path fill-rule="evenodd" clip-rule="evenodd" d="M24.881 30.2558L28.8157 34.0715L28.5811 34.3135L24.6463 30.4977L24.881 30.2558Z" fill="#333333"/>
<path fill-rule="evenodd" clip-rule="evenodd" d="M31.9418 31.6364L31.9773 31.4326C32.0666 30.9189 31.9084 30.3738 31.5074 29.9849C31.1111 29.6005 30.5694 29.458 30.0638 29.5561L29.8048 29.6064L29.3148 29.1312L29.3571 28.8709C29.4396 28.3624 29.2805 27.8255 28.8842 27.4411C28.4832 27.0523 27.9335 26.9109 27.4229 27.0159L27.2202 27.0576L27.0465 26.9452C26.7906 26.7797 26.4319 26.8818 26.3083 27.177L24.1166 32.4146C24.0363 32.6065 24.0817 32.8279 24.231 32.9727L26.1212 34.8058C26.2705 34.9506 26.4933 34.9892 26.6826 34.903L31.8505 32.5516C32.1417 32.419 32.2328 32.0574 32.0595 31.8066L31.9418 31.6364ZM29.8833 28.5612C29.8713 28.0206 29.655 27.4844 29.2362 27.0782C28.7101 26.568 27.9885 26.3835 27.3211 26.5207C26.8077 26.1887 26.0903 26.3884 25.842 26.9818L23.6502 32.2194C23.4896 32.6032 23.5804 33.0461 23.879 33.3356L25.7693 35.1687C26.0679 35.4583 26.5134 35.5355 26.892 35.3632L32.0598 33.0117C32.6454 32.7453 32.823 32.0222 32.4754 31.5192C32.5921 30.8478 32.3855 30.1322 31.8594 29.622C31.4405 29.2158 30.8978 29.016 30.3571 29.0207C30.3347 29.0209 30.3123 29.0214 30.2899 29.0223C30.1818 29.0267 30.074 29.0392 29.9674 29.0598L29.8561 28.9519C29.8735 28.8448 29.8827 28.7366 29.8837 28.6285C29.8839 28.606 29.8838 28.5836 29.8833 28.5612Z" fill="#333333"/>
<defs>
<linearGradient id="paint0_linear" x1="14.4311" y1="3.26064" x2="16.7877" y2="6.91188" gradientUnits="userSpaceOnUse">
<stop stop-color="#46FF42"/>
<stop offset="1" stop-color="#3FFFA3"/>
</linearGradient>
<linearGradient id="paint1_linear" x1="24.9317" y1="36.6564" x2="22.5751" y2="33.0051" gradientUnits="userSpaceOnUse">
<stop stop-color="#46FF42"/>
<stop offset="1" stop-color="#3FFFA3"/>
</linearGradient>
</defs>
</svg>
