<svg width="32" height="41" viewBox="0 0 32 41" fill="none" xmlns="http://www.w3.org/2000/svg">
<path d="M22.7726 9.08186L16.09 3.37092L9.40737 8.99936L7.83984 8.42185L15.265 0.813369C15.43 0.565864 15.76 0.318359 16.09 0.318359C16.42 0.318359 16.75 0.565864 16.8325 0.813369L24.2577 8.42185L22.7726 9.08186Z" fill="#333333"/>
<path d="M14.4402 17.8269H2.88996C2.39495 17.8269 2.06494 17.4969 2.06494 17.0019V8.75177C2.06494 8.25676 2.39495 7.92676 2.88996 7.92676H14.4402C14.9352 7.92676 15.2652 8.25676 15.2652 8.75177V17.0019C15.2652 17.4969 14.9352 17.8269 14.4402 17.8269Z" fill="url(#paint0_linear)"/>
<path d="M29.2903 17.8269H17.7401C17.245 17.8269 16.915 17.4969 16.915 17.0019V8.75177C16.915 8.25676 17.245 7.92676 17.7401 7.92676H29.2903C29.7853 7.92676 30.1153 8.25676 30.1153 8.75177V17.0019C30.1153 17.4969 29.7853 17.8269 29.2903 17.8269Z" fill="url(#paint1_linear)"/>
<path d="M13.615 21.1262H3.71484V17.8262H5.36488V19.4762H11.965V17.8262H13.615V21.1262Z" fill="#333333"/>
<path d="M16.0899 37.6271C14.7699 37.6271 13.5324 37.1321 12.6249 36.2246L9.7373 33.337L10.8923 32.182L13.7799 35.0695C14.4399 35.6471 15.2649 35.9771 16.0899 35.9771C17.905 35.9771 19.39 34.492 19.39 32.677C19.39 31.7695 19.06 31.027 18.4 30.367L13.1199 25.0868C12.3774 24.3443 11.8823 23.2718 11.8823 22.1993V20.3018H13.5324V22.1993C13.5324 22.8593 13.7799 23.5193 14.2749 23.9318L19.555 29.2119C20.545 30.2019 21.04 31.4395 21.04 32.677C21.04 35.3995 18.8125 37.6271 16.0899 37.6271Z" fill="#333333"/>
<path d="M9.32473 40.1025C7.09719 40.1025 4.95214 39.03 3.63212 37.215L2.9721 36.39C1.32207 34.1624 0.414551 31.4398 0.414551 28.6348C0.414551 25.7472 1.40457 22.8597 3.21961 20.5496L3.87962 19.7246L5.19965 20.7146L4.53963 21.5396C2.9721 23.6022 2.06458 26.0772 2.06458 28.6348C2.06458 31.0273 2.8896 33.4199 4.29213 35.3999L4.95214 36.2249C6.02466 37.6275 7.5922 38.4525 9.32473 38.4525C10.8098 38.4525 12.2123 37.875 13.2023 36.885L13.8623 36.2249L15.0173 37.38L14.3573 38.04C13.0373 39.36 11.2223 40.1025 9.32473 40.1025Z" fill="#333333"/>
<path d="M28.4651 21.1262H18.5649V17.8262H20.215V19.4762H26.8151V17.8262H28.4651V21.1262Z" fill="#333333"/>
<path d="M21.3069 32.1219L18.915 34.5137L20.0818 35.6804L22.4736 33.2886L21.3069 32.1219Z" fill="#333333"/>
<path d="M16.6672 27.4794L15.5122 26.3244L17.8223 24.0143C18.3173 23.5193 18.5648 22.9418 18.5648 22.2818V20.3018H20.2148V22.1993C20.2148 23.2718 19.8023 24.3443 18.9773 25.0868L16.6672 27.4794Z" fill="#333333"/>
<path d="M22.8547 40.102C20.9572 40.102 19.1421 39.3595 17.8221 38.0395L17.1621 37.3795L18.3171 36.2245L18.9771 36.8845C20.0497 37.957 21.3697 38.452 22.8547 38.452C24.5873 38.452 26.2373 37.627 27.2273 36.2245L27.8873 35.3994C29.2899 33.5019 30.1149 31.1094 30.1149 28.6343C30.1149 26.0768 29.2073 23.6017 27.6398 21.6217L26.9798 20.7967L28.2998 19.8066L28.9598 20.6317C30.7749 22.9417 31.7649 25.7468 31.7649 28.7168C31.7649 31.5219 30.8574 34.2444 29.2074 36.472L28.5473 37.297C27.2273 39.0295 25.0823 40.102 22.8547 40.102Z" fill="#333333"/>
<path d="M25.825 24.8399C25.5775 24.4274 25.33 24.0974 25.0825 23.7674L26.4025 22.7773C26.7325 23.1899 27.0626 23.6849 27.3101 24.0974L25.825 24.8399Z" fill="#333333"/>
<path d="M25.9074 35.2347L24.5874 34.2447L25.2474 33.4197C26.2374 32.0171 26.8149 30.3671 26.8149 28.6346C26.8149 27.727 26.6499 26.902 26.4024 25.9945L27.97 25.417C28.3 26.407 28.5475 27.4795 28.5475 28.5521C28.5475 30.6146 27.8875 32.6771 26.6499 34.3272L25.9074 35.2347Z" fill="#333333"/>
<path d="M7.01429 7.92676H5.36426V17.8269H7.01429V7.92676Z" fill="#333333"/>
<path d="M26.8156 7.92676H25.1655V17.8269H26.8156V7.92676Z" fill="#333333"/>
<path d="M30.1153 12.0518H25.9902V13.7018H30.1153V12.0518Z" fill="#333333"/>
<path d="M6.19002 12.0518H2.06494V13.7018H6.19002V12.0518Z" fill="#333333"/>
<path d="M6.35466 24.8394L4.86963 24.0144C5.11713 23.5193 5.44714 23.1068 5.77715 22.6943L7.09718 23.6844C6.84967 24.0144 6.60217 24.4269 6.35466 24.8394Z" fill="#333333"/>
<path d="M6.27239 35.2342L5.61238 34.4092C4.37486 32.7592 3.71484 30.6966 3.71484 28.6341C3.71484 27.5616 3.87985 26.489 4.29235 25.499L5.77738 26.0765C5.52988 26.9016 5.36488 27.7266 5.36488 28.6341C5.36488 30.3666 5.94239 32.0167 6.93241 33.4192L7.59242 34.2442L6.27239 35.2342Z" fill="#333333"/>
<defs>
<linearGradient id="paint0_linear" x1="3.24354" y1="9.04053" x2="15.8535" y2="12.9345" gradientUnits="userSpaceOnUse">
<stop stop-color="#46FF42"/>
<stop offset="1" stop-color="#3FFFA3"/>
</linearGradient>
<linearGradient id="paint1_linear" x1="18.0936" y1="9.04053" x2="30.7036" y2="12.9345" gradientUnits="userSpaceOnUse">
<stop stop-color="#46FF42"/>
<stop offset="1" stop-color="#3FFFA3"/>
</linearGradient>
</defs>
</svg>
