<svg width="32" height="33" viewBox="0 0 32 33" fill="none" xmlns="http://www.w3.org/2000/svg">
<path d="M10.3254 32.3467H3.65075L1.57756 27.897C0.819075 26.2283 0.414551 24.4585 0.414551 22.6381C0.414551 19.9582 1.2236 17.4299 2.8417 15.2556C3.90357 13.7892 4.45979 12.0194 4.45979 10.199V9.99676C4.45979 9.13715 4.35866 8.27753 4.10584 7.46848L3.60018 5.64812C3.49905 5.29417 3.44848 4.94021 3.44848 4.63681V4.53568C3.44848 2.56363 5.01602 0.996094 6.98807 0.996094C8.96013 0.996094 10.5277 2.56363 10.5277 4.53568V4.63681C10.5277 4.94021 10.4771 5.29417 10.376 5.59756L9.87031 7.41792C9.61748 8.22697 9.51635 9.08658 9.51635 9.9462V10.1485C9.51635 11.9688 10.0726 13.7386 11.1344 15.205C11.4378 15.6095 11.6907 16.0141 11.8929 16.4186L11.0333 16.9242C10.8311 16.5703 10.5782 16.1658 10.3254 15.8118C9.16239 14.1431 8.50504 12.2216 8.50504 10.199V9.99676C8.50504 9.03602 8.65674 8.07527 8.90956 7.16509L9.41522 5.34473C9.46578 5.0919 9.51635 4.83908 9.51635 4.63681V4.53568C9.51635 3.11985 8.40391 2.0074 6.98807 2.0074C5.57224 2.0074 4.45979 3.11985 4.45979 4.53568V4.63681C4.45979 4.88964 4.51036 5.0919 4.56093 5.34473L5.06658 7.16509C5.31941 8.07527 5.47111 9.03602 5.47111 9.99676V10.199C5.47111 12.2216 4.81375 14.1937 3.65075 15.8624C2.18435 17.7839 1.42586 20.1604 1.42586 22.6381C1.42586 24.3068 1.77982 25.9755 2.48774 27.4924L4.25753 31.3354H9.66805L10.2748 29.9702L11.2356 30.3241L11.185 30.5264L10.3254 32.3467Z" fill="#333333"/>
<path d="M9.01058 8.0752H4.96533V9.08651H9.01058V8.0752Z" fill="#333333"/>
<path d="M9.01058 10.0977H4.96533V11.109H9.01058V10.0977Z" fill="#333333"/>
<path d="M9.01058 12.1201H4.96533V13.1314H9.01058V12.1201Z" fill="#333333"/>
<path d="M3.24643 29.4649L2.63965 28.6558C4.05548 27.5939 4.96566 25.2679 4.96566 22.7397C4.96566 20.2114 4.05548 17.8854 2.63965 16.7729L3.24643 15.9639C4.9151 17.2786 5.97697 19.8574 5.97697 22.7397C5.97697 25.6219 4.9151 28.2007 3.24643 29.4649Z" fill="#333333"/>
<path d="M4.45992 18.1885H1.93164V19.1998H4.45992V18.1885Z" fill="#333333"/>
<path d="M4.96537 20.2109H1.42578V21.2222H4.96537V20.2109Z" fill="#333333"/>
<path d="M5.47131 22.2334H0.92041V23.2447H5.47131V22.2334Z" fill="#333333"/>
<path d="M4.96537 24.2559H1.42578V25.2672H4.96537V24.2559Z" fill="#333333"/>
<path d="M4.45992 26.2793H1.93164V27.2906H4.45992V26.2793Z" fill="#333333"/>
<path d="M28.5286 32.3467H21.8539L20.9438 30.3747L21.8539 29.9196L21.9551 30.1219L22.5113 31.386H27.9218L29.6916 27.4924C30.3995 25.9755 30.7535 24.3574 30.7535 22.6381C30.7535 20.1604 29.995 17.8344 28.5286 15.8624C27.3656 14.1431 26.7082 12.2216 26.7082 10.199V9.99676C26.7082 9.03602 26.8599 8.07527 27.1128 7.16509L27.6184 5.34473C27.669 5.0919 27.7195 4.83908 27.7195 4.63681V4.53568C27.7195 3.11985 26.6071 2.0074 25.1913 2.0074C23.7754 2.0074 22.663 3.11985 22.663 4.53568V4.63681C22.663 4.88964 22.7136 5.0919 22.7641 5.34473L23.2698 7.16509C23.5226 8.07527 23.6743 9.03602 23.6743 9.99676V10.199C23.6743 12.2216 23.0169 14.1937 21.8539 15.8624C21.6011 16.2669 21.2977 16.6208 21.0955 17.0254L20.2358 16.5197C20.4887 16.0646 20.7415 15.6601 21.0449 15.205C22.1068 13.7386 22.663 11.9688 22.663 10.1485V9.9462C22.663 9.08658 22.5619 8.22697 22.309 7.41792L21.8034 5.59756C21.7022 5.29417 21.6517 4.94021 21.6517 4.63681V4.53568C21.6517 2.56363 23.2192 0.996094 25.1913 0.996094C27.1633 0.996094 28.7309 2.56363 28.7309 4.53568V4.63681C28.7309 4.94021 28.6803 5.29417 28.5792 5.59756L28.0735 7.41792C27.8207 8.22697 27.7195 9.08658 27.7195 9.9462V10.1485C27.7195 11.9688 28.2758 13.7386 29.3376 15.205C30.9052 17.3793 31.7648 19.9076 31.7648 22.5876C31.7648 24.4079 31.3603 26.1777 30.6018 27.8464L28.5286 32.3467Z" fill="#333333"/>
<path d="M27.2142 8.0752H23.1689V9.08651H27.2142V8.0752Z" fill="#333333"/>
<path d="M27.2142 10.0977H23.1689V11.109H27.2142V10.0977Z" fill="#333333"/>
<path d="M27.2142 12.1201H23.1689V13.1314H27.2142V12.1201Z" fill="#333333"/>
<path d="M28.9337 29.4641C27.265 28.2 26.2031 25.6211 26.2031 22.7389C26.2031 19.8567 27.265 17.2778 28.9337 16.0137L29.5405 16.8227C28.1246 17.8846 27.2144 20.2106 27.2144 22.7389C27.2144 25.2672 28.1246 27.5932 29.5405 28.7056L28.9337 29.4641Z" fill="#333333"/>
<path d="M30.2485 18.1885H27.7202V19.1998H30.2485V18.1885Z" fill="#333333"/>
<path d="M30.7539 20.2109H27.2144V21.2222H30.7539V20.2109Z" fill="#333333"/>
<path d="M31.2594 22.2334H26.7085V23.2447H31.2594V22.2334Z" fill="#333333"/>
<path d="M30.7539 24.2559H27.2144V25.2672H30.7539V24.2559Z" fill="#333333"/>
<path d="M30.2485 26.2793H27.7202V27.2906H30.2485V26.2793Z" fill="#333333"/>
<path d="M16.0898 32.3466C11.3366 32.3466 7.49365 28.5036 7.49365 23.7504C7.49365 18.9973 11.3366 15.1543 16.0898 15.1543C20.843 15.1543 24.6859 18.9973 24.6859 23.7504C24.6859 28.5036 20.843 32.3466 16.0898 32.3466Z" fill="url(#paint0_linear)"/>
<path d="M9.61724 24.8634C9.56668 24.5095 9.51611 24.1049 9.51611 23.751H10.5274C10.5274 24.0544 10.578 24.3578 10.6286 24.6612L9.61724 24.8634Z" fill="#333333"/>
<path d="M16.0897 30.3245C13.3086 30.3245 10.8309 28.5547 9.87012 25.9252L10.8309 25.5713C11.6399 27.8467 13.7131 29.3131 16.0897 29.3131V30.3245Z" fill="#333333"/>
<path d="M16.0897 20.2107C15.2301 20.2107 14.5728 19.5533 14.5728 18.6937C14.5728 17.8341 15.2301 17.1768 16.0897 17.1768C16.9493 17.1768 17.6067 17.8341 17.6067 18.6937C17.6067 19.5533 16.9493 20.2107 16.0897 20.2107ZM16.0897 18.1881C15.7863 18.1881 15.5841 18.3903 15.5841 18.6937C15.5841 18.9971 15.7863 19.1994 16.0897 19.1994C16.3931 19.1994 16.5954 18.9971 16.5954 18.6937C16.5954 18.3903 16.3931 18.1881 16.0897 18.1881Z" fill="#333333"/>
<path d="M19.1239 23.7507C18.2643 23.7507 17.6069 23.0934 17.6069 22.2338C17.6069 21.3741 18.2643 20.7168 19.1239 20.7168C19.9835 20.7168 20.6409 21.3741 20.6409 22.2338C20.6409 23.0934 19.9835 23.7507 19.1239 23.7507ZM19.1239 21.7281C18.8205 21.7281 18.6182 21.9304 18.6182 22.2338C18.6182 22.5372 18.8205 22.7394 19.1239 22.7394C19.4273 22.7394 19.6296 22.5372 19.6296 22.2338C19.6296 21.9304 19.4273 21.7281 19.1239 21.7281Z" fill="#333333"/>
<path d="M13.056 23.7507C12.1964 23.7507 11.5391 23.0934 11.5391 22.2338C11.5391 21.3741 12.1964 20.7168 13.056 20.7168C13.9156 20.7168 14.573 21.3741 14.573 22.2338C14.573 23.0934 13.9156 23.7507 13.056 23.7507ZM13.056 21.7281C12.7526 21.7281 12.5504 21.9304 12.5504 22.2338C12.5504 22.5372 12.7526 22.7394 13.056 22.7394C13.3594 22.7394 13.5617 22.5372 13.5617 22.2338C13.5617 21.9304 13.3594 21.7281 13.056 21.7281Z" fill="#333333"/>
<defs>
<linearGradient id="paint0_linear" x1="9.02868" y1="17.0884" x2="26.1024" y2="21.0427" gradientUnits="userSpaceOnUse">
<stop stop-color="#46FF42"/>
<stop offset="1" stop-color="#3FFFA3"/>
</linearGradient>
</defs>
</svg>
