<svg width="59" height="31" viewBox="0 0 59 31" fill="none" xmlns="http://www.w3.org/2000/svg">
<rect x="1.67266" y="15.3426" width="4.71338" height="14.7251" rx="2.3" fill="white" stroke="#333333" stroke-width="1.4" stroke-linecap="round" stroke-linejoin="round"/>
<rect x="48.5423" y="15.3426" width="4.71338" height="14.7251" rx="2.3" fill="white" stroke="#333333" stroke-width="1.4" stroke-linecap="round" stroke-linejoin="round"/>
<mask id="path-3-inside-1" fill="white">
<path fill-rule="evenodd" clip-rule="evenodd" d="M4.7798 6.58008C4.08404 6.58008 3.52002 7.1441 3.52002 7.83986C3.52002 8.53561 4.08404 9.09963 4.7798 9.09963H6.96791C6.98243 9.12502 6.99793 9.1501 7.01441 9.17481L14.2807 20.0692C14.6697 20.6524 15.4611 20.8147 16.0482 20.4315C16.6353 20.0484 16.796 19.265 16.4069 18.6817L10.0159 9.09963H12.4492C13.145 9.09963 13.709 8.53561 13.709 7.83986C13.709 7.1441 13.145 6.58008 12.4492 6.58008H4.7798Z"/>
</mask>
<path fill-rule="evenodd" clip-rule="evenodd" d="M4.7798 6.58008C4.08404 6.58008 3.52002 7.1441 3.52002 7.83986C3.52002 8.53561 4.08404 9.09963 4.7798 9.09963H6.96791C6.98243 9.12502 6.99793 9.1501 7.01441 9.17481L14.2807 20.0692C14.6697 20.6524 15.4611 20.8147 16.0482 20.4315C16.6353 20.0484 16.796 19.265 16.4069 18.6817L10.0159 9.09963H12.4492C13.145 9.09963 13.709 8.53561 13.709 7.83986C13.709 7.1441 13.145 6.58008 12.4492 6.58008H4.7798Z" fill="white"/>
<path d="M6.96791 9.09963L8.18319 8.40459C7.93386 7.96864 7.47012 7.69963 6.96791 7.69963V9.09963ZM7.01441 9.17481L8.17911 8.39798V8.39798L7.01441 9.17481ZM14.2807 20.0692L15.4454 19.2923L14.2807 20.0692ZM16.4069 18.6817L17.5716 17.9049L16.4069 18.6817ZM10.0159 9.09963V7.69963C9.49953 7.69963 9.02509 7.98387 8.78149 8.43916C8.53788 8.89446 8.56468 9.44688 8.8512 9.87646L10.0159 9.09963ZM4.92002 7.83986C4.92002 7.9173 4.85724 7.98008 4.7798 7.98008V5.18008C3.31084 5.18008 2.12002 6.3709 2.12002 7.83986H4.92002ZM4.7798 7.69963C4.85724 7.69963 4.92002 7.76241 4.92002 7.83986H2.12002C2.12002 9.30881 3.31084 10.4996 4.7798 10.4996V7.69963ZM6.96791 7.69963H4.7798V10.4996H6.96791V7.69963ZM5.75263 9.79468C5.78306 9.84789 5.81543 9.90025 5.84971 9.95164L8.17911 8.39798C8.18042 8.39994 8.1818 8.40215 8.18319 8.40459L5.75263 9.79468ZM5.84971 9.95164L13.116 20.846L15.4454 19.2923L8.17911 8.39798L5.84971 9.95164ZM13.116 20.846C13.931 22.068 15.5832 22.4067 16.8133 21.604L15.2831 19.2591C15.3126 19.2399 15.3467 19.2362 15.3713 19.2413C15.396 19.2463 15.4259 19.2631 15.4454 19.2923L13.116 20.846ZM16.8133 21.604C18.0526 20.7953 18.3927 19.1359 17.5716 17.9049L15.2422 19.4585C15.1992 19.394 15.2181 19.3015 15.2831 19.2591L16.8133 21.604ZM17.5716 17.9049L11.1806 8.3228L8.8512 9.87646L15.2422 19.4585L17.5716 17.9049ZM12.4492 7.69963H10.0159V10.4996H12.4492V7.69963ZM12.309 7.83986C12.309 7.76241 12.3718 7.69963 12.4492 7.69963V10.4996C13.9182 10.4996 15.109 9.30881 15.109 7.83986H12.309ZM12.4492 7.98008C12.3718 7.98008 12.309 7.9173 12.309 7.83986H15.109C15.109 6.3709 13.9182 5.18008 12.4492 5.18008V7.98008ZM4.7798 7.98008H12.4492V5.18008H4.7798V7.98008Z" fill="#333333" mask="url(#path-3-inside-1)"/>
<mask id="path-5-inside-2" fill="white">
<path fill-rule="evenodd" clip-rule="evenodd" d="M48.0829 0.533203C47.3872 0.533203 46.8232 1.09722 46.8232 1.79298C46.8232 2.48874 47.3872 3.05276 48.0829 3.05276H51.4083V4.75609L23.5489 15.3169C22.8974 15.5639 22.5734 16.2907 22.8251 16.9404C23.0768 17.5901 23.809 17.9166 24.4605 17.6696L51.4083 7.45433V16.3926C51.4083 17.096 51.9785 17.6662 52.6819 17.6662C53.3853 17.6662 53.9555 17.096 53.9555 16.3926V3.05276H56.7712C57.467 3.05276 58.031 2.48874 58.031 1.79298C58.031 1.09722 57.467 0.533203 56.7712 0.533203H48.0829Z"/>
</mask>
<path fill-rule="evenodd" clip-rule="evenodd" d="M48.0829 0.533203C47.3872 0.533203 46.8232 1.09722 46.8232 1.79298C46.8232 2.48874 47.3872 3.05276 48.0829 3.05276H51.4083V4.75609L23.5489 15.3169C22.8974 15.5639 22.5734 16.2907 22.8251 16.9404C23.0768 17.5901 23.809 17.9166 24.4605 17.6696L51.4083 7.45433V16.3926C51.4083 17.096 51.9785 17.6662 52.6819 17.6662C53.3853 17.6662 53.9555 17.096 53.9555 16.3926V3.05276H56.7712C57.467 3.05276 58.031 2.48874 58.031 1.79298C58.031 1.09722 57.467 0.533203 56.7712 0.533203H48.0829Z" fill="white"/>
<path d="M51.4083 3.05276H52.8083C52.8083 2.27956 52.1815 1.65276 51.4083 1.65276V3.05276ZM51.4083 4.75609L51.9045 6.06519C52.4485 5.85898 52.8083 5.33784 52.8083 4.75609H51.4083ZM23.5489 15.3169L23.0527 14.0078H23.0527L23.5489 15.3169ZM22.8251 16.9404L21.5196 17.4462H21.5196L22.8251 16.9404ZM24.4605 17.6696L24.9567 18.9787H24.9567L24.4605 17.6696ZM51.4083 7.45433H52.8083C52.8083 6.99428 52.5823 6.56359 52.2037 6.30222C51.8251 6.04085 51.3422 5.98216 50.912 6.14524L51.4083 7.45433ZM53.9555 3.05276V1.65276C53.1823 1.65276 52.5555 2.27956 52.5555 3.05276H53.9555ZM48.2232 1.79298C48.2232 1.87042 48.1604 1.9332 48.0829 1.9332V-0.866797C46.614 -0.866797 45.4232 0.324025 45.4232 1.79298H48.2232ZM48.0829 1.65276C48.1604 1.65276 48.2232 1.71554 48.2232 1.79298H45.4232C45.4232 3.26193 46.614 4.45276 48.0829 4.45276V1.65276ZM51.4083 1.65276H48.0829V4.45276H51.4083V1.65276ZM50.0083 3.05276V4.75609H52.8083V3.05276H50.0083ZM50.912 3.44699L23.0527 14.0078L24.0452 16.626L51.9045 6.06519L50.912 3.44699ZM23.0527 14.0078C21.6745 14.5302 20.9871 16.0718 21.5196 17.4462L24.1305 16.4346C24.1596 16.5096 24.1204 16.5975 24.0452 16.626L23.0527 14.0078ZM21.5196 17.4462C22.0493 18.8131 23.586 19.4983 24.9567 18.9787L23.9643 16.3605C24.032 16.3348 24.1043 16.367 24.1305 16.4346L21.5196 17.4462ZM24.9567 18.9787L51.9045 8.76343L50.912 6.14524L23.9642 16.3605L24.9567 18.9787ZM50.0083 7.45433V16.3926H52.8083V7.45433H50.0083ZM50.0083 16.3926C50.0083 17.8692 51.2053 19.0662 52.6819 19.0662V16.2662C52.7517 16.2662 52.8083 16.3228 52.8083 16.3926H50.0083ZM52.6819 19.0662C54.1585 19.0662 55.3555 17.8692 55.3555 16.3926H52.5555C52.5555 16.3228 52.6121 16.2662 52.6819 16.2662V19.0662ZM55.3555 16.3926V3.05276H52.5555V16.3926H55.3555ZM56.7712 1.65276H53.9555V4.45276H56.7712V1.65276ZM56.631 1.79298C56.631 1.71554 56.6938 1.65276 56.7712 1.65276V4.45276C58.2402 4.45276 59.431 3.26193 59.431 1.79298H56.631ZM56.7712 1.9332C56.6938 1.9332 56.631 1.87042 56.631 1.79298H59.431C59.431 0.324025 58.2402 -0.866797 56.7712 -0.866797V1.9332ZM48.0829 1.9332H56.7712V-0.866797H48.0829V1.9332Z" fill="#333333" mask="url(#path-5-inside-2)"/>
<rect x="1.67266" y="15.3426" width="51.5826" height="6.15866" rx="2.3" fill="url(#paint0_linear)" stroke="#333333" stroke-width="1.4" stroke-linecap="round" stroke-linejoin="round"/>
<defs>
<linearGradient id="paint0_linear" x1="5.70324" y1="15.4929" x2="20.9528" y2="40.2494" gradientUnits="userSpaceOnUse">
<stop stop-color="#46FF42"/>
<stop offset="1" stop-color="#3FFFA3"/>
</linearGradient>
</defs>
</svg>
