<svg width="51" height="51" viewBox="0 0 51 51" fill="none" xmlns="http://www.w3.org/2000/svg">
<path d="M11.4788 50.8921C5.2691 50.8921 0.188477 45.8115 0.188477 39.6018C0.188477 33.3921 5.2691 28.3115 11.4788 28.3115C17.6884 28.3115 22.769 33.3921 22.769 39.6018C22.769 45.8115 17.6884 50.8921 11.4788 50.8921Z" fill="url(#paint0_linear)"/>
<path d="M38.3335 36.9398C34.5432 33.1495 32.4464 28.1496 32.4464 22.7464V19.1173C32.4464 9.92382 25.0271 2.5045 15.8336 2.5045C8.09167 2.5045 1.80137 8.7948 1.80137 16.5367C1.80137 21.1335 3.73685 25.5689 7.12393 28.7141L7.6078 29.1173L6.64006 30.4076L6.07555 30.0044C2.36589 26.5367 0.188477 21.698 0.188477 16.5367C0.188477 7.9077 7.20458 0.891602 15.8336 0.891602C25.9142 0.891602 34.0593 9.03673 34.0593 19.1173V22.7464C34.0593 27.6657 35.9948 32.3431 39.4625 35.8108L38.3335 36.9398Z" fill="#333333"/>
<path d="M35.1076 40.1655C31.6399 36.6978 26.9625 34.7623 22.0432 34.7623H20.3496V33.1494H22.0432C27.4464 33.1494 32.4463 35.2462 36.2366 39.0365L35.1076 40.1655Z" fill="#333333"/>
<path d="M45.9953 50.892C44.8663 50.892 43.8179 50.4888 43.0115 49.6823L33.7373 40.4081L39.705 34.4404L48.9792 43.7146C49.7856 44.521 50.1889 45.5694 50.1889 46.6984C50.1889 48.9565 48.2534 50.892 45.9953 50.892Z" fill="url(#paint1_linear)"/>
<path d="M18.0917 31.5364H17.9304V29.9235H18.0111C24.2207 29.9235 29.2207 24.9236 29.2207 18.7945C29.2207 15.8107 28.0917 12.9881 25.9142 10.8914L24.0594 9.03652C21.9627 6.85911 19.1401 5.73008 16.1562 5.73008C10.0272 5.73008 5.02723 10.7301 5.02723 16.8591C5.02723 19.8429 6.15626 22.6655 8.33367 24.7623L10.1885 26.6171C10.753 27.1816 11.3175 27.6655 11.9627 28.0687L11.0756 29.4397C10.3498 28.9558 9.70463 28.3913 9.05948 27.8268L7.20464 25.9719C4.7853 23.5526 3.49498 20.3268 3.49498 16.9397C3.41434 9.84297 9.14012 4.11719 16.1562 4.11719C19.5433 4.11719 22.7691 5.40751 25.1884 7.82685L27.0433 9.68168C29.4626 12.101 30.7529 15.3268 30.7529 18.7139C30.8336 25.8107 25.1078 31.5364 18.0917 31.5364Z" fill="#333333"/>
<path d="M46.1561 47.6656C46.6014 47.6656 46.9625 47.3046 46.9625 46.8592C46.9625 46.4138 46.6014 46.0527 46.1561 46.0527C45.7107 46.0527 45.3496 46.4138 45.3496 46.8592C45.3496 47.3046 45.7107 47.6656 46.1561 47.6656Z" fill="#333333"/>
<path d="M8.25255 8.95605H6.63965V25.085H8.25255V8.95605Z" fill="#333333"/>
<path d="M13.0914 5.73047H11.4785V29.1175H13.0914V5.73047Z" fill="#333333"/>
<path d="M17.9303 5.73047H16.3174V30.5691H17.9303V5.73047Z" fill="#333333"/>
<path d="M22.7691 6.53711H21.1562V29.9241H22.7691V6.53711Z" fill="#333333"/>
<path d="M27.6075 10.5684H25.9946V26.6973H27.6075V10.5684Z" fill="#333333"/>
<path d="M24.3824 7.34277H8.25342V8.95567H24.3824V7.34277Z" fill="#333333"/>
<path d="M28.4143 12.1816H5.02734V13.7945H28.4143V12.1816Z" fill="#333333"/>
<path d="M29.2208 17.0205H5.02734V18.6334H29.2208V17.0205Z" fill="#333333"/>
<path d="M29.2205 21.8594H5.8335V23.4723H29.2205V21.8594Z" fill="#333333"/>
<path d="M25.9947 26.6973H9.86572V28.3102H25.9947V26.6973Z" fill="#333333"/>
<path d="M11.4788 50.8921C5.2691 50.8921 0.188477 45.8115 0.188477 39.6018C0.188477 33.3921 5.2691 28.3115 11.4788 28.3115C17.6884 28.3115 22.769 33.3921 22.769 39.6018C22.769 45.8115 17.6884 50.8921 11.4788 50.8921ZM11.4788 29.9244C6.15619 29.9244 1.80137 34.2792 1.80137 39.6018C1.80137 44.9244 6.15619 49.2792 11.4788 49.2792C16.8013 49.2792 21.1561 44.9244 21.1561 39.6018C21.1561 34.2792 16.8013 29.9244 11.4788 29.9244Z" fill="#333333"/>
<path d="M13.334 42.5849L12.8501 41.0526C13.9791 40.73 15.0275 39.9236 15.592 38.8752C16.7211 36.8591 18.8985 35.6494 21.1565 35.6494V37.2623C19.463 37.2623 17.8501 38.1494 17.0436 39.6817C16.1565 41.0526 14.8662 42.101 13.334 42.5849Z" fill="#333333"/>
<path d="M9.62382 42.5849C8.09157 42.101 6.7206 41.0526 5.91416 39.6817C5.02706 38.1494 3.49481 37.2623 1.80127 37.2623V35.6494C4.05932 35.6494 6.23674 36.8591 7.36576 38.8752C8.01092 40.0042 8.97866 40.73 10.1077 41.1333L9.62382 42.5849Z" fill="#333333"/>
<defs>
<linearGradient id="paint0_linear" x1="2.2046" y1="30.8518" x2="24.6295" y2="36.0455" gradientUnits="userSpaceOnUse">
<stop stop-color="#46FF42"/>
<stop offset="1" stop-color="#3FFFA3"/>
</linearGradient>
<linearGradient id="paint1_linear" x1="35.2062" y1="36.2912" x2="51.5443" y2="40.0752" gradientUnits="userSpaceOnUse">
<stop stop-color="#46FF42"/>
<stop offset="1" stop-color="#3FFFA3"/>
</linearGradient>
</defs>
</svg>
