<svg width="36" height="35" viewBox="0 0 36 35" fill="none" xmlns="http://www.w3.org/2000/svg">
<path d="M24.2364 2.99445L22.498 4.77344L29.4515 11.8894L31.1899 10.1104L24.2364 2.99445Z" fill="url(#paint0_linear)" stroke="#263238" stroke-width="1.5" stroke-miterlimit="10" stroke-linecap="round" stroke-linejoin="round"/>
<path d="M5.11385 22.5521L3.37549 24.3311L10.3289 31.447L12.0673 29.668L5.11385 22.5521Z" fill="url(#paint1_linear)" stroke="#263238" stroke-width="1.5" stroke-miterlimit="10" stroke-linecap="round" stroke-linejoin="round"/>
<path d="M22.4726 4.74512L5.0791 22.5451" stroke="#263238" stroke-width="1.5" stroke-miterlimit="10" stroke-linecap="round" stroke-linejoin="round"/>
<path d="M12.9449 28.7719L12.0229 29.6525L29.4164 11.8525" stroke="#263238" stroke-width="1.5" stroke-miterlimit="10" stroke-linecap="round" stroke-linejoin="round"/>
<path d="M32.0599 9.21144L31.1995 10.092L32.736 8.51957C33.3506 7.89059 33.3506 6.88423 32.736 6.31816L27.9421 1.41216C27.3274 0.783186 26.3441 0.783186 25.7909 1.41216L25.1148 2.10403L24.2544 2.9846" stroke="#263238" stroke-width="1.5" stroke-miterlimit="10" stroke-linecap="round" stroke-linejoin="round"/>
<path d="M3.35783 24.3066L1.82131 25.8791C1.2067 26.508 1.2067 27.5144 1.82131 28.0805L6.61527 32.9865C7.22988 33.6155 8.21325 33.6155 8.7664 32.9865L10.3029 31.4769" stroke="#263238" stroke-width="1.5" stroke-miterlimit="10" stroke-linecap="round" stroke-linejoin="round"/>
<path d="M31.8136 11.2236L30.5229 12.5445L31.8136 13.8653C32.2439 14.3056 32.4282 14.8088 32.4282 15.4378C32.4282 16.0038 32.1824 16.5699 31.8136 17.0102L23.0247 26.0045C22.7789 26.2561 22.4715 26.4448 22.1642 26.5077L14.1743 29.2123L11.2856 32.1685L22.7174 28.3317C23.332 28.143 23.8237 27.7656 24.2539 27.3254L33.1043 18.2681C33.8418 17.5134 34.2721 16.4441 34.2721 15.3749C34.2721 14.3056 33.8418 13.2363 33.1043 12.4816L31.8136 11.2236Z" fill="url(#paint2_linear)"/>
<path d="M30.5234 12.5449L31.8141 13.8658C32.2443 14.306 32.4287 14.8092 32.4287 15.4382C32.4287 16.0043 32.1829 16.5704 31.8141 17.0106L23.0252 26.005C22.7793 26.2566 22.472 26.4452 22.1647 26.5081L14.1748 29.2127" stroke="#263238" stroke-width="1.5" stroke-miterlimit="10" stroke-linecap="round" stroke-linejoin="round"/>
<path d="M11.2251 32.2942L22.7183 28.3317C23.3329 28.143 23.8246 27.7656 24.2548 27.3254L33.1052 18.2681C33.8427 17.5134 34.273 16.4441 34.273 15.3749C34.273 14.3056 33.8427 13.2363 33.1052 12.4816L31.8145 11.2236" stroke="#263238" stroke-width="1.5" stroke-miterlimit="10" stroke-linecap="round" stroke-linejoin="round"/>
<path d="M12.0224 6.00391H9.56396" stroke="#263238" stroke-width="1.5" stroke-miterlimit="10" stroke-linecap="round" stroke-linejoin="round"/>
<path d="M10.7935 4.74512V7.26101" stroke="#263238" stroke-width="1.5" stroke-miterlimit="10" stroke-linecap="round" stroke-linejoin="round"/>
<path d="M8.33539 8.83398H5.87695" stroke="#263238" stroke-width="1.5" stroke-miterlimit="10" stroke-linecap="round" stroke-linejoin="round"/>
<path d="M7.10645 7.57617V10.0921" stroke="#263238" stroke-width="1.5" stroke-miterlimit="10" stroke-linecap="round" stroke-linejoin="round"/>
<path d="M5.56955 0.97168H4.34033" stroke="#263238" stroke-width="1.5" stroke-miterlimit="10" stroke-linecap="round" stroke-linejoin="round"/>
<path d="M19.0915 0.97168H6.79932" stroke="#263238" stroke-width="1.5" stroke-miterlimit="10" stroke-linecap="round" stroke-linejoin="round"/>
<path d="M33.6572 33.6787H34.8865" stroke="#263238" stroke-width="1.5" stroke-miterlimit="10" stroke-linecap="round" stroke-linejoin="round"/>
<path d="M20.1357 33.6787H32.4279" stroke="#263238" stroke-width="1.5" stroke-miterlimit="10" stroke-linecap="round" stroke-linejoin="round"/>
<path d="M6.85986 22.5459H17.2468" stroke="#263238" stroke-width="1.5" stroke-miterlimit="10" stroke-linecap="round" stroke-linejoin="round"/>
<path d="M17.2471 11.8525H27.6954" stroke="#263238" stroke-width="1.5" stroke-miterlimit="10" stroke-linecap="round" stroke-linejoin="round"/>
<path d="M17.2471 11.8525V22.5451" stroke="#263238" stroke-width="1.5" stroke-miterlimit="10" stroke-linecap="round" stroke-linejoin="round"/>
<defs>
<linearGradient id="paint0_linear" x1="23.4355" y1="5.41514" x2="25.3925" y2="3.71221" gradientUnits="userSpaceOnUse">
<stop stop-color="#46FF42"/>
<stop offset="1" stop-color="#3FFFA3"/>
</linearGradient>
<linearGradient id="paint1_linear" x1="4.31296" y1="24.9728" x2="6.26991" y2="23.2698" gradientUnits="userSpaceOnUse">
<stop stop-color="#46FF42"/>
<stop offset="1" stop-color="#3FFFA3"/>
</linearGradient>
<linearGradient id="paint2_linear" x1="13.338" y1="13.5799" x2="35.9308" y2="19.3225" gradientUnits="userSpaceOnUse">
<stop stop-color="#46FF42"/>
<stop offset="1" stop-color="#3FFFA3"/>
</linearGradient>
</defs>
</svg>
