<svg xmlns="http://www.w3.org/2000/svg" width="101" height="100" fill="none" viewBox="0 0 101 100">
    <path fill="#fff" stroke="#BDBDBD" d="M1 50c0-12.512 0-21.854.778-28.851.778-7 2.324-11.544 5.326-14.545 3-3.002 7.544-4.548 14.545-5.326C28.646.501 37.988.5 50.5.5s21.854 0 28.851.778c7 .778 11.544 2.324 14.545 5.326 3.001 3 4.548 7.544 5.326 14.545.777 6.997.778 16.339.778 28.851s0 21.854-.778 28.851c-.778 7-2.325 11.544-5.326 14.545-3 3.001-7.544 4.548-14.545 5.326-6.997.777-16.339.778-28.851.778s-21.854 0-28.851-.778c-7-.778-11.544-2.325-14.545-5.326-3.002-3-4.548-7.544-5.326-14.545C1.001 71.854 1 62.512 1 50z"/>
    <path fill="#333" d="M67.92 60h-.646c-.903 0-1.806-.194-2.58-.58-.775.386-1.678.58-2.581.58H55.66c-.903 0-1.806-.194-2.58-.58-.775.386-1.678.58-2.581.58h-.645c-.904 0-1.807-.194-2.581-.58-.774.386-1.677.58-2.58.58h-5.807c-.903 0-1.807-.194-2.58-.58-.775.386-1.678.58-2.581.58v-1.29c.774 0 1.483-.194 2.129-.517l.451-.193.452.194c.645.322 1.42.516 2.129.516h5.806c.775 0 1.484-.194 2.13-.517l.451-.193.452.194c.645.322 1.419.516 2.129.516h.645c.774 0 1.484-.194 2.129-.517L53.08 58l.452.194c.645.322 1.42.516 2.13.516h6.45c.775 0 1.485-.194 2.13-.517l.451-.193.452.194c.645.322 1.42.516 2.129.516h.645V60z"/>
    <path fill="url(#paint0_linear)" d="M49.21 48.387l-.646-1.936-1.935.646 5.806-12.904.645 1.936 1.936-.645-5.806 12.903z"/>
    <path fill="url(#paint1_linear)" d="M51.79 48.387l.645-1.936 1.936.646-5.806-12.904-.646 1.936-1.935-.645 5.806 12.903z"/>
    <path fill="#333" d="M49.933 45.489l-6.457 13.574 1.165.554 6.458-13.574-1.166-.554zM53.016 42l-1.162-.58.904-1.872c2.387-5.032 5.225-10 8.322-14.645.258-.387.387-.838.387-1.29 0-1.29-1.032-2.323-2.322-2.323-1.033 0-1.936.646-2.258 1.613l-.387 1.355c-1.42 4.58-3.162 9.161-5.162 13.549l-.258.516-1.161-.517.258-.516c2-4.322 3.677-8.838 5.097-13.419l.387-1.355C56.177 21.032 57.53 20 59.145 20c2 0 3.613 1.613 3.613 3.613 0 .71-.194 1.42-.581 2-3.097 4.645-5.871 9.484-8.258 14.516L53.016 42zM41.403 59.613l-1.161-.516 7.806-17.162 1.161.581-.064.13-7.742 16.967z"/>
    <path fill="#333" d="M58.887 24.516c.356 0 .645-.289.645-.645 0-.356-.289-.645-.645-.645-.356 0-.645.289-.645.645 0 .356.289.645.645.645zM56.37 59.613l-9.29-19.484c-2.387-5.032-5.16-9.87-8.258-14.516-.387-.58-.58-1.29-.58-2 0-2 1.613-3.613 3.613-3.613 1.613 0 2.967 1.032 3.484 2.516l.387 1.355c1.419 4.58 3.16 9.097 5.096 13.42l9.936 21.806-1.162.516-9.935-21.806c-2-4.388-3.742-8.968-5.161-13.549l-.387-1.355c-.323-.967-1.226-1.613-2.258-1.613-1.29 0-2.323 1.033-2.323 2.323 0 .451.13.903.387 1.29 3.097 4.645 5.936 9.613 8.323 14.645l9.29 19.484-1.161.58z"/>
    <path fill="#333" d="M42.112 24.516c.357 0 .646-.289.646-.645 0-.356-.29-.645-.646-.645-.356 0-.645.289-.645.645 0 .356.29.645.645.645zM67.284 20.51l-5.807 38.726 1.276.191 5.807-38.726-1.276-.192z"/>
    <path fill="#333" d="M67.79 33.548l-.839-.193c-2.774-.71-4.451-3.42-3.87-6.194.322-1.42 1.16-2.58 2.386-3.355 1.226-.774 2.646-.967 4.065-.645l.452.065-.258 1.29-.517-.129c-1.032-.258-2.129-.064-3.032.452-.903.58-1.548 1.484-1.806 2.516-.452 2.129.838 4.193 2.903 4.71l.839.193-.323 1.29zM60.944 50.12l-.213 1.273 5.155.859.212-1.273-5.154-.859zM33.722 20.573l-1.276.19 5.807 38.727 1.276-.19-5.807-38.727z"/>
    <path fill="#333" d="M33.21 33.548l-.258-1.29.774-.194c2.064-.516 3.355-2.58 2.903-4.71-.258-1.031-.839-1.935-1.806-2.515-.84-.58-1.936-.71-2.968-.452l-.58.13-.259-1.291.516-.13c1.42-.322 2.839-.128 4.065.646 1.226.774 2.064 1.935 2.387 3.355.58 2.774-1.097 5.484-3.871 6.193l-.903.258zM40.032 50.1l-5.155.858.212 1.273 5.154-.858-.211-1.272zM42.113 38.065h-1.29v1.29h1.29v-1.29zM40.822 39.355h-1.29v1.29h1.29v-1.29zM42.113 40.645h-1.29v1.29h1.29v-1.29zM43.403 39.355h-1.29v1.29h1.29v-1.29zM62.113 34.194h-1.29v1.29h1.29v-1.29zM60.822 35.484h-1.29v1.29h1.29v-1.29zM62.113 36.774h-1.29v1.29h1.29v-1.29zM63.403 35.484h-1.29v1.29h1.29v-1.29zM51.145 21.936h-1.29v1.29h1.29v-1.29zM49.855 23.226h-1.29v1.29h1.29v-1.29zM51.145 24.516h-1.29v1.29h1.29v-1.29zM52.435 23.226h-1.29v1.29h1.29v-1.29zM70.5 58.71h-1.29V60h1.29v-1.29zM33.726 58.71h-.645V60h.645v-1.29zM31.79 58.71H30.5V60h1.29v-1.29z"/>
    <path fill="#BDBDBD" d="M49.185 77.792c-2.198-.42-4.578-2.324-4.578-4.466v-.966h-1.204v.966c0 2.142-2.366 4.032-4.564 4.466l.518.952c1.89-.448 3.85-1.792 4.648-3.626.798 1.848 2.758 3.192 4.662 3.626l.518-.952zm-10.822 3.612v.952h11.382v-.952H38.363zM52.18 72.78v.938h4.606c-.056.77-.168 1.498-.406 2.198l-4.844.322.196 1.008 4.284-.406c-.77 1.68-2.212 3.122-4.522 4.242l.616.91c4.508-2.226 5.81-5.572 5.81-9.212h-5.74zm8.218-1.302v12.558h1.148V71.478h-1.148z"/>
    <defs>
        <linearGradient id="paint0_linear" x1="46.963" x2="60.93" y1="33.338" y2="36.937" gradientUnits="userSpaceOnUse">
            <stop stop-color="#0ACF83"/>
            <stop offset="1" stop-color="#10FF26"/>
        </linearGradient>
        <linearGradient id="paint1_linear" x1="46.318" x2="60.285" y1="33.338" y2="36.937" gradientUnits="userSpaceOnUse">
            <stop stop-color="#0ACF83"/>
            <stop offset="1" stop-color="#10FF26"/>
        </linearGradient>
    </defs>
</svg>
