<svg xmlns="http://www.w3.org/2000/svg" width="101" height="100" fill="none" viewBox="0 0 101 100">
    <path fill="#fff" stroke="url(#paint0_linear)" stroke-width="3" d="M2 50c0-12.537.002-21.812.772-28.74.771-6.94 2.285-11.196 5.039-13.95 2.753-2.753 7.009-4.267 13.948-5.038C28.688 1.502 37.963 1.5 50.5 1.5c12.537 0 21.812.002 28.74.772 6.94.771 11.196 2.285 13.95 5.039 2.753 2.753 4.267 7.009 5.038 13.948C98.998 28.188 99 37.463 99 50c0 12.537-.002 21.812-.772 28.74-.771 6.94-2.285 11.196-5.039 13.95-2.753 2.753-7.009 4.267-13.948 5.038-6.929.77-16.204.772-28.741.772-12.537 0-21.812-.002-28.74-.772-6.94-.771-11.196-2.285-13.95-5.039-2.753-2.753-4.267-7.009-5.038-13.948C2.002 71.812 2 62.537 2 50z"/>
    <g clip-path="url(#clip0)">
        <path fill="url(#paint1_linear)" d="M36.79 65c-6.21 0-11.29-5.08-11.29-11.29 0-6.21 5.08-11.29 11.29-11.29 6.21 0 11.29 5.08 11.29 11.29C48.08 59.92 43 65 36.79 65z"/>
        <path fill="#333" d="M63.645 51.048c-3.79-3.79-5.887-8.79-5.887-14.193v-3.63c0-9.193-7.42-16.612-16.613-16.612-7.742 0-14.032 6.29-14.032 14.032 0 4.597 1.935 9.032 5.322 12.177l.484.404-.967 1.29-.565-.403c-3.71-3.468-5.887-8.307-5.887-13.468C25.5 22.016 32.516 15 41.145 15c10.08 0 18.226 8.145 18.226 18.226v3.629c0 4.92 1.935 9.597 5.403 13.064l-1.129 1.13z"/>
        <path fill="#333" d="M60.42 54.274c-3.469-3.468-8.146-5.403-13.065-5.403H45.66v-1.613h1.694c5.403 0 10.403 2.097 14.193 5.887l-1.129 1.129z"/>
        <path fill="url(#paint2_linear)" d="M71.307 65c-1.13 0-2.178-.403-2.984-1.21l-9.274-9.274 5.967-5.967 9.275 9.274c.806.806 1.21 1.855 1.21 2.984 0 2.258-1.936 4.193-4.194 4.193z"/>
        <path fill="#333" d="M43.403 45.645h-.161v-1.613h.08c6.21 0 11.21-5 11.21-11.129 0-2.984-1.129-5.806-3.306-7.903l-1.855-1.855c-2.097-2.177-4.92-3.306-7.903-3.306-6.13 0-11.13 5-11.13 11.129 0 2.984 1.13 5.806 3.307 7.903l1.855 1.855c.565.564 1.13 1.048 1.774 1.451l-.887 1.371c-.726-.484-1.37-1.048-2.016-1.613l-1.855-1.854c-2.42-2.42-3.71-5.646-3.71-9.033-.08-7.096 5.646-12.822 12.662-12.822 3.387 0 6.613 1.29 9.032 3.71l1.855 1.854c2.42 2.42 3.71 5.646 3.71 9.032.08 7.097-5.646 12.823-12.662 12.823zM71.468 61.774c.445 0 .806-.361.806-.807 0-.445-.361-.806-.806-.806-.446 0-.807.36-.807.806 0 .446.361.807.807.807z"/>
        <path fill="#333" d="M33.564 23.065h-1.613v16.129h1.613v-16.13zM38.403 19.839H36.79v23.387h1.613V19.839zM43.242 19.839h-1.613v24.839h1.613v-24.84zM48.08 20.645h-1.612v23.387h1.613V20.645zM52.919 24.677h-1.613v16.13h1.613v-16.13z"/>
        <path fill="#333" d="M49.694 21.451h-16.13v1.613h16.13v-1.613zM53.726 26.29H30.339v1.613h23.387V26.29zM54.532 31.129H30.34v1.613h24.193v-1.613zM54.532 35.968H31.145v1.613h23.387v-1.613zM51.306 40.806H35.177v1.613h16.13v-1.613zM36.79 65c-6.21 0-11.29-5.08-11.29-11.29 0-6.21 5.08-11.29 11.29-11.29 6.21 0 11.29 5.08 11.29 11.29C48.08 59.92 43 65 36.79 65zm0-20.967c-5.322 0-9.677 4.354-9.677 9.677 0 5.322 4.355 9.677 9.677 9.677 5.323 0 9.678-4.355 9.678-9.677 0-5.323-4.355-9.677-9.678-9.677z"/>
        <path fill="#333" d="M38.645 56.693l-.483-1.532c1.129-.323 2.177-1.129 2.742-2.177 1.129-2.017 3.306-3.226 5.564-3.226v1.613c-1.694 0-3.306.887-4.113 2.42-.887 1.37-2.177 2.418-3.71 2.902zM34.935 56.693c-1.532-.484-2.903-1.532-3.71-2.903-.886-1.532-2.419-2.42-4.112-2.42v-1.612c2.258 0 4.435 1.21 5.564 3.226.645 1.129 1.613 1.854 2.742 2.258l-.484 1.451z"/>
    </g>
    <path fill="#BDBDBD" d="M33.492 77.288h2.982v-.91h-2.982v-2.464h3.57v-.938h-4.676v8.036h.812c1.974 0 3.15-.042 4.578-.322l-.098-.938c-1.33.266-2.422.322-4.186.322v-2.786zm5.474-1.05H37.16v.938h1.806v6.216h1.078V71.786h-1.078v4.452zm2.52-4.774v12.558h1.092V71.464h-1.092zm5.248 1.232h-1.148v8.092h1.037c2.002 0 3.976-.14 6.16-.588l-.127-.98c-2.085.42-4.032.588-5.922.588v-7.112zm7.21-1.218v12.544h1.148V71.478h-1.148zm14.56 6.314c-2.199-.42-4.579-2.324-4.579-4.466v-.966h-1.203v.966c0 2.142-2.367 4.032-4.565 4.466l.519.952c1.89-.448 3.85-1.792 4.648-3.626.797 1.848 2.758 3.192 4.662 3.626l.517-.952zM57.68 81.404v.952h11.383v-.952H57.682z"/>
    <defs>
        <linearGradient id="paint0_linear" x1="4.488" x2="153.697" y1="-6.024" y2="59.035" gradientUnits="userSpaceOnUse">
            <stop stop-color="#0ACF83"/>
            <stop offset="1" stop-color="#10FF26"/>
        </linearGradient>
        <linearGradient id="paint1_linear" x1="26.401" x2="60.093" y1="41.059" y2="55.75" gradientUnits="userSpaceOnUse">
            <stop stop-color="#0ACF83"/>
            <stop offset="1" stop-color="#10FF26"/>
        </linearGradient>
        <linearGradient id="paint2_linear" x1="59.705" x2="84.252" y1="47.557" y2="58.261" gradientUnits="userSpaceOnUse">
            <stop stop-color="#0ACF83"/>
            <stop offset="1" stop-color="#10FF26"/>
        </linearGradient>
        <clipPath id="clip0">
            <path fill="#fff" d="M0 0H50V55H0z" transform="translate(25.5 10)"/>
        </clipPath>
    </defs>
</svg>
