<svg xmlns="http://www.w3.org/2000/svg" width="101" height="100" fill="none" viewBox="0 0 101 100">
    <path fill="#fff" stroke="url(#paint0_linear)" stroke-width="3" d="M2 50c0-12.537.002-21.812.772-28.74.771-6.94 2.285-11.196 5.039-13.95 2.753-2.753 7.009-4.267 13.948-5.038C28.688 1.502 37.963 1.5 50.5 1.5c12.537 0 21.812.002 28.74.772 6.94.771 11.196 2.285 13.95 5.039 2.753 2.753 4.267 7.009 5.038 13.948C98.998 28.188 99 37.463 99 50c0 12.537-.002 21.812-.772 28.74-.771 6.94-2.285 11.196-5.039 13.95-2.753 2.753-7.009 4.267-13.948 5.038-6.929.77-16.204.772-28.741.772-12.537 0-21.812-.002-28.74-.772-6.94-.771-11.196-2.285-13.95-5.039-2.753-2.753-4.267-7.009-5.038-13.948C2.002 71.812 2 62.537 2 50z"/>
    <path fill="url(#paint1_linear)" d="M63.387 43.765c-.227 0-.379-.073-.53-.218-.228-.217-.304-.508-.152-.798l.606-1.378c1.137-2.467 3.639-4.136 6.52-4.136 1.44 0 2.653 1.161 2.653 2.54 0 1.378-1.213 2.539-2.653 2.539-1.668 0-3.26.29-4.852.87l-1.364.508c0 .073-.152.073-.228.073z"/>
    <path fill="url(#paint2_linear)" d="M55.806 36.51h-.227c-.303-.073-.53-.363-.53-.726v-2.176c0-1.451.151-2.975.454-4.426.228-1.233 1.365-2.104 2.653-2.104h.228c1.516 0 2.729 1.161 2.729 2.612 0 .87-.455 1.669-1.213 2.177-.834.507-1.516 1.233-2.047 2.031l-1.44 2.249c-.076.218-.38.363-.607.363z"/>
    <path fill="url(#paint3_linear)" d="M36.097 43.765c-.076 0-.228 0-.303-.073l-1.365-.508c-1.516-.58-3.184-.87-4.852-.87-1.364 0-2.577-1.161-2.577-2.54 0-1.378 1.213-2.539 2.653-2.539 2.805 0 5.383 1.596 6.52 4.136l.606 1.378c.152.29.076.58-.152.798-.151.145-.303.218-.53.218z"/>
    <path fill="url(#paint4_linear)" d="M45.194 40.137c-.228 0-.53-.145-.683-.363l-1.44-2.249c-.53-.798-1.213-1.523-2.047-2.031-.758-.508-1.212-1.306-1.212-2.176 0-1.451 1.212-2.612 2.729-2.612h.227c1.289 0 2.426.87 2.653 2.104.303 1.45.455 2.902.455 4.425v2.177c0 .29-.227.58-.53.725h-.152z"/>
    <path fill="#333" d="M65.661 59c-2.198 0-3.335-1.088-4.32-2.031-.91-.87-1.668-1.596-3.26-1.596-1.592 0-2.35.725-3.26 1.596C53.836 57.912 52.698 59 50.5 59c-2.198 0-3.336-1.088-4.321-2.031-.91-.87-1.668-1.596-3.26-1.596-1.592 0-2.35.725-3.26 1.596-.985.943-2.122 2.031-4.32 2.031-2.199 0-3.336-1.088-4.321-2.031-.91-.87-1.668-1.596-3.26-1.596H27v-1.451h.758c2.198 0 3.335 1.088 4.321 2.031.91.87 1.668 1.596 3.26 1.596 1.592 0 2.35-.725 3.26-1.596.985-.943 2.122-2.031 4.32-2.031 2.199 0 3.336 1.088 4.321 2.031.91.87 1.668 1.596 3.26 1.596 1.592 0 2.35-.725 3.26-1.596.985-.943 2.122-2.031 4.32-2.031 2.199 0 3.336 1.088 4.322 2.031.91.87 1.667 1.596 3.26 1.596 1.591 0 2.35-.725 3.259-1.596.985-.943 2.122-2.031 4.32-2.031H74v1.45h-.758c-1.592 0-2.35.726-3.26 1.597-.985.943-2.122 2.031-4.32 2.031zM65.661 53.921c-2.198 0-3.335-1.088-4.32-2.03-.91-.871-1.668-1.597-3.26-1.597-1.592 0-2.35.726-3.26 1.596-.985.943-2.123 2.031-4.321 2.031-2.198 0-3.336-1.088-4.321-2.03-.91-.871-1.668-1.597-3.26-1.597-1.592 0-2.35.726-3.26 1.596-.985.943-2.122 2.031-4.32 2.031-2.199 0-3.336-1.088-4.321-2.03-.91-.871-1.668-1.597-3.26-1.597H27v-1.451h.758c2.198 0 3.335 1.088 4.321 2.031.91.871 1.668 1.596 3.26 1.596 1.592 0 2.35-.725 3.26-1.596.985-.943 2.122-2.031 4.32-2.031 2.199 0 3.336 1.088 4.321 2.031.91.871 1.668 1.596 3.26 1.596 1.592 0 2.35-.725 3.26-1.596.985-.943 2.122-2.031 4.32-2.031 2.199 0 3.336 1.088 4.322 2.031.91.871 1.667 1.596 3.26 1.596 1.591 0 2.35-.725 3.259-1.596.985-.943 2.122-2.031 4.32-2.031H74v1.451h-.758c-1.592 0-2.35.726-3.26 1.596-.985.943-2.122 2.031-4.32 2.031z"/>
    <path fill="#333" d="M65.661 48.843c-2.198 0-3.335-1.088-4.32-2.031-.91-.87-1.668-1.596-3.26-1.596-1.592 0-2.35.725-3.26 1.596-.985.943-2.123 2.031-4.321 2.031-2.198 0-3.336-1.088-4.321-2.031-.91-.87-1.668-1.596-3.26-1.596-1.592 0-2.35.725-3.26 1.596-.985.943-2.122 2.031-4.32 2.031-2.199 0-3.336-1.088-4.321-2.031-.91-.87-1.668-1.596-3.26-1.596H27v-1.451h.758c2.198 0 3.335 1.088 4.321 2.031.91.87 1.668 1.596 3.26 1.596 1.592 0 2.35-.725 3.26-1.596.985-.943 2.122-2.031 4.32-2.031 2.199 0 3.336 1.088 4.321 2.031.91.87 1.668 1.596 3.26 1.596 1.592 0 2.35-.725 3.26-1.596.985-.943 2.122-2.031 4.32-2.031 2.199 0 3.336 1.088 4.322 2.031.91.87 1.667 1.596 3.26 1.596 1.591 0 2.35-.725 3.259-1.596.985-.943 2.122-2.031 4.32-2.031H74v1.45h-.758c-1.592 0-2.35.726-3.26 1.597-.985.943-2.122 2.031-4.32 2.031zM70.968 34.333h-1.516v1.451h1.516v-1.45zM74 22h-1.516v1.451H74V22zM63.387 25.627h-1.516v1.451h1.516v-1.45zM39.129 23.45h-1.516v1.452h1.516V23.45zM37.613 37.235h-1.516v1.451h1.516v-1.45zM28.516 24.177H27v1.45h1.516v-1.45z"/>
    <path fill="#BDBDBD" d="M36.292 76.266c-2.282-.336-4.522-1.89-4.522-3.64v-.7h-1.204v.7c0 1.792-2.212 3.304-4.494 3.64l.462.924c1.96-.336 3.85-1.414 4.634-2.94.812 1.512 2.702 2.604 4.648 2.94l.476-.924zm.546 2.282h-11.34v.952h5.068v4.55h1.148V79.5h5.138l-.014-.952zm8.777-1.162c-1.806-.616-3.038-2.184-3.038-3.878v-1.386H41.43v1.288c0 1.918-1.218 3.626-3.122 4.312l.602.91c1.47-.56 2.59-1.708 3.108-3.178.56 1.288 1.638 2.324 2.996 2.828l.602-.896zm-1.498 5.74c-1.862 0-2.996-.518-2.996-1.386 0-.882 1.134-1.4 2.996-1.4 1.848 0 2.982.518 2.982 1.4 0 .868-1.134 1.386-2.982 1.386zm0-3.682c-2.562 0-4.144.826-4.144 2.296 0 1.456 1.582 2.282 4.144 2.282 2.548 0 4.13-.826 4.13-2.282 0-1.47-1.582-2.296-4.13-2.296zm3.99-4.718v-3.234H46.96v7.602h1.148v-3.416h1.862v-.952h-1.862zm13.957 3.066c-2.198-.42-4.578-2.324-4.578-4.466v-.966h-1.204v.966c0 2.142-2.366 4.032-4.564 4.466l.518.952c1.89-.448 3.85-1.792 4.648-3.626.798 1.848 2.758 3.192 4.662 3.626l.518-.952zm-10.822 3.612v.952h11.382v-.952H51.242zm13.817-8.624v.938h4.606c-.056.77-.168 1.498-.406 2.198l-4.844.322.196 1.008 4.284-.406c-.77 1.68-2.212 3.122-4.522 4.242l.616.91c4.508-2.226 5.81-5.572 5.81-9.212h-5.74zm8.218-1.302v12.558h1.148V71.478h-1.148z"/>
    <defs>
        <linearGradient id="paint0_linear" x1="4.488" x2="153.697" y1="-6.024" y2="59.035" gradientUnits="userSpaceOnUse">
            <stop stop-color="#0ACF83"/>
            <stop offset="1" stop-color="#10FF26"/>
        </linearGradient>
        <linearGradient id="paint1_linear" x1="63.019" x2="75.232" y1="36.842" y2="44.882" gradientUnits="userSpaceOnUse">
            <stop stop-color="#0ACF83"/>
            <stop offset="1" stop-color="#10FF26"/>
        </linearGradient>
        <linearGradient id="paint2_linear" x1="55.29" x2="65.275" y1="26.51" y2="29.309" gradientUnits="userSpaceOnUse">
            <stop stop-color="#0ACF83"/>
            <stop offset="1" stop-color="#10FF26"/>
        </linearGradient>
        <linearGradient id="paint3_linear" x1="27.393" x2="39.606" y1="36.842" y2="44.882" gradientUnits="userSpaceOnUse">
            <stop stop-color="#0ACF83"/>
            <stop offset="1" stop-color="#10FF26"/>
        </linearGradient>
        <linearGradient id="paint4_linear" x1="40.053" x2="50.038" y1="30.138" y2="32.937" gradientUnits="userSpaceOnUse">
            <stop stop-color="#0ACF83"/>
            <stop offset="1" stop-color="#10FF26"/>
        </linearGradient>
    </defs>
</svg>
