<?xml version="1.0" encoding="utf-8"?>
<!-- Generator: Adobe Illustrator 25.3.1, SVG Export Plug-In . SVG Version: 6.00 Build 0)  -->
<svg version="1.1" id="Layer_1" xmlns="http://www.w3.org/2000/svg" xmlns:xlink="http://www.w3.org/1999/xlink" x="0px" y="0px"
	 viewBox="0 0 144 144" style="enable-background:new 0 0 144 144;" xml:space="preserve">
<style type="text/css">
	.st0{fill:#FFFFFF;}
	.st1{opacity:0.5;fill:#221F20;}
</style>
<g>
	<path class="st0" d="M89.2,108.6c0,4.4-34.1,8.3-85,10.4v21.2c76-1,135.6-9.9,135.6-20.8c0-5.5-15.5-10.6-40.7-14.3
		c-3.9,0.6-7.9,1.1-12.2,1.6C88.4,107.3,89.2,108,89.2,108.6z"/>
	<path class="st0" d="M76.7,104.1c4.7,0.8,8.1,1.7,10.2,2.6c4.3-0.5,8.4-1,12.2-1.6c-4.4-0.6-9.1-1.3-14-1.8
		C82.4,103.6,79.6,103.8,76.7,104.1z"/>
	<path class="st1" d="M76.7,104.1c4.7,0.8,8.1,1.7,10.2,2.6c4.3-0.5,8.4-1,12.2-1.6c-4.4-0.6-9.1-1.3-14-1.8
		C82.4,103.6,79.6,103.8,76.7,104.1z"/>
	<path class="st0" d="M99.1,72.8c-3.9,0.6-7.9,1.1-12.2,1.6c0.4,0.2,0.8,0.4,1.1,0.5c0.8,0.5,1.2,0.9,1.2,1.4c0,0.6-0.7,1.2-2,1.8
		c-7.9,3.6-39.3,6.8-83,8.6v3.7v17.5c26.9-0.3,51.7-1.7,72.5-3.7c2.9-0.3,5.7-0.6,8.4-0.9c30.2-3.5,50.5-8.6,54.1-14.3
		c0.4-0.6,0.6-1.2,0.6-1.8C139.8,81.5,124.3,76.5,99.1,72.8z"/>
	<path class="st0" d="M76.7,71.8c4.7,0.8,8.1,1.7,10.2,2.6c4.3-0.5,8.4-1,12.2-1.6c-4.4-0.6-9.1-1.3-14-1.8
		C82.4,71.2,79.6,71.5,76.7,71.8z"/>
	<path class="st1" d="M76.7,71.8c4.7,0.8,8.1,1.7,10.2,2.6c4.3-0.5,8.4-1,12.2-1.6c-4.4-0.6-9.1-1.3-14-1.8
		C82.4,71.2,79.6,71.5,76.7,71.8z"/>
	<path class="st0" d="M99.1,40.5c-3.9,0.6-7.9,1.1-12.2,1.6c0.4,0.2,0.8,0.4,1.1,0.5c0.8,0.5,1.2,0.9,1.2,1.4c0,0.6-0.7,1.2-2,1.8
		c-7.9,3.6-39.3,6.8-83,8.6v3.7v17.5c20-0.3,38.8-1.1,55.8-2.3c2.2-0.2,4.4-0.3,6.5-0.5c3.5-0.3,6.9-0.6,10.2-0.9
		c2.9-0.3,5.7-0.6,8.4-0.9c30.2-3.5,50.5-8.6,54.1-14.3c0.4-0.6,0.6-1.2,0.6-1.8C139.8,49.2,124.3,44.2,99.1,40.5z"/>
	<path class="st0" d="M76.7,39.5c4.7,0.8,8.1,1.7,10.2,2.6c4.3-0.5,8.4-1,12.2-1.6c-4.4-0.6-9.1-1.3-14-1.8
		C82.4,38.9,79.6,39.2,76.7,39.5z"/>
	<path class="st1" d="M76.7,39.5c4.7,0.8,8.1,1.7,10.2,2.6c4.3-0.5,8.4-1,12.2-1.6c-4.4-0.6-9.1-1.3-14-1.8
		C82.4,38.9,79.6,39.2,76.7,39.5z"/>
	<path class="st0" d="M57.6,3.8l-0.3,0.9C73.7,6.4,84.6,8.3,88,10.3c0.8,0.5,1.2,0.9,1.2,1.4c0,0.6-0.7,1.2-2,1.8
		c-7.9,3.6-39.3,6.8-83,8.6v3.7v17.5C24.2,43,43,42.2,60,41c2.2-0.2,4.4-0.3,6.5-0.5c3.5-0.3,6.9-0.6,10.2-0.9
		c2.9-0.3,5.7-0.6,8.4-0.9c30.2-3.5,50.5-8.6,54.1-14.3c0.4-0.6,0.6-1.2,0.6-1.8C139.8,14.3,106.3,7.3,57.6,3.8z"/>
</g>
</svg>
