<?xml version="1.0" encoding="utf-8"?>
<!-- Generator: Adobe Illustrator 25.4.1, SVG Export Plug-In . SVG Version: 6.00 Build 0)  -->
<svg version="1.1" id="Layer_1" xmlns="http://www.w3.org/2000/svg" xmlns:xlink="http://www.w3.org/1999/xlink" x="0px" y="0px"
	 viewBox="0 0 610.7 331.8" style="enable-background:new 0 0 610.7 331.8;" xml:space="preserve">
<style type="text/css">
	.st0{fill:#FFFFFF;}
</style>
<g>
	<path class="st0" d="M580,33v32.5V99v33.4v33.5v33.5v33.5v33.4v32.5h-35.7h-36.8h-36.7H434h-36.7h-36.8h-35.8v-32.5v-33.4v-33.5v-1
		h-1H287h-1v1v32.5h-35.8h-1v1v32.4h-35.7h-1v1v32.5h-34.8v-32.5v-1h-1H141v-32.4v-1h-1h-35.8v-32.5v-1h-1H66.5h-1v1v33.5v33.4v32.5
		H30.7v-32.5v-33.4v-33.5v-33.5v-33.5V99V65.5V33h35.8h36.7H140h36.7h36.8h35.7v32.5v1h1h35.7V99v1h1h0.1h36.7h1v-1V66.5h35.8h1v-1
		V33h35.8H434h36.8h36.7h36.8H580 M581,32h-36.7h-36.8h-36.7H434h-36.7h-36.8v33.5h-36.8V99H287h-0.1V65.5h-36.7V32h-36.7h-36.8H140
		h-36.8H66.5H29.7v33.5V99v33.4v33.5v33.5v33.5v33.4v33.5h36.8v-33.5v-33.4v-33.5h36.7v33.5H140v33.4h36.7v33.5h36.8v-33.5h36.7
		v-33.4H287v-33.5h36.7v33.5v33.4v33.5h36.8h36.8H434h36.8h36.7h36.8H581v-33.5v-33.4v-33.5v-33.5v-33.5V99V65.5V32L581,32z"/>
</g>
</svg>
