<svg width="36" height="36" viewBox="0 0 36 36" fill="none" xmlns="http://www.w3.org/2000/svg">
<path d="M14.7778 8C11.7095 8 9.22222 10.4873 9.22222 13.5556C9.22222 16.6238 11.7095 19.1111 14.7778 19.1111C17.846 19.1111 20.3333 16.6238 20.3333 13.5556C20.3333 10.4873 17.846 8 14.7778 8ZM11.4444 13.5556C11.4444 11.7146 12.9368 10.2222 14.7778 10.2222C16.6187 10.2222 18.1111 11.7146 18.1111 13.5556C18.1111 15.3965 16.6187 16.8889 14.7778 16.8889C12.9368 16.8889 11.4444 15.3965 11.4444 13.5556Z" fill="url(#paint0_linear)"/>
<path d="M23.5649 13.7981C23.2523 13.6387 22.9064 13.5556 22.5556 13.5556V11.3334C23.2573 11.3334 23.9491 11.4995 24.5743 11.8183C24.6432 11.8534 24.711 11.8902 24.7778 11.9288C25.3171 12.2402 25.7858 12.6619 26.1526 13.1673C26.5648 13.7352 26.8366 14.3927 26.9458 15.086C27.0551 15.7792 26.9986 16.4884 26.781 17.1556C26.5635 17.8228 26.191 18.429 25.6941 18.9246C25.1973 19.4202 24.5901 19.791 23.9223 20.0068C23.3281 20.1989 22.7009 20.2633 22.0817 20.1969C22.0051 20.1887 21.9286 20.1785 21.8522 20.1662C21.1598 20.0552 20.5034 19.782 19.9368 19.3688L19.9356 19.3679L21.2456 17.5729C21.529 17.7797 21.8575 17.9164 22.2039 17.9719C22.5504 18.0275 22.905 18.0002 23.2389 17.8922C23.5728 17.7843 23.8764 17.5989 24.1248 17.3511C24.3732 17.1034 24.5595 16.8003 24.6682 16.4667C24.777 16.1331 24.8052 15.7785 24.7506 15.4319C24.696 15.0853 24.5601 14.7565 24.354 14.4726C24.1479 14.1886 23.8775 13.9575 23.5649 13.7981Z" fill="url(#paint1_linear)"/>
<path d="M26.9979 28C26.9979 27.4166 26.883 26.839 26.6597 26.3C26.4365 25.761 26.1093 25.2713 25.6968 24.8588C25.2843 24.4463 24.7945 24.1191 24.2556 23.8958C23.7166 23.6726 23.1389 23.5577 22.5556 23.5577V21.3333C23.3134 21.3333 24.0649 21.4626 24.7778 21.7146C24.8884 21.7537 24.9981 21.7958 25.1068 21.8408C25.9156 22.1758 26.6505 22.6669 27.2696 23.286C27.8887 23.905 28.3797 24.6399 28.7148 25.4488C28.7598 25.5574 28.8018 25.6671 28.841 25.7778C29.093 26.4907 29.2222 27.2421 29.2222 28H26.9979Z" fill="url(#paint2_linear)"/>
<path d="M22.5556 28H20.3333C20.3333 24.9318 17.846 22.4444 14.7778 22.4444C11.7095 22.4444 9.22222 24.9318 9.22222 28H7C7 23.7045 10.4822 20.2222 14.7778 20.2222C19.0733 20.2222 22.5556 23.7045 22.5556 28Z" fill="url(#paint3_linear)"/>
<defs>
<linearGradient id="paint0_linear" x1="7.88616" y1="6.79518" x2="39.8461" y2="22.2789" gradientUnits="userSpaceOnUse">
<stop stop-color="#0ACF83"/>
<stop offset="1" stop-color="#10FF26"/>
</linearGradient>
<linearGradient id="paint1_linear" x1="7.88616" y1="6.79518" x2="39.8461" y2="22.2789" gradientUnits="userSpaceOnUse">
<stop stop-color="#0ACF83"/>
<stop offset="1" stop-color="#10FF26"/>
</linearGradient>
<linearGradient id="paint2_linear" x1="7.88616" y1="6.79518" x2="39.8461" y2="22.2789" gradientUnits="userSpaceOnUse">
<stop stop-color="#0ACF83"/>
<stop offset="1" stop-color="#10FF26"/>
</linearGradient>
<linearGradient id="paint3_linear" x1="7.88616" y1="6.79518" x2="39.8461" y2="22.2789" gradientUnits="userSpaceOnUse">
<stop stop-color="#0ACF83"/>
<stop offset="1" stop-color="#10FF26"/>
</linearGradient>
</defs>
</svg>
