<svg width="35" height="36" viewBox="0 0 35 36" fill="none" xmlns="http://www.w3.org/2000/svg">
<path d="M24.1409 28H9.07606C8.48177 28 8 27.5182 8 26.9239V16.6088C8 16.3234 8.11347 16.0498 8.31529 15.848L15.8477 8.31559C16.0496 8.11353 16.3234 8 16.609 8C16.8946 8 17.1685 8.11353 17.3703 8.31559L24.9028 15.848C25.1048 16.0496 25.2179 16.3235 25.217 16.6088V26.9239C25.217 27.5182 24.7352 28 24.1409 28ZM14.4564 20.4676H18.7606V25.8479H23.0649V17.0543L16.6085 10.5979L10.1521 17.0543V25.8479H14.4564V20.4676Z" fill="url(#paint0_linear)"/>
<defs>
<linearGradient id="paint0_linear" x1="8.68657" y1="6.79518" x2="35.4844" y2="16.8538" gradientUnits="userSpaceOnUse">
<stop stop-color="#0ACF83"/>
<stop offset="1" stop-color="#10FF26"/>
</linearGradient>
</defs>
</svg>
