<svg width="35" height="36" viewBox="0 0 35 36" fill="none" xmlns="http://www.w3.org/2000/svg">
<path d="M12.1579 13.2632C12.1579 10.3564 14.5143 8 17.4211 8C20.3278 8 22.6842 10.3564 22.6842 13.2632C22.6842 16.1699 20.3278 18.5263 17.4211 18.5263C14.5143 18.5263 12.1579 16.1699 12.1579 13.2632ZM17.4211 16.4211C19.1651 16.4211 20.5789 15.0072 20.5789 13.2632C20.5789 11.5191 19.1651 10.1053 17.4211 10.1053C15.677 10.1053 14.2632 11.5191 14.2632 13.2632C14.2632 15.0072 15.677 16.4211 17.4211 16.4211Z" fill="url(#paint0_linear)"/>
<path d="M11.4665 22.0454C9.88722 23.6247 9 25.7666 9 28H11.1053C11.1053 26.3249 11.7707 24.7185 12.9551 23.5341C14.1396 22.3496 15.746 21.6842 17.4211 21.6842C19.0961 21.6842 20.7026 22.3496 21.887 23.5341C23.0714 24.7185 23.7368 26.3249 23.7368 28H25.8421C25.8421 25.7666 24.9549 23.6247 23.3756 22.0454C21.7964 20.4662 19.6545 19.5789 17.4211 19.5789C15.1877 19.5789 13.0457 20.4662 11.4665 22.0454Z" fill="url(#paint1_linear)"/>
<defs>
<linearGradient id="paint0_linear" x1="9.67162" y1="6.79518" x2="36.0261" y2="16.472" gradientUnits="userSpaceOnUse">
<stop stop-color="#0ACF83"/>
<stop offset="1" stop-color="#10FF26"/>
</linearGradient>
<linearGradient id="paint1_linear" x1="9.67162" y1="6.79518" x2="36.0261" y2="16.472" gradientUnits="userSpaceOnUse">
<stop stop-color="#0ACF83"/>
<stop offset="1" stop-color="#10FF26"/>
</linearGradient>
</defs>
</svg>
