<svg width="36" height="36" viewBox="0 0 36 36" fill="none" xmlns="http://www.w3.org/2000/svg">
<path d="M26.2959 28L19.4131 21.1164C16.3512 23.2931 12.1322 22.7607 9.70715 19.8916C7.28214 17.0225 7.4602 12.774 10.1168 10.1179C12.7727 7.46058 17.0219 7.28176 19.8917 9.7065C22.7614 12.1312 23.2942 16.3505 21.1172 19.4124L28 26.296L26.2971 27.9988L26.2959 28ZM15.2256 10.4093C12.9418 10.4088 10.9715 12.0118 10.5076 14.2478C10.0436 16.4838 11.2136 18.7383 13.3091 19.6463C15.4046 20.5543 17.8497 19.8662 19.1641 17.9986C20.4784 16.1311 20.3007 13.5974 18.7386 11.9315L19.4673 12.654L18.6459 11.8351L18.6315 11.8207C17.7304 10.9141 16.5039 10.4058 15.2256 10.4093Z" fill="url(#paint0_linear)"/>
<defs>
<linearGradient id="paint0_linear" x1="8.79755" y1="6.79518" x2="38.6393" y2="19.8069" gradientUnits="userSpaceOnUse">
<stop stop-color="#0ACF83"/>
<stop offset="1" stop-color="#10FF26"/>
</linearGradient>
</defs>
</svg>
