<?xml version="1.0" encoding="utf-8"?>
<!-- Generator: Adobe Illustrator 26.0.1, SVG Export Plug-In . SVG Version: 6.00 Build 0)  -->
<svg version="1.1" id="Layer_1" xmlns="http://www.w3.org/2000/svg" xmlns:xlink="http://www.w3.org/1999/xlink" x="0px" y="0px"
	 viewBox="0 0 36 36" style="enable-background:new 0 0 36 36;" xml:space="preserve">
<style type="text/css">
	.st0{fill:#FEFCE8;}
</style>
<g id="그룹_34">
	<g id="선_1">
		<rect x="22.2" y="6" class="st0" width="3" height="25"/>
	</g>
	<g id="선_5">
		<rect x="9.7" y="17" class="st0" width="3" height="14"/>
	</g>
	<g id="선_3">
		<rect x="17.5" y="6" class="st0" width="3" height="11"/>
	</g>
	<g id="선_4">
		<rect x="26.8" y="6" class="st0" width="3" height="11"/>
	</g>
	<g id="선_2">
		<rect x="18.4" y="14" class="st0" width="10.5" height="3"/>
	</g>
	<g id="타원_5">
		<g>
			<path class="st0" d="M11.2,20c-2.8,0-5-3.3-5-7.5S8.4,5,11.2,5s5,3.3,5,7.5S14,20,11.2,20z M11.2,8c-0.8,0-2,1.8-2,4.5
				s1.2,4.5,2,4.5s2-1.8,2-4.5S12,8,11.2,8z"/>
		</g>
	</g>
</g>
</svg>
