<svg width="36" height="36" viewBox="0 0 36 36" fill="none" xmlns="http://www.w3.org/2000/svg">
<path d="M18.4041 28C17.8424 28.0017 17.3033 27.7784 16.9073 27.3801L8.61995 19.0917C8.18262 18.6556 7.95838 18.0498 8.00639 17.434L8.53532 10.4881C8.61075 9.44333 9.44318 8.61316 10.4881 8.54057L17.4341 8.01164C17.488 8 17.543 8 17.597 8C18.1575 8.00144 18.6947 8.22424 19.0918 8.61991L27.3801 16.9072C27.7771 17.304 28.0001 17.8423 28.0001 18.4036C28.0001 18.9648 27.7771 19.5031 27.3801 19.8999L19.9 27.3801C19.5041 27.7782 18.9655 28.0014 18.4041 28ZM17.5959 10.1157L10.6447 10.6447L10.1158 17.5959L18.4041 25.8843L25.8832 18.4052L17.5959 10.1157ZM13.9156 16.0313C12.9062 16.0315 12.0373 15.3187 11.8402 14.3287C11.6431 13.3388 12.1727 12.3475 13.1052 11.961C14.0376 11.5746 15.1132 11.9007 15.6741 12.7398C16.2351 13.579 16.1251 14.6976 15.4114 15.4114C15.0156 15.8095 14.477 16.0327 13.9156 16.0313Z" fill="url(#paint0_linear)"/>
<defs>
<linearGradient id="paint0_linear" x1="8.79755" y1="6.79518" x2="38.6395" y2="19.807" gradientUnits="userSpaceOnUse">
<stop stop-color="#0ACF83"/>
<stop offset="1" stop-color="#10FF26"/>
</linearGradient>
</defs>
</svg>
