<?xml version="1.0" encoding="utf-8"?>
<!-- Generator: Adobe Illustrator 25.1.0, SVG Export Plug-In . SVG Version: 6.00 Build 0)  -->
<svg version="1.1" id="Layer_1" xmlns="http://www.w3.org/2000/svg" xmlns:xlink="http://www.w3.org/1999/xlink" x="0px" y="0px"
	 viewBox="0 0 1024 1024" style="enable-background:new 0 0 1024 1024;" xml:space="preserve">
<style type="text/css">
	.st0{fill:none;}
	.st1{fill:#FF7576;}
</style>
<g>
	<polygon class="st0" points="420.2,366.8 366.1,420 314,366.8 88.8,366.2 88.9,636.7 104.2,636.7 105.1,478.9 263.2,636.7 
		423.3,480.1 423.4,636.7 647.4,637.5 647.4,366.8 	"/>
	<circle class="st0" cx="793.4" cy="511.4" r="74.1"/>
	<path class="st1" d="M663.7,174.6l-534.2,0C60.8,174.6,5,230.3,5,299.1l0,424.8c0,68.8,55.8,124.5,124.5,124.5l534.3,0
		c33,0,64.7-13.1,88-36.4l244-244c30.9-30.9,31-81,0.1-112l-244-244.9C728.5,187.7,696.8,174.6,663.7,174.6z M423.4,636.7
		l-0.1-156.6L263.2,636.7L105.1,478.9l-0.9,157.9H88.9l-0.1-270.6l225.2,0.6l52.1,53.3l54.2-53.3l227.2,0v270.8L423.4,636.7z
		 M867.5,511.4c0,40.9-33.2,74.1-74.1,74.1c-40.9,0-74.1-33.2-74.1-74.1c0-40.9,33.2-74.1,74.1-74.1c0,0,0,0,0,0
		C834.3,437.3,867.5,470.5,867.5,511.4z"/>
</g>
</svg>
