<svg width="501" height="664" viewBox="0 0 501 664" fill="none" xmlns="http://www.w3.org/2000/svg">
<g opacity="0.5">
<path fill-rule="evenodd" clip-rule="evenodd" d="M312.733 499.764C305.813 499.764 300.203 494.154 300.203 487.234V445.468C300.203 438.548 305.813 432.938 312.733 432.938L421.326 432.938C428.246 432.938 433.856 438.548 433.856 445.468L433.856 487.234C433.856 487.234 433.856 487.234 433.856 487.234C433.856 494.154 439.466 499.764 446.386 499.764C445.34 499.764 444.324 499.892 443.352 500.134C444.324 499.892 445.34 499.764 446.386 499.764L488.152 499.764C495.072 499.764 500.682 505.374 500.682 512.294L500.682 554.061C500.682 560.981 495.072 566.591 488.152 566.591L446.386 566.591C439.466 566.591 433.856 560.981 433.856 554.061L433.856 512.294L433.856 512.242C433.828 505.363 428.257 499.792 421.378 499.764C421.36 499.764 421.343 499.764 421.326 499.764L312.733 499.764Z" fill="#343234"/>
<path fill-rule="evenodd" clip-rule="evenodd" d="M111.178 336.166C115.245 336.166 118.541 332.87 118.541 328.803V304.26C118.541 300.193 115.245 296.897 111.178 296.897L47.3647 296.897C43.2981 296.897 40.0016 300.193 40.0016 304.26L40.0016 328.803C40.0016 328.803 40.0015 328.803 40.0015 328.803C40.0015 332.87 36.705 336.166 32.6384 336.166C33.7466 336.166 34.7975 336.411 35.7401 336.85C34.7975 336.411 33.7466 336.166 32.6386 336.166L8.09489 336.166C4.02837 336.166 0.731792 339.463 0.731791 343.53L0.731785 368.073C0.731784 372.14 4.02836 375.436 8.09488 375.436L32.6385 375.436C36.7051 375.436 40.0016 372.14 40.0016 368.073L40.0017 343.53L40.0016 343.501C40.0169 339.458 43.2899 336.184 47.3318 336.166C47.3428 336.166 47.3537 336.166 47.3647 336.166L111.178 336.166Z" fill="#343234"/>
<path opacity="0.5" fill-rule="evenodd" clip-rule="evenodd" d="M443.998 93.833C446.929 93.833 449.304 91.4572 449.304 88.5264V70.838C449.304 67.9072 446.929 65.5314 443.998 65.5314L398.008 65.5314C395.077 65.5314 392.701 67.9072 392.701 70.8379L392.701 88.5264C392.701 89.9918 393.295 91.3184 394.255 92.2787C393.295 91.3184 392.701 89.9918 392.701 88.5264C392.701 91.4571 390.325 93.8329 387.395 93.8329C387.44 93.8329 387.486 93.8335 387.532 93.8346C387.486 93.8335 387.441 93.8329 387.395 93.8329L369.706 93.8329C366.776 93.8329 364.4 96.2087 364.4 99.1395L364.4 116.828C364.4 119.759 366.776 122.135 369.706 122.135L387.395 122.135C390.326 122.135 392.701 119.759 392.701 116.828L392.701 99.1395L392.701 99.1047C392.72 96.1967 395.078 93.8439 397.987 93.8329C397.994 93.833 398.001 93.833 398.008 93.833L443.998 93.833Z" fill="#343234"/>
<path opacity="0.75" fill-rule="evenodd" clip-rule="evenodd" d="M196.45 501.555C199.398 501.555 201.787 499.166 201.787 496.219V478.43C201.787 475.482 199.398 473.093 196.45 473.093L150.199 473.093C147.251 473.093 144.862 475.482 144.862 478.43L144.862 496.219C144.862 497.6 145.387 498.859 146.248 499.807C145.387 498.859 144.862 497.6 144.862 496.218C144.862 499.166 142.473 501.555 139.525 501.555C140.93 501.555 142.208 502.098 143.161 502.985C142.208 502.098 140.93 501.555 139.525 501.555L121.736 501.555C118.789 501.555 116.4 503.945 116.4 506.892L116.4 524.681C116.4 527.628 118.789 530.018 121.736 530.018L139.525 530.018C142.473 530.018 144.862 527.628 144.862 524.681L144.862 506.892L144.862 506.861C144.878 503.938 147.245 501.572 150.168 501.555C150.178 501.555 150.189 501.555 150.199 501.555L196.45 501.555Z" fill="#343234"/>
<path opacity="0.1" fill-rule="evenodd" clip-rule="evenodd" d="M427.757 348.436C430.704 348.436 433.094 346.047 433.094 343.099V325.31C433.094 322.363 430.704 319.974 427.757 319.974L381.505 319.974C378.558 319.974 376.169 322.363 376.169 325.31L376.169 343.099C376.169 344.481 376.694 345.74 377.555 346.688C376.694 345.74 376.169 344.481 376.169 343.099C376.169 346.047 373.779 348.436 370.832 348.436C372.236 348.436 373.514 348.979 374.467 349.866C373.514 348.979 372.236 348.436 370.832 348.436L353.043 348.436C350.096 348.436 347.706 350.825 347.706 353.773L347.706 371.562C347.706 374.509 350.096 376.899 353.043 376.899L370.832 376.899C373.779 376.899 376.169 374.509 376.169 371.562L376.169 353.773L376.169 353.742C376.185 350.819 378.552 348.452 381.475 348.436C381.485 348.436 381.495 348.436 381.505 348.436L427.757 348.436Z" fill="#343234"/>
<path opacity="0.1" fill-rule="evenodd" clip-rule="evenodd" d="M239.144 227.954C242.091 227.954 244.48 225.565 244.48 222.618V204.829C244.48 201.881 242.091 199.492 239.144 199.492L192.892 199.492C189.945 199.492 187.556 201.881 187.556 204.829L187.556 222.618C187.556 223.999 188.081 225.258 188.942 226.206C188.081 225.258 187.555 223.999 187.555 222.617C187.555 225.565 185.166 227.954 182.219 227.954C183.623 227.954 184.901 228.497 185.854 229.384C184.901 228.497 183.623 227.954 182.219 227.954L164.43 227.954C161.483 227.954 159.093 230.344 159.093 233.291L159.093 251.08C159.093 254.027 161.483 256.417 164.43 256.417L182.219 256.417C185.166 256.417 187.556 254.027 187.556 251.08L187.556 233.291L187.556 233.26C187.572 230.337 189.939 227.97 192.862 227.954C192.872 227.954 192.882 227.954 192.892 227.954L239.144 227.954Z" fill="#343234"/>
<path opacity="0.5" fill-rule="evenodd" clip-rule="evenodd" d="M18.1363 634.577C15.1889 634.577 12.7996 632.188 12.7996 629.241V611.452C12.7996 608.504 15.1889 606.115 18.1363 606.115L64.3877 606.115C67.335 606.115 69.7244 608.504 69.7244 611.452L69.7244 629.241C69.7244 630.622 69.1994 631.881 68.338 632.829C69.1995 631.881 69.7245 630.622 69.7245 629.241C69.7245 632.188 72.1139 634.577 75.0612 634.577C73.6567 634.577 72.3788 635.12 71.4259 636.007C72.3788 635.12 73.6566 634.577 75.0611 634.577L92.8501 634.577C95.7974 634.577 98.1868 636.967 98.1868 639.914L98.1868 657.703C98.1868 660.65 95.7974 663.04 92.8501 663.04L75.0611 663.04C72.1137 663.04 69.7244 660.65 69.7244 657.703L69.7244 639.914L69.7244 639.883C69.708 636.96 67.3415 634.594 64.4184 634.577C64.4081 634.577 64.3979 634.577 64.3877 634.577L18.1363 634.577Z" fill="#343234"/>
<path opacity="0.5" fill-rule="evenodd" clip-rule="evenodd" d="M260.091 172.534C257.143 172.534 254.754 170.144 254.754 167.197V149.408C254.754 146.461 257.143 144.071 260.091 144.071L306.342 144.071C309.289 144.071 311.679 146.461 311.679 149.408L311.679 167.197C311.679 168.579 311.154 169.838 310.292 170.785C311.154 169.838 311.679 168.578 311.679 167.197C311.679 170.144 314.068 172.534 317.016 172.534C315.611 172.534 314.333 173.076 313.38 173.963C314.333 173.076 315.611 172.534 317.015 172.534L334.804 172.534C337.752 172.534 340.141 174.923 340.141 177.87L340.141 195.659C340.141 198.607 337.752 200.996 334.804 200.996L317.015 200.996C314.068 200.996 311.679 198.607 311.679 195.659L311.679 177.87L311.679 177.84C311.662 174.916 309.296 172.55 306.373 172.534C306.362 172.534 306.352 172.534 306.342 172.534L260.091 172.534Z" fill="#343234"/>
<path opacity="0.75" fill-rule="evenodd" clip-rule="evenodd" d="M366.757 533.436C369.704 533.436 372.094 531.047 372.094 528.099V510.31C372.094 507.363 369.704 504.974 366.757 504.974L320.505 504.974C317.558 504.974 315.169 507.363 315.169 510.31L315.169 528.099C315.169 529.481 315.694 530.74 316.555 531.688C315.694 530.74 315.169 529.481 315.169 528.099C315.169 531.047 312.779 533.436 309.832 533.436C311.236 533.436 312.514 533.979 313.467 534.866C312.514 533.979 311.236 533.436 309.832 533.436L292.043 533.436C289.096 533.436 286.706 535.825 286.706 538.773L286.706 556.562C286.706 559.509 289.096 561.899 292.043 561.899L309.832 561.899C312.779 561.899 315.169 559.509 315.169 556.562L315.169 538.773L315.169 538.742C315.185 535.819 317.552 533.452 320.475 533.436C320.485 533.436 320.495 533.436 320.505 533.436L366.757 533.436Z" fill="#343234"/>
<path opacity="0.75" fill-rule="evenodd" clip-rule="evenodd" d="M228.591 29.4362C231.538 29.4362 233.927 27.0468 233.927 24.0995V6.31045C233.927 3.36308 231.538 0.973751 228.591 0.973751L182.339 0.97374C179.392 0.973739 177.003 3.36306 177.003 6.31044L177.003 24.0994C177.003 25.481 177.528 26.74 178.389 27.6877C177.528 26.74 177.003 25.4809 177.003 24.0993C177.003 27.0466 174.613 29.436 171.666 29.436C173.07 29.436 174.348 29.9786 175.301 30.8656C174.348 29.9787 173.07 29.4361 171.666 29.4361L153.877 29.4361C150.93 29.4361 148.54 31.8255 148.54 34.7728L148.54 52.5619C148.54 55.5092 150.93 57.8986 153.877 57.8986L171.666 57.8986C174.613 57.8986 177.003 55.5092 177.003 52.5619L177.003 34.7728L177.003 34.742C177.019 31.8189 179.386 29.4524 182.309 29.4361C182.319 29.4361 182.329 29.4361 182.339 29.4361L228.591 29.4362Z" fill="#343234"/>
<path fill-rule="evenodd" clip-rule="evenodd" d="M42.9635 124.436C40.9303 124.436 39.282 122.788 39.282 120.755V108.483C39.282 106.45 40.9303 104.801 42.9635 104.801L74.8703 104.801C76.9036 104.801 78.5518 106.45 78.5518 108.483L78.5518 120.755C78.5518 122.079 77.8526 123.24 76.8031 123.889C77.8527 123.24 78.552 122.079 78.552 120.755C78.552 122.788 80.2003 124.436 82.2336 124.436C81.6371 124.436 81.0737 124.578 80.5753 124.83C81.0736 124.578 81.6369 124.436 82.2334 124.436L94.5052 124.436C96.5385 124.436 98.1868 126.085 98.1868 128.118L98.1868 140.39C98.1868 142.423 96.5385 144.071 94.5052 144.071L82.2334 144.071C80.2001 144.071 78.5518 142.423 78.5518 140.39L78.5518 128.118L78.5519 128.091C78.5376 126.077 76.9057 124.447 74.8906 124.436C74.8838 124.436 74.8771 124.436 74.8703 124.436L42.9635 124.436Z" fill="#343234"/>
<path opacity="0.5" fill-rule="evenodd" clip-rule="evenodd" d="M332.763 576.591C330.906 576.591 329.4 575.085 329.4 573.227V562.015C329.4 560.157 330.906 558.651 332.763 558.651L361.916 558.651C363.774 558.651 365.28 560.157 365.28 562.015L365.28 573.227C365.28 574.795 364.207 576.112 362.756 576.485C364.208 576.112 365.28 574.795 365.28 573.227C365.28 575.085 366.786 576.591 368.644 576.591C368.408 576.591 368.177 576.615 367.955 576.661C368.177 576.615 368.407 576.591 368.643 576.591L379.856 576.591C381.713 576.591 383.219 578.097 383.219 579.955L383.219 591.167C383.219 593.025 381.713 594.531 379.856 594.531L368.643 594.531C366.785 594.531 365.279 593.025 365.279 591.167L365.279 579.955L365.28 579.916C365.259 578.081 363.769 576.599 361.931 576.591C361.926 576.591 361.921 576.591 361.916 576.591L332.763 576.591Z" fill="#343234"/>
<path opacity="0.5" fill-rule="evenodd" clip-rule="evenodd" d="M162.457 576.591C160.599 576.591 159.093 575.085 159.093 573.227V562.015C159.093 560.157 160.599 558.651 162.457 558.651L191.61 558.651C193.467 558.651 194.973 560.157 194.973 562.015L194.973 573.227C194.973 574.795 193.901 576.112 192.45 576.485C193.901 576.112 194.974 574.795 194.974 573.227C194.974 575.085 196.48 576.591 198.337 576.591C198.101 576.591 197.871 576.615 197.649 576.661C197.871 576.615 198.101 576.591 198.337 576.591L209.549 576.591C211.407 576.591 212.913 578.097 212.913 579.955L212.913 591.167C212.913 593.025 211.407 594.531 209.549 594.531L198.337 594.531C196.479 594.531 194.973 593.025 194.973 591.167L194.973 579.955L194.973 579.916C194.953 578.081 193.463 576.599 191.625 576.591C191.62 576.591 191.615 576.591 191.61 576.591L162.457 576.591Z" fill="#343234"/>
<path opacity="0.5" fill-rule="evenodd" clip-rule="evenodd" d="M273.901 337.914C272.044 337.914 270.538 336.408 270.538 334.55V323.337C270.538 321.48 272.044 319.974 273.901 319.974L303.054 319.974C304.911 319.974 306.417 321.48 306.417 323.337L306.417 334.55C306.417 336.117 305.345 337.434 303.894 337.808C305.345 337.435 306.418 336.117 306.418 334.55C306.418 336.408 307.924 337.914 309.782 337.914C309.545 337.914 309.315 337.938 309.093 337.984C309.315 337.938 309.545 337.914 309.781 337.914L320.994 337.914C322.851 337.914 324.357 339.42 324.357 341.277L324.357 352.49C324.357 354.348 322.851 355.854 320.994 355.854L309.781 355.854C307.923 355.854 306.417 354.348 306.417 352.49L306.417 341.277L306.418 341.239C306.397 339.404 304.907 337.922 303.069 337.914C303.064 337.914 303.059 337.914 303.054 337.914L273.901 337.914Z" fill="#343234"/>
<path opacity="0.5" fill-rule="evenodd" clip-rule="evenodd" d="M401.627 427.436C400.698 427.436 399.945 426.683 399.945 425.754V420.148C399.945 419.219 400.698 418.466 401.627 418.466L416.203 418.466C417.132 418.466 417.885 419.219 417.885 420.148L417.885 425.754C417.885 426.582 417.287 427.27 416.501 427.41C417.288 427.27 417.885 426.582 417.885 425.754C417.885 426.683 418.638 427.436 419.567 427.436C419.34 427.436 419.124 427.481 418.926 427.563C419.124 427.481 419.34 427.436 419.567 427.436L425.173 427.436C426.102 427.436 426.855 428.189 426.855 429.118L426.855 434.725C426.855 435.653 426.102 436.406 425.173 436.406L419.567 436.406C418.638 436.406 417.885 435.653 417.885 434.725L417.885 429.118L417.885 429.098C417.874 428.181 417.129 427.44 416.211 427.436C416.208 427.436 416.206 427.436 416.203 427.436L401.627 427.436Z" fill="#343234"/>
<path opacity="0.5" fill-rule="evenodd" clip-rule="evenodd" d="M104.627 358.466C103.698 358.466 102.945 357.713 102.945 356.784V351.178C102.945 350.249 103.698 349.496 104.627 349.496L119.203 349.496C120.132 349.496 120.885 350.249 120.885 351.178L120.885 356.784C120.885 357.612 120.287 358.299 119.501 358.44C120.288 358.299 120.885 357.612 120.885 356.784C120.885 357.713 121.638 358.466 122.567 358.466C122.34 358.466 122.124 358.511 121.926 358.592C122.124 358.511 122.34 358.466 122.567 358.466L128.173 358.466C129.102 358.466 129.855 359.219 129.855 360.148L129.855 365.754C129.855 366.683 129.102 367.436 128.173 367.436L122.567 367.436C121.638 367.436 120.885 366.683 120.885 365.754L120.885 360.148L120.885 360.128C120.874 359.211 120.129 358.47 119.211 358.466C119.208 358.466 119.206 358.466 119.203 358.466L104.627 358.466Z" fill="#343234"/>
<path fill-rule="evenodd" clip-rule="evenodd" d="M358.743 290.436C357.908 290.436 357.232 289.76 357.232 288.926V283.891C357.232 283.057 357.908 282.38 358.743 282.38L371.833 282.38C372.667 282.38 373.344 283.057 373.344 283.891L373.344 288.926C373.344 289.484 373.04 289.972 372.589 290.234C373.04 289.972 373.344 289.484 373.344 288.925C373.344 289.76 374.02 290.436 374.854 290.436C374.02 290.436 373.344 291.112 373.344 291.946C373.344 291.119 372.679 290.447 371.854 290.436C371.847 290.436 371.84 290.436 371.833 290.436L358.743 290.436ZM373.344 296.981C373.344 297.815 374.02 298.492 374.855 298.492L379.889 298.492C380.724 298.492 381.4 297.815 381.4 296.981L381.4 291.946C381.4 291.112 380.724 290.436 379.889 290.436L374.855 290.436C374.02 290.436 373.344 291.112 373.344 291.946L373.344 296.981Z" fill="#343234"/>
<path fill-rule="evenodd" clip-rule="evenodd" d="M125.602 199.492C126.436 199.492 127.112 198.816 127.112 197.981V192.947C127.112 192.112 126.436 191.436 125.602 191.436L112.511 191.436C111.677 191.436 111.001 192.112 111.001 192.947L111.001 197.981C111.001 198.54 111.304 199.028 111.755 199.289C111.304 199.028 111 198.54 111 197.981C111 198.815 110.324 199.492 109.49 199.492C110.324 199.492 111 200.168 111 201.002C111 200.175 111.666 199.502 112.491 199.492C112.497 199.492 112.504 199.492 112.511 199.492L125.602 199.492ZM111 206.037C111 206.871 110.324 207.547 109.49 207.547L104.455 207.547C103.621 207.547 102.944 206.871 102.944 206.037L102.944 201.002C102.944 200.168 103.621 199.492 104.455 199.492L109.49 199.492C110.324 199.492 111 200.168 111 201.002L111 206.037Z" fill="#343234"/>
<path fill-rule="evenodd" clip-rule="evenodd" d="M335.541 307.519C342.725 307.519 348.549 301.695 348.549 294.511V251.149C348.549 243.964 342.725 238.14 335.541 238.14L222.799 238.14C215.615 238.14 209.791 243.964 209.791 251.149L209.791 294.511C209.791 294.511 209.791 294.511 209.791 294.51C209.791 301.695 203.967 307.519 196.782 307.519C197.841 307.519 198.871 307.646 199.857 307.885C198.871 307.646 197.842 307.519 196.782 307.519L153.42 307.519C146.236 307.519 140.412 313.343 140.412 320.528L140.412 363.89C140.412 371.074 146.236 376.899 153.42 376.899L196.782 376.899C203.967 376.899 209.791 371.074 209.791 363.89L209.791 320.528L209.791 320.474C209.82 313.332 215.604 307.548 222.746 307.519C222.764 307.519 222.781 307.519 222.799 307.519L335.541 307.519Z" fill="#343234"/>
</g>
</svg>
