<svg width="526" height="176" viewBox="0 0 526 176" fill="none" xmlns="http://www.w3.org/2000/svg">
<g opacity="0.5">
<rect x="87.7153" y="0.608856" width="87.5" height="87.5" rx="42" fill="#343234"/>
<rect x="262.715" y="0.608856" width="87.5" height="87.5" rx="42" fill="#343234"/>
<rect x="437.715" y="0.608856" width="87.5" height="87.5" rx="42" fill="#343234"/>
<rect x="0.215332" y="88.1096" width="87.5" height="87.5" rx="42" fill="#343234"/>
<rect x="175.215" y="88.1096" width="87.5" height="87.5" rx="42" fill="#343234"/>
<rect x="350.215" y="88.1096" width="87.5" height="87.5" rx="42" fill="#343234"/>
<path fill-rule="evenodd" clip-rule="evenodd" d="M87.7159 131.859C87.7159 107.697 68.1281 88.1089 43.9655 88.1089C68.1277 88.1089 87.7152 68.5219 87.7159 44.3598C87.7166 68.5216 107.304 88.1084 131.465 88.1089C107.303 88.1094 87.7159 107.697 87.7159 131.859Z" fill="#343234"/>
<path fill-rule="evenodd" clip-rule="evenodd" d="M262.716 131.859C262.716 107.697 243.128 88.1089 218.965 88.1089C243.128 88.1089 262.715 68.5219 262.716 44.3598C262.717 68.5216 282.304 88.1084 306.465 88.1089C282.303 88.1094 262.716 107.697 262.716 131.859Z" fill="#343234"/>
<path fill-rule="evenodd" clip-rule="evenodd" d="M437.716 131.859C437.716 107.697 418.128 88.1089 393.965 88.1089C418.127 88.1089 437.715 68.5219 437.716 44.3598C437.716 68.5216 457.303 88.1084 481.465 88.1089C457.303 88.1094 437.716 107.697 437.716 131.859Z" fill="#343234"/>
<path fill-rule="evenodd" clip-rule="evenodd" d="M175.216 131.859C175.216 107.697 155.628 88.1089 131.465 88.1089C155.628 88.1089 175.215 68.5219 175.216 44.3598C175.217 68.5216 194.804 88.1084 218.965 88.1089C194.803 88.1094 175.216 107.697 175.216 131.859Z" fill="#343234"/>
<path fill-rule="evenodd" clip-rule="evenodd" d="M350.216 131.859C350.216 107.697 330.628 88.1089 306.465 88.1089C330.627 88.1089 350.215 68.5219 350.216 44.3598C350.216 68.5216 369.803 88.1084 393.965 88.1089C369.803 88.1094 350.216 107.697 350.216 131.859Z" fill="#343234"/>
</g>
</svg>
