<svg width="279" height="117" viewBox="0 0 279 117" fill="none" xmlns="http://www.w3.org/2000/svg">
<g opacity="0.5">
<path d="M140.219 13.9761C132.578 13.9761 108.49 29.4174 98.1961 29.4174C87.9018 29.4174 73.518 73.056 59.8393 73.056C46.1606 73.056 34.6349 110.297 25.4687 110.297C16.3026 110.297 1.45801 48.2156 1.45801 48.2156V116.359H277.853V15.9902C270.211 15.9902 264.719 1.55588 257.264 1.55588C249.809 1.55588 227.791 66.3424 217.92 66.3424C208.049 66.3424 195.56 16.1709 184.11 29.4174C172.659 42.6639 147.861 13.9761 140.219 13.9761Z" fill="url(#paint0_linear_1627_37707)"/>
<path d="M277.853 16.0162C270.211 16.0162 264.719 1.55588 257.264 1.55588C249.809 1.55588 227.791 66.4593 217.92 66.4593C208.049 66.4593 196.315 16.0162 185.494 29.4677C174.673 42.9192 147.861 13.9985 140.219 13.9985C132.578 13.9985 108.49 29.4677 98.1961 29.4677C87.9018 29.4677 73.518 73.1851 59.8393 73.1851C46.1606 73.1851 34.3044 110.297 25.1382 110.297C15.9721 110.297 1.45801 48.2998 1.45801 48.2998" stroke="#343234" stroke-width="2" stroke-linecap="round"/>
</g>
<defs>
<linearGradient id="paint0_linear_1627_37707" x1="139.655" y1="-1.1606" x2="139.655" y2="116.359" gradientUnits="userSpaceOnUse">
<stop stop-color="#343234"/>
<stop offset="1" stop-color="white" stop-opacity="0"/>
</linearGradient>
</defs>
</svg>
