<svg width="351" height="199" viewBox="0 0 351 199" fill="none" xmlns="http://www.w3.org/2000/svg">
<rect x="0.86084" y="66.691" width="175" height="66" rx="20" fill="#343234"/>
<path d="M17.4988 88.825C19.8648 88.657 21.4748 87.999 22.2868 86.977C23.0848 87.999 24.6948 88.657 27.0608 88.825L27.6068 87.453C24.8488 87.285 23.5888 86.487 23.3508 85.605H26.9908V84.163H23.1968V83.029H21.3488V84.163H17.5688V85.605H21.2088C20.9708 86.487 19.7108 87.285 16.9528 87.453L17.4988 88.825ZM22.2588 94.537C20.5088 94.537 19.6548 94.285 19.6548 93.711C19.6548 93.123 20.5088 92.885 22.2588 92.885C24.0088 92.885 24.8628 93.123 24.8628 93.711C24.8628 94.285 24.0088 94.537 22.2588 94.537ZM22.2588 91.527C19.4448 91.527 17.7928 92.297 17.7928 93.711C17.7928 95.125 19.4448 95.895 22.2588 95.895C25.0728 95.895 26.7388 95.125 26.7388 93.711C26.7388 92.297 25.0728 91.527 22.2588 91.527ZM23.1968 89.469V88.237H21.3488V89.469H16.4628V90.911H28.1108V89.469H23.1968ZM43.9782 89.231H42.2842C42.6062 87.425 42.6062 86.109 42.6062 84.905V83.743H33.6602V85.227H40.8002C40.8002 86.333 40.7722 87.593 40.4502 89.231H32.3302V90.715H37.1462V95.895H39.0222V90.715H43.9782V89.231ZM46.8611 85.773H48.5131V91.233H46.8611V85.773ZM45.1391 92.675H50.2211V84.317H45.1391V92.675ZM54.0851 82.987V87.915H53.0071V83.197H51.2851V95.307H53.0071V89.399H54.0851V95.881H55.8351V82.987H54.0851ZM57.822 84.317V85.815H62.036C61.7 88.671 60.104 90.715 57.108 92.255L58.144 93.669C62.428 91.499 63.898 88.181 63.898 84.317H57.822ZM69.134 87.915H67.328V82.987H65.48V95.867H67.328V89.441H69.134V87.915ZM71.6809 92.647H78.6249V95.839H80.4729V91.191H71.6809V92.647ZM78.6249 83.001V85.073H76.4269C76.4969 84.667 76.5389 84.247 76.5389 83.813H70.5609V85.283H74.5509C74.2709 87.033 72.6749 88.475 69.8189 89.203L70.5329 90.645C73.2489 89.917 75.1249 88.545 75.9929 86.557H78.6249V87.817H75.7829V89.301H78.6249V90.645H80.4729V83.015L78.6249 83.001Z" fill="white"/>
<path d="M21.1831 116.691H23.4697V101.895H21.1831L17.2866 104.663V106.888L21.0601 104.232H21.1831V116.691ZM31.3665 101.577C30.3274 101.577 29.4011 101.799 28.5877 102.243C27.781 102.681 27.1453 103.286 26.6804 104.058C26.2224 104.831 25.9934 105.712 25.9934 106.704V106.724C25.9934 107.661 26.2019 108.498 26.6189 109.236C27.0359 109.975 27.6101 110.556 28.3416 110.98C29.073 111.403 29.907 111.615 30.8435 111.615C31.5203 111.615 32.1218 111.513 32.6482 111.308C33.1746 111.096 33.6189 110.815 33.9812 110.467C34.3504 110.118 34.6272 109.735 34.8118 109.318H35.1194V106.693H34.5042V106.704C34.5042 107.298 34.364 107.825 34.0837 108.283C33.8103 108.741 33.4378 109.103 32.9661 109.37C32.4944 109.629 31.9612 109.759 31.3665 109.759C30.7717 109.759 30.242 109.626 29.7771 109.359C29.3123 109.093 28.9431 108.727 28.6697 108.262C28.4031 107.791 28.2698 107.254 28.2698 106.652V106.632C28.2698 106.051 28.4099 105.524 28.6902 105.053C28.9705 104.581 29.3464 104.209 29.8181 103.935C30.2898 103.655 30.8128 103.515 31.387 103.515C31.9749 103.515 32.5012 103.658 32.9661 103.945C33.4378 104.226 33.8103 104.605 34.0837 105.084C34.364 105.562 34.5042 106.099 34.5042 106.693L34.9553 109.154C34.9553 109.243 34.9553 109.332 34.9553 109.421C34.9553 109.51 34.9519 109.599 34.9451 109.688C34.9109 110.665 34.7639 111.561 34.5042 112.374C34.2512 113.188 33.8616 113.84 33.3352 114.333C32.8157 114.818 32.1355 115.061 31.2947 115.061C30.8298 115.061 30.4129 114.985 30.0437 114.835C29.6814 114.685 29.3704 114.473 29.1106 114.199C28.8577 113.926 28.6594 113.605 28.5159 113.235L28.4851 113.133H26.1882L26.2087 113.256C26.3728 113.994 26.6873 114.647 27.1521 115.214C27.617 115.775 28.2014 116.216 28.9055 116.537C29.6165 116.852 30.4094 117.009 31.2844 117.009C32.5149 117.009 33.5676 116.694 34.4426 116.065C35.3176 115.437 35.9876 114.534 36.4524 113.358C36.9241 112.176 37.1599 110.754 37.1599 109.093V109.072C37.1599 107.719 36.9993 106.57 36.678 105.627C36.3635 104.677 35.9329 103.904 35.386 103.31C34.8391 102.708 34.2205 102.271 33.53 101.997C32.8396 101.717 32.1184 101.577 31.3665 101.577ZM37.2124 120.198H38.7813L40.4116 114.476H38.084L37.2124 120.198ZM42.4124 116.691H44.8323L51.2718 103.894V101.895H41.1819V103.843H48.9544V103.956L42.4124 116.691ZM52.4727 116.691H62.501V114.732H54.9336L55.5899 115.235V114.035L54.9234 115.235L58.8096 111.379C59.7051 110.498 60.4024 109.746 60.9014 109.124C61.4073 108.502 61.7593 107.931 61.9576 107.411C62.1626 106.892 62.2652 106.352 62.2652 105.791V105.771C62.2652 104.957 62.0567 104.236 61.6397 103.607C61.2295 102.978 60.6621 102.482 59.9375 102.12C59.2129 101.758 58.3824 101.577 57.4458 101.577C56.4683 101.577 55.5933 101.775 54.8208 102.171C54.0552 102.561 53.4502 103.101 53.0059 103.792C52.5684 104.482 52.3462 105.275 52.3394 106.17L52.3496 106.211L54.5235 106.222L54.5337 106.17C54.5337 105.644 54.6534 105.179 54.8926 104.776C55.1387 104.373 55.4737 104.058 55.8975 103.833C56.3282 103.6 56.8238 103.484 57.3843 103.484C57.9107 103.484 58.3653 103.59 58.7481 103.802C59.1377 104.014 59.4385 104.308 59.6504 104.684C59.8692 105.053 59.9786 105.477 59.9786 105.955V105.976C59.9786 106.372 59.9068 106.745 59.7632 107.093C59.6265 107.435 59.377 107.828 59.0147 108.273C58.6592 108.71 58.1534 109.264 57.4971 109.934L52.4727 115.122V116.691ZM64.5838 116.691H67.0037L73.4432 103.894V101.895H63.3533V103.843H71.1258V103.956L64.5838 116.691ZM71.9986 120.198H73.5674L75.1978 114.476H72.8702L71.9986 120.198ZM82.0179 116.958C83.1116 116.958 84.0789 116.776 84.9197 116.414C85.7674 116.052 86.4271 115.549 86.8988 114.907C87.3773 114.264 87.6165 113.523 87.6165 112.682V112.661C87.6165 112.039 87.4764 111.472 87.1961 110.959C86.9227 110.44 86.5399 110.002 86.0477 109.647C85.5555 109.284 84.9847 109.035 84.3353 108.898V108.847C85.1693 108.607 85.8323 108.197 86.3245 107.616C86.8236 107.035 87.0731 106.352 87.0731 105.565V105.545C87.0731 104.793 86.8577 104.123 86.4271 103.535C85.9964 102.947 85.3983 102.482 84.6326 102.141C83.8738 101.799 83.0023 101.628 82.0179 101.628C81.0335 101.628 80.1585 101.799 79.3929 102.141C78.6341 102.482 78.036 102.947 77.5985 103.535C77.1678 104.123 76.9525 104.793 76.9525 105.545V105.565C76.9525 106.352 77.202 107.035 77.701 107.616C78.2 108.197 78.8631 108.607 79.6903 108.847V108.898C79.0477 109.035 78.4803 109.284 77.9881 109.647C77.4959 110.002 77.1097 110.44 76.8294 110.959C76.556 111.472 76.4193 112.039 76.4193 112.661V112.682C76.4193 113.523 76.6551 114.264 77.1268 114.907C77.6053 115.549 78.265 116.052 79.1058 116.414C79.9466 116.776 80.9173 116.958 82.0179 116.958ZM82.0179 115.112C81.389 115.112 80.8319 115.003 80.3465 114.784C79.8612 114.558 79.4783 114.254 79.1981 113.871C78.9246 113.482 78.7879 113.037 78.7879 112.538V112.518C78.7879 112.012 78.9246 111.564 79.1981 111.174C79.4715 110.785 79.8509 110.481 80.3363 110.262C80.8216 110.036 81.3821 109.923 82.0179 109.923C82.6468 109.923 83.2039 110.036 83.6893 110.262C84.1746 110.481 84.554 110.785 84.8275 111.174C85.1009 111.564 85.2376 112.012 85.2376 112.518V112.538C85.2376 113.037 85.0975 113.482 84.8172 113.871C84.5438 114.254 84.1644 114.558 83.679 114.784C83.2005 115.003 82.6468 115.112 82.0179 115.112ZM82.0179 108.067C81.4642 108.067 80.9788 107.972 80.5618 107.78C80.1448 107.582 79.8201 107.312 79.5877 106.97C79.3553 106.622 79.2391 106.222 79.2391 105.771V105.75C79.2391 105.299 79.3553 104.902 79.5877 104.561C79.8201 104.212 80.1448 103.942 80.5618 103.751C80.9857 103.552 81.471 103.453 82.0179 103.453C82.5648 103.453 83.0467 103.552 83.4637 103.751C83.8807 103.942 84.2054 104.212 84.4378 104.561C84.6771 104.902 84.7967 105.299 84.7967 105.75V105.771C84.7967 106.222 84.6771 106.622 84.4378 106.97C84.2054 107.312 83.8807 107.582 83.4637 107.78C83.0467 107.972 82.5648 108.067 82.0179 108.067ZM94.1392 117.009C95.1851 117.009 96.1114 116.794 96.918 116.363C97.7247 115.925 98.357 115.324 98.815 114.558C99.273 113.786 99.502 112.897 99.502 111.892V111.872C99.502 110.921 99.2935 110.081 98.8765 109.349C98.4664 108.618 97.899 108.04 97.1744 107.616C96.4566 107.192 95.6295 106.981 94.6929 106.981C93.9888 106.981 93.3531 107.117 92.7857 107.391C92.2252 107.657 91.7843 108.04 91.463 108.539H91.3399L91.7911 103.843H98.651V101.895H89.9556L89.2276 110.467H91.2169C91.3126 110.296 91.4185 110.142 91.5347 110.005C91.651 109.862 91.7774 109.729 91.9141 109.606C92.2081 109.339 92.5465 109.141 92.9293 109.011C93.3121 108.874 93.7291 108.806 94.1803 108.806C94.7818 108.806 95.315 108.939 95.7799 109.206C96.2447 109.472 96.6104 109.841 96.877 110.313C97.1436 110.778 97.2769 111.311 97.2769 111.913V111.933C97.2769 112.548 97.1436 113.092 96.877 113.564C96.6173 114.035 96.2515 114.404 95.7799 114.671C95.3082 114.938 94.7647 115.071 94.1495 115.071C93.6163 115.071 93.1309 114.968 92.6934 114.763C92.2628 114.558 91.9107 114.278 91.6373 113.922C91.3707 113.567 91.2066 113.17 91.1451 112.733L91.1348 112.661H88.961L88.9713 112.784C89.0396 113.584 89.296 114.305 89.7403 114.948C90.1915 115.584 90.793 116.086 91.545 116.455C92.297 116.824 93.1617 117.009 94.1392 117.009ZM101.421 116.691H103.841L110.28 103.894V101.895H100.19V103.843H107.963V103.956L101.421 116.691ZM117.238 112.491V113.751H119.66V114.773H121.508V105.001H119.66V112.491H117.238ZM114.76 106.779C115.614 106.779 116.216 107.115 116.216 107.745C116.216 108.375 115.614 108.697 114.76 108.697C113.892 108.697 113.29 108.375 113.29 107.745C113.29 107.115 113.892 106.779 114.76 106.779ZM114.76 110.041C116.636 110.041 117.966 109.117 117.966 107.745C117.966 106.373 116.636 105.435 114.76 105.435C112.87 105.435 111.554 106.373 111.554 107.745C111.554 109.117 112.87 110.041 114.76 110.041ZM114.074 116.201V114.437H115.852V112.001C116.888 111.917 117.924 111.805 118.932 111.637L118.806 110.321C116.09 110.671 112.954 110.699 110.602 110.713L110.84 112.183C111.806 112.183 112.884 112.169 114.018 112.113V113.835H112.226V117.671H121.788V116.201H114.074Z" fill="white"/>
<rect x="175.861" y="0.690979" width="175" height="66" rx="20" fill="#343234"/>
<path d="M196.195 19.759H198.757V18.233H191.673V19.759H194.347V20.473C194.347 22.601 193.297 25.023 191.183 26.003L192.219 27.473C193.689 26.773 194.725 25.359 195.299 23.679C195.873 25.205 196.881 26.493 198.309 27.151L199.331 25.695C197.217 24.715 196.195 22.433 196.195 20.473V19.759ZM203.433 21.915H201.557V17.001H199.709V29.895H201.557V23.441H203.433V21.915ZM211.636 23.119C209.55 22.447 208.682 20.823 208.682 19.185V17.785H206.806V19.171C206.806 20.935 205.896 22.657 203.726 23.357L204.706 24.799C206.176 24.309 207.198 23.301 207.772 22.013C208.332 23.175 209.284 24.099 210.684 24.561L211.636 23.119ZM207.618 25.541H205.77V29.671H214.52V28.201H207.618V25.541ZM214.072 20.739V17.001H212.224V26.437H214.072V22.265H215.78V20.739H214.072ZM227.909 21.607H229.015V25.415H230.765V17.001H229.015V20.123H227.909V17.239H226.187V24.183H227.909V21.607ZM220.321 18.093V19.563H223.485C223.219 21.397 222.085 22.769 219.705 23.763L220.643 25.093C223.975 23.665 225.389 21.369 225.389 18.093H220.321ZM227.293 24.771H225.445V25.149C225.445 26.549 224.115 28.033 221.329 28.411L222.029 29.853C224.115 29.545 225.585 28.635 226.369 27.403C227.153 28.635 228.623 29.545 230.695 29.853L231.395 28.411C228.623 28.033 227.293 26.549 227.293 25.149V24.771ZM243.476 21.579C240.55 21.173 239.066 19.493 239.066 17.995V17.379H237.092V17.995C237.092 19.507 235.622 21.173 232.682 21.579L233.382 23.063C235.636 22.727 237.26 21.677 238.086 20.291C238.912 21.677 240.522 22.727 242.776 23.063L243.476 21.579ZM243.896 24.015H232.248V25.513H237.106V29.909H238.954V25.513H243.896V24.015Z" fill="white"/>
<path d="M197.721 51.0089C198.767 51.0089 199.693 50.7935 200.5 50.3629C201.307 49.9254 201.939 49.3238 202.397 48.5582C202.855 47.7857 203.084 46.897 203.084 45.8922V45.8716C203.084 44.9214 202.875 44.0806 202.458 43.3492C202.048 42.6177 201.481 42.0401 200.756 41.6163C200.039 41.1924 199.211 40.9805 198.275 40.9805C197.571 40.9805 196.935 41.1172 196.368 41.3907C195.807 41.6573 195.366 42.0401 195.045 42.5391H194.922L195.373 37.8428H202.233V35.8946H193.538L192.81 44.4669H194.799C194.895 44.296 195 44.1422 195.117 44.0054C195.233 43.8619 195.359 43.7286 195.496 43.6055C195.79 43.3389 196.128 43.1407 196.511 43.0108C196.894 42.8741 197.311 42.8057 197.762 42.8057C198.364 42.8057 198.897 42.939 199.362 43.2056C199.827 43.4722 200.192 43.8414 200.459 44.313C200.726 44.7779 200.859 45.3111 200.859 45.9127V45.9332C200.859 46.5484 200.726 47.0919 200.459 47.5635C200.199 48.0352 199.833 48.4044 199.362 48.671C198.89 48.9376 198.347 49.0709 197.731 49.0709C197.198 49.0709 196.713 48.9683 196.275 48.7632C195.845 48.5582 195.493 48.2779 195.219 47.9224C194.953 47.567 194.789 47.1705 194.727 46.733L194.717 46.6612H192.543L192.553 46.7842C192.622 47.584 192.878 48.3052 193.322 48.9478C193.773 49.5836 194.375 50.086 195.127 50.4551C195.879 50.8243 196.744 51.0089 197.721 51.0089ZM209.812 51.0089C210.858 51.0089 211.784 50.7901 212.591 50.3526C213.397 49.9083 214.033 49.2999 214.498 48.5274C214.963 47.7549 215.195 46.8731 215.195 45.8819V45.8614C215.195 44.9249 214.987 44.0875 214.57 43.3492C214.153 42.6109 213.578 42.0298 212.847 41.606C212.115 41.1822 211.278 40.9703 210.335 40.9703C209.665 40.9703 209.067 41.0762 208.54 41.2881C208.014 41.4932 207.566 41.7701 207.197 42.1187C206.835 42.4673 206.558 42.8502 206.366 43.2672H206.069V45.8922H206.674V45.8819C206.674 45.2872 206.811 44.7608 207.084 44.3028C207.365 43.8448 207.74 43.4859 208.212 43.2261C208.691 42.9595 209.227 42.8262 209.822 42.8262C210.417 42.8262 210.947 42.9595 211.411 43.2261C211.876 43.4927 212.242 43.8619 212.509 44.3336C212.775 44.7984 212.908 45.3316 212.908 45.9332V45.9537C212.908 46.5347 212.768 47.0611 212.488 47.5328C212.215 48.0045 211.842 48.3804 211.37 48.6607C210.899 48.9341 210.372 49.0709 209.791 49.0709C209.21 49.0709 208.684 48.9307 208.212 48.6505C207.74 48.3633 207.365 47.9805 207.084 47.502C206.811 47.0235 206.674 46.4869 206.674 45.8922L206.223 43.4312C206.223 43.3423 206.223 43.2535 206.223 43.1646C206.223 43.0757 206.226 42.9869 206.233 42.898C206.274 41.9136 206.421 41.0181 206.674 40.2115C206.934 39.398 207.323 38.7486 207.843 38.2632C208.369 37.7711 209.05 37.525 209.884 37.525C210.348 37.525 210.765 37.6002 211.135 37.7505C211.504 37.9009 211.815 38.1129 212.068 38.3863C212.327 38.6529 212.526 38.9742 212.662 39.3502L212.703 39.4527H215L214.969 39.3297C214.812 38.5914 214.498 37.942 214.026 37.3814C213.561 36.814 212.977 36.3731 212.273 36.0587C211.569 35.7374 210.779 35.5767 209.904 35.5767C208.674 35.5767 207.621 35.8912 206.746 36.5201C205.871 37.149 205.198 38.0547 204.726 39.2374C204.261 40.4131 204.029 41.8316 204.029 43.4927V43.5132C204.029 44.8668 204.186 46.0186 204.5 46.9688C204.822 47.9122 205.252 48.6846 205.792 49.2862C206.339 49.8809 206.958 50.3184 207.648 50.5987C208.345 50.8721 209.067 51.0089 209.812 51.0089Z" fill="white"/>
<g filter="url(#filter0_b_1641_37345)">
<path d="M175.861 86.691C175.861 75.6453 184.815 66.691 195.861 66.691H330.861C341.907 66.691 350.861 75.6453 350.861 86.691V112.691C350.861 123.737 341.907 132.691 330.861 132.691H195.861C184.815 132.691 175.861 123.737 175.861 112.691V86.691Z" fill="#74F892"/>
<path d="M200.395 90.883H202.243V83.001H200.395V85.073H198.883V86.557H200.395V87.495H198.883V88.965H200.395V90.883ZM194.585 85.325H195.789V88.825C195.383 88.839 194.977 88.867 194.585 88.867V85.325ZM198.743 88.601C198.365 88.643 197.973 88.685 197.567 88.727V85.325H198.589V83.855H191.785V85.325H192.807V88.909C192.331 88.909 191.883 88.909 191.463 88.909L191.659 90.407C193.689 90.407 196.461 90.365 198.855 89.959L198.743 88.601ZM197.875 94.509C196.181 94.509 195.313 94.173 195.313 93.501C195.313 92.815 196.181 92.493 197.875 92.493C199.583 92.493 200.451 92.815 200.451 93.501C200.451 94.173 199.583 94.509 197.875 94.509ZM197.875 91.093C195.131 91.093 193.465 91.975 193.465 93.501C193.465 95.013 195.131 95.895 197.875 95.895C200.633 95.895 202.299 95.013 202.299 93.501C202.299 91.975 200.633 91.093 197.875 91.093ZM204.51 84.317V85.815H208.724C208.388 88.671 206.792 90.715 203.796 92.255L204.832 93.669C209.116 91.499 210.586 88.181 210.586 84.317H204.51ZM215.822 87.915H214.016V82.987H212.168V95.867H214.016V89.441H215.822V87.915ZM230.793 87.215C227.881 86.837 226.523 85.339 226.523 83.757V83.379H224.633V83.757C224.633 85.269 223.247 86.823 220.377 87.215L221.077 88.671C223.233 88.335 224.773 87.383 225.571 86.067C226.369 87.383 227.923 88.321 230.079 88.671L230.793 87.215ZM223.037 91.947H221.189V95.671H230.121V94.201H223.037V91.947ZM226.509 89.693V87.887H224.661V89.693H219.775V91.163H231.437V89.693H226.509ZM234.152 91.163V92.633H241.082V95.909H242.944V91.163H234.152ZM241.082 83.015V90.575H242.944V83.015H241.082ZM235.916 83.701C233.942 83.701 232.416 85.031 232.416 86.865C232.416 88.699 233.942 90.015 235.916 90.015C237.918 90.015 239.43 88.699 239.43 86.865C239.43 85.031 237.918 83.701 235.916 83.701ZM235.916 85.269C236.896 85.269 237.624 85.857 237.624 86.865C237.624 87.859 236.896 88.461 235.916 88.461C234.95 88.461 234.222 87.859 234.222 86.865C234.222 85.857 234.95 85.269 235.916 85.269Z" fill="#111111"/>
<path d="M196.433 107.615C196.812 107.278 197.383 107.278 197.762 107.615L201.131 110.61C201.819 111.221 201.386 112.358 200.467 112.358H193.727C192.808 112.358 192.376 111.221 193.063 110.61L196.433 107.615Z" fill="#FF6161"/>
<path d="M211.854 116.958C212.948 116.958 213.916 116.776 214.756 116.414C215.604 116.052 216.264 115.549 216.735 114.907C217.214 114.264 217.453 113.523 217.453 112.682V112.661C217.453 112.039 217.313 111.472 217.033 110.959C216.759 110.44 216.376 110.002 215.884 109.647C215.392 109.284 214.821 109.035 214.172 108.898V108.847C215.006 108.607 215.669 108.197 216.161 107.616C216.66 107.035 216.91 106.352 216.91 105.565V105.545C216.91 104.793 216.694 104.123 216.264 103.535C215.833 102.947 215.235 102.482 214.469 102.141C213.71 101.799 212.839 101.628 211.854 101.628C210.87 101.628 209.995 101.799 209.229 102.141C208.471 102.482 207.873 102.947 207.435 103.535C207.004 104.123 206.789 104.793 206.789 105.545V105.565C206.789 106.352 207.039 107.035 207.538 107.616C208.037 108.197 208.7 108.607 209.527 108.847V108.898C208.884 109.035 208.317 109.284 207.825 109.647C207.333 110.002 206.946 110.44 206.666 110.959C206.393 111.472 206.256 112.039 206.256 112.661V112.682C206.256 113.523 206.492 114.264 206.963 114.907C207.442 115.549 208.102 116.052 208.942 116.414C209.783 116.776 210.754 116.958 211.854 116.958ZM211.854 115.112C211.226 115.112 210.668 115.003 210.183 114.784C209.698 114.558 209.315 114.254 209.035 113.871C208.761 113.482 208.625 113.037 208.625 112.538V112.518C208.625 112.012 208.761 111.564 209.035 111.174C209.308 110.785 209.688 110.481 210.173 110.262C210.658 110.036 211.219 109.923 211.854 109.923C212.483 109.923 213.041 110.036 213.526 110.262C214.011 110.481 214.391 110.785 214.664 111.174C214.938 111.564 215.074 112.012 215.074 112.518V112.538C215.074 113.037 214.934 113.482 214.654 113.871C214.38 114.254 214.001 114.558 213.516 114.784C213.037 115.003 212.483 115.112 211.854 115.112ZM211.854 108.067C211.301 108.067 210.815 107.972 210.398 107.78C209.981 107.582 209.657 107.312 209.424 106.97C209.192 106.622 209.076 106.222 209.076 105.771V105.75C209.076 105.299 209.192 104.902 209.424 104.561C209.657 104.212 209.981 103.942 210.398 103.751C210.822 103.552 211.308 103.453 211.854 103.453C212.401 103.453 212.883 103.552 213.3 103.751C213.717 103.942 214.042 104.212 214.274 104.561C214.514 104.902 214.633 105.299 214.633 105.75V105.771C214.633 106.222 214.514 106.622 214.274 106.97C214.042 107.312 213.717 107.582 213.3 107.78C212.883 107.972 212.401 108.067 211.854 108.067ZM217.711 120.198H219.28L220.91 114.476H218.582L217.711 120.198ZM227.73 116.958C228.824 116.958 229.791 116.776 230.632 116.414C231.48 116.052 232.139 115.549 232.611 114.907C233.089 114.264 233.329 113.523 233.329 112.682V112.661C233.329 112.039 233.188 111.472 232.908 110.959C232.635 110.44 232.252 110.002 231.76 109.647C231.268 109.284 230.697 109.035 230.047 108.898V108.847C230.881 108.607 231.544 108.197 232.037 107.616C232.536 107.035 232.785 106.352 232.785 105.565V105.545C232.785 104.793 232.57 104.123 232.139 103.535C231.709 102.947 231.11 102.482 230.345 102.141C229.586 101.799 228.714 101.628 227.73 101.628C226.746 101.628 225.871 101.799 225.105 102.141C224.346 102.482 223.748 102.947 223.311 103.535C222.88 104.123 222.665 104.793 222.665 105.545V105.565C222.665 106.352 222.914 107.035 223.413 107.616C223.912 108.197 224.575 108.607 225.402 108.847V108.898C224.76 109.035 224.192 109.284 223.7 109.647C223.208 110.002 222.822 110.44 222.542 110.959C222.268 111.472 222.131 112.039 222.131 112.661V112.682C222.131 113.523 222.367 114.264 222.839 114.907C223.317 115.549 223.977 116.052 224.818 116.414C225.659 116.776 226.629 116.958 227.73 116.958ZM227.73 115.112C227.101 115.112 226.544 115.003 226.059 114.784C225.573 114.558 225.19 114.254 224.91 113.871C224.637 113.482 224.5 113.037 224.5 112.538V112.518C224.5 112.012 224.637 111.564 224.91 111.174C225.184 110.785 225.563 110.481 226.048 110.262C226.534 110.036 227.094 109.923 227.73 109.923C228.359 109.923 228.916 110.036 229.401 110.262C229.887 110.481 230.266 110.785 230.54 111.174C230.813 111.564 230.95 112.012 230.95 112.518V112.538C230.95 113.037 230.81 113.482 230.529 113.871C230.256 114.254 229.876 114.558 229.391 114.784C228.913 115.003 228.359 115.112 227.73 115.112ZM227.73 108.067C227.176 108.067 226.691 107.972 226.274 107.78C225.857 107.582 225.532 107.312 225.3 106.97C225.067 106.622 224.951 106.222 224.951 105.771V105.75C224.951 105.299 225.067 104.902 225.3 104.561C225.532 104.212 225.857 103.942 226.274 103.751C226.698 103.552 227.183 103.453 227.73 103.453C228.277 103.453 228.759 103.552 229.176 103.751C229.593 103.942 229.917 104.212 230.15 104.561C230.389 104.902 230.509 105.299 230.509 105.75V105.771C230.509 106.222 230.389 106.622 230.15 106.97C229.917 107.312 229.593 107.582 229.176 107.78C228.759 107.972 228.277 108.067 227.73 108.067ZM235.35 116.691H237.77L244.209 103.894V101.895H234.119V103.843H241.892V103.956L235.35 116.691ZM250.455 117.009C251.61 117.009 252.602 116.698 253.429 116.076C254.256 115.447 254.892 114.555 255.336 113.399C255.78 112.244 256.002 110.877 256.002 109.298V109.277C256.002 107.698 255.78 106.335 255.336 105.186C254.892 104.031 254.256 103.142 253.429 102.52C252.602 101.891 251.61 101.577 250.455 101.577C249.3 101.577 248.309 101.891 247.481 102.52C246.661 103.142 246.029 104.031 245.585 105.186C245.147 106.335 244.928 107.698 244.928 109.277V109.298C244.928 110.877 245.147 112.244 245.585 113.399C246.029 114.555 246.661 115.447 247.481 116.076C248.309 116.698 249.3 117.009 250.455 117.009ZM250.455 115.091C249.778 115.091 249.201 114.859 248.722 114.394C248.244 113.922 247.878 113.256 247.625 112.395C247.372 111.526 247.246 110.494 247.246 109.298V109.277C247.246 108.081 247.372 107.052 247.625 106.191C247.878 105.33 248.244 104.667 248.722 104.202C249.201 103.737 249.778 103.504 250.455 103.504C251.132 103.504 251.71 103.737 252.188 104.202C252.673 104.667 253.043 105.33 253.295 106.191C253.548 107.052 253.675 108.081 253.675 109.277V109.298C253.675 110.494 253.548 111.526 253.295 112.395C253.043 113.256 252.673 113.922 252.188 114.394C251.71 114.859 251.132 115.091 250.455 115.091ZM256.106 120.198H257.675L259.305 114.476H256.978L256.106 120.198ZM264.147 116.691H266.433V101.895H264.147L260.25 104.663V106.888L264.023 104.232H264.147V116.691ZM276.032 116.691H278.257V113.748H280.298V111.8H278.257V101.895H274.955C274.538 102.523 274.121 103.163 273.704 103.812C273.287 104.461 272.87 105.118 272.453 105.781C272.036 106.437 271.619 107.1 271.202 107.77C270.785 108.44 270.372 109.11 269.962 109.78C269.552 110.45 269.145 111.116 268.742 111.779V113.748H276.032V116.691ZM270.936 111.841V111.728C271.25 111.202 271.575 110.672 271.91 110.139C272.245 109.599 272.58 109.059 272.915 108.519C273.257 107.979 273.598 107.442 273.94 106.909C274.282 106.376 274.62 105.849 274.955 105.33C275.29 104.81 275.622 104.297 275.95 103.792H276.063V111.841H270.936ZM286.626 116.958C287.678 116.958 288.605 116.773 289.404 116.404C290.211 116.028 290.843 115.512 291.301 114.856C291.759 114.192 291.988 113.44 291.988 112.6V112.579C291.988 111.54 291.653 110.706 290.983 110.077C290.32 109.448 289.445 109.089 288.358 109.001V108.949C288.96 108.826 289.497 108.611 289.968 108.303C290.44 107.989 290.809 107.599 291.076 107.134C291.349 106.663 291.486 106.119 291.486 105.504V105.483C291.486 104.718 291.284 104.048 290.881 103.474C290.478 102.899 289.91 102.448 289.179 102.12C288.447 101.792 287.589 101.628 286.605 101.628C285.641 101.628 284.79 101.799 284.052 102.141C283.314 102.482 282.726 102.964 282.288 103.586C281.851 104.202 281.591 104.926 281.509 105.76L281.499 105.873H283.662L283.672 105.771C283.727 105.306 283.881 104.906 284.134 104.571C284.387 104.229 284.725 103.969 285.149 103.792C285.573 103.607 286.058 103.515 286.605 103.515C287.159 103.515 287.63 103.604 288.02 103.781C288.417 103.959 288.717 104.219 288.922 104.561C289.128 104.896 289.23 105.302 289.23 105.781V105.801C289.23 106.259 289.11 106.666 288.871 107.022C288.639 107.377 288.307 107.657 287.877 107.862C287.453 108.061 286.961 108.16 286.4 108.16H284.667V109.964H286.462C287.453 109.964 288.229 110.19 288.789 110.641C289.357 111.086 289.64 111.725 289.64 112.559V112.579C289.64 113.058 289.514 113.482 289.261 113.851C289.015 114.22 288.663 114.51 288.205 114.722C287.753 114.927 287.227 115.03 286.626 115.03C285.703 115.03 284.954 114.818 284.38 114.394C283.806 113.97 283.484 113.43 283.416 112.774L283.396 112.661H281.191L281.201 112.784C281.27 113.598 281.533 114.319 281.991 114.948C282.449 115.577 283.071 116.069 283.857 116.424C284.65 116.78 285.573 116.958 286.626 116.958Z" fill="#FF6161"/>
<path d="M303.279 110.491V111.751H305.701V112.773H307.549V103.001H305.701V110.491H303.279ZM300.801 104.779C301.655 104.779 302.257 105.115 302.257 105.745C302.257 106.375 301.655 106.697 300.801 106.697C299.933 106.697 299.331 106.375 299.331 105.745C299.331 105.115 299.933 104.779 300.801 104.779ZM300.801 108.041C302.677 108.041 304.007 107.117 304.007 105.745C304.007 104.373 302.677 103.435 300.801 103.435C298.911 103.435 297.595 104.373 297.595 105.745C297.595 107.117 298.911 108.041 300.801 108.041ZM300.115 114.201V112.437H301.893V110.001C302.929 109.917 303.965 109.805 304.973 109.637L304.847 108.321C302.131 108.671 298.995 108.699 296.643 108.713L296.881 110.183C297.847 110.183 298.925 110.169 300.059 110.113V111.835H298.267V115.671H307.829V114.201H300.115Z" fill="#FF6161"/>
<rect x="0.86084" y="0.690979" width="175" height="66" rx="20" fill="#74F892"/>
<path d="M17.4988 22.825C19.8648 22.657 21.4748 21.999 22.2868 20.977C23.0848 21.999 24.6948 22.657 27.0608 22.825L27.6068 21.453C24.8488 21.285 23.5888 20.487 23.3508 19.605H26.9908V18.163H23.1968V17.029H21.3488V18.163H17.5688V19.605H21.2088C20.9708 20.487 19.7108 21.285 16.9528 21.453L17.4988 22.825ZM22.2588 28.537C20.5088 28.537 19.6548 28.285 19.6548 27.711C19.6548 27.123 20.5088 26.885 22.2588 26.885C24.0088 26.885 24.8628 27.123 24.8628 27.711C24.8628 28.285 24.0088 28.537 22.2588 28.537ZM22.2588 25.527C19.4448 25.527 17.7928 26.297 17.7928 27.711C17.7928 29.125 19.4448 29.895 22.2588 29.895C25.0728 29.895 26.7388 29.125 26.7388 27.711C26.7388 26.297 25.0728 25.527 22.2588 25.527ZM23.1968 23.469V22.237H21.3488V23.469H16.4628V24.911H28.1108V23.469H23.1968ZM41.2482 24.883H43.0962V17.001H41.2482V19.073H39.7362V20.557H41.2482V21.495H39.7362V22.965H41.2482V24.883ZM35.4382 19.325H36.6422V22.825C36.2362 22.839 35.8302 22.867 35.4382 22.867V19.325ZM39.5962 22.601C39.2182 22.643 38.8262 22.685 38.4202 22.727V19.325H39.4422V17.855H32.6382V19.325H33.6602V22.909C33.1842 22.909 32.7362 22.909 32.3162 22.909L32.5122 24.407C34.5422 24.407 37.3142 24.365 39.7082 23.959L39.5962 22.601ZM38.7282 28.509C37.0342 28.509 36.1662 28.173 36.1662 27.501C36.1662 26.815 37.0342 26.493 38.7282 26.493C40.4362 26.493 41.3042 26.815 41.3042 27.501C41.3042 28.173 40.4362 28.509 38.7282 28.509ZM38.7282 25.093C35.9842 25.093 34.3182 25.975 34.3182 27.501C34.3182 29.013 35.9842 29.895 38.7282 29.895C41.4862 29.895 43.1522 29.013 43.1522 27.501C43.1522 25.975 41.4862 25.093 38.7282 25.093ZM45.3631 18.317V19.815H49.5771C49.2411 22.671 47.6451 24.715 44.6491 26.255L45.6851 27.669C49.9691 25.499 51.4391 22.181 51.4391 18.317H45.3631ZM56.6751 21.915H54.8691V16.987H53.0211V29.867H54.8691V23.441H56.6751V21.915ZM58.942 20.921C58.942 19.927 59.474 19.325 60.23 19.325C60.986 19.325 61.518 19.927 61.518 20.921C61.518 21.943 60.986 22.531 60.23 22.531C59.474 22.531 58.942 21.943 58.942 20.921ZM63.17 20.921C63.17 19.073 61.938 17.771 60.23 17.771C58.522 17.771 57.276 19.073 57.276 20.921C57.276 22.797 58.522 24.085 60.23 24.085C61.938 24.085 63.17 22.797 63.17 20.921ZM59.348 26.745H66.376V29.909H68.224V25.289H59.348V26.745ZM66.474 17.001V20.123H65.494V17.225H63.772V24.659H65.494V21.607H66.474V24.687H68.224V17.001H66.474Z" fill="#111111"/>
<path d="M17.5225 50.691H27.5508V48.7325H19.9834L20.6396 49.2349V48.0352L19.9731 49.2349L23.8594 45.3795C24.7549 44.4976 25.4521 43.7457 25.9512 43.1236C26.457 42.5015 26.8091 41.9307 27.0073 41.4112C27.2124 40.8917 27.3149 40.3516 27.3149 39.7911V39.7706C27.3149 38.9571 27.1064 38.2359 26.6895 37.607C26.2793 36.9781 25.7119 36.4825 24.9873 36.1202C24.2627 35.7579 23.4321 35.5767 22.4956 35.5767C21.5181 35.5767 20.6431 35.775 19.8706 36.1714C19.105 36.5611 18.5 37.1011 18.0557 37.7916C17.6182 38.482 17.396 39.275 17.3892 40.1705L17.3994 40.2115L19.5732 40.2217L19.5835 40.1705C19.5835 39.6441 19.7031 39.1793 19.9424 38.7759C20.1885 38.3726 20.5234 38.0582 20.9473 37.8326C21.3779 37.6002 21.8735 37.4839 22.4341 37.4839C22.9604 37.4839 23.415 37.5899 23.7979 37.8018C24.1875 38.0137 24.4883 38.3077 24.7002 38.6837C24.9189 39.0528 25.0283 39.4766 25.0283 39.9551V39.9756C25.0283 40.3721 24.9565 40.7447 24.813 41.0933C24.6763 41.4351 24.4268 41.8282 24.0645 42.2725C23.709 42.71 23.2031 43.2637 22.5469 43.9337L17.5225 49.1221V50.691ZM34.2683 50.9576C35.3621 50.9576 36.3294 50.7764 37.1702 50.4141C38.0178 50.0518 38.6775 49.5494 39.1492 48.9068C39.6277 48.2642 39.867 47.5225 39.867 46.6817V46.6612C39.867 46.0391 39.7268 45.4717 39.4465 44.959C39.1731 44.4395 38.7903 44.002 38.2981 43.6465C37.8059 43.2842 37.2351 43.0347 36.5857 42.898V42.8467C37.4197 42.6075 38.0828 42.1973 38.575 41.6163C39.074 41.0352 39.3235 40.3516 39.3235 39.5655V39.545C39.3235 38.793 39.1082 38.1231 38.6775 37.5352C38.2468 36.9473 37.6487 36.4825 36.8831 36.1407C36.1243 35.7989 35.2527 35.628 34.2683 35.628C33.2839 35.628 32.4089 35.7989 31.6433 36.1407C30.8845 36.4825 30.2864 36.9473 29.8489 37.5352C29.4182 38.1231 29.2029 38.793 29.2029 39.545V39.5655C29.2029 40.3516 29.4524 41.0352 29.9514 41.6163C30.4504 42.1973 31.1135 42.6075 31.9407 42.8467V42.898C31.2981 43.0347 30.7307 43.2842 30.2385 43.6465C29.7463 44.002 29.3601 44.4395 29.0798 44.959C28.8064 45.4717 28.6697 46.0391 28.6697 46.6612V46.6817C28.6697 47.5225 28.9055 48.2642 29.3772 48.9068C29.8557 49.5494 30.5154 50.0518 31.3562 50.4141C32.197 50.7764 33.1677 50.9576 34.2683 50.9576ZM34.2683 49.1119C33.6394 49.1119 33.0823 49.0025 32.5969 48.7838C32.1116 48.5582 31.7288 48.254 31.4485 47.8712C31.1751 47.4815 31.0383 47.0372 31.0383 46.5381V46.5176C31.0383 46.0118 31.1751 45.564 31.4485 45.1744C31.7219 44.7847 32.1013 44.4805 32.5867 44.2618C33.072 44.0362 33.6326 43.9234 34.2683 43.9234C34.8972 43.9234 35.4544 44.0362 35.9397 44.2618C36.4251 44.4805 36.8045 44.7847 37.0779 45.1744C37.3513 45.564 37.488 46.0118 37.488 46.5176V46.5381C37.488 47.0372 37.3479 47.4815 37.0676 47.8712C36.7942 48.254 36.4148 48.5582 35.9295 48.7838C35.4509 49.0025 34.8972 49.1119 34.2683 49.1119ZM34.2683 42.0674C33.7146 42.0674 33.2293 41.9717 32.8123 41.7803C32.3953 41.5821 32.0706 41.3121 31.8381 40.9703C31.6057 40.6216 31.4895 40.2217 31.4895 39.7706V39.7501C31.4895 39.2989 31.6057 38.9024 31.8381 38.5606C32.0706 38.212 32.3953 37.942 32.8123 37.7505C33.2361 37.5523 33.7214 37.4532 34.2683 37.4532C34.8152 37.4532 35.2971 37.5523 35.7141 37.7505C36.1311 37.942 36.4558 38.212 36.6882 38.5606C36.9275 38.9024 37.0471 39.2989 37.0471 39.7501V39.7706C37.0471 40.2217 36.9275 40.6216 36.6882 40.9703C36.4558 41.3121 36.1311 41.5821 35.7141 41.7803C35.2971 41.9717 34.8152 42.0674 34.2683 42.0674ZM40.1245 54.1978H41.6934L43.3237 48.4761H40.9961L40.1245 54.1978ZM50.1131 51.0089C51.159 51.0089 52.0852 50.7935 52.8919 50.3629C53.6985 49.9254 54.3308 49.3238 54.7888 48.5582C55.2469 47.7857 55.4759 46.897 55.4759 45.8922V45.8716C55.4759 44.9214 55.2674 44.0806 54.8504 43.3492C54.4402 42.6177 53.8728 42.0401 53.1482 41.6163C52.4304 41.1924 51.6033 40.9805 50.6668 40.9805C49.9627 40.9805 49.3269 41.1172 48.7596 41.3907C48.199 41.6573 47.7581 42.0401 47.4368 42.5391H47.3137L47.7649 37.8428H54.6248V35.8946H45.9295L45.2014 44.4669H47.1907C47.2864 44.296 47.3924 44.1422 47.5086 44.0054C47.6248 43.8619 47.7512 43.7286 47.888 43.6055C48.1819 43.3389 48.5203 43.1407 48.9031 43.0108C49.2859 42.8741 49.7029 42.8057 50.1541 42.8057C50.7556 42.8057 51.2888 42.939 51.7537 43.2056C52.2185 43.4722 52.5843 43.8414 52.8509 44.313C53.1175 44.7779 53.2508 45.3111 53.2508 45.9127V45.9332C53.2508 46.5484 53.1175 47.0919 52.8509 47.5635C52.5911 48.0352 52.2254 48.4044 51.7537 48.671C51.282 48.9376 50.7386 49.0709 50.1233 49.0709C49.5901 49.0709 49.1048 48.9683 48.6673 48.7632C48.2366 48.5582 47.8846 48.2779 47.6111 47.9224C47.3445 47.567 47.1804 47.1705 47.1189 46.733L47.1087 46.6612H44.9348L44.9451 46.7842C45.0135 47.584 45.2698 48.3052 45.7141 48.9478C46.1653 49.5836 46.7669 50.086 47.5188 50.4551C48.2708 50.8243 49.1355 51.0089 50.1131 51.0089ZM63.5777 50.691H65.8028V47.7481H67.8433V45.7999H65.8028V35.8946H62.501C62.084 36.5235 61.667 37.1627 61.25 37.8121C60.833 38.4615 60.4161 39.1177 59.9991 39.7808C59.5821 40.4371 59.1651 41.1002 58.7481 41.7701C58.3311 42.44 57.9175 43.1099 57.5074 43.7798C57.0972 44.4498 56.6905 45.1163 56.2871 45.7794V47.7481H63.5777V50.691ZM58.4815 45.8409V45.7281C58.7959 45.2017 59.1206 44.6719 59.4556 44.1387C59.7906 43.5987 60.1255 43.0587 60.4605 42.5186C60.8023 41.9786 61.1441 41.442 61.4859 40.9088C61.8277 40.3755 62.1661 39.8492 62.501 39.3297C62.836 38.8101 63.1675 38.2974 63.4956 37.7916H63.6084V45.8409H58.4815ZM74.2635 51.0089C75.4188 51.0089 76.41 50.6978 77.2371 50.0757C78.0643 49.4468 78.7 48.5547 79.1443 47.3995C79.5887 46.2442 79.8108 44.877 79.8108 43.2979V43.2774C79.8108 41.6983 79.5887 40.3345 79.1443 39.1861C78.7 38.0308 78.0643 37.1422 77.2371 36.5201C76.41 35.8912 75.4188 35.5767 74.2635 35.5767C73.1082 35.5767 72.117 35.8912 71.2898 36.5201C70.4695 37.1422 69.8372 38.0308 69.3929 39.1861C68.9554 40.3345 68.7366 41.6983 68.7366 43.2774V43.2979C68.7366 44.877 68.9554 46.2442 69.3929 47.3995C69.8372 48.5547 70.4695 49.4468 71.2898 50.0757C72.117 50.6978 73.1082 51.0089 74.2635 51.0089ZM74.2635 49.0914C73.5867 49.0914 73.0091 48.8589 72.5306 48.3941C72.0521 47.9224 71.6863 47.2559 71.4334 46.3946C71.1805 45.5264 71.054 44.4942 71.054 43.2979V43.2774C71.054 42.0811 71.1805 41.0523 71.4334 40.191C71.6863 39.3297 72.0521 38.6666 72.5306 38.2017C73.0091 37.7369 73.5867 37.5045 74.2635 37.5045C74.9402 37.5045 75.5179 37.7369 75.9964 38.2017C76.4817 38.6666 76.8509 39.3297 77.1038 40.191C77.3567 41.0523 77.4832 42.0811 77.4832 43.2774V43.2979C77.4832 44.4942 77.3567 45.5264 77.1038 46.3946C76.8509 47.2559 76.4817 47.9224 75.9964 48.3941C75.5179 48.8589 74.9402 49.0914 74.2635 49.0914ZM79.9146 54.1978H81.4835L83.1138 48.4761H80.7862L79.9146 54.1978ZM89.7698 51.0089C90.9251 51.0089 91.9163 50.6978 92.7435 50.0757C93.5706 49.4468 94.2064 48.5547 94.6507 47.3995C95.095 46.2442 95.3172 44.877 95.3172 43.2979V43.2774C95.3172 41.6983 95.095 40.3345 94.6507 39.1861C94.2064 38.0308 93.5706 37.1422 92.7435 36.5201C91.9163 35.8912 90.9251 35.5767 89.7698 35.5767C88.6146 35.5767 87.6234 35.8912 86.7962 36.5201C85.9759 37.1422 85.3436 38.0308 84.8992 39.1861C84.4617 40.3345 84.243 41.6983 84.243 43.2774V43.2979C84.243 44.877 84.4617 46.2442 84.8992 47.3995C85.3436 48.5547 85.9759 49.4468 86.7962 50.0757C87.6234 50.6978 88.6146 51.0089 89.7698 51.0089ZM89.7698 49.0914C89.0931 49.0914 88.5154 48.8589 88.0369 48.3941C87.5584 47.9224 87.1927 47.2559 86.9398 46.3946C86.6868 45.5264 86.5604 44.4942 86.5604 43.2979V43.2774C86.5604 42.0811 86.6868 41.0523 86.9398 40.191C87.1927 39.3297 87.5584 38.6666 88.0369 38.2017C88.5154 37.7369 89.0931 37.5045 89.7698 37.5045C90.4466 37.5045 91.0242 37.7369 91.5028 38.2017C91.9881 38.6666 92.3572 39.3297 92.6102 40.191C92.8631 41.0523 92.9896 42.0811 92.9896 43.2774V43.2979C92.9896 44.4942 92.8631 45.5264 92.6102 46.3946C92.3572 47.2559 91.9881 47.9224 91.5028 48.3941C91.0242 48.8589 90.4466 49.0914 89.7698 49.0914ZM101.963 51.0089C103.118 51.0089 104.109 50.6978 104.937 50.0757C105.764 49.4468 106.399 48.5547 106.844 47.3995C107.288 46.2442 107.51 44.877 107.51 43.2979V43.2774C107.51 41.6983 107.288 40.3345 106.844 39.1861C106.399 38.0308 105.764 37.1422 104.937 36.5201C104.109 35.8912 103.118 35.5767 101.963 35.5767C100.808 35.5767 99.8165 35.8912 98.9893 36.5201C98.169 37.1422 97.5367 38.0308 97.0924 39.1861C96.6549 40.3345 96.4361 41.6983 96.4361 43.2774V43.2979C96.4361 44.877 96.6549 46.2442 97.0924 47.3995C97.5367 48.5547 98.169 49.4468 98.9893 50.0757C99.8165 50.6978 100.808 51.0089 101.963 51.0089ZM101.963 49.0914C101.286 49.0914 100.709 48.8589 100.23 48.3941C99.7515 47.9224 99.3858 47.2559 99.1329 46.3946C98.88 45.5264 98.7535 44.4942 98.7535 43.2979V43.2774C98.7535 42.0811 98.88 41.0523 99.1329 40.191C99.3858 39.3297 99.7515 38.6666 100.23 38.2017C100.709 37.7369 101.286 37.5045 101.963 37.5045C102.64 37.5045 103.217 37.7369 103.696 38.2017C104.181 38.6666 104.55 39.3297 104.803 40.191C105.056 41.0523 105.183 42.0811 105.183 43.2774V43.2979C105.183 44.4942 105.056 45.5264 104.803 46.3946C104.55 47.2559 104.181 47.9224 103.696 48.3941C103.217 48.8589 102.64 49.0914 101.963 49.0914ZM114.156 51.0089C115.311 51.0089 116.303 50.6978 117.13 50.0757C117.957 49.4468 118.593 48.5547 119.037 47.3995C119.481 46.2442 119.703 44.877 119.703 43.2979V43.2774C119.703 41.6983 119.481 40.3345 119.037 39.1861C118.593 38.0308 117.957 37.1422 117.13 36.5201C116.303 35.8912 115.311 35.5767 114.156 35.5767C113.001 35.5767 112.01 35.8912 111.182 36.5201C110.362 37.1422 109.73 38.0308 109.285 39.1861C108.848 40.3345 108.629 41.6983 108.629 43.2774V43.2979C108.629 44.877 108.848 46.2442 109.285 47.3995C109.73 48.5547 110.362 49.4468 111.182 50.0757C112.01 50.6978 113.001 51.0089 114.156 51.0089ZM114.156 49.0914C113.479 49.0914 112.902 48.8589 112.423 48.3941C111.945 47.9224 111.579 47.2559 111.326 46.3946C111.073 45.5264 110.947 44.4942 110.947 43.2979V43.2774C110.947 42.0811 111.073 41.0523 111.326 40.191C111.579 39.3297 111.945 38.6666 112.423 38.2017C112.902 37.7369 113.479 37.5045 114.156 37.5045C114.833 37.5045 115.41 37.7369 115.889 38.2017C116.374 38.6666 116.743 39.3297 116.996 40.191C117.249 41.0523 117.376 42.0811 117.376 43.2774V43.2979C117.376 44.4942 117.249 45.5264 116.996 46.3946C116.743 47.2559 116.374 47.9224 115.889 48.3941C115.41 48.8589 114.833 49.0914 114.156 49.0914Z" fill="#111111"/>
<path d="M130.279 44.491V45.751H132.701V46.773H134.549V37.001H132.701V44.491H130.279ZM127.801 38.779C128.655 38.779 129.257 39.115 129.257 39.745C129.257 40.375 128.655 40.697 127.801 40.697C126.933 40.697 126.331 40.375 126.331 39.745C126.331 39.115 126.933 38.779 127.801 38.779ZM127.801 42.041C129.677 42.041 131.007 41.117 131.007 39.745C131.007 38.373 129.677 37.435 127.801 37.435C125.911 37.435 124.595 38.373 124.595 39.745C124.595 41.117 125.911 42.041 127.801 42.041ZM127.115 48.201V46.437H128.893V44.001C129.929 43.917 130.965 43.805 131.973 43.637L131.847 42.321C129.131 42.671 125.995 42.699 123.643 42.713L123.881 44.183C124.847 44.183 125.925 44.169 127.059 44.113V45.835H125.267V49.671H134.829V48.201H127.115Z" fill="#111111"/>
<rect x="0.86084" y="132.691" width="175" height="66" rx="20" fill="#74F892"/>
<path d="M17.4988 154.825C19.8648 154.657 21.4748 153.999 22.2868 152.977C23.0848 153.999 24.6948 154.657 27.0608 154.825L27.6068 153.453C24.8488 153.285 23.5888 152.487 23.3508 151.605H26.9908V150.163H23.1968V149.029H21.3488V150.163H17.5688V151.605H21.2088C20.9708 152.487 19.7108 153.285 16.9528 153.453L17.4988 154.825ZM22.2588 160.537C20.5088 160.537 19.6548 160.285 19.6548 159.711C19.6548 159.123 20.5088 158.885 22.2588 158.885C24.0088 158.885 24.8628 159.123 24.8628 159.711C24.8628 160.285 24.0088 160.537 22.2588 160.537ZM22.2588 157.527C19.4448 157.527 17.7928 158.297 17.7928 159.711C17.7928 161.125 19.4448 161.895 22.2588 161.895C25.0728 161.895 26.7388 161.125 26.7388 159.711C26.7388 158.297 25.0728 157.527 22.2588 157.527ZM23.1968 155.469V154.237H21.3488V155.469H16.4628V156.911H28.1108V155.469H23.1968ZM43.5582 153.579C40.6322 153.173 39.1482 151.493 39.1482 149.995V149.379H37.1742V149.995C37.1742 151.507 35.7042 153.173 32.7642 153.579L33.4642 155.063C35.7182 154.727 37.3422 153.677 38.1682 152.291C38.9942 153.677 40.6042 154.727 42.8582 155.063L43.5582 153.579ZM43.9782 156.015H32.3302V157.513H37.1882V161.909H39.0362V157.513H43.9782V156.015ZM46.6931 157.163V158.633H53.6231V161.909H55.4851V157.163H46.6931ZM53.6231 149.015V156.575H55.4851V149.015H53.6231ZM48.4571 149.701C46.4831 149.701 44.9571 151.031 44.9571 152.865C44.9571 154.699 46.4831 156.015 48.4571 156.015C50.4591 156.015 51.9711 154.699 51.9711 152.865C51.9711 151.031 50.4591 149.701 48.4571 149.701ZM48.4571 151.269C49.4371 151.269 50.1651 151.857 50.1651 152.865C50.1651 153.859 49.4371 154.461 48.4571 154.461C47.4911 154.461 46.7631 153.859 46.7631 152.865C46.7631 151.857 47.4911 151.269 48.4571 151.269ZM65.662 151.087H58.69V154.125H67.706V152.879H60.51V152.235H67.482V149.211H58.662V150.457H65.662V151.087ZM64.206 156.785H61.938V156.043H64.206V156.785ZM68.924 156.043V154.713H57.234V156.043H60.104V156.785H58.55V158.031H65.69V158.689H58.564V161.797H67.874V160.565H60.398V159.851H67.524V156.785H66.054V156.043H68.924Z" fill="#111111"/>
<path d="M21.4328 173.615C21.8117 173.278 22.3826 173.278 22.7615 173.615L26.1313 176.61C26.8186 177.221 26.3865 178.358 25.467 178.358H18.7274C17.8079 178.358 17.3757 177.221 18.063 176.61L21.4328 173.615Z" fill="#FF6161"/>
<path d="M38.4028 182.691H40.6279V179.748H42.6685V177.8H40.6279V167.895H37.3262C36.9092 168.523 36.4922 169.163 36.0752 169.812C35.6582 170.461 35.2412 171.118 34.8242 171.781C34.4072 172.437 33.9902 173.1 33.5732 173.77C33.1562 174.44 32.7427 175.11 32.3325 175.78C31.9224 176.45 31.5156 177.116 31.1123 177.779V179.748H38.4028V182.691ZM33.3066 177.841V177.728C33.6211 177.202 33.9458 176.672 34.2808 176.139C34.6157 175.599 34.9507 175.059 35.2856 174.519C35.6274 173.979 35.9692 173.442 36.311 172.909C36.6528 172.376 36.9912 171.849 37.3262 171.33C37.6611 170.81 37.9927 170.297 38.3208 169.792H38.4336V177.841H33.3066ZM48.9963 183.009C50.0422 183.009 50.9685 182.794 51.7752 182.363C52.5818 181.925 53.2141 181.324 53.6721 180.558C54.1301 179.786 54.3591 178.897 54.3591 177.892V177.872C54.3591 176.921 54.1506 176.081 53.7337 175.349C53.3235 174.618 52.7561 174.04 52.0315 173.616C51.3137 173.192 50.4866 172.981 49.5501 172.981C48.846 172.981 48.2102 173.117 47.6428 173.391C47.0823 173.657 46.6414 174.04 46.3201 174.539H46.197L46.6482 169.843H53.5081V167.895H44.8128L44.0847 176.467H46.074C46.1697 176.296 46.2756 176.142 46.3919 176.005C46.5081 175.862 46.6345 175.729 46.7712 175.606C47.0652 175.339 47.4036 175.141 47.7864 175.011C48.1692 174.874 48.5862 174.806 49.0374 174.806C49.6389 174.806 50.1721 174.939 50.637 175.206C51.1018 175.472 51.4675 175.841 51.7341 176.313C52.0007 176.778 52.134 177.311 52.134 177.913V177.933C52.134 178.548 52.0007 179.092 51.7341 179.564C51.4744 180.035 51.1087 180.404 50.637 180.671C50.1653 180.938 49.6218 181.071 49.0066 181.071C48.4734 181.071 47.988 180.968 47.5505 180.763C47.1199 180.558 46.7678 180.278 46.4944 179.922C46.2278 179.567 46.0637 179.17 46.0022 178.733L45.992 178.661H43.8181L43.8284 178.784C43.8967 179.584 44.1531 180.305 44.5974 180.948C45.0486 181.584 45.6502 182.086 46.4021 182.455C47.1541 182.824 48.0188 183.009 48.9963 183.009Z" fill="#FF6161"/>
<path d="M61.1323 176.097C61.7977 176.097 62.3195 175.856 62.6978 175.373C63.0806 174.885 63.272 174.226 63.272 173.397V173.39C63.272 172.556 63.0806 171.898 62.6978 171.415C62.3195 170.932 61.7977 170.69 61.1323 170.69C60.4715 170.69 59.9497 170.932 59.5669 171.415C59.1886 171.898 58.9995 172.556 58.9995 173.39V173.397C58.9995 174.226 59.1886 174.885 59.5669 175.373C59.9497 175.856 60.4715 176.097 61.1323 176.097ZM61.1323 175.181C60.8133 175.181 60.5649 175.024 60.3872 174.71C60.2095 174.395 60.1206 173.958 60.1206 173.397V173.39C60.1206 172.825 60.2095 172.388 60.3872 172.078C60.5649 171.763 60.8133 171.606 61.1323 171.606C61.4559 171.606 61.7065 171.763 61.8843 172.078C62.0666 172.388 62.1577 172.825 62.1577 173.39V173.397C62.1577 173.958 62.0666 174.395 61.8843 174.71C61.7065 175.024 61.4559 175.181 61.1323 175.181ZM62.1577 180.691L68.8433 170.827H67.5649L60.8794 180.691H62.1577ZM68.5767 180.828C69.2375 180.828 69.757 180.586 70.1353 180.103C70.5181 179.615 70.7095 178.955 70.7095 178.121V178.114C70.7095 177.284 70.5181 176.628 70.1353 176.145C69.757 175.662 69.2375 175.42 68.5767 175.42C67.9113 175.42 67.3895 175.662 67.0112 176.145C66.633 176.628 66.4438 177.284 66.4438 178.114V178.121C66.4438 178.955 66.633 179.615 67.0112 180.103C67.3895 180.586 67.9113 180.828 68.5767 180.828ZM68.5767 179.912C68.2531 179.912 68.0024 179.754 67.8247 179.44C67.647 179.126 67.5581 178.686 67.5581 178.121V178.114C67.5581 177.553 67.647 177.118 67.8247 176.808C68.0024 176.494 68.2531 176.336 68.5767 176.336C68.9002 176.336 69.1509 176.494 69.3286 176.808C69.5063 177.118 69.5952 177.553 69.5952 178.114V178.121C69.5952 178.686 69.5063 179.126 69.3286 179.44C69.1509 179.754 68.9002 179.912 68.5767 179.912Z" fill="#FF6161"/>
<path fill-rule="evenodd" clip-rule="evenodd" d="M175.861 152.931C175.861 141.753 184.923 132.691 196.101 132.691C184.923 132.691 175.861 123.629 175.861 112.45C175.861 123.629 166.799 132.691 155.621 132.691C166.799 132.691 175.861 141.753 175.861 152.931Z" fill="#74F892"/>
<path fill-rule="evenodd" clip-rule="evenodd" d="M175.861 87.401C175.861 75.9629 185.133 66.6905 196.572 66.6905C185.134 66.6905 175.861 57.4186 175.861 45.9808C175.861 57.4185 166.589 66.6904 155.151 66.6905C166.589 66.6907 175.861 75.963 175.861 87.401Z" fill="#74F892"/>
</g>
<defs>
<filter id="filter0_b_1641_37345" x="-29.1392" y="-29.309" width="410" height="258" filterUnits="userSpaceOnUse" color-interpolation-filters="sRGB">
<feFlood flood-opacity="0" result="BackgroundImageFix"/>
<feGaussianBlur in="BackgroundImageFix" stdDeviation="15"/>
<feComposite in2="SourceAlpha" operator="in" result="effect1_backgroundBlur_1641_37345"/>
<feBlend mode="normal" in="SourceGraphic" in2="effect1_backgroundBlur_1641_37345" result="shape"/>
</filter>
</defs>
</svg>
