<svg width="78" height="19" viewBox="0 0 78 19" fill="none" xmlns="http://www.w3.org/2000/svg">
<path d="M8.95673 11.1155H13.874V13.6792C12.7392 14.982 11.1422 15.8856 8.97775 15.8856C5.25829 15.8856 2.58952 13.1118 2.58952 9.28726C2.58952 5.42071 5.2793 2.6889 8.97775 2.6889C11.2472 2.6889 13.1595 3.82365 14.1262 5.25259L15.9123 3.65554C14.3153 1.68023 12.0037 0.461426 8.97775 0.461426C3.99745 0.461426 0.0888672 4.2019 0.0888672 9.28726C0.0888672 14.3726 3.99745 18.1131 8.95673 18.1131C12.2139 18.1131 14.8196 16.495 16.3326 14.2886V8.90901H8.95673V11.1155Z" fill="white"/>
<path d="M31.2316 0.461426C26.2724 0.461426 22.3638 4.2019 22.3638 9.28726C22.3638 14.3726 26.2724 18.1131 31.2316 18.1131C36.2119 18.1131 40.0995 14.3726 40.0995 9.28726C40.0995 4.2019 36.2119 0.461426 31.2316 0.461426ZM31.2316 15.8856C27.5542 15.8856 24.8434 13.1118 24.8434 9.28726C24.8434 5.42071 27.5332 2.6889 31.2316 2.6889C34.9091 2.6889 37.6409 5.42071 37.6409 9.28726C37.6409 13.1118 34.9301 15.8856 31.2316 15.8856Z" fill="white"/>
<path d="M51.1942 0.818359L43.8604 17.7346H46.34L48.3994 13.0485H56.4267L58.486 17.7346H60.9657L53.6528 0.818359H51.1942ZM49.366 10.842L52.413 3.84436H52.434L55.46 10.842H49.366Z" fill="white"/>
<path d="M63.1519 0.818359V3.04583H68.9517V17.7556H71.4313V3.04583H77.2102V0.818359H63.1519Z" fill="white"/>
</svg>
