<?xml version="1.0" encoding="utf-8"?>
<!-- Generator: Adobe Illustrator 27.0.0, SVG Export Plug-In . SVG Version: 6.00 Build 0)  -->
<svg version="1.1" id="레이어_1" xmlns="http://www.w3.org/2000/svg" xmlns:xlink="http://www.w3.org/1999/xlink" x="0px"
	 y="0px" viewBox="0 0 25 25" style="enable-background:new 0 0 25 25;" xml:space="preserve">
<style type="text/css">
	.st0{fill:#74F892;}
</style>
<path class="st0" d="M21.3,9.4h1.1c1.2,0,2.2-1,2.2-2.2V5.8c0-1.2-1-2.2-2.2-2.2H21c-1.2,0-2.2,1-2.2,2.2v1.1c0,1.4-1.1,2.5-2.5,2.5
	H9.7c-1.4,0-2.5-1.1-2.5-2.5V5.8c0-1.2-1-2.2-2.2-2.2H3.5c-1.2,0-2.2,1-2.2,2.2v1.5c0,1.2,1,2.2,2.2,2.2h1.1c1.4,0,2.5,1.1,2.5,2.5
	v0.8c0,1.4-1.1,2.5-2.5,2.5c0,0,0,0,0,0H3.5c-1.2,0-2.2,1-2.2,2.2v1.5c0,1.2,1,2.2,2.2,2.2H5c1.2,0,2.2-1,2.2-2.2v-1.1
	c0-1.4,1.1-2.5,2.5-2.5h6.7c1.4,0,2.5,1.1,2.5,2.5v1.1c0,1.2,1,2.2,2.2,2.2h1.5c1.2,0,2.2-1,2.2-2.2v-1.5c0-1.2-1-2.2-2.2-2.2
	l-1.1,0c0,0,0,0,0,0c-1.4,0-2.5-1.1-2.5-2.5v-0.8C18.8,10.5,20,9.4,21.3,9.4z"/>
</svg>
