<svg width="25" height="25" viewBox="0 0 25 25" fill="none" xmlns="http://www.w3.org/2000/svg">
<path d="M18.8352 11.5852C18.8352 10.3775 17.8562 9.39844 16.6485 9.39844C17.8562 9.39844 18.8352 8.41945 18.8352 7.21179C18.8353 8.41945 19.8143 9.39844 21.022 9.39844C19.8143 9.39844 18.8352 10.3775 18.8352 11.5852Z" fill="#74F892"/>
<path d="M7.17263 11.5852C7.17263 10.3775 6.19359 9.39844 4.98589 9.39844C6.19356 9.39844 7.17258 8.41945 7.17263 7.21179C7.17268 8.41945 8.1517 9.39844 9.35937 9.39844C8.15167 9.39844 7.17263 10.3775 7.17263 11.5852Z" fill="#74F892"/>
<path d="M7.17263 17.4165C7.17263 16.2088 6.19359 15.2297 4.98589 15.2297C6.19356 15.2297 7.17258 14.2507 7.17263 13.0431C7.17268 14.2507 8.1517 15.2297 9.35937 15.2297C8.15167 15.2297 7.17263 16.2088 7.17263 17.4165Z" fill="#74F892"/>
<path d="M18.8352 17.4165C18.8352 16.2088 17.8562 15.2297 16.6485 15.2297C17.8562 15.2297 18.8352 14.2507 18.8352 13.0431C18.8353 14.2507 19.8143 15.2297 21.022 15.2297C19.8143 15.2297 18.8352 16.2088 18.8352 17.4165Z" fill="#74F892"/>
<path d="M18.8352 5.75394C18.8352 4.54624 19.8143 3.5672 21.022 3.5672L22.4798 3.5672C23.6875 3.56721 24.6665 4.54624 24.6665 5.75395V7.21177C24.6665 8.41948 23.6875 9.39851 22.4798 9.39851H21.022C19.8143 9.39851 18.8352 8.4195 18.8352 7.21179L18.8352 5.75394Z" fill="#74F892"/>
<path d="M18.8352 17.4165C18.8352 16.2088 19.8143 15.2297 21.022 15.2297L22.4798 15.2298C23.6875 15.2298 24.6665 16.2088 24.6665 17.4165V18.8743C24.6665 20.082 23.6875 21.0611 22.4798 21.0611H21.022C19.8143 21.0611 18.8352 20.082 18.8352 18.8743V17.4165Z" fill="#74F892"/>
<path d="M1.34132 17.4165C1.34132 16.2088 2.32036 15.2298 3.52806 15.2298H4.98588C6.19359 15.2298 7.17262 16.2088 7.17262 17.4165V18.8743C7.17262 20.082 6.19359 21.0611 4.98588 21.0611H3.52806C2.32035 21.0611 1.34132 20.082 1.34132 18.8743L1.34132 17.4165Z" fill="#74F892"/>
<path d="M1.34131 5.75388C1.34131 4.54618 2.32035 3.56714 3.52805 3.56714L4.98587 3.56714C6.19358 3.56714 7.17261 4.54618 7.17261 5.75388V7.21171C7.17261 8.41941 6.19359 9.39844 4.98589 9.39844L3.52805 9.39845C2.32034 9.39845 1.34131 8.41941 1.34131 7.2117L1.34131 5.75388Z" fill="#74F892"/>
<path d="M7.17263 11.5852C7.17263 10.3775 8.15167 9.39844 9.35937 9.39844L16.6485 9.39844C17.8562 9.39844 18.8352 10.3775 18.8352 11.5852L18.8352 13.0431C18.8352 14.2508 17.8562 15.2298 16.6485 15.2298H9.35935C8.15165 15.2298 7.17261 14.2507 7.17261 13.043L7.17263 11.5852Z" fill="#74F892"/>
</svg>
