<?xml version="1.0" encoding="utf-8"?>
<!-- Generator: Adobe Illustrator 27.0.0, SVG Export Plug-In . SVG Version: 6.00 Build 0)  -->
<svg version="1.1" id="레이어_1" xmlns="http://www.w3.org/2000/svg" xmlns:xlink="http://www.w3.org/1999/xlink" x="0px"
	 y="0px" viewBox="0 0 24 25" style="enable-background:new 0 0 24 25;" xml:space="preserve">
<style type="text/css">
	.st0{fill:#74F892;}
</style>
<path class="st0" d="M22,12.3h-0.8c-0.7,0-1.2-0.3-1.7-0.7c0.3-0.4,0.5-0.8,0.5-1.3V9c0-1.1-0.9-2-2-2h-1.3c-1.1,0-2,0.9-2,2v0.8
	c0,1.4-1.1,2.5-2.5,2.5h-0.3c-0.7,0-1.2-0.3-1.7-0.7c0.3-0.4,0.5-0.8,0.5-1.3V9c0-1.1-0.9-2-2-2H7.3c-1.1,0-2,0.9-2,2v0.8
	c0,1.4-1.1,2.5-2.5,2.5H2c-1.1,0-2,0.9-2,2v1.3c0,1.1,0.9,2,2,2h1.3c1.1,0,2-0.9,2-2v-0.8c0-1.2,0.9-2.2,2-2.4c1.1,0.2,2,1.2,2,2.4
	v0.8c0,1.1,0.9,2,2,2h1.3c1.1,0,2-0.9,2-2v-0.8c0-1.2,0.9-2.2,2-2.4c1.1,0.2,2,1.2,2,2.4v0.8c0,1.1,0.9,2,2,2H22c1.1,0,2-0.9,2-2
	v-1.3C24,13.2,23.1,12.3,22,12.3z"/>
</svg>
