<?xml version="1.0" encoding="utf-8"?>
<!-- Generator: Adobe Illustrator 27.0.0, SVG Export Plug-In . SVG Version: 6.00 Build 0)  -->
<svg version="1.1" id="레이어_1" xmlns="http://www.w3.org/2000/svg" xmlns:xlink="http://www.w3.org/1999/xlink" x="0px"
	 y="0px" viewBox="0 0 25 25" style="enable-background:new 0 0 25 25;" xml:space="preserve">
<style type="text/css">
	.st0{fill:#74F892;}
</style>
<g>
	<path class="st0" d="M21.9,9.3h-1.5c-1.2,0-2.2,1-2.2,2.2v1.2c0,1.4-1.1,2.5-2.5,2.5H8.4c-1.2,0-2.2,1-2.2,2.2v1.5
		c0,1.2,1,2.2,2.2,2.2h7.5c1.2,0,2.2-1,2.2-2.2v-1.2c0-1.4,1.1-2.5,2.5-2.5h1.2c1.2,0,2.2-1,2.2-2.2v-1.5
		C24.2,10.3,23.2,9.3,21.9,9.3z"/>
	<path class="st0" d="M6.2,11.8c0-1.4,1.1-2.5,2.5-2.5c0,0,0,0,0,0h7.3c1.2,0,2.2-1,2.2-2.2V5.6c0-1.2-1-2.2-2.2-2.2H8.4
		c-1.2,0-2.2,1-2.2,2.2v1.3c0,1.4-1.1,2.5-2.5,2.5H2.4c-1.2,0-2.2,1-2.2,2.2v1.5c0,1.2,1,2.2,2.2,2.2h1.5c1.2,0,2.2-1,2.2-2.2V11.8z
		"/>
</g>
</svg>
