<svg width="24" height="25" viewBox="0 0 24 25" fill="none" xmlns="http://www.w3.org/2000/svg">
<path d="M5.33333 14.3133C5.33333 13.2093 4.4379 12.3143 3.33333 12.3143C4.43788 12.3143 5.33329 11.4194 5.33333 10.3154C5.33338 11.4194 6.22879 12.3143 7.33333 12.3143C6.22876 12.3143 5.33333 13.2093 5.33333 14.3133Z" fill="#74F892"/>
<path d="M5.33333 8.98267C5.33333 7.87864 6.22876 6.98364 7.33333 6.98364L8.66667 6.98364C9.77124 6.98364 10.6667 7.87864 10.6667 8.98267V10.3153C10.6667 11.4194 9.77123 12.3144 8.66667 12.3144H7.33333C6.22876 12.3144 5.33333 11.4194 5.33333 10.3154L5.33333 8.98267Z" fill="#74F892"/>
<path d="M2.33127e-07 14.3134C4.26257e-07 13.2093 0.895431 12.3143 2 12.3143L3.33333 12.3143C4.4379 12.3143 5.33333 13.2093 5.33333 14.3133L5.33333 15.646C5.33333 16.7501 4.4379 17.6451 3.33333 17.6451H2C0.89543 17.6451 -1.93129e-07 16.7501 0 15.646L2.33127e-07 14.3134Z" fill="#74F892"/>
<path d="M14.6667 14.3133C14.6667 13.2093 13.7712 12.3143 12.6667 12.3143C13.7712 12.3143 14.6666 11.4194 14.6667 10.3154C14.6667 11.4194 15.5621 12.3143 16.6667 12.3143C15.5621 12.3143 14.6667 13.2093 14.6667 14.3133Z" fill="#74F892"/>
<path d="M14.6667 8.98267C14.6667 7.87864 15.5621 6.98364 16.6667 6.98364L18 6.98364C19.1046 6.98364 20 7.87864 20 8.98267V10.3153C20 11.4194 19.1046 12.3144 18 12.3144H16.6667C15.5621 12.3144 14.6667 11.4194 14.6667 10.3154L14.6667 8.98267Z" fill="#74F892"/>
<path d="M9.33333 14.3134C9.33333 13.2093 10.2288 12.3143 11.3333 12.3143L12.6667 12.3143C13.7712 12.3143 14.6667 13.2093 14.6667 14.3133V15.646C14.6667 16.7501 13.7712 17.6451 12.6667 17.6451H11.3333C10.2288 17.6451 9.33333 16.7501 9.33333 15.646V14.3134Z" fill="#74F892"/>
<path d="M18.6667 14.3133C18.6667 13.2093 17.7712 12.3143 16.6667 12.3143C17.7712 12.3143 18.6666 11.4194 18.6667 10.3154C18.6667 11.4194 19.5621 12.3143 20.6667 12.3143C19.5621 12.3143 18.6667 13.2093 18.6667 14.3133Z" fill="#74F892"/>
<path d="M9.33333 14.3134C9.33333 13.2093 8.4379 12.3143 7.33333 12.3143C8.43788 12.3143 9.33329 11.4194 9.33333 10.3154C9.33338 11.4194 10.2288 12.3143 11.3333 12.3143C10.2288 12.3143 9.33333 13.2093 9.33333 14.3134Z" fill="#74F892"/>
<path d="M18.6667 14.3133C18.6667 13.2093 19.5621 12.3143 20.6667 12.3143L22 12.3143C23.1046 12.3143 24 13.2093 24 14.3134V15.646C24 16.7501 23.1046 17.6451 22 17.6451H20.6667C19.5621 17.6451 18.6667 16.7501 18.6667 15.646V14.3133Z" fill="#74F892"/>
</svg>
