<svg width="25" height="25" viewBox="0 0 25 25" fill="none" xmlns="http://www.w3.org/2000/svg">
<path d="M18.1665 17.5644C18.1665 16.3217 17.1591 15.3144 15.9165 15.3144C17.1591 15.3144 18.1665 14.307 18.1665 13.0644C18.1666 14.307 19.1739 15.3144 20.4165 15.3144C19.1739 15.3144 18.1665 16.3217 18.1665 17.5644Z" fill="#74F892"/>
<path d="M18.1665 11.5644C18.1665 10.3218 19.1739 9.31441 20.4165 9.31441L21.9165 9.31441C23.1591 9.31441 24.1665 10.3218 24.1665 11.5644V13.0644C24.1665 14.3071 23.1591 15.3144 21.9165 15.3144H20.4165C19.1739 15.3144 18.1665 14.3071 18.1665 13.0644L18.1665 11.5644Z" fill="#74F892"/>
<path d="M6.1665 17.5644C6.1665 16.3217 7.17386 15.3144 8.4165 15.3144L15.9165 15.3144C17.1591 15.3144 18.1665 16.3217 18.1665 17.5644L18.1665 19.0644C18.1665 20.307 17.1591 21.3144 15.9165 21.3144L8.4165 21.3144C7.17386 21.3144 6.1665 20.307 6.1665 19.0644L6.1665 17.5644Z" fill="#74F892"/>
<path d="M6.1665 7.06448C6.1665 8.30712 7.17386 9.31448 8.4165 9.31448C7.17389 9.31448 6.16655 10.3218 6.1665 11.5644C6.16645 10.3218 5.15911 9.31448 3.9165 9.31448C5.15914 9.31448 6.1665 8.30712 6.1665 7.06448Z" fill="#74F892"/>
<path d="M6.16651 13.0644C6.16651 14.3071 5.15915 15.3144 3.9165 15.3144H2.4165C1.17386 15.3144 0.166504 14.3071 0.166504 13.0644L0.166504 11.5644C0.166504 10.3218 1.17386 9.31441 2.41651 9.31441L3.91651 9.31441C5.15915 9.31441 6.1665 10.3217 6.1665 11.5644L6.16651 13.0644Z" fill="#74F892"/>
<path d="M18.1665 7.06446C18.1665 8.3071 17.1591 9.31446 15.9165 9.31446L8.4165 9.31448C7.17386 9.31448 6.1665 8.30712 6.1665 7.06448L6.1665 5.56445C6.1665 4.32181 7.17386 3.31445 8.4165 3.31445L15.9165 3.31445C17.1591 3.31445 18.1665 4.32182 18.1665 5.56446V7.06446Z" fill="#74F892"/>
</svg>
