<svg width="116" height="116" viewBox="0 0 116 116" fill="none" xmlns="http://www.w3.org/2000/svg">
<path fill-rule="evenodd" clip-rule="evenodd" d="M0.481201 25.6167C0.481201 11.5334 11.8979 0.116699 25.9812 0.116699H89.9998C104.083 0.116699 115.5 11.5334 115.5 25.6167V89.6353C115.5 103.719 104.083 115.135 89.9998 115.135H25.9812C11.8979 115.135 0.481201 103.719 0.481201 89.6353V25.6167ZM25.9812 11.1167C17.9731 11.1167 11.4812 17.6086 11.4812 25.6167V89.6353C11.4812 97.6434 17.9731 104.135 25.9812 104.135H89.9998C98.0079 104.135 104.5 97.6434 104.5 89.6353V25.6167C104.5 17.6086 98.0079 11.1167 89.9998 11.1167H25.9812Z" fill="#111111"/>
<path d="M78.3052 62.4646C78.2614 62.8784 78.4247 63.2875 78.7415 63.5574C79.058 63.828 79.4877 63.9247 79.8894 63.8165L92.927 60.3231C93.6005 60.1426 94.0002 59.4502 93.8198 58.7767L92.1698 52.6188C92.0164 52.0419 91.4793 51.6513 90.8831 51.6827C84.5556 52.0155 79.0338 55.8106 78.3045 62.4647L78.3052 62.4646ZM22.4621 68.2514C22.69 67.9867 23.0458 67.8686 23.3866 67.9448C29.4114 69.3007 39.3071 71.0007 45.1165 68.9311C46.4845 68.4437 51.9164 66.2104 54.2808 65.1421C59.742 62.6739 61.3712 61.1881 71.9711 59.3598C72.3742 59.2914 72.7859 59.4233 73.0747 59.713C73.3636 60.0026 73.4944 60.4146 73.4252 60.8182C73.2137 62.0718 73.1291 63.3438 73.173 64.6141C73.1882 65.1977 72.8012 65.7157 72.2372 65.8668L20.22 79.8048C19.8427 79.9059 19.4394 79.8272 19.1286 79.5907C18.8172 79.3543 18.6332 78.9876 18.63 78.5969C18.6219 74.7989 19.9835 71.1254 22.4652 68.2505L22.4621 68.2514ZM76.8893 53.1775C76.6881 53.4152 76.4056 53.5697 76.0972 53.6121C56.1956 56.3549 57.4392 59.1787 43.4253 64.1638C40.6915 65.1379 36.0284 64.9577 31.0564 64.2248C30.658 64.1664 30.3405 63.8617 30.265 63.4664C30.1887 63.0708 30.3715 62.6705 30.72 62.4686L45.593 53.871C48.3782 52.2546 50.8227 50.1116 52.7894 47.562C52.93 47.3791 53.1841 47.3279 53.385 47.4416L58.8267 50.5848C59.6077 51.0361 60.5705 51.036 61.3518 50.5851C62.1335 50.1334 62.6146 49.3002 62.6149 48.3974C62.6147 47.4952 62.1334 46.6614 61.3521 46.2108L55.767 42.9899C55.5855 42.8851 55.498 42.6698 55.5555 42.4683C55.6061 42.2913 55.6667 41.901 56.0788 41.9213L62.6069 42.2344L62.6068 42.2339C63.2784 42.2663 63.9356 42.0295 64.432 41.5761C64.9285 41.1227 65.2235 40.4899 65.2517 39.8177C65.3112 38.4175 64.1737 37.2518 62.7753 37.1854L56.2172 36.8711C56.0078 36.8606 55.8325 36.7092 55.7918 36.503C55.7441 36.2707 55.6921 36.0396 55.6304 35.8092C55.1468 33.9827 55.5704 32.0352 56.7693 30.5749C57.9682 29.1145 59.7959 28.3196 61.6815 28.4381C65.1735 28.6643 70.5347 29.373 77.1367 25.8212C80.5876 23.9669 84.966 25.7336 86.0505 29.7811L90.1763 45.1786C90.2704 45.5298 90.2086 45.9046 90.006 46.2069C89.8039 46.5091 89.4813 46.7099 89.1205 46.757C84.0296 47.3759 79.7126 49.7581 76.8912 53.1756L76.8893 53.1775ZM94.2348 65.2016C94.9083 65.0211 95.6006 65.4203 95.7812 66.0944L96.9383 70.413C97.1117 71.0598 97.021 71.7493 96.6862 72.3292C96.3514 72.9091 95.7996 73.3324 95.1527 73.5057L24.4166 92.4594C23.7698 92.6327 23.0803 92.542 22.5004 92.2072C21.9205 91.8724 21.4972 91.3206 21.3239 90.6738L20.1667 86.3552C20.0801 86.0318 20.1254 85.687 20.2928 85.3971C20.4602 85.1071 20.7361 84.8955 21.0595 84.8088L94.2348 65.2016Z" fill="black"/>
</svg>
