<svg width="1025" height="1024" viewBox="0 0 1025 1024" fill="none" xmlns="http://www.w3.org/2000/svg">
<path d="M560.92 320C534.41 320 512.92 341.49 512.92 368V528C512.92 554.51 491.43 576 464.92 576C464.972 576 465.023 576 465.075 576H304.92C278.41 576 256.92 597.49 256.92 624V656C256.92 682.51 278.41 704 304.92 704H592.92C619.43 704 640.92 682.51 640.92 656C640.92 682.51 662.41 704 688.92 704H720.92C747.43 704 768.92 682.51 768.92 656V368C768.92 341.49 747.43 320 720.92 320H560.92Z" fill="white"/>
</svg>
