<svg width="1025" height="1024" viewBox="0 0 1025 1024" fill="none" xmlns="http://www.w3.org/2000/svg">
<path fill-rule="evenodd" clip-rule="evenodd" d="M658.961 412.923C660.266 412.816 661.587 412.762 662.92 412.762C636.41 412.762 614.92 391.271 614.92 364.762C614.92 365.304 614.911 365.843 614.893 366.381C614.039 340.621 592.888 320 566.92 320L458.92 320C432.952 320 411.801 340.621 410.947 366.381C410.929 365.843 410.92 365.304 410.92 364.762C410.92 391.271 389.43 412.762 362.92 412.762C364.253 412.762 365.573 412.816 366.879 412.923C341.154 414.98 320.92 436.508 320.92 462.762L320.92 608C320.92 661.019 363.901 704 416.92 704L608.92 704C661.939 704 704.92 661.019 704.92 608V462.762C704.92 436.508 684.685 414.98 658.961 412.923ZM527.077 412.762C552.766 412.672 573.699 392.403 574.855 366.98C574.354 363.043 570.992 360 566.92 360L458.92 360C454.847 360 451.486 363.043 450.984 366.979C452.143 392.46 473.168 412.762 498.934 412.762L527.077 412.762Z" fill="white"/>
</svg>
