<svg width="1025" height="1024" viewBox="0 0 1025 1024" fill="none" xmlns="http://www.w3.org/2000/svg">
<path d="M617.988 366.618V366.43C598.915 358.757 585.27 340.438 584.411 318.831V305.3C584.411 278.79 562.921 257.3 536.411 257.3L489.428 257.3C462.918 257.3 441.428 278.79 441.428 305.3V316.741L441.428 316.665C441.428 339.208 427.516 358.502 407.809 366.43V366.631C383.07 374.035 365.04 396.972 365.04 424.12L365.04 599.879C365.04 627.4 383.569 650.593 408.832 657.664C427.368 665.572 440.542 683.62 441.385 704.838L441.385 718.37C441.385 744.88 462.875 766.37 489.385 766.37L536.369 766.37C562.878 766.37 584.369 744.88 584.369 718.37V706.923L584.369 707.005C584.369 684.884 597.764 665.893 616.885 657.698C642.21 650.668 660.799 627.444 660.799 599.879L660.799 424.12C660.799 396.956 642.748 374.009 617.988 366.618Z" fill="white"/>
</svg>
