<svg width="1025" height="1024" viewBox="0 0 1025 1024" fill="none" xmlns="http://www.w3.org/2000/svg">
<path fill-rule="evenodd" clip-rule="evenodd" d="M352.96 559.814C352.96 533.305 331.47 511.814 304.96 511.814C331.469 511.814 352.959 490.325 352.96 463.816C352.961 490.325 374.451 511.814 400.96 511.814C374.45 511.814 352.96 533.305 352.96 559.814Z" fill="white"/>
<rect x="352.96" y="383.815" width="128" height="128" rx="48" fill="white"/>
<rect x="224.96" y="511.814" width="128" height="128" rx="48" fill="white"/>
<path fill-rule="evenodd" clip-rule="evenodd" d="M576.96 559.814C576.96 533.305 555.47 511.814 528.96 511.814C555.469 511.814 576.959 490.325 576.96 463.816C576.961 490.325 598.451 511.814 624.96 511.814C598.45 511.814 576.96 533.305 576.96 559.814Z" fill="white"/>
<rect x="576.96" y="383.815" width="128" height="128" rx="48" fill="white"/>
<rect x="448.96" y="511.814" width="128" height="128" rx="48" fill="white"/>
<path fill-rule="evenodd" clip-rule="evenodd" d="M672.96 559.814C672.96 533.305 651.47 511.814 624.96 511.814C651.469 511.814 672.959 490.325 672.96 463.816C672.961 490.325 694.451 511.814 720.96 511.814C694.45 511.814 672.96 533.305 672.96 559.814Z" fill="white"/>
<path fill-rule="evenodd" clip-rule="evenodd" d="M448.96 559.814C448.96 533.305 427.47 511.814 400.96 511.814C427.469 511.814 448.959 490.325 448.96 463.816C448.961 490.325 470.451 511.814 496.96 511.814C470.45 511.814 448.96 533.305 448.96 559.814Z" fill="white"/>
<rect x="672.96" y="511.814" width="128" height="128" rx="48" fill="white"/>
</svg>
