<svg width="1025" height="1024" viewBox="0 0 1025 1024" fill="none" xmlns="http://www.w3.org/2000/svg">
<path d="M528.92 412.762L496.85 412.762C470.373 412.724 448.92 391.248 448.92 364.762C448.92 365.303 448.911 365.843 448.893 366.38C448.039 340.621 426.888 320 400.92 320H368.92C342.41 320 320.92 341.49 320.92 368L320.92 656C320.92 682.51 342.41 704 368.92 704H656.92C683.43 704 704.92 682.51 704.92 656V368C704.92 341.49 683.43 320 656.92 320H624.92C598.952 320 577.801 340.621 576.947 366.381C576.929 365.843 576.92 365.304 576.92 364.762C576.92 391.26 555.448 412.743 528.955 412.762C528.943 412.762 528.931 412.762 528.92 412.762Z" fill="white"/>
</svg>
