<svg width="1025" height="1024" viewBox="0 0 1025 1024" fill="none" xmlns="http://www.w3.org/2000/svg">
<path d="M336.922 448L304.922 448C278.412 448 256.922 426.51 256.922 400V368C256.922 341.49 278.412 320 304.922 320L464.922 320C491.432 320 512.922 341.49 512.922 368C512.922 341.49 534.412 320 560.922 320L720.922 320C747.432 320 768.922 341.49 768.922 368V400C768.922 426.51 747.432 448 720.922 448H688.922C662.412 448 640.922 469.49 640.922 496V656C640.922 682.51 619.432 704 592.922 704H432.922C406.412 704 384.922 682.51 384.922 656L384.922 496C384.922 469.49 363.432 448 336.922 448Z" fill="white"/>
</svg>
