<svg width="1025" height="1024" viewBox="0 0 1025 1024" fill="none" xmlns="http://www.w3.org/2000/svg">
<path fill-rule="evenodd" clip-rule="evenodd" d="M640.96 495.813C640.96 469.304 619.47 447.813 592.96 447.813C619.469 447.813 640.959 426.324 640.96 399.815C640.961 426.324 662.451 447.813 688.96 447.813C662.45 447.813 640.96 469.304 640.96 495.813Z" fill="white"/>
<path fill-rule="evenodd" clip-rule="evenodd" d="M384.96 495.813C384.96 469.304 363.47 447.813 336.96 447.813C363.469 447.813 384.959 426.324 384.96 399.815C384.962 426.324 406.451 447.813 432.96 447.813C406.451 447.813 384.96 469.304 384.96 495.813Z" fill="white"/>
<path fill-rule="evenodd" clip-rule="evenodd" d="M384.96 623.812C384.96 597.303 363.47 575.812 336.96 575.812C363.469 575.812 384.959 554.323 384.96 527.814C384.962 554.323 406.451 575.812 432.96 575.813C406.451 575.812 384.96 597.303 384.96 623.812Z" fill="white"/>
<path fill-rule="evenodd" clip-rule="evenodd" d="M640.96 623.812C640.96 597.303 619.47 575.812 592.96 575.812C619.469 575.812 640.959 554.323 640.96 527.814C640.961 554.323 662.451 575.812 688.96 575.813C662.45 575.812 640.96 597.303 640.96 623.812Z" fill="white"/>
<rect x="640.96" y="319.814" width="128" height="128" rx="48" fill="white"/>
<rect x="640.96" y="575.813" width="128" height="128" rx="48" fill="white"/>
<rect x="256.96" y="575.813" width="128" height="128" rx="48" fill="white"/>
<rect x="256.96" y="319.813" width="128" height="128" rx="48" fill="white"/>
<rect x="384.96" y="447.813" width="256" height="128" rx="48" fill="white"/>
</svg>
