<svg width="1025" height="1024" viewBox="0 0 1025 1024" fill="none" xmlns="http://www.w3.org/2000/svg">
<path fill-rule="evenodd" clip-rule="evenodd" d="M582.738 407.734V368C582.738 341.49 561.248 320 534.738 320L491.102 320C464.592 320 443.102 341.49 443.102 368L443.102 407.573C443.101 407.473 443.101 407.373 443.101 407.273C443.101 420.032 438.537 431.725 430.954 440.81C422.162 430.942 409.358 424.727 395.102 424.727L351.465 424.727C324.956 424.727 303.465 446.217 303.465 472.727L303.465 516.363C303.465 542.873 324.956 564.363 351.465 564.363L390.927 564.363L390.811 564.363L390.739 564.363C419.658 564.364 443.101 587.808 443.101 616.727C443.101 616.626 443.101 616.525 443.102 616.425L443.102 656C443.102 682.509 464.592 704 491.102 704H534.738C561.248 704 582.738 682.509 582.738 656V616.266C582.985 587.559 606.334 564.363 635.1 564.363L634.999 564.363L634.906 564.363L674.375 564.363C700.884 564.363 722.375 542.873 722.375 516.363V472.727C722.375 446.217 700.884 424.727 674.375 424.727L630.738 424.727C616.481 424.727 603.676 430.942 594.885 440.812C587.391 431.837 582.846 420.314 582.738 407.734ZM530.562 459.636L495.271 459.636C495.335 459.637 495.4 459.637 495.464 459.637C466.653 459.637 443.276 482.906 443.102 511.677V512.323C443.276 541.094 466.653 564.363 495.464 564.363H530.374C559.293 564.362 582.736 540.919 582.736 512C582.736 483.081 559.293 459.638 530.374 459.637C530.437 459.637 530.5 459.637 530.562 459.636Z" fill="white"/>
</svg>
