<svg width="91" height="17" viewBox="0 0 91 17" fill="none" xmlns="http://www.w3.org/2000/svg">
<path d="M73.0187 0.54057H77.8734C77.9101 0.54057 77.946 0.539676 77.9827 0.54057C78.0921 0.544146 78.1157 0.570075 78.128 0.678259C78.1385 0.769456 78.1306 0.87764 78.177 0.946485C78.2434 1.04394 78.1918 1.15391 78.2513 1.25316C78.3012 1.3372 78.2679 1.46774 78.3064 1.5634C78.3895 1.77262 78.407 1.99703 78.4595 2.21161C78.5024 2.38596 78.5409 2.56835 78.5724 2.74896C78.6004 2.91079 78.638 3.0762 78.6774 3.23713C78.7176 3.40611 78.7675 3.57688 78.785 3.75212C78.7929 3.82902 78.7902 3.92289 78.8322 3.97565C78.9048 4.06595 78.8436 4.17145 78.8978 4.26354C78.9416 4.33775 78.9425 4.43789 78.9582 4.5273C78.9757 4.62475 78.9722 4.72936 79.0055 4.82056C79.0824 5.03067 79.0956 5.25598 79.1621 5.46877C79.2137 5.63507 79.2321 5.8121 79.2644 5.98465C79.2793 6.06065 79.2819 6.14112 79.3108 6.21086C79.3423 6.28686 79.3362 6.36643 79.3572 6.43796C79.3782 6.50769 79.3808 6.57743 79.3992 6.6436C79.4569 6.85281 79.4849 7.06829 79.5426 7.27571C79.5584 7.33294 79.5593 7.38747 79.5706 7.44201C79.582 7.49566 79.603 7.54841 79.6126 7.60295C79.6327 7.7165 79.6494 7.73617 79.7605 7.73796C79.9206 7.73974 80.0807 7.73796 80.2548 7.73796C80.4018 7.55646 80.5671 7.37675 80.7018 7.17558C80.7771 7.06382 80.8628 6.96189 80.9424 6.85549C81.1384 6.59174 81.3624 6.35034 81.554 6.08479C81.7622 5.7969 81.9905 5.52599 82.2023 5.24167C82.379 5.00474 82.5732 4.78122 82.7359 4.53177C82.8645 4.33507 83.0386 4.16966 83.1777 3.98012C83.358 3.73514 83.5662 3.5134 83.7254 3.25233C83.7849 3.15577 83.8654 3.07262 83.9371 2.9841C84.148 2.72303 84.3658 2.46732 84.5688 2.20089C84.784 1.91925 85.001 1.63851 85.2153 1.35598C85.4078 1.10295 85.6239 0.868699 85.7945 0.597791C85.8129 0.568286 85.8636 0.555769 85.9021 0.544146C85.9292 0.536099 85.9598 0.542358 85.9887 0.542358H90.9361C90.8906 0.681835 90.8241 0.807901 90.8136 0.938438C90.8031 1.07702 90.7445 1.19683 90.7104 1.32289C90.6754 1.45343 90.6238 1.58754 90.5967 1.71897C90.5696 1.84951 90.5188 1.972 90.4926 2.10254C90.4593 2.26258 90.4112 2.42351 90.3631 2.58266C90.2861 2.8339 90.2126 3.08603 90.1505 3.34174C90.1146 3.48926 90.0639 3.63232 90.021 3.77805C89.9475 4.03018 89.874 4.28232 89.8023 4.53445C89.7139 4.84738 89.6273 5.16031 89.5398 5.47413C89.4523 5.78706 89.3657 6.10089 89.2774 6.41382C89.1759 6.77324 89.0683 7.13087 88.9738 7.49208C88.9283 7.66643 88.8828 7.84346 88.8303 8.01423C88.7787 8.1841 88.7682 8.37186 88.6649 8.52475C88.6693 8.6982 88.5845 8.84841 88.5398 9.00845C88.497 9.16134 88.4908 9.32585 88.4025 9.46443C88.4261 9.6057 88.3465 9.72551 88.3071 9.84979C88.2678 9.97317 88.2756 10.1162 88.1846 10.2217C88.1803 10.3934 88.105 10.5454 88.0595 10.7054C88.0167 10.8583 87.9747 11.0121 87.9309 11.1641C87.8846 11.3223 87.8417 11.4851 87.7971 11.6451C87.7542 11.798 87.7463 11.9616 87.6588 12.1002C87.6825 12.2415 87.5862 12.3541 87.5687 12.4873C87.5512 12.6179 87.4734 12.7341 87.4489 12.8593C87.4174 13.0247 87.3623 13.1811 87.3176 13.3421C87.2756 13.495 87.2205 13.6479 87.1873 13.799C87.119 14.1119 87.0342 14.4221 86.9476 14.7288C86.8706 14.9988 86.8015 15.2742 86.7087 15.5424C86.658 15.6891 86.6177 15.8491 86.5976 16.0082H81.9835C82.0395 15.8214 82.0973 15.6399 82.148 15.4566C82.1979 15.276 82.2346 15.0918 82.288 14.9121C82.3632 14.66 82.4332 14.4069 82.5015 14.153C82.5566 13.9465 82.6126 13.7382 82.6791 13.5352C82.7219 13.4047 82.7517 13.2697 82.8007 13.14C82.847 13.0175 82.8497 12.8781 82.8952 12.7547C82.9546 12.5919 82.994 12.4239 83.0404 12.2576C83.1086 12.0108 83.1874 11.7667 83.2433 11.5164C83.281 11.3483 83.3361 11.1838 83.3825 11.0175C83.4664 10.7179 83.5671 10.4238 83.6397 10.1198C83.6782 9.95886 83.7193 9.79614 83.7735 9.64057C83.819 9.51003 83.8593 9.37592 83.889 9.24449C83.9179 9.11574 83.9791 8.99683 83.9914 8.85914C84.0045 8.71787 84.0754 8.58376 84.1147 8.44428C84.176 8.23149 84.2311 8.01691 84.2906 7.80322C84.3124 7.72633 84.3413 7.65123 84.3684 7.56897H84.0491C83.9922 7.65481 83.938 7.74421 83.8759 7.82736C83.6764 8.0938 83.4638 8.3504 83.2766 8.62489C83.05 8.9557 82.7945 9.26327 82.5758 9.60034C82.4376 9.81402 82.2635 10.0036 82.1165 10.2119C81.9223 10.4873 81.7123 10.7519 81.5251 11.0327C81.3799 11.2508 81.1996 11.4439 81.0509 11.6603C80.8637 11.933 80.6572 12.1896 80.4735 12.465C80.3195 12.6948 80.1305 12.8995 79.9687 13.1248C79.8628 13.2723 79.7456 13.4118 79.652 13.571C79.6144 13.6353 79.5628 13.6917 79.463 13.6908C78.6468 13.6854 77.8305 13.6872 77.0151 13.6872C77.0099 13.6872 77.0037 13.6792 76.9976 13.6747C76.9775 13.5227 76.9618 13.3689 76.9084 13.2223C76.89 13.1695 76.9084 13.1043 76.8996 13.047C76.8918 12.9925 76.8594 12.9397 76.8594 12.887C76.8603 12.6706 76.7492 12.4721 76.7702 12.254C76.6783 12.1476 76.7509 12.0072 76.6897 11.8847C76.6389 11.7828 76.6625 11.6451 76.6363 11.528C76.5786 11.2651 76.5374 11.0014 76.4989 10.7349C76.4823 10.6232 76.4604 10.5034 76.4246 10.3889C76.3887 10.2754 76.4088 10.143 76.3703 10.0313C76.3388 9.9383 76.3555 9.84174 76.3257 9.75948C76.2951 9.67365 76.3091 9.58692 76.2846 9.50825C76.2032 9.24628 76.212 8.96643 76.1192 8.70714C76.1009 8.65439 76.1193 8.58913 76.1114 8.53101C76.1035 8.47647 76.0711 8.42372 76.0711 8.37097C76.0729 8.1546 75.9653 7.95611 75.9784 7.73706C75.981 7.68699 75.9434 7.63514 75.9189 7.57255H75.6433C75.5978 7.71382 75.5322 7.86134 75.5051 8.01602C75.4718 8.20288 75.4071 8.37902 75.3616 8.56141C75.3292 8.69194 75.2802 8.82695 75.2479 8.95749C75.2164 9.08534 75.1691 9.21051 75.1429 9.34105C75.1096 9.50199 75.0694 9.6665 75.0143 9.82117C74.9679 9.95171 74.925 10.0858 74.8971 10.2164C74.8699 10.3469 74.8201 10.4703 74.7929 10.5999C74.7597 10.76 74.7124 10.9218 74.6635 11.08C74.5856 11.3313 74.5165 11.5843 74.4491 11.8391C74.4062 11.9992 74.3677 12.1628 74.3144 12.3184C74.2698 12.4489 74.247 12.5848 74.1936 12.7135C74.1438 12.8342 74.142 12.9737 74.0992 13.098C74.044 13.2562 74.0187 13.4217 73.9636 13.5772C73.9172 13.7078 73.8761 13.8419 73.8481 13.9733C73.8201 14.1029 73.7693 14.2263 73.744 14.3569C73.7125 14.5169 73.6608 14.6778 73.6136 14.8361C73.5375 15.0873 73.4614 15.3395 73.4019 15.5961C73.3756 15.7105 73.3074 15.8133 73.3109 15.9394C73.3109 15.9635 73.254 15.9948 73.2182 16.0118C73.1937 16.0234 73.1604 16.0136 73.1316 16.0136C71.667 16.0136 70.2025 16.0136 68.7379 16.0136C68.7239 16.0136 68.7108 16.01 68.6968 16.0074C68.6303 15.9305 68.7134 15.8723 68.7292 15.8098C68.7826 15.588 68.8438 15.3654 68.9094 15.1481C68.9707 14.9443 69.0363 14.7395 69.094 14.5348C69.1762 14.2415 69.2716 13.9527 69.3425 13.655C69.381 13.4941 69.4186 13.3296 69.4746 13.1749C69.5218 13.0444 69.5638 12.9102 69.5909 12.7797C69.6181 12.6492 69.6688 12.5267 69.695 12.3961C69.7274 12.2361 69.7773 12.0752 69.8254 11.9169C69.9015 11.6657 69.9733 11.4126 70.0389 11.1578C70.0809 10.9969 70.122 10.8351 70.1736 10.6786C70.2165 10.5481 70.2427 10.4122 70.2943 10.2834C70.3433 10.1627 70.346 10.0223 70.3888 9.89896C70.4439 9.74071 70.4693 9.5753 70.5244 9.41973C70.5708 9.28919 70.611 9.15508 70.6399 9.02365C70.6679 8.89401 70.7186 8.77152 70.7449 8.64009C70.7764 8.48005 70.828 8.32001 70.8761 8.16086C70.9522 7.90962 71.0231 7.65659 71.0887 7.40178C71.1307 7.24084 71.171 7.07902 71.2226 6.92255C71.2654 6.79201 71.2943 6.65701 71.3442 6.52736C71.3914 6.40487 71.3958 6.26629 71.4378 6.14201C71.492 5.98465 71.5209 5.81925 71.5743 5.66368C71.6189 5.53314 71.6591 5.39903 71.6889 5.2667C71.7178 5.13706 71.7676 5.01457 71.7939 4.88314C71.8254 4.7231 71.8779 4.56306 71.9251 4.40391C72.0003 4.15178 72.0712 3.89875 72.1377 3.64394C72.1797 3.483 72.2173 3.31939 72.2707 3.16382C72.3153 3.03328 72.3433 2.89827 72.3923 2.76863C72.4387 2.64614 72.4413 2.50666 72.4868 2.38417C72.5463 2.22145 72.5865 2.05336 72.632 1.88796C72.7002 1.64119 72.7764 1.39621 72.8358 1.14676C72.884 0.94559 72.954 0.75068 73.0161 0.545934L73.0187 0.54057Z" fill="white"/>
<path d="M31.1853 10.4614C31.2168 10.5347 31.229 10.5821 31.2553 10.6197C31.5308 11.014 31.7513 11.4449 32.0426 11.8285C32.1319 12.0824 32.3165 12.2773 32.4495 12.5044C32.6384 12.8281 32.8519 13.1383 33.0479 13.4584C33.0584 13.4763 33.0645 13.4986 33.0785 13.512C33.1861 13.6193 33.1887 13.7311 33.1397 13.8777C33.0365 14.1853 32.9604 14.5027 32.8729 14.8156C32.7854 15.1286 32.697 15.4415 32.6113 15.7553C32.5894 15.8358 32.5719 15.918 32.5509 16.0039H28.6892C28.5913 15.8125 28.5055 15.6158 28.3935 15.4352C28.2588 15.2171 28.1503 14.9855 28.02 14.7656C27.9036 14.5698 27.8135 14.3596 27.6875 14.1683C27.6123 14.0539 27.5598 13.9251 27.4942 13.8035C27.3787 13.5916 27.2623 13.3797 27.1442 13.1696C26.9684 12.8567 26.817 12.5303 26.6228 12.2272C26.5161 12.0609 26.4557 11.8642 26.3525 11.6953C26.2186 11.4762 26.1145 11.242 25.9736 11.0265C25.8879 10.896 25.8337 10.744 25.7505 10.6072C25.7042 10.5303 25.6631 10.5088 25.5861 10.5097C24.8722 10.5115 24.1591 10.5097 23.44 10.5097C23.3919 10.6626 23.3385 10.8119 23.2974 10.9648C23.2484 11.1463 23.223 11.3349 23.16 11.5102C23.1128 11.6398 23.0874 11.7757 23.0376 11.9054C22.9912 12.0279 22.9877 12.1673 22.9431 12.2907C22.8836 12.4535 22.8477 12.6224 22.7978 12.7878C22.7383 12.9872 22.6964 13.192 22.6386 13.3913C22.5905 13.5576 22.5485 13.7257 22.5004 13.892C22.4269 14.1442 22.3499 14.3954 22.2887 14.652C22.2484 14.8201 22.1933 14.9837 22.1469 15.15C22.0778 15.3968 22.0043 15.6418 21.9431 15.8903C21.9247 15.9672 21.9028 16.0119 21.8215 16.0092C21.7926 16.0083 21.7629 16.0092 21.734 16.0092H17.3491C17.3491 15.868 17.4077 15.7482 17.4375 15.6221C17.5031 15.3458 17.5915 15.0758 17.6615 14.7995C17.7017 14.6404 17.7516 14.4803 17.7962 14.3212C17.8662 14.0753 17.9344 13.8286 18.0044 13.5827C18.0306 13.4897 18.0683 13.4003 18.0901 13.3064C18.1558 13.0221 18.2371 12.7413 18.3202 12.4642C18.4007 12.1942 18.4445 11.9107 18.5687 11.6541C18.6194 11.2867 18.7857 10.9496 18.8347 10.5821C18.965 10.3282 18.9676 10.0305 19.0945 9.77566C19.098 9.604 19.175 9.45201 19.2187 9.29197C19.2607 9.13908 19.3176 8.98529 19.3456 8.83419C19.3815 8.64733 19.4576 8.47567 19.4987 8.29148C19.5389 8.11356 19.6037 7.93385 19.6544 7.75682C19.6999 7.59767 19.7445 7.43674 19.79 7.2767C19.8338 7.12381 19.8775 6.97003 19.9169 6.81803C19.958 6.6571 20.007 6.49795 20.0525 6.33791C20.0962 6.18502 20.14 6.03124 20.1793 5.87924C20.2205 5.71831 20.2695 5.55916 20.3158 5.39912C20.3596 5.24623 20.4033 5.09245 20.4427 4.94045C20.4838 4.77862 20.5337 4.62037 20.5783 4.46033C20.6212 4.30744 20.6675 4.15366 20.7069 4.00166C20.7708 3.75311 20.8521 3.50992 20.9134 3.26136C20.9755 3.01191 21.056 2.76872 21.1137 2.51748C21.1505 2.35655 21.1942 2.19382 21.2476 2.03825C21.2922 1.90771 21.3324 1.7736 21.3622 1.64128C21.391 1.51163 21.4409 1.38915 21.4672 1.25771C21.4987 1.09767 21.5529 0.938526 21.5984 0.778485C21.6063 0.752556 21.6273 0.72931 21.6316 0.703382C21.664 0.520988 21.6859 0.540658 21.8189 0.540658C23.4654 0.541552 25.1128 0.540658 26.7593 0.540658C28.8432 0.540658 30.9272 0.540658 33.0111 0.541552C33.0951 0.541552 33.18 0.555858 33.264 0.563904C33.341 0.571057 33.4433 0.549599 33.4906 0.591621C33.564 0.657783 33.6699 0.583574 33.7224 0.674771C33.9079 0.676559 34.0592 0.776697 34.2176 0.854482C34.4118 0.950149 34.5964 1.0637 34.7434 1.22821C34.8685 1.36858 35.0076 1.49196 35.1213 1.64664C35.2902 1.87374 35.403 2.12319 35.4905 2.38605C35.5771 2.64891 35.6384 2.91893 35.6253 3.20146C35.6191 3.33557 35.6165 3.47058 35.6261 3.60379C35.6357 3.72986 35.5894 3.8452 35.5824 3.9659C35.5745 4.08749 35.5238 4.19747 35.5036 4.31191C35.4494 4.62931 35.3409 4.93151 35.2631 5.24086C35.1948 5.51267 35.1056 5.78447 35.0303 6.05538C34.9726 6.26102 34.886 6.46576 34.8807 6.6866C34.746 6.90744 34.7329 7.17119 34.6296 7.40723C34.5203 7.65668 34.438 7.92133 34.3138 8.16721C34.1852 8.42381 34.0374 8.6661 33.8633 8.8932C33.7373 9.05771 33.6235 9.23206 33.4739 9.37601C33.1249 9.71308 32.7312 9.98935 32.2894 10.1753C32.0348 10.2826 31.7688 10.3729 31.4932 10.4248C31.4049 10.4418 31.3182 10.4686 31.1809 10.4605L31.1853 10.4614ZM25.0471 4.74644C25.0471 4.80992 25.0655 4.86982 25.0436 4.89664C24.957 5.00751 24.9632 5.14788 24.9238 5.27126C24.8844 5.39465 24.8074 5.51535 24.8284 5.65572C24.7094 5.90696 24.6823 6.1877 24.5861 6.44609C24.5555 6.52745 24.5458 6.61597 24.5257 6.70269C25.3376 6.73399 30.096 6.72147 30.2938 6.68749C30.2938 6.64279 30.2806 6.59272 30.2964 6.55428C30.3979 6.31019 30.4425 6.04912 30.5212 5.79967C30.6043 5.53681 30.6595 5.265 30.7557 5.00661C30.7863 4.92525 30.7959 4.83674 30.8169 4.74644H25.048H25.0471Z" fill="white"/>
<path d="M51.0287 6.26277C50.9124 6.55603 50.8433 6.84482 50.7715 7.13003C50.6823 7.48677 50.5441 7.83099 50.4933 8.19846C50.3665 8.45417 50.3192 8.73849 50.2475 9.0094C50.153 9.36435 50.0183 9.70947 49.9675 10.0769C49.9623 10.1172 49.9351 10.1529 49.9264 10.1932C49.9107 10.2611 49.8704 10.2897 49.8039 10.287C49.7532 10.2853 49.7016 10.287 49.6508 10.287H41.28C41.2214 10.287 41.1637 10.2853 41.105 10.287C41.0473 10.2888 41.0167 10.3246 41.0062 10.3809C40.9668 10.5928 40.8968 10.7958 40.8347 11.0005C40.7708 11.2124 40.7192 11.4279 40.6562 11.6407C40.6422 11.6872 40.6274 11.7328 40.6125 11.7784C40.616 11.7837 40.6195 11.7909 40.6239 11.7954C40.6291 11.7998 40.6352 11.8061 40.6414 11.8061C43.5696 11.8061 46.4978 11.8061 49.4408 11.8061C49.4531 11.9599 49.3822 12.0958 49.3464 12.2317C49.3114 12.3631 49.2632 12.4972 49.2335 12.6287C49.2046 12.7583 49.1548 12.8808 49.1285 13.0122C49.097 13.1723 49.0454 13.3323 48.9973 13.4914C48.9212 13.7436 48.8512 13.9966 48.7847 14.2505C48.7427 14.4115 48.7033 14.5742 48.6508 14.7298C48.6071 14.8603 48.5782 14.9953 48.5292 15.1249C48.4829 15.2474 48.4829 15.3887 48.4339 15.5094C48.3814 15.6381 48.3787 15.7821 48.3088 15.9037C48.2965 15.9251 48.307 15.9609 48.307 15.9994H34.8462C34.8882 15.8304 34.9153 15.6587 34.9757 15.5005C35.0255 15.3708 35.0474 15.2349 35.0982 15.1053C35.1463 14.9837 35.1498 14.8442 35.1926 14.7208C35.2469 14.5635 35.274 14.3972 35.3282 14.2416C35.3737 14.111 35.4149 13.9769 35.4437 13.8455C35.4726 13.7159 35.5225 13.5934 35.5487 13.4619C35.5802 13.3019 35.6318 13.1419 35.6799 12.9827C35.7561 12.7306 35.8313 12.4793 35.8917 12.2227C35.9267 12.0752 35.9792 11.9322 36.0211 11.7864C36.0806 11.5808 36.1375 11.3743 36.1961 11.1677C36.2976 10.8083 36.4008 10.4498 36.5023 10.0903C36.5907 9.77742 36.6773 9.46449 36.7648 9.15156C36.8523 8.83863 36.9398 8.5257 37.0273 8.21277C37.1147 7.89984 37.2022 7.58691 37.2897 7.27398C37.3772 6.96105 37.4621 6.64722 37.5531 6.33519C37.6362 6.05087 37.707 5.76208 37.8059 5.48223C37.8418 5.38031 37.8619 5.26944 37.8943 5.16215C37.924 5.0638 37.9467 4.96187 37.9774 4.86174C38.0097 4.75623 38.0316 4.64805 38.0666 4.54255C38.1007 4.43883 38.1252 4.32976 38.1567 4.22336C38.1856 4.12412 38.2092 4.02308 38.2398 3.92295C38.2722 3.81745 38.2941 3.70926 38.3291 3.60376C38.3632 3.50004 38.3894 3.39097 38.4192 3.28457C38.4472 3.18533 38.4717 3.0843 38.5023 2.98416C38.5347 2.87866 38.567 2.77047 38.5907 2.66497C38.6274 2.50135 38.6799 2.34399 38.7245 2.18306C38.7665 2.03017 38.7989 1.87549 38.854 1.72439C38.8907 1.62425 38.9222 1.5116 38.9424 1.4061C38.9651 1.28718 39.0176 1.17989 39.0333 1.06456C39.0491 0.951008 39.1025 0.853553 39.1261 0.744474C39.1392 0.683677 39.1619 0.625561 39.1838 0.552246H52.6306C52.5886 0.680994 52.5274 0.806166 52.509 0.937597C52.4837 1.1191 52.4137 1.28629 52.3717 1.46153C52.3218 1.66985 52.2667 1.87817 52.1967 2.08024C52.0996 2.36098 52.0628 2.6596 51.9404 2.9323C51.929 2.95734 51.9474 2.99578 51.9351 3.01903C51.8887 3.11112 51.9211 3.25685 51.7715 3.28099C51.593 3.43388 51.4163 3.58856 51.2352 3.73877C51.034 3.90507 50.8284 4.06511 50.6263 4.22962C50.5554 4.28773 50.4933 4.35479 50.4155 4.40754C50.2798 4.49963 50.1652 4.62123 50.0296 4.74193H42.5985C42.4558 5.24709 42.315 5.74509 42.1689 6.26366H51.0305L51.0287 6.26277Z" fill="white"/>
<path d="M4.6631 16.0018H0.0883789C0.131248 15.8587 0.174117 15.7228 0.211736 15.5851C0.260729 15.4045 0.298349 15.2204 0.351716 15.0406C0.439204 14.742 0.534565 14.4461 0.610679 14.1439C0.650923 13.9829 0.689418 13.8193 0.74366 13.6638C0.788278 13.5332 0.816274 13.3982 0.865267 13.2686C0.911636 13.1461 0.91426 13.0066 0.959754 12.8841C1.02012 12.7214 1.05949 12.5533 1.10498 12.387C1.17322 12.1402 1.24759 11.8953 1.3097 11.6458C1.34907 11.4849 1.38932 11.3212 1.44356 11.1666C1.48905 11.036 1.51005 10.8992 1.56429 10.7705C1.61503 10.6507 1.62291 10.513 1.65703 10.3851C1.6964 10.2385 1.74452 10.0946 1.78651 9.94883C1.86 9.6967 1.93786 9.44546 2.00348 9.19154C2.04897 9.01719 2.09272 8.83927 2.14608 8.66939C2.19945 8.50041 2.24844 8.32517 2.30006 8.15529C2.34818 7.99883 2.39192 7.8361 2.43654 7.67606C2.47941 7.52317 2.49866 7.36403 2.56952 7.21829C2.60452 7.14587 2.59752 7.05199 2.61852 6.97063C2.63951 6.89106 2.67538 6.81595 2.69813 6.73638C2.71913 6.66306 2.7235 6.58349 2.75062 6.51286C2.77949 6.43597 2.81186 6.3546 2.82849 6.27861C2.85298 6.16864 2.89235 6.06492 2.91772 5.95853C2.94134 5.85571 2.97284 5.75825 3.00171 5.65901C3.03233 5.55261 3.07258 5.44443 3.09007 5.33982C3.12069 5.15117 3.19418 4.97861 3.23355 4.79443C3.2703 4.62008 3.35866 4.45646 3.39103 4.28212C3.43827 4.0282 3.53101 3.78769 3.58613 3.53555C3.62112 3.37551 3.67274 3.21637 3.71998 3.05722C3.79435 2.80509 3.86609 2.55206 3.93258 2.29725C3.97457 2.13631 4.01219 1.97269 4.06556 1.81712C4.11105 1.68659 4.13817 1.55158 4.18717 1.42194C4.23353 1.29945 4.24403 1.16355 4.2799 1.03659C4.32452 0.876545 4.37789 0.72008 4.43126 0.54931H9.00597C8.94823 0.734385 8.87999 0.906944 8.8415 1.08755C8.78813 1.33968 8.70764 1.58377 8.64465 1.83232C8.59216 2.03886 8.53004 2.2445 8.46705 2.44924C8.39006 2.70048 8.32007 2.9544 8.25358 3.20832C8.21159 3.36925 8.17309 3.53198 8.11973 3.68844C8.07598 3.81898 8.04711 3.95399 7.99812 4.08363C7.95175 4.20612 7.94038 4.34202 7.90538 4.46898C7.86689 4.60846 7.81615 4.74436 7.7759 4.88294C7.71466 5.09573 7.65954 5.31031 7.60005 5.524C7.55893 5.66974 7.51256 5.81458 7.47057 5.96031C7.46532 5.97998 7.47232 6.00234 7.47407 6.03095H10.4303C10.6901 5.74931 10.9709 5.47125 11.2203 5.16637C11.3638 4.99113 11.5335 4.84271 11.6708 4.66568C11.8274 4.46272 12.0243 4.29821 12.1791 4.09793C12.3182 3.91822 12.4915 3.77338 12.6297 3.59635C12.7776 3.40591 12.963 3.25034 13.1065 3.0599C13.2395 2.88377 13.4092 2.74608 13.5422 2.57441C13.7032 2.36609 13.9044 2.19532 14.0654 1.99058C14.2054 1.81176 14.3786 1.66692 14.5159 1.48899C14.6638 1.29766 14.8484 1.14209 14.9927 0.952542C15.1038 0.806806 15.2368 0.686105 15.3532 0.543945H19.62C19.5771 0.683423 19.5307 0.817535 19.4948 0.953436C19.4467 1.13494 19.4214 1.32448 19.3575 1.49883C19.3094 1.62847 19.2674 1.76348 19.2403 1.89401C19.2131 2.02455 19.1668 2.14972 19.1353 2.27758C19.088 2.4707 19.0399 2.6665 18.9682 2.85337C18.9533 2.89181 18.9271 2.92758 18.8982 2.95708C18.1677 3.72063 17.4223 4.47077 16.7092 5.2513C16.2841 5.71712 15.8204 6.14449 15.4109 6.62372C15.0575 7.03769 14.6533 7.39711 14.292 7.81018C14.2841 7.87366 14.3086 7.93714 14.3313 8.00687C14.3996 8.21698 14.4424 8.43604 14.5124 8.64615C14.606 8.92778 14.6489 9.22551 14.7688 9.49821C14.7635 9.69312 14.8685 9.85942 14.9123 10.0427C14.9542 10.2206 14.9796 10.412 15.0785 10.5747C15.054 10.7168 15.1502 10.8286 15.1686 10.9618C15.1861 11.0915 15.2648 11.2086 15.2876 11.3338C15.3191 11.5001 15.3751 11.6556 15.4188 11.8166C15.4608 11.9695 15.4739 12.1322 15.557 12.2717C15.5465 12.4675 15.6585 12.6329 15.6996 12.8162C15.7399 12.9941 15.7898 13.1765 15.8571 13.3508C15.893 13.4429 15.8991 13.5538 15.9429 13.6503C15.9507 13.6673 15.9525 13.6933 15.9455 13.7102C15.8475 13.9481 15.8055 14.202 15.7329 14.4479C15.655 14.7134 15.5798 14.9798 15.5089 15.2481C15.4669 15.4072 15.4206 15.5673 15.3733 15.7264C15.3462 15.8185 15.3156 15.9106 15.2867 16.0027H11.5545C11.4792 15.7452 11.3944 15.4957 11.3358 15.24C11.2789 14.9888 11.194 14.7465 11.1363 14.4961C11.0995 14.3352 11.0576 14.1725 11.0024 14.0169C10.9569 13.8864 10.9167 13.7523 10.887 13.6208C10.8581 13.4912 10.8117 13.3669 10.7828 13.2373C10.7382 13.037 10.6717 12.8385 10.6105 12.6409C10.5702 12.5104 10.544 12.3745 10.4906 12.2457C10.4408 12.1259 10.4408 11.9847 10.3953 11.8613C10.3358 11.6986 10.299 11.5296 10.2518 11.3633C10.1818 11.1165 10.0987 10.8742 10.0497 10.6221C10.0348 10.5443 10.0007 10.5058 9.92372 10.5094C9.87997 10.5112 9.83623 10.5094 9.79249 10.5094H6.216C6.16788 10.6614 6.11626 10.8161 6.07077 10.9734C5.98066 11.2855 5.89492 11.5993 5.80743 11.9122C5.71995 12.2252 5.63246 12.5381 5.54497 12.8519C5.45748 13.1657 5.36475 13.4769 5.28513 13.7916C5.24051 13.9668 5.19415 14.143 5.14165 14.3138C5.09004 14.4836 5.07954 14.6714 4.9763 14.8243C4.95006 15.0836 4.83545 15.3169 4.77421 15.5655C4.73921 15.7067 4.70159 15.848 4.66135 16.0018H4.6631Z" fill="white"/>
<path d="M66.7488 16.0085C65.342 16.0085 63.95 16.0085 62.559 16.0085C62.552 16.0085 62.545 16.0076 62.538 16.0067C62.4908 15.9253 62.4706 15.8404 62.4724 15.7429C62.4776 15.4005 62.5048 15.0536 62.4663 14.7156C62.4278 14.3776 62.4453 14.0415 62.4278 13.6946H56.245C56.0657 13.9807 55.9021 14.2927 55.7122 14.5895C55.5486 14.8452 55.4113 15.117 55.2599 15.3808C55.1803 15.5194 55.0963 15.6544 55.0141 15.7912C54.9712 15.8618 54.9275 15.9325 54.8837 16.0031H50.2285C50.2486 15.8994 50.2495 15.7966 50.288 15.7116C50.3545 15.5641 50.3746 15.4058 50.4192 15.2538C50.4647 15.101 50.5373 14.9543 50.5373 14.7898C50.6642 14.5341 50.6721 14.2399 50.7919 13.9816C50.8121 13.9386 50.7963 13.8796 50.8112 13.8331C50.8611 13.6794 50.938 13.5408 51.0395 13.4156C51.1095 13.3298 51.1638 13.2305 51.2268 13.1384C51.4323 12.838 51.6432 12.5412 51.8435 12.2372C52.12 11.8179 52.407 11.4048 52.6878 10.9882C52.9188 10.6448 53.1576 10.3042 53.3999 9.96712C53.6038 9.68459 53.7963 9.39222 53.9896 9.10075C54.1436 8.86829 54.3037 8.6394 54.4568 8.40515C54.6361 8.13067 54.8172 7.85618 55.0053 7.58974C55.2442 7.25089 55.462 6.89593 55.7219 6.57138C55.8216 6.4471 55.8968 6.30316 55.9869 6.17083C56.1295 5.96251 56.2713 5.75329 56.4139 5.54587C56.581 5.30446 56.7437 5.06038 56.9126 4.81987C57.0858 4.57399 57.245 4.31829 57.4182 4.07152C57.5871 3.8319 57.7472 3.58514 57.9169 3.34552C58.0901 3.09965 58.2494 2.84394 58.4226 2.59717C58.5914 2.35756 58.7515 2.11079 58.9213 1.87117C59.0945 1.6253 59.245 1.36333 59.4296 1.12461C59.5521 0.965466 59.6527 0.788438 59.7611 0.617667C59.7953 0.564022 59.8373 0.533623 59.902 0.542564C59.9239 0.545246 59.9457 0.542564 59.9676 0.542564C61.8985 0.542564 63.8293 0.542564 65.7602 0.542564C65.7812 0.542564 65.8022 0.544352 65.8415 0.547035C65.8109 0.730322 65.908 0.897516 65.8853 1.0817C65.8748 1.16574 65.9439 1.23906 65.9308 1.33204C65.9203 1.40714 65.9045 1.49298 65.9701 1.56003C65.9771 1.56719 65.9701 1.58864 65.971 1.60384C65.985 1.7916 65.9946 1.97936 66.0174 2.16622C66.0279 2.24937 66.0602 2.32805 66.062 2.41657C66.0629 2.49972 66.041 2.58197 66.0944 2.67138C66.1329 2.73665 66.0804 2.85288 66.1075 2.93245C66.1486 3.05405 66.1215 3.18012 66.1521 3.29366C66.1854 3.41615 66.1635 3.54222 66.1967 3.65487C66.2317 3.77736 66.2081 3.90343 66.2405 4.01609C66.2737 4.13142 66.2545 4.24855 66.2833 4.35584C66.3183 4.48548 66.2912 4.62138 66.3297 4.73851C66.3726 4.86994 66.3358 5.00226 66.3717 5.12296C66.4076 5.24545 66.3848 5.37062 66.4163 5.48417C66.4496 5.60666 66.4277 5.73273 66.4609 5.84538C66.4968 5.96787 66.4714 6.09394 66.5047 6.20659C66.5379 6.32193 66.5187 6.43906 66.5476 6.54635C66.5808 6.66794 66.5624 6.79311 66.5922 6.90756C66.6237 7.03005 66.6123 7.15164 66.635 7.26966C66.6517 7.35281 66.6683 7.43507 66.6753 7.52C66.6814 7.5969 66.6578 7.672 66.6998 7.75515C66.7356 7.82668 66.7103 7.92771 66.7173 8.01533C66.7243 8.09937 66.7741 8.17448 66.7628 8.26567C66.7531 8.34256 66.7461 8.42482 66.803 8.49366C66.81 8.50261 66.803 8.52227 66.8039 8.53747C66.8179 8.72523 66.8153 8.91657 66.8538 9.09896C66.88 9.22145 66.8669 9.34573 66.8975 9.46017C66.9307 9.58266 66.908 9.70873 66.9412 9.82138C66.9789 9.95102 66.9719 10.078 66.9797 10.2067C66.985 10.2908 67.0357 10.3659 67.0244 10.4571C67.0147 10.534 67.0077 10.6162 67.0646 10.6851C67.0716 10.694 67.0646 10.7137 67.0655 10.7289C67.0795 10.9166 67.076 11.108 67.1153 11.2904C67.1416 11.4129 67.1285 11.5371 67.1591 11.6516C67.1923 11.7741 67.1705 11.9001 67.2028 12.0128C67.2405 12.1433 67.2335 12.2694 67.2413 12.3981C67.2466 12.4822 67.2973 12.5573 67.2859 12.6485C67.2763 12.7254 67.2693 12.8076 67.3262 12.8765C67.3332 12.8854 67.3262 12.9051 67.3271 12.9203C67.3411 13.108 67.3244 13.3056 67.3787 13.48C67.446 13.6928 67.3446 13.8591 67.3052 14.0441C67.2509 14.2954 67.1617 14.5359 67.1057 14.7871C67.0734 14.9347 67.0191 15.0777 66.9771 15.2234C66.9176 15.4291 66.8608 15.6356 66.8013 15.8422C66.7864 15.8949 66.768 15.9468 66.7479 16.012L66.7488 16.0085ZM61.9081 4.9808C61.7594 4.96829 61.6564 5.01597 61.5993 5.12386C61.5835 5.15426 61.5704 5.18644 61.552 5.21505C61.4523 5.36705 61.3368 5.50921 61.2528 5.67014C61.0813 5.99827 60.8521 6.28706 60.6701 6.60714C60.5809 6.7645 60.4637 6.90577 60.3779 7.06492C60.2292 7.34119 60.0394 7.58974 59.8819 7.85976C59.7655 8.05824 59.6124 8.23527 59.5057 8.43823C59.3561 8.72255 59.1627 8.97647 59.0026 9.25274C58.9151 9.40384 58.8163 9.54868 58.7209 9.69889H62.2213C62.2003 9.64435 62.1723 9.60144 62.1706 9.55852C62.1644 9.43245 62.1557 9.30371 62.1714 9.17943C62.1881 9.04442 62.1259 8.92551 62.1216 8.79497C62.1154 8.60006 62.1452 8.40515 62.0866 8.20845C62.0516 8.09222 62.0682 7.95542 62.0839 7.83115C62.0997 7.70329 62.0393 7.59243 62.0349 7.46904C62.0279 7.26608 62.0384 7.06581 62.0017 6.86017C61.9597 6.62681 62.0148 6.37915 61.9492 6.14311C61.9825 5.75329 61.8731 5.37062 61.9081 4.9817V4.9808Z" fill="white"/>
</svg>
