<svg width="351" height="51" viewBox="0 0 351 51" fill="none" xmlns="http://www.w3.org/2000/svg">
<path d="M219.304 4.80981C219.304 2.22131 221.412 0.122926 224.012 0.122926H239.707C242.308 0.122926 244.416 2.22132 244.416 4.80981V32.9356C244.416 35.5241 242.308 37.6225 239.707 37.6225H224.012C221.412 37.6225 219.304 35.5241 219.304 32.9356V4.80981Z" fill="white"/>
<path d="M244.416 42.3079C244.416 39.7194 246.524 37.621 249.124 37.621H264.819C267.42 37.621 269.528 39.7194 269.528 42.3079V45.4325C269.528 48.021 267.42 50.1194 264.819 50.1194H249.124C246.524 50.1194 244.416 48.021 244.416 45.4325V42.3079Z" fill="white"/>
<path d="M244.416 17.3148C244.416 14.7263 246.524 12.628 249.124 12.628H264.819C267.42 12.628 269.528 14.7263 269.528 17.3148V20.4394C269.528 23.0279 267.42 25.1263 264.819 25.1263H249.124C246.524 25.1263 244.416 23.0279 244.416 20.4394V17.3148Z" fill="white"/>
<path d="M244.416 7.94107C244.416 10.5296 246.524 12.628 249.124 12.628C246.524 12.628 244.416 14.7263 244.416 17.3148C244.416 14.7263 242.308 12.628 239.707 12.628C242.308 12.628 244.416 10.5296 244.416 7.94107Z" fill="white"/>
<path d="M244.416 20.4394C244.416 23.0279 246.524 25.1263 249.124 25.1263C246.524 25.1263 244.416 27.2247 244.416 29.8132C244.416 27.2247 242.308 25.1263 239.707 25.1263C242.308 25.1263 244.416 23.0279 244.416 20.4394Z" fill="white"/>
<path d="M244.416 32.9356C244.416 35.5241 246.524 37.6224 249.124 37.6224C246.524 37.6224 244.416 39.7208 244.416 42.3093C244.416 39.7208 242.308 37.6225 239.707 37.6225C242.308 37.6225 244.416 35.5241 244.416 32.9356Z" fill="white"/>
<path d="M325.638 7.93781C325.638 10.5263 327.746 12.6247 330.346 12.6247C327.746 12.6247 325.638 14.7231 325.638 17.3116C325.638 14.7231 323.53 12.6247 320.929 12.6247C323.53 12.6247 325.638 10.5263 325.638 7.93781Z" fill="white"/>
<path d="M300.526 7.93762C300.526 10.5261 302.634 12.6245 305.234 12.6245C302.634 12.6245 300.526 14.7229 300.526 17.3114C300.526 14.7229 298.418 12.6245 295.817 12.6245C298.418 12.6245 300.526 10.5261 300.526 7.93762Z" fill="white"/>
<path d="M275.414 17.3114C275.414 14.7229 277.522 12.6245 280.122 12.6245H295.817C298.418 12.6245 300.526 14.7229 300.526 17.3114V45.4327C300.526 48.0212 298.418 50.1196 295.817 50.1196H280.122C277.522 50.1196 275.414 48.0212 275.414 45.4327V17.3114Z" fill="white"/>
<path d="M325.638 17.3114C325.638 14.7229 327.746 12.6245 330.346 12.6245H346.041C348.642 12.6245 350.75 14.7229 350.75 17.3114V45.4327C350.75 48.0212 348.642 50.1196 346.041 50.1196H330.346C327.746 50.1196 325.638 48.0212 325.638 45.4327V17.3114Z" fill="white"/>
<path d="M300.526 4.81305C300.526 2.22456 302.634 0.126168 305.234 0.126168H320.929C323.53 0.126168 325.638 2.22456 325.638 4.81305V7.93764C325.638 10.5261 323.53 12.6245 320.929 12.6245L305.234 12.6245C302.634 12.6245 300.526 10.5261 300.526 7.93762V4.81305Z" fill="white"/>
<path d="M107.084 7.94144C107.084 10.5299 109.192 12.6283 111.793 12.6283C109.192 12.6283 107.084 14.7267 107.084 17.3152C107.084 14.7267 104.976 12.6283 102.376 12.6283C104.976 12.6283 107.084 10.5299 107.084 7.94144Z" fill="white"/>
<path d="M107.084 45.4357C107.084 48.0242 104.976 50.1226 102.376 50.1226H86.6805C84.0801 50.1226 81.972 48.0242 81.972 45.4357V17.3144C81.972 14.7259 84.0801 12.6275 86.6805 12.6275L102.376 12.6276C104.976 12.6276 107.084 14.7259 107.084 17.3144V45.4357Z" fill="white"/>
<path d="M132.196 7.94183C132.196 10.5303 130.088 12.6287 127.488 12.6287L111.793 12.6287C109.192 12.6287 107.084 10.5303 107.084 7.94183V4.81724C107.084 2.22875 109.192 0.130361 111.793 0.130361L127.488 0.130363C130.088 0.130363 132.196 2.22875 132.196 4.81725V7.94183Z" fill="white"/>
<path d="M50.9742 29.8065C50.9742 27.218 48.8662 25.1196 46.2657 25.1196C48.8661 25.1196 50.9741 23.0213 50.9742 20.4329C50.9743 23.0213 53.0824 25.1196 55.6828 25.1196C53.0823 25.1196 50.9742 27.218 50.9742 29.8065Z" fill="white"/>
<path d="M50.9742 4.80981C50.9742 2.22131 53.0823 0.122924 55.6828 0.122925L71.3778 0.122928C73.9783 0.122928 76.0863 2.22132 76.0863 4.80981V20.4328C76.0863 23.0213 73.9783 25.1196 71.3778 25.1196L55.6828 25.1196C53.0823 25.1196 50.9742 23.0213 50.9742 20.4328V4.80981Z" fill="white"/>
<path d="M0.750003 29.8065C0.750003 27.218 2.85808 25.1196 5.45853 25.1196L46.2657 25.1196C48.8662 25.1196 50.9742 27.218 50.9742 29.8065L50.9742 45.4295C50.9742 48.018 48.8662 50.1164 46.2657 50.1164L5.45852 50.1163C2.85808 50.1163 0.75 48.018 0.75 45.4295L0.750003 29.8065Z" fill="white"/>
<path d="M163.194 7.94183C163.194 10.5303 165.302 12.6287 167.902 12.6287C165.302 12.6287 163.194 14.7271 163.194 17.3156C163.194 14.7271 161.086 12.6287 158.485 12.6287C161.086 12.6287 163.194 10.5303 163.194 7.94183Z" fill="white"/>
<path d="M163.194 20.4406C163.194 23.0291 165.302 25.1275 167.902 25.1275C165.302 25.1275 163.194 27.2258 163.194 29.8143C163.194 27.2258 161.086 25.1275 158.485 25.1275C161.086 25.1275 163.194 23.0291 163.194 20.4406Z" fill="white"/>
<path d="M163.194 32.9389C163.194 35.5274 165.302 37.6258 167.902 37.6258C165.302 37.6258 163.194 39.7242 163.194 42.3127C163.194 39.7242 161.086 37.6258 158.485 37.6258C161.086 37.6258 163.194 35.5274 163.194 32.9389Z" fill="white"/>
<path d="M163.194 29.8143C163.194 27.2258 165.302 25.1275 167.902 25.1275H183.597C186.198 25.1275 188.306 27.2258 188.306 29.8143V32.9389C188.306 35.5274 186.198 37.6258 183.597 37.6258H167.902C165.302 37.6258 163.194 35.5274 163.194 32.9389V29.8143Z" fill="white"/>
<path d="M163.194 4.81725C163.194 2.22875 165.302 0.130362 167.902 0.130362H208.71C211.31 0.130362 213.418 2.22875 213.418 4.81725V7.94183C213.418 10.5303 211.31 12.6287 208.71 12.6287H167.902C165.302 12.6287 163.194 10.5303 163.194 7.94183V4.81725Z" fill="white"/>
<path d="M138.082 17.3156C138.082 14.7271 140.19 12.6287 142.79 12.6287H158.485C161.086 12.6287 163.194 14.7271 163.194 17.3156V45.436C163.194 48.0245 161.086 50.1229 158.485 50.1229H142.79C140.19 50.1229 138.082 48.0245 138.082 45.436V17.3156Z" fill="white"/>
</svg>
