<svg width="30" height="21" viewBox="0 0 30 21" fill="none" xmlns="http://www.w3.org/2000/svg">
<path d="M20 2.16028C20 1.12474 20.8395 0.285278 21.875 0.285278L28.125 0.285279C29.1605 0.28528 30 1.12475 30 2.16028L30 8.41028C30 9.44582 29.1605 10.2853 28.125 10.2853L21.8953 10.2853C20.8482 10.2874 20 11.1369 20 12.1845L20 18.4103C20 19.4458 19.1605 20.2853 18.125 20.2853L1.875 20.2853C0.839466 20.2853 0 19.4458 0 18.4103L1.19209e-06 12.1603C1.49012e-06 11.1247 0.839467 10.2853 1.875 10.2853H18.1008C19.1488 10.2853 19.9986 9.43642 20 8.38875L20 2.16028Z" fill="#74F892"/>
</svg>
