<svg width="526" height="176" viewBox="0 0 526 176" fill="none" xmlns="http://www.w3.org/2000/svg">
<rect x="87.9399" y="0.411621" width="87.5" height="87.5" rx="42" fill="#74F892"/>
<rect x="262.94" y="0.411621" width="87.5" height="87.5" rx="42" fill="#74F892"/>
<rect x="437.94" y="0.411621" width="87.5" height="87.5" rx="42" fill="#74F892"/>
<rect x="0.439941" y="87.9124" width="87.5" height="87.5" rx="42" fill="#74F892"/>
<rect x="175.44" y="87.9124" width="87.5" height="87.5" rx="42" fill="#74F892"/>
<rect x="350.44" y="87.9124" width="87.5" height="87.5" rx="42" fill="#74F892"/>
<path fill-rule="evenodd" clip-rule="evenodd" d="M87.9405 131.662C87.9405 107.499 68.3528 87.9117 44.1901 87.9117C68.3523 87.9117 87.9398 68.3247 87.9405 44.1626C87.9412 68.3244 107.528 87.9112 131.69 87.9117C107.528 87.9122 87.9405 107.5 87.9405 131.662Z" fill="#74F892"/>
<path fill-rule="evenodd" clip-rule="evenodd" d="M262.94 131.662C262.94 107.499 243.353 87.9117 219.19 87.9117C243.352 87.9117 262.94 68.3247 262.94 44.1626C262.941 68.3244 282.528 87.9112 306.69 87.9117C282.528 87.9122 262.94 107.5 262.94 131.662Z" fill="#74F892"/>
<path fill-rule="evenodd" clip-rule="evenodd" d="M437.94 131.662C437.94 107.499 418.353 87.9117 394.19 87.9117C418.352 87.9117 437.94 68.3247 437.94 44.1626C437.941 68.3244 457.528 87.9112 481.69 87.9117C457.527 87.9122 437.94 107.5 437.94 131.662Z" fill="#74F892"/>
<path fill-rule="evenodd" clip-rule="evenodd" d="M175.44 131.662C175.44 107.499 155.853 87.9117 131.69 87.9117C155.852 87.9117 175.44 68.3247 175.44 44.1626C175.441 68.3244 195.028 87.9112 219.19 87.9117C195.028 87.9122 175.44 107.5 175.44 131.662Z" fill="#74F892"/>
<path fill-rule="evenodd" clip-rule="evenodd" d="M350.44 131.662C350.44 107.499 330.853 87.9117 306.69 87.9117C330.852 87.9117 350.44 68.3247 350.44 44.1626C350.441 68.3244 370.028 87.9112 394.19 87.9117C370.027 87.9122 350.44 107.5 350.44 131.662Z" fill="#74F892"/>
</svg>
