<?xml version="1.0" encoding="utf-8"?>
<!-- Generator: Adobe Illustrator 26.5.0, SVG Export Plug-In . SVG Version: 6.00 Build 0)  -->
<svg version="1.1" id="레이어_1" xmlns="http://www.w3.org/2000/svg" xmlns:xlink="http://www.w3.org/1999/xlink" x="0px"
	 y="0px" viewBox="0 0 175 175.7" style="enable-background:new 0 0 175 175.7;" xml:space="preserve">
<style type="text/css">
	.st0{fill-rule:evenodd;clip-rule:evenodd;fill:#74F892;}
</style>
<path class="st0" d="M129.5,0.4c-23.2,0-42,18.8-42,42v1.9c-0.1,24.1-19.7,43.6-43.7,43.6C19.6,87.9,0,68.3,0,44.1
	c0,0.1,0,0.1,0,0.2v87.1v1.9c0,23.2,18.8,42,42,42h3.5c23.2,0,42-18.8,42-42v-1.9c0,0.1,0,0.1,0,0.2c0-24.2,19.6-43.8,43.7-43.8
	c24.1,0,43.6,19.5,43.8,43.6V44.3v-1.9c0-23.2-18.8-42-42-42H129.5z M131.3,87.9L131.3,87.9L131.3,87.9L131.3,87.9z M43.8,87.9
	c0,0,0.1,0,0.1,0c0,0,0.1,0,0.1,0h-0.5C43.6,87.9,43.7,87.9,43.8,87.9z"/>
</svg>
