<svg width="4843" height="1025" viewBox="0 0 4843 1025" fill="none" xmlns="http://www.w3.org/2000/svg">
<path fill-rule="evenodd" clip-rule="evenodd" d="M242.512 0.863281C108.859 0.863281 0.511719 109.21 0.511719 242.863V782.863C0.511719 916.516 108.859 1024.86 242.512 1024.86H782.512C916.165 1024.86 1024.51 916.516 1024.51 782.863V242.863C1024.51 109.21 916.165 0.863281 782.512 0.863281H242.512ZM688.512 256.863C662.002 256.863 640.512 278.354 640.512 304.863L640.512 464.863V464.918C640.482 491.402 619.003 512.863 592.512 512.863L176.512 512.863C150.002 512.863 128.512 534.354 128.512 560.863L128.512 720.863C128.512 747.373 150.002 768.863 176.512 768.863L592.512 768.863C619.021 768.863 640.512 747.373 640.512 720.863L640.512 560.863C640.512 534.376 661.966 512.899 688.445 512.863H688.512L848.512 512.863C875.021 512.863 896.512 491.373 896.512 464.863L896.512 304.863C896.512 278.354 875.021 256.863 848.512 256.863L688.512 256.863Z" fill="white"/>
<path d="M3502.51 304.83C3502.51 278.32 3524 256.83 3550.51 256.83H3710.51C3737.02 256.83 3758.51 278.32 3758.51 304.83V592.876C3758.51 619.386 3737.02 640.876 3710.51 640.876H3550.51C3524 640.876 3502.51 619.386 3502.51 592.876V304.83Z" fill="white"/>
<path d="M3758.51 688.861C3758.51 662.352 3780 640.861 3806.51 640.861H3966.51C3993.02 640.861 4014.51 662.352 4014.51 688.861V720.861C4014.51 747.371 3993.02 768.861 3966.51 768.861H3806.51C3780 768.861 3758.51 747.371 3758.51 720.861V688.861Z" fill="white"/>
<path d="M3758.51 432.898C3758.51 406.389 3780 384.898 3806.51 384.898H3966.51C3993.02 384.898 4014.51 406.389 4014.51 432.898V464.898C4014.51 491.408 3993.02 512.898 3966.51 512.898H3806.51C3780 512.898 3758.51 491.408 3758.51 464.898V432.898Z" fill="white"/>
<path d="M3758.51 336.898C3758.51 363.408 3780 384.898 3806.51 384.898C3780 384.898 3758.51 406.389 3758.51 432.898C3758.51 406.389 3737.02 384.898 3710.51 384.898C3737.02 384.898 3758.51 363.408 3758.51 336.898Z" fill="white"/>
<path d="M3758.51 464.898C3758.51 491.408 3780 512.898 3806.51 512.898C3780 512.898 3758.51 534.389 3758.51 560.898C3758.51 534.389 3737.02 512.898 3710.51 512.898C3737.02 512.898 3758.51 491.408 3758.51 464.898Z" fill="white"/>
<path d="M3758.51 592.876C3758.51 619.386 3780 640.875 3806.51 640.875C3780 640.875 3758.51 662.365 3758.51 688.875C3758.51 662.365 3737.02 640.876 3710.51 640.876C3737.02 640.876 3758.51 619.386 3758.51 592.876Z" fill="white"/>
<path d="M4586.51 336.865C4586.51 363.375 4608 384.865 4634.51 384.865C4608 384.865 4586.51 406.355 4586.51 432.865C4586.51 406.355 4565.02 384.865 4538.51 384.865C4565.02 384.865 4586.51 363.375 4586.51 336.865Z" fill="white"/>
<path d="M4330.51 336.863C4330.51 363.373 4352 384.863 4378.51 384.863C4352 384.863 4330.51 406.353 4330.51 432.863C4330.51 406.353 4309.02 384.863 4282.51 384.863C4309.02 384.863 4330.51 363.373 4330.51 336.863Z" fill="white"/>
<path d="M4074.51 432.863C4074.51 406.353 4096 384.863 4122.51 384.863H4282.51C4309.02 384.863 4330.51 406.353 4330.51 432.863V720.863C4330.51 747.373 4309.02 768.863 4282.51 768.863H4122.51C4096 768.863 4074.51 747.373 4074.51 720.863V432.863Z" fill="white"/>
<path d="M4586.51 432.863C4586.51 406.353 4608 384.863 4634.51 384.863H4794.51C4821.02 384.863 4842.51 406.353 4842.51 432.863V720.863C4842.51 747.373 4821.02 768.863 4794.51 768.863H4634.51C4608 768.863 4586.51 747.373 4586.51 720.863V432.863Z" fill="white"/>
<path d="M4330.51 304.863C4330.51 278.354 4352 256.863 4378.51 256.863H4538.51C4565.02 256.863 4586.51 278.354 4586.51 304.863V336.863C4586.51 363.373 4565.02 384.863 4538.51 384.863L4378.51 384.863C4352 384.863 4330.51 363.373 4330.51 336.863V304.863Z" fill="white"/>
<path d="M2358.51 336.902C2358.51 363.412 2380 384.902 2406.51 384.902C2380 384.902 2358.51 406.392 2358.51 432.902C2358.51 406.392 2337.02 384.902 2310.51 384.902C2337.02 384.902 2358.51 363.412 2358.51 336.902Z" fill="white"/>
<path d="M2358.51 720.894C2358.51 747.404 2337.02 768.894 2310.51 768.894H2150.51C2124 768.894 2102.51 747.404 2102.51 720.894V432.894C2102.51 406.385 2124 384.894 2150.51 384.894L2310.51 384.894C2337.02 384.894 2358.51 406.385 2358.51 432.894V720.894Z" fill="white"/>
<path d="M2614.51 336.906C2614.51 363.416 2593.02 384.906 2566.51 384.906L2406.51 384.906C2380 384.906 2358.51 363.416 2358.51 336.906V304.906C2358.51 278.397 2380 256.906 2406.51 256.906L2566.51 256.906C2593.02 256.906 2614.51 278.397 2614.51 304.906V336.906Z" fill="white"/>
<path d="M1786.51 560.83C1786.51 534.32 1765.02 512.83 1738.51 512.83C1765.02 512.83 1786.51 491.341 1786.51 464.832C1786.51 491.341 1808 512.83 1834.51 512.83C1808 512.83 1786.51 534.32 1786.51 560.83Z" fill="white"/>
<path d="M1786.51 304.83C1786.51 278.32 1808 256.83 1834.51 256.83L1994.51 256.83C2021.02 256.83 2042.51 278.32 2042.51 304.83V464.83C2042.51 491.34 2021.02 512.83 1994.51 512.83L1834.51 512.83C1808 512.83 1786.51 491.34 1786.51 464.83V304.83Z" fill="white"/>
<path d="M1274.51 560.83C1274.51 534.32 1296 512.83 1322.51 512.83L1738.51 512.83C1765.02 512.83 1786.51 534.32 1786.51 560.83L1786.51 720.83C1786.51 747.34 1765.02 768.83 1738.51 768.83L1322.51 768.83C1296 768.83 1274.51 747.34 1274.51 720.83L1274.51 560.83Z" fill="white"/>
<path d="M2930.51 336.906C2930.51 363.416 2952 384.906 2978.51 384.906C2952 384.906 2930.51 406.397 2930.51 432.906C2930.51 406.397 2909.02 384.906 2882.51 384.906C2909.02 384.906 2930.51 363.416 2930.51 336.906Z" fill="white"/>
<path d="M2930.51 464.91C2930.51 491.42 2952 512.91 2978.51 512.91C2952 512.91 2930.51 534.4 2930.51 560.91C2930.51 534.4 2909.02 512.91 2882.51 512.91C2909.02 512.91 2930.51 491.42 2930.51 464.91Z" fill="white"/>
<path d="M2930.51 592.91C2930.51 619.42 2952 640.91 2978.51 640.91C2952 640.91 2930.51 662.4 2930.51 688.91C2930.51 662.4 2909.02 640.91 2882.51 640.91C2909.02 640.91 2930.51 619.42 2930.51 592.91Z" fill="white"/>
<path d="M2930.51 560.91C2930.51 534.4 2952 512.91 2978.51 512.91H3138.51C3165.02 512.91 3186.51 534.4 3186.51 560.91V592.91C3186.51 619.42 3165.02 640.91 3138.51 640.91H2978.51C2952 640.91 2930.51 619.42 2930.51 592.91V560.91Z" fill="white"/>
<path d="M2930.51 304.906C2930.51 278.397 2952 256.906 2978.51 256.906H3394.51C3421.02 256.906 3442.51 278.397 3442.51 304.906V336.906C3442.51 363.416 3421.02 384.906 3394.51 384.906H2978.51C2952 384.906 2930.51 363.416 2930.51 336.906V304.906Z" fill="white"/>
<path d="M2674.51 432.906C2674.51 406.397 2696 384.906 2722.51 384.906H2882.51C2909.02 384.906 2930.51 406.397 2930.51 432.906V720.897C2930.51 747.407 2909.02 768.897 2882.51 768.897H2722.51C2696 768.897 2674.51 747.407 2674.51 720.897V432.906Z" fill="white"/>
</svg>
