<svg width="122" height="16" viewBox="0 0 122 16" fill="none" xmlns="http://www.w3.org/2000/svg">
<path d="M0.340634 14.26C0.172791 14.0921 0.130832 13.8404 0.256714 13.6306L1.22181 11.9521C1.38966 11.7004 1.68338 11.6584 1.93514 11.8262C2.5226 12.2039 3.61357 12.9592 4.95632 12.9592C5.79553 12.9592 6.42495 12.4557 6.42495 11.7004C6.42495 10.8192 5.62769 10.2737 4.24298 9.60233C2.1869 8.63723 0.0888672 7.50429 0.0888672 4.98665C0.0888672 2.93057 1.72534 0.83252 5.04025 0.83252C6.67671 0.87448 8.27122 1.41998 9.61397 2.38507C9.82377 2.55292 9.86573 2.84663 9.73984 3.05644L8.64886 4.65094C8.43906 4.94466 8.01946 5.0286 7.72573 4.81879C7.2222 4.48311 5.96338 3.68585 4.83044 3.68585C3.94927 3.68585 3.52965 4.23134 3.52965 4.81879C3.52965 5.49016 4.36887 6.03564 5.87946 6.74898C7.76769 7.63015 10.2014 8.67919 10.2014 11.4906C10.2014 13.6306 8.31318 15.8125 5.16612 15.8125C2.35475 15.8545 0.844164 14.7215 0.340634 14.26Z" fill="white"/>
<path d="M14.187 1.21018C14.187 1.00037 14.3968 0.83252 14.6066 0.83252H14.9423C15.1521 0.87448 15.3619 0.958407 15.4878 1.12625L23.7121 8.84702H23.7541V1.41998C23.7541 1.21018 23.9219 1.04232 24.1737 1.04232H26.7333C26.9431 1.04232 27.1109 1.21018 27.1529 1.41998V15.4768C27.1529 15.6866 26.985 15.8545 26.7752 15.8545H26.7333H26.5235C26.3137 15.8545 26.1458 15.7705 25.978 15.6447L17.6698 7.46232H17.5439V15.267C17.5439 15.4768 17.376 15.6866 17.1243 15.6447H14.6066C14.3968 15.6447 14.229 15.4768 14.187 15.267V1.21018Z" fill="white"/>
<path d="M30.4258 1.54601C30.4258 1.25229 30.6356 1.04248 30.9293 1.04248H33.4469C33.7407 1.04248 33.9505 1.25229 33.9505 1.54601V7.12679L38.692 1.25228C38.8179 1.1264 38.9438 1.04248 39.1117 1.04248H41.7971C42.0489 1.04248 42.2587 1.25227 42.3007 1.50404C42.3007 1.62992 42.2587 1.71385 42.2167 1.79777L37.2234 8.00796L42.6783 14.8476C42.8462 15.0574 42.7622 15.3931 42.5524 15.5189C42.4685 15.5609 42.3846 15.6029 42.2587 15.6029H39.3215C39.1956 15.6029 39.0277 15.5609 38.9438 15.477L33.9924 9.01503V15.1413C33.9924 15.435 33.7407 15.6448 33.4889 15.6448H30.9713C30.6775 15.6448 30.4677 15.435 30.4677 15.1413V1.54601H30.4258Z" fill="white"/>
<path d="M45.8676 1.46184C45.8676 1.25203 46.0355 1.08418 46.2873 1.08418H52.6653C55.141 1.00026 57.239 2.93047 57.3229 5.40616C57.3229 5.44812 57.3229 5.53203 57.3229 5.57399C57.3229 7.50418 56.148 9.05673 54.1759 9.77006L57.1131 15.0571C57.239 15.225 57.1551 15.4767 56.9872 15.6026C56.9033 15.6446 56.8194 15.6865 56.7355 15.6446H53.8822C53.7563 15.6446 53.6304 15.5606 53.5465 15.4348L50.6931 9.89594H49.2245V15.225C49.2245 15.4348 49.0567 15.6026 48.8049 15.6026H46.2453C46.0355 15.6026 45.8257 15.4348 45.8257 15.225L45.8676 1.46184ZM52.4135 7.29439C53.2947 7.29439 54.05 6.58105 54.05 5.65791V5.61596C54.05 4.77675 53.3786 4.06339 52.5394 4.02143C52.4974 4.02143 52.4555 4.02143 52.4135 4.02143H49.2665V7.29439H52.4135Z" fill="white"/>
<path d="M60.8057 1.46213C60.8057 1.25233 60.9735 1.08447 61.1833 1.08447H66.2606C70.2888 1.08447 73.5617 4.35742 73.5617 8.38566C73.5617 12.4139 70.2888 15.6868 66.2606 15.6868H61.1833C60.9735 15.6868 60.8057 15.519 60.8057 15.3092V1.46213ZM66.2186 12.5398C68.5684 12.5398 70.079 10.6935 70.079 8.30173C70.079 5.95193 68.5684 4.10565 66.2186 4.10565H64.0366V12.5398H66.2186Z" fill="white"/>
<path d="M77.0864 1.46213C77.0864 1.25233 77.2543 1.08447 77.506 1.08447H80.1496C80.3594 1.08447 80.5692 1.25233 80.5692 1.46213V10.148C80.5692 11.6586 81.6602 12.5398 83.2127 12.5398C84.7652 12.5398 85.8982 11.7006 85.8982 10.148V1.46213C85.8982 1.25233 86.066 1.08447 86.3178 1.08447H88.9613C89.1711 1.08447 89.339 1.25233 89.3809 1.46213V10.3158C89.3809 13.5049 86.6535 15.8547 83.2547 15.8547C79.8978 15.8547 77.1704 13.4629 77.1704 10.3158L77.0864 1.46213Z" fill="white"/>
<path d="M92.4443 1.21018C92.4443 1.00037 92.6541 0.83252 92.8639 0.83252H93.1996C93.4094 0.87448 93.6192 0.958407 93.7451 1.12625L101.969 8.84702H102.011V1.41998C102.011 1.21018 102.179 1.04232 102.431 1.04232H104.991C105.2 1.04232 105.368 1.21018 105.41 1.41998V15.4768C105.41 15.6866 105.242 15.8545 105.033 15.8545H104.991H104.781C104.571 15.8545 104.403 15.7705 104.235 15.6447L95.9271 7.50429H95.8851V15.267C95.8851 15.4768 95.7173 15.6866 95.4655 15.6447H92.9059C92.6961 15.6447 92.5283 15.4768 92.4863 15.267L92.4443 1.21018Z" fill="white"/>
<path d="M109.522 1.54601C109.522 1.25229 109.732 1.04248 110.026 1.04248H112.544C112.837 1.04248 113.047 1.25229 113.047 1.54601V7.12679L117.789 1.25228C117.915 1.1264 118.041 1.04248 118.208 1.04248H120.894C121.146 1.04248 121.355 1.25227 121.397 1.50404C121.397 1.62992 121.355 1.71385 121.313 1.79777L116.32 8.00796L121.775 14.8476C121.943 15.0574 121.859 15.3931 121.649 15.5189C121.565 15.5609 121.481 15.6029 121.355 15.6029H118.418C118.292 15.6029 118.124 15.5609 118.04 15.477L113.089 9.01503V15.1413C113.089 15.435 112.837 15.6448 112.586 15.6448H110.068C109.774 15.6448 109.564 15.435 109.564 15.1413L109.522 1.54601Z" fill="white"/>
</svg>
