<svg width="110" height="26" viewBox="0 0 110 26" fill="none" xmlns="http://www.w3.org/2000/svg">
<path fill-rule="evenodd" clip-rule="evenodd" d="M4.50192 12.1447C6.05643 12.1447 7.21159 12.9501 7.9674 14.5623L5.64965 15.8017C5.28412 15.05 4.83114 14.6737 4.29069 14.6737C4.03325 14.6737 3.81212 14.7595 3.6306 14.9312C3.54053 15.0148 3.46941 15.1168 3.42201 15.2302C3.37462 15.3436 3.35206 15.4659 3.35583 15.5888C3.35583 16.0566 3.89546 16.5195 4.97636 16.9791C6.46404 17.6227 7.46573 18.2151 7.98142 18.758C8.49629 19.301 8.75456 20.0312 8.75456 20.9504C8.75456 22.1278 8.32219 23.113 7.45748 23.9068C6.61751 24.6584 5.60344 25.0347 4.41445 25.0347C2.37807 25.0347 0.935771 24.0363 0.0883789 22.0403L2.45068 20.7754C2.45068 20.7754 2.69657 21.5461 3.27745 22.0618L3.2791 22.0626C3.46887 22.2309 3.69413 22.3712 3.95817 22.4496H3.96147L4.10669 22.4859C4.2057 22.5057 4.31131 22.5164 4.42023 22.5164L4.42188 22.5156L4.46479 22.5164C5.41202 22.5164 5.88563 22.0824 5.88563 21.2136C5.88563 20.7127 5.52011 20.2449 4.78823 19.8109C4.50735 19.6699 4.22487 19.5321 3.94084 19.3975C3.65306 19.2619 3.36619 19.1244 3.08024 18.9849C2.26586 18.5831 1.6924 18.1821 1.35988 17.7811C0.935771 17.272 0.724542 16.6169 0.724542 15.8149C0.724542 14.7546 1.08594 13.8775 1.80874 13.1844C2.54887 12.4913 3.44659 12.1447 4.50192 12.1447V12.1447ZM45.1801 0.28125V24.684H42.3747L42.3755 23.5189C41.373 24.3878 39.9959 25.0347 38.6476 25.0347C36.8274 25.0347 35.3018 24.4076 34.0715 23.1559C32.8421 21.9199 32.2266 20.367 32.2266 18.4957C32.2266 16.7332 32.8537 15.2348 34.1095 13.9988C35.3637 12.7628 36.8934 12.1447 38.6971 12.1447C40.2211 12.1447 41.4406 12.7124 42.3755 13.5903V0.28125H45.1809H45.1801ZM54.239 12.1447C56.0509 12.1447 57.5881 12.7669 58.8514 14.0112C60.0981 15.2554 60.7219 16.7835 60.7219 18.5955C60.7219 20.4248 60.0948 21.957 58.839 23.193C57.5757 24.4208 56.0254 25.0347 54.1887 25.0347C52.3685 25.0347 50.8428 24.4076 49.6134 23.1559C48.3831 21.9199 47.7676 20.367 47.7676 18.4957C47.7676 16.7332 48.3947 15.2348 49.6505 13.9988C50.9047 12.7628 52.4353 12.1447 54.2382 12.1447H54.239ZM65.8681 12.483V19.485C65.8681 21.5065 66.6619 22.5164 68.2494 22.5164C69.8369 22.5164 70.6307 21.5065 70.6307 19.485V12.4822H73.4361V19.5477C73.4361 20.5246 73.3156 21.3687 73.0747 22.0783C72.842 22.7136 72.4394 23.2854 71.8651 23.7945C70.9178 24.6221 69.7124 25.0347 68.2494 25.0347C66.7948 25.0347 65.5942 24.6221 64.647 23.7945C64.0644 23.2854 63.6535 22.7136 63.4126 22.0783C63.1791 21.5106 63.0636 20.6674 63.0636 19.5477V12.4822H65.869L65.8681 12.483ZM17.2714 12.1447C19.0833 12.1447 20.6214 12.7669 21.8838 14.0112C23.1313 15.2554 23.7543 16.7835 23.7543 18.5955C23.7543 20.4248 23.1272 21.957 21.8722 23.193C20.6081 24.4208 19.0578 25.0347 17.2211 25.0347C15.4009 25.0347 13.876 24.4076 12.6458 23.1559C11.4164 21.9199 10.8008 20.367 10.8008 18.4957C10.8008 16.7332 11.4279 15.2348 12.6829 13.9988C13.9379 12.7628 15.4677 12.1447 17.2714 12.1447V12.1447ZM29.3931 0.28125V24.684H26.5878V0.28125H29.3931ZM79.0749 0.28125V12.4822H81.882L81.8836 15.3289H79.0757L79.0749 24.684H76.2695V0.28125H79.0749V0.28125ZM109.003 21.8365V24.6832H84.7171V21.8365H109.003ZM38.6971 14.6877C37.6245 14.6877 36.7565 15.0467 36.0914 15.7645C35.4264 16.4824 35.0939 17.4098 35.0939 18.5452C35.0939 19.7647 35.4181 20.7292 36.0667 21.4397C36.7317 22.1575 37.6088 22.5164 38.6971 22.5164C39.7945 22.5164 40.6716 22.1616 41.3284 21.452C41.9844 20.7424 42.3128 19.7936 42.3128 18.6087C42.3128 17.4222 41.9844 16.4749 41.3284 15.7645C40.6634 15.0467 39.7855 14.6877 38.6971 14.6877ZM54.239 14.6877C53.1663 14.6877 52.2975 15.0467 51.6333 15.7645C50.9682 16.4824 50.6349 17.4098 50.6349 18.5452C50.6349 19.7647 50.96 20.7292 51.6085 21.4397C52.2727 22.1575 53.1498 22.5164 54.239 22.5164C55.3364 22.5164 56.2127 22.1616 56.8695 21.452C57.5254 20.7424 57.8546 19.7936 57.8546 18.6087C57.8546 17.4222 57.5254 16.4749 56.8695 15.7645C56.2044 15.0467 55.3273 14.6877 54.239 14.6877ZM17.2714 14.6877C16.1987 14.6877 15.3307 15.0467 14.6657 15.7645C14.0006 16.4824 13.6681 17.4098 13.6681 18.5452C13.6681 19.7647 13.9924 20.7292 14.6409 21.4397C15.306 22.1575 16.1822 22.5164 17.2714 22.5164C18.3688 22.5164 19.2451 22.1616 19.9019 21.452C20.5586 20.7424 20.887 19.7936 20.887 18.6087C20.887 17.4222 20.5586 16.4749 19.9019 15.7645C19.2368 15.0467 18.3605 14.6877 17.2714 14.6877V14.6877Z" fill="white"/>
</svg>
