<svg width="85" height="39" viewBox="0 0 85 39" fill="none" xmlns="http://www.w3.org/2000/svg">
<path d="M63.5669 21.9634L52.0269 38.4061L64.3093 33.7669L67.7925 28.3931L63.5669 21.9634Z" fill="#3FAE2A"/>
<path d="M72.5874 21.2149V21.1591L70.3736 18.0568L73.1086 20.3648L80.225 9.50562L82.8619 9.83065L83.0177 0.283203L69.7889 8.19389L73.047 8.61703L68.3753 15.2641L62.9899 7.66305L52.0269 2.71238L64.1555 21.2149L68.3753 27.5985L72.4143 33.7532L84.7121 38.3923L72.5874 21.2149Z" fill="#3FAE2A"/>
<path d="M5.73003 19.855C4.67219 19.4319 3.72783 19.0645 3.72783 18.4875C3.72783 17.5855 4.84144 17.5431 5.15303 17.5431C5.60585 17.5204 6.05864 17.5885 6.48475 17.7434C6.91085 17.8983 7.30165 18.1369 7.63413 18.4452L8.00149 18.8125L9.2709 16.443L9.05933 16.2314C7.98744 15.2801 6.58422 14.7889 5.15303 14.8639C2.51612 14.8639 0.667791 16.3449 0.667791 18.4452C0.667791 20.8148 2.78347 21.661 4.40485 22.3515C5.51846 22.7746 6.40705 23.142 6.40705 23.7748C6.40705 24.4075 5.67425 24.7768 4.92607 24.7768C3.82686 24.7559 2.77547 24.3235 1.97951 23.5651L1.61215 23.1977L0.0888672 25.4115L0.300432 25.6231C1.53681 26.7939 3.18112 27.4363 4.88376 27.4137C7.53412 27.4003 9.36899 25.8635 9.36899 23.7055C9.53824 21.3686 7.42257 20.5378 5.73003 19.855Z" fill="white"/>
<path d="M17.3314 17.8433V14.9949H14.0617V11.5117L10.792 12.0888V23.173C10.7907 23.8109 10.8429 24.4478 10.9478 25.0771C11.0332 25.5815 11.2524 26.0538 11.5825 26.4446C11.9127 26.8459 12.3544 27.1404 12.8519 27.2908C13.5033 27.474 14.1774 27.5641 14.8541 27.5582C15.2215 27.5582 15.5869 27.5024 16.0678 27.4601C16.4878 27.4315 16.899 27.3266 17.2814 27.1504L17.3795 27.0947V24.1904L17.1679 24.3462C16.9538 24.4723 16.7206 24.5626 16.4774 24.6135C16.1989 24.6716 15.9156 24.7045 15.6311 24.7116C15.4046 24.746 15.173 24.7198 14.9598 24.6357C14.7467 24.5516 14.5595 24.4126 14.4175 24.2327C14.1854 23.816 14.0779 23.3413 14.1079 22.8652V17.7318H17.3237V17.8453L17.3314 17.8433Z" fill="white"/>
<path d="M40.6943 23.542C40.458 23.8871 40.1313 24.1606 39.7499 24.3325C39.367 24.5008 38.9545 24.5916 38.5363 24.5998C38.0485 24.6025 37.5647 24.5118 37.1111 24.3325C36.6988 24.1601 36.3354 23.8885 36.0533 23.542C35.7493 23.2219 35.5143 22.8429 35.3628 22.4283C35.2138 22.0074 35.1421 21.5631 35.1512 21.1167C35.1444 20.6704 35.216 20.2264 35.3628 19.8049C35.5069 19.3868 35.7429 19.0063 36.0533 18.6913C36.3595 18.3708 36.717 18.1037 37.1111 17.9008C37.5587 17.7016 38.0469 17.61 38.5363 17.6335C38.9281 17.6385 39.3118 17.7452 39.6499 17.9431C40.0463 18.1656 40.4037 18.4515 40.7078 18.7894L40.8058 18.8875L43.0754 16.6179L42.9773 16.5198C42.392 15.8872 41.6678 15.3993 40.8616 15.0947C39.2621 14.516 37.5104 14.516 35.9109 15.0947C35.1253 15.3865 34.406 15.8325 33.7952 16.4064C33.2119 16.9897 32.7302 17.6664 32.3701 18.4086C31.8226 19.6192 31.6657 20.9702 31.9211 22.2741C32.1765 23.578 32.8315 24.77 33.7952 25.6846C34.4014 26.2645 35.122 26.7112 35.9109 26.9963C36.7345 27.3134 37.6095 27.4758 38.492 27.4752C38.8083 27.4585 39.1235 27.4257 39.4364 27.3771C39.8306 27.3132 40.2172 27.2094 40.5904 27.0675C41.0048 26.9177 41.4101 26.7436 41.804 26.5463C42.1959 26.3397 42.5528 26.073 42.8619 25.7557L42.96 25.6577L40.7462 23.2881L40.6943 23.542Z" fill="white"/>
<path d="M30.7757 18.4778C30.439 17.7219 29.9544 17.0411 29.3505 16.4755C28.7444 15.8957 28.0237 15.4489 27.2348 15.1638C26.4113 14.8466 25.5362 14.6843 24.6537 14.6849C23.7704 14.676 22.8938 14.8387 22.0725 15.1638C21.2896 15.461 20.5713 15.9064 19.9569 16.4755C19.378 17.0626 18.8969 17.7386 18.5317 18.4778C17.9842 19.6884 17.8273 21.0394 18.0827 22.3433C18.3381 23.6472 18.9931 24.8392 19.9569 25.7538C20.5631 26.3336 21.2837 26.7804 22.0725 27.0655C22.8961 27.3826 23.7712 27.545 24.6537 27.5444C25.5369 27.5532 26.4135 27.3906 27.2348 27.0655C28.0204 26.7736 28.7397 26.3276 29.3505 25.7538C29.9294 25.1667 30.4105 24.4908 30.7757 23.7516C31.1386 22.9208 31.3164 22.021 31.2969 21.1147C31.2957 20.2102 31.1187 19.3147 30.7757 18.4778V18.4778ZM28.0407 21.1147C28.0475 21.5609 27.9759 22.0049 27.8291 22.4264C27.685 22.8445 27.449 23.225 27.1386 23.54C26.8324 23.8605 26.4749 24.1277 26.0808 24.3305C25.6331 24.5298 25.145 24.6213 24.6556 24.5978C24.1678 24.6005 23.6841 24.5098 23.2304 24.3305C22.8296 24.1386 22.4702 23.87 22.1726 23.54C21.8687 23.2199 21.6337 22.8409 21.4821 22.4264C21.3332 22.0054 21.2615 21.5611 21.2705 21.1147C21.2638 20.6684 21.3354 20.2244 21.4821 19.8029C21.6262 19.3848 21.8621 19.0043 22.1726 18.6893C22.4788 18.3688 22.8363 18.1017 23.2304 17.8989C23.6781 17.6996 24.1662 17.608 24.6556 17.6315C25.1434 17.6289 25.6271 17.7197 26.0808 17.8989C26.4931 18.0713 26.8564 18.3428 27.1386 18.6893C27.4425 19.0094 27.6775 19.3884 27.8291 19.8029C27.9437 20.2319 28.0139 20.6714 28.0388 21.1147H28.0407Z" fill="white"/>
<path d="M50.5461 20.5878L55.8199 15.0101H51.5982L47.1745 19.7627V8.66309L43.9048 9.25547V27.2791H47.1745V21.3706L51.7578 27.2791H56.1296L50.5461 20.5878Z" fill="white"/>
</svg>
