<svg width="7255" height="2048" viewBox="0 0 7255 2048" fill="none" xmlns="http://www.w3.org/2000/svg">
<path fill-rule="evenodd" clip-rule="evenodd" d="M539.962 592.815C539.962 619.325 561.452 640.815 587.962 640.815C561.452 640.815 539.962 662.306 539.962 688.815C539.962 662.306 518.472 640.815 491.962 640.815C518.472 640.815 539.962 619.325 539.962 592.815Z" fill="white"/>
<path fill-rule="evenodd" clip-rule="evenodd" d="M667.962 592.815C667.962 619.325 689.452 640.815 715.962 640.815C689.452 640.815 667.962 662.306 667.962 688.815C667.962 662.306 646.472 640.815 619.962 640.815C646.472 640.815 667.962 619.325 667.962 592.815Z" fill="white"/>
<path d="M539.962 304.814C539.962 278.305 561.452 256.814 587.962 256.814H747.962C774.472 256.814 795.962 278.305 795.962 304.814V592.814C795.962 619.324 774.472 640.814 747.962 640.814H587.962C561.452 640.814 539.962 619.324 539.962 592.814V304.814Z" fill="white"/>
<path d="M283.962 688.815C283.962 662.305 305.452 640.815 331.962 640.815H667.962V720.815C667.962 747.325 646.472 768.815 619.962 768.815H331.962C305.452 768.815 283.962 747.325 283.962 720.815V688.815Z" fill="white"/>
<path fill-rule="evenodd" clip-rule="evenodd" d="M6584.96 432.814C6584.96 459.324 6606.45 480.814 6632.96 480.814C6606.45 480.814 6584.96 502.305 6584.96 528.814C6584.96 502.305 6563.47 480.814 6536.96 480.814C6563.47 480.814 6584.96 459.324 6584.96 432.814Z" fill="white"/>
<path fill-rule="evenodd" clip-rule="evenodd" d="M6782.96 432.814C6782.96 459.324 6804.45 480.814 6830.96 480.814C6804.45 480.814 6782.96 502.305 6782.96 528.814C6782.96 502.305 6761.47 480.814 6734.96 480.814C6761.47 480.814 6782.96 459.324 6782.96 432.814Z" fill="white"/>
<path d="M6491.96 528.815C6491.96 502.305 6513.45 480.815 6539.96 480.815H6827.96C6854.47 480.815 6875.96 502.305 6875.96 528.815V560.815C6875.96 587.325 6854.47 608.815 6827.96 608.815H6539.96C6513.45 608.815 6491.96 587.325 6491.96 560.815V528.815Z" fill="white"/>
<path d="M6584.96 387.814C6584.96 333.138 6629.28 288.814 6683.96 288.814V288.814C6738.64 288.814 6782.96 333.138 6782.96 387.814V496.814C6782.96 523.324 6761.47 544.814 6734.96 544.814H6632.96C6606.45 544.814 6584.96 523.324 6584.96 496.814V387.814Z" fill="white"/>
<rect x="6747.96" y="736.814" width="128" height="128" rx="64" transform="rotate(-180 6747.96 736.814)" fill="white"/>
<path fill-rule="evenodd" clip-rule="evenodd" d="M3675.96 1584.81C3675.96 1558.3 3654.47 1536.81 3627.96 1536.81C3654.47 1536.81 3675.96 1515.32 3675.96 1488.82C3675.96 1515.32 3697.45 1536.81 3723.96 1536.81C3697.45 1536.81 3675.96 1558.3 3675.96 1584.81Z" fill="white"/>
<rect x="3675.96" y="1408.82" width="128" height="128" rx="48" fill="white"/>
<rect x="3419.96" y="1536.81" width="256" height="128" rx="48" fill="white"/>
<path fill-rule="evenodd" clip-rule="evenodd" d="M4763.96 1624.81C4763.96 1598.3 4742.47 1576.81 4715.96 1576.81C4742.47 1576.81 4763.96 1555.32 4763.96 1528.81C4763.96 1555.32 4785.45 1576.81 4811.96 1576.81C4785.45 1576.81 4763.96 1598.3 4763.96 1624.81Z" fill="white"/>
<rect x="4763.96" y="1448.81" width="128" height="128" rx="48" fill="white"/>
<rect x="4507.96" y="1576.81" width="256" height="128" rx="48" fill="white"/>
<path fill-rule="evenodd" clip-rule="evenodd" d="M4507.96 1400.82C4507.96 1427.33 4529.45 1448.82 4555.96 1448.82C4529.45 1448.82 4507.96 1470.31 4507.96 1496.81C4507.96 1470.31 4486.47 1448.82 4459.96 1448.82C4486.47 1448.82 4507.96 1427.33 4507.96 1400.82Z" fill="white"/>
<rect x="4507.96" y="1576.81" width="128" height="128" rx="48" transform="rotate(-180 4507.96 1576.81)" fill="white"/>
<rect x="4763.96" y="1448.82" width="256" height="128" rx="48" transform="rotate(-180 4763.96 1448.82)" fill="white"/>
<path fill-rule="evenodd" clip-rule="evenodd" d="M5787.96 1520.81C5787.96 1494.3 5766.47 1472.81 5739.96 1472.81C5766.47 1472.81 5787.96 1451.32 5787.96 1424.82C5787.96 1451.32 5809.45 1472.81 5835.96 1472.81C5809.45 1472.81 5787.96 1494.3 5787.96 1520.81Z" fill="white"/>
<path fill-rule="evenodd" clip-rule="evenodd" d="M5531.96 1520.81C5531.96 1494.3 5510.47 1472.81 5483.96 1472.81C5510.47 1472.81 5531.96 1451.32 5531.96 1424.82C5531.96 1451.32 5553.45 1472.81 5579.96 1472.81C5553.45 1472.81 5531.96 1494.3 5531.96 1520.81Z" fill="white"/>
<path fill-rule="evenodd" clip-rule="evenodd" d="M5531.96 1648.81C5531.96 1622.3 5510.47 1600.81 5483.96 1600.81C5510.47 1600.81 5531.96 1579.32 5531.96 1552.81C5531.96 1579.32 5553.45 1600.81 5579.96 1600.81C5553.45 1600.81 5531.96 1622.3 5531.96 1648.81Z" fill="white"/>
<path fill-rule="evenodd" clip-rule="evenodd" d="M5787.96 1648.81C5787.96 1622.3 5766.47 1600.81 5739.96 1600.81C5766.47 1600.81 5787.96 1579.32 5787.96 1552.81C5787.96 1579.32 5809.45 1600.81 5835.96 1600.81C5809.45 1600.81 5787.96 1622.3 5787.96 1648.81Z" fill="white"/>
<rect x="5787.96" y="1344.81" width="128" height="128" rx="48" fill="white"/>
<rect x="5787.96" y="1600.81" width="128" height="128" rx="48" fill="white"/>
<rect x="5403.96" y="1600.81" width="128" height="128" rx="48" fill="white"/>
<rect x="5403.96" y="1344.81" width="128" height="128" rx="48" fill="white"/>
<rect x="5531.96" y="1472.81" width="256" height="128" rx="48" fill="white"/>
<path fill-rule="evenodd" clip-rule="evenodd" d="M6523.96 1584.81C6523.96 1558.3 6502.47 1536.81 6475.96 1536.81C6502.47 1536.81 6523.96 1515.32 6523.96 1488.82C6523.96 1515.32 6545.45 1536.81 6571.96 1536.81C6545.45 1536.81 6523.96 1558.3 6523.96 1584.81Z" fill="white"/>
<rect x="6523.96" y="1408.82" width="128" height="128" rx="48" fill="white"/>
<rect x="6395.96" y="1536.81" width="128" height="128" rx="48" fill="white"/>
<path fill-rule="evenodd" clip-rule="evenodd" d="M6747.96 1584.81C6747.96 1558.3 6726.47 1536.81 6699.96 1536.81C6726.47 1536.81 6747.96 1515.32 6747.96 1488.82C6747.96 1515.32 6769.45 1536.81 6795.96 1536.81C6769.45 1536.81 6747.96 1558.3 6747.96 1584.81Z" fill="white"/>
<rect x="6747.96" y="1408.82" width="128" height="128" rx="48" fill="white"/>
<rect x="6619.96" y="1536.81" width="128" height="128" rx="48" fill="white"/>
<path fill-rule="evenodd" clip-rule="evenodd" d="M6843.96 1584.81C6843.96 1558.3 6822.47 1536.81 6795.96 1536.81C6822.47 1536.81 6843.96 1515.32 6843.96 1488.82C6843.96 1515.32 6865.45 1536.81 6891.96 1536.81C6865.45 1536.81 6843.96 1558.3 6843.96 1584.81Z" fill="white"/>
<path fill-rule="evenodd" clip-rule="evenodd" d="M6619.96 1584.81C6619.96 1558.3 6598.47 1536.81 6571.96 1536.81C6598.47 1536.81 6619.96 1515.32 6619.96 1488.82C6619.96 1515.32 6641.45 1536.81 6667.96 1536.81C6641.45 1536.81 6619.96 1558.3 6619.96 1584.81Z" fill="white"/>
<rect x="6843.96" y="1536.81" width="128" height="128" rx="48" fill="white"/>
<path fill-rule="evenodd" clip-rule="evenodd" d="M1546.5 1589.18C1517.58 1589.18 1494.14 1612.62 1494.14 1641.54C1494.14 1612.62 1470.7 1589.18 1441.78 1589.18C1470.7 1589.18 1494.14 1565.73 1494.14 1536.81C1494.14 1565.73 1517.58 1589.18 1546.5 1589.18Z" fill="white"/>
<path fill-rule="evenodd" clip-rule="evenodd" d="M1686.14 1589.18C1657.22 1589.18 1633.78 1612.62 1633.78 1641.54C1633.78 1612.62 1610.33 1589.18 1581.41 1589.18C1610.33 1589.18 1633.78 1565.73 1633.78 1536.81C1633.78 1565.73 1657.22 1589.18 1686.14 1589.18Z" fill="white"/>
<rect x="1354.51" y="1589.18" width="139.636" height="139.636" rx="48" transform="rotate(-90 1354.51 1589.18)" fill="white"/>
<rect x="1633.78" y="1589.18" width="139.636" height="139.636" rx="48" transform="rotate(-90 1633.78 1589.18)" fill="white"/>
<rect x="1494.14" y="1728.81" width="139.636" height="139.636" rx="48" transform="rotate(-90 1494.14 1728.81)" fill="white"/>
<rect x="1494.14" y="1484.45" width="139.636" height="139.636" rx="48" transform="rotate(-90 1494.14 1484.45)" fill="white"/>
<path fill-rule="evenodd" clip-rule="evenodd" d="M1546.5 1484.45C1517.58 1484.45 1494.14 1507.9 1494.14 1536.82C1494.14 1507.9 1470.7 1484.45 1441.78 1484.45C1470.7 1484.45 1494.14 1461.01 1494.14 1432.09C1494.14 1461.01 1517.58 1484.45 1546.5 1484.45Z" fill="white"/>
<path fill-rule="evenodd" clip-rule="evenodd" d="M1686.14 1484.45C1657.22 1484.45 1633.78 1507.9 1633.78 1536.82C1633.78 1507.9 1610.33 1484.45 1581.41 1484.45C1610.33 1484.45 1633.78 1461.01 1633.78 1432.09C1633.78 1461.01 1657.22 1484.45 1686.14 1484.45Z" fill="white"/>
<path fill-rule="evenodd" clip-rule="evenodd" d="M1563.96 528.814C1563.96 555.324 1585.45 576.814 1611.96 576.814C1585.45 576.814 1563.96 598.305 1563.96 624.814C1563.96 598.305 1542.47 576.814 1515.96 576.814C1542.47 576.814 1563.96 555.324 1563.96 528.814Z" fill="white"/>
<path d="M1563.96 368.814C1563.96 342.305 1585.45 320.814 1611.96 320.814H1771.96C1798.47 320.814 1819.96 342.305 1819.96 368.814V576.814H1611.96C1585.45 576.814 1563.96 555.324 1563.96 528.814V368.814Z" fill="white"/>
<path d="M1307.96 624.814C1307.96 598.305 1329.45 576.814 1355.96 576.814H1691.96V656.814C1691.96 683.324 1670.47 704.814 1643.96 704.814H1355.96C1329.45 704.814 1307.96 683.324 1307.96 656.814V624.814Z" fill="white"/>
<path d="M1691.96 576.814H1819.96V656.814C1819.96 683.324 1798.47 704.814 1771.96 704.814H1739.96C1713.45 704.814 1691.96 683.324 1691.96 656.814V576.814Z" fill="white"/>
<path fill-rule="evenodd" clip-rule="evenodd" d="M2587.96 608.814C2587.96 635.324 2609.45 656.814 2635.96 656.814C2609.45 656.814 2587.96 678.305 2587.96 704.814C2587.96 678.305 2566.47 656.814 2539.96 656.814C2566.47 656.814 2587.96 635.324 2587.96 608.814Z" fill="white"/>
<path d="M2587.96 368.814C2587.96 342.305 2609.45 320.814 2635.96 320.814H2795.96C2822.47 320.814 2843.96 342.305 2843.96 368.814V608.814C2843.96 635.324 2822.47 656.814 2795.96 656.814H2635.96C2609.45 656.814 2587.96 635.324 2587.96 608.814V368.814Z" fill="white"/>
<path d="M2331.96 368.814C2331.96 342.305 2353.45 320.814 2379.96 320.814H2539.96C2566.47 320.814 2587.96 342.305 2587.96 368.814V608.814C2587.96 635.324 2566.47 656.814 2539.96 656.814H2379.96C2353.45 656.814 2331.96 635.324 2331.96 608.814V368.814Z" fill="white"/>
<rect x="3739.96" y="704.814" width="256" height="256" rx="48" transform="rotate(-180 3739.96 704.814)" fill="white"/>
<rect x="3867.96" y="448.814" width="256" height="128" rx="48" transform="rotate(-180 3867.96 448.814)" fill="white"/>
<rect x="3611.96" y="448.814" width="256" height="128" rx="48" transform="rotate(-180 3611.96 448.814)" fill="white"/>
<path fill-rule="evenodd" clip-rule="evenodd" d="M3483.96 496.814C3483.96 470.305 3462.47 448.814 3435.96 448.814C3462.47 448.814 3483.96 427.324 3483.96 400.814C3483.96 427.324 3505.45 448.814 3531.96 448.814C3505.45 448.814 3483.96 470.305 3483.96 496.814Z" fill="white"/>
<path fill-rule="evenodd" clip-rule="evenodd" d="M3739.96 496.814C3739.96 470.305 3718.47 448.814 3691.96 448.814C3718.47 448.814 3739.96 427.324 3739.96 400.814C3739.96 427.324 3761.45 448.814 3787.96 448.814C3761.45 448.814 3739.96 470.305 3739.96 496.814Z" fill="white"/>
<path fill-rule="evenodd" clip-rule="evenodd" d="M3611.96 496.814C3611.96 470.305 3590.47 448.814 3563.96 448.814C3590.47 448.814 3611.96 427.324 3611.96 400.814C3611.96 427.324 3633.45 448.814 3659.96 448.814C3633.45 448.814 3611.96 470.305 3611.96 496.814Z" fill="white"/>
<rect x="4827.96" y="704.814" width="384" height="291.238" rx="48" transform="rotate(-180 4827.96 704.814)" fill="white"/>
<rect x="4571.96" y="576.814" width="128" height="256" rx="48" transform="rotate(-180 4571.96 576.814)" fill="white"/>
<rect x="4827.96" y="576.814" width="128" height="256" rx="48" transform="rotate(-180 4827.96 576.814)" fill="white"/>
<path fill-rule="evenodd" clip-rule="evenodd" d="M4571.96 461.576C4571.96 435.066 4550.47 413.576 4523.96 413.576C4550.47 413.576 4571.96 392.086 4571.96 365.576C4571.96 392.086 4593.45 413.576 4619.96 413.576C4593.45 413.576 4571.96 435.066 4571.96 461.576Z" fill="white"/>
<path fill-rule="evenodd" clip-rule="evenodd" d="M4699.96 461.576C4699.96 435.066 4678.47 413.576 4651.96 413.576C4678.47 413.576 4699.96 392.086 4699.96 365.576C4699.96 392.086 4721.45 413.576 4747.96 413.576C4721.45 413.576 4699.96 435.066 4699.96 461.576Z" fill="white"/>
<rect x="2669.96" y="1465.58" width="164" height="100.762" rx="28" transform="rotate(-180 2669.96 1465.58)" stroke="white" stroke-width="40"/>
<path fill-rule="evenodd" clip-rule="evenodd" d="M2689.96 1485.58C2689.96 1459.07 2668.47 1437.58 2641.96 1437.58C2668.47 1437.58 2689.96 1416.09 2689.96 1389.58C2689.96 1416.09 2711.45 1437.58 2737.96 1437.58C2711.45 1437.58 2689.96 1459.07 2689.96 1485.58Z" fill="white"/>
<path fill-rule="evenodd" clip-rule="evenodd" d="M2649.95 1485.58C2649.95 1459.07 2628.46 1437.58 2601.95 1437.58C2628.46 1437.58 2649.95 1416.09 2649.95 1389.58C2649.95 1416.09 2671.44 1437.58 2697.95 1437.58C2671.44 1437.58 2649.95 1459.07 2649.95 1485.58Z" fill="white"/>
<path fill-rule="evenodd" clip-rule="evenodd" d="M2525.97 1485.58C2525.97 1459.07 2504.48 1437.58 2477.97 1437.58C2504.48 1437.58 2525.97 1416.09 2525.97 1389.58C2525.97 1416.09 2547.46 1437.58 2573.97 1437.58C2547.46 1437.58 2525.97 1459.07 2525.97 1485.58Z" fill="white"/>
<path fill-rule="evenodd" clip-rule="evenodd" d="M2485.96 1485.58C2485.96 1459.07 2464.47 1437.58 2437.96 1437.58C2464.47 1437.58 2485.96 1416.09 2485.96 1389.58C2485.96 1416.09 2507.45 1437.58 2533.96 1437.58C2507.45 1437.58 2485.96 1459.07 2485.96 1485.58Z" fill="white"/>
<path d="M2779.96 1632.81C2779.96 1685.83 2736.98 1728.81 2683.96 1728.81L2491.96 1728.81C2438.94 1728.81 2395.96 1685.83 2395.96 1632.81L2395.96 1487.58C2395.96 1459.96 2418.35 1437.58 2445.96 1437.58L2729.96 1437.58C2757.57 1437.58 2779.96 1459.96 2779.96 1487.58L2779.96 1632.81Z" fill="white"/>
<rect x="5851.96" y="704.814" width="256" height="320" rx="48" transform="rotate(-180 5851.96 704.814)" fill="white"/>
<path fill-rule="evenodd" clip-rule="evenodd" d="M5595.96 432.814C5595.96 406.305 5574.47 384.814 5547.96 384.814C5574.47 384.814 5595.96 363.324 5595.96 336.814C5595.96 363.324 5617.45 384.814 5643.96 384.814C5617.45 384.814 5595.96 406.305 5595.96 432.814Z" fill="white"/>
<rect x="5595.96" y="384.814" width="128" height="128" rx="48" transform="rotate(-180 5595.96 384.814)" fill="white"/>
<path fill-rule="evenodd" clip-rule="evenodd" d="M434.849 1391.24L434.849 1398.95C454.556 1406.88 468.468 1426.17 468.468 1448.72C468.468 1419.1 492.474 1395.1 522.087 1395.1C492.474 1395.1 468.468 1371.09 468.468 1341.48C468.468 1364.02 454.556 1383.32 434.849 1391.24Z" fill="white"/>
<path fill-rule="evenodd" clip-rule="evenodd" d="M645.028 1391.24L645.028 1398.95C625.321 1406.88 611.409 1426.17 611.409 1448.72C611.409 1419.1 587.403 1395.1 557.79 1395.1C587.403 1395.1 611.409 1371.09 611.409 1341.48C611.409 1364.02 625.321 1383.32 645.028 1391.24Z" fill="white"/>
<rect x="611.452" y="1425.1" width="142.983" height="142.983" rx="48" transform="rotate(-180 611.452 1425.1)" fill="white"/>
<path fill-rule="evenodd" clip-rule="evenodd" d="M645.028 1682.06L645.028 1674.35C625.321 1666.42 611.409 1647.13 611.409 1624.58C611.409 1654.19 587.403 1678.2 557.79 1678.2C587.403 1678.2 611.409 1702.21 611.409 1731.82C611.409 1709.28 625.321 1689.98 645.028 1682.06Z" fill="white"/>
<path fill-rule="evenodd" clip-rule="evenodd" d="M434.85 1682.06V1674.35C454.556 1666.42 468.469 1647.13 468.469 1624.58C468.469 1654.19 492.474 1678.2 522.087 1678.2C492.474 1678.2 468.469 1702.21 468.469 1731.82C468.469 1709.28 454.556 1689.98 434.85 1682.06Z" fill="white"/>
<rect x="468.426" y="1648.2" width="142.983" height="142.983" rx="48" fill="white"/>
<rect x="687.84" y="1684.69" width="295.759" height="295.759" rx="60" transform="rotate(-180 687.84 1684.69)" fill="white"/>
</svg>
