<?xml version="1.0" encoding="utf-8"?>
<!-- Generator: Adobe Illustrator 26.0.1, SVG Export Plug-In . SVG Version: 6.00 Build 0)  -->
<svg version="1.1" id="Layer_1" xmlns="http://www.w3.org/2000/svg" xmlns:xlink="http://www.w3.org/1999/xlink" x="0px" y="0px"
	 viewBox="0 0 36 36" style="enable-background:new 0 0 36 36;" xml:space="preserve">
<style type="text/css">
	.st0{fill:#FEFCE8;enable-background:new    ;}
</style>
<path id="Icon_open-map" class="st0" d="M6,6v24h24v-7.1c0-0.2,0-0.4,0-0.7V6L6,6L6,6z M9,9h18v12h-4.5c-0.8,0-1.5,0.7-1.5,1.5
	c0,0.8,0.7,1.5,1.5,1.5H27v3H9V9z M16.5,12C14,12,12,14,12,16.5c0,0,0,0,0,0c0,3,4.5,7.5,4.5,7.5s4.5-4.5,4.5-7.5
	C21,14,19,12,16.5,12C16.5,12,16.5,12,16.5,12L16.5,12z M16.5,15c0.8,0,1.5,0.7,1.5,1.5c0,0.8-0.7,1.5-1.5,1.5
	c-0.8,0-1.5-0.7-1.5-1.5C15,15.7,15.6,15,16.5,15C16.5,15,16.5,15,16.5,15L16.5,15z"/>
</svg>
