<svg xmlns="http://www.w3.org/2000/svg" viewBox="0 0 120 120"><defs><style>.cls-1{fill:#00618f;}.cls-2{fill:#fadb5f;}.cls-3{fill:#ec582b;}.cls-4{fill:#fff;}</style></defs><g id="Layer_2" data-name="Layer 2"><g id="Layer_1-2" data-name="Layer 1"><rect class="cls-1" width="120" height="120"/><circle class="cls-2" cx="31.35" cy="82.02" r="7.82"/><circle class="cls-3" cx="88.65" cy="37.98" r="7.82"/><path class="cls-4" d="M55.39,63.79v-.13a1,1,0,0,0-1-1h0a1,1,0,0,0-1,1s0,.08,0,.13a32.63,32.63,0,0,1-9.41,23,1,1,0,0,0,.7,1.64,1,1,0,0,0,.71-.31,32.43,32.43,0,0,0,9-16.37,32.26,32.26,0,0,0,9,16.37,1,1,0,0,0,.7.31,1,1,0,0,0,.71-1.64A32.53,32.53,0,0,1,55.39,63.79Z"/><path class="cls-4" d="M68.81,61.74a1,1,0,0,0-1,1V89.63a1,1,0,0,0,1.94,0V62.71A1,1,0,0,0,68.81,61.74Z"/><path class="cls-4" d="M74.62,83.74A19.55,19.55,0,0,0,81.93,75a19.49,19.49,0,0,0,7.31,8.75.93.93,0,0,0,.5.14,1,1,0,0,0,.51-1.79c-.07,0-6.73-4.25-7.31-11.3h6.25a1,1,0,0,0,0-1.94H74.66a1,1,0,0,0,0,1.94h6.26c-.58,7-7.25,11.25-7.32,11.3a1,1,0,0,0,.51,1.79A1,1,0,0,0,74.62,83.74Z"/><path class="cls-4" d="M85.43,86.13c-7.44,0-11.75,1-11.75,6.29S78,98.71,85.43,98.71s11.74-1,11.74-6.29S92.87,86.13,85.43,86.13Zm0,10.64c-8.34,0-9.81-1.4-9.81-4.35s1.47-4.35,9.81-4.35,9.8,1.4,9.8,4.35S93.77,96.77,85.43,96.77Z"/><path class="cls-4" d="M101,73.12a1,1,0,0,0-1.14-.76,7.27,7.27,0,0,0-3.07,1.53V69a1,1,0,0,0-1.94,0v14.2a1,1,0,0,0,1.94,0V78.08c0-3,3.31-3.78,3.46-3.82A1,1,0,0,0,101,73.12Z"/><path class="cls-4" d="M42.14,28.6a14.72,14.72,0,0,0,8.77,8.9.9.9,0,0,0,.28,0,1,1,0,0,0,.27-1.9c-.08,0-8.35-2.61-8.35-13a1,1,0,0,0-1.94,0c0,10.36-8,12.92-8.35,13a1,1,0,0,0-.65,1.21,1,1,0,0,0,.93.69,1,1,0,0,0,.28,0A14.72,14.72,0,0,0,42.14,28.6Z"/><path class="cls-4" d="M55.43,39.35H36a2.1,2.1,0,0,0-2.1,2.1v8a2.1,2.1,0,0,0,2.1,2.1H55.43a2.1,2.1,0,0,0,2.1-2.1v-8A2.1,2.1,0,0,0,55.43,39.35Zm.16,10.11a.16.16,0,0,1-.16.16H36a.16.16,0,0,1-.16-.16v-8a.16.16,0,0,1,.16-.16H55.43a.16.16,0,0,1,.16.16Z"/><path class="cls-4" d="M59.32,26a7,7,0,0,0-3.07,1.53V22.26a1,1,0,1,0-1.94,0V36.18a1,1,0,1,0,1.94,0V31.71c0-3,3.31-3.78,3.46-3.81a1,1,0,0,0-.39-1.9Z"/><path class="cls-4" d="M28.08,55.68c-7.57,0-9,5-9,13.7s1.48,13.69,9,13.69,9-5,9-13.69S35.64,55.68,28.08,55.68Zm0,25.45c-4.82,0-7.11-1.76-7.11-11.75s2.29-11.76,7.11-11.76,7.1,1.76,7.1,11.76S32.89,81.13,28.08,81.13Z"/><path class="cls-4" d="M46.88,70.75A1,1,0,0,0,45.75,70a7.66,7.66,0,0,0-3.36,1.61V65.44c0-3,3.56-3.78,3.73-3.81a1,1,0,0,0-.37-1.91,7.69,7.69,0,0,0-3.36,1.62V56a1,1,0,0,0-1.94,0V83.3a1,1,0,0,0,1.94,0V75.69c0-3,3.56-3.78,3.73-3.81A1,1,0,0,0,46.88,70.75Z"/><path class="cls-4" d="M63.89,45.83h19a2.68,2.68,0,0,0,2.68-2.68v-7a2.68,2.68,0,0,0-2.68-2.68h-19a2.68,2.68,0,0,0-2.68,2.68v7A2.68,2.68,0,0,0,63.89,45.83Zm-.74-9.69a.74.74,0,0,1,.74-.74h19a.74.74,0,0,1,.74.74v7a.74.74,0,0,1-.74.74h-19a.74.74,0,0,1-.74-.74Z"/><path class="cls-4" d="M84.9,53H61.45a1,1,0,1,0,0,1.94H84c.13,1.6.1,5.26-2.57,7.3a1,1,0,0,0,.6,1.74.91.91,0,0,0,.58-.2c4.43-3.39,3.26-9.73,3.2-10A1,1,0,0,0,84.9,53Z"/><path class="cls-4" d="M85.06,48.51H74.51v-.77a1,1,0,1,0-2,0v.77H61.45a1,1,0,0,0,0,1.94H85.06a1,1,0,0,0,0-1.94Z"/></g></g></svg>