<?xml version="1.0" encoding="utf-8"?>
<!-- Generator: Adobe Illustrator 26.0.1, SVG Export Plug-In . SVG Version: 6.00 Build 0)  -->
<svg version="1.1" id="Layer_1" xmlns="http://www.w3.org/2000/svg" xmlns:xlink="http://www.w3.org/1999/xlink" x="0px" y="0px"
	 viewBox="0 0 103.7 22" style="enable-background:new 0 0 103.7 22;" xml:space="preserve">
<style type="text/css">
	.st0{fill:#FFFFFF;}
	.st1{fill:#FFFFFF;stroke:#000000;stroke-width:2;stroke-linecap:round;stroke-linejoin:round;stroke-miterlimit:10;}
</style>
<g>
	<g>
		<path class="st0" d="M1.2,10C1.1,10,1,10,1,9.9c0-0.1,0-0.2,0.1-0.2C1.2,9.6,7,6.9,7,0.9c0-0.1,0.1-0.2,0.2-0.2s0.2,0.1,0.2,0.2
			C7.4,7.2,1.3,10,1.2,10C1.2,10,1.2,10,1.2,10z"/>
	</g>
</g>
<g>
	<g>
		<path class="st0" d="M14.5,10C14.5,10,14.5,10,14.5,10c-0.1,0-6.2-2.8-6.2-9.1c0-0.1,0.1-0.2,0.2-0.2s0.2,0.1,0.2,0.2
			c0,6,5.8,8.7,5.9,8.7c0.1,0,0.2,0.1,0.1,0.3C14.7,10,14.6,10,14.5,10z"/>
	</g>
</g>
<g>
	<g>
		<path class="st0" d="M1.5,11.2c-0.1,0-0.2,0-0.2-0.1c0-0.1,0-0.2,0.1-0.3c0,0,4.5-1.7,6.2-6.4c0-0.1,0.2-0.2,0.3-0.1
			C8,4.3,8,4.4,8,4.5C6.3,9.4,1.7,11.1,1.5,11.2C1.6,11.2,1.6,11.2,1.5,11.2z"/>
	</g>
</g>
<g>
	<g>
		<path class="st0" d="M14.1,11.2C14.1,11.2,14,11.2,14.1,11.2c-0.1,0-4.7-1.8-6.5-6.7c0-0.1,0-0.2,0.1-0.3c0.1,0,0.2,0,0.3,0.1
			c1.7,4.7,6.1,6.4,6.2,6.4c0.1,0,0.2,0.2,0.1,0.3C14.2,11.1,14.2,11.2,14.1,11.2z"/>
	</g>
</g>
<g>
	<g>
		<path class="st0" d="M63.3,20.2c0,0-0.1,0-0.1,0c-0.1-0.1-0.1-0.2,0-0.3c0-0.1,4.7-5.4,6.3-13.1c0-0.1,0.1-0.2,0.2-0.2
			c0.1,0,0.2,0.1,0.2,0.2c-1.7,7.8-6.4,13.2-6.4,13.3C63.4,20.1,63.4,20.2,63.3,20.2z"/>
	</g>
</g>
<g>
	<g>
		<path class="st0" d="M76.1,20.2c-0.1,0-0.1,0-0.2-0.1c0-0.1-4.7-5.5-6.4-13.3c0-0.1,0-0.2,0.2-0.2c0.1,0,0.2,0,0.2,0.2
			c1.7,7.7,6.3,13,6.3,13.1c0.1,0.1,0.1,0.2,0,0.3C76.2,20.1,76.1,20.2,76.1,20.2z"/>
	</g>
</g>
<g>
	<g>
		<path class="st0" d="M76.9,19.3c-0.1,0-0.1,0-0.1-0.1c-0.1-0.1-6.7-8.2-6.7-17.7c0-0.1,0.1-0.2,0.2-0.2c0.1,0,0.2,0.1,0.2,0.2
			c0,9.1,6.5,17.3,6.6,17.4c0.1,0.1,0.1,0.2,0,0.3C77,19.3,77,19.3,76.9,19.3z"/>
	</g>
</g>
<g>
	<g>
		<path class="st0" d="M62.4,19.3c0,0-0.1,0-0.1-0.1c-0.1-0.1-0.1-0.2,0-0.3c0.1-0.1,6.6-8.2,6.6-17.4c0-0.1,0.1-0.2,0.2-0.2
			c0.1,0,0.2,0.1,0.2,0.2c0,9.4-6.6,17.6-6.7,17.7C62.6,19.3,62.5,19.3,62.4,19.3z"/>
	</g>
</g>
<g>
	<g>
		<path class="st0" d="M17.2,13.4c0.6,0,1.1,0.5,1.1,1.1v5.8c0,0.6-0.5,1.1-1.1,1.1h-14c-0.6,0-1.1-0.5-1.1-1.1v-5.8
			c0-0.6,0.5-1.1,1.1-1.1H17.2 M17.2,13h-14c-0.8,0-1.5,0.7-1.5,1.5v5.8c0,0.8,0.7,1.5,1.5,1.5h14c0.8,0,1.5-0.7,1.5-1.5v-5.8
			C18.7,13.7,18,13,17.2,13L17.2,13z"/>
	</g>
</g>
<g>
	<g>
		<path class="st0" d="M16.5,14.6c0.3,0,0.6,0.3,0.6,0.6v4.4c0,0.3-0.3,0.6-0.6,0.6H3.9c-0.3,0-0.6-0.3-0.6-0.6v-4.4
			c0-0.3,0.3-0.6,0.6-0.6H16.5 M16.5,14.2H3.9c-0.6,0-1,0.5-1,1v4.4c0,0.6,0.5,1,1,1h12.6c0.6,0,1-0.5,1-1v-4.4
			C17.5,14.6,17,14.2,16.5,14.2L16.5,14.2z"/>
	</g>
</g>
<g>
	<g>
		<path class="st0" d="M79.3,21.1c-0.1,0-0.2-0.1-0.2-0.2v-20c0-0.1,0.1-0.2,0.2-0.2c0.1,0,0.2,0.1,0.2,0.2v20
			C79.5,21,79.4,21.1,79.3,21.1z"/>
	</g>
</g>
<g>
	<g>
		<path class="st0" d="M80.7,21.1c-0.1,0-0.2-0.1-0.2-0.2v-20c0-0.1,0.1-0.2,0.2-0.2s0.2,0.1,0.2,0.2v20
			C80.9,21,80.8,21.1,80.7,21.1z"/>
	</g>
</g>
<g>
	<g>
		<path class="st0" d="M38.2,0.4c0.8,0,1.5,0.7,1.5,1.5V7c0,0.8-0.7,1.5-1.5,1.5H24.9c-0.8,0-1.5-0.7-1.5-1.5V1.9
			c0-0.8,0.7-1.5,1.5-1.5H38.2 M38.2,0H24.9c-1.1,0-1.9,0.9-1.9,1.9V7c0,1.1,0.9,1.9,1.9,1.9h13.3c1.1,0,1.9-0.9,1.9-1.9V1.9
			C40.1,0.9,39.2,0,38.2,0L38.2,0z"/>
	</g>
</g>
<g>
	<g>
		<path class="st0" d="M37.8,1.6c0.4,0,0.7,0.3,0.7,0.7v4.3c0,0.4-0.3,0.7-0.7,0.7H25.3c-0.4,0-0.7-0.3-0.7-0.7V2.3
			c0-0.4,0.3-0.7,0.7-0.7H37.8 M37.8,1.2H25.3c-0.6,0-1.1,0.5-1.1,1.1v4.3c0,0.6,0.5,1.1,1.1,1.1h12.5c0.6,0,1.1-0.5,1.1-1.1V2.3
			C38.9,1.7,38.4,1.2,37.8,1.2L37.8,1.2z"/>
	</g>
</g>
<g>
	<g>
		<path class="st1" d="M43.5,4.5"/>
	</g>
</g>
<g>
	<g>
		<path class="st0" d="M38.4,21.7c-0.1,0-0.1,0-0.2-0.1c-0.1-0.1-0.1-0.2,0-0.3c2.5-1.9,1.8-6.6,1.6-7.6H22.7
			c-0.1,0-0.2-0.1-0.2-0.2s0.1-0.2,0.2-0.2H40c0.1,0,0.2,0.1,0.2,0.2c0,0.1,0.3,1.5,0.3,3.2c-0.1,2.3-0.8,4-2,4.9
			C38.5,21.7,38.4,21.7,38.4,21.7z"/>
	</g>
</g>
<g>
	<g>
		<path class="st0" d="M37.6,20.7c-0.1,0-0.1,0-0.2-0.1c-0.1-0.1-0.1-0.2,0-0.3c1.5-1.2,1.4-4.1,1.3-5.4H22.7
			c-0.1,0-0.2-0.1-0.2-0.2c0-0.1,0.1-0.2,0.2-0.2H39c0.1,0,0.2,0.1,0.2,0.2c0.2,1.7,0.3,4.7-1.4,6C37.7,20.7,37.7,20.7,37.6,20.7z"
			/>
	</g>
</g>
<g id="Path_98_00000162335688602719650790000015210038471525235090_">
	<g>
		<path class="st0" d="M49.2,19.9c-4.6,0-6.1-2.4-6.1-9.6s1.6-9.6,6.1-9.6s6.1,2.4,6.1,9.6S53.8,19.9,49.2,19.9z M49.2,1.1
			c-4.4,0-5.7,2.2-5.7,9.2s1.4,9.2,5.7,9.2s5.7-2.2,5.7-9.2S53.6,1.1,49.2,1.1z"/>
	</g>
</g>
<g>
	<g>
		<path class="st0" d="M49.2,18.7c-3.3,0-4.9-1.2-4.9-8.3c0-7.1,1.6-8.3,4.9-8.3c3.3,0,4.9,1.2,4.9,8.3
			C54.1,17.4,52.6,18.7,49.2,18.7z M49.2,2.4c-3.2,0-4.5,1.1-4.5,7.9c0,6.8,1.3,7.9,4.5,7.9s4.5-1.1,4.5-7.9
			C53.7,3.5,52.4,2.4,49.2,2.4z"/>
	</g>
</g>
<g id="Path_98_00000077302450036084583370000000919637798488188824_">
	<g>
		<path class="st0" d="M92,21.5c-6.5,0-8.7-1.1-8.7-4.4c0-3.3,2.2-4.4,8.7-4.4c6.5,0,8.7,1.1,8.7,4.4C100.8,20.4,98.6,21.5,92,21.5z
			 M92,13.1c-6.3,0-8.3,1-8.3,4c0,3,2,4,8.3,4c6.3,0,8.3-1,8.3-4C100.4,14.1,98.3,13.1,92,13.1z"/>
	</g>
</g>
<g>
	<g>
		<path class="st0" d="M92,20.3c-6.4,0-7.5-1-7.5-3.2c0-2.2,1.1-3.2,7.5-3.2c6.4,0,7.5,1,7.5,3.2C99.6,19.3,98.4,20.3,92,20.3z
			 M92,14.3c-7.1,0-7.1,1.4-7.1,2.8c0,1.4,0,2.8,7.1,2.8c7.1,0,7.1-1.4,7.1-2.8C99.2,15.7,99.2,14.3,92,14.3z"/>
	</g>
</g>
<g>
	<g>
		<path class="st0" d="M18.3,4.9c0,0-0.1,0-0.1-0.1c-0.1-0.1-0.1-0.2,0-0.3c0.9-1,2.3-1.7,3-1.8c0.1,0,0.2,0,0.2,0.2
			c0,0.1,0,0.2-0.2,0.2c-0.7,0.1-2,0.8-2.8,1.7C18.4,4.9,18.3,4.9,18.3,4.9z"/>
	</g>
</g>
<g>
	<g>
		<path class="st0" d="M18.3,11.3c-0.1,0-0.2-0.1-0.2-0.2V7.6c0-2.9,3.1-3.6,3.1-3.6c0.1,0,0.2,0,0.2,0.2c0,0.1,0,0.2-0.2,0.2
			c0,0-0.7,0.2-1.4,0.6c-0.9,0.6-1.4,1.5-1.4,2.6v3.5C18.5,11.2,18.4,11.3,18.3,11.3z"/>
	</g>
</g>
<g>
	<g>
		<path class="st0" d="M59.1,11.1C59.1,11.1,59.1,11.1,59.1,11.1c-0.1,0-0.2-0.1-0.2-0.2c0,0,0-0.6,0-3.4C58.9,4.6,62,4,62,3.9
			c0.1,0,0.2,0,0.2,0.2c0,0.1,0,0.2-0.2,0.2c0,0-0.7,0.2-1.4,0.6c-0.9,0.6-1.4,1.5-1.4,2.6c0,1.6,0,2.4,0,2.9c0.9-0.8,2-1.4,2.7-1.5
			c0.1,0,0.2,0,0.2,0.2c0,0.1,0,0.2-0.2,0.2c-0.7,0.1-2,0.8-2.8,1.7C59.2,11.1,59.2,11.1,59.1,11.1z"/>
	</g>
</g>
<g>
	<g>
		<path class="st0" d="M59.1,20.5c-0.1,0-0.2-0.1-0.2-0.2v-6.5c0-2.9,3.1-3.6,3.1-3.6c0.1,0,0.2,0,0.2,0.2c0,0.1,0,0.2-0.2,0.2
			c0,0-0.7,0.2-1.4,0.6c-0.9,0.6-1.4,1.5-1.4,2.6v6.5C59.3,20.4,59.2,20.5,59.1,20.5z"/>
	</g>
</g>
<g>
	<g>
		<path class="st0" d="M39.9,12.1h-17c-0.1,0-0.2-0.1-0.2-0.2c0-0.1,0.1-0.2,0.2-0.2h17c0.1,0,0.2,0.1,0.2,0.2
			C40.1,12.1,40,12.1,39.9,12.1z"/>
	</g>
</g>
<g>
	<g>
		<path class="st0" d="M17.1,11.3c-0.1,0-0.2-0.1-0.2-0.2V0.7c0-0.1,0.1-0.2,0.2-0.2c0.1,0,0.2,0.1,0.2,0.2v10.4
			C17.3,11.2,17.2,11.3,17.1,11.3z"/>
	</g>
</g>
<g>
	<g>
		<path class="st0" d="M18.3,4.9c-0.1,0-0.2-0.1-0.2-0.2V0.7c0-0.1,0.1-0.2,0.2-0.2c0.1,0,0.2,0.1,0.2,0.2v4.1
			C18.5,4.9,18.4,4.9,18.3,4.9z"/>
	</g>
</g>
<g>
	<g>
		<path class="st0" d="M99.6,4.9c0,0-0.1,0-0.1-0.1c-0.1-0.1-0.1-0.2,0-0.3c0.9-1,2.3-1.7,3-1.8c0.1,0,0.2,0,0.2,0.2
			c0,0.1,0,0.2-0.2,0.2c-0.7,0.1-2,0.8-2.8,1.7C99.7,4.9,99.6,4.9,99.6,4.9z"/>
	</g>
</g>
<g>
	<g>
		<path class="st0" d="M99.6,11.3c-0.1,0-0.2-0.1-0.2-0.2V7.6c0-2.9,3.1-3.6,3.1-3.6c0.1,0,0.2,0,0.2,0.2c0,0.1,0,0.2-0.2,0.2
			c0,0-0.7,0.2-1.4,0.6c-0.9,0.6-1.4,1.5-1.4,2.6v3.5C99.8,11.2,99.7,11.3,99.6,11.3z"/>
	</g>
</g>
<g>
	<g>
		<path class="st0" d="M98.4,11.3c-0.1,0-0.2-0.1-0.2-0.2V0.7c0-0.1,0.1-0.2,0.2-0.2c0.1,0,0.2,0.1,0.2,0.2v10.4
			C98.6,11.2,98.5,11.3,98.4,11.3z"/>
	</g>
</g>
<g>
	<g>
		<path class="st0" d="M99.6,4.9c-0.1,0-0.2-0.1-0.2-0.2V0.7c0-0.1,0.1-0.2,0.2-0.2s0.2,0.1,0.2,0.2v4.1C99.8,4.9,99.7,4.9,99.6,4.9
			z"/>
	</g>
</g>
<g>
	<g>
		<path class="st0" d="M59.1,4.9C59.1,4.9,59,4.9,59.1,4.9c-0.1,0-0.2-0.1-0.2-0.2V0.7c0-0.1,0.1-0.2,0.2-0.2c0.1,0,0.2,0.1,0.2,0.2
			v3.6c0.9-0.8,2-1.4,2.7-1.5c0.1,0,0.2,0,0.2,0.2c0,0.1,0,0.2-0.2,0.2c-0.7,0.1-2,0.8-2.8,1.7C59.2,4.9,59.1,4.9,59.1,4.9z"/>
	</g>
</g>
<g>
	<g>
		<path class="st0" d="M57.9,20.5c-0.1,0-0.2-0.1-0.2-0.2V0.7c0-0.1,0.1-0.2,0.2-0.2s0.2,0.1,0.2,0.2v19.7
			C58.1,20.4,58,20.5,57.9,20.5z"/>
	</g>
</g>
<g>
	<g>
		<path class="st0" d="M31,10.9h-8.1c-0.1,0-0.2-0.1-0.2-0.2s0.1-0.2,0.2-0.2h7.9V9.5c0-0.1,0.1-0.2,0.2-0.2c0.1,0,0.2,0.1,0.2,0.2
			v1.3C31.2,10.9,31.1,10.9,31,10.9z"/>
	</g>
</g>
<g>
	<g>
		<path class="st0" d="M39.9,10.9h-7.7c-0.1,0-0.2-0.1-0.2-0.2V9.5c0-0.1,0.1-0.2,0.2-0.2c0.1,0,0.2,0.1,0.2,0.2v1.1h7.5
			c0.1,0,0.2,0.1,0.2,0.2S40,10.9,39.9,10.9z"/>
	</g>
</g>
<g>
	<g>
		<path class="st1" d="M90.4,2.6"/>
	</g>
</g>
<g>
	<g>
		<path class="st0" d="M84,11.2c-0.1,0-0.2,0-0.2-0.1c0-0.1,0-0.2,0.1-0.3c0,0,4.2-1.9,5.7-5.6c0-0.1,0.2-0.2,0.3-0.1
			c0.1,0,0.2,0.2,0.1,0.3C88.5,9.3,84.3,11.1,84,11.2C84.1,11.2,84.1,11.2,84,11.2z"/>
	</g>
</g>
<g>
	<g>
		<path class="st0" d="M83.5,10.1c-0.1,0-0.2-0.1-0.2-0.1c0-0.1,0-0.2,0.1-0.3c0.1,0,5.4-2.6,5.5-6.9h-4.9c-0.1,0-0.2-0.1-0.2-0.2
			c0-0.1,0.1-0.2,0.2-0.2h5.1c0.1,0,0.2,0.1,0.2,0.2C89.4,7.3,83.7,10.1,83.5,10.1C83.6,10.1,83.6,10.1,83.5,10.1z"/>
	</g>
</g>
<g>
	<g>
		<path class="st0" d="M95.7,11.2C95.7,11.2,95.6,11.2,95.7,11.2c-0.3-0.1-4.4-1.9-6-5.8c0-0.1,0-0.2,0.1-0.3c0.1,0,0.2,0,0.3,0.1
			c1.5,3.7,5.7,5.6,5.7,5.6c0.1,0,0.1,0.2,0.1,0.3C95.8,11.2,95.8,11.2,95.7,11.2z"/>
	</g>
</g>
<g>
	<g>
		<path class="st0" d="M96.2,10.1C96.1,10.1,96.1,10.1,96.2,10.1c-0.1,0-5.9-2.8-5.9-7.5c0-0.1,0.1-0.2,0.2-0.2h5.8
			c0.1,0,0.2,0.1,0.2,0.2c0,0.1-0.1,0.2-0.2,0.2h-5.6c0.2,4.3,5.5,6.9,5.5,6.9c0.1,0,0.2,0.2,0.1,0.3C96.3,10.1,96.2,10.1,96.2,10.1
			z"/>
	</g>
</g>
</svg>
