<?xml version="1.0" encoding="utf-8"?>
<!-- Generator: Adobe Illustrator 26.0.2, SVG Export Plug-In . SVG Version: 6.00 Build 0)  -->
<svg version="1.1" id="Layer_1" xmlns="http://www.w3.org/2000/svg" xmlns:xlink="http://www.w3.org/1999/xlink" x="0px" y="0px"
	 viewBox="0 0 103.7 28.9" style="enable-background:new 0 0 103.7 28.9;" xml:space="preserve">
<style type="text/css">
	.st0{fill:#FFFFFF;}
</style>
<g>
	<path class="st0" d="M0.8,18.4c-0.3,0-0.7-0.2-0.8-0.7s0.1-0.9,0.6-1c0.2-0.1,5.9-1.6,5.9-8.8c0-0.5,0.3-0.8,0.8-0.8
		c0.5,0,0.8,0.3,0.8,0.8c0,8.5-7.1,10.4-7.3,10.4C1.1,18.4,1,18.4,0.8,18.4z"/>
	<path class="st0" d="M14.1,18.4c-0.1,0-0.1,0-0.2,0c-0.1,0-7.3-2-7.3-10.4c0-0.5,0.3-0.8,0.8-0.8c0.5,0,0.8,0.3,0.8,0.8
		c0,7.1,5.9,8.8,5.9,8.8c0.5,0.1,0.7,0.6,0.6,1C14.8,18.1,14.4,18.4,14.1,18.4z"/>
	<path class="st0" d="M62.7,27.2c-0.2,0-0.5-0.1-0.6-0.2c-0.3-0.3-0.3-0.9,0-1.3c0.1-0.1,6.8-7,6.8-17.3c0-0.5,0.3-0.8,0.8-0.8
		c0.5,0,0.8,0.3,0.8,0.8c0,10.9-7,18.2-7.3,18.4C63,27.1,62.8,27.2,62.7,27.2z"/>
	<path class="st0" d="M76.7,27.2c-0.2,0-0.5-0.1-0.6-0.2c-0.3-0.3-7.3-7.6-7.3-18.4c0-0.5,0.3-0.8,0.8-0.8s0.8,0.3,0.8,0.8
		c0,10.1,6.7,17.2,6.8,17.3c0.3,0.3,0.3,0.9,0,1.3C77.1,27.1,77,27.2,76.7,27.2z"/>
	<path class="st0" d="M84.8,18.4c-0.3,0-0.6-0.1-0.7-0.5c-0.2-0.5-0.1-0.9,0.3-1.2c0.1,0,5.3-3.2,5.3-8.4c0-0.5,0.3-0.8,0.8-0.8
		c0.5,0,0.8,0.3,0.8,0.8c0,6.2-5.9,9.8-6.1,9.9C85.2,18.4,85,18.4,84.8,18.4z"/>
	<path class="st0" d="M96.2,18.4c-0.1,0-0.3,0-0.5-0.1c-0.2-0.1-6.1-3.7-6.1-9.9c0-0.5,0.3-0.8,0.8-0.8s0.8,0.3,0.8,0.8
		c0,5.3,5.2,8.4,5.3,8.4c0.5,0.2,0.6,0.8,0.3,1.2C96.8,18.3,96.6,18.4,96.2,18.4z"/>
	<path class="st0" d="M16.8,21.2c0.1,0,0.1,0.1,0.1,0.1v4.8c0,0.1-0.1,0.1-0.1,0.1H3.4c-0.1,0-0.1-0.1-0.1-0.1v-4.8
		c0-0.1,0.1-0.1,0.1-0.1L16.8,21.2 M16.8,19.5H3.4c-1,0-1.8,0.8-1.8,1.8v4.8c0,1,0.8,1.8,1.8,1.8h13.5c1,0,1.8-0.8,1.8-1.8v-4.8
		C18.7,20.3,17.8,19.5,16.8,19.5L16.8,19.5z"/>
	<path class="st0" d="M38,8.5c0.3,0,0.7,0.3,0.7,0.7v3.9c0,0.3-0.3,0.7-0.7,0.7H25.1c-0.3,0-0.7-0.3-0.7-0.7V9.2
		c0-0.3,0.3-0.7,0.7-0.7L38,8.5 M38,6.8H25.1c-1.3,0-2.4,1-2.4,2.4v3.9c0,1.3,1,2.4,2.4,2.4H38c1.3,0,2.4-1,2.4-2.4V9.2
		C40.5,8,39.4,6.8,38,6.8L38,6.8z"/>
	<path class="st0" d="M43.7,11.2"/>
	<path class="st0" d="M37.7,28.5c-0.2,0-0.6-0.1-0.7-0.3c-0.2-0.3-0.2-0.9,0.2-1.2c1.7-1.3,1.8-3.7,1.8-4.8H23.2
		c-0.5,0-0.8-0.3-0.8-0.8c0-0.5,0.3-0.8,0.8-0.8h16.6c0.5,0,0.8,0.2,0.8,0.7c0,0.2,0.9,4.7-2.4,7.3C38,28.4,37.8,28.5,37.7,28.5z"/>
	<path class="st0" d="M49.3,26.7c-5.6,0-6.7-3.8-6.7-9.8s1.2-9.8,6.7-9.8S56,11,56,16.9S55,26.7,49.3,26.7z M49.3,8.9
		c-3.3,0-5.1,1.2-5.1,8.1s1.6,8.1,5.1,8.1c3.3,0,5.1-1.2,5.1-8.1S52.7,8.9,49.3,8.9z"/>
	<path class="st0" d="M93.1,28.9c-5.5,0-8.6-0.8-8.6-4.6s3.2-4.6,8.6-4.6c5.5,0,8.6,0.8,8.6,4.6S98.6,28.9,93.1,28.9z M93.1,21.4
		c-6.5,0-7,1.2-7,2.9s0.5,2.9,7,2.9c6.5,0,7-1.2,7-2.9C100,22.6,99.6,21.4,93.1,21.4z"/>
	<path class="st0" d="M95.9,9.2H85.3c-0.5,0-0.8-0.3-0.8-0.8c0-0.5,0.3-0.8,0.8-0.8h10.6c0.5,0,0.8,0.3,0.8,0.8
		C96.7,8.9,96.3,9.2,95.9,9.2z"/>
	<path class="st0" d="M40.1,19H23c-0.5,0-0.8-0.3-0.8-0.8c0-0.5,0.3-0.8,0.8-0.8h17.2c0.5,0,0.8,0.3,0.8,0.8
		C40.9,18.6,40.6,19,40.1,19z"/>
	<path class="st0" d="M80.4,28.1c-0.5,0-0.8-0.3-0.8-0.8V8.2l-9.7-6.5L59.9,8v18.7c0,0.5-0.3,0.8-0.8,0.8c-0.5,0-0.8-0.3-0.8-0.8
		V7.5c0-0.3,0.1-0.6,0.5-0.7L69.6,0c0.2-0.2,0.7-0.1,0.9,0L81,7c0.2,0.1,0.3,0.5,0.3,0.7v19.5C81.2,27.7,80.9,28.1,80.4,28.1z"/>
	<path class="st0" d="M31.7,19c-0.5,0-0.8-0.3-0.8-0.8v-1.3c0-0.5,0.3-0.8,0.8-0.8s0.8,0.3,0.8,0.8v1.3C32.5,18.6,32.2,19,31.7,19z"
		/>
	<path class="st0" d="M100,18.8c-0.5,0-0.8-0.3-0.8-0.8V7.7c0-0.5,0.3-0.8,0.8-0.8c0.5,0,0.8,0.3,0.8,0.8V18
		C100.9,18.4,100.6,18.8,100,18.8z"/>
	<circle class="st0" cx="102.5" cy="12.8" r="1.2"/>
	<path class="st0" d="M17.3,18.8c-0.5,0-0.8-0.3-0.8-0.8V8c0-0.5,0.3-0.8,0.8-0.8s0.8,0.3,0.8,0.8v10C18.1,18.4,17.8,18.8,17.3,18.8
		z"/>
	<circle class="st0" cx="19.8" cy="12.8" r="1.2"/>
	<circle class="st0" cx="61.9" cy="10.6" r="1.2"/>
	<circle class="st0" cx="61.9" cy="14.8" r="1.2"/>
</g>
</svg>
