<?xml version="1.0" encoding="utf-8"?>
<!-- Generator: Adobe Illustrator 26.0.1, SVG Export Plug-In . SVG Version: 6.00 Build 0)  -->
<svg version="1.1" id="Layer_1" xmlns="http://www.w3.org/2000/svg" xmlns:xlink="http://www.w3.org/1999/xlink" x="0px" y="0px"
	 viewBox="0 0 90 22" style="enable-background:new 0 0 90 22;" xml:space="preserve">
<style type="text/css">
	.st0{fill:#00618F;}
</style>
<g>
	<g>
		<path class="st0" d="M0.8,11.3c-0.3,0-0.5-0.2-0.6-0.4c-0.1-0.3,0.1-0.7,0.4-0.8C0.8,10.1,5.8,8.4,5.8,2c0-0.3,0.3-0.6,0.6-0.6
			S7,1.6,7,2c0,3.9-1.6,6.2-3,7.5c-1.5,1.4-3,1.8-3.1,1.9C0.9,11.3,0.8,11.3,0.8,11.3z"/>
	</g>
	<g>
		<path class="st0" d="M12.1,11.3c-0.1,0-0.1,0-0.2,0c-0.1,0-6.1-1.9-6.1-9.3c0-0.3,0.3-0.6,0.6-0.6S7,1.6,7,2c0,6.5,5,8.1,5.2,8.2
			c0.3,0.1,0.5,0.4,0.4,0.8C12.6,11.1,12.3,11.3,12.1,11.3z"/>
	</g>
	<g>
		<path class="st0" d="M54.1,19.1c-0.1,0-0.3-0.1-0.4-0.2c-0.2-0.2-0.3-0.6,0-0.9c0.1-0.1,5.9-6.4,5.9-15.5c0-0.3,0.3-0.6,0.6-0.6
			s0.6,0.3,0.6,0.6c0,9.7-6,16.1-6.2,16.4C54.5,19,54.3,19.1,54.1,19.1z"/>
	</g>
	<g>
		<path class="st0" d="M66.2,19.1c-0.2,0-0.3-0.1-0.4-0.2c-0.3-0.3-6.2-6.7-6.2-16.4c0-0.3,0.3-0.6,0.6-0.6s0.6,0.3,0.6,0.6
			c0,9.2,5.8,15.5,5.9,15.5c0.2,0.2,0.2,0.6,0,0.9C66.5,19,66.4,19.1,66.2,19.1z"/>
	</g>
	<g>
		<path class="st0" d="M73,11.4c-0.2,0-0.4-0.1-0.5-0.3c-0.2-0.3-0.1-0.7,0.2-0.8c0.1,0,4.6-2.9,4.6-7.7c0-0.3,0.3-0.6,0.6-0.6
			c0.3,0,0.6,0.3,0.6,0.6c0,5.5-5,8.6-5.2,8.7C73.3,11.3,73.2,11.4,73,11.4z"/>
	</g>
	<g>
		<path class="st0" d="M82.8,11.4c-0.1,0-0.2,0-0.3-0.1c-0.2-0.1-5.2-3.2-5.2-8.7c0-0.3,0.3-0.6,0.6-0.6c0.3,0,0.6,0.3,0.6,0.6
			c0,4.8,4.6,7.6,4.6,7.7c0.3,0.2,0.4,0.5,0.2,0.8C83.2,11.3,83,11.4,82.8,11.4z"/>
	</g>
	<g>
		<path class="st0" d="M14.7,13.7c0.1,0,0.1,0,0.1,0.1v5c0,0.1,0,0.1-0.1,0.1H2.6c-0.1,0-0.1,0-0.1-0.1v-5c0-0.1,0-0.1,0.1-0.1H14.7
			 M14.7,12.4H2.6c-0.7,0-1.3,0.6-1.3,1.3v5c0,0.7,0.6,1.3,1.3,1.3h12.2c0.7,0,1.3-0.6,1.3-1.3v-5C16.1,13,15.5,12.4,14.7,12.4
			L14.7,12.4z"/>
	</g>
	<g>
		<path class="st0" d="M69.2,19.9c-0.3,0-0.6-0.3-0.6-0.6V2c0-0.3,0.3-0.6,0.6-0.6c0.3,0,0.6,0.3,0.6,0.6v17.4
			C69.8,19.7,69.5,19.9,69.2,19.9z"/>
	</g>
	<g>
		<path class="st0" d="M86.6,10.2c-0.3,0-0.6-0.3-0.6-0.6V2.1c0-0.3,0.3-0.6,0.6-0.6c0.3,0,0.6,0.3,0.6,0.6v7.5
			C87.2,9.9,86.9,10.2,86.6,10.2z"/>
	</g>
	<g>
		<path class="st0" d="M33.1,2.4c0.3,0,0.5,0.2,0.5,0.5v4.4c0,0.3-0.2,0.5-0.5,0.5H21.3c-0.3,0-0.5-0.2-0.5-0.5V2.8
			c0-0.3,0.2-0.5,0.5-0.5H33.1 M33.1,1.2H21.3c-0.9,0-1.7,0.8-1.7,1.7v4.4c0,0.9,0.8,1.7,1.7,1.7h11.9c0.9,0,1.7-0.8,1.7-1.7V2.8
			C34.8,1.9,34.1,1.2,33.1,1.2L33.1,1.2z"/>
	</g>
	<g>
		<path class="st0" d="M37.6,5"/>
	</g>
	<g>
		<path class="st0" d="M32.6,20.2c-0.2,0-0.4-0.1-0.5-0.2c-0.2-0.3-0.2-0.6,0.1-0.9c1.7-1.3,1.7-3.6,1.6-4.6H19.7
			c-0.3,0-0.6-0.3-0.6-0.6s0.3-0.6,0.6-0.6h14.7c0.3,0,0.5,0.2,0.6,0.5c0,0.2,0.8,4.1-2,6.3C32.9,20.2,32.8,20.2,32.6,20.2z"/>
	</g>
	<g id="Path_98_00000021080049157894496460000001300952445558054798_">
		<path class="st0" d="M42.5,18.7c-4.7,0-5.7-3.1-5.7-8.6c0-5.4,0.9-8.6,5.7-8.6s5.7,3.1,5.7,8.6C48.1,15.6,47.2,18.7,42.5,18.7z
			 M42.5,2.8c-3,0-4.4,1.1-4.4,7.4c0,6.3,1.4,7.4,4.4,7.4s4.4-1.1,4.4-7.4C46.9,3.9,45.5,2.8,42.5,2.8z"/>
	</g>
	<g id="Path_98_00000030474662677375515910000005794652401887021218_">
		<path class="st0" d="M80.1,20.6c-4.7,0-7.4-0.6-7.4-3.9s2.7-3.9,7.4-3.9s7.4,0.6,7.4,3.9S84.8,20.6,80.1,20.6z M80.1,14
			c-5.2,0-6.1,0.9-6.1,2.7c0,2.3,2,2.7,6.1,2.7c5.2,0,6.1-0.9,6.1-2.7C86.3,14.4,84.3,14,80.1,14z"/>
	</g>
	<g>
		<path class="st0" d="M86.6,11.6c-0.3,0-0.6-0.3-0.6-0.6V7.7c0-2.3,2.1-3.4,3.1-3.6c0.3-0.1,0.6,0.1,0.7,0.5
			c0.1,0.3-0.1,0.6-0.5,0.7c-0.1,0-2.2,0.5-2.2,2.4V11C87.2,11.3,86.9,11.6,86.6,11.6z"/>
	</g>
	<g>
		<path class="st0" d="M50.8,11.5c-0.3,0-0.6-0.3-0.6-0.6V7.7c0-2.3,2.2-3.4,3.3-3.6c0.3-0.1,0.6,0.2,0.7,0.5
			c0.1,0.3-0.2,0.6-0.5,0.7c-0.1,0-2.3,0.5-2.3,2.4v3.2C51.4,11.2,51.2,11.5,50.8,11.5z"/>
	</g>
	<g>
		<path class="st0" d="M14.6,11c-0.3,0-0.6-0.3-0.6-0.6V7.7c0-2.3,2.1-3.4,3.1-3.6c0.3-0.1,0.6,0.1,0.7,0.5c0.1,0.3-0.1,0.6-0.5,0.7
			c-0.1,0-2.2,0.5-2.2,2.4v2.7C15.3,10.7,15,11,14.6,11z"/>
	</g>
	<g>
		<path class="st0" d="M50.8,17.9c-0.3,0-0.6-0.3-0.6-0.6v-3.2c0-2.3,2.2-3.4,3.3-3.6c0.3-0.1,0.6,0.2,0.7,0.5
			c0.1,0.3-0.2,0.6-0.5,0.7l0,0c-0.1,0-2.3,0.5-2.3,2.4v3.2C51.4,17.6,51.2,17.9,50.8,17.9z"/>
	</g>
	<g>
		<path class="st0" d="M82.5,3.2h-9.1c-0.3,0-0.6-0.3-0.6-0.6S73.1,2,73.4,2h9.1c0.3,0,0.6,0.3,0.6,0.6S82.8,3.2,82.5,3.2z"/>
	</g>
	<g>
		<path class="st0" d="M34.5,11.8H19.7c-0.3,0-0.6-0.3-0.6-0.6c0-0.3,0.3-0.6,0.6-0.6h14.8c0.3,0,0.6,0.3,0.6,0.6
			C35.1,11.5,34.8,11.8,34.5,11.8z"/>
	</g>
	<g>
		<path class="st0" d="M14.6,11.1c-0.3,0-0.6-0.3-0.6-0.6V1.7c0-0.3,0.3-0.6,0.6-0.6c0.3,0,0.6,0.3,0.6,0.6v8.7
			C15.3,10.8,15,11.1,14.6,11.1z"/>
	</g>
	<g>
		<path class="st0" d="M50.8,19.5c-0.3,0-0.6-0.3-0.6-0.6V1.7c0-0.3,0.3-0.6,0.6-0.6c0.3,0,0.6,0.3,0.6,0.6v17.1
			C51.4,19.2,51.2,19.5,50.8,19.5z"/>
	</g>
	<g>
		<path class="st0" d="M27.3,11.8c-0.3,0-0.6-0.3-0.6-0.6v-1.1c0-0.3,0.3-0.6,0.6-0.6c0.3,0,0.6,0.3,0.6,0.6v1.1
			C27.9,11.5,27.6,11.8,27.3,11.8z"/>
	</g>
</g>
</svg>
