<svg width="160" height="104" viewBox="0 0 160 104" fill="none" xmlns="http://www.w3.org/2000/svg">
<path d="M49.8475 79.4899C50.6464 79.4693 51.4397 79.6282 52.169 79.9548C52.7874 80.2367 53.3188 80.6796 53.7077 81.237C54.089 81.8015 54.3055 82.4611 54.3328 83.1417C54.3615 83.9448 54.2081 84.7439 53.884 85.4792L52.0915 90.1248C51.489 91.5061 50.6046 92.7462 49.4949 93.7659C48.3785 94.8799 46.9851 95.6757 45.4584 96.0713C44.73 96.2643 43.9849 96.3877 43.2332 96.4399C42.4745 96.4934 41.6811 96.5201 40.8476 96.5201H39.4692L36.7791 103.022H29.7319L39.1807 79.4792L49.8475 79.4899ZM46.1957 86.3447C46.2787 86.1928 46.3235 86.0229 46.3263 85.8498C46.3291 85.6767 46.2898 85.5055 46.2118 85.351C46.1283 85.2119 46.0073 85.0991 45.8628 85.0254C45.7183 84.9517 45.5559 84.9201 45.3943 84.9342H44.1468L41.8414 90.5735H43.121C43.5357 90.563 43.9355 90.4166 44.259 90.1568C44.6129 89.9019 44.8946 89.5595 45.0764 89.1631L46.1957 86.3447Z" fill="black"/>
<path d="M65.7158 77.9219L55.4656 103.033H48.5654L58.1824 79.49C58.3795 79.018 58.7148 78.6166 59.1441 78.3386C59.5523 78.0665 60.032 77.9215 60.5226 77.9219H65.7158Z" fill="black"/>
<path d="M77.3438 82.2923C78.2076 82.5799 78.9811 83.0882 79.5878 83.7669C80.1642 84.446 80.5406 85.2719 80.6751 86.1525C80.8287 87.232 80.7688 88.3311 80.4988 89.3875L80.4026 89.6547C80.147 90.5223 79.7759 91.3516 79.2993 92.1204C78.8306 92.8616 78.214 93.4982 77.4881 93.9903C76.6481 94.5428 75.7231 94.9534 74.7499 95.2058C73.4883 95.5302 72.1923 95.7024 70.8897 95.7187L73.1337 89.0242C73.2173 88.8754 73.2626 88.7081 73.2654 88.5374C73.2682 88.3667 73.2284 88.198 73.1497 88.0465C73.0627 87.9119 72.9406 87.8037 72.7965 87.7335C72.6524 87.6634 72.4919 87.634 72.3323 87.6484C71.9239 87.612 71.5156 87.7198 71.1783 87.953C70.8686 88.2739 70.6381 88.6627 70.5051 89.0883L67.5265 96.6804C67.2914 97.3429 67.2593 97.7677 67.4143 97.96C67.5152 98.0639 67.6382 98.1437 67.7741 98.1936C67.9101 98.2436 68.0555 98.2623 68.1997 98.2485C69.2255 98.2485 70.3412 98.2379 71.5469 98.2165C72.7625 98.1939 73.9716 98.0326 75.1506 97.7356H75.2147C75.2361 97.7356 75.2468 97.7356 75.2468 97.7196C75.2468 97.7036 75.2468 97.7036 75.2788 97.7036C75.4956 97.6572 75.7151 97.6251 75.936 97.6074C76.1546 97.5873 76.3749 97.5981 76.5905 97.6395C76.7536 97.6674 76.9014 97.7527 77.0072 97.8799C77.0927 97.9974 77.082 98.1844 76.9752 98.4409C76.9723 98.4924 76.9557 98.5422 76.9271 98.5851C76.9026 98.6183 76.8862 98.6567 76.879 98.6973C76.4404 99.5806 75.8978 100.408 75.2628 101.163C74.7643 101.746 74.1608 102.23 73.4837 102.59C72.8146 102.93 72.0915 103.153 71.3466 103.247C70.4607 103.36 69.5682 103.414 68.6752 103.407H65.4481C64.5573 103.411 63.6712 103.276 62.8221 103.006C62.0273 102.765 61.3236 102.291 60.8026 101.644C60.2572 100.906 59.9556 100.016 59.9397 99.098C59.8756 98.0402 60.1525 96.7214 60.7705 95.1417C60.9628 94.6502 61.1766 94.0865 61.4116 93.4454C61.6254 92.8897 61.8871 92.2165 62.197 91.4258C62.5069 90.6351 62.8782 89.7099 63.311 88.6502C64.0354 86.6976 65.2741 84.9771 66.896 83.6707C68.4775 82.4241 70.4 81.8008 72.6636 81.8008H74.0714C75.1822 81.7773 76.2889 81.9435 77.3438 82.2923Z" fill="black"/>
<path d="M85.5292 82.1802H92.3814L83.8943 103.033H77.0396L85.5292 82.1802ZM94.1124 77.8899L93.0225 80.58H86.1677L86.5844 79.4901C86.7846 79.0149 87.1188 78.6084 87.5461 78.32C87.9506 78.0405 88.4303 77.8905 88.9219 77.8899H94.1124Z" fill="black"/>
<path d="M101.285 81.7954C102.641 81.7659 103.992 81.9776 105.274 82.4205C106.283 82.7603 107.18 83.3701 107.868 84.1836C108.489 84.9711 108.842 85.9358 108.878 86.9378C108.912 88.1764 108.671 89.4072 108.172 90.5416H102.504C102.143 90.5504 101.788 90.4578 101.478 90.2744C101.2 90.0963 101.111 89.7864 101.211 89.3448C101.27 89.2153 101.318 89.0813 101.355 88.9441C101.385 88.8296 101.423 88.7172 101.467 88.6075C101.587 88.2252 101.63 87.8231 101.595 87.424C101.553 87.1035 101.328 86.9432 100.893 86.9432C100.467 86.9085 100.044 87.0343 99.7067 87.2958C99.478 87.4996 99.2958 87.7501 99.1724 88.0304C98.8946 88.6288 98.9106 89.1417 99.2205 89.5692C99.5956 90.0558 100.057 90.4688 100.583 90.7873C101.179 91.1684 101.836 91.5576 102.552 91.9547C103.238 92.3285 103.868 92.7981 104.422 93.3492C104.952 93.8755 105.333 94.5326 105.528 95.2539C105.731 95.9912 105.608 96.8817 105.159 97.9253C104.791 98.8464 104.301 99.7143 103.703 100.506C103.172 101.186 102.513 101.757 101.764 102.186C100.952 102.637 100.069 102.945 99.1537 103.1C97.9946 103.292 96.8209 103.381 95.6462 103.367C94.2915 103.396 92.9421 103.19 91.6578 102.758C90.648 102.427 89.75 101.822 89.0638 101.011C88.4438 100.222 88.086 99.2589 88.0407 98.2565C87.9659 97.188 88.2054 95.9761 88.7593 94.6208H94.3986C94.778 94.5923 95.1544 94.7066 95.4538 94.9413C95.6889 95.1551 95.7103 95.6003 95.5179 96.277L95.4218 96.6617C95.3197 97.0146 95.2924 97.3849 95.3416 97.749C95.395 98.0482 95.6248 98.1978 96.0308 98.1978C96.8216 98.1978 97.3558 97.8674 97.6337 97.2067C97.7607 96.9734 97.8218 96.7099 97.8105 96.4445C97.7992 96.179 97.7159 95.9217 97.5696 95.7C97.2053 95.2132 96.7521 94.7998 96.2339 94.4819C95.6461 94.099 95.0059 93.7045 94.3131 93.2984C93.6409 92.9099 93.0259 92.4298 92.4859 91.8719C91.9634 91.3298 91.5882 90.6631 91.396 89.9352C91.1929 89.1872 91.3158 88.2798 91.7646 87.213C92.1139 86.2889 92.5944 85.4198 93.1911 84.6324C93.7249 83.949 94.3886 83.378 95.1439 82.9521C95.9624 82.5038 96.8499 82.195 97.7699 82.0385C98.9323 81.8542 100.109 81.7729 101.285 81.7954Z" fill="black"/>
<path d="M110.75 102.648C109.966 102.452 109.23 102.097 108.589 101.606C108.087 101.215 107.709 100.687 107.499 100.086C107.303 99.4836 107.227 98.8485 107.274 98.2165C107.298 97.9173 107.33 97.6234 107.37 97.3376C107.415 97.0473 107.49 96.7625 107.595 96.4881L113.205 82.1694H120.025L114.933 95.9111C114.85 96.0565 114.803 96.2203 114.797 96.3879C114.792 96.5556 114.827 96.7221 114.901 96.8728C114.975 97.0093 115.087 97.1214 115.224 97.1954C115.36 97.2694 115.516 97.3021 115.67 97.2895C116.074 97.2738 116.462 97.1276 116.776 96.8728C117.12 96.6297 117.391 96.2971 117.559 95.9111L123.169 82.1694H130.176L121.753 102.99C120.343 103.012 119.083 103.022 117.973 103.022H114.193C113.034 103.053 111.876 102.927 110.75 102.648Z" fill="black"/>
<path d="M139.273 87.4669C139.065 87.6481 138.82 87.7797 138.554 87.8515C138.249 87.9532 137.93 88.0064 137.608 88.0092C137.382 87.9973 137.155 88.0189 136.935 88.0733L130.85 103.033H123.952L132.442 82.1802H139.326C141.078 82.1802 142.499 82.5007 143.587 83.1419L139.273 87.4669Z" fill="black"/>
<path d="M156.585 82.2922C157.448 82.5799 158.221 83.0883 158.827 83.7669C159.406 84.4448 159.783 85.2711 159.917 86.1524C160.07 87.2319 160.01 88.3311 159.74 89.3875L159.644 89.6546C159.389 90.5228 159.017 91.3523 158.538 92.1203C158.071 92.8614 157.455 93.498 156.73 93.9903C155.89 94.5422 154.965 94.9528 153.992 95.2058C152.729 95.5228 151.433 95.6878 150.131 95.6973L152.373 89.0028C152.457 88.8541 152.502 88.6867 152.505 88.516C152.508 88.3452 152.468 88.1764 152.389 88.0251C152.302 87.8905 152.18 87.7823 152.035 87.7121C151.891 87.642 151.731 87.6125 151.571 87.627C151.164 87.591 150.756 87.6988 150.42 87.9316C150.11 88.2525 149.88 88.6412 149.747 89.0669L146.768 96.659C146.533 97.3215 146.501 97.7463 146.656 97.9386C146.757 98.0424 146.88 98.1223 147.016 98.1722C147.152 98.2221 147.297 98.2409 147.441 98.2271C148.465 98.2271 149.581 98.2164 150.789 98.1951C152.004 98.1723 153.213 98.011 154.392 97.7142H154.456C154.475 97.7142 154.488 97.7142 154.488 97.6982C154.488 97.6822 154.488 97.6822 154.52 97.6822C154.736 97.6356 154.955 97.6035 155.175 97.586C155.394 97.5659 155.616 97.5767 155.832 97.618C155.995 97.646 156.143 97.7312 156.249 97.8585C156.334 97.976 156.324 98.163 156.217 98.4195C156.214 98.471 156.197 98.5208 156.169 98.5637C156.144 98.5969 156.128 98.6353 156.121 98.6759C155.685 99.558 155.147 100.386 154.518 101.142C154.019 101.724 153.416 102.208 152.739 102.568C152.069 102.908 151.346 103.13 150.602 103.225C149.716 103.339 148.823 103.392 147.93 103.386H144.687C143.795 103.39 142.908 103.255 142.058 102.985C141.265 102.743 140.562 102.269 140.042 101.622C139.494 100.885 139.192 99.9948 139.176 99.0766C139.112 98.0187 139.39 96.7 140.009 95.1203C140.202 94.6287 140.416 94.0651 140.651 93.4239C140.864 92.8683 141.126 92.1951 141.436 91.4044C141.746 90.6136 142.114 89.6956 142.539 88.6502C143.265 86.6982 144.503 84.978 146.124 83.6707C147.706 82.424 149.627 81.8007 151.889 81.8007H153.3C154.415 81.7762 155.526 81.9424 156.585 82.2922Z" fill="black"/>
<path d="M48.0175 48.9613L25.3481 102.87L22.2973 101.588C3.79527 93.8087 -4.93752 72.4188 2.84693 53.9087L10.6848 35.2624C10.7431 39.4871 11.3969 43.6824 12.6269 47.7245L8.94839 56.4733C6.11557 63.2298 5.86837 70.7925 8.25393 77.7196C10.6395 84.6467 15.4909 90.4536 21.8833 94.0331L41.9187 46.4021C43.9619 41.5375 44.6767 36.2175 43.99 30.9861C43.3033 25.7546 41.2399 20.7994 38.0105 16.6268C35.5607 13.4445 32.4874 10.7957 28.9785 8.84231L23.9189 20.8636C21.7482 25.9997 20.8377 31.5807 21.2635 37.1404C21.9192 45.8188 25.7389 53.9543 31.9972 60.0022L29.2777 66.483C23.4944 61.5379 19.1622 55.1154 16.7435 47.9008C13.4647 38.238 13.8449 27.7082 17.8121 18.3071L25.5137 0L28.5644 1.28227C35.4729 4.1773 41.3143 9.14235 45.2847 15.4941C46.3559 17.1936 47.2808 18.9809 48.0496 20.8369C49.9155 25.2912 50.8738 30.073 50.8683 34.9023C50.8628 39.7316 49.8936 44.5113 48.0175 48.9613ZM64.1661 16.2528L44.4218 7.95007C47.0839 10.9164 49.2872 14.2641 50.9587 17.8823L61.5989 22.3542C67.3923 24.7978 72.0113 29.3944 74.4829 35.1758C76.9546 40.9573 77.086 47.4724 74.8495 53.3488C72.6129 59.2253 68.1831 64.0044 62.4929 66.6795C56.8028 69.3547 50.2964 69.7171 44.3444 67.6905L41.7691 73.8133C49.3434 76.5152 57.6726 76.1573 64.9872 72.8156C72.3017 69.474 78.0251 63.412 80.9411 55.9176C83.8572 48.4232 83.7362 40.0872 80.6038 32.6806C77.4715 25.274 71.5746 19.3807 64.1661 16.2528Z" fill="url(#paint0_linear)"/>
<defs>
<linearGradient id="paint0_linear" x1="72.9657" y1="16.4905" x2="-37.4243" y2="97.6448" gradientUnits="userSpaceOnUse">
<stop stop-color="#00FF00"/>
<stop offset="1" stop-color="#3FFFB1"/>
</linearGradient>
</defs>
</svg>
