<svg width="90" height="22" viewBox="0 0 90 22" fill="none" xmlns="http://www.w3.org/2000/svg">
<path d="M13.8975 1.36545C14.4494 1.34785 14.9975 1.48347 15.5014 1.76234C15.9286 2.00309 16.2958 2.38121 16.5644 2.8572C16.8279 3.33918 16.9774 3.90236 16.9963 4.48354C17.0161 5.16921 16.9101 5.85154 16.6862 6.47938L15.4478 10.446C15.0316 11.6254 14.4205 12.6843 13.6539 13.5549C12.8826 14.5061 11.9199 15.1857 10.8652 15.5234C10.3619 15.6882 9.84713 15.7936 9.32776 15.8382C8.8036 15.8838 8.25546 15.9066 7.67962 15.9066H6.72728L4.86874 21.4585H0L6.52796 1.35632L13.8975 1.36545ZM11.3745 7.21842C11.4319 7.08867 11.4628 6.94365 11.4648 6.79584C11.4667 6.64803 11.4395 6.50186 11.3856 6.3699C11.3279 6.25113 11.2444 6.1548 11.1445 6.09188C11.0447 6.02897 10.9325 6.002 10.8209 6.01407H9.95896L8.36619 10.8292H9.25024C9.53678 10.8202 9.81301 10.6952 10.0365 10.4734C10.281 10.2557 10.4756 9.96333 10.6012 9.62484L11.3745 7.21842Z" fill="#4E4E4E"/>
<path d="M24.8604 0.0274665L17.7787 21.4685H13.0115L19.6557 1.36639C19.7919 0.963357 20.0235 0.620651 20.3201 0.383296C20.6021 0.150965 20.9335 0.0271414 21.2725 0.0274665H24.8604Z" fill="#4E4E4E"/>
<path d="M32.8945 3.75981C33.4912 4.00535 34.0256 4.43939 34.4448 5.01891C34.843 5.59878 35.1031 6.30396 35.196 7.0558C35.3021 7.97753 35.2607 8.91604 35.0741 9.81805L35.0077 10.0461C34.8311 10.787 34.5747 11.4951 34.2455 12.1515C33.9216 12.7844 33.4956 13.3279 32.9941 13.7481C32.4138 14.2198 31.7747 14.5705 31.1024 14.786C30.2307 15.063 29.3354 15.21 28.4354 15.2239L29.9858 9.50784C30.0435 9.38075 30.0748 9.2379 30.0767 9.09215C30.0787 8.94641 30.0512 8.80236 29.9968 8.67301C29.9367 8.55811 29.8523 8.46571 29.7528 8.40581C29.6532 8.34591 29.5423 8.32078 29.4321 8.33314C29.1499 8.30205 28.8678 8.39404 28.6348 8.59317C28.4208 8.86719 28.2616 9.19913 28.1697 9.56258L26.1118 16.0451C25.9494 16.6108 25.9273 16.9734 26.0343 17.1377C26.104 17.2263 26.189 17.2945 26.2829 17.3371C26.3768 17.3798 26.4773 17.3958 26.5769 17.384C27.2856 17.384 28.0565 17.3749 28.8895 17.3566C29.7293 17.3374 30.5647 17.1996 31.3792 16.9461H31.4235C31.4383 16.9461 31.4457 16.9461 31.4457 16.9324C31.4457 16.9187 31.4457 16.9187 31.4678 16.9187C31.6175 16.8791 31.7692 16.8517 31.9218 16.8366C32.0728 16.8194 32.2251 16.8286 32.374 16.8639C32.4867 16.8878 32.5888 16.9606 32.6619 17.0692C32.721 17.1696 32.7136 17.3293 32.6398 17.5482C32.6378 17.5922 32.6263 17.6348 32.6065 17.6714C32.5896 17.6997 32.5783 17.7325 32.5733 17.7672C32.2703 18.5214 31.8954 19.2282 31.4567 19.8725C31.1123 20.3701 30.6954 20.7833 30.2275 21.0906C29.7653 21.3815 29.2657 21.5714 28.751 21.6517C28.139 21.7485 27.5224 21.7942 26.9054 21.7885H24.6759C24.0604 21.792 23.4483 21.6766 22.8617 21.4464C22.3126 21.2407 21.8263 20.8353 21.4664 20.2831C21.0896 19.6528 20.8812 18.8929 20.8703 18.1093C20.826 17.2061 21.0173 16.0801 21.4442 14.7312C21.5771 14.3115 21.7248 13.8303 21.8872 13.2828C22.0348 12.8084 22.2157 12.2336 22.4298 11.5584C22.6439 10.8833 22.9004 10.0933 23.1994 9.18851C23.6999 7.52128 24.5557 6.05224 25.6762 4.93679C26.7689 3.87234 28.0971 3.34011 29.6609 3.34011H30.6336C31.401 3.3201 32.1656 3.46203 32.8945 3.75981Z" fill="#4E4E4E"/>
<path d="M38.5495 3.66323H43.2835L37.42 21.4684H32.6841L38.5495 3.66323ZM44.4795 0L43.7265 2.29693H38.9906L39.2785 1.3663C39.4168 0.96062 39.6477 0.613475 39.9429 0.367232C40.2223 0.128616 40.5538 0.000551905 40.8934 0H44.4795Z" fill="#4E4E4E"/>
<path d="M49.435 3.3354C50.3718 3.31021 51.3048 3.49093 52.1905 3.86915C52.8879 4.15929 53.5077 4.67994 53.9826 5.37459C54.4115 6.04694 54.6558 6.87067 54.6803 7.72627C54.7039 8.78385 54.5375 9.83475 54.193 10.8033H50.2766C50.0277 10.8108 49.7822 10.7318 49.5679 10.5752C49.3759 10.4231 49.3144 10.1585 49.3833 9.78142C49.424 9.67091 49.4573 9.55648 49.483 9.43928C49.5039 9.34157 49.5298 9.24557 49.5605 9.15187C49.6432 8.82546 49.6733 8.48215 49.6491 8.14141C49.6195 7.86769 49.4645 7.73083 49.1637 7.73083C48.8697 7.70122 48.5774 7.80862 48.3442 8.03192C48.1862 8.2059 48.0603 8.41982 47.9751 8.65918C47.7831 9.17012 47.7942 9.60807 48.0083 9.97302C48.2675 10.3885 48.5866 10.7412 48.9496 11.0131C49.3618 11.3386 49.8152 11.6708 50.3098 12.0099C50.784 12.3291 51.219 12.73 51.6018 13.2006C51.968 13.65 52.2316 14.211 52.3658 14.8269C52.5061 15.4565 52.4212 16.2168 52.1111 17.1079C51.8567 17.8944 51.5184 18.6354 51.1053 19.3113C50.7381 19.8924 50.2831 20.3797 49.7654 20.746C49.2044 21.1306 48.5947 21.3944 47.9622 21.5261C47.1614 21.69 46.3505 21.7664 45.5389 21.7542C44.603 21.7788 43.6707 21.6028 42.7833 21.2342C42.0857 20.9516 41.4653 20.4351 40.9912 19.7424C40.5629 19.0689 40.3157 18.2466 40.2844 17.3907C40.2327 16.4783 40.3982 15.4435 40.7808 14.2863H44.677C44.9391 14.262 45.1991 14.3596 45.406 14.56C45.5684 14.7425 45.5832 15.1227 45.4503 15.7005L45.3838 16.029C45.3133 16.3303 45.2944 16.6465 45.3285 16.9573C45.3654 17.2128 45.5241 17.3405 45.8046 17.3405C46.3509 17.3405 46.7201 17.0585 46.912 16.4943C46.9998 16.2951 47.042 16.0701 47.0342 15.8435C47.0264 15.6169 46.9689 15.3971 46.8677 15.2078C46.6161 14.7921 46.3029 14.4392 45.9449 14.1677C45.5389 13.8408 45.0965 13.504 44.6179 13.1573C44.1535 12.8255 43.7286 12.4155 43.3555 11.9392C42.9945 11.4763 42.7353 10.9071 42.6025 10.2855C42.4622 9.64684 42.5471 8.87207 42.8572 7.96121C43.0985 7.17214 43.4304 6.43007 43.8427 5.75779C44.2115 5.17426 44.67 4.68666 45.1919 4.32306C45.7574 3.94027 46.3705 3.67663 47.0061 3.54297C47.8092 3.38563 48.622 3.31617 49.435 3.3354Z" fill="#4E4E4E"/>
<path d="M55.9739 21.1401C55.4324 20.9724 54.9243 20.6697 54.4808 20.2505C54.1345 19.9158 53.8732 19.4654 53.7278 18.9526C53.593 18.4378 53.5403 17.8956 53.5728 17.356C53.5894 17.1005 53.6115 16.8496 53.6392 16.6055C53.67 16.3576 53.722 16.1145 53.7943 15.8802L57.67 3.65417H62.3819L58.8642 15.3875C58.8064 15.5117 58.7742 15.6515 58.7704 15.7946C58.7665 15.9378 58.7911 16.08 58.842 16.2086C58.8932 16.3252 58.9707 16.4209 59.065 16.4841C59.1594 16.5473 59.2666 16.5752 59.3736 16.5645C59.6527 16.5511 59.9208 16.4262 60.1376 16.2086C60.3752 16.0011 60.5622 15.7171 60.6784 15.3875L64.5542 3.65417H69.3953L63.576 21.432C62.6015 21.4503 61.731 21.4594 60.9645 21.4594H58.3529C57.5519 21.4853 56.7518 21.3779 55.9739 21.1401Z" fill="#4E4E4E"/>
<path d="M75.6796 8.17785C75.5365 8.3326 75.3667 8.44494 75.1831 8.50631C74.9724 8.59311 74.7519 8.63853 74.5298 8.64089C74.3734 8.63079 74.2167 8.64923 74.0647 8.69563L69.8604 21.469H65.095L70.9604 3.66382H75.7165C76.9272 3.66382 77.9085 3.93754 78.6603 4.48497L75.6796 8.17785Z" fill="#4E4E4E"/>
<path d="M87.641 3.75839C88.2372 4.00399 88.7711 4.43806 89.1895 5.01749C89.5894 5.59632 89.8502 6.30189 89.9425 7.05439C90.0487 7.97612 90.0073 8.91464 89.8207 9.81664L89.7543 10.0447C89.5779 10.786 89.3208 11.4943 88.9902 12.1501C88.667 12.7829 88.2417 13.3264 87.7407 13.7468C87.1602 14.218 86.5212 14.5686 85.849 14.7846C84.9767 15.0553 84.0814 15.1962 83.182 15.2043L84.7305 9.48819C84.7886 9.36124 84.82 9.21833 84.822 9.07251C84.8239 8.92669 84.7963 8.78259 84.7416 8.65335C84.6815 8.53846 84.5971 8.44605 84.4975 8.38615C84.398 8.32625 84.2871 8.30112 84.1768 8.31349C83.8952 8.28274 83.6138 8.37473 83.3814 8.57352C83.1674 8.84754 83.0082 9.17948 82.9163 9.54293L80.8584 16.0254C80.696 16.5911 80.6738 16.9538 80.7809 17.118C80.8506 17.2067 80.9356 17.2748 81.0295 17.3175C81.1234 17.3601 81.2239 17.3761 81.3235 17.3644C82.031 17.3644 82.8018 17.3552 83.6361 17.337C84.4759 17.3176 85.3112 17.1798 86.1258 16.9264H86.1701C86.183 16.9264 86.1922 16.9264 86.1922 16.9127C86.1922 16.8991 86.1922 16.8991 86.2144 16.8991C86.3635 16.8593 86.5145 16.8319 86.6666 16.8169C86.8182 16.7998 86.971 16.809 87.1206 16.8443C87.2333 16.8682 87.3354 16.941 87.4085 17.0496C87.4676 17.15 87.4602 17.3096 87.3864 17.5286C87.3844 17.5726 87.3729 17.6151 87.3531 17.6518C87.3362 17.6801 87.3249 17.7129 87.3199 17.7476C87.0191 18.5007 86.6474 19.2074 86.2125 19.8529C85.8681 20.3505 85.4512 20.7637 84.9834 21.0709C84.5209 21.3613 84.0214 21.5511 83.5069 21.6321C82.8948 21.7288 82.2782 21.7745 81.6613 21.7689H79.4207C78.8046 21.7726 78.1918 21.6572 77.6046 21.4268C77.0563 21.2204 76.5708 20.8151 76.2111 20.2635C75.833 19.6338 75.6239 18.8737 75.6132 18.0897C75.5689 17.1865 75.7608 16.0604 76.189 14.7116C76.3219 14.2919 76.4695 13.8106 76.6319 13.2632C76.7796 12.7887 76.9605 12.2139 77.1746 11.5388C77.3887 10.8636 77.6427 10.0797 77.9368 9.1871C78.4381 7.52041 79.2937 6.05161 80.4136 4.93537C81.5062 3.87092 82.8338 3.33869 84.3965 3.33869H85.3709C86.1415 3.31774 86.9092 3.45968 87.641 3.75839Z" fill="#4E4E4E"/>
</svg>
