<?xml version="1.0" encoding="utf-8"?>
<!-- Generator: Adobe Illustrator 26.0.1, SVG Export Plug-In . SVG Version: 6.00 Build 0)  -->
<svg version="1.1" id="Layer_1" xmlns="http://www.w3.org/2000/svg" xmlns:xlink="http://www.w3.org/1999/xlink" x="0px" y="0px"
	 viewBox="0 0 90 26.2" style="enable-background:new 0 0 90 26.2;" xml:space="preserve">
<style type="text/css">
	.st0{fill:#FFE040;}
</style>
<g>
	<path class="st0" d="M0.7,16.6c-0.3,0-0.6-0.2-0.7-0.6s0.1-0.8,0.5-0.9c0.2-0.1,5.1-1.4,5.1-7.6c0-0.4,0.3-0.7,0.7-0.7
		C6.7,6.8,7,7.1,7,7.5c0,7.4-6.2,9-6.3,9C0.9,16.6,0.8,16.6,0.7,16.6z"/>
	<path class="st0" d="M12.2,16.6c-0.1,0-0.1,0-0.2,0c-0.1,0-6.3-1.7-6.3-9c0-0.4,0.3-0.7,0.7-0.7c0.4,0,0.7,0.3,0.7,0.7
		c0,6.2,5.1,7.6,5.1,7.6c0.4,0.1,0.6,0.5,0.5,0.9C12.8,16.3,12.5,16.6,12.2,16.6z"/>
	<path class="st0" d="M54.4,24.2c-0.2,0-0.4-0.1-0.5-0.2c-0.3-0.3-0.3-0.8,0-1.1c0.1-0.1,5.9-6.1,5.9-15c0-0.4,0.3-0.7,0.7-0.7
		s0.7,0.3,0.7,0.7c0,9.5-6.1,15.8-6.3,16C54.7,24.1,54.5,24.2,54.4,24.2z"/>
	<path class="st0" d="M66.6,24.2c-0.2,0-0.4-0.1-0.5-0.2c-0.3-0.3-6.3-6.6-6.3-16c0-0.4,0.3-0.7,0.7-0.7s0.7,0.3,0.7,0.7
		c0,8.8,5.8,14.9,5.9,15c0.3,0.3,0.3,0.8,0,1.1C66.9,24.1,66.8,24.2,66.6,24.2z"/>
	<path class="st0" d="M73.6,16.6c-0.3,0-0.5-0.1-0.6-0.4c-0.2-0.4-0.1-0.8,0.3-1c0.1,0,4.6-2.8,4.6-7.3c0-0.4,0.3-0.7,0.7-0.7
		c0.4,0,0.7,0.3,0.7,0.7c0,5.4-5.1,8.5-5.3,8.6C73.9,16.6,73.8,16.6,73.6,16.6z"/>
	<path class="st0" d="M83.5,16.6c-0.1,0-0.3,0-0.4-0.1c-0.2-0.1-5.3-3.2-5.3-8.6c0-0.4,0.3-0.7,0.7-0.7c0.4,0,0.7,0.3,0.7,0.7
		c0,4.6,4.5,7.3,4.6,7.3c0.4,0.2,0.5,0.7,0.3,1C84,16.5,83.8,16.6,83.5,16.6z"/>
	<path class="st0" d="M14.6,19c0.1,0,0.1,0.1,0.1,0.1v4.2c0,0.1-0.1,0.1-0.1,0.1H2.9c-0.1,0-0.1-0.1-0.1-0.1v-4.2
		C2.8,19,2.9,19,2.9,19L14.6,19 M14.6,17.5H2.9c-0.9,0-1.6,0.7-1.6,1.6v4.2c0,0.9,0.7,1.6,1.6,1.6h11.7c0.9,0,1.6-0.7,1.6-1.6v-4.2
		C16.2,18.2,15.4,17.5,14.6,17.5L14.6,17.5z"/>
	<path class="st0" d="M33,8c0.3,0,0.6,0.3,0.6,0.6V12c0,0.3-0.3,0.6-0.6,0.6H21.8c-0.3,0-0.6-0.3-0.6-0.6V8.6c0-0.3,0.3-0.6,0.6-0.6
		H33 M33,6.5H21.8c-1.1,0-2.1,0.9-2.1,2.1V12c0,1.1,0.9,2.1,2.1,2.1H33c1.1,0,2.1-0.9,2.1-2.1V8.6C35.1,7.5,34.2,6.5,33,6.5L33,6.5z
		"/>
	<path class="st0" d="M37.9,10.3"/>
	<path class="st0" d="M32.7,25.3c-0.2,0-0.5-0.1-0.6-0.3c-0.2-0.3-0.2-0.8,0.2-1c1.5-1.1,1.6-3.2,1.6-4.2H20.1
		c-0.4,0-0.7-0.3-0.7-0.7c0-0.4,0.3-0.7,0.7-0.7h14.4c0.4,0,0.7,0.2,0.7,0.6c0,0.2,0.8,4.1-2.1,6.3C33,25.2,32.8,25.3,32.7,25.3z"/>
	<path class="st0" d="M42.8,23.8c-4.9,0-5.8-3.3-5.8-8.5s1-8.5,5.8-8.5s5.8,3.3,5.8,8.5S47.7,23.8,42.8,23.8z M42.8,8.3
		c-2.9,0-4.4,1-4.4,7s1.4,7,4.4,7c2.9,0,4.4-1,4.4-7S45.7,8.3,42.8,8.3z"/>
	<path class="st0" d="M80.8,25.7c-4.8,0-7.5-0.7-7.5-4s2.8-4,7.5-4c4.8,0,7.5,0.7,7.5,4S85.6,25.7,80.8,25.7z M80.8,19.2
		c-5.6,0-6.1,1-6.1,2.5s0.4,2.5,6.1,2.5c5.6,0,6.1-1,6.1-2.5C86.8,20.2,86.4,19.2,80.8,19.2z"/>
	<path class="st0" d="M83.2,8.6H74c-0.4,0-0.7-0.3-0.7-0.7c0-0.4,0.3-0.7,0.7-0.7h9.2c0.4,0,0.7,0.3,0.7,0.7
		C83.9,8.3,83.6,8.6,83.2,8.6z"/>
	<path class="st0" d="M34.8,17.1H19.9c-0.4,0-0.7-0.3-0.7-0.7c0-0.4,0.3-0.7,0.7-0.7h14.9c0.4,0,0.7,0.3,0.7,0.7
		C35.5,16.7,35.2,17.1,34.8,17.1z"/>
	<path class="st0" d="M69.8,25c-0.4,0-0.7-0.3-0.7-0.7V7.7l-8.4-5.6L52,7.5v16.2c0,0.4-0.3,0.7-0.7,0.7s-0.7-0.3-0.7-0.7V7.1
		c0-0.3,0.1-0.5,0.4-0.6l9.4-5.9c0.2-0.2,0.6-0.1,0.8,0l9.1,6.1c0.2,0.1,0.3,0.4,0.3,0.6v16.9C70.5,24.6,70.2,25,69.8,25z"/>
	<path class="st0" d="M27.5,17.1c-0.4,0-0.7-0.3-0.7-0.7v-1.1c0-0.4,0.3-0.7,0.7-0.7s0.7,0.3,0.7,0.7v1.1
		C28.2,16.7,27.9,17.1,27.5,17.1z"/>
	<path class="st0" d="M86.8,16.9c-0.4,0-0.7-0.3-0.7-0.7V7.3c0-0.4,0.3-0.7,0.7-0.7c0.4,0,0.7,0.3,0.7,0.7v8.9
		C87.6,16.6,87.3,16.9,86.8,16.9z"/>
	<circle class="st0" cx="89" cy="11.7" r="1"/>
	<path class="st0" d="M15,16.9c-0.4,0-0.7-0.3-0.7-0.7V7.5c0-0.4,0.3-0.7,0.7-0.7s0.7,0.3,0.7,0.7v8.7C15.7,16.6,15.4,16.9,15,16.9z
		"/>
	<circle class="st0" cx="17.2" cy="11.7" r="1"/>
	<circle class="st0" cx="53.7" cy="9.8" r="1"/>
	<circle class="st0" cx="53.7" cy="13.4" r="1"/>
</g>
</svg>
