<?xml version="1.0" encoding="utf-8"?>
<!-- Generator: Adobe Illustrator 26.0.1, SVG Export Plug-In . SVG Version: 6.00 Build 0)  -->
<svg version="1.1" id="Layer_1" xmlns="http://www.w3.org/2000/svg" xmlns:xlink="http://www.w3.org/1999/xlink" x="0px" y="0px"
	 viewBox="0 0 90 23" style="enable-background:new 0 0 90 23;" xml:space="preserve">
<style type="text/css">
	.st0{fill:#CCCCCC;}
</style>
<g>
	<g>
		<path class="st0" d="M0.8,11.9c-0.3,0-0.5-0.2-0.6-0.4c-0.1-0.3,0.1-0.7,0.4-0.8c0.2-0.1,5.2-1.7,5.2-8.2C5.8,2.2,6.1,2,6.4,2
			S7,2.2,7,2.6C7,6.4,5.4,8.8,4,10c-1.5,1.4-3,1.8-3.1,1.9C0.9,11.9,0.8,11.9,0.8,11.9z"/>
	</g>
	<g>
		<path class="st0" d="M12.1,11.9c-0.1,0-0.1,0-0.2,0c-0.1,0-6.1-1.9-6.1-9.3C5.8,2.2,6.1,2,6.4,2S7,2.2,7,2.6c0,6.5,5,8.1,5.2,8.2
			c0.3,0.1,0.5,0.4,0.4,0.8C12.6,11.8,12.3,11.9,12.1,11.9z"/>
	</g>
	<g>
		<path class="st0" d="M54.1,19.7c-0.1,0-0.3-0.1-0.4-0.2c-0.2-0.2-0.3-0.6,0-0.9c0.1-0.1,5.9-6.4,5.9-15.5c0-0.3,0.3-0.6,0.6-0.6
			s0.6,0.3,0.6,0.6c0,9.7-6,16.1-6.2,16.4C54.4,19.7,54.3,19.7,54.1,19.7z"/>
	</g>
	<g>
		<path class="st0" d="M66.2,19.7c-0.2,0-0.3-0.1-0.4-0.2c-0.3-0.3-6.2-6.7-6.2-16.4c0-0.3,0.3-0.6,0.6-0.6s0.6,0.3,0.6,0.6
			c0,9.2,5.8,15.5,5.9,15.5c0.2,0.2,0.2,0.6,0,0.9C66.5,19.7,66.4,19.7,66.2,19.7z"/>
	</g>
	<g>
		<path class="st0" d="M73,12c-0.2,0-0.4-0.1-0.5-0.3c-0.2-0.3-0.1-0.7,0.2-0.8c0.1,0,4.6-2.9,4.6-7.7c0-0.3,0.3-0.6,0.6-0.6
			c0.3,0,0.6,0.3,0.6,0.6c0,5.5-5,8.6-5.2,8.7C73.3,11.9,73.1,12,73,12z"/>
	</g>
	<g>
		<path class="st0" d="M82.8,12c-0.1,0-0.2,0-0.3-0.1c-0.2-0.1-5.2-3.2-5.2-8.7c0-0.3,0.3-0.6,0.6-0.6c0.3,0,0.6,0.3,0.6,0.6
			c0,4.8,4.6,7.6,4.6,7.7c0.3,0.2,0.4,0.5,0.2,0.8C83.2,11.9,83,12,82.8,12z"/>
	</g>
	<g>
		<path class="st0" d="M14.7,14.3c0.1,0,0.1,0,0.1,0.1v5c0,0.1,0,0.1-0.1,0.1H2.6c-0.1,0-0.1,0-0.1-0.1v-5c0-0.1,0-0.1,0.1-0.1H14.7
			 M14.7,13.1H2.6c-0.7,0-1.3,0.6-1.3,1.3v5c0,0.7,0.6,1.3,1.3,1.3h12.2c0.7,0,1.3-0.6,1.3-1.3v-5C16.1,13.6,15.5,13.1,14.7,13.1
			L14.7,13.1z"/>
	</g>
	<g>
		<path class="st0" d="M69.2,20.6c-0.3,0-0.6-0.3-0.6-0.6V2.6c0-0.3,0.3-0.6,0.6-0.6c0.3,0,0.6,0.3,0.6,0.6V20
			C69.8,20.3,69.5,20.6,69.2,20.6z"/>
	</g>
	<g>
		<path class="st0" d="M86.6,10.8c-0.3,0-0.6-0.3-0.6-0.6V2.7c0-0.3,0.3-0.6,0.6-0.6c0.3,0,0.6,0.3,0.6,0.6v7.5
			C87.2,10.5,86.9,10.8,86.6,10.8z"/>
	</g>
	<g>
		<path class="st0" d="M33.1,3c0.3,0,0.5,0.2,0.5,0.5v4.4c0,0.3-0.2,0.5-0.5,0.5H21.3c-0.3,0-0.5-0.2-0.5-0.5V3.5
			C20.8,3.2,21,3,21.3,3H33.1 M33.1,1.8H21.3c-0.9,0-1.7,0.8-1.7,1.7v4.4c0,0.9,0.8,1.7,1.7,1.7h11.9c0.9,0,1.7-0.8,1.7-1.7V3.5
			C34.8,2.5,34.1,1.8,33.1,1.8L33.1,1.8z"/>
	</g>
	<g>
		<path class="st0" d="M37.6,5.7"/>
	</g>
	<g>
		<path class="st0" d="M32.6,20.9c-0.2,0-0.4-0.1-0.5-0.2c-0.2-0.3-0.2-0.6,0.1-0.9c1.7-1.3,1.7-3.6,1.6-4.6H19.7
			c-0.3,0-0.6-0.3-0.6-0.6s0.3-0.6,0.6-0.6h14.7c0.3,0,0.5,0.2,0.6,0.5c0,0.2,0.8,4.1-2,6.3C32.9,20.8,32.8,20.9,32.6,20.9z"/>
	</g>
	<g id="Path_98_00000021080049157894496460000001300952445558054798_">
		<path class="st0" d="M42.5,19.3c-4.7,0-5.7-3.1-5.7-8.6c0-5.4,0.9-8.6,5.7-8.6s5.7,3.1,5.7,8.6C48.1,16.2,47.2,19.3,42.5,19.3z
			 M42.5,3.4c-3,0-4.4,1.1-4.4,7.4c0,6.3,1.4,7.4,4.4,7.4s4.4-1.1,4.4-7.4C46.9,4.5,45.5,3.4,42.5,3.4z"/>
	</g>
	<g id="Path_98_00000030474662677375515910000005794652401887021218_">
		<path class="st0" d="M80.1,21.3c-4.7,0-7.4-0.6-7.4-3.9s2.7-3.9,7.4-3.9s7.4,0.6,7.4,3.9S84.8,21.3,80.1,21.3z M80.1,14.6
			c-5.2,0-6.1,0.9-6.1,2.7c0,2.3,2,2.7,6.1,2.7c5.2,0,6.1-0.9,6.1-2.7C86.3,15,84.3,14.6,80.1,14.6z"/>
	</g>
	<g>
		<path class="st0" d="M86.6,12.2c-0.3,0-0.6-0.3-0.6-0.6V8.3C86,6,88,5,89.1,4.8c0.3-0.1,0.6,0.1,0.7,0.5c0.1,0.3-0.1,0.6-0.5,0.7
			c-0.1,0-2.2,0.5-2.2,2.4v3.2C87.2,11.9,86.9,12.2,86.6,12.2z"/>
	</g>
	<g>
		<path class="st0" d="M50.8,12.1c-0.3,0-0.6-0.3-0.6-0.6V8.3c0-2.3,2.2-3.4,3.3-3.6c0.3-0.1,0.6,0.2,0.7,0.5
			c0.1,0.3-0.2,0.6-0.5,0.7c-0.1,0-2.3,0.5-2.3,2.4v3.2C51.4,11.8,51.1,12.1,50.8,12.1z"/>
	</g>
	<g>
		<path class="st0" d="M14.6,11.6c-0.3,0-0.6-0.3-0.6-0.6V8.3c0-2.3,2.1-3.4,3.1-3.6c0.3-0.1,0.6,0.1,0.7,0.5
			c0.1,0.3-0.1,0.6-0.5,0.7c-0.1,0-2.2,0.5-2.2,2.4V11C15.2,11.3,15,11.6,14.6,11.6z"/>
	</g>
	<g>
		<path class="st0" d="M50.8,18.5c-0.3,0-0.6-0.3-0.6-0.6v-3.2c0-2.3,2.2-3.4,3.3-3.6c0.3-0.1,0.6,0.2,0.7,0.5
			c0.1,0.3-0.2,0.6-0.5,0.7l0,0c-0.1,0-2.3,0.5-2.3,2.4v3.2C51.4,18.3,51.1,18.5,50.8,18.5z"/>
	</g>
	<g>
		<path class="st0" d="M82.5,3.8h-9.1c-0.3,0-0.6-0.3-0.6-0.6s0.3-0.6,0.6-0.6h9.1c0.3,0,0.6,0.3,0.6,0.6S82.8,3.8,82.5,3.8z"/>
	</g>
	<g>
		<path class="st0" d="M34.5,12.4H19.7c-0.3,0-0.6-0.3-0.6-0.6c0-0.3,0.3-0.6,0.6-0.6h14.8c0.3,0,0.6,0.3,0.6,0.6
			C35.1,12.1,34.8,12.4,34.5,12.4z"/>
	</g>
	<g>
		<path class="st0" d="M14.6,11.7c-0.3,0-0.6-0.3-0.6-0.6V2.4c0-0.3,0.3-0.6,0.6-0.6c0.3,0,0.6,0.3,0.6,0.6v8.7
			C15.2,11.4,15,11.7,14.6,11.7z"/>
	</g>
	<g>
		<path class="st0" d="M50.8,20.1c-0.3,0-0.6-0.3-0.6-0.6V2.4c0-0.3,0.3-0.6,0.6-0.6s0.6,0.3,0.6,0.6v17.1
			C51.4,19.8,51.1,20.1,50.8,20.1z"/>
	</g>
	<g>
		<path class="st0" d="M27.3,12.4c-0.3,0-0.6-0.3-0.6-0.6v-1.1c0-0.3,0.3-0.6,0.6-0.6s0.6,0.3,0.6,0.6v1.1
			C27.9,12.1,27.6,12.4,27.3,12.4z"/>
	</g>
</g>
</svg>
