<?xml version="1.0" encoding="utf-8"?>
<!-- Generator: Adobe Illustrator 26.0.1, SVG Export Plug-In . SVG Version: 6.00 Build 0)  -->
<svg version="1.1" id="Layer_1" xmlns="http://www.w3.org/2000/svg" xmlns:xlink="http://www.w3.org/1999/xlink" x="0px" y="0px"
	 viewBox="0 0 81.9 77.4" style="enable-background:new 0 0 81.9 77.4;" xml:space="preserve">
<style type="text/css">
	.st0{fill:#FFFCE8;}
	.st1{fill:#FADB5F;}
</style>
<g>
	<path class="st0" d="M57,61.3c3-1.9,5.4-4.6,7-7.8c1.5,3.2,3.9,5.9,7,7.8c0.2,0.1,0.4,0.1,0.6,0.1c0.2,0,0.4-0.1,0.6-0.1
		c0.2-0.1,0.3-0.2,0.4-0.4c0.2-0.3,0.2-0.6,0.1-0.9c-0.1-0.3-0.3-0.5-0.5-0.7c0,0-6.2-3.8-6.9-10H71c0.3,0,0.6-0.1,0.8-0.3
		c0.2-0.2,0.3-0.5,0.3-0.8c0-0.3-0.1-0.6-0.3-0.8c-0.2-0.2-0.5-0.3-0.8-0.3H57c-0.1,0-0.3,0-0.4,0.1c-0.1,0.1-0.3,0.1-0.4,0.2
		c-0.1,0.1-0.2,0.2-0.2,0.4c-0.1,0.1-0.1,0.3-0.1,0.4c0,0.3,0.1,0.6,0.3,0.8c0.2,0.2,0.5,0.3,0.8,0.3h5.8c-0.7,6.3-6.8,10-6.9,10
		c-0.3,0.2-0.4,0.4-0.5,0.7c-0.1,0.3,0,0.6,0.1,0.9c0.1,0.2,0.2,0.3,0.4,0.4c0.2,0.1,0.4,0.1,0.6,0.1C56.6,61.5,56.8,61.4,57,61.3z"
		/>
	<path class="st0" d="M67.3,63.1c-7.3,0-11.5,1-11.5,6.1c0,5.1,4.2,6.1,11.5,6.1s11.5-1,11.5-6.1C78.9,64.1,74.6,63.1,67.3,63.1z
		 M67.3,73c-8.6,0-9.2-1.6-9.2-3.8c0-2.2,0.7-3.8,9.2-3.8c8.6,0,9.3,1.6,9.3,3.8C76.6,71.4,75.9,73,67.3,73z"/>
	<path class="st0" d="M76.6,62c0.3,0,0.6-0.1,0.8-0.3c0.2-0.2,0.3-0.5,0.3-0.8V47.3c0-0.3-0.1-0.6-0.3-0.8c-0.2-0.2-0.5-0.3-0.8-0.3
		c-0.3,0-0.6,0.1-0.8,0.3c-0.2,0.2-0.3,0.5-0.3,0.8v13.6c0,0.3,0.1,0.6,0.3,0.8C76,61.9,76.3,62,76.6,62z"/>
	<path class="st0" d="M79.9,55.4c0.8,0,1.5-0.7,1.5-1.5c0-0.8-0.7-1.5-1.5-1.5c-0.8,0-1.5,0.7-1.5,1.5
		C78.5,54.7,79.1,55.4,79.9,55.4z"/>
	<path class="st0" d="M23.3,9.2c0.8,1.8,1.9,3.4,3.4,4.8c1.5,1.3,3.2,2.3,5.1,2.9c0.1,0,0.2,0,0.3,0c0.3,0,0.5-0.1,0.7-0.2
		c0.2-0.2,0.3-0.4,0.4-0.6c0-0.1,0-0.3,0-0.4c0-0.1-0.1-0.3-0.1-0.4c-0.1-0.1-0.2-0.2-0.3-0.3c-0.1-0.1-0.3-0.2-0.4-0.2
		c-2.4-0.8-4.5-2.3-5.9-4.4C25,8,24.3,5.5,24.4,3c0-0.3-0.1-0.6-0.3-0.8c-0.2-0.2-0.5-0.3-0.8-0.3c-0.1,0-0.3,0-0.4,0.1
		c-0.1,0.1-0.3,0.1-0.4,0.2c-0.1,0.1-0.2,0.2-0.2,0.4c-0.1,0.1-0.1,0.3-0.1,0.4c0,9.4-7.5,11.5-7.8,11.6c-0.1,0-0.3,0.1-0.4,0.2
		c-0.1,0.1-0.2,0.2-0.3,0.3c-0.1,0.1-0.1,0.3-0.1,0.4c0,0.1,0,0.3,0,0.4c0.1,0.2,0.2,0.5,0.4,0.6c0.2,0.2,0.4,0.2,0.7,0.2
		c0.1,0,0.2,0,0.3,0c1.9-0.6,3.6-1.6,5.1-2.9C21.4,12.6,22.5,11,23.3,9.2z"/>
	<path class="st0" d="M35.7,18.3H17.8c-0.7,0-1.3,0.3-1.7,0.7c-0.5,0.5-0.7,1.1-0.7,1.7v6.4c0,0.7,0.3,1.3,0.7,1.7
		c0.5,0.5,1.1,0.7,1.7,0.7h17.9c0.7,0,1.3-0.3,1.7-0.7c0.5-0.5,0.7-1.1,0.7-1.7v-6.5c0-0.6-0.3-1.3-0.7-1.7
		C36.9,18.5,36.3,18.3,35.7,18.3z M35.9,27.2C35.9,27.2,35.9,27.3,35.9,27.2c0,0.1,0,0.1-0.1,0.1c0,0,0,0-0.1,0c0,0,0,0-0.1,0H17.8
		c0,0-0.1,0-0.1,0c0,0,0,0-0.1,0c0,0,0,0,0-0.1c0,0,0,0,0-0.1v-6.5c0,0,0-0.1,0-0.1c0,0,0,0,0-0.1c0,0,0,0,0.1,0c0,0,0,0,0.1,0h17.9
		c0.1,0,0.1,0,0.1,0.1c0,0,0.1,0.1,0.1,0.1V27.2z"/>
	<path class="st0" d="M47.5,21.5h17.2c0.8,0,1.6-0.3,2.2-0.9c0.6-0.6,0.9-1.4,0.9-2.2v-5.2c0-0.8-0.3-1.6-0.9-2.2
		c-0.6-0.6-1.4-0.9-2.2-0.9H47.5c-0.4,0-0.8,0.1-1.2,0.2c-0.4,0.2-0.7,0.4-1,0.7c-0.3,0.3-0.5,0.6-0.7,1c-0.2,0.4-0.2,0.8-0.2,1.2
		v5.2c0,0.8,0.3,1.6,0.9,2.2C45.9,21.2,46.7,21.5,47.5,21.5z M46.6,13.2c0-0.1,0-0.2,0.1-0.3c0-0.1,0.1-0.2,0.2-0.3
		c0.1-0.1,0.2-0.1,0.3-0.2c0.1,0,0.2-0.1,0.3-0.1h17.2c0.1,0,0.2,0,0.3,0.1c0.1,0,0.2,0.1,0.3,0.2c0.1,0.1,0.1,0.2,0.2,0.3
		c0,0.1,0.1,0.2,0.1,0.3v5.2c0,0.2-0.1,0.4-0.3,0.6c-0.2,0.2-0.4,0.3-0.6,0.3H47.5c-0.2,0-0.4-0.1-0.6-0.3c-0.2-0.2-0.3-0.4-0.3-0.6
		V13.2z"/>
	<path class="st0" d="M66.9,27.8H45c-0.3,0-0.6,0.1-0.8,0.3c-0.2,0.2-0.3,0.5-0.3,0.8c0,0.3,0.1,0.6,0.3,0.8
		c0.2,0.2,0.5,0.3,0.8,0.3h20.9c0.2,1.2,0,2.4-0.4,3.5c-0.4,1.1-1.1,2.1-2,2.9c-0.2,0.2-0.4,0.4-0.4,0.7c0,0.3,0,0.6,0.2,0.8
		c0.1,0.1,0.2,0.3,0.4,0.3c0.2,0.1,0.3,0.1,0.5,0.1c0.2,0,0.5-0.1,0.7-0.2c4.4-3.2,3.2-9.3,3.2-9.5c-0.1-0.3-0.2-0.5-0.4-0.7
		C67.4,27.9,67.2,27.8,66.9,27.8z"/>
	<path class="st0" d="M9.4,31.9c-7.4,0-8.9,5-8.9,13s1.5,13,8.9,13c7.4,0,8.9-5,8.9-13S16.9,31.9,9.4,31.9z M9.4,55.6
		c-4.5,0-6.6-1.6-6.6-10.7s2.1-10.7,6.6-10.7c4.5,0,6.6,1.6,6.6,10.7S13.9,55.6,9.4,55.6z"/>
	<path class="st0" d="M67.3,23.8h-10v-0.5c0-0.3-0.1-0.6-0.3-0.8c-0.2-0.2-0.5-0.3-0.8-0.3c-0.3,0-0.6,0.1-0.8,0.3
		c-0.2,0.2-0.3,0.5-0.3,0.8v0.5H44.6c-0.3,0-0.6,0.1-0.8,0.3c-0.2,0.2-0.3,0.5-0.3,0.8c0,0.3,0.1,0.6,0.3,0.8
		c0.2,0.2,0.5,0.3,0.8,0.3h22.7c0.1,0,0.3,0,0.4-0.1c0.1-0.1,0.3-0.1,0.4-0.2c0.1-0.1,0.2-0.2,0.2-0.4c0.1-0.1,0.1-0.3,0.1-0.4
		c0-0.3-0.1-0.6-0.3-0.8C67.9,23.9,67.6,23.8,67.3,23.8z"/>
	<path class="st0" d="M36.3,17.4c0.3,0,0.6-0.1,0.8-0.3c0.2-0.2,0.3-0.5,0.3-0.8V3c0-0.2,0-0.3-0.1-0.4c-0.1-0.1-0.1-0.3-0.2-0.4
		C37,2.1,36.8,2,36.7,2c-0.1-0.1-0.3-0.1-0.4-0.1c-0.1,0-0.3,0-0.4,0.1c-0.1,0.1-0.3,0.1-0.4,0.2c-0.1,0.1-0.2,0.2-0.2,0.4
		c-0.1,0.1-0.1,0.3-0.1,0.4v13.2c0,0.3,0.1,0.6,0.3,0.8C35.7,17.3,36,17.4,36.3,17.4z"/>
	<path class="st0" d="M39.6,10.8c0.8,0,1.5-0.7,1.5-1.5c0-0.8-0.7-1.5-1.5-1.5c-0.8,0-1.5,0.7-1.5,1.5
		C38.2,10.2,38.8,10.8,39.6,10.8z"/>
	<path class="st1" d="M37.5,43.6v-0.1c0-0.3-0.1-0.6-0.3-0.8c-0.2-0.2-0.5-0.3-0.8-0.3c-0.3,0-0.6,0.1-0.8,0.3
		c-0.2,0.2-0.3,0.5-0.3,0.8c0,0,0,0,0,0.1C35,52,31.8,60.1,26.3,66.4c-0.2,0.2-0.3,0.5-0.3,0.8c0,0.3,0.1,0.6,0.3,0.8
		c0.2,0.2,0.5,0.3,0.8,0.3c0.2,0,0.3,0,0.4-0.1c0.1-0.1,0.3-0.1,0.4-0.3c4-4.5,7-9.9,8.5-15.7c1.5,5.8,4.5,11.2,8.5,15.7
		c0.1,0.1,0.2,0.2,0.4,0.3s0.3,0.1,0.4,0.1c0.3,0,0.6-0.1,0.8-0.3c0.2-0.2,0.3-0.5,0.3-0.8c0-0.3-0.1-0.6-0.3-0.8
		C40.9,60.1,37.7,52.1,37.5,43.6z"/>
	<path class="st1" d="M51.2,41.7l-13.9-9.3c-0.2-0.1-0.4-0.2-0.6-0.2c-0.2,0-0.4,0.1-0.6,0.2l-14.4,8.9c-0.2,0.1-0.3,0.2-0.4,0.4
		c-0.1,0.2-0.1,0.4-0.1,0.5v25.4c0,0.3,0.1,0.6,0.3,0.8c0.2,0.2,0.5,0.3,0.8,0.3c0.3,0,0.6-0.1,0.8-0.3c0.2-0.2,0.3-0.5,0.3-0.8
		V42.9l13.3-8.2l12.7,8.5v25.2c0,0.3,0.1,0.6,0.3,0.8c0.2,0.2,0.5,0.3,0.8,0.3c0.1,0,0.3,0,0.4-0.1c0.1-0.1,0.3-0.1,0.4-0.2
		c0.1-0.1,0.2-0.2,0.2-0.4c0.1-0.1,0.1-0.3,0.1-0.4V42.6c0-0.2,0-0.4-0.1-0.5C51.4,41.9,51.3,41.8,51.2,41.7z"/>
	<path class="st1" d="M26.1,47.8c0.8,0,1.5-0.7,1.5-1.5c0-0.8-0.7-1.5-1.5-1.5c-0.8,0-1.5,0.7-1.5,1.5
		C24.6,47.2,25.3,47.8,26.1,47.8z"/>
	<path class="st1" d="M26.1,53.3c0.8,0,1.5-0.7,1.5-1.5c0-0.8-0.7-1.5-1.5-1.5c-0.8,0-1.5,0.7-1.5,1.5
		C24.6,52.7,25.3,53.3,26.1,53.3z"/>
</g>
</svg>
