<svg xmlns="http://www.w3.org/2000/svg" viewBox="0 0 81.94 77.42"><defs><style>.cls-1{fill:#fadb5f;}.cls-2{fill:#ec582b;}.cls-3{fill:#fff;}</style></defs><g id="Layer_2" data-name="Layer 2"><g id="Layer_1-2" data-name="Layer 1"><circle class="cls-1" cx="12.32" cy="60.73" r="7.82"/><circle class="cls-2" cx="69.62" cy="16.69" r="7.82"/><path class="cls-3" d="M36.36,42.5v-.13a1,1,0,0,0-1-1h0a1,1,0,0,0-1,1v.13a32.63,32.63,0,0,1-9.41,23,1,1,0,0,0,0,1.37.93.93,0,0,0,.66.27,1,1,0,0,0,.71-.31,32.43,32.43,0,0,0,9-16.37,32.26,32.26,0,0,0,9,16.37.94.94,0,0,0,.7.31,1,1,0,0,0,.71-1.64A32.58,32.58,0,0,1,36.36,42.5Z"/><path class="cls-3" d="M49.78,40.45a1,1,0,0,0-1,1V68.34a1,1,0,0,0,1.94,0V41.42A1,1,0,0,0,49.78,40.45Z"/><path class="cls-3" d="M55.59,62.45A19.55,19.55,0,0,0,62.9,53.7a19.55,19.55,0,0,0,7.31,8.75.94.94,0,0,0,.51.14,1,1,0,0,0,.82-.46,1,1,0,0,0-.31-1.33c-.07,0-6.74-4.25-7.32-11.29h6.25a1,1,0,0,0,0-1.94H55.64a1,1,0,0,0,0,1.94h6.25c-.58,7-7.25,11.24-7.32,11.29a1,1,0,0,0-.32,1.33,1,1,0,0,0,.83.46A.94.94,0,0,0,55.59,62.45Z"/><path class="cls-3" d="M66.4,64.84c-7.44,0-11.75,1-11.75,6.29S59,77.42,66.4,77.42s11.75-1,11.75-6.29S73.84,64.84,66.4,64.84Zm0,10.64c-8.34,0-9.81-1.4-9.81-4.35s1.47-4.35,9.81-4.35,9.81,1.4,9.81,4.35S74.74,75.48,66.4,75.48Z"/><path class="cls-3" d="M81.92,51.83a1,1,0,0,0-1.14-.75,7.17,7.17,0,0,0-3.07,1.52V47.74a1,1,0,1,0-1.94,0v14.2a1,1,0,1,0,1.94,0V56.79c0-3,3.31-3.78,3.46-3.81A1,1,0,0,0,81.92,51.83Z"/><path class="cls-3" d="M23.11,7.31a14.72,14.72,0,0,0,8.77,8.9.9.9,0,0,0,.28,0,1,1,0,0,0,.28-1.9c-.09,0-8.36-2.61-8.36-13a1,1,0,0,0-1.94,0c0,10.36-8,12.92-8.35,13a1,1,0,0,0-.65,1.21,1,1,0,0,0,.93.69.9.9,0,0,0,.28,0A14.69,14.69,0,0,0,23.11,7.31Z"/><path class="cls-3" d="M36.4,18.06H17a2.1,2.1,0,0,0-2.1,2.1v8a2.1,2.1,0,0,0,2.1,2.1H36.4a2.1,2.1,0,0,0,2.1-2.1v-8A2.1,2.1,0,0,0,36.4,18.06Zm.16,10.11a.16.16,0,0,1-.16.16H17a.16.16,0,0,1-.16-.16v-8A.16.16,0,0,1,17,20H36.4a.16.16,0,0,1,.16.16Z"/><path class="cls-3" d="M40.29,4.71a7,7,0,0,0-3.07,1.53V1a1,1,0,1,0-1.94,0V14.89a1,1,0,0,0,1.94,0V10.43c0-3,3.31-3.79,3.46-3.82a1,1,0,0,0-.39-1.9Z"/><path class="cls-3" d="M9.05,34.39c-7.57,0-9,5-9,13.7S1.48,61.78,9.05,61.78s9-5,9-13.69S16.61,34.39,9.05,34.39Zm0,25.45c-4.82,0-7.11-1.76-7.11-11.75S4.23,36.33,9.05,36.33s7.1,1.76,7.1,11.76S13.86,59.84,9.05,59.84Z"/><path class="cls-3" d="M27.86,49.46a1,1,0,0,0-1.14-.77,7.77,7.77,0,0,0-3.36,1.61V44.15c0-3,3.57-3.78,3.73-3.81a1,1,0,1,0-.37-1.91,7.8,7.8,0,0,0-3.36,1.62V34.69a1,1,0,0,0-1.94,0V62a1,1,0,1,0,1.94,0v-7.6c0-3,3.57-3.78,3.73-3.82A1,1,0,0,0,27.86,49.46Z"/><path class="cls-3" d="M44.86,24.54h19a2.68,2.68,0,0,0,2.68-2.68v-7a2.68,2.68,0,0,0-2.68-2.68h-19a2.68,2.68,0,0,0-2.68,2.68v7A2.68,2.68,0,0,0,44.86,24.54Zm-.74-9.69a.74.74,0,0,1,.74-.74h19a.74.74,0,0,1,.74.74v7a.74.74,0,0,1-.74.74h-19a.74.74,0,0,1-.74-.74Z"/><path class="cls-3" d="M65.87,31.66H42.42a1,1,0,0,0,0,1.94H65c.13,1.6.09,5.26-2.57,7.3a1,1,0,0,0-.18,1.37,1,1,0,0,0,.77.38,1,1,0,0,0,.59-.2c4.42-3.4,3.25-9.73,3.19-10A1,1,0,0,0,65.87,31.66Z"/><path class="cls-3" d="M66,27.22H55.48v-.77a1,1,0,1,0-1.94,0v.77H42.42a1,1,0,0,0,0,1.94H66a1,1,0,0,0,0-1.94Z"/></g></g></svg>