<?xml version="1.0" encoding="utf-8"?>
<!-- Generator: Adobe Illustrator 25.2.3, SVG Export Plug-In . SVG Version: 6.00 Build 0)  -->
<svg version="1.1" id="Layer_1" xmlns="http://www.w3.org/2000/svg" xmlns:xlink="http://www.w3.org/1999/xlink" x="0px" y="0px"
	 viewBox="0 0 90 23" style="enable-background:new 0 0 90 23;" xml:space="preserve">
<style type="text/css">
	.st0{fill:#f3f3f3;}
</style>
<path class="st0" d="M13.9,2.1c0.6,0,1.1,0.1,1.6,0.4c0.4,0.2,0.8,0.6,1.1,1.1C16.8,4,17,4.6,17,5.2c0,0.7-0.1,1.4-0.3,2l-1.2,4
	c-0.4,1.2-1,2.2-1.8,3.1c-0.8,1-1.7,1.6-2.8,2c-0.5,0.2-1,0.3-1.5,0.3c-0.5,0-1.1,0.1-1.6,0.1h-1l-1.9,5.6H0L6.5,2.1L13.9,2.1z
	 M11.4,7.9c0.1-0.1,0.1-0.3,0.1-0.4c0-0.1,0-0.3-0.1-0.4c-0.1-0.1-0.1-0.2-0.2-0.3c-0.1-0.1-0.2-0.1-0.3-0.1H10l-1.6,4.8h0.9
	c0.3,0,0.6-0.1,0.8-0.4c0.2-0.2,0.4-0.5,0.6-0.8L11.4,7.9z"/>
<path class="st0" d="M24.9,0.7l-7.1,21.4H13l6.6-20.1c0.1-0.4,0.4-0.7,0.7-1c0.3-0.2,0.6-0.4,1-0.4H24.9z"/>
<path class="st0" d="M32.9,4.5c0.6,0.2,1.1,0.7,1.6,1.3c0.4,0.6,0.7,1.3,0.8,2c0.1,0.9,0.1,1.9-0.1,2.8L35,10.7
	c-0.2,0.7-0.4,1.4-0.8,2.1c-0.3,0.6-0.7,1.2-1.3,1.6c-0.6,0.5-1.2,0.8-1.9,1c-0.9,0.3-1.8,0.4-2.7,0.4l1.6-5.7
	c0.1-0.1,0.1-0.3,0.1-0.4c0-0.1,0-0.3-0.1-0.4c-0.1-0.1-0.1-0.2-0.2-0.3C29.7,9,29.5,9,29.4,9c-0.3,0-0.6,0.1-0.8,0.3
	c-0.2,0.3-0.4,0.6-0.5,1l-2.1,6.5c-0.2,0.6-0.2,0.9-0.1,1.1c0.1,0.1,0.2,0.2,0.2,0.2c0.1,0,0.2,0.1,0.3,0c0.7,0,1.5,0,2.3,0
	c0.8,0,1.7-0.2,2.5-0.4h0c0,0,0,0,0,0c0,0,0,0,0,0c0.1,0,0.3-0.1,0.5-0.1c0.2,0,0.3,0,0.5,0c0.1,0,0.2,0.1,0.3,0.2
	c0.1,0.1,0.1,0.3,0,0.5c0,0,0,0.1,0,0.1c0,0,0,0.1,0,0.1c-0.3,0.8-0.7,1.5-1.1,2.1c-0.3,0.5-0.8,0.9-1.2,1.2c-0.5,0.3-1,0.5-1.5,0.6
	c-0.6,0.1-1.2,0.1-1.8,0.1h-2.2c-0.6,0-1.2-0.1-1.8-0.3c-0.5-0.2-1-0.6-1.4-1.2c-0.4-0.6-0.6-1.4-0.6-2.2c0-0.9,0.1-2,0.6-3.4
	c0.1-0.4,0.3-0.9,0.4-1.4c0.1-0.5,0.3-1,0.5-1.7c0.2-0.7,0.5-1.5,0.8-2.4c0.5-1.7,1.4-3.1,2.5-4.3c1.1-1.1,2.4-1.6,4-1.6h1
	C31.4,4,32.2,4.2,32.9,4.5z"/>
<path class="st0" d="M38.5,4.4h4.7l-5.9,17.8h-4.7L38.5,4.4z M44.5,0.7L43.7,3H39l0.3-0.9c0.1-0.4,0.4-0.8,0.7-1
	c0.3-0.2,0.6-0.4,1-0.4H44.5z"/>
<path class="st0" d="M49.4,4c0.9,0,1.9,0.2,2.8,0.5c0.7,0.3,1.3,0.8,1.8,1.5c0.4,0.7,0.7,1.5,0.7,2.4c0,1.1-0.1,2.1-0.5,3.1h-3.9
	c-0.2,0-0.5-0.1-0.7-0.2c-0.2-0.2-0.3-0.4-0.2-0.8c0-0.1,0.1-0.2,0.1-0.3c0-0.1,0-0.2,0.1-0.3c0.1-0.3,0.1-0.7,0.1-1
	c0-0.3-0.2-0.4-0.5-0.4c-0.3,0-0.6,0.1-0.8,0.3c-0.2,0.2-0.3,0.4-0.4,0.6c-0.2,0.5-0.2,0.9,0,1.3c0.3,0.4,0.6,0.8,0.9,1
	c0.4,0.3,0.9,0.7,1.4,1c0.5,0.3,0.9,0.7,1.3,1.2c0.4,0.4,0.6,1,0.8,1.6c0.1,0.6,0.1,1.4-0.3,2.3c-0.3,0.8-0.6,1.5-1,2.2
	c-0.4,0.6-0.8,1.1-1.3,1.4c-0.6,0.4-1.2,0.6-1.8,0.8c-0.8,0.2-1.6,0.2-2.4,0.2c-0.9,0-1.9-0.2-2.8-0.5c-0.7-0.3-1.3-0.8-1.8-1.5
	c-0.4-0.7-0.7-1.5-0.7-2.4c-0.1-0.9,0.1-1.9,0.5-3.1h3.9c0.3,0,0.5,0.1,0.7,0.3c0.2,0.2,0.2,0.6,0,1.1l-0.1,0.3
	c-0.1,0.3-0.1,0.6-0.1,0.9c0,0.3,0.2,0.4,0.5,0.4c0.5,0,0.9-0.3,1.1-0.8C47,17,47,16.8,47,16.5c0-0.2-0.1-0.4-0.2-0.6
	c-0.3-0.4-0.6-0.8-0.9-1c-0.4-0.3-0.8-0.7-1.3-1c-0.5-0.3-0.9-0.7-1.3-1.2c-0.4-0.5-0.6-1-0.8-1.7c-0.1-0.6-0.1-1.4,0.3-2.3
	c0.2-0.8,0.6-1.5,1-2.2c0.4-0.6,0.8-1.1,1.3-1.4c0.6-0.4,1.2-0.6,1.8-0.8C47.8,4.1,48.6,4,49.4,4z"/>
<path class="st0" d="M56,21.8c-0.5-0.2-1-0.5-1.5-0.9c-0.3-0.3-0.6-0.8-0.8-1.3c-0.1-0.5-0.2-1.1-0.2-1.6c0-0.3,0-0.5,0.1-0.8
	c0-0.2,0.1-0.5,0.2-0.7l3.9-12.2h4.7l-3.5,11.7c-0.1,0.1-0.1,0.3-0.1,0.4c0,0.1,0,0.3,0.1,0.4c0.1,0.1,0.1,0.2,0.2,0.3
	c0.1,0.1,0.2,0.1,0.3,0.1c0.3,0,0.5-0.1,0.8-0.4c0.2-0.2,0.4-0.5,0.5-0.8l3.9-11.7h4.8l-5.8,17.8c-1,0-1.8,0-2.6,0h-2.6
	C57.6,22.2,56.8,22.1,56,21.8z"/>
<path class="st0" d="M75.7,8.9c-0.1,0.2-0.3,0.3-0.5,0.3c-0.2,0.1-0.4,0.1-0.7,0.1c-0.2,0-0.3,0-0.5,0.1l-4.2,12.8h-4.8L71,4.4h4.8
	c1.2,0,2.2,0.3,2.9,0.8L75.7,8.9z"/>
<path class="st0" d="M87.6,4.5c0.6,0.2,1.1,0.7,1.5,1.3c0.4,0.6,0.7,1.3,0.8,2c0.1,0.9,0.1,1.9-0.1,2.8l-0.1,0.2
	c-0.2,0.7-0.4,1.4-0.8,2.1c-0.3,0.6-0.7,1.2-1.2,1.6c-0.6,0.5-1.2,0.8-1.9,1c-0.9,0.3-1.8,0.4-2.7,0.4l1.5-5.7
	c0.1-0.1,0.1-0.3,0.1-0.4c0-0.1,0-0.3-0.1-0.4c-0.1-0.1-0.1-0.2-0.2-0.3C84.4,9,84.3,9,84.2,9c-0.3,0-0.6,0.1-0.8,0.3
	c-0.2,0.3-0.4,0.6-0.5,1l-2.1,6.5c-0.2,0.6-0.2,0.9-0.1,1.1c0.1,0.1,0.2,0.2,0.2,0.2c0.1,0,0.2,0.1,0.3,0c0.7,0,1.5,0,2.3,0
	c0.8,0,1.7-0.2,2.5-0.4h0c0,0,0,0,0,0c0,0,0,0,0,0c0.1,0,0.3-0.1,0.5-0.1c0.2,0,0.3,0,0.5,0c0.1,0,0.2,0.1,0.3,0.2
	c0.1,0.1,0.1,0.3,0,0.5c0,0,0,0.1,0,0.1c0,0,0,0.1,0,0.1c-0.3,0.8-0.7,1.5-1.1,2.1c-0.3,0.5-0.8,0.9-1.2,1.2c-0.5,0.3-1,0.5-1.5,0.6
	c-0.6,0.1-1.2,0.1-1.8,0.1h-2.2c-0.6,0-1.2-0.1-1.8-0.3c-0.5-0.2-1-0.6-1.4-1.2c-0.4-0.6-0.6-1.4-0.6-2.2c0-0.9,0.1-2,0.6-3.4
	c0.1-0.4,0.3-0.9,0.4-1.4c0.1-0.5,0.3-1,0.5-1.7c0.2-0.7,0.5-1.5,0.8-2.4c0.5-1.7,1.4-3.1,2.5-4.3c1.1-1.1,2.4-1.6,4-1.6h1
	C86.1,4,86.9,4.2,87.6,4.5z"/>
</svg>
