<?xml version="1.0" encoding="utf-8"?>
<!-- Generator: Adobe Illustrator 26.0.2, SVG Export Plug-In . SVG Version: 6.00 Build 0)  -->
<svg version="1.1" id="Layer_1" xmlns="http://www.w3.org/2000/svg" xmlns:xlink="http://www.w3.org/1999/xlink" x="0px" y="0px"
	 viewBox="0 0 90 25.2" style="enable-background:new 0 0 90 25.2;" xml:space="preserve">
<style type="text/css">
	.st0{fill:#FFFFFF;}
</style>
<g>
	<path class="st0" d="M0.7,16.1c-0.3,0-0.6-0.2-0.7-0.6c-0.1-0.4,0.1-0.8,0.5-0.9c0.2-0.1,5.1-1.4,5.1-7.6c0-0.4,0.3-0.7,0.7-0.7
		C6.7,6.3,7,6.6,7,7c0,7.4-6.2,9-6.3,9C0.9,16.1,0.8,16.1,0.7,16.1z"/>
	<path class="st0" d="M12.2,16.1c-0.1,0-0.1,0-0.2,0c-0.1,0-6.3-1.7-6.3-9c0-0.4,0.3-0.7,0.7-0.7c0.4,0,0.7,0.3,0.7,0.7
		c0,6.2,5.1,7.6,5.1,7.6c0.4,0.1,0.6,0.5,0.5,0.9C12.8,15.8,12.5,16.1,12.2,16.1z"/>
	<path class="st0" d="M54.4,23.7c-0.2,0-0.4-0.1-0.5-0.2c-0.3-0.3-0.3-0.8,0-1.1c0.1-0.1,5.9-6.1,5.9-15c0-0.4,0.3-0.7,0.7-0.7
		s0.7,0.3,0.7,0.7c0,9.5-6.1,15.8-6.3,16C54.7,23.6,54.5,23.7,54.4,23.7z"/>
	<path class="st0" d="M66.6,23.7c-0.2,0-0.4-0.1-0.5-0.2c-0.3-0.3-6.3-6.6-6.3-16c0-0.4,0.3-0.7,0.7-0.7s0.7,0.3,0.7,0.7
		c0,8.8,5.8,14.9,5.9,15c0.3,0.3,0.3,0.8,0,1.1C66.9,23.6,66.8,23.7,66.6,23.7z"/>
	<path class="st0" d="M73.6,16.1c-0.3,0-0.5-0.1-0.6-0.4c-0.2-0.4-0.1-0.8,0.3-1c0.1,0,4.6-2.8,4.6-7.3c0-0.4,0.3-0.7,0.7-0.7
		c0.4,0,0.7,0.3,0.7,0.7c0,5.4-5.1,8.5-5.3,8.6C73.9,16.1,73.8,16.1,73.6,16.1z"/>
	<path class="st0" d="M83.5,16.1c-0.1,0-0.3,0-0.4-0.1c-0.2-0.1-5.3-3.2-5.3-8.6c0-0.4,0.3-0.7,0.7-0.7c0.4,0,0.7,0.3,0.7,0.7
		c0,4.6,4.5,7.3,4.6,7.3c0.4,0.2,0.5,0.7,0.3,1C84,16,83.8,16.1,83.5,16.1z"/>
	<path class="st0" d="M14.6,18.5c0.1,0,0.1,0.1,0.1,0.1v4.2c0,0.1-0.1,0.1-0.1,0.1H2.9c-0.1,0-0.1-0.1-0.1-0.1v-4.2
		c0-0.1,0.1-0.1,0.1-0.1L14.6,18.5 M14.6,17H2.9c-0.9,0-1.6,0.7-1.6,1.6v4.2c0,0.9,0.7,1.6,1.6,1.6h11.7c0.9,0,1.6-0.7,1.6-1.6v-4.2
		C16.2,17.7,15.4,17,14.6,17L14.6,17z"/>
	<path class="st0" d="M33,7.5c0.3,0,0.6,0.3,0.6,0.6v3.4c0,0.3-0.3,0.6-0.6,0.6H21.8c-0.3,0-0.6-0.3-0.6-0.6V8.1
		c0-0.3,0.3-0.6,0.6-0.6L33,7.5 M33,6H21.8c-1.1,0-2.1,0.9-2.1,2.1v3.4c0,1.1,0.9,2.1,2.1,2.1H33c1.1,0,2.1-0.9,2.1-2.1V8.1
		C35.1,7,34.2,6,33,6L33,6z"/>
	<path class="st0" d="M37.9,9.8"/>
	<path class="st0" d="M32.7,24.8c-0.2,0-0.5-0.1-0.6-0.3c-0.2-0.3-0.2-0.8,0.2-1c1.5-1.1,1.6-3.2,1.6-4.2H20.1
		c-0.4,0-0.7-0.3-0.7-0.7c0-0.4,0.3-0.7,0.7-0.7h14.4c0.4,0,0.7,0.2,0.7,0.6c0,0.2,0.8,4.1-2.1,6.3C33,24.7,32.8,24.8,32.7,24.8z"/>
	<path class="st0" d="M42.8,23.3c-4.9,0-5.8-3.3-5.8-8.5s1-8.5,5.8-8.5s5.8,3.3,5.8,8.5S47.7,23.3,42.8,23.3z M42.8,7.8
		c-2.9,0-4.4,1-4.4,7s1.4,7,4.4,7c2.9,0,4.4-1,4.4-7S45.7,7.8,42.8,7.8z"/>
	<path class="st0" d="M80.8,25.2c-4.8,0-7.5-0.7-7.5-4s2.8-4,7.5-4c4.8,0,7.5,0.7,7.5,4S85.6,25.2,80.8,25.2z M80.8,18.7
		c-5.6,0-6.1,1-6.1,2.5s0.4,2.5,6.1,2.5c5.6,0,6.1-1,6.1-2.5C86.8,19.7,86.4,18.7,80.8,18.7z"/>
	<path class="st0" d="M83.2,8.1H74c-0.4,0-0.7-0.3-0.7-0.7s0.3-0.7,0.7-0.7h9.2c0.4,0,0.7,0.3,0.7,0.7S83.6,8.1,83.2,8.1z"/>
	<path class="st0" d="M34.8,16.6H19.9c-0.4,0-0.7-0.3-0.7-0.7c0-0.4,0.3-0.7,0.7-0.7h14.9c0.4,0,0.7,0.3,0.7,0.7
		C35.5,16.2,35.2,16.6,34.8,16.6z"/>
	<path class="st0" d="M69.8,24.5c-0.4,0-0.7-0.3-0.7-0.7V7.2l-8.4-5.6L52,7v16.2c0,0.4-0.3,0.7-0.7,0.7s-0.7-0.3-0.7-0.7V6.6
		c0-0.3,0.1-0.5,0.4-0.6l9.4-5.9c0.2-0.2,0.6-0.1,0.8,0l9.1,6.1c0.2,0.1,0.3,0.4,0.3,0.6v16.9C70.5,24.1,70.2,24.5,69.8,24.5z"/>
	<path class="st0" d="M27.5,16.6c-0.4,0-0.7-0.3-0.7-0.7v-1.1c0-0.4,0.3-0.7,0.7-0.7s0.7,0.3,0.7,0.7v1.1
		C28.2,16.2,27.9,16.6,27.5,16.6z"/>
	<path class="st0" d="M86.8,16.4c-0.4,0-0.7-0.3-0.7-0.7V6.8c0-0.4,0.3-0.7,0.7-0.7c0.4,0,0.7,0.3,0.7,0.7v8.9
		C87.6,16.1,87.3,16.4,86.8,16.4z"/>
	<circle class="st0" cx="89" cy="11.2" r="1"/>
	<path class="st0" d="M15,16.4c-0.4,0-0.7-0.3-0.7-0.7V7c0-0.4,0.3-0.7,0.7-0.7s0.7,0.3,0.7,0.7v8.7C15.7,16.1,15.4,16.4,15,16.4z"
		/>
	<circle class="st0" cx="17.2" cy="11.2" r="1"/>
	<circle class="st0" cx="53.7" cy="9.3" r="1"/>
	<circle class="st0" cx="53.7" cy="12.9" r="1"/>
</g>
</svg>
