<?xml version="1.0" encoding="utf-8"?>
<!-- Generator: Adobe Illustrator 26.0.1, SVG Export Plug-In . SVG Version: 6.00 Build 0)  -->
<svg version="1.1" id="Layer_1" xmlns="http://www.w3.org/2000/svg" xmlns:xlink="http://www.w3.org/1999/xlink" x="0px" y="0px"
	 viewBox="0 0 90 23" style="enable-background:new 0 0 90 23;" xml:space="preserve">
<style type="text/css">
	.st0{fill:#F3F3F3;}
</style>
<g>
	<g>
		<path class="st0" d="M0.8,12.3c-0.3,0-0.5-0.2-0.6-0.4c-0.1-0.3,0.1-0.7,0.4-0.8C0.8,11.1,5.8,9.4,5.8,3c0-0.3,0.3-0.6,0.6-0.6
			S7,2.6,7,3c0,3.9-1.6,6.2-3,7.5c-1.5,1.4-3,1.8-3.1,1.9C0.9,12.3,0.8,12.3,0.8,12.3z"/>
	</g>
	<g>
		<path class="st0" d="M12.1,12.3c-0.1,0-0.1,0-0.2,0c-0.1,0-6.1-1.9-6.1-9.3c0-0.3,0.3-0.6,0.6-0.6S7,2.6,7,3c0,6.5,5,8.1,5.2,8.2
			c0.3,0.1,0.5,0.4,0.4,0.8C12.6,12.1,12.3,12.3,12.1,12.3z"/>
	</g>
	<g>
		<path class="st0" d="M54.1,20.1c-0.1,0-0.3-0.1-0.4-0.2c-0.2-0.2-0.3-0.6,0-0.9c0.1-0.1,5.9-6.4,5.9-15.5c0-0.3,0.3-0.6,0.6-0.6
			s0.6,0.3,0.6,0.6c0,9.7-6,16.1-6.2,16.4C54.5,20,54.3,20.1,54.1,20.1z"/>
	</g>
	<g>
		<path class="st0" d="M66.2,20.1c-0.2,0-0.3-0.1-0.4-0.2c-0.3-0.3-6.2-6.7-6.2-16.4c0-0.3,0.3-0.6,0.6-0.6s0.6,0.3,0.6,0.6
			c0,9.2,5.8,15.5,5.9,15.5c0.2,0.2,0.2,0.6,0,0.9C66.5,20,66.4,20.1,66.2,20.1z"/>
	</g>
	<g>
		<path class="st0" d="M73,12.4c-0.2,0-0.4-0.1-0.5-0.3c-0.2-0.3-0.1-0.7,0.2-0.8c0.1,0,4.6-2.9,4.6-7.7c0-0.3,0.3-0.6,0.6-0.6
			c0.3,0,0.6,0.3,0.6,0.6c0,5.5-5,8.6-5.2,8.7C73.3,12.3,73.2,12.4,73,12.4z"/>
	</g>
	<g>
		<path class="st0" d="M82.8,12.4c-0.1,0-0.2,0-0.3-0.1c-0.2-0.1-5.2-3.2-5.2-8.7c0-0.3,0.3-0.6,0.6-0.6c0.3,0,0.6,0.3,0.6,0.6
			c0,4.8,4.6,7.6,4.6,7.7c0.3,0.2,0.4,0.5,0.2,0.8C83.2,12.3,83,12.4,82.8,12.4z"/>
	</g>
	<g>
		<path class="st0" d="M14.7,14.7c0.1,0,0.1,0,0.1,0.1v5c0,0.1,0,0.1-0.1,0.1H2.6c-0.1,0-0.1,0-0.1-0.1v-5c0-0.1,0-0.1,0.1-0.1H14.7
			 M14.7,13.4H2.6c-0.7,0-1.3,0.6-1.3,1.3v5c0,0.7,0.6,1.3,1.3,1.3h12.2c0.7,0,1.3-0.6,1.3-1.3v-5C16.1,14,15.5,13.4,14.7,13.4
			L14.7,13.4z"/>
	</g>
	<g>
		<path class="st0" d="M69.2,20.9c-0.3,0-0.6-0.3-0.6-0.6V3c0-0.3,0.3-0.6,0.6-0.6c0.3,0,0.6,0.3,0.6,0.6v17.4
			C69.8,20.7,69.5,20.9,69.2,20.9z"/>
	</g>
	<g>
		<path class="st0" d="M86.6,11.2c-0.3,0-0.6-0.3-0.6-0.6V3.1c0-0.3,0.3-0.6,0.6-0.6c0.3,0,0.6,0.3,0.6,0.6v7.5
			C87.2,10.9,86.9,11.2,86.6,11.2z"/>
	</g>
	<g>
		<path class="st0" d="M33.1,3.4c0.3,0,0.5,0.2,0.5,0.5v4.4c0,0.3-0.2,0.5-0.5,0.5H21.3c-0.3,0-0.5-0.2-0.5-0.5V3.8
			c0-0.3,0.2-0.5,0.5-0.5H33.1 M33.1,2.2H21.3c-0.9,0-1.7,0.8-1.7,1.7v4.4c0,0.9,0.8,1.7,1.7,1.7h11.9c0.9,0,1.7-0.8,1.7-1.7V3.8
			C34.8,2.9,34.1,2.2,33.1,2.2L33.1,2.2z"/>
	</g>
	<g>
		<path class="st0" d="M37.6,6"/>
	</g>
	<g>
		<path class="st0" d="M32.6,21.2c-0.2,0-0.4-0.1-0.5-0.2c-0.2-0.3-0.2-0.6,0.1-0.9c1.7-1.3,1.7-3.6,1.6-4.6H19.7
			c-0.3,0-0.6-0.3-0.6-0.6s0.3-0.6,0.6-0.6h14.7c0.3,0,0.5,0.2,0.6,0.5c0,0.2,0.8,4.1-2,6.3C32.9,21.2,32.8,21.2,32.6,21.2z"/>
	</g>
	<g id="Path_98_00000021080049157894496460000001300952445558054798_">
		<path class="st0" d="M42.5,19.7c-4.7,0-5.7-3.1-5.7-8.6c0-5.4,0.9-8.6,5.7-8.6s5.7,3.1,5.7,8.6C48.1,16.6,47.2,19.7,42.5,19.7z
			 M42.5,3.8c-3,0-4.4,1.1-4.4,7.4c0,6.3,1.4,7.4,4.4,7.4s4.4-1.1,4.4-7.4C46.9,4.9,45.5,3.8,42.5,3.8z"/>
	</g>
	<g id="Path_98_00000030474662677375515910000005794652401887021218_">
		<path class="st0" d="M80.1,21.6c-4.7,0-7.4-0.6-7.4-3.9s2.7-3.9,7.4-3.9s7.4,0.6,7.4,3.9S84.8,21.6,80.1,21.6z M80.1,15
			c-5.2,0-6.1,0.9-6.1,2.7c0,2.3,2,2.7,6.1,2.7c5.2,0,6.1-0.9,6.1-2.7C86.3,15.4,84.3,15,80.1,15z"/>
	</g>
	<g>
		<path class="st0" d="M86.6,12.6c-0.3,0-0.6-0.3-0.6-0.6V8.7c0-2.3,2.1-3.4,3.1-3.6c0.3-0.1,0.6,0.1,0.7,0.5
			c0.1,0.3-0.1,0.6-0.5,0.7c-0.1,0-2.2,0.5-2.2,2.4V12C87.2,12.3,86.9,12.6,86.6,12.6z"/>
	</g>
	<g>
		<path class="st0" d="M50.8,12.5c-0.3,0-0.6-0.3-0.6-0.6V8.7c0-2.3,2.2-3.4,3.3-3.6c0.3-0.1,0.6,0.2,0.7,0.5
			c0.1,0.3-0.2,0.6-0.5,0.7c-0.1,0-2.3,0.5-2.3,2.4v3.2C51.4,12.2,51.2,12.5,50.8,12.5z"/>
	</g>
	<g>
		<path class="st0" d="M14.6,12c-0.3,0-0.6-0.3-0.6-0.6V8.7c0-2.3,2.1-3.4,3.1-3.6c0.3-0.1,0.6,0.1,0.7,0.5c0.1,0.3-0.1,0.6-0.5,0.7
			c-0.1,0-2.2,0.5-2.2,2.4v2.7C15.3,11.7,15,12,14.6,12z"/>
	</g>
	<g>
		<path class="st0" d="M50.8,18.9c-0.3,0-0.6-0.3-0.6-0.6v-3.2c0-2.3,2.2-3.4,3.3-3.6c0.3-0.1,0.6,0.2,0.7,0.5
			c0.1,0.3-0.2,0.6-0.5,0.7l0,0c-0.1,0-2.3,0.5-2.3,2.4v3.2C51.4,18.6,51.2,18.9,50.8,18.9z"/>
	</g>
	<g>
		<path class="st0" d="M82.5,4.2h-9.1c-0.3,0-0.6-0.3-0.6-0.6S73.1,3,73.4,3h9.1c0.3,0,0.6,0.3,0.6,0.6S82.8,4.2,82.5,4.2z"/>
	</g>
	<g>
		<path class="st0" d="M34.5,12.8H19.7c-0.3,0-0.6-0.3-0.6-0.6c0-0.3,0.3-0.6,0.6-0.6h14.8c0.3,0,0.6,0.3,0.6,0.6
			C35.1,12.5,34.8,12.8,34.5,12.8z"/>
	</g>
	<g>
		<path class="st0" d="M14.6,12.1c-0.3,0-0.6-0.3-0.6-0.6V2.7c0-0.3,0.3-0.6,0.6-0.6c0.3,0,0.6,0.3,0.6,0.6v8.7
			C15.3,11.8,15,12.1,14.6,12.1z"/>
	</g>
	<g>
		<path class="st0" d="M50.8,20.5c-0.3,0-0.6-0.3-0.6-0.6V2.7c0-0.3,0.3-0.6,0.6-0.6c0.3,0,0.6,0.3,0.6,0.6v17.1
			C51.4,20.2,51.2,20.5,50.8,20.5z"/>
	</g>
	<g>
		<path class="st0" d="M27.3,12.8c-0.3,0-0.6-0.3-0.6-0.6v-1.1c0-0.3,0.3-0.6,0.6-0.6c0.3,0,0.6,0.3,0.6,0.6v1.1
			C27.9,12.5,27.6,12.8,27.3,12.8z"/>
	</g>
</g>
</svg>
