<svg width="90" height="22" viewBox="0 0 90 22" fill="none" xmlns="http://www.w3.org/2000/svg">
<path d="M13.8975 1.36557C14.4494 1.34797 14.9975 1.48359 15.5014 1.76246C15.9286 2.00321 16.2958 2.38133 16.5644 2.85733C16.8279 3.3393 16.9774 3.90248 16.9963 4.48366C17.0161 5.16934 16.9101 5.85167 16.6862 6.47951L15.4478 10.4461C15.0316 11.6255 14.4205 12.6845 13.6539 13.5551C12.8826 14.5062 11.9199 15.1858 10.8652 15.5235C10.3619 15.6883 9.84713 15.7937 9.32776 15.8383C8.8036 15.8839 8.25546 15.9067 7.67962 15.9067H6.72728L4.86874 21.4586H0L6.52796 1.35645L13.8975 1.36557ZM11.3745 7.21854C11.4319 7.08879 11.4628 6.94378 11.4648 6.79597C11.4667 6.64816 11.4395 6.50198 11.3856 6.37002C11.3279 6.25125 11.2444 6.15492 11.1445 6.092C11.0447 6.02909 10.9325 6.00212 10.8209 6.01419H9.95896L8.36619 10.8293H9.25024C9.53678 10.8203 9.81301 10.6953 10.0365 10.4735C10.281 10.2558 10.4756 9.96345 10.6012 9.62496L11.3745 7.21854Z" fill="url(#paint0_linear)"/>
<path d="M24.8604 0.0273444L17.7787 21.4684H13.0115L19.6557 1.36627C19.7919 0.963235 20.0235 0.620529 20.3201 0.383174C20.6021 0.150843 20.9335 0.0270193 21.2725 0.0273444H24.8604Z" fill="url(#paint1_linear)"/>
<path d="M32.8945 3.75993C33.4912 4.00547 34.0256 4.43952 34.4448 5.01903C34.843 5.5989 35.1031 6.30408 35.196 7.05593C35.3021 7.97765 35.2607 8.91617 35.0741 9.81817L35.0077 10.0463C34.8311 10.7871 34.5747 11.4952 34.2455 12.1516C33.9216 12.7845 33.4956 13.3281 32.9941 13.7483C32.4138 14.22 31.7747 14.5706 31.1024 14.7861C30.2307 15.0631 29.3354 15.2101 28.4354 15.2241L29.9858 9.50796C30.0435 9.38088 30.0748 9.23802 30.0767 9.09227C30.0787 8.94653 30.0512 8.80248 29.9968 8.67313C29.9367 8.55823 29.8523 8.46583 29.7528 8.40593C29.6532 8.34603 29.5423 8.3209 29.4321 8.33327C29.1499 8.30217 28.8678 8.39417 28.6348 8.59329C28.4208 8.86731 28.2616 9.19925 28.1697 9.5627L26.1118 16.0452C25.9494 16.6109 25.9273 16.9736 26.0343 17.1378C26.104 17.2264 26.189 17.2946 26.2829 17.3372C26.3768 17.3799 26.4773 17.3959 26.5769 17.3841C27.2856 17.3841 28.0565 17.375 28.8895 17.3568C29.7293 17.3375 30.5647 17.1997 31.3792 16.9462H31.4235C31.4383 16.9462 31.4457 16.9462 31.4457 16.9325C31.4457 16.9188 31.4457 16.9188 31.4678 16.9188C31.6175 16.8792 31.7692 16.8518 31.9218 16.8367C32.0728 16.8195 32.2251 16.8287 32.374 16.8641C32.4867 16.8879 32.5888 16.9607 32.6619 17.0694C32.721 17.1697 32.7136 17.3294 32.6398 17.5484C32.6378 17.5923 32.6263 17.6349 32.6065 17.6715C32.5896 17.6999 32.5783 17.7327 32.5733 17.7673C32.2703 18.5215 31.8954 19.2283 31.4567 19.8727C31.1123 20.3702 30.6954 20.7834 30.2275 21.0907C29.7653 21.3816 29.2657 21.5715 28.751 21.6518C28.139 21.7486 27.5224 21.7944 26.9054 21.7887H24.6759C24.0604 21.7921 23.4483 21.6767 22.8617 21.4465C22.3126 21.2408 21.8263 20.8355 21.4664 20.2832C21.0896 19.6529 20.8812 18.893 20.8703 18.1095C20.826 17.2062 21.0173 16.0802 21.4442 14.7314C21.5771 14.3117 21.7248 13.8304 21.8872 13.283C22.0348 12.8085 22.2157 12.2337 22.4298 11.5585C22.6439 10.8834 22.9004 10.0934 23.1994 9.18863C23.6999 7.52141 24.5557 6.05236 25.6762 4.93691C26.7689 3.87246 28.0971 3.34024 29.6609 3.34024H30.6336C31.401 3.32022 32.1656 3.46216 32.8945 3.75993Z" fill="url(#paint2_linear)"/>
<path d="M38.5494 3.66323H43.2834L37.4198 21.4684H32.684L38.5494 3.66323ZM44.4794 0L43.7264 2.29693H38.9905L39.2784 1.3663C39.4167 0.96062 39.6476 0.613475 39.9428 0.367232C40.2222 0.128616 40.5537 0.000551905 40.8933 0H44.4794Z" fill="url(#paint3_linear)"/>
<path d="M49.435 3.3354C50.3718 3.31021 51.3048 3.49093 52.1905 3.86915C52.8879 4.15929 53.5077 4.67994 53.9826 5.37459C54.4115 6.04694 54.6558 6.87067 54.6803 7.72627C54.7039 8.78385 54.5375 9.83475 54.193 10.8033H50.2766C50.0277 10.8108 49.7822 10.7318 49.5679 10.5752C49.3759 10.4231 49.3144 10.1585 49.3833 9.78142C49.424 9.67091 49.4573 9.55648 49.483 9.43928C49.5039 9.34157 49.5298 9.24557 49.5605 9.15187C49.6432 8.82546 49.6733 8.48215 49.6491 8.14141C49.6195 7.86769 49.4645 7.73083 49.1637 7.73083C48.8697 7.70122 48.5774 7.80862 48.3442 8.03192C48.1862 8.2059 48.0603 8.41982 47.9751 8.65918C47.7831 9.17012 47.7942 9.60807 48.0083 9.97302C48.2675 10.3885 48.5866 10.7412 48.9496 11.0131C49.3618 11.3386 49.8152 11.6708 50.3098 12.0099C50.784 12.3291 51.219 12.73 51.6018 13.2006C51.968 13.65 52.2316 14.211 52.3658 14.8269C52.5061 15.4565 52.4212 16.2168 52.1111 17.1079C51.8567 17.8944 51.5184 18.6354 51.1053 19.3113C50.7381 19.8924 50.2831 20.3797 49.7654 20.746C49.2044 21.1306 48.5947 21.3944 47.9622 21.5261C47.1614 21.69 46.3505 21.7664 45.5389 21.7542C44.603 21.7788 43.6707 21.6028 42.7833 21.2342C42.0857 20.9516 41.4653 20.4351 40.9912 19.7424C40.5629 19.0689 40.3157 18.2466 40.2844 17.3907C40.2327 16.4783 40.3982 15.4435 40.7808 14.2863H44.677C44.9391 14.262 45.1991 14.3596 45.406 14.56C45.5684 14.7425 45.5832 15.1227 45.4503 15.7005L45.3838 16.029C45.3133 16.3303 45.2944 16.6465 45.3285 16.9573C45.3654 17.2128 45.5241 17.3405 45.8046 17.3405C46.3509 17.3405 46.7201 17.0585 46.912 16.4943C46.9998 16.2951 47.042 16.0701 47.0342 15.8435C47.0264 15.6169 46.9689 15.3971 46.8677 15.2078C46.6161 14.7921 46.3029 14.4392 45.9449 14.1677C45.5389 13.8408 45.0965 13.504 44.6179 13.1573C44.1535 12.8255 43.7286 12.4155 43.3555 11.9392C42.9945 11.4763 42.7353 10.9071 42.6025 10.2855C42.4622 9.64684 42.5471 8.87207 42.8572 7.96121C43.0985 7.17214 43.4304 6.43007 43.8427 5.75779C44.2115 5.17426 44.67 4.68666 45.1919 4.32306C45.7574 3.94027 46.3705 3.67663 47.0061 3.54297C47.8092 3.38563 48.622 3.31617 49.435 3.3354Z" fill="url(#paint4_linear)"/>
<path d="M55.9739 21.14C55.4324 20.9722 54.9243 20.6695 54.4808 20.2504C54.1345 19.9157 53.8732 19.4653 53.7278 18.9525C53.593 18.4377 53.5403 17.8954 53.5728 17.3558C53.5894 17.1004 53.6115 16.8495 53.6392 16.6054C53.67 16.3575 53.722 16.1144 53.7943 15.88L57.67 3.65405H62.3819L58.8642 15.3874C58.8064 15.5116 58.7742 15.6514 58.7704 15.7945C58.7665 15.9377 58.7911 16.0798 58.842 16.2085C58.8932 16.3251 58.9707 16.4208 59.065 16.484C59.1594 16.5472 59.2666 16.5751 59.3736 16.5643C59.6527 16.5509 59.9208 16.4261 60.1376 16.2085C60.3752 16.001 60.5622 15.717 60.6784 15.3874L64.5542 3.65405H69.3953L63.576 21.4319C62.6015 21.4502 61.731 21.4593 60.9645 21.4593H58.3529C57.5519 21.4852 56.7518 21.3778 55.9739 21.14Z" fill="url(#paint5_linear)"/>
<path d="M75.6796 8.17785C75.5365 8.3326 75.3667 8.44494 75.1831 8.50631C74.9724 8.59311 74.7519 8.63853 74.5298 8.64089C74.3734 8.63079 74.2167 8.64923 74.0647 8.69563L69.8604 21.469H65.095L70.9604 3.66382H75.7165C76.9272 3.66382 77.9085 3.93754 78.6603 4.48497L75.6796 8.17785Z" fill="url(#paint6_linear)"/>
<path d="M87.641 3.75839C88.2372 4.00399 88.7711 4.43806 89.1895 5.01749C89.5894 5.59632 89.8502 6.30189 89.9425 7.05439C90.0487 7.97612 90.0073 8.91464 89.8207 9.81664L89.7543 10.0447C89.5779 10.786 89.3208 11.4943 88.9902 12.1501C88.667 12.7829 88.2417 13.3264 87.7407 13.7468C87.1602 14.218 86.5212 14.5686 85.849 14.7846C84.9767 15.0553 84.0814 15.1962 83.182 15.2043L84.7305 9.48819C84.7886 9.36124 84.82 9.21833 84.822 9.07251C84.8239 8.92669 84.7963 8.78259 84.7416 8.65335C84.6815 8.53846 84.5971 8.44605 84.4975 8.38615C84.398 8.32625 84.2871 8.30112 84.1768 8.31349C83.8952 8.28274 83.6138 8.37473 83.3814 8.57352C83.1674 8.84754 83.0082 9.17948 82.9163 9.54293L80.8584 16.0254C80.696 16.5911 80.6738 16.9538 80.7809 17.118C80.8506 17.2067 80.9356 17.2748 81.0295 17.3175C81.1234 17.3601 81.2239 17.3761 81.3235 17.3644C82.031 17.3644 82.8018 17.3552 83.6361 17.337C84.4759 17.3176 85.3112 17.1798 86.1258 16.9264H86.1701C86.183 16.9264 86.1922 16.9264 86.1922 16.9127C86.1922 16.8991 86.1922 16.8991 86.2144 16.8991C86.3635 16.8593 86.5145 16.8319 86.6666 16.8169C86.8182 16.7998 86.971 16.809 87.1206 16.8443C87.2333 16.8682 87.3354 16.941 87.4085 17.0496C87.4676 17.15 87.4602 17.3096 87.3864 17.5286C87.3844 17.5726 87.3729 17.6151 87.3531 17.6518C87.3362 17.6801 87.3249 17.7129 87.3199 17.7476C87.0191 18.5007 86.6474 19.2074 86.2125 19.8529C85.8681 20.3505 85.4512 20.7637 84.9834 21.0709C84.5209 21.3613 84.0214 21.5511 83.5069 21.6321C82.8948 21.7288 82.2782 21.7745 81.6613 21.7689H79.4207C78.8046 21.7726 78.1918 21.6572 77.6046 21.4268C77.0563 21.2204 76.5708 20.8151 76.2111 20.2635C75.833 19.6338 75.6239 18.8737 75.6132 18.0897C75.5689 17.1865 75.7608 16.0604 76.189 14.7116C76.3219 14.2919 76.4695 13.8106 76.6319 13.2632C76.7796 12.7887 76.9605 12.2139 77.1746 11.5388C77.3887 10.8636 77.6427 10.0797 77.9368 9.1871C78.4381 7.52041 79.2937 6.05161 80.4136 4.93537C81.5062 3.87092 82.8338 3.33869 84.3965 3.33869H85.3709C86.1415 3.31774 86.9092 3.45968 87.641 3.75839Z" fill="url(#paint7_linear)"/>
<defs>
<linearGradient id="paint0_linear" x1="0.67786" y1="0.145472" x2="27.2509" y2="9.94316" gradientUnits="userSpaceOnUse">
<stop stop-color="#0ACF83"/>
<stop offset="1" stop-color="#10FF26"/>
</linearGradient>
<linearGradient id="paint1_linear" x1="13.484" y1="-1.26429" x2="33.3702" y2="3.52744" gradientUnits="userSpaceOnUse">
<stop stop-color="#0ACF83"/>
<stop offset="1" stop-color="#10FF26"/>
</linearGradient>
<linearGradient id="paint2_linear" x1="21.4378" y1="2.22689" x2="44.3415" y2="10.0152" gradientUnits="userSpaceOnUse">
<stop stop-color="#0ACF83"/>
<stop offset="1" stop-color="#10FF26"/>
</linearGradient>
<linearGradient id="paint3_linear" x1="33.1543" y1="-1.29328" x2="52.9633" y2="3.45225" gradientUnits="userSpaceOnUse">
<stop stop-color="#0ACF83"/>
<stop offset="1" stop-color="#10FF26"/>
</linearGradient>
<linearGradient id="paint4_linear" x1="40.8497" y1="2.22239" x2="63.7691" y2="10.037" gradientUnits="userSpaceOnUse">
<stop stop-color="#0ACF83"/>
<stop offset="1" stop-color="#10FF26"/>
</linearGradient>
<linearGradient id="paint5_linear" x1="54.1948" y1="2.58122" x2="78.6361" y2="12.055" gradientUnits="userSpaceOnUse">
<stop stop-color="#0ACF83"/>
<stop offset="1" stop-color="#10FF26"/>
</linearGradient>
<linearGradient id="paint6_linear" x1="65.6359" y1="2.59122" x2="87.3306" y2="9.79806" gradientUnits="userSpaceOnUse">
<stop stop-color="#0ACF83"/>
<stop offset="1" stop-color="#10FF26"/>
</linearGradient>
<linearGradient id="paint7_linear" x1="76.1809" y1="2.22627" x2="99.0845" y2="10.0241" gradientUnits="userSpaceOnUse">
<stop stop-color="#0ACF83"/>
<stop offset="1" stop-color="#10FF26"/>
</linearGradient>
</defs>
</svg>
