<svg width="90" height="23" viewBox="0 0 90 23" fill="none" xmlns="http://www.w3.org/2000/svg">
<path d="M13.8975 2.06662C14.4494 2.04902 14.9975 2.18464 15.5014 2.46351C15.9286 2.70426 16.2958 3.08238 16.5644 3.55838C16.8279 4.04035 16.9774 4.60353 16.9963 5.18471C17.0161 5.87038 16.9101 6.55272 16.6862 7.18056L15.4478 11.1472C15.0316 12.3266 14.4205 13.3855 13.6539 14.2561C12.8826 15.2073 11.9199 15.8868 10.8652 16.2246C10.3619 16.3894 9.84713 16.4948 9.32776 16.5394C8.8036 16.585 8.25546 16.6078 7.67962 16.6078H6.72728L4.86874 22.1597H0L6.52796 2.0575L13.8975 2.06662ZM11.3745 7.91959C11.4319 7.78984 11.4628 7.64483 11.4648 7.49702C11.4667 7.34921 11.4395 7.20303 11.3856 7.07107C11.3279 6.9523 11.2444 6.85597 11.1445 6.79305C11.0447 6.73014 10.9325 6.70317 10.8209 6.71524H9.95896L8.36619 11.5304H9.25024C9.53678 11.5214 9.81301 11.3964 10.0365 11.1745C10.281 10.9569 10.4756 10.6645 10.6012 10.326L11.3745 7.91959Z" fill="#F3F3F3"/>
<path d="M24.8604 0.728638L17.7787 22.1697H13.0115L19.6557 2.06756C19.7919 1.66453 20.0235 1.32182 20.3201 1.08447C20.6021 0.852137 20.9335 0.728313 21.2725 0.728638H24.8604Z" fill="#F3F3F3"/>
<path d="M32.8945 4.46098C33.4912 4.70652 34.0256 5.14057 34.4448 5.72008C34.843 6.29995 35.1031 7.00513 35.196 7.75698C35.3021 8.6787 35.2607 9.61722 35.0741 10.5192L35.0077 10.7473C34.8311 11.4881 34.5747 12.1963 34.2455 12.8526C33.9216 13.4856 33.4956 14.0291 32.9941 14.4493C32.4138 14.921 31.7747 15.2716 31.1024 15.4872C30.2307 15.7641 29.3354 15.9111 28.4354 15.9251L29.9858 10.209C30.0435 10.0819 30.0748 9.93907 30.0767 9.79332C30.0787 9.64758 30.0512 9.50353 29.9968 9.37418C29.9367 9.25928 29.8523 9.16688 29.7528 9.10698C29.6532 9.04708 29.5423 9.02195 29.4321 9.03432C29.1499 9.00322 28.8678 9.09521 28.6348 9.29434C28.4208 9.56836 28.2616 9.9003 28.1697 10.2638L26.1118 16.7463C25.9494 17.3119 25.9273 17.6746 26.0343 17.8388C26.104 17.9275 26.189 17.9956 26.2829 18.0383C26.3768 18.0809 26.4773 18.0969 26.5769 18.0852C27.2856 18.0852 28.0565 18.0761 28.8895 18.0578C29.7293 18.0385 30.5647 17.9008 31.3792 17.6472H31.4235C31.4383 17.6472 31.4457 17.6472 31.4457 17.6335C31.4457 17.6199 31.4457 17.6199 31.4678 17.6199C31.6175 17.5803 31.7692 17.5528 31.9218 17.5377C32.0728 17.5206 32.2251 17.5298 32.374 17.5651C32.4867 17.589 32.5888 17.6618 32.6619 17.7704C32.721 17.8708 32.7136 18.0304 32.6398 18.2494C32.6378 18.2934 32.6263 18.3359 32.6065 18.3726C32.5896 18.4009 32.5783 18.4337 32.5733 18.4684C32.2703 19.2226 31.8954 19.9294 31.4567 20.5737C31.1123 21.0713 30.6954 21.4844 30.2275 21.7917C29.7653 22.0827 29.2657 22.2725 28.751 22.3529C28.139 22.4497 27.5224 22.4954 26.9054 22.4897H24.6759C24.0604 22.4932 23.4483 22.3778 22.8617 22.1476C22.3126 21.9419 21.8263 21.5365 21.4664 20.9843C21.0896 20.3539 20.8812 19.5941 20.8703 18.8105C20.826 17.9073 21.0173 16.7812 21.4442 15.4324C21.5771 15.0127 21.7248 14.5314 21.8872 13.984C22.0348 13.5096 22.2157 12.9348 22.4298 12.2596C22.6439 11.5844 22.9004 10.7945 23.1994 9.88968C23.6999 8.22246 24.5557 6.75341 25.6762 5.63796C26.7689 4.57351 28.0971 4.04128 29.6609 4.04128H30.6336C31.401 4.02127 32.1656 4.16321 32.8945 4.46098Z" fill="#F3F3F3"/>
<path d="M38.5495 4.3644H43.2835L37.42 22.1696H32.6841L38.5495 4.3644ZM44.4795 0.701172L43.7265 2.99811H38.9906L39.2785 2.06747C39.4168 1.66179 39.6477 1.31465 39.9429 1.0684C40.2223 0.829788 40.5538 0.701724 40.8934 0.701172H44.4795Z" fill="#F3F3F3"/>
<path d="M49.435 4.03658C50.3718 4.01138 51.3048 4.1921 52.1905 4.57032C52.8879 4.86046 53.5077 5.38111 53.9826 6.07576C54.4115 6.74811 54.6558 7.57184 54.6803 8.42744C54.7039 9.48502 54.5375 10.5359 54.193 11.5045H50.2766C50.0277 11.512 49.7822 11.4329 49.5679 11.2764C49.3759 11.1243 49.3144 10.8597 49.3833 10.4826C49.424 10.3721 49.4573 10.2577 49.483 10.1404C49.5039 10.0427 49.5298 9.94675 49.5605 9.85304C49.6432 9.52663 49.6733 9.18332 49.6491 8.84258C49.6195 8.56886 49.4645 8.432 49.1637 8.432C48.8697 8.40239 48.5774 8.5098 48.3442 8.73309C48.1862 8.90707 48.0603 9.12099 47.9751 9.36035C47.7831 9.87129 47.7942 10.3092 48.0083 10.6742C48.2675 11.0897 48.5866 11.4423 48.9496 11.7143C49.3618 12.0397 49.8152 12.372 50.3098 12.7111C50.784 13.0303 51.219 13.4312 51.6018 13.9018C51.968 14.3511 52.2316 14.9122 52.3658 15.5281C52.5061 16.1576 52.4212 16.918 52.1111 17.8091C51.8567 18.5956 51.5184 19.3366 51.1053 20.0125C50.7381 20.5936 50.2831 21.0809 49.7654 21.4472C49.2044 21.8317 48.5947 22.0955 47.9622 22.2273C47.1614 22.3912 46.3505 22.4675 45.5389 22.4554C44.603 22.4799 43.6707 22.304 42.7833 21.9353C42.0857 21.6527 41.4653 21.1363 40.9912 20.4436C40.5629 19.77 40.3157 18.9477 40.2844 18.0919C40.2327 17.1795 40.3982 16.1447 40.7808 14.9875H44.677C44.9391 14.9632 45.1991 15.0608 45.406 15.2612C45.5684 15.4437 45.5832 15.8239 45.4503 16.4017L45.3838 16.7302C45.3133 17.0315 45.2944 17.3477 45.3285 17.6585C45.3654 17.914 45.5241 18.0417 45.8046 18.0417C46.3509 18.0417 46.7201 17.7596 46.912 17.1955C46.9998 16.9963 47.042 16.7713 47.0342 16.5447C47.0264 16.318 46.9689 16.0983 46.8677 15.909C46.6161 15.4933 46.3029 15.1404 45.9449 14.8689C45.5389 14.542 45.0965 14.2051 44.6179 13.8584C44.1535 13.5266 43.7286 13.1167 43.3555 12.6404C42.9945 12.1775 42.7353 11.6082 42.6025 10.9867C42.4622 10.348 42.5471 9.57325 42.8572 8.66238C43.0985 7.87331 43.4304 7.13124 43.8427 6.45896C44.2115 5.87544 44.67 5.38783 45.1919 5.02423C45.7574 4.64144 46.3705 4.3778 47.0061 4.24414C47.8092 4.08681 48.622 4.01735 49.435 4.03658Z" fill="#F3F3F3"/>
<path d="M55.9739 21.8413C55.4324 21.6735 54.9243 21.3708 54.4808 20.9517C54.1345 20.617 53.8732 20.1665 53.7278 19.6538C53.593 19.139 53.5403 18.5967 53.5728 18.0571C53.5894 17.8017 53.6115 17.5508 53.6392 17.3067C53.67 17.0588 53.722 16.8157 53.7943 16.5813L57.67 4.35535H62.3819L58.8642 16.0887C58.8064 16.2129 58.7742 16.3527 58.7704 16.4958C58.7665 16.639 58.7911 16.7811 58.842 16.9098C58.8932 17.0264 58.9707 17.1221 59.065 17.1853C59.1594 17.2484 59.2666 17.2764 59.3736 17.2656C59.6527 17.2522 59.9208 17.1274 60.1376 16.9098C60.3752 16.7023 60.5622 16.4183 60.6784 16.0887L64.5542 4.35535H69.3953L63.576 22.1332C62.6015 22.1515 61.731 22.1606 60.9645 22.1606H58.3529C57.5519 22.1865 56.7518 22.0791 55.9739 21.8413Z" fill="#F3F3F3"/>
<path d="M75.6796 8.87903C75.5365 9.03378 75.3667 9.14611 75.1831 9.20748C74.9724 9.29428 74.7519 9.3397 74.5298 9.34206C74.3734 9.33196 74.2167 9.3504 74.0647 9.3968L69.8604 22.1702H65.095L70.9604 4.36499H75.7165C76.9272 4.36499 77.9085 4.63871 78.6603 5.18614L75.6796 8.87903Z" fill="#F3F3F3"/>
<path d="M87.641 4.45956C88.2372 4.70517 88.7711 5.13924 89.1895 5.71866C89.5894 6.29749 89.8502 7.00306 89.9425 7.75557C90.0487 8.67729 90.0073 9.61581 89.8207 10.5178L89.7543 10.7459C89.5779 11.4872 89.3208 12.1954 88.9902 12.8512C88.667 13.4841 88.2417 14.0276 87.7407 14.4479C87.1602 14.9192 86.5212 15.2698 85.849 15.4858C84.9767 15.7564 84.0814 15.8973 83.182 15.9055L84.7305 10.1894C84.7886 10.0624 84.82 9.9195 84.822 9.77368C84.8239 9.62786 84.7963 9.48376 84.7416 9.35453C84.6815 9.23963 84.5971 9.14723 84.4975 9.08732C84.398 9.02742 84.2871 9.00229 84.1768 9.01466C83.8952 8.98391 83.6138 9.0759 83.3814 9.27469C83.1674 9.54871 83.0082 9.88065 82.9163 10.2441L80.8584 16.7266C80.696 17.2923 80.6738 17.655 80.7809 17.8192C80.8506 17.9079 80.9356 17.976 81.0295 18.0187C81.1234 18.0613 81.2239 18.0773 81.3235 18.0655C82.031 18.0655 82.8018 18.0564 83.6361 18.0382C84.4759 18.0188 85.3112 17.881 86.1258 17.6276H86.1701C86.183 17.6276 86.1922 17.6276 86.1922 17.6139C86.1922 17.6002 86.1922 17.6002 86.2144 17.6002C86.3635 17.5605 86.5145 17.533 86.6666 17.5181C86.8182 17.501 86.971 17.5102 87.1206 17.5455C87.2333 17.5693 87.3354 17.6421 87.4085 17.7508C87.4676 17.8511 87.4602 18.0108 87.3864 18.2298C87.3844 18.2738 87.3729 18.3163 87.3531 18.3529C87.3362 18.3813 87.3249 18.4141 87.3199 18.4487C87.0191 19.2019 86.6474 19.9086 86.2125 20.5541C85.8681 21.0516 85.4512 21.4648 84.9834 21.7721C84.5209 22.0624 84.0214 22.2522 83.5069 22.3332C82.8948 22.43 82.2782 22.4757 81.6613 22.4701H79.4207C78.8046 22.4738 78.1918 22.3584 77.6046 22.128C77.0563 21.9216 76.5708 21.5163 76.2111 20.9647C75.833 20.335 75.6239 19.5749 75.6132 18.7909C75.5689 17.8876 75.7608 16.7616 76.189 15.4128C76.3219 14.9931 76.4695 14.5118 76.6319 13.9644C76.7796 13.4899 76.9605 12.9151 77.1746 12.24C77.3887 11.5648 77.6427 10.7809 77.9368 9.88827C78.4381 8.22158 79.2937 6.75278 80.4136 5.63654C81.5062 4.57209 82.8338 4.03987 84.3965 4.03987H85.3709C86.1415 4.01891 86.9092 4.16085 87.641 4.45956Z" fill="#F3F3F3"/>
</svg>
