<?xml version="1.0" encoding="utf-8"?>
<!-- Generator: Adobe Illustrator 26.0.1, SVG Export Plug-In . SVG Version: 6.00 Build 0)  -->
<svg version="1.1" id="Layer_1" xmlns="http://www.w3.org/2000/svg" xmlns:xlink="http://www.w3.org/1999/xlink" x="0px" y="0px"
	 viewBox="0 0 375 392.2" style="enable-background:new 0 0 375 392.2;" xml:space="preserve">
<style type="text/css">
	.st0{clip-path:url(#SVGID_00000055708181972410297860000001031581789816136126_);}
	.st1{opacity:0.3;enable-background:new    ;}
	.st2{fill:#003B60;}
	.st3{fill:#D8BA3F;}
	.st4{fill:#FFDF40;}
	.st5{fill:#00618E;}
	.st6{fill:#004E70;}
	.st7{fill:none;stroke:#FFFFFF;stroke-linecap:round;stroke-miterlimit:10;}
	.st8{fill:#0D314B;}
	.st9{fill:#005877;}
	.st10{fill:#96884D;}
	.st11{fill:#EACB49;}
	.st12{fill:#AF3A20;}
	.st13{opacity:0.2;fill:#01283B;enable-background:new    ;}
	.st14{opacity:0.5;fill:#01283B;enable-background:new    ;}
	.st15{fill:#FFEC9E;}
	.st16{fill:#FF7629;}
	.st17{fill:#1D455E;}
	.st18{fill:#050F1E;}
	.st19{opacity:0.2;fill:#0C2630;enable-background:new    ;}
	.st20{fill:#0C0E23;}
	.st21{fill:#FFFFFF;}
	.st22{opacity:0.5;fill:#01011E;enable-background:new    ;}
</style>
<g>
	<g id="Layer_2_00000123416217816649004060000004432867672484565638_">
		<g id="일러스트">
			<g>
				<defs>
					<rect id="SVGID_1_" y="-21.6" width="375" height="422.4"/>
				</defs>
				<clipPath id="SVGID_00000178899597095026835800000009050350889728716455_">
					<use xlink:href="#SVGID_1_"  style="overflow:visible;"/>
				</clipPath>
				<g style="clip-path:url(#SVGID_00000178899597095026835800000009050350889728716455_);">
					<ellipse class="st1" cx="205.9" cy="360" rx="224.9" ry="32.2"/>
					<rect x="225.3" y="172.6" class="st2" width="40.9" height="31.1"/>
					<path class="st3" d="M271.9,203.7c13.9,0,25.1-11.9,25.1-26.5s-11.2-26.5-25.1-26.5h-5.3v53.1H271.9z"/>
					<path class="st4" d="M266.6,150.7c13.9,0,25.1,11.9,25.1,26.5s-11.2,26.5-25.1,26.5"/>
					<path class="st4" d="M266.6,203.7c-13.9,0-25.1-11.9-25.1-26.5s11.2-26.5,25.1-26.5"/>
					<polygon class="st5" points="225.3,172.6 225.3,203.7 296.4,203.7 296.4,172.6 356.6,203.7 356.6,359.2 169.4,359.2 
						169.4,203.7 					"/>
					<polygon class="st6" points="296.4,172.6 348.6,172.6 406.7,203.7 355.9,203.7 					"/>
					<rect x="356.6" y="203.7" class="st2" width="50.2" height="155.4"/>
					<path class="st4" d="M189,220.1h150.9c2.1,0,3.9,1.7,3.9,3.9v30.5c0,2.1-1.7,3.9-3.9,3.9H189c-2.1,0-3.9-1.7-3.9-3.9V224
						C185.1,221.9,186.9,220.1,189,220.1z"/>
					<path class="st4" d="M303.6,270.4h36.2c2.1,0,3.9,1.7,3.9,3.9v30.5c0,2.1-1.7,3.9-3.9,3.9h-36.2c-2.1,0-3.9-1.7-3.9-3.9v-30.5
						C299.8,272.1,301.5,270.4,303.6,270.4z"/>
					<path class="st4" d="M188.3,270.4h96.3c2.1,0,3.9,1.7,3.9,3.9v30.5c0,2.1-1.7,3.9-3.9,3.9h-96.3c-2.1,0-3.9-1.7-3.9-3.9v-30.5
						C184.4,272.1,186.1,270.4,188.3,270.4z"/>
					<path class="st7" d="M191.5,222.3c-2.3,0-4.1,1.8-4.1,4.1"/>
					<path class="st7" d="M191.5,273.4c-2.3,0-4.1,1.8-4.1,4.1"/>
					<path class="st7" d="M307.6,273.4c-2.3,0-4.1,1.8-4.1,4.1"/>
					<path class="st4" d="M132.4,141.6c0.6,0.9,0.6,2,0.1,2.9c0,0.1,0,0.1,0.1,0.1c0.9-0.5,2.1-0.5,3,0.2c0,0,0.1,0,0.1,0
						c0,0,0-0.1,0-0.1l0,0c-0.6-0.9-0.7-2.1-0.1-3c0,0,0-0.1-0.1-0.1c-0.9,0.5-2.1,0.5-3-0.2c0,0-0.1,0-0.1,0
						S132.3,141.6,132.4,141.6z"/>
					<path class="st4" d="M103.5,217.9c0.6,0.9,0.6,2,0.1,2.9c0,0.1,0,0.1,0.1,0.1c0.9-0.5,2.1-0.5,3,0.2 M106.7,221
						c-0.6-0.9-0.7-2.1-0.1-3c0,0,0-0.1-0.1-0.1c-0.9,0.5-2.1,0.5-3-0.2c0,0-0.1,0-0.1,0c0,0,0,0.1,0,0.1L106.7,221z"/>
					<path class="st4" d="M47.5,170.4c-0.3,1-1.3,1.7-2.3,1.8c0,0-0.1,0-0.1,0.1c0,0,0,0.1,0.1,0.1c1,0.4,1.6,1.4,1.6,2.5
						c0,0,0,0,0.1,0c0,0,0,0,0,0c0.3-1,1.3-1.7,2.3-1.8c0,0,0-0.1,0-0.1c0,0,0,0,0,0C48.3,172.5,47.6,171.5,47.5,170.4
						C47.6,170.4,47.6,170.4,47.5,170.4C47.6,170.4,47.5,170.4,47.5,170.4z"/>
					<path class="st4" d="M308.1,108.3c-0.5,1.5-1.9,2.6-3.5,2.8c0,0-0.1,0.1,0,0.1c0,0,0,0,0,0c1.5,0.7,2.4,2.1,2.4,3.8
						c0,0,0,0.1,0.1,0.1c0,0,0.1,0,0.1-0.1c0.5-1.5,1.9-2.6,3.5-2.8c0,0,0.1-0.1,0.1-0.1c0,0,0,0-0.1-0.1c-1.5-0.7-2.4-2.1-2.4-3.8
						C308.3,108.3,308.2,108.2,308.1,108.3C308.1,108.3,308.1,108.3,308.1,108.3z"/>
					<path class="st4" d="M139.3,18.3c-0.5,1.5-1.9,2.6-3.5,2.8c0,0-0.1,0.1-0.1,0.1c0,0,0,0,0.1,0.1c1.5,0.7,2.4,2.1,2.4,3.8
						c0,0,0,0.1,0.1,0.1s0.1,0,0.1-0.1c0.5-1.5,1.9-2.6,3.5-2.8c0,0,0.1-0.1,0-0.1c0,0,0,0,0,0c-1.5-0.7-2.4-2.1-2.4-3.8
						C139.5,18.2,139.4,18.2,139.3,18.3C139.3,18.2,139.3,18.3,139.3,18.3z"/>
					<path class="st4" d="M231.2,124.1c0.2,0.7,0,1.4-0.5,1.8c0,0,0,0.1,0,0.1c0.7-0.1,1.4,0.1,1.8,0.7c0,0,0.1,0,0.1,0
						c-0.2-0.7,0-1.4,0.5-1.8 M233,124.8c-0.7,0.1-1.4-0.1-1.8-0.7c0,0-0.1,0-0.1,0L233,124.8z"/>
					<path class="st4" d="M219.3,59.9c0.2,0.7,0,1.4-0.5,1.8 M218.8,61.8c0.7-0.1,1.4,0.1,1.8,0.7c0,0,0.1,0,0.1,0
						c-0.2-0.7,0-1.4,0.5-1.8c0,0,0-0.1,0-0.1c-0.7,0.1-1.4-0.1-1.8-0.7L218.8,61.8z"/>
					<path class="st4" d="M350.8,147.9c-0.4,0.6-1.1,0.9-1.7,0.8c0,0-0.1,0,0,0.1c0.5,0.4,0.8,1.1,0.6,1.8 M349.7,150.5
						c0.4-0.6,1.1-0.9,1.7-0.8c0,0,0.1,0,0-0.1c-0.5-0.4-0.8-1.1-0.6-1.8c0,0,0,0-0.1,0L349.7,150.5z"/>
					<path class="st4" d="M322,56c-0.4,0.6-1.1,0.9-1.7,0.8c0,0-0.1,0,0,0.1c0.5,0.4,0.8,1.1,0.6,1.8c0,0,0,0.1,0.1,0
						c0.4-0.6,1.1-0.9,1.7-0.8c0,0,0.1,0,0-0.1C322.1,57.4,321.9,56.7,322,56L322,56z"/>
					<path class="st4" d="M23.9,81.4c0.3,1,0,2.1-0.8,2.9c0,0,0,0.1,0,0.1c1.1-0.2,2.2,0.2,2.8,1c0,0,0.1,0,0.1,0c0,0,0,0,0,0
						c-0.3-1,0-2.1,0.8-2.9c0,0,0-0.1,0-0.1c0,0,0,0,0,0c-1,0.2-2.1-0.1-2.8-1C24,81.4,24,81.4,23.9,81.4
						C23.9,81.4,23.9,81.4,23.9,81.4L23.9,81.4z"/>
					<path class="st4" d="M318.6,0.1c0.3,1,0,2.1-0.8,2.9c0,0,0,0.1,0,0.1c0,0,0,0,0,0c1-0.2,2.1,0.2,2.8,1c0,0,0,0,0.1,0
						c0,0,0,0,0,0c-0.3-1,0-2.1,0.8-2.9c0,0,0-0.1,0-0.1c0,0,0,0,0,0C320.4,1.3,319.3,0.9,318.6,0.1C318.6,0.1,318.6,0,318.6,0.1
						C318.6,0.1,318.6,0.1,318.6,0.1z"/>
					<rect x="-1.7" y="279.2" class="st8" width="109.9" height="87.1"/>
					<polygon class="st6" points="80.9,248.7 54.6,248.8 108.2,279.2 135.3,279.1 					"/>
					<path class="st9" d="M-1.7,366.3L-1.7,366.3v-87.1h55C55.1,315.2,30.5,370.3-1.7,366.3z"/>
					<path class="st5" d="M-1.7,366.3L-1.7,366.3v-87.1h55C53.2,309.5,28.6,366.3-1.7,366.3z"/>
					<path class="st5" d="M108.2,366.3L108.2,366.3v-87.1h-55C53.2,309.5,77.8,366.3,108.2,366.3z"/>
					<rect x="108.2" y="279.2" class="st2" width="25.4" height="87.1"/>
					<circle class="st10" cx="10.3" cy="318.8" r="3.5"/>
					<path class="st4" d="M10,315.2c1.9,0,3.5,1.6,3.5,3.5s-1.6,3.5-3.5,3.5"/>
					<path class="st11" d="M10,322.1c-1.9,0-3.5-1.6-3.5-3.5s1.6-3.5,3.5-3.5"/>
					<circle class="st10" cx="10.3" cy="306.6" r="3.5"/>
					<path class="st4" d="M10,303c1.9,0,3.5,1.6,3.5,3.5s-1.6,3.5-3.5,3.5"/>
					<path class="st11" d="M10,309.9c-1.9,0-3.5-1.6-3.5-3.5S8.1,303,10,303"/>
					<polygon class="st5" points="54.6,248.8 -4.3,279.2 113.6,279.2 					"/>
					<rect x="-1.7" y="279.2" class="st12" width="109.9" height="2.4"/>
					<polygon class="st13" points="108.2,366.3 53.2,281.8 108.2,281.8 					"/>
					<path class="st14" d="M114,281.4H-1.7v2.5l0,0c0,0,0,0.1,0,0.1v6.4c0,2.5,2,4.5,4.4,4.5c0,0,0,0,0,0l0,0c2.5,0,4.4-2,4.5-4.5
						l0,0c0,2.5,2,4.5,4.4,4.5c0,0,0,0,0,0l0,0c2.5,0,4.4-2,4.4-4.5l0,0c0,2.5,2,4.5,4.4,4.5c0,0,0,0,0,0l0,0c2.5,0,4.5-2,4.5-4.4
						c0,0,0,0,0,0c0,2.5,2,4.5,4.5,4.5s4.5-2,4.5-4.5l0,0c0,2.5,2,4.5,4.5,4.5s4.5-2,4.5-4.5l0,0c0,2.5,2,4.5,4.5,4.5s4.5-2,4.5-4.5
						l0,0c0,2.5,2,4.5,4.5,4.5s4.5-2,4.5-4.5l0,0c0,2.5,2,4.5,4.4,4.5c2.5,0,4.5-2,4.5-4.5l0,0c0,2.5,2,4.5,4.4,4.5h0l0,0
						c2.4,0,4.4-2,4.4-4.5c0,2.5,2,4.5,4.4,4.5h0l0,0c2.5,0,4.4-2,4.4-4.5l0,0c0,2.5,2,4.5,4.4,4.5h0l0,0c2.5,0,4.5-2,4.5-4.5
						c0,2.5,2,4.5,4.5,4.5c2.5,0,4.4-2,4.4-4.5l0,0c0,2.5,2,4.5,4.5,4.5c2.5,0,4.4-2,4.4-4.5l0,0v-6.3c0,0,0-0.1,0-0.1l0,0
						L114,281.4z M7.2,283.9L7.2,283.9c0,0,0,0.1,0,0.1S7.2,284,7.2,283.9z M16.1,283.9L16.1,283.9c0,0,0,0.1,0,0.1
						S16.1,284,16.1,283.9z M25,283.9L25,283.9c0,0,0,0.1,0,0.1C25,284,25,284,25,283.9L25,283.9z M33.9,283.9L33.9,283.9
						c0,0,0,0.1,0,0.1C33.9,284,33.9,284,33.9,283.9z M42.8,283.9L42.8,283.9c0,0,0,0.1,0,0.1C42.8,284,42.8,284,42.8,283.9z
						 M51.7,283.9L51.7,283.9c0,0,0,0.1,0,0.1C51.7,284,51.7,284,51.7,283.9z M60.6,283.9L60.6,283.9c0,0,0,0.1,0,0.1
						C60.6,284,60.6,284,60.6,283.9z M69.5,283.9L69.5,283.9c0,0,0,0.1,0,0.1C69.5,284,69.5,284,69.5,283.9z M78.4,283.9L78.4,283.9
						c0,0,0,0.1,0,0.1C78.4,284,78.4,284,78.4,283.9z M87.3,283.9L87.3,283.9c0,0,0,0.1,0,0.1C87.3,284,87.3,284,87.3,283.9z
						 M96.2,283.9L96.2,283.9c0,0,0,0.1,0,0.1C96.2,284,96.2,284,96.2,283.9z M105.1,284c0,0,0-0.1,0-0.1l0,0
						C105.1,284,105.1,284,105.1,284L105.1,284z"/>
					<path class="st15" d="M-1.3,281h8c0.3,0,0.5,0.2,0.5,0.5v8.1c0,1.6-1.3,2.9-2.9,2.9c0,0,0,0,0,0H1.2c-1.6,0-2.9-1.3-2.9-2.9
						l0,0v-8.1C-1.7,281.2-1.5,281-1.3,281C-1.3,281-1.3,281-1.3,281z"/>
					<path class="st16" d="M7.6,281h8c0.3,0,0.5,0.2,0.5,0.5v8.1c0,1.6-1.3,2.9-2.9,2.9c0,0,0,0,0,0H10c-1.6,0-2.9-1.3-2.9-2.9l0,0
						v-8.1C7.2,281.2,7.4,281,7.6,281C7.6,281,7.6,281,7.6,281z"/>
					<path class="st15" d="M16.5,281h8c0.3,0,0.5,0.2,0.5,0.5v8.1c0,1.6-1.3,2.9-2.9,2.9c0,0-0.1,0-0.1,0H19c-1.6,0-2.9-1.3-2.9-2.9
						c0,0,0,0,0,0v-8.1C16.1,281.2,16.3,281,16.5,281L16.5,281z"/>
					<path class="st16" d="M25.4,281h8c0.3,0,0.5,0.2,0.5,0.5v8.1c0,1.6-1.3,2.9-2.9,2.9c0,0,0,0,0,0h-3.1c-1.6,0-2.9-1.3-2.9-2.9
						l0,0v-8.1C25,281.2,25.2,281,25.4,281L25.4,281z"/>
					<path class="st15" d="M34.3,281h8c0.3,0,0.5,0.2,0.5,0.5v8.1c0,1.6-1.3,2.9-2.9,2.9c0,0,0,0,0,0h-3.2c-1.6,0-2.9-1.3-2.9-2.9
						l0,0v-8.1C33.9,281.2,34.1,281,34.3,281L34.3,281z"/>
					<path class="st16" d="M43.2,281h8c0.3,0,0.5,0.2,0.5,0.5v8.1c0,1.6-1.3,2.9-2.9,2.9c0,0,0,0,0,0h-3.2c-1.6,0-2.9-1.3-2.9-2.9
						l0,0v-8.1C42.8,281.2,43,281,43.2,281L43.2,281z"/>
					<path class="st15" d="M52.1,281h8c0.3,0,0.5,0.2,0.5,0.5v8.1c0,1.6-1.3,2.9-2.9,2.9c0,0,0,0,0,0h-3.1c-1.6,0-2.9-1.3-2.9-2.9
						l0,0v-8.1C51.7,281.2,51.9,281,52.1,281z"/>
					<path class="st16" d="M61,281h8c0.3,0,0.5,0.2,0.5,0.5v8.1c0,1.6-1.3,2.9-2.9,2.9c0,0,0,0,0,0h-3.1c-1.6,0-2.9-1.3-2.9-2.9l0,0
						v-8.1C60.6,281.2,60.8,281,61,281C61,281,61,281,61,281z"/>
					<path class="st15" d="M69.9,281h8c0.3,0,0.5,0.2,0.5,0.5v8.1c0,1.6-1.3,2.9-2.9,2.9c0,0,0,0,0,0h-3.1c-1.6,0-2.9-1.3-2.9-2.9
						l0,0v-8.1C69.5,281.2,69.7,281,69.9,281z"/>
					<path class="st16" d="M78.8,281h8c0.3,0,0.5,0.2,0.5,0.5v8.1c0,1.6-1.3,2.9-2.9,2.9c0,0,0,0,0,0h-3.1c-1.6,0-2.9-1.3-2.9-2.9
						l0,0v-8.1C78.4,281.2,78.6,281,78.8,281z"/>
					<path class="st15" d="M87.7,281h8c0.3,0,0.5,0.2,0.5,0.5v8.1c0,1.6-1.3,2.9-2.9,2.9c0,0,0,0,0,0h-3.1c-1.6,0-2.9-1.3-2.9-2.9
						l0,0v-8.1C87.3,281.2,87.5,281,87.7,281L87.7,281z"/>
					<path class="st15" d="M105.5,281h8c0.3,0,0.5,0.2,0.5,0.5v8.1c0,1.6-1.3,2.9-2.9,2.9c0,0-0.1,0-0.1,0h-3.1
						c-1.6,0-2.9-1.3-2.9-2.9l0,0v-8.1C105,281.2,105.2,281,105.5,281L105.5,281z"/>
					<path class="st16" d="M96.6,281h8c0.3,0,0.5,0.2,0.5,0.5v8.1c0,1.6-1.3,2.9-2.9,2.9c0,0,0,0,0,0h-3.2c-1.6,0-2.9-1.3-2.9-2.9
						l0,0v-8.1C96.2,281.2,96.4,281,96.6,281L96.6,281z"/>
					<rect x="-1.7" y="279.1" class="st17" width="115.7" height="2.5"/>
					<path class="st4" d="M54.6,272.2c-3.4,0-6.2-2.8-6.2-6.2s2.8-6.2,6.2-6.2"/>
					<path class="st15" d="M54.6,259.9c3.4,0,6.2,2.8,6.2,6.2s-2.8,6.2-6.2,6.2"/>
					<path class="st14" d="M114,281.4v10.8c0,1.5,1.2,2.7,2.7,2.7c1.5,0,2.7-1.2,2.7-2.7c0,1.5,1.2,2.7,2.7,2.7
						c1.5,0,2.7-1.2,2.7-2.7c0,0,0,0,0,0c-0.1,1.5,1,2.7,2.5,2.8c1.5,0.1,2.7-1,2.8-2.5c0-0.1,0-0.2,0-0.3c0,1.5,1.2,2.7,2.7,2.7
						s2.7-1.2,2.7-2.7v-10.8H114z"/>
					<path class="st15" d="M119.6,281h4.8c0.2,0,0.3,0.1,0.3,0.3v9.5c0,1-0.8,1.7-1.7,1.7l0,0h-1.9c-1,0-1.7-0.8-1.7-1.7l0,0v-9.5
						C119.3,281.1,119.4,281,119.6,281z"/>
					<path class="st16" d="M114.3,281h4.8c0.2,0,0.3,0.1,0.3,0.3v9.5c0,1-0.8,1.7-1.7,1.7l0,0h-1.9c-1,0-1.7-0.8-1.7-1.7l0,0v-9.5
						C114,281.1,114.1,281,114.3,281z"/>
					<path class="st15" d="M130.2,281h4.8c0.2,0,0.3,0.1,0.3,0.3v9.5c0,1-0.8,1.7-1.7,1.7l0,0h-1.9c-1,0-1.7-0.8-1.7-1.7l0,0v-9.5
						C129.9,281.1,130.1,281,130.2,281z"/>
					<path class="st16" d="M124.9,281h4.8c0.2,0,0.3,0.1,0.3,0.3v9.5c0,1-0.8,1.7-1.7,1.7l0,0h-1.9c-1,0-1.7-0.8-1.7-1.7l0,0v-9.5
						C124.6,281.1,124.8,281,124.9,281z"/>
					<rect x="114" y="279.1" class="st17" width="21.3" height="2.5"/>
					<path class="st14" d="M114,279.1v10.8c0,1.5,1.2,2.7,2.7,2.7c1.5,0,2.7-1.2,2.7-2.7c0,1.5,1.2,2.7,2.7,2.7
						c1.5,0,2.7-1.2,2.7-2.7c0,0,0,0,0,0c-0.1,1.5,1,2.7,2.5,2.8c1.5,0.1,2.7-1,2.8-2.5c0-0.1,0-0.2,0-0.3c0,1.5,1.2,2.7,2.7,2.7
						s2.7-1.2,2.7-2.7v-10.8H114z"/>
					<rect x="116.6" y="279.2" class="st8" width="109.9" height="87.1"/>
					<polygon class="st6" points="199.2,248.7 172.9,248.8 226.5,279.2 253.6,279.1 					"/>
					<path class="st9" d="M116.6,366.3L116.6,366.3v-87.1h55C173.5,315.2,148.9,370.3,116.6,366.3z"/>
					<path class="st5" d="M116.6,366.3L116.6,366.3v-87.1h55C171.6,309.5,147,366.3,116.6,366.3z"/>
					<path class="st5" d="M226.5,366.3L226.5,366.3v-87.1h-55C171.6,309.5,196.2,366.3,226.5,366.3z"/>
					<rect x="226.5" y="279.2" class="st2" width="25.4" height="87.1"/>
					<circle class="st10" cx="128.7" cy="318.8" r="3.5"/>
					<path class="st4" d="M128.3,315.2c1.9,0,3.5,1.6,3.5,3.5s-1.6,3.5-3.5,3.5"/>
					<path class="st11" d="M128.3,322.1c-1.9,0-3.5-1.6-3.5-3.5s1.6-3.5,3.5-3.5"/>
					<circle class="st10" cx="128.7" cy="306.6" r="3.5"/>
					<path class="st4" d="M128.3,303c1.9,0,3.5,1.6,3.5,3.5s-1.6,3.5-3.5,3.5"/>
					<path class="st11" d="M128.3,309.9c-1.9,0-3.5-1.6-3.5-3.5s1.6-3.5,3.5-3.5"/>
					<polygon class="st5" points="172.9,248.8 114,279.2 231.9,279.2 					"/>
					<rect x="116.6" y="279.2" class="st12" width="109.9" height="2.4"/>
					<polygon class="st13" points="226.5,366.3 171.6,281.8 226.5,281.8 					"/>
					<path class="st14" d="M232.3,281.4H116.6v2.5l0,0c0,0,0,0.1,0,0.1v6.4c0,2.4,2,4.4,4.4,4.4l0,0c2.5,0,4.4-2,4.4-4.5l0,0
						c0,2.5,2,4.5,4.4,4.5c0,0,0,0,0,0l0,0c2.5,0,4.4-2,4.4-4.5l0,0c0,2.5,2,4.5,4.4,4.5c0,0,0,0,0,0l0,0c2.5,0,4.4-2,4.4-4.5l0,0
						c0,2.5,2,4.5,4.4,4.5c2.5,0,4.5-2,4.5-4.4c0,0,0,0,0,0c0,2.5,2,4.4,4.5,4.4c2.5,0,4.4-2,4.4-4.4c0,2.5,2,4.4,4.5,4.4
						c2.5,0,4.4-2,4.4-4.4c0,2.5,2,4.4,4.5,4.4c2.5,0,4.4-2,4.4-4.4c0,2.5,2,4.5,4.4,4.5c2.5,0,4.5-2,4.5-4.4c0,0,0,0,0,0
						c0,2.5,2,4.5,4.4,4.5c0,0,0,0,0,0l0,0c2.5,0,4.4-2,4.4-4.5l0,0c0,2.5,2,4.5,4.4,4.5c0,0,0,0,0,0l0,0c2.5,0,4.4-2,4.4-4.5l0,0
						c0,2.5,2,4.5,4.4,4.5c0,0,0,0,0,0l0,0c2.5,0,4.4-2,4.4-4.5l0,0c0,2.5,2,4.4,4.5,4.4c2.5,0,4.4-2,4.4-4.4c0,2.5,2,4.5,4.4,4.5
						c2.5,0,4.5-2,4.5-4.4c0,0,0,0,0,0V284c0,0,0-0.1,0-0.1l0,0L232.3,281.4z M125.5,284L125.5,284c0,0,0,0.1,0,0.1
						C125.5,284.1,125.5,284,125.5,284L125.5,284z M134.4,284L134.4,284c0,0,0,0.1,0,0.1C134.4,284.1,134.4,284,134.4,284L134.4,284
						z M143.3,284L143.3,284c0,0,0,0.1,0,0.1C143.3,284.1,143.3,284,143.3,284L143.3,284z M152.2,284L152.2,284c0,0,0,0.1,0,0.1
						C152.2,284.1,152.2,284,152.2,284L152.2,284z M161.1,284L161.1,284c0,0,0,0.1,0,0.1C161.1,284.1,161.1,284,161.1,284L161.1,284
						z M170,284L170,284c0,0,0,0.1,0,0.1S170,284,170,284L170,284z M178.9,284L178.9,284c0,0,0,0.1,0,0.1
						C178.9,284,178.9,284,178.9,284L178.9,284z M187.8,284L187.8,284c0,0,0,0.1,0,0.1C187.8,284,187.8,284,187.8,284L187.8,284z
						 M196.7,284L196.7,284c0,0,0,0.1,0,0.1C196.7,284,196.7,284,196.7,284L196.7,284z M205.6,284L205.6,284c0,0,0,0.1,0,0.1
						C205.6,284,205.6,284,205.6,284L205.6,284z M214.5,284L214.5,284c0,0,0,0.1,0,0.1C214.5,284,214.5,284,214.5,284L214.5,284z
						 M223.4,284.1c0,0,0-0.1,0-0.1l0,0C223.4,284,223.4,284,223.4,284.1L223.4,284.1z"/>
					<path class="st15" d="M117.1,281h8c0.3,0,0.5,0.2,0.5,0.5v8.1c0,1.6-1.3,2.9-2.9,2.9h0h-3.1c-1.6,0-2.9-1.3-2.9-2.9l0,0v-8.1
						C116.6,281.2,116.8,281,117.1,281z"/>
					<path class="st16" d="M126,281h8c0.3,0,0.5,0.2,0.5,0.5v8.1c0,1.6-1.3,2.9-2.9,2.9h0h-3.1c-1.6,0-2.9-1.3-2.9-2.9l0,0v-8.1
						C125.5,281.2,125.7,281,126,281z"/>
					<path class="st15" d="M134.9,281h8c0.3,0,0.5,0.2,0.5,0.5v8.1c0,1.6-1.3,2.9-2.9,2.9h0h-3.1c-1.6,0-2.9-1.3-2.9-2.9l0,0v-8.1
						C134.4,281.2,134.6,281,134.9,281L134.9,281z"/>
					<path class="st16" d="M143.8,281h8c0.3,0,0.5,0.2,0.5,0.5v8.1c0,1.6-1.3,2.9-2.9,2.9h0h-3.1c-1.6,0-2.9-1.3-2.9-2.9l0,0v-8.1
						C143.3,281.2,143.5,281,143.8,281L143.8,281z"/>
					<path class="st15" d="M152.7,281h8c0.3,0,0.5,0.2,0.5,0.5v8.1c0,1.6-1.3,2.9-2.9,2.9h0h-3.2c-1.6,0-2.9-1.3-2.9-2.9l0,0v-8.1
						C152.2,281.2,152.4,281,152.7,281L152.7,281z"/>
					<path class="st16" d="M161.6,281h8c0.3,0,0.5,0.2,0.5,0.5v8.1c0,1.6-1.3,2.9-2.9,2.9h0H164c-1.6,0-2.9-1.3-2.9-2.9l0,0v-8.1
						C161.1,281.2,161.3,281,161.6,281L161.6,281z"/>
					<path class="st15" d="M170.5,281h8c0.3,0,0.5,0.2,0.5,0.5v8.1c0,1.6-1.3,2.9-2.9,2.9c0,0,0,0,0,0h-3.1c-1.6,0-2.9-1.3-2.9-2.9
						l0,0v-8.1C170,281.2,170.2,281,170.5,281z"/>
					<path class="st16" d="M179.4,281h8c0.3,0,0.5,0.2,0.5,0.5v8.1c0,1.6-1.3,2.9-2.9,2.9h0h-3.1c-1.6,0-2.9-1.3-2.9-2.9l0,0v-8.1
						C178.9,281.2,179.1,281,179.4,281z"/>
					<path class="st15" d="M188.3,281h8c0.3,0,0.5,0.2,0.5,0.5v8.1c0,1.6-1.3,2.9-2.9,2.9h0h-3.1c-1.6,0-2.9-1.3-2.9-2.9l0,0v-8.1
						C187.8,281.2,188,281,188.3,281z"/>
					<path class="st16" d="M197.2,281h8c0.3,0,0.5,0.2,0.5,0.5v8.1c0,1.6-1.3,2.9-2.9,2.9h0h-3.1c-1.6,0-2.9-1.3-2.9-2.9l0,0v-8.1
						C196.7,281.2,196.9,281,197.2,281L197.2,281z"/>
					<path class="st15" d="M206.1,281h8c0.3,0,0.5,0.2,0.5,0.5v8.1c0,1.6-1.3,2.9-2.9,2.9h0h-3.1c-1.6,0-2.9-1.3-2.9-2.9l0,0v-8.1
						C205.6,281.2,205.8,281,206.1,281z"/>
					<path class="st15" d="M223.9,281h8c0.3,0,0.5,0.2,0.5,0.5v8.1c0,1.6-1.3,2.9-2.9,2.9h0h-3.1c-1.6,0-2.9-1.3-2.9-2.9l0,0v-8.1
						C223.4,281.2,223.6,281,223.9,281L223.9,281z"/>
					<path class="st16" d="M215,281h8c0.3,0,0.5,0.2,0.5,0.5v8.1c0,1.6-1.3,2.9-2.9,2.9h0h-3.1c-1.6,0-2.9-1.3-2.9-2.9l0,0v-8.1
						C214.5,281.2,214.7,281,215,281L215,281z"/>
					<rect x="116.6" y="279.1" class="st17" width="115.7" height="2.5"/>
					<path class="st4" d="M172.9,272.2c-3.4,0-6.2-2.8-6.2-6.2s2.8-6.2,6.2-6.2"/>
					<path class="st15" d="M172.9,259.9c3.4,0,6.2,2.8,6.2,6.2s-2.8,6.2-6.2,6.2l0,0"/>
					<path class="st14" d="M232.3,281.4v10.8c0,1.5,1.2,2.7,2.7,2.7s2.7-1.2,2.7-2.7c-0.1,1.5,1,2.7,2.5,2.8c1.5,0.1,2.7-1,2.8-2.5
						c0-0.1,0-0.2,0-0.3c0,1.5,1.2,2.7,2.7,2.7s2.7-1.2,2.7-2.7c-0.1,1.5,1,2.7,2.5,2.8c1.5,0.1,2.7-1,2.8-2.5c0-0.1,0-0.2,0-0.3
						v-10.8H232.3z"/>
					<path class="st15" d="M237.9,281h4.8c0.2,0,0.3,0.1,0.3,0.3v9.5c0,1-0.8,1.7-1.7,1.7c0,0,0,0,0,0h-1.9c-1,0-1.7-0.8-1.7-1.7
						c0,0,0,0,0,0v-9.5C237.6,281.1,237.8,281,237.9,281z"/>
					<path class="st16" d="M232.6,281h4.8c0.2,0,0.3,0.1,0.3,0.3v9.5c0,1-0.8,1.7-1.7,1.7l0,0h-1.9c-1,0-1.7-0.8-1.7-1.7l0,0v-9.5
						C232.3,281.1,232.4,281,232.6,281z"/>
					<path class="st15" d="M248.6,281h4.8c0.2,0,0.3,0.1,0.3,0.3v9.5c0,1-0.8,1.7-1.7,1.7c0,0,0,0,0,0H250c-1,0-1.7-0.8-1.7-1.7
						c0,0,0,0,0,0v-9.5C248.3,281.1,248.4,281,248.6,281z"/>
					<path class="st16" d="M243.2,281h4.8c0.2,0,0.3,0.1,0.3,0.3v9.5c0,1-0.8,1.7-1.7,1.7c0,0,0,0,0,0h-1.9c-1,0-1.7-0.8-1.7-1.7
						c0,0,0,0,0,0v-9.5C242.9,281.1,243.1,281,243.2,281z"/>
					<rect x="232.3" y="279.1" class="st17" width="21.3" height="2.5"/>
					<path class="st14" d="M232.3,279.1v10.8c0,1.5,1.2,2.7,2.7,2.7s2.7-1.2,2.7-2.7c-0.1,1.5,1,2.7,2.5,2.8c1.5,0.1,2.7-1,2.8-2.5
						c0-0.1,0-0.2,0-0.3c0,1.5,1.2,2.7,2.7,2.7s2.7-1.2,2.7-2.7c-0.1,1.5,1,2.7,2.5,2.8c1.5,0.1,2.7-1,2.8-2.5c0-0.1,0-0.2,0-0.3
						v-10.8H232.3z"/>
					<rect x="181.8" y="368.4" class="st18" width="173.9" height="2.6"/>
					<path class="st5" d="M323.7,285.3h-95.6c-7.2,0-13.9,4-17.2,10.5l-13.9,27.1h-3.6c-2.8,0-5.1,2.3-5.1,5.1l0,0v6.4h-0.5
						c-2.1,0-3.7,1.7-3.7,3.7l0,0v30.3h169.9v-52.8C354.1,298.9,340.5,285.3,323.7,285.3L323.7,285.3z"/>
					<path class="st19" d="M323.7,285.3h-69.9l43.4,83.1h56.8v-52.8C354.1,298.9,340.5,285.3,323.7,285.3L323.7,285.3z"/>
					
						<ellipse transform="matrix(0.1602 -0.9871 0.9871 0.1602 -176.8666 534.0381)" class="st20" cx="225.4" cy="371" rx="17.2" ry="17.2"/>
					<circle class="st8" cx="225.4" cy="371" r="10.1"/>
					<circle class="st20" cx="225.4" cy="371" r="7.1"/>
					<circle class="st20" cx="315.9" cy="371" r="17.2"/>
					<circle class="st8" cx="315.9" cy="371" r="10.1"/>
					<circle class="st20" cx="315.9" cy="371" r="7.1"/>
					<path class="st4" d="M226.8,323h-18.6c-2,0-3.7-1.7-3.7-3.7c0-0.6,0.2-1.2,0.5-1.8l7.9-16.7c0.6-1.2,1.9-1.9,3.2-1.9h10.7
						c2,0,3.7,1.7,3.7,3.7l0,0v16.7C230.5,321.3,228.8,323,226.8,323z"/>
					<path class="st4" d="M239.1,298.9h12.6c2.6,0,4.7,2.1,4.7,4.7v14.6c0,2.6-2.1,4.7-4.7,4.7h-12.6c-2.6,0-4.7-2.1-4.7-4.7v-14.6
						C234.4,301,236.5,298.9,239.1,298.9z"/>
					<path class="st21" d="M236.7,307.6c-0.6,0-1-0.4-1-1c0-3.5,2.9-6.4,6.4-6.4c0.6,0,1,0.4,1,1s-0.4,1-1,1c-2.4,0-4.4,2-4.4,4.4
						C237.7,307.1,237.3,307.6,236.7,307.6z"/>
					<path class="st4" d="M278.8,298.9h44.4c7.1,0,12.9,5.8,12.9,12.9v18.5c0,7.1-5.8,12.9-12.9,12.9h-44.4
						c-7.1,0-12.9-5.8-12.9-12.9v-18.5C265.9,304.6,271.6,298.9,278.8,298.9z"/>
					<rect x="260.5" y="339.3" class="st8" width="81" height="7.6"/>
					<rect x="260.5" y="343.1" class="st22" width="81" height="3.9"/>
					<path class="st15" d="M264.2,298.4h6.4c0.3,0,0.5,0.2,0.5,0.5c0,0,0,0,0,0v5.3c0,1.9-1.5,3.4-3.4,3.4l0,0H267
						c-1.9,0-3.4-1.5-3.4-3.4l0,0v-5.3C263.7,298.6,263.9,298.4,264.2,298.4z"/>
					<path class="st16" d="M271.7,298.4h6.4c0.3,0,0.5,0.2,0.5,0.5c0,0,0,0,0,0v5.3c0,1.9-1.5,3.4-3.4,3.4l0,0h-0.7
						c-1.9,0-3.4-1.5-3.4-3.4l0,0v-5.3C271.1,298.6,271.4,298.4,271.7,298.4C271.7,298.4,271.7,298.4,271.7,298.4L271.7,298.4z"/>
					<path class="st15" d="M279.1,298.4h6.4c0.3,0,0.5,0.2,0.5,0.5c0,0,0,0,0,0v5.3c0,1.9-1.5,3.4-3.4,3.4l0,0H282
						c-1.9,0-3.4-1.5-3.4-3.4l0,0v-5.3C278.6,298.6,278.8,298.4,279.1,298.4C279.1,298.4,279.1,298.4,279.1,298.4z"/>
					<path class="st16" d="M286.6,298.4h6.4c0.3,0,0.5,0.2,0.5,0.5c0,0,0,0,0,0v5.3c0,1.9-1.5,3.4-3.4,3.4l0,0h-0.7
						c-1.9,0-3.4-1.5-3.4-3.4l0,0v-5.3C286,298.6,286.3,298.4,286.6,298.4C286.6,298.4,286.6,298.4,286.6,298.4z"/>
					<path class="st15" d="M294,298.4h6.4c0.3,0,0.5,0.2,0.5,0.5c0,0,0,0,0,0v5.3c0,1.9-1.5,3.4-3.4,3.4l0,0h-0.7
						c-1.9,0-3.4-1.5-3.4-3.4l0,0v-5.3C293.5,298.6,293.8,298.4,294,298.4C294,298.4,294,298.4,294,298.4z"/>
					<path class="st16" d="M301.5,298.4h6.4c0.3,0,0.5,0.2,0.5,0.5c0,0,0,0,0,0v5.3c0,1.9-1.5,3.4-3.4,3.4l0,0h-0.7
						c-1.9,0-3.4-1.5-3.4-3.4l0,0v-5.3C301,298.6,301.2,298.4,301.5,298.4C301.5,298.4,301.5,298.4,301.5,298.4z"/>
					<path class="st15" d="M309,298.4h6.4c0.3,0,0.5,0.2,0.5,0.5c0,0,0,0,0,0v5.3c0,1.9-1.5,3.4-3.4,3.4l0,0h-0.7
						c-1.9,0-3.4-1.5-3.4-3.4l0,0v-5.3C308.4,298.6,308.7,298.4,309,298.4C309,298.4,309,298.4,309,298.4z"/>
					<path class="st16" d="M316.5,298.4h6.4c0.3,0,0.5,0.2,0.5,0.5c0,0,0,0,0,0v5.3c0,1.9-1.5,3.4-3.4,3.4l0,0h-0.7
						c-1.9,0-3.4-1.5-3.4-3.4l0,0v-5.3C315.9,298.6,316.2,298.4,316.5,298.4C316.5,298.4,316.5,298.4,316.5,298.4z"/>
					<path class="st15" d="M323.9,298.4h6.4c0.3,0,0.5,0.2,0.5,0.5c0,0,0,0,0,0v5.3c0,1.9-1.5,3.4-3.4,3.4l0,0h-0.7
						c-1.9,0-3.4-1.5-3.4-3.4l0,0v-5.3C323.4,298.6,323.6,298.4,323.9,298.4C323.9,298.4,323.9,298.4,323.9,298.4z"/>
					<path class="st16" d="M331.4,298.4h6.4c0.3,0,0.5,0.2,0.5,0.5c0,0,0,0,0,0v5.3c0,1.9-1.5,3.4-3.4,3.4l0,0h-0.7
						c-1.9,0-3.4-1.5-3.4-3.4l0,0v-5.3C330.8,298.6,331.1,298.4,331.4,298.4C331.4,298.4,331.4,298.4,331.4,298.4z"/>
					<rect x="263.6" y="296.8" class="st17" width="74.7" height="2"/>
					<path class="st21" d="M208.5,317.3c-0.1,0-0.3,0-0.4-0.1c-0.5-0.2-0.7-0.8-0.5-1.3l4.4-9.5c0.3-0.5,0.9-0.7,1.4-0.4
						c0.4,0.2,0.6,0.8,0.5,1.2l-4.4,9.5C209.2,317.1,208.9,317.3,208.5,317.3z"/>
					<path class="st21" d="M214.2,304.7c-0.1,0-0.3,0-0.4-0.1c-0.5-0.2-0.7-0.8-0.5-1.3c0,0,0,0,0,0l0.9-1.9
						c0.2-0.5,0.8-0.7,1.3-0.5c0.5,0.2,0.7,0.8,0.5,1.3l0,0l-0.9,1.9C214.9,304.5,214.6,304.7,214.2,304.7z"/>
					<path class="st4" d="M184.2,348.5h16.5c2.3,0,4.1,1.9,4.1,4.1v0.9c0,2.3-1.9,4.1-4.1,4.1h-16.5l0,0V348.5L184.2,348.5z"/>
					<path class="st22" d="M251.7,368.4h-0.4v-30.2c0-2.1-1.7-3.8-3.8-3.8h-59.1V334h59.1c2.3,0,4.2,1.9,4.2,4.2V368.4z"/>
					<path class="st21" d="M195.4,351.6H185c-0.6,0-1-0.4-1-1s0.4-1,1-1h10.4c0.6,0,1,0.4,1,1S195.9,351.6,195.4,351.6L195.4,351.6z
						"/>
					<path class="st4" d="M102.2,92.6c-9.1,3-19-2-22-11.1c-1.1-3.2-1.2-6.6-0.3-9.9c0.1-0.3-0.1-0.7-0.4-0.8c-0.2,0-0.3,0-0.5,0
						c-8.6,4.4-11.9,14.9-7.5,23.5s14.9,11.9,23.5,7.5c3.6-1.8,6.4-4.9,8-8.5c0.1-0.3,0-0.6-0.3-0.8
						C102.5,92.6,102.4,92.6,102.2,92.6L102.2,92.6z"/>
				</g>
			</g>
		</g>
	</g>
</g>
</svg>
