<?xml version="1.0" encoding="utf-8"?>
<!-- Generator: Adobe Illustrator 26.0.1, SVG Export Plug-In . SVG Version: 6.00 Build 0)  -->
<svg version="1.1" id="Layer_1" xmlns="http://www.w3.org/2000/svg" xmlns:xlink="http://www.w3.org/1999/xlink" x="0px" y="0px"
	 viewBox="0 0 375 440.6" style="enable-background:new 0 0 375 440.6;" xml:space="preserve">
<style type="text/css">
	.st0{clip-path:url(#SVGID_00000083065870778011134700000003252552980464932484_);}
	.st1{fill:#004E70;}
	.st2{fill:#FFDF40;}
	.st3{opacity:0.3;enable-background:new    ;}
	.st4{fill:#F9DA5F;}
	.st5{fill:#0D314B;}
	.st6{fill:#E8C44F;}
	.st7{fill:#FFFAEE;}
	.st8{fill:#FF7629;}
	.st9{fill:#E06020;}
	.st10{fill:#00618E;}
	.st11{fill:#EFE8D0;}
	.st12{fill:#FFFBE7;}
	.st13{fill:#EB582B;}
	.st14{fill:#E8C552;}
	.st15{fill:#F2EDDA;}
	.st16{fill:#F2D686;}
	.st17{fill:#FCE18D;}
</style>
<g>
	<g id="Layer_2_00000150802232112250587190000015715103613630031538_">
		<g id="일러스트">
			<g>
				<defs>
					<rect id="SVGID_1_" width="375" height="456.5"/>
				</defs>
				<clipPath id="SVGID_00000072261339116089952190000000638451848514934672_">
					<use xlink:href="#SVGID_1_"  style="overflow:visible;"/>
				</clipPath>
				<g style="clip-path:url(#SVGID_00000072261339116089952190000000638451848514934672_);">
					<path class="st1" d="M326.3-487.9c-38.7,0-100.5,14.8-137.6,14.8s-51.5-10.7-89.8-10.7S44-508.7,16-508.7H-3v126.3h-1.4
						L-9.3,76.1c50.7,0,61.8-32.9,100.4-32.9S155,89.5,192.1,89.5s60.5-25.3,104.4-25.3s67.8,33.1,97,33.1v-568.5
						C393.5-471.4,365-487.9,326.3-487.9z"/>
					<path class="st2" d="M47.3,283.1c0.6,0.9,0.6,2,0.1,3c0,0,0,0.1,0.1,0.1c0.9-0.5,2.1-0.4,3,0.2 M50.5,286.3
						c-0.6-0.9-0.7-2.1-0.1-3c0,0,0-0.1-0.1-0.1c-0.9,0.5-2.1,0.5-3-0.2c0,0-0.1,0-0.1,0c0,0,0,0.1,0,0.1L50.5,286.3z"/>
					<path class="st2" d="M275.1,279.5c0.6,0.9,0.7,2.1,0.1,3c0,0,0,0.1,0.1,0.1c0.9-0.5,2.1-0.4,3,0.2 M278.3,282.7
						c-0.6-0.9-0.7-2.1-0.1-3c0,0,0-0.1,0-0.1c0,0,0,0-0.1,0c-0.9,0.5-2.1,0.5-3-0.2c0,0,0,0,0,0.1L278.3,282.7z"/>
					<path class="st2" d="M263.2,121.5c0.6,0.9,0.6,2,0.1,2.9c0,0,0,0.1,0,0.1c0,0,0,0,0,0c0.9-0.5,2.1-0.4,3,0.2 M266.4,124.7
						c-0.6-0.9-0.7-2.1-0.1-3c0,0,0-0.1,0-0.1c0,0,0,0-0.1,0c-0.9,0.5-2.1,0.4-3-0.2c-0.1,0-0.1,0.1-0.1,0.1L266.4,124.7z"/>
					<path class="st2" d="M105.8,224.7c-0.8,0.7-2,0.8-2.9,0.3c0,0-0.1,0-0.1,0.1c0.6,0.9,0.6,2.1,0,3c0,0,0,0.1,0,0.1
						c0,0,0.1,0,0.1,0l0,0c0.8-0.7,2-0.8,2.9-0.3c0,0,0.1,0,0.1-0.1c-0.6-0.9-0.6-2.1,0-2.9C105.9,224.7,105.9,224.6,105.8,224.7z"
						/>
					<path class="st2" d="M354.9,342.6c-0.8,0.7-2,0.8-2.9,0.3c0,0-0.1,0-0.1,0s0,0.1,0,0.1c0.6,0.9,0.6,2.1,0,3c0,0,0,0.1,0,0.1
						s0.1,0,0.1,0l0,0c0.8-0.7,2-0.8,2.9-0.3c0,0,0.1,0,0.1,0s0-0.1,0-0.1C354.3,344.7,354.3,343.5,354.9,342.6
						C355,342.6,354.9,342.5,354.9,342.6z"/>
					<path class="st2" d="M316.1,327.8c-0.8,0.7-2,0.8-2.9,0.3c0,0-0.1,0-0.1,0.1c0.6,0.9,0.6,2.1,0,3c0,0,0,0.1,0.1,0.1
						c0.8-0.7,2-0.8,2.9-0.3c0,0,0.1,0,0.1-0.1c-0.6-0.9-0.6-2,0-3C316.2,327.8,316.2,327.8,316.1,327.8z"/>
					<path class="st2" d="M56.9,161.4c-1.2,1-2.9,1.2-4.2,0.5c-0.1,0-0.2,0.1-0.1,0.1c0.9,1.3,0.9,2.9,0.1,4.2c0,0,0,0.1,0,0.1
						c0,0,0.1,0,0.1,0l0,0c1.2-1,2.9-1.2,4.2-0.5c0.1,0,0.2-0.1,0.1-0.1c-0.9-1.3-0.9-3-0.1-4.3C57,161.5,57,161.5,56.9,161.4
						C56.9,161.4,56.9,161.4,56.9,161.4z"/>
					<path class="st2" d="M24.5,338.3c-1.2,1-2.9,1.2-4.2,0.5c0,0-0.1,0-0.1,0.1c0,0,0,0.1,0,0.1c0.9,1.3,0.9,3,0.1,4.3
						c0,0,0,0.1,0,0.1c0,0,0.1,0,0.1,0c1.2-1,2.9-1.2,4.2-0.5c0.1,0,0.2-0.1,0.1-0.1c-0.9-1.3-0.9-3-0.1-4.3
						C24.7,338.4,24.7,338.4,24.5,338.3C24.6,338.3,24.6,338.3,24.5,338.3z"/>
					<path class="st2" d="M295.7,202.5c0.3,1.5-0.3,3.1-1.5,4c0,0,0,0.1,0,0.1c0,0,0,0,0.1,0c1.5-0.2,3,0.6,3.8,1.9
						c0,0,0.1,0.1,0.1,0c0,0,0.1-0.1,0-0.1c-0.3-1.5,0.3-3.1,1.5-4c0.1,0,0-0.2-0.1-0.2C298.1,204.5,296.6,203.7,295.7,202.5
						C295.7,202.4,295.7,202.4,295.7,202.5C295.7,202.5,295.7,202.5,295.7,202.5z"/>
					<path class="st2" d="M103.1,124.8c0.3,1.5-0.3,3.1-1.5,4c0,0,0,0.1,0,0.1c0,0,0.1,0,0.1,0c1.5-0.2,3,0.6,3.8,1.9
						c0,0,0.1,0.1,0.1,0c0,0,0.1-0.1,0-0.1c-0.3-1.5,0.3-3.1,1.5-4c0.1,0,0-0.2-0.1-0.2c-1.5,0.2-3-0.6-3.8-1.9
						C103.3,124.8,103.2,124.7,103.1,124.8C103.1,124.8,103.1,124.8,103.1,124.8L103.1,124.8z"/>
					<path class="st2" d="M160,181.9c-0.7,1-1.9,1.6-3.2,1.4c0,0-0.1,0-0.1,0s0,0.1,0,0.1c1,0.8,1.4,2.1,1.1,3.3
						c0,0.1,0.1,0.1,0.1,0.1c0.7-1,1.9-1.6,3.2-1.4c0,0,0.1,0,0.1-0.1c0,0,0,0,0,0c-1-0.8-1.4-2.1-1.1-3.3
						C160.1,181.9,160,181.9,160,181.9z"/>
					<path class="st2" d="M351,169.1c-0.5,0.7-1.3,1.1-2.2,0.9c0,0-0.1,0.1,0,0.1c0.7,0.5,0.9,1.4,0.7,2.2c0,0,0,0.1,0.1,0
						c0.5-0.7,1.3-1.1,2.2-0.9c0,0,0,0,0-0.1c0,0,0,0,0,0C351.1,170.8,350.9,169.9,351,169.1C351.1,169.1,351,169,351,169.1z"/>
					<path class="st2" d="M155.9,365.2c-0.5,0.7-1.3,1.1-2.2,0.9c-0.1,0-0.1,0.1,0,0.1c0.7,0.5,0.9,1.4,0.7,2.2c0,0,0.1,0.1,0.1,0
						c0.5-0.7,1.3-1.1,2.2-0.9c0,0,0.1-0.1,0-0.1C156,366.9,155.7,366,155.9,365.2L155.9,365.2z"/>
					<path class="st2" d="M172.1,265.2c-0.5,0.7-1.3,1.1-2.2,0.9c0,0,0,0,0,0.1c0,0,0,0,0,0c0.7,0.5,1,1.4,0.7,2.2 M170.7,268.5
						c0.5-0.7,1.3-1.1,2.2-0.9c0,0,0,0,0-0.1c0,0,0,0,0,0c-0.7-0.5-0.9-1.4-0.7-2.2L170.7,268.5z"/>
					<path class="st2" d="M332.8,243.9c0.7,0.5,0.9,1.4,0.7,2.2c0,0,0,0.1,0.1,0c0.6-0.6,1.5-0.8,2.3-0.5c0,0,0.1,0,0-0.1
						c-0.7-0.5-0.9-1.4-0.7-2.2c0,0,0-0.1-0.1,0C334.5,243.9,333.6,244.1,332.8,243.9C332.8,243.8,332.8,243.8,332.8,243.9z"/>
					<ellipse class="st3" cx="241.6" cy="433.5" rx="81.8" ry="7.1"/>
					<ellipse class="st3" cx="85.7" cy="433" rx="47" ry="7.1"/>
					<circle class="st4" cx="79.3" cy="425" r="10.8"/>
					<circle class="st5" cx="79.3" cy="425" r="6.4"/>
					<path class="st6" d="M151.8,341.2l5.5,6c0,0-67.9,71-71.8,72.5s-4.3,2.3-6.5,1.8s-7.1-3.8-7.1-3.8s21.3-24.6,36.1-39.8
						S151.8,341.2,151.8,341.2z"/>
					<path class="st4" d="M151.8,341.2c0,0-15.7-17.6-22.1-18.9s-58.3,35.4-64.5,42s-17.4,23.1-16.7,27.4s23.5,26,23.5,26
						L151.8,341.2z"/>
					<polygon class="st7" points="157.3,347.2 154.7,344.5 189.8,310.1 191.8,312.3 					"/>
					<path class="st4" d="M188.8,311c0,0,4.6,5,5.8,4.9s5.5-3.3,5.2-4s-8.7-8.3-9.5-8.4s-4.3,3.1-4.2,4.3S188.8,311,188.8,311z"/>
					<path class="st8" d="M184.9,411.9c0,0-3.3,2.3-4,5.6S179,425,179,425s29.6,8.8,32.7,8.6c3-0.1,6-0.8,8.8-2
						c1.6-0.9,1.6-3.2,1.6-3.2s-6-4.8-9.3-6.8s-9.4-6.2-9.4-6.2L184.9,411.9z"/>
					<path class="st9" d="M179.2,422.5l-0.4,1.7c-0.1,0.7-0.1,1.3,0,2c0,0,31.3,8.7,31.9,8.7s10.5-1.8,11.3-3.5s1-2.5,0.8-2.8
						s-0.7-0.3-0.7-0.3c-2.4,0.6-8.1,2.4-10.6,2.1C208.1,430,179.2,422.5,179.2,422.5z"/>
					<path class="st8" d="M266.7,419.2c0,0-1,4.1,0.5,7.2s3.3,7.3,3.3,7.3s27.2-12.7,29.4-15c2.2-2.2,3.9-4.7,5.2-7.5
						c0.6-1.8-0.9-3.7-0.9-3.7c-3.7,0-7.4,0.3-11.1,0.7c-3.7,0.6-10.8,1.3-10.8,1.3L266.7,419.2z"/>
					<path class="st1" d="M228.2,310.6c2.1-1.2,7.8-4.5,13.6-8.2s10.8-10,11.7-8s6.1,29.7,10.2,41.6s8.1,32.5,11,38.9
						s9.5,27.5,12.1,30s6.4,4.7,6.7,6.2s-10.4,9.4-15.7,11.4s-11,3.4-12.6,2.3s-5.8-26.4-8.3-34.7s-13.7-30.1-14.4-32.2
						s-9.3-16.8-10.5-20.3s-10.5-24.2-9.8-24.8S226.1,311.8,228.2,310.6z"/>
					<path class="st9" d="M269,431.6l0.8,1.6c0.3,0.6,0.7,1.1,1.2,1.6c0,0,28.4-13.9,28.8-14.3s6.6-8.5,6.2-10.4s-0.8-2.7-1.1-2.8
						s-0.7,0.2-0.7,0.2c-1.4,2.1-4.5,7.4-6.5,8.8C295,418.3,269,431.6,269,431.6z"/>
					<path class="st10" d="M230.4,298.1c2.6,0.5,9.5,2,16.8,3.2s4.2-2.7,3.7-0.6s-6.4,20.4-10.6,32.5s-19.5,44.1-21.1,51
						s-7.8,13.6-7.2,17.3s2.4,20.5,1.7,21.8s-10.6,0.7-16.3-1.6s-17.6-4.7-18.2-6.6s14.1-31.7,17.3-39.8s10.1-25.8,10.8-28
						s5.2-20.6,6.4-24.1s9.3-27.7,10.2-27.7S227.9,297.6,230.4,298.1z"/>
					<path class="st1" d="M223.6,310.4l10.5,1.4c0,0-3,10.8-6,11s-7.8-2.3-7.8-2.3L223.6,310.4z"/>
					<path class="st11" d="M238.1,200.6c0.5,1.8,0.9,3.7,1.1,5.6c0.1,1,0,2-0.3,2.9l5.1,5.5l3.4,1.9l3.9-3.2l1.1-4.7
						c-0.4-1.5-0.6-3.1-0.6-4.7c0.1-1.4,0.3-2.7,0.6-4.1L238.1,200.6z"/>
					<path class="st12" d="M251.7,160.8l12.7-0.2c0,0,0.8,25.5-1.7,33s-10.1,12.1-14.4,12.3s-21.8-11-23.9-20s10.4-16.5,10.4-16.5
						L251.7,160.8z"/>
					
						<ellipse transform="matrix(5.198742e-02 -0.9986 0.9986 5.198742e-02 50.2539 424.1921)" class="st5" cx="248.6" cy="185.6" rx="2.2" ry="1.5"/>
					
						<ellipse transform="matrix(5.198742e-02 -0.9986 0.9986 5.198742e-02 61.378 435.9022)" class="st5" cx="260.3" cy="185.6" rx="2.2" ry="1.2"/>
					<path class="st13" d="M249.9,195.7c0.7-0.4,6.1,0,6.8,0.9c0.7,0.9-2.1,4.1-4.8,2.8C249.2,197.9,249.2,196.2,249.9,195.7z"/>
					<path class="st5" d="M243.6,182.5c-0.2,0-0.4-0.1-0.5-0.2c-0.2-0.3-0.1-0.6,0.1-0.8c0,0,0,0,0,0c3.3-2.4,7.6-0.7,7.8-0.6
						c0.3,0.1,0.4,0.5,0.3,0.8c-0.1,0.3-0.5,0.4-0.7,0.3c0,0-3.9-1.6-6.6,0.5C243.9,182.4,243.8,182.5,243.6,182.5z"/>
					<path class="st5" d="M258.2,182.4c-0.3,0-0.6-0.2-0.6-0.6c0-0.2,0.1-0.4,0.2-0.5c0.1-0.1,3.4-2.5,5.9-0.3
						c0.2,0.2,0.3,0.6,0.1,0.8c-0.2,0.2-0.6,0.3-0.8,0.1c0,0,0,0,0,0c-1.8-1.6-4.4,0.3-4.4,0.4C258.4,182.4,258.3,182.4,258.2,182.4
						z"/>
					<path class="st5" d="M255,193.4c0,0-0.1,0-0.1,0c-0.1-0.1-0.1-0.2,0-0.2c1.5-1.6-0.2-3.3-0.3-3.4c-0.1-0.1-0.1-0.2,0-0.2
						c0.1-0.1,0.2-0.1,0.2,0c0,0,2,2.1,0.3,3.9C255.1,193.4,255,193.4,255,193.4z"/>
					<path class="st13" d="M232,159.4c-1.8,1.1-9.3,2.3-9.9,8.7s-0.4,17,0.8,21.8s5.7,10.6,7.3,11.7s4.9,2,5,1
						c0.3-3.5-3.6-13.1-3.2-18.2c0-0.4,1.6,0.4,1.6,0.1c0.1-0.8,1.3,4.3,1.6,3.8s0.9-3.6,1.1-3.9c0.8-1,0.3-3.9,1.4-4.9
						s1.7,1.9,2.6,3.4c0.8-5.9,2.6-8.7,2.6-8.7c1.4,0.8,2.8,1.5,4.2,2.1c1.6,0.6,4.8,1.2,6.1,2s7,0.6,7,0.6s-2.9-3.5-1.8-5.1l5,3.3
						l4.1,4.2c0.4-1.1,1-2.2,1.8-3.2c1.4-2,1.3-6,1-6.5s-1.6-2-1.6-2s3-1.1,3-1.9s-1.5-3.9-2.3-4.9c-1.4-1.5-3-2.7-4.8-3.6
						c-2-0.9-10.3-4-13-4.5s-10.2-3.1-12.6-2.1S233.9,158.3,232,159.4z"/>
					<path class="st12" d="M234,184.3c0,0-3-3.1-4.9-2.1s-2.1,5-1.9,6s6.7,6.6,9.3,5.8C236.6,194.1,234.1,187.5,234,184.3z"/>
					<path class="st5" d="M248.3,185.4c-0.1,0-0.1,0-0.2-0.1l-1.3-1.1c-0.1-0.1-0.1-0.3,0-0.4c0.1-0.1,0.3-0.1,0.4,0l1.3,1.2
						c0.1,0.1,0.1,0.3,0,0.4C248.5,185.3,248.4,185.4,248.3,185.4z"/>
					<path class="st5" d="M260.6,185.4c-0.1,0-0.2,0-0.2-0.1c-0.1-0.1-0.1-0.3,0.1-0.4l1.4-1c0.1-0.1,0.3-0.1,0.4,0.1
						s0.1,0.3-0.1,0.4l-1.4,1C260.7,185.4,260.6,185.4,260.6,185.4z"/>
					<path class="st14" d="M247,212.1c4.1-1.5,3.3-5.7,8.9-4.6s5.4,22.5,6.9,29.1s1.2,63.2-0.8,65.2s-7.6,7.1-9.2,6.8
						s-4.7-13.2-4.7-13.2l-0.8-35.4l0.9-24.9L247,212.1"/>
					<path class="st4" d="M251,283.3c-0.6,9.5-0.9,20.9-3.1,25.3s-34.6,1.8-34.6,1.8c0.1-3.9,0.8-7.8,2.1-11.4
						c1-2.7,4.1-24.2,5.7-32c2.2-10.4-3.3-9.7-5.3-11.2c-3.4-2.6-14.1-10.1-15.5-11.3s13.1-22.3,18.4-27.9c3.2-3.4,7.2-5.9,11.6-7.5
						c6.4,0.3,13.1,5.7,18.2,4.2C248.6,213.3,251.6,273.8,251,283.3z"/>
					<path class="st15" d="M248.4,247c-0.3,0-0.5-0.5-0.5-1.1s0.2-1.1,0.5-1.1h0.4v2.2H248.4z"/>
					<ellipse class="st12" cx="248.8" cy="245.9" rx="0.5" ry="1.1"/>
					<path class="st15" d="M249.1,273.2c-0.3,0-0.5-0.5-0.5-1.1s0.2-1.1,0.5-1.1h0.4v2.2L249.1,273.2z"/>
					<ellipse class="st12" cx="249.5" cy="272.1" rx="0.5" ry="1.1"/>
					<path class="st15" d="M249.1,284.5c-0.3,0-0.5-0.5-0.5-1.1s0.2-1.1,0.5-1.1h0.4v2.2L249.1,284.5z"/>
					<ellipse class="st12" cx="249.5" cy="283.4" rx="0.5" ry="1.1"/>
					<path class="st15" d="M248.4,297.7c-0.3,0-0.5-0.5-0.5-1.1s0.2-1.1,0.5-1.1h0.4v2.2L248.4,297.7z"/>
					<ellipse class="st12" cx="248.8" cy="296.6" rx="0.5" ry="1.1"/>
					<path class="st15" d="M248.9,260.3c-0.3,0-0.5-0.5-0.5-1.1s0.2-1.1,0.5-1.1h0.4v2.2L248.9,260.3z"/>
					<ellipse class="st12" cx="249.3" cy="259.2" rx="0.5" ry="1.1"/>
					<path class="st15" d="M248.2,233.7c-0.3,0-0.6-0.5-0.6-1.1s0.2-1.1,0.6-1.1h0.4v2.2H248.2z"/>
					<ellipse class="st12" cx="248.6" cy="232.6" rx="0.5" ry="1.1"/>
					<path class="st15" d="M246.9,219.6c-0.3,0-0.5-0.5-0.5-1.1s0.2-1.1,0.5-1.1h0.4v2.2H246.9z"/>
					<ellipse class="st12" cx="247.2" cy="218.6" rx="0.5" ry="1.1"/>
					<path class="st14" d="M235.2,211.4c-0.6-0.9-1.4-1.7-2.5-2c-0.4-0.1-0.9-0.2-1.3-0.2c-4.2,1.8-7.9,4.5-10.9,7.8
						c-4.7,5.3-16.1,23-18.4,28.7c3.5,2.6,11.1,7.9,13.8,10c0.6,0.4,0.9,3.5,0.9,3.5s-0.1,1.6,0.1,1.8c2.3,0.3,4.7,0.4,7,0.4
						c2.2,0,6.9-11.2,7.7-15.2s5.4-22.8,5.6-26.7C237.4,216.7,236.7,213.9,235.2,211.4z"/>
					<path class="st12" d="M214.3,231.8l14.2,14.1c0,0-5.2,14.2-11.7,24.6c-6.6,10.6-13.2,25.4-14.2,32.4c-1.1,6.7-3.2,6.5-3.2,6.5
						l-3-0.4c0,0-4.9-2.6-5.3-4.1s-0.5-5.3,0.7-5.4s2.6-2.2,3.6-2.8s7.4-28.6,9.1-34.6s11-30.4,11-30.4L214.3,231.8z"/>
					<path class="st4" d="M229.8,209.3L229.8,209.3c-4.2,1.6-7.9,4.1-11,7.3c-5.4,5.6-19.8,26.8-18.4,27.9s13.4,10.4,15.5,11.3
						c2.5,0.9,5.1,1.4,7.8,1.5c2.2,0,5.3-10.2,6.1-13.9s7.3-20.6,7.5-24.2c0.1-2.7-0.6-5.5-2.1-7.8
						C234.5,210.5,229.8,209.3,229.8,209.3z"/>
					<path class="st16" d="M246.8,212.7c0,1.9,1.7,4.4,2.5,4.5s7.1-10.1,5.7-11s-1.8-0.4-1.8-0.4S246.8,210.8,246.8,212.7z"/>
					<path class="st17" d="M240.7,209.3c2.2,0.6,6.4,2.5,7.2,3.6s-1.6,3.9-3.5,4.5s-14.1-7.1-14.1-7.1s-1.6-2.4,0-2.9
						S238.5,208.7,240.7,209.3z"/>
					<path class="st2" d="M121.9,183c-9.2,3-19-2-22-11.2c-1-3.2-1.1-6.6-0.3-9.8c0.1-0.3-0.1-0.7-0.4-0.8c-0.2,0-0.3,0-0.4,0
						c-8.6,4.4-11.9,14.9-7.5,23.5c4.4,8.6,14.9,11.9,23.5,7.5c3.6-1.8,6.4-4.9,8-8.5c0.1-0.3,0-0.6-0.3-0.8
						C122.3,182.9,122.1,182.9,121.9,183L121.9,183z"/>
				</g>
			</g>
		</g>
	</g>
</g>
</svg>
