<svg xmlns="http://www.w3.org/2000/svg" xmlns:xlink="http://www.w3.org/1999/xlink" width="375" height="801.527" viewBox="0 0 375 801.527">
  <defs>
    <clipPath id="clip-path">
      <rect id="사각형_1" data-name="사각형 1" width="270" height="160" transform="translate(-0.217 -0.448)" fill="#fff"/>
    </clipPath>
  </defs>
  <g id="그룹_1" data-name="그룹 1" transform="translate(0 -10.473)">
    <rect id="사각형_2" data-name="사각형 2" width="375" height="174.439" transform="translate(0 637.561)" fill="#315066"/>
    <path id="패스_32" data-name="패스 32" d="M363.281,731.148c-6.473,0-11.719-.95-11.719-4.148,0,3.2-5.246,4.148-11.719,4.148s-11.719-.95-11.719-4.148c0,3.2-5.246,4.148-11.719,4.148s-11.719-.95-11.719-4.148c0,3.2-5.246,4.148-11.719,4.148S281.25,730.2,281.25,727c0,3.2-5.246,4.148-11.719,4.148s-11.719-.95-11.719-4.148c0,3.2-5.246,4.148-11.719,4.148s-11.719-.95-11.719-4.148c0,3.2-5.246,4.148-11.719,4.148s-11.719-.95-11.719-4.148c0,3.2-5.246,4.148-11.719,4.148S187.5,730.2,187.5,727c0,3.2-5.246,4.148-11.719,4.148s-11.719-.95-11.719-4.148c0,3.2-5.246,4.148-11.719,4.148s-11.719-.95-11.719-4.148c0,3.2-5.246,4.148-11.719,4.148s-11.719-.95-11.719-4.148c0,3.2-5.246,4.148-11.719,4.148S93.75,730.2,93.75,727c0,3.2-5.246,4.148-11.719,4.148S70.313,730.2,70.313,727c0,3.2-5.246,4.148-11.719,4.148S46.875,730.2,46.875,727c0,3.2-5.246,4.148-11.719,4.148S23.438,730.2,23.438,727c0,3.2-5.246,4.148-11.719,4.148S0,730.2,0,727v8.008H375V727C375,730.2,369.754,731.148,363.281,731.148Z" transform="translate(0 -94.522)" fill="#6e8393"/>
    <path id="패스_33" data-name="패스 33" d="M737.28,23.4a26.562,26.562,0,0,0,39.493,35.283A33.2,33.2,0,1,1,737.28,23.4Z" transform="translate(-431.632 60.227)" fill="#ffe040" fill-rule="evenodd"/>
    <path id="패스_34" data-name="패스 34" d="M500,45.49a2.458,2.458,0,0,1,.064-.562,2.493,2.493,0,0,0,1.864-1.865,2.515,2.515,0,0,1,1.124,0,2.493,2.493,0,0,0,1.864,1.865,2.5,2.5,0,0,1,0,1.123,2.493,2.493,0,0,0-1.864,1.865,2.515,2.515,0,0,1-1.124,0,2.493,2.493,0,0,0-1.864-1.865A2.458,2.458,0,0,1,500,45.49Z" transform="translate(-140.642 -7.309)" fill="#ffed8c" fill-rule="evenodd"/>
    <path id="패스_35" data-name="패스 35" d="M860,4.15a4.139,4.139,0,0,1,.106-.936A4.155,4.155,0,0,0,863.214.106a4.188,4.188,0,0,1,1.872,0,4.156,4.156,0,0,0,3.108,3.108,4.176,4.176,0,0,1,0,1.872,4.156,4.156,0,0,0-3.108,3.108,4.188,4.188,0,0,1-1.872,0,4.155,4.155,0,0,0-3.107-3.108A4.139,4.139,0,0,1,860,4.15Z" transform="translate(-637.47 66)" fill="#ffe666" fill-rule="evenodd"/>
    <path id="패스_36" data-name="패스 36" d="M490,502.15a4.142,4.142,0,0,1,.106-.936,4.156,4.156,0,0,0,3.108-3.108,4.18,4.18,0,0,1,1.872,0,4.155,4.155,0,0,0,3.108,3.108,4.176,4.176,0,0,1,0,1.873,4.155,4.155,0,0,0-3.108,3.108,4.177,4.177,0,0,1-1.872,0,4.155,4.155,0,0,0-3.108-3.108A4.143,4.143,0,0,1,490,502.15Z" transform="translate(-138.942 -84.648)" fill="#ffe040" fill-rule="evenodd"/>
    <path id="패스_37" data-name="패스 37" d="M1310,113.15a3.879,3.879,0,0,1,.108-.936,4.161,4.161,0,0,0,3.1-3.108,4.192,4.192,0,0,1,1.876,0,4.161,4.161,0,0,0,3.1,3.108,4.129,4.129,0,0,1,0,1.873,4.161,4.161,0,0,0-3.1,3.108,4.193,4.193,0,0,1-1.876,0,4.161,4.161,0,0,0-3.1-3.108A3.88,3.88,0,0,1,1310,113.15Z" transform="translate(-1024.58 -98.527)" fill="#ffe040" fill-rule="evenodd"/>
    <path id="패스_38" data-name="패스 38" d="M1140,127.32a3.7,3.7,0,0,1,.083-.749,3.32,3.32,0,0,0,2.49-2.487,3.339,3.339,0,0,1,1.494,0,3.32,3.32,0,0,0,2.49,2.487,3.418,3.418,0,0,1,0,1.5,3.32,3.32,0,0,0-2.49,2.487,3.338,3.338,0,0,1-1.494,0,3.32,3.32,0,0,0-2.49-2.487A3.7,3.7,0,0,1,1140,127.32Z" transform="translate(-794.048 -21.077)" fill="#ffed8c" fill-rule="evenodd"/>
    <path id="패스_40" data-name="패스 40" d="M110,629.66a1.687,1.687,0,0,1,.042-.375,1.663,1.663,0,0,0,1.243-1.243,1.678,1.678,0,0,1,.749,0,1.663,1.663,0,0,0,1.243,1.243,1.677,1.677,0,0,1,0,.749,1.664,1.664,0,0,0-1.243,1.244,1.682,1.682,0,0,1-.749,0,1.664,1.664,0,0,0-1.243-1.244A1.684,1.684,0,0,1,110,629.66Z" transform="translate(-74.351 -106.745)" fill="#ffed8c" fill-rule="evenodd"/>
    <path id="패스_41" data-name="패스 41" d="M1580,367.66a1.865,1.865,0,0,1,.041-.374,1.667,1.667,0,0,0,1.245-1.243,1.669,1.669,0,0,1,.747,0,1.667,1.667,0,0,0,1.245,1.243,1.7,1.7,0,0,1,0,.749,1.667,1.667,0,0,0-1.245,1.243,1.672,1.672,0,0,1-.747,0,1.666,1.666,0,0,0-1.245-1.243A1.864,1.864,0,0,1,1580,367.66Z" transform="translate(-1304.474 -62.211)" fill="#ffed8c" fill-rule="evenodd"/>
    <path id="패스_43" data-name="패스 43" d="M455,272.15a4.143,4.143,0,0,1,.106-.936,4.156,4.156,0,0,0,3.108-3.108,4.179,4.179,0,0,1,1.872,0,4.155,4.155,0,0,0,3.108,3.108,4.179,4.179,0,0,1,0,1.872,4.155,4.155,0,0,0-3.108,3.108,4.176,4.176,0,0,1-1.872,0,4.155,4.155,0,0,0-3.108-3.108A4.142,4.142,0,0,1,455,272.15Z" transform="translate(-132.993 -45.554)" fill="#ffed8c" fill-rule="evenodd"/>
    <path id="패스_44" data-name="패스 44" d="M1374,670.49a2.5,2.5,0,0,1,.067-.562,2.482,2.482,0,0,0,1.859-1.864,2.524,2.524,0,0,1,1.129,0,2.482,2.482,0,0,0,1.859,1.864,2.411,2.411,0,0,1,0,1.124,2.482,2.482,0,0,0-1.859,1.864,2.517,2.517,0,0,1-1.129,0,2.482,2.482,0,0,0-1.859-1.864A2.5,2.5,0,0,1,1374,670.49Z" transform="translate(-1269.458 -113.544)" fill="#ffe666" fill-rule="evenodd"/>
    <path id="패스_45" data-name="패스 45" d="M110,336.32a3.322,3.322,0,0,1,.085-.749,3.324,3.324,0,0,0,2.487-2.487,3.354,3.354,0,0,1,1.5,0,3.324,3.324,0,0,0,2.487,2.487,3.353,3.353,0,0,1,0,1.5,3.324,3.324,0,0,0-2.487,2.487,3.354,3.354,0,0,1-1.5,0,3.324,3.324,0,0,0-2.487-2.487A3.322,3.322,0,0,1,110,336.32Z" transform="translate(1.649 112.398)" fill="#ffed8c" fill-rule="evenodd"/>
    <g id="트럭" transform="translate(53.217 509.448)" clip-path="url(#clip-path)">
      <path id="패스_1" data-name="패스 1" d="M269.912,305.317H0v4.013H269.912Z" transform="translate(-0.067 -176.582)" fill="#050f1e"/>
      <path id="패스_2" data-name="패스 2" d="M225.224,0H76.856A29.942,29.942,0,0,0,50.221,16.225L28.648,58.159H23.107a7.968,7.968,0,0,0-7.981,7.955v9.871h-.816A5.816,5.816,0,0,0,8.485,81.79v46.779h263.8V46.934A47.012,47.012,0,0,0,225.224,0Z" transform="translate(-4.979 0.172)" fill="#2a5a72"/>
      <path id="패스_3" data-name="패스 3" d="M373.971,0H265.423l67.42,128.563h88.21V46.934A47.011,47.011,0,0,0,373.971,0Z" transform="translate(-153.726 0.172)" fill="#0c2630" opacity="0.2"/>
      <path id="패스_4" data-name="패스 4" d="M123.968,304.879a26.593,26.593,0,1,0-26.681-26.592A26.637,26.637,0,0,0,123.968,304.879Z" transform="translate(-56.389 -145.539)" fill="#0c0e23"/>
      <path id="패스_5" data-name="패스 5" d="M139.114,308.995a15.612,15.612,0,1,0-15.664-15.612A15.638,15.638,0,0,0,139.114,308.995Z" transform="translate(-71.535 -160.635)" fill="#0d314b"/>
      <path id="패스_6" data-name="패스 6" d="M145.424,310.709a11.038,11.038,0,1,0-11.075-11.038A11.057,11.057,0,0,0,145.424,310.709Z" transform="translate(-77.845 -166.924)" fill="#0c0e23"/>
      <path id="패스_7" data-name="패스 7" d="M457.657,304.879a26.593,26.593,0,1,0-26.681-26.592A26.637,26.637,0,0,0,457.657,304.879Z" transform="translate(-249.568 -145.539)" fill="#0c0e23"/>
      <path id="패스_8" data-name="패스 8" d="M472.8,308.995a15.612,15.612,0,1,0-15.664-15.612A15.638,15.638,0,0,0,472.8,308.995Z" transform="translate(-264.714 -160.635)" fill="#0d314b"/>
      <path id="패스_9" data-name="패스 9" d="M479.113,310.709a11.038,11.038,0,1,0-11.075-11.038A11.057,11.057,0,0,0,479.113,310.709Z" transform="translate(-271.024 -166.924)" fill="#0c0e23"/>
      <path id="패스_10" data-name="패스 10" d="M118.1,87.247H89.255a5.726,5.726,0,0,1-5.049-8.477L96.5,52.964a5.763,5.763,0,0,1,5.049-2.987H118.1a5.744,5.744,0,0,1,5.754,5.735V81.518a5.745,5.745,0,0,1-5.748,5.729Z" transform="translate(-48.408 -28.761)" fill="#ffe040"/>
      <path id="패스_11" data-name="패스 11" d="M219.574,49.962H202.027a8.33,8.33,0,0,0-8.344,8.316V78.928a8.33,8.33,0,0,0,8.344,8.316h17.547a8.33,8.33,0,0,0,8.343-8.316V58.278A8.33,8.33,0,0,0,219.574,49.962Z" transform="translate(-112.194 -28.752)" fill="#ffe040"/>
      <path id="패스_12" data-name="패스 12" d="M199.156,62.714A8.33,8.33,0,0,1,207.5,54.4" transform="translate(-115.363 -31.324)" fill="none" stroke="#fff" stroke-linecap="round" stroke-miterlimit="10" stroke-width="2"/>
      <path id="패스_13" data-name="패스 13" d="M410.515,49.962h-92.34a8.33,8.33,0,0,0-8.343,8.316v51.895a8.33,8.33,0,0,0,8.343,8.316h92.34a8.33,8.33,0,0,0,8.343-8.316V58.278A8.33,8.33,0,0,0,410.515,49.962Z" transform="translate(-179.435 -28.752)" fill="#ffe040"/>
      <path id="패스_14" data-name="패스 14" d="M415.731,198.407H290.018v11.754H415.731Z" transform="translate(-167.965 -114.69)" fill="#0d314b"/>
      <path id="패스_15" data-name="패스 15" d="M415.731,212.365H290.018v6.019H415.731Z" transform="translate(-167.965 -122.77)" fill="#01011e" opacity="0.5"/>
      <path id="패스_16" data-name="패스 16" d="M302.48,48.169h9.709a.93.93,0,0,1,.932.929v7.561a5.825,5.825,0,0,1-11.651,0V49.1a.93.93,0,0,1,.932-.929Z" transform="translate(-174.594 -27.714)" fill="#ffed9f"/>
      <path id="패스_17" data-name="패스 17" d="M330.011,48.169h9.709a.931.931,0,0,1,.932.929v7.561a5.825,5.825,0,0,1-11.651,0V49.1a.93.93,0,0,1,.932-.929Z" transform="translate(-190.533 -27.714)" fill="#ff7629"/>
      <path id="패스_18" data-name="패스 18" d="M357.594,48.168H367.3a.93.93,0,0,1,.971.929v7.561a5.826,5.826,0,0,1-11.651,0V49.1a.931.931,0,0,1,.932-.929Z" transform="translate(-206.524 -27.713)" fill="#ffed9f"/>
      <path id="패스_19" data-name="패스 19" d="M385.057,48.165h9.709a.931.931,0,0,1,.932.929v7.561a5.825,5.825,0,0,1-11.651,0V49.094a.932.932,0,0,1,1.01-.929Z" transform="translate(-222.4 -27.71)" fill="#ff7629"/>
      <path id="패스_20" data-name="패스 20" d="M412.587,48.169H422.3a.93.93,0,0,1,.932.929v7.561a5.825,5.825,0,0,1-11.651,0V49.1a.931.931,0,0,1,.932-.929Z" transform="translate(-238.337 -27.714)" fill="#ffed9f"/>
      <path id="패스_21" data-name="패스 21" d="M440.118,48.169h9.709a.93.93,0,0,1,.932.929v7.561a5.825,5.825,0,0,1-11.651,0V49.1a.93.93,0,0,1,.932-.929Z" transform="translate(-254.276 -27.714)" fill="#ff7629"/>
      <path id="패스_22" data-name="패스 22" d="M467.633,48.169h9.709a.93.93,0,0,1,.932.929v7.561a5.825,5.825,0,0,1-11.651,0V49.1a.931.931,0,0,1,.932-.929Z" transform="translate(-270.205 -27.714)" fill="#ffed9f"/>
      <path id="패스_23" data-name="패스 23" d="M495.118,48.165h9.709a.93.93,0,0,1,.932.929v7.561a5.825,5.825,0,0,1-11.651,0V49.094a.932.932,0,0,1,1.01-.929Z" transform="translate(-286.116 -27.71)" fill="#ff7629"/>
      <path id="패스_24" data-name="패스 24" d="M522.695,48.169H532.4a.93.93,0,0,1,.932.929v7.561a5.825,5.825,0,0,1-11.651,0V49.1a.93.93,0,0,1,.932-.929Z" transform="translate(-302.081 -27.714)" fill="#ffed9f"/>
      <path id="패스_25" data-name="패스 25" d="M550.226,48.169h9.709a.931.931,0,0,1,.932.929v7.561a5.825,5.825,0,0,1-11.651,0V49.1a.93.93,0,0,1,.932-.929Z" transform="translate(-318.02 -27.714)" fill="#ff7629"/>
      <path id="패스_26" data-name="패스 26" d="M417.561,42.47H301.654v3.155H417.561Z" transform="translate(-174.701 -24.415)" fill="#1d455e"/>
      <path id="패스_27" data-name="패스 27" d="M100.285,88.524l6.8-14.677" transform="translate(-58.124 -42.58)" fill="none" stroke="#fff" stroke-linecap="round" stroke-miterlimit="10" stroke-width="2"/>
      <path id="패스_28" data-name="패스 28" d="M119.269,63.665l1.366-2.948" transform="translate(-69.114 -34.978)" fill="none" stroke="#fff" stroke-linecap="round" stroke-miterlimit="10" stroke-width="2"/>
      <path id="패스_29" data-name="패스 29" d="M8.547,232.45H35.978A4.559,4.559,0,0,1,40.548,237v5.09a4.566,4.566,0,0,1-4.57,4.555H8.547v-14.2Z" transform="translate(-5.015 -134.398)" fill="#ffe040"/>
      <path id="패스_30" data-name="패스 30" d="M122.46,232.329h-.647V185.692a5.815,5.815,0,0,0-5.826-5.806H24.256v-.645h91.725a6.462,6.462,0,0,1,6.473,6.451Z" transform="translate(-14.11 -103.594)" fill="#01011e" opacity="0.5"/>
      <path id="패스_31" data-name="패스 31" d="M11.621,238.073h16.1" transform="translate(-6.795 -137.653)" fill="none" stroke="#fff" stroke-linecap="round" stroke-miterlimit="10" stroke-width="2"/>
    </g>
    <path id="패스_39" data-name="패스 39" d="M1710,623.15a3.893,3.893,0,0,1,.108-.936,4.161,4.161,0,0,0,3.1-3.108,4.2,4.2,0,0,1,1.876,0,4.162,4.162,0,0,0,3.1,3.108,4.12,4.12,0,0,1,0,1.873,4.162,4.162,0,0,0-3.1,3.108,4.194,4.194,0,0,1-1.876,0,4.162,4.162,0,0,0-3.1-3.108A3.891,3.891,0,0,1,1710,623.15Z" transform="translate(-1361.571 -4.215)" fill="#ffe040" fill-rule="evenodd"/>
    <path id="패스_42" data-name="패스 42" d="M1743,147.15a3.868,3.868,0,0,1,.108-.936,4.16,4.16,0,0,0,3.1-3.108,4.193,4.193,0,0,1,1.876,0,4.162,4.162,0,0,0,3.1,3.108,4.12,4.12,0,0,1,0,1.873,4.162,4.162,0,0,0-3.1,3.108,4.191,4.191,0,0,1-1.876,0,4.16,4.16,0,0,0-3.1-3.108A3.867,3.867,0,0,1,1743,147.15Z" transform="translate(-1728.18 405.646)" fill="#ffe666" fill-rule="evenodd"/>
  </g>
</svg>
