<?xml version="1.0" encoding="utf-8"?>
<!-- Generator: Adobe Illustrator 26.0.1, SVG Export Plug-In . SVG Version: 6.00 Build 0)  -->
<svg version="1.1" id="그룹_4" xmlns="http://www.w3.org/2000/svg" xmlns:xlink="http://www.w3.org/1999/xlink" x="0px" y="0px"
	 viewBox="0 0 375 812" style="enable-background:new 0 0 375 812;" xml:space="preserve">
<style type="text/css">
	.st0{fill:#01283B;}
	.st1{fill:#315066;}
	.st2{fill:#6E8393;}
	.st3{fill-rule:evenodd;clip-rule:evenodd;fill:#FFE040;}
	.st4{fill-rule:evenodd;clip-rule:evenodd;fill:#FFED8C;}
	.st5{fill-rule:evenodd;clip-rule:evenodd;fill:#FFE666;}
	.st6{fill:#050F1E;}
	.st7{fill:#2A5A72;}
	.st8{opacity:0.2;enable-background:new    ;}
	.st9{fill:#0C2630;}
	.st10{fill:#0C0E23;}
	.st11{fill:#0D314B;}
	.st12{fill:#FFE040;}
	.st13{fill:#FFFFFF;}
	.st14{opacity:0.5;enable-background:new    ;}
	.st15{fill:#01011E;}
	.st16{fill:#FFED9F;}
	.st17{fill:#FF7629;}
	.st18{fill:#1D455E;}
</style>
<rect id="사각형_3" class="st0" width="375" height="812"/>
<g id="그룹_1" transform="translate(0 -10.473)">
	<rect id="사각형_2" y="506.6" class="st1" width="375" height="372.1"/>
	<path id="패스_32" class="st2" d="M363.3,505.6c-6.5,0-11.7-1-11.7-4.1c0,3.2-5.2,4.1-11.7,4.1s-11.7-1-11.7-4.1
		c0,3.2-5.2,4.1-11.7,4.1s-11.7-1-11.7-4.1c0,3.2-5.2,4.1-11.7,4.1s-11.7-0.9-11.7-4.1c0,3.2-5.2,4.1-11.7,4.1s-11.7-1-11.7-4.1
		c0,3.2-5.2,4.1-11.7,4.1s-11.7-1-11.7-4.1c0,3.2-5.2,4.1-11.7,4.1s-11.7-1-11.7-4.1c0,3.2-5.2,4.1-11.7,4.1s-11.7-0.9-11.7-4.1
		c0,3.2-5.2,4.1-11.7,4.1s-11.7-1-11.7-4.1c0,3.2-5.2,4.1-11.7,4.1s-11.7-1-11.7-4.1c0,3.2-5.2,4.1-11.7,4.1s-11.7-1-11.7-4.1
		c0,3.2-5.2,4.1-11.7,4.1s-11.7-0.9-11.7-4.1c0,3.2-5.2,4.1-11.7,4.1s-11.7-0.9-11.7-4.1c0,3.2-5.2,4.1-11.7,4.1s-11.7-0.9-11.7-4.1
		c0,3.2-5.2,4.1-11.7,4.1s-11.7-0.9-11.7-4.1c0,3.2-5.2,4.1-11.7,4.1S0,504.7,0,501.5v8h375v-8C375,504.7,369.8,505.6,363.3,505.6z"
		/>
	<path id="패스_33" class="st3" d="M305.6,94.1c-8.9,11.7-6.6,28.3,5.1,37.2c10.4,7.9,25,7.1,34.4-1.9
		c-1.5,18.3-17.5,31.9-35.8,30.4c-18.3-1.5-31.9-17.5-30.4-35.8C280.2,109.2,291.1,97,305.6,94.1z"/>
	<path id="패스_34" class="st4" d="M359.4,48.7c0-0.2,0-0.4,0.1-0.6c0.9-0.2,1.6-0.9,1.9-1.9c0.4-0.1,0.8-0.1,1.1,0
		c0.2,0.9,0.9,1.6,1.9,1.9c0.1,0.4,0.1,0.8,0,1.1c-0.9,0.2-1.6,0.9-1.9,1.9c-0.4,0.1-0.8,0.1-1.1,0c-0.2-0.9-0.9-1.6-1.9-1.9
		C359.4,49,359.4,48.8,359.4,48.7z"/>
	<path id="패스_35" class="st5" d="M222.5,80.6c0-0.3,0-0.6,0.1-0.9c1.5-0.4,2.7-1.6,3.1-3.1c0.6-0.1,1.3-0.1,1.9,0
		c0.4,1.5,1.6,2.7,3.1,3.1c0.1,0.6,0.1,1.3,0,1.9c-1.5,0.4-2.7,1.6-3.1,3.1c-0.6,0.1-1.3,0.1-1.9,0c-0.4-1.5-1.6-2.7-3.1-3.1
		C222.6,81.3,222.5,80.9,222.5,80.6z"/>
	<path id="패스_36" class="st3" d="M351.1,428c0-0.3,0-0.6,0.1-0.9c1.5-0.4,2.7-1.6,3.1-3.1c0.6-0.1,1.3-0.1,1.9,0
		c0.4,1.5,1.6,2.7,3.1,3.1c0.1,0.6,0.1,1.3,0,1.9c-1.5,0.4-2.7,1.6-3.1,3.1c-0.6,0.1-1.3,0.1-1.9,0c-0.4-1.5-1.6-2.7-3.1-3.1
		C351.1,428.6,351.1,428.3,351.1,428z"/>
	<path id="패스_37" class="st3" d="M285.4,25.1c0-0.3,0-0.6,0.1-0.9c1.5-0.4,2.7-1.6,3.1-3.1c0.6-0.1,1.3-0.1,1.9,0
		c0.4,1.5,1.6,2.7,3.1,3.1c0.1,0.6,0.1,1.3,0,1.9c-1.5,0.4-2.7,1.6-3.1,3.1c-0.6,0.1-1.3,0.1-1.9,0c-0.4-1.5-1.6-2.7-3.1-3.1
		C285.5,25.7,285.4,25.4,285.4,25.1z"/>
	<path id="패스_38" class="st4" d="M346,116.7c0-0.3,0-0.5,0.1-0.7c1.2-0.3,2.2-1.3,2.5-2.5c0.5-0.1,1-0.1,1.5,0
		c0.3,1.2,1.3,2.2,2.5,2.5c0.1,0.5,0.1,1,0,1.5c-1.2,0.3-2.2,1.3-2.5,2.5c-0.5,0.1-1,0.1-1.5,0c-0.3-1.2-1.3-2.2-2.5-2.5
		C346,117.2,346,117,346,116.7z"/>
	<path id="패스_40" class="st4" d="M35.6,265c0-0.1,0-0.3,0-0.4c0.6-0.1,1.1-0.6,1.2-1.2c0.2-0.1,0.5-0.1,0.7,0
		c0.1,0.6,0.6,1.1,1.2,1.2c0.1,0.2,0.1,0.5,0,0.7c-0.6,0.1-1.1,0.6-1.2,1.2c-0.2,0.1-0.5,0.1-0.7,0c-0.1-0.6-0.6-1.1-1.2-1.2
		C35.7,265.3,35.6,265.1,35.6,265z"/>
	<path id="패스_41" class="st4" d="M275.5,315.9c0-0.1,0-0.3,0-0.4c0.6-0.1,1.1-0.6,1.2-1.2c0.2-0.1,0.5-0.1,0.7,0
		c0.1,0.6,0.6,1.1,1.2,1.2c0.1,0.2,0.1,0.5,0,0.7c-0.6,0.1-1.1,0.6-1.2,1.2c-0.2,0.1-0.5,0.1-0.7,0c-0.1-0.6-0.6-1.1-1.2-1.2
		C275.5,316.2,275.5,316,275.5,315.9z"/>
	<path id="패스_43" class="st4" d="M322,237.1c0-0.3,0-0.6,0.1-0.9c1.5-0.4,2.7-1.6,3.1-3.1c0.6-0.1,1.3-0.1,1.9,0
		c0.4,1.5,1.6,2.7,3.1,3.1c0.1,0.6,0.1,1.3,0,1.9c-1.5,0.4-2.7,1.6-3.1,3.1c-0.6,0.1-1.3,0.1-1.9,0c-0.4-1.5-1.6-2.7-3.1-3.1
		C322,237.7,322,237.4,322,237.1z"/>
	<path id="패스_44" class="st5" d="M104.5,299c0-0.2,0-0.4,0.1-0.6c0.9-0.2,1.6-0.9,1.9-1.9c0.4-0.1,0.8-0.1,1.1,0
		c0.2,0.9,0.9,1.6,1.9,1.9c0.1,0.4,0.1,0.8,0,1.1c-0.9,0.2-1.6,0.9-1.9,1.9c-0.4,0.1-0.8,0.1-1.1,0c-0.2-0.9-0.9-1.6-1.9-1.9
		C104.6,299.4,104.5,299.2,104.5,299z"/>
	<path id="패스_45" class="st4" d="M111.6,459.2c0-0.3,0-0.5,0.1-0.7c1.2-0.3,2.2-1.3,2.5-2.5c0.5-0.1,1-0.1,1.5,0
		c0.3,1.2,1.3,2.2,2.5,2.5c0.1,0.5,0.1,1,0,1.5c-1.2,0.3-2.2,1.3-2.5,2.5c-0.5,0.1-1,0.1-1.5,0c-0.3-1.2-1.3-2.2-2.5-2.5
		C111.7,459.7,111.6,459.4,111.6,459.2z"/>
	<path id="패스_39" class="st3" d="M348.4,361c0-0.3,0-0.6,0.1-0.9c1.5-0.4,2.7-1.6,3.1-3.1c0.6-0.1,1.3-0.1,1.9,0
		c0.4,1.5,1.6,2.7,3.1,3.1c0.1,0.6,0.1,1.3,0,1.9c-1.5,0.4-2.7,1.6-3.1,3.1c-0.6,0.1-1.3,0.1-1.9,0c-0.4-1.5-1.6-2.7-3.1-3.1
		C348.5,361.7,348.4,361.3,348.4,361z"/>
	<path id="패스_42" class="st5" d="M14.8,294.9c0-0.3,0-0.6,0.1-0.9c1.5-0.4,2.7-1.6,3.1-3.1c0.6-0.1,1.3-0.1,1.9,0
		c0.4,1.5,1.6,2.7,3.1,3.1c0.1,0.6,0.1,1.3,0,1.9c-1.5,0.4-2.7,1.6-3.1,3.1c-0.6,0.1-1.3,0.1-1.9,0c-0.4-1.5-1.6-2.7-3.1-3.1
		C14.9,295.5,14.8,295.2,14.8,294.9z"/>
</g>
<g>
	<g id="트럭" transform="translate(53.217 509.448)">
		<g id="패스_1">
			<path class="st6" d="M269.2,9.3H-0.7v4h269.9V9.3z"/>
		</g>
		<g id="패스_2">
			<path class="st7" d="M219.6-119.3H71.3c-11.2,0-21.5,6.3-26.6,16.2L23.1-61.1h-5.5c-4.4,0-8,3.6-8,8c0,0,0,0,0,0v9.9H8.7
				c-3.2,0-5.8,2.6-5.8,5.8V9.3h263.8v-81.6C266.7-98.3,245.6-119.3,219.6-119.3z"/>
		</g>
		<g id="패스_3" class="st8">
			<path class="st9" d="M219.6-119.3H111.1L178.5,9.3h88.2v-81.6C266.7-98.3,245.6-119.3,219.6-119.3z"/>
		</g>
		<g id="패스_4">
			<path class="st10" d="M67,39.9c14.7,0,26.6-12,26.5-26.7s-12-26.6-26.7-26.5c-14.7,0-26.5,11.9-26.5,26.6
				C40.3,28,52.3,39.9,67,39.9z"/>
		</g>
		<g id="패스_5">
			<path class="st11" d="M67,28.9c8.6,0,15.6-7,15.6-15.7c0-8.6-7-15.6-15.7-15.6c-8.6,0-15.6,7-15.6,15.6
				C51.3,21.9,58.3,28.9,67,28.9C67,28.9,67,28.9,67,28.9z"/>
		</g>
		<g id="패스_6">
			<path class="st10" d="M67,24.3c6.1,0,11-5,11-11.1c0-6.1-5-11-11.1-11c-6.1,0-11,5-11,11C55.9,19.4,60.9,24.4,67,24.3z"/>
		</g>
		<g id="패스_7">
			<path class="st10" d="M207.5,39.9c14.7,0,26.6-12,26.5-26.7c0-14.7-12-26.6-26.7-26.5c-14.7,0-26.5,11.9-26.5,26.6
				C180.8,28,192.8,39.9,207.5,39.9z"/>
		</g>
		<g id="패스_8">
			<path class="st11" d="M207.5,28.9c8.6,0,15.6-7,15.6-15.7s-7-15.6-15.7-15.6c-8.6,0-15.6,7-15.6,15.6
				C191.8,21.9,198.8,28.9,207.5,28.9L207.5,28.9z"/>
		</g>
		<g id="패스_9">
			<path class="st10" d="M207.5,24.3c6.1,0,11-5,11-11.1c0-6.1-5-11-11.1-11c-6.1,0-11,5-11,11C196.4,19.4,201.4,24.4,207.5,24.3z"
				/>
		</g>
		<g id="패스_10">
			<path class="st12" d="M69.1-61H40.2c-3.2,0-5.7-2.5-5.8-5.7c0-1,0.2-1.9,0.7-2.8l12.3-25.8c1-1.8,2.9-3,5-3h16.6
				c3.2,0,5.7,2.6,5.8,5.7c0,0,0,0,0,0v25.8C74.8-63.5,72.3-61,69.1-61L69.1-61z"/>
		</g>
		<g id="패스_11">
			<path class="st12" d="M106.8-98.2H89.2c-4.6,0-8.3,3.7-8.3,8.3c0,0,0,0,0,0v20.7c0,4.6,3.7,8.3,8.3,8.3h0h17.5
				c4.6,0,8.3-3.7,8.3-8.3v-20.7C115.1-94.5,111.4-98.2,106.8-98.2z"/>
		</g>
		<g id="패스_12">
			<path class="st13" d="M83.2-87.1C83.2-87.1,83.2-87.1,83.2-87.1c-0.6,0-1-0.4-1-1c0-5.1,4.2-9.3,9.3-9.3c0.5,0,1,0.4,1,1
				c0,0.6-0.4,1-1,1c0,0,0,0,0,0c-4,0-7.3,3.3-7.3,7.3C84.2-87.5,83.7-87.1,83.2-87.1z"/>
		</g>
		<g id="패스_13">
			<path class="st12" d="M230.5-98.2h-92.3c-4.6,0-8.3,3.7-8.3,8.3V-38c0,4.6,3.7,8.3,8.3,8.3h92.3c4.6,0,8.3-3.7,8.3-8.3v-51.9
				C238.8-94.5,235.1-98.2,230.5-98.2z"/>
		</g>
		<g id="패스_14">
			<path class="st11" d="M247.2-35.7H121.4V-24h125.7V-35.7z"/>
		</g>
		<g id="패스_15" class="st14">
			<path class="st15" d="M247.2-29.8H121.4v6h125.7V-29.8z"/>
		</g>
		<g id="패스_16">
			<path class="st16" d="M127.3-99h9.7c0.5,0,0.9,0.4,0.9,0.9c0,0,0,0,0,0v7.6c0,3.2-2.6,5.8-5.8,5.8s-5.8-2.6-5.8-5.8v-7.6
				C126.3-98.6,126.7-99,127.3-99C127.2-99,127.2-99,127.3-99L127.3-99z"/>
		</g>
		<g id="패스_17">
			<path class="st17" d="M138.9-99h9.7c0.5,0,0.9,0.4,0.9,0.9v7.6c0,3.2-2.6,5.8-5.8,5.8s-5.8-2.6-5.8-5.8v-7.6
				C137.9-98.6,138.3-99,138.9-99C138.8-99,138.8-99,138.9-99L138.9-99z"/>
		</g>
		<g id="패스_18">
			<path class="st16" d="M150.5-99h9.7c0.5,0,0.9,0.4,1,0.9c0,0,0,0,0,0v7.6c0,3.2-2.7,5.8-5.9,5.7c-3.2,0-5.7-2.6-5.7-5.7v-7.6
				C149.5-98.6,149.9-99,150.5-99L150.5-99z"/>
		</g>
		<g id="패스_19">
			<path class="st17" d="M162.1-99h9.7c0.5,0,0.9,0.4,0.9,0.9v7.6c0,3.2-2.6,5.8-5.8,5.8s-5.8-2.6-5.8-5.8v-7.6
				C161-98.6,161.5-99,162.1-99C162-99,162-99,162.1-99z"/>
		</g>
		<g id="패스_20">
			<path class="st16" d="M173.6-99h9.7c0.5,0,0.9,0.4,0.9,0.9c0,0,0,0,0,0v7.6c0,3.2-2.6,5.8-5.8,5.8s-5.8-2.6-5.8-5.8v-7.6
				C172.6-98.6,173.1-99,173.6-99L173.6-99z"/>
		</g>
		<g id="패스_21">
			<path class="st17" d="M185.2-99h9.7c0.5,0,0.9,0.4,0.9,0.9c0,0,0,0,0,0v7.6c0,3.2-2.6,5.8-5.8,5.8s-5.8-2.6-5.8-5.8v-7.6
				C184.2-98.6,184.6-99,185.2-99C185.2-99,185.2-99,185.2-99L185.2-99z"/>
		</g>
		<g id="패스_22">
			<path class="st16" d="M196.8-99h9.7c0.5,0,0.9,0.4,0.9,0.9c0,0,0,0,0,0v7.6c0,3.2-2.6,5.8-5.8,5.8s-5.8-2.6-5.8-5.8v-7.6
				C195.8-98.6,196.2-99,196.8-99L196.8-99z"/>
		</g>
		<g id="패스_23">
			<path class="st17" d="M208.4-99h9.7c0.5,0,0.9,0.4,0.9,0.9c0,0,0,0,0,0v7.6c0,3.2-2.6,5.8-5.8,5.8s-5.8-2.6-5.8-5.8v-7.6
				C207.4-98.6,207.8-99,208.4-99C208.3-99,208.4-99,208.4-99L208.4-99z"/>
		</g>
		<g id="패스_24">
			<path class="st16" d="M220-99h9.7c0.5,0,0.9,0.4,0.9,0.9c0,0,0,0,0,0v7.6c0,3.2-2.6,5.8-5.8,5.8s-5.8-2.6-5.8-5.8v-7.6
				C219-98.6,219.4-99,220-99C219.9-99,219.9-99,220-99L220-99z"/>
		</g>
		<g id="패스_25">
			<path class="st17" d="M231.6-99h9.7c0.5,0,0.9,0.4,0.9,0.9v7.6c0,3.2-2.6,5.8-5.8,5.8s-5.8-2.6-5.8-5.8v-7.6
				C230.6-98.6,231-99,231.6-99C231.5-99,231.5-99,231.6-99L231.6-99z"/>
		</g>
		<g id="패스_26">
			<path class="st18" d="M242.3-101.4H126.3v3.2h115.9V-101.4z"/>
		</g>
		<g id="패스_27">
			<path class="st13" d="M41.6-72.5c-0.1,0-0.3,0-0.4-0.1c-0.5-0.2-0.7-0.8-0.5-1.3l6.8-14.7c0.2-0.5,0.8-0.7,1.3-0.5
				c0.5,0.2,0.7,0.8,0.5,1.3l-6.8,14.7C42.3-72.7,41.9-72.5,41.6-72.5z"/>
		</g>
		<g id="패스_28">
			<path class="st13" d="M49.5-89.8c-0.1,0-0.3,0-0.4-0.1c-0.5-0.2-0.7-0.8-0.5-1.3l1.4-2.9c0.2-0.5,0.8-0.7,1.3-0.5
				c0.5,0.2,0.7,0.8,0.5,1.3l-1.4,2.9C50.3-90,49.9-89.8,49.5-89.8z"/>
		</g>
		<g id="패스_29">
			<path class="st12" d="M2.9-21.4h27.4c2.5,0,4.6,2,4.6,4.5c0,0,0,0,0,0v5.1c0,2.5-2.1,4.6-4.6,4.6H2.9V-21.4L2.9-21.4z"/>
		</g>
		<g id="패스_30" class="st14">
			<path class="st15" d="M107.7,9.3h-0.6v-46.6c0-3.2-2.6-5.8-5.8-5.8c0,0,0,0,0,0H9.5v-0.6h91.7c3.6,0,6.5,2.9,6.5,6.5v0L107.7,9.3
				z"/>
		</g>
		<g id="패스_31">
			<path class="st13" d="M20.3-18H4.2c-0.6,0-1-0.4-1-1s0.4-1,1-1h16.1c0.6,0,1,0.4,1,1S20.9-18,20.3-18z"/>
		</g>
	</g>
</g>
</svg>
