<?xml version="1.0" encoding="utf-8"?>
<!-- Generator: Adobe Illustrator 26.0.1, SVG Export Plug-In . SVG Version: 6.00 Build 0)  -->
<svg version="1.1" id="Layer_1" xmlns="http://www.w3.org/2000/svg" xmlns:xlink="http://www.w3.org/1999/xlink" x="0px" y="0px"
	 viewBox="0 0 375 304.8" style="enable-background:new 0 0 375 304.8;" xml:space="preserve">
<style type="text/css">
	.st0{clip-path:url(#SVGID_00000172424805300498900030000004923207773349185186_);}
	.st1{fill:#E8E4D6;}
	.st2{fill:#FFFBE7;}
	.st3{fill:#00618E;}
	.st4{fill:#348EAD;}
	.st5{fill:#FFFFFF;}
	.st6{fill:#E0DCCD;}
	.st7{fill:none;stroke:#0D314B;stroke-linecap:round;stroke-linejoin:round;}
	.st8{fill:#0D314B;}
	.st9{fill:#EB582B;}
	.st10{fill:#E5E5E5;}
	.st11{fill:none;stroke:#E5E5E5;stroke-miterlimit:10;}
	.st12{opacity:0.1;fill:#01283B;enable-background:new    ;}
	.st13{opacity:3.000000e-02;fill:#01283B;enable-background:new    ;}
	.st14{fill:#F7F2E8;}
	.st15{fill:#FFFAEE;}
	.st16{fill:#F9DA5F;}
	.st17{opacity:0.1;}
	.st18{fill:#01283B;}
	.st19{fill:#00618E;stroke:#00618E;stroke-miterlimit:10;}
	.st20{fill:#004E70;}
	.st21{fill:#FFDF40;}
</style>
<g>
	<g id="Layer_2_00000008130918885523309070000010496188873488809355_">
		<g id="일러스트">
			<g>
				<g>
					<defs>
						<rect id="SVGID_1_" y="-25" width="375" height="362.8"/>
					</defs>
					<clipPath id="SVGID_00000041269525845482817270000015762935402272855680_">
						<use xlink:href="#SVGID_1_"  style="overflow:visible;"/>
					</clipPath>
					<g style="clip-path:url(#SVGID_00000041269525845482817270000015762935402272855680_);">
						<path class="st1" d="M122.7,152.3c0.5,1.7,0.7,3.4,0.8,5.1c-0.1,2.4-2.6,7.8-2.6,7.8l10.8,23.6l12.8-26.4c0,0-2.6-2.6-2.8-5.6
							s-0.3-6.3-0.3-6.3L122.7,152.3z"/>
						<polygon class="st2" points="183.7,226.1 186.3,263.1 169.9,260 162.8,231.4 183.4,221.1 						"/>
						<path class="st3" d="M147.9,163.1c0,0,23.6,4.1,26.9,7.7s2.6,16.3,6.1,25.2s9.6,23.9,8.8,26.3s-22.3,10.3-22.3,10.3l2.6,27.3
							c0,0-15.9,8.2-39,8.2S92.3,259,92.3,259v-31.6c-3.6,0.7-7.4,0.6-11-0.3c-6.4-1.4-15.8-3.7-15.8-3.7s9.8-49.4,15.2-52.2
							s20.5-9.7,27.5-9.8s9.5,0,9.5,0l13.1,25.3L147.9,163.1z"/>
						<path class="st4" d="M143.8,160.2l-12.9,26.5c0,0,18.2-13.3,23.3-15.3c4.1-1.6-4.6-8.9-8.2-11.7c-0.6-0.5-1.5-0.4-2,0.3
							C143.9,160,143.9,160.1,143.8,160.2z"/>
						<path class="st4" d="M119.6,160l11.3,26.6c0,0-16.5-13.3-21.6-15.3c-4.2-1.6,4.9-9.1,8.3-11.8c0.6-0.4,1.4-0.3,1.8,0.2
							C119.5,159.8,119.6,159.9,119.6,160z"/>
						<path class="st5" d="M100.3,161.3c0,0,10.3-4.4,12.3-3.5s4,30,5.2,33.2s3,13.2,2.8,14.1s-3.5,0.1-4.7,1s-2.6,2.4-3.7,3.2
							s-4.6,0-5.9,0c-2.1,0.3-4.2,1-6.1,2c-0.9,0.6-2-32.9-1.3-38.2S99.3,162.5,100.3,161.3z"/>
						<path class="st5" d="M146.2,157.7c0,0-5.1,24.1-6.1,28.3s-2.5,11.3-2.2,13.6c0.3,2.4,0.5,4.9,0.6,7.3
							c-0.1,0.8,1.5,0.2,3.5,0.8s3.1,0.7,4.5,1.6s5.1-1,6.2-1.1s3.2-0.1,3.7,0.3s1.2,0.9,1.8,0.5s2.2-5.2,2.3-7.5s-1-21.8-0.6-26.4
							s1.9-11.8,1.9-11.8s-4.6-4.1-7.4-4.7S146.2,157.7,146.2,157.7z"/>
						<path class="st2" d="M162.2,109.2c0,0,10.2-1.2,8.2,8c-1.7,7.3-9.2,6.8-9.2,6.8"/>
						<path class="st6" d="M165.8,113.6l0.2,2.4c0,0.6-0.1,1.1-0.4,1.6l-1.4,2.1L165.8,113.6z"/>
						<path class="st2" d="M101.1,109.2c0,0-10.2-1.2-8.2,8c1.7,7.3,9.2,6.8,9.2,6.8"/>
						<path class="st6" d="M97.5,113.6l-0.2,2.4c0,0.6,0.1,1.1,0.4,1.6l1.4,2.1L97.5,113.6z"/>
						<path class="st2" d="M99,92.6c0,0,1.2,43.5,8,49.8s18.3,12,24.3,12s21.5-8.2,26.2-12.8s5.3-50.8,5.3-50.8L99,92.6z"/>
						<path class="st7" d="M137.5,110.7c2.3-0.7,4.7-1,7.2-1.1c2.6,0.1,5.2,0.7,7.7,1.8"/>
						<ellipse class="st8" cx="142.4" cy="116.3" rx="2.1" ry="2.4"/>
						<path class="st7" d="M125.6,111.6c-2.3-0.7-4.7-1-7.2-1.1c-2.6,0.1-5.2,0.7-7.7,1.8"/>
						<ellipse class="st8" cx="120.6" cy="117.2" rx="2.1" ry="2.4"/>
						<path class="st8" d="M136,102.1c0,0,2.7-2.1,8.2-1.4s8.1,2.7,8.1,2.7s-1.6,2.5-8.4,1.7S135.9,103.3,136,102.1z"/>
						<path class="st8" d="M125.6,102.1c0,0-2.7-2.1-8.2-1.5s-8.1,2.6-8.1,2.6s1.6,2.5,8.4,1.7S125.7,103.4,125.6,102.1z"/>
						<path class="st7" d="M129.2,124c0,0-0.2,2.7,0.4,3.5"/>
						<path class="st9" d="M121.1,135.6c1.6-1.8,16.9-4.5,19.6-2.5s-1.7,14.5-10.1,12.9C122,143.8,119.5,137.4,121.1,135.6z"/>
						<path class="st10" d="M161.8,75.9c2.7-0.7,5.4-1.7,8-2.9c2.7-1.4,2.9-2.1,3.2-1.4s0.3,4.2,0.6,5.2s2.3,4.9,1.8,5.4
							s-11.4-0.8-14.1,0.2S161.8,75.9,161.8,75.9z"/>
						<path class="st10" d="M160.9,83.1c1.6-0.2,3.2-0.2,4.7,0c1.8,0.3,9,0.7,10.4,1.5s1.1,2.8,1.7,4.5s1.1,4.3,0.7,4.7
							s-3.3-0.9-6-0.8s-5.4-0.1-7.3-1.4c-1.7-1.3-3.4-2.8-4.8-4.4L160.9,83.1z"/>
						<path class="st3" d="M95.8,79.7c-2.1-1.7-3.7-4-4.6-6.5c-1.1-3.8-1.5-4.6-1.1-5.2s4.6,1.7,5.7,0.3s-0.9-6.2,0-7.1
							s1.2,1.5,2.4,1.3s1.5-4.6,1.9-4.9s1.8,1.4,2.7,1.8s4,0.2,4.7,1.2s0.9,2.2,3.2,2s12.8-3.2,18.6-3.2s15.6,0.7,19.3,1.8
							c3.1,0.8,6.4,0.5,9.3-0.9c2-0.9,3.2-1,3.8-0.6s-1.8,2.9-1.5,4.1c0.3,1.2,4.1-0.2,3.9,0.3s-3.4,2.8-3.9,4.9
							c-0.2,1.6,0,3.2,0.6,4.7l-12.2,2.4L95.8,79.7z"/>
						<path class="st7" d="M144.6,128.8c1,0.4,1.9,0.9,2.8,1.7c0.7,0.7,1.1,1.6,1.3,2.6"/>
						<path class="st5" d="M98,78.1c0,0,62.4-5.7,62.9-4.4s2.6,6.1,2.6,6.1s-2.5,2.7-2.2,2.7c1.2,0.8,2.4,1.7,3.5,2.7l-0.6,7.6
							l-68,1.1c0,0-2-7.9-1.9-9.4c0.2-1.4,0.5-2.8,0.9-4.2L98,78.1z"/>
						<line class="st11" x1="94.5" y1="86.3" x2="107.6" y2="85.7"/>
						<path class="st12" d="M180.9,196c-3.6-8.9-2.9-21.6-6.1-25.2c-1.5-1.7-7.4-3.5-13.3-4.9c0.3-1.5,0.5-2.6,0.5-2.6
							s-4.6-4.1-7.4-4.7s-8.3-1-8.3-1s-0.1,0.7-0.4,1.8c-0.7-0.4-1.6-0.1-2,0.6v0.1l-0.4,0.8c-0.9-1.2-1.5-2.7-1.6-4.2
							c-0.1-2.1-0.2-4.3-0.3-5.4c-4,1.8-7.9,3.1-10.2,3.1H131v113.9c23.1,0,39-8.2,39-8.2l16.4,3.1l-2.6-37.1l0,0
							c3.2-1.5,5.7-2.9,6-3.7C190.4,219.9,184.4,204.9,180.9,196z"/>
						<path class="st12" d="M158.4,140l-0.1,0.2L158.4,140z"/>
						<path class="st12" d="M161.2,124L161.2,124c0,0,7.5,0.5,9.2-6.8c1.9-8.9-7.5-8.1-8.2-8l0,0C162,114,161.6,119.2,161.2,124
							L161.2,124z"/>
						<path class="st12" d="M158.7,139.3L158.7,139.3L158.7,139.3z"/>
						<path class="st12" d="M157.8,141.1l-0.1,0.1L157.8,141.1z"/>
						<path class="st12" d="M162.6,98.3L162.6,98.3z"/>
						<path class="st12" d="M156.3,142.6l-0.2,0.2L156.3,142.6z"/>
						<path class="st12" d="M162.6,99.4L162.6,99.4z"/>
						<path class="st12" d="M157,142.1l-0.2,0.2L157,142.1z"/>
						<path class="st12" d="M155.6,143.2l-0.2,0.2L155.6,143.2z"/>
						<path class="st12" d="M159.7,135.3v0.1V135.3z"/>
						<path class="st12" d="M160.3,131.5L160.3,131.5z"/>
						<path class="st12" d="M159.9,134.1v0.1V134.1z"/>
						<path class="st12" d="M160.1,132.8v0.1V132.8z"/>
						<path class="st12" d="M159.2,137.5v0.1V137.5z"/>
						<path class="st12" d="M159,138.4c0,0.1,0,0.1-0.1,0.2C159,138.5,159,138.4,159,138.4z"/>
						<path class="st12" d="M160.9,127.1L160.9,127.1z"/>
						<path class="st12" d="M160.5,130.1L160.5,130.1z"/>
						<path class="st12" d="M159.5,136.4c0,0.1,0,0.1,0,0.2C159.5,136.5,159.5,136.4,159.5,136.4z"/>
						<path class="st12" d="M158.1,140.7L158.1,140.7L158.1,140.7z"/>
						<path class="st12" d="M152.9,145.1l-0.2,0.1L152.9,145.1z"/>
						<path class="st12" d="M162.8,94L162.8,94z"/>
						<path class="st12" d="M146.3,149L146.3,149z"/>
						<path class="st12" d="M152,145.8l-0.2,0.1L152,145.8z"/>
						<path class="st12" d="M147.5,148.4L147.5,148.4L147.5,148.4z"/>
						<path class="st12" d="M162.8,93.3L162.8,93.3z"/>
						<path class="st12" d="M150.9,146.4l-0.1,0.1L150.9,146.4z"/>
						<path class="st12" d="M162.7,94.7L162.7,94.7z"/>
						<path class="st12" d="M153.8,144.5L153.8,144.5L153.8,144.5z"/>
						<path class="st12" d="M154.8,143.8l-0.2,0.1L154.8,143.8z"/>
						<path class="st13" d="M162.8,92.7L162.8,92.7h1.4l0.1-1.6c0.2,0.2,0.5,0.4,0.7,0.5c1.9,1.3,4.6,1.4,7.3,1.4s5.7,1.2,6,0.8
							s-0.2-3-0.7-4.7s-0.3-3.7-1.7-4.5s-8.6-1.2-10.4-1.5c-1.1-0.2-2.3-0.2-3.4-0.1c-0.3-0.2-0.6-0.4-0.9-0.6
							c2.7-1,13.6,0.3,14.1-0.2s-1.6-4.4-1.8-5.4s-0.2-4.5-0.6-5.2s-0.6,0-3.2,1.4c-2.6,1.2-5.3,2.1-8,2.9l0,0
							c-0.4-0.9-0.8-1.8-1-2.2c-0.6-1.5-0.9-3.1-0.6-4.7c0.5-2.2,3.7-4.3,3.9-4.9s-3.7,0.8-3.9-0.3s2-3.7,1.5-4.1s-1.8-0.3-3.8,0.6
							c-2.9,1.4-6.2,1.7-9.3,0.9c-3.4-1-11.9-1.6-17.8-1.7v32.2l31.9-0.9C162.8,90.8,162.8,91.5,162.8,92.7z"/>
						<path class="st12" d="M162.7,95.5L162.7,95.5z"/>
						<path class="st2" d="M162.8,92.7c0,0.2,0,0.4,0,0.6C162.8,93.1,162.8,92.9,162.8,92.7z"/>
						<path class="st2" d="M160.5,130.2c-0.1,0.5-0.1,0.9-0.2,1.3C160.4,131.1,160.4,130.6,160.5,130.2z"/>
						<path class="st2" d="M160.9,127.2c-0.1,1-0.2,2-0.3,2.9C160.6,129.1,160.8,128.2,160.9,127.2z"/>
						<path class="st2" d="M162.6,99.4c-0.1,2.8-0.2,6.2-0.4,9.7C162.4,105.6,162.5,102.3,162.6,99.4z"/>
						<path class="st2" d="M162.6,98.4v1V98.4z"/>
						<path class="st2" d="M162.8,93.4c0,0.2,0,0.4,0,0.6C162.8,93.8,162.8,93.6,162.8,93.4z"/>
						<path class="st2" d="M162.7,95.6c0,0.8-0.1,1.8-0.1,2.8C162.7,97.3,162.7,96.4,162.7,95.6z"/>
						<path class="st2" d="M162.7,94.8c0,0.2,0,0.5,0,0.7C162.7,95.3,162.7,95,162.7,94.8z"/>
						<path class="st2" d="M161.2,124c-0.1,1.1-0.2,2.1-0.3,3.1C161,126.1,161.1,125,161.2,124z"/>
						<path class="st2" d="M160.3,131.5c-0.1,0.4-0.1,0.9-0.2,1.3C160.2,132.4,160.2,132,160.3,131.5z"/>
						<path class="st2" d="M162.8,94.1c0,0.2,0,0.4,0,0.7C162.7,94.5,162.8,94.3,162.8,94.1z"/>
						<path class="st2" d="M158.9,138.5c-0.1,0.3-0.1,0.5-0.2,0.8C158.8,139.1,158.8,138.8,158.9,138.5z"/>
						<path class="st2" d="M156.8,142.2l-0.4,0.4L156.8,142.2z"/>
						<path class="st2" d="M153.7,144.6l-0.8,0.6L153.7,144.6z"/>
						<path class="st2" d="M154.6,144l-0.8,0.6L154.6,144z"/>
						<path class="st2" d="M155.4,143.4l-0.6,0.4L155.4,143.4z"/>
						<path class="st2" d="M156.1,142.8l-0.5,0.4L156.1,142.8z"/>
						<path class="st2" d="M152.7,145.3l-0.8,0.5L152.7,145.3z"/>
						<path class="st2" d="M160.1,133c-0.1,0.4-0.1,0.8-0.2,1.1C160,133.7,160,133.3,160.1,133z"/>
						<path class="st2" d="M141.5,151.4c1.6-0.7,3.2-1.5,4.7-2.3C144.7,149.9,143.1,150.7,141.5,151.4z"/>
						<path class="st2" d="M151.7,145.9l-0.8,0.5L151.7,145.9z"/>
						<path class="st2" d="M150.8,146.5c-1,0.6-2.1,1.3-3.3,1.9C148.6,147.8,149.7,147.1,150.8,146.5z"/>
						<path class="st2" d="M147.4,148.4l-1.1,0.6L147.4,148.4z"/>
						<path class="st2" d="M157.5,141.6c-0.2,0.2-0.3,0.3-0.5,0.5C157.1,141.9,157.3,141.8,157.5,141.6z"/>
						<path class="st2" d="M159.7,135.5c-0.1,0.3-0.1,0.6-0.2,0.9C159.5,136.1,159.6,135.8,159.7,135.5z"/>
						<path class="st2" d="M159.2,137.6c-0.1,0.3-0.1,0.5-0.2,0.7C159,138.1,159.1,137.9,159.2,137.6z"/>
						<path class="st2" d="M159.9,134.2c-0.1,0.4-0.1,0.8-0.2,1.1C159.8,135,159.8,134.6,159.9,134.2z"/>
						<path class="st2" d="M159.4,136.5c-0.1,0.3-0.1,0.6-0.2,0.9C159.3,137.2,159.4,136.9,159.4,136.5z"/>
						<path class="st2" d="M158.6,139.4c-0.1,0.2-0.1,0.4-0.2,0.6C158.5,139.8,158.6,139.6,158.6,139.4z"/>
						<path class="st2" d="M157.8,141.2c-0.1,0.1-0.2,0.2-0.3,0.3C157.6,141.5,157.7,141.4,157.8,141.2z"/>
						<path class="st2" d="M158.1,140.7c-0.1,0.1-0.2,0.3-0.2,0.4C157.9,141,158,140.9,158.1,140.7z"/>
						<path class="st2" d="M158.4,140.1c-0.1,0.2-0.2,0.4-0.3,0.6C158.2,140.5,158.3,140.3,158.4,140.1z"/>
						<path class="st13" d="M141.5,151.4L141.5,151.4c1.6-0.7,3.2-1.5,4.7-2.3l0,0l1.1-0.6h0.1c1.1-0.6,2.2-1.3,3.3-1.9l0.1-0.1
							l0.8-0.5l0.2-0.1l0.8-0.5l0.2-0.1l0.8-0.6l0.1-0.1l0.8-0.6l0.2-0.1l0.6-0.4l0.2-0.2l0.5-0.4l0.2-0.2l0.4-0.4l0.2-0.2
							c0.2-0.2,0.4-0.3,0.5-0.5c0.1-0.1,0.2-0.2,0.3-0.3l0.1-0.1c0.1-0.1,0.2-0.3,0.2-0.4s0,0,0,0c0.1-0.2,0.2-0.4,0.3-0.6l0.1-0.2
							c0.1-0.2,0.1-0.4,0.2-0.6v-0.1c0.1-0.2,0.2-0.5,0.2-0.8c0-0.1,0-0.1,0.1-0.2c0.1-0.2,0.1-0.5,0.2-0.7v-0.1
							c0.1-0.3,0.1-0.6,0.2-0.9c0-0.1,0-0.1,0-0.2c0.1-0.3,0.1-0.6,0.2-0.9v-0.1c0.1-0.4,0.1-0.7,0.2-1.1v-0.1
							c0.1-0.4,0.1-0.7,0.2-1.1V133c0.1-0.4,0.1-0.9,0.2-1.3l0,0c0.1-0.4,0.1-0.9,0.2-1.3v-0.1c0.1-0.9,0.2-1.9,0.3-2.9v-0.1
							c0.1-1,0.2-2.1,0.3-3.1c0.4-4.8,0.8-10,1-14.9c0.2-3.5,0.3-6.9,0.4-9.7l0,0v-1v-0.1c0-1,0.1-1.9,0.1-2.8v-0.1
							c0-0.2,0-0.5,0-0.7v-0.1c0-0.2,0-0.4,0-0.7V94c0-0.2,0-0.4,0-0.6v-0.1c0-0.2,0-0.4,0-0.6c0-1.3,0-2,0-2l-31.9,0.9v62.7h0.4
							C133.7,154.4,137.5,153.2,141.5,151.4z"/>
						<path class="st14" d="M252.5,152.5c0.5,1.7,0.7,3.4,0.8,5.1c-0.1,2.4-8,4.7-8,4.7l16.3,26.7l19-23.8c0,0-8.8-5.2-8.9-8.2
							s-0.3-6.3-0.3-6.3L252.5,152.5z"/>
						<polygon class="st15" points="204.8,226.3 201.8,263.4 225.8,258.4 230.3,226.6 205.1,221.4 						"/>
						<path class="st3" d="M277.7,163.4c0,0,23.6,4,26.9,7.7s2.6,16.3,6.1,25.2s9.6,23.9,8.8,26.3S297.1,233,297.1,233l2.5,27.3
							c0,0-15.9,8.2-39,8.2s-38.6-9.2-38.6-9.2v-31.7c-3.6,0.7-7.4,0.6-11-0.3c-6.4-1.4-15.8-3.7-15.8-3.7s9.8-49.4,15.2-52.2
							s20.5-9.7,27.5-9.8s9.5,0,9.5,0s5.2,10.2,14,10.2C270.2,171.8,277.7,163.4,277.7,163.4z"/>
						<path class="st14" d="M291.9,109.4c0,0,10.2-1.2,8.2,8c-1.7,7.3-9.2,6.8-9.2,6.8"/>
						<path class="st6" d="M295.6,113.9l0.2,2.4c0,0.6-0.1,1.1-0.4,1.6L294,120L295.6,113.9z"/>
						<path class="st14" d="M230.9,109.4c0,0-10.2-1.2-8.2,8c1.7,7.3,9.2,6.8,9.2,6.8"/>
						<path class="st6" d="M227.2,113.9l-0.2,2.4c0,0.6,0.1,1.1,0.4,1.6l1.4,2.1L227.2,113.9z"/>
						<path class="st15" d="M228.8,89.6c0,0,1.2,46.7,8,53.1s18.3,12,24.3,12s21.5-8.2,26.2-12.8s5.3-54.1,5.3-54.1L228.8,89.6z"/>
						<path class="st7" d="M267.4,112.6c2.2-1,4.6-1.6,7-2c2.5-0.3,5.1-0.4,7.7-0.4"/>
						<ellipse class="st8" cx="272.5" cy="116.6" rx="2.2" ry="2.5"/>
						<path class="st7" d="M255.3,112.5c-2.3-0.9-4.6-1.4-7.1-1.7c-2.6-0.2-5.1-0.2-7.7,0"/>
						<ellipse class="st8" cx="250.1" cy="117.5" rx="2.2" ry="2.5"/>
						<path class="st7" d="M261.3,123.7c0,0-0.2,2.7,0.4,3.5"/>
						<path class="st9" d="M251.9,134.8c2-1.4,17.4-1,19.7,1.5s-5.4,12.1-13.2,8.9C250.3,141.2,249.9,136.2,251.9,134.8z"/>
						<path class="st3" d="M235.4,95.4c3,1.7,6.4,2.4,9.8,1.9c2.9-0.4,5.7-1.2,8.2-2.6c0,0-4.3-1.7-5.9-3.8c0,0,11.5,1.1,14.5,2.5
							s10,4.2,11.3,4.1c0,0-2.2-2.6-3.3-3.8c-0.6-0.6-1-1.4-1.3-2.2c0,0,10,4.1,13.3,4.5s5.4,0.7,5.4,0.7s2.1,9.6,2.9,12.7
							s0.8,10.7,0.8,10.7s5.3-13.6,5.7-18.3s0.6-10.3,1.2-12.2s1.7-4,1.8-6s1.2-6.9-2-9.6s-15.6-7.9-25.3-7.8s-17.4-0.2-19.2-1.3
							s-3.2-3-4.6-3.2s-3.6,1.3-5,1.2c-1.8-0.2-3.5-1-4.6-2.4c-1.5-1.7-2.9-3.8-3.8-3.8s-0.9,5.1-1.4,6.9c-0.5,1.8-0.7,4.7-1.6,5.3
							s-6,0-7.8-0.9s-6.2-2.8-6.2-2.8s2.5,7.5,3.2,10s1.8,5.6,1.8,5.6s-4.8,0.9-6.1,1.7s-2.5,1.4-2.5,2.5s3.4,2.4,5,2.8
							s2.4,0.8,2.8,1.9s3.7,18.5,4.6,22.2s4.1,10.2,4.1,10.2c-0.1-4.2-0.5-8.4-1.1-12.6c-0.4-3-0.2-6.1,0.5-9c0.4-1,2.6-1.9,3.5-2.5
							C234.7,97.1,235.1,96.3,235.4,95.4z"/>
						<path class="st8" d="M239.3,103.3c0.5-0.5,1.2-0.9,1.9-1c2.7,0,5.4,0.3,8.1,0.9c2.2,0.7,6,1.6,6,2.7s-0.4,0.9-1.5,1.2
							s-4.2-0.5-5.9-0.7s-8.9-0.8-9-1.3C238.9,104.5,239,103.9,239.3,103.3z"/>
						<path class="st8" d="M283.7,103.3c-0.5-0.5-1.2-0.9-1.9-1c-2.7,0-5.4,0.3-8.1,0.9c-2.2,0.7-6,1.6-6,2.7s0.4,0.9,1.5,1.2
							s4.2-0.5,5.9-0.7s8.9-0.8,9-1.3C284.2,104.5,284,103.9,283.7,103.3z"/>
						<path class="st16" d="M223.9,165.5c2.1-1.2,4.3-2.2,6.5-2.9c3.3-1.1,6.5-2,6.5-2s2.4,11.8,3.7,18.1s2.8,14.5,3,15.2
							c0,0,0.4,2.6,2.7,2.7s15.9,0.1,17.2,0s11.9,0.7,13.4,0.1s3.8-33.4,5.6-33.2s11.4,1.7,11.4,2.6s-1,18.8-0.7,21
							s2.8,51.8,3.3,58.6s2.4,16.1,2,16.8s-28.3,7.2-34,7.3S226,264,225,262.2s-0.4-35.5,0.3-41.5S226.9,171.9,223.9,165.5z"/>
						<g class="st17">
							<path class="st13" d="M292.6,87.8l-29.7,0.8v65.9c6.9-1.2,20.1-8.4,24.4-12.6C291.9,137.2,292.6,87.8,292.6,87.8z"/>
							<path class="st13" d="M291.3,119.9L291.3,119.9L291.3,119.9l-0.3,4.4c0,0,7.5,0.5,9.2-6.8c1.3-5.9-2.4-7.5-5.2-8
								c0.9-2.6,1.6-5.2,2-7.9c0.4-4.7,0.6-10.3,1.2-12.2s1.7-4,1.8-6s1.2-6.9-2-9.6s-15.5-7.9-25.3-7.8c-3.6,0-6.9,0-9.8-0.1v22.7
								l29.7-0.8c0,0-0.4,30.1-2.8,45.5l0,0C290.4,129.5,290.9,124.8,291.3,119.9z"/>
							<path class="st18" d="M321.1,239.9c-0.3-5.1-0.6-10.9-3.7-15.6l0,0c1.1-0.7,1.9-1.2,2-1.7c0.8-2.4-5.2-17.4-8.8-26.3
								s-2.9-21.6-6.1-25.2c-1.3-1.4-5.8-3-10.7-4.3c0-0.4,0-0.8,0-0.9c0-0.9-9.7-2.4-11.4-2.6c-0.2,0-0.3,0.3-0.5,0.8
								c-2.5-0.5-4.2-0.8-4.2-0.8l0,0c-2.6-1.8-6-4.5-6.1-6.3c-0.1-2.1-0.2-4.3-0.3-5.4c6.3-2.8,13.1-6.9,16-9.8
								c1-1,1.9-4.2,2.5-8.6l0,0c-0.7,4.4-1.5,7.5-2.5,8.6c-4.3,4.3-17.5,11.4-24.4,12.6v115.1c0.7,0,1.2,0.1,1.7,0.1
								c5.7-0.1,33.6-6.7,34-7.3c0.1-0.5,0.1-1,0-1.5c0.7-0.3,1.1-0.5,1.1-0.5l-1.5-16.6c0.5,1,1.2,1.9,2.1,2.6
								c4.7,3.2,5,6.4,11.1,4.3S321.4,245.1,321.1,239.9z"/>
						</g>
						<path class="st19" d="M261.5,224.2v-0.1c0-0.6-0.4-1-1-1l0,0c-0.6,0-1,0.4-1,1v0.1c0.1,11.6-7.4,19.8-7.4,19.8
							c-0.4,0.4-0.4,1,0,1.4c0.2,0.2,0.4,0.3,0.7,0.3s0.5-0.1,0.7-0.3c3.4-3.9,5.9-8.7,7.1-13.7c1.4,5,4,9.7,7.6,13.5
							c0.2,0.2,0.4,0.3,0.7,0.3c0.3,0,0.5-0.1,0.7-0.3c0.4-0.4,0.4-1,0-1.4C269.6,243.7,261.8,235.8,261.5,224.2z"/>
						<path class="st19" d="M273.3,222.3l-12.1-7.8c-0.3-0.2-0.7-0.2-1.1,0l-12.3,7.9c-0.3,0.2-0.5,0.5-0.4,0.8l0.4,22
							c0,0.6,0.4,1,1,1s1-0.4,1-1l-0.4-21.4l11.3-7.3l11.2,7.2l0.4,21.8c0,0.6,0.4,1,1,1s1-0.4,1-1l-0.4-22.3
							C273.9,222.8,273.7,222.5,273.3,222.3z"/>
						<circle class="st19" cx="252.7" cy="226.7" r="1.3"/>
						<circle class="st19" cx="252.8" cy="231.5" r="1.3"/>
						<path class="st2" d="M48,236.3c38.7,0,79.6,23.2,116.7,23.2s72.4-19.1,110.7-19.1s55-24.9,83-24.9h19v60.3H-12.7v-23
							C-12.7,252.9,9.4,236.3,48,236.3z"/>
						<path class="st9" d="M50.5,242.2c38.7,0,100.5,14.8,137.6,14.8s51.5-10.7,89.8-10.7s55-24.9,83-24.9h19v60.3H-10.2v-23
							C-10.2,258.7,11.9,242.2,50.5,242.2z"/>
						<path class="st20" d="M315.3,247.3c-38.7,0-100.5,14.8-137.6,14.8s-51.5-10.7-89.8-10.7s-55-24.9-83-24.9h-19v111.2h396.9
							v-73.9C382.8,263.9,354,247.3,315.3,247.3z"/>
						<path class="st2" d="M72.6,235c1.6-5.4,14.6-33.2,19.3-40.3s5.9-6.4,6.3-8.8s3-6.2,6.1-7.2s3.4-1.4,5,0s3.7,6.1,3.7,6.1
							s1.3,5.4,0.4,5.9s-5.2,2.3-6.5,3c-1.8,1.1-3.2,2.9-3.9,4.9c-1,2.6-2.7,49.9-6.2,54.3c-3.6,4.4-5.2,6.9-11.7,6.7
							s-11.3-2.3-12.6-7.3C71.2,246.6,71.2,240.6,72.6,235z"/>
						<path class="st15" d="M317.4,224.3c-3.1-4.8-24.8-28.4-31.5-33.9s-7.5-4.5-8.6-6.6s-2.1-5.1-5.4-5.2s-6.2-0.3-7.3,1.5
							s-1.7,6.9-1.7,6.9s0.9,7.1,1.9,7.2s6.5,0.9,8,1.1s3.7,2,5.4,4.1s17.3,43.5,22,46.8s5,6.4,11,4.3s10.2-5.5,9.9-10.6
							S320.5,229.1,317.4,224.3z"/>
						<path class="st21" d="M167.6,39.4c0.4,3-0.5,5.7-2.4,6.8c-0.1,0.1,0,0.3,0.1,0.3c2.2,0,4.4,1.8,5.7,4.5
							c0.1,0.2,0.2,0.1,0.2-0.1c-0.4-3,0.6-5.7,2.4-6.8c0.1-0.1,0-0.3-0.1-0.3c-2.2,0-4.4-1.8-5.7-4.5
							C167.7,39.2,167.5,39.2,167.6,39.4z"/>
						<path class="st21" d="M196.6,0.1c-1,2-2.7,3.2-4.3,3.1c-0.1,0-0.1,0.2-0.1,0.2c1.3,0.9,1.9,2.9,1.6,5.1c0,0.1,0.1,0.2,0.2,0
							c1-2,2.7-3.2,4.3-3.1c0.1,0,0.2-0.2,0.1-0.2c-1.3-0.9-2-2.9-1.6-5.1C196.8,0,196.7,0,196.6,0.1z"/>
						<path class="st21" d="M338.5,141.3c-1,2-2.7,3.2-4.3,3.1c-0.1,0-0.1,0.2-0.1,0.2c1.3,0.9,2,2.9,1.6,5.1c0,0.1,0.1,0.2,0.2,0.1
							c1-1.9,2.7-3.2,4.3-3.1c0.1,0,0.1-0.1,0.1-0.2c0,0,0,0,0-0.1c-1.3-0.9-2-2.9-1.6-5.1C338.7,141.2,338.6,141.2,338.5,141.3z"/>
						<path class="st21" d="M55,135.7c-1,1.9-2.7,3.2-4.3,3.1c-0.1,0-0.2,0.2-0.1,0.2c1.3,0.9,2,2.9,1.6,5.1c0,0.1,0.1,0.2,0.2,0.1
							c1-2,2.7-3.2,4.3-3.1c0.1,0,0.1-0.1,0.1-0.2c0,0,0,0,0-0.1c-1.3-0.9-2-2.9-1.6-5.1C55.2,135.7,55,135.6,55,135.7z"/>
						<path class="st21" d="M28.4,37c-1.2,3.9-3.9,6.7-6.8,7.1c-0.2,0-0.2,0.4-0.1,0.4c2.7,1.3,4.5,4.7,4.5,8.8c0,0.2,0.2,0.3,0.3,0
							c1.2-3.9,3.9-6.7,6.8-7.1c0.2,0,0.2-0.4,0.1-0.4c-2.7-1.2-4.5-4.7-4.5-8.7C28.7,36.8,28.4,36.8,28.4,37z"/>
						<path class="st21" d="M314.6,43.2c-1.2,3.9-3.9,6.7-6.8,7.1c-0.2,0-0.2,0.4-0.1,0.4c2.7,1.2,4.5,4.7,4.5,8.7
							c0,0.2,0.2,0.3,0.3,0c1.2-3.9,3.9-6.7,6.8-7.1c0.2,0,0.2-0.4,0.1-0.4c-2.7-1.2-4.5-4.7-4.5-8.7
							C314.9,43.1,314.7,43,314.6,43.2z"/>
						<path class="st21" d="M91.9,273.3c3.2,2.5,4.9,6,4.2,8.9c0,0.2,0.3,0.3,0.4,0.2c2.1-2.1,6-2.5,9.8-1.1
							c0.2,0.1,0.3-0.1,0.2-0.3c-3.2-2.5-4.9-6-4.2-8.9c0-0.2-0.3-0.3-0.4-0.2c-2.1,2.1-6,2.6-9.8,1.1
							C91.8,273,91.7,273.2,91.9,273.3z"/>
					</g>
				</g>
			</g>
		</g>
	</g>
</g>
</svg>
