<svg xmlns="http://www.w3.org/2000/svg" viewBox="0 0 330.07 247.47"><defs><style>.cls-1{isolation:isolate;}.cls-10,.cls-2,.cls-5{mix-blend-mode:multiply;}.cls-2{opacity:0.3;}.cls-3{fill:#0d314b;}.cls-4{fill:#004e70;}.cls-10,.cls-5{fill:#01283b;}.cls-5{opacity:0.2;}.cls-6{fill:#005877;}.cls-7{fill:#00618e;}.cls-8{fill:#003b60;}.cls-9{fill:#af3a20;}.cls-10{opacity:0.5;}.cls-11{fill:#ffec9e;}.cls-12{fill:#ff7629;}.cls-13{fill:#1d455e;}.cls-14{fill:#ffdf40;}.cls-15{fill:#96884d;}.cls-16{fill:#eacb49;}</style></defs><g class="cls-1"><g id="Layer_2" data-name="Layer 2"><g id="일러스트"><ellipse class="cls-2" cx="170.34" cy="226.49" rx="159.73" ry="20.98"/><rect class="cls-3" x="42.34" y="58.6" width="211.65" height="167.72"/><polygon class="cls-4" points="201.41 0 150.84 0.16 253.99 58.6 306.09 58.44 201.41 0"/><polygon class="cls-5" points="42.34 226.32 148.17 63.58 42.34 63.58 42.34 226.32"/><path class="cls-6" d="M42.34,226.32h0V58.6H148.17C151.83,128.06,104.48,234.12,42.34,226.32Z"/><path class="cls-7" d="M42.34,226.32h0V58.6H148.17C148.17,117.05,100.79,226.32,42.34,226.32Z"/><path class="cls-7" d="M254,226.32h0V58.6H148.17C148.17,117.05,195.55,226.32,254,226.32Z"/><rect class="cls-8" x="253.99" y="58.6" width="48.9" height="167.72"/><polygon class="cls-7" points="150.84 0.16 37.37 58.6 264.31 58.6 150.84 0.16"/><rect class="cls-9" x="42.34" y="58.6" width="211.65" height="4.58"/><polygon class="cls-5" points="253.99 226.32 148.17 63.58 253.99 63.58 253.99 226.32"/><path class="cls-10" d="M265.1,62.91H42.34V67.8h0a1.49,1.49,0,0,0,0,.21V80.18a8.57,8.57,0,0,0,8.57,8.57h0a8.57,8.57,0,0,0,8.57-8.57A8.57,8.57,0,0,0,68,88.75h0a8.57,8.57,0,0,0,8.57-8.57,8.57,8.57,0,0,0,8.57,8.57h0a8.57,8.57,0,0,0,8.57-8.57,8.57,8.57,0,1,0,17.13,0,8.57,8.57,0,0,0,17.14,0,8.57,8.57,0,1,0,17.13,0,8.57,8.57,0,0,0,17.14,0,8.57,8.57,0,1,0,17.13,0A8.57,8.57,0,0,0,188,88.75h0a8.57,8.57,0,0,0,8.57-8.57,8.57,8.57,0,0,0,8.57,8.57h0a8.57,8.57,0,0,0,8.56-8.57,8.57,8.57,0,0,0,8.57,8.57h0a8.57,8.57,0,0,0,8.57-8.57,8.57,8.57,0,1,0,17.14,0,8.57,8.57,0,1,0,17.13,0V68a1.49,1.49,0,0,0,0-.21h0ZM59.46,67.8h0a1.49,1.49,0,0,0,0,.21A1.49,1.49,0,0,0,59.46,67.8Zm17.13,0h0a1.49,1.49,0,0,0,0,.21A1.49,1.49,0,0,0,76.59,67.8Zm17.14,0h0a1.49,1.49,0,0,0,0,.21A1.49,1.49,0,0,0,93.73,67.8Zm17.13,0h0a1.49,1.49,0,0,0,0,.21A1.49,1.49,0,0,0,110.86,67.8Zm17.14,0h0a1.49,1.49,0,0,0,0,.21A1.49,1.49,0,0,0,128,67.8Zm17.13,0h0a1.49,1.49,0,0,0,0,.21A1.49,1.49,0,0,0,145.13,67.8Zm17.14,0h0a1.49,1.49,0,0,0,0,.21A1.49,1.49,0,0,0,162.27,67.8Zm17.13,0h0a.76.76,0,0,0,0,.21A1.49,1.49,0,0,0,179.4,67.8Zm17.14,0h0a1.49,1.49,0,0,0,0,.21A1.49,1.49,0,0,0,196.54,67.8Zm17.13,0h.05a1.52,1.52,0,0,0,0,.21A1.49,1.49,0,0,0,213.67,67.8Zm17.14,0h0a1.49,1.49,0,0,0,0,.21A1.49,1.49,0,0,0,230.81,67.8ZM248,68a1.52,1.52,0,0,0,0-.21H248A1.49,1.49,0,0,0,248,68Z"/><path class="cls-11" d="M43.72,62.17H58.1a1.38,1.38,0,0,1,1.38,1.38V75.71a8.57,8.57,0,0,1-8.57,8.57h0a8.57,8.57,0,0,1-8.57-8.57V63.54a1.38,1.38,0,0,1,1.38-1.38Z"/><path class="cls-12" d="M60.85,62.17H75.23a1.38,1.38,0,0,1,1.38,1.38V75.71A8.57,8.57,0,0,1,68,84.28h0a8.57,8.57,0,0,1-8.57-8.57V63.54A1.38,1.38,0,0,1,60.85,62.17Z"/><path class="cls-11" d="M78,62.17H92.37a1.38,1.38,0,0,1,1.38,1.38V75.71a8.57,8.57,0,0,1-8.57,8.57h0a8.57,8.57,0,0,1-8.57-8.57V63.54A1.38,1.38,0,0,1,78,62.17Z"/><path class="cls-12" d="M95.13,62.17h14.38a1.38,1.38,0,0,1,1.38,1.38V75.71a8.57,8.57,0,0,1-8.57,8.57h0a8.57,8.57,0,0,1-8.57-8.57V63.54A1.38,1.38,0,0,1,95.13,62.17Z"/><path class="cls-11" d="M112.26,62.17h14.38A1.38,1.38,0,0,1,128,63.54V75.71a8.57,8.57,0,0,1-8.57,8.57h0a8.57,8.57,0,0,1-8.57-8.57V63.54a1.38,1.38,0,0,1,1.38-1.38Z"/><path class="cls-12" d="M129.4,62.17h14.38a1.38,1.38,0,0,1,1.38,1.38V75.71a8.57,8.57,0,0,1-8.57,8.57h0A8.57,8.57,0,0,1,128,75.71V63.54a1.38,1.38,0,0,1,1.38-1.38Z"/><path class="cls-11" d="M146.53,62.17h14.38a1.38,1.38,0,0,1,1.38,1.38V75.71a8.57,8.57,0,0,1-8.57,8.57h0a8.57,8.57,0,0,1-8.57-8.57V63.54a1.38,1.38,0,0,1,1.38-1.38Z"/><path class="cls-12" d="M163.67,62.17H178a1.38,1.38,0,0,1,1.38,1.38V75.71a8.57,8.57,0,0,1-8.57,8.57h0a8.57,8.57,0,0,1-8.57-8.57V63.54a1.38,1.38,0,0,1,1.38-1.38Z"/><path class="cls-11" d="M180.8,62.17h14.38a1.38,1.38,0,0,1,1.38,1.38V75.71A8.57,8.57,0,0,1,188,84.28h0a8.57,8.57,0,0,1-8.57-8.57V63.54A1.38,1.38,0,0,1,180.8,62.17Z"/><path class="cls-12" d="M197.94,62.17h14.38a1.38,1.38,0,0,1,1.38,1.38V75.71a8.57,8.57,0,0,1-8.57,8.57h0a8.57,8.57,0,0,1-8.57-8.57V63.54a1.38,1.38,0,0,1,1.38-1.38Z"/><path class="cls-11" d="M215.07,62.17h14.38a1.38,1.38,0,0,1,1.38,1.38V75.71a8.57,8.57,0,0,1-8.57,8.57h0a8.57,8.57,0,0,1-8.57-8.57V63.54a1.38,1.38,0,0,1,1.38-1.38Z"/><path class="cls-11" d="M249.34,62.17h14.38a1.38,1.38,0,0,1,1.38,1.38V75.71a8.57,8.57,0,0,1-8.57,8.57h0A8.57,8.57,0,0,1,248,75.71V63.54a1.38,1.38,0,0,1,1.38-1.38Z"/><path class="cls-12" d="M232.21,62.17h14.38A1.38,1.38,0,0,1,248,63.54V75.71a8.57,8.57,0,0,1-8.57,8.57h0a8.57,8.57,0,0,1-8.57-8.57V63.54a1.38,1.38,0,0,1,1.38-1.38Z"/><rect class="cls-13" x="42.34" y="58.44" width="222.76" height="4.89"/><path class="cls-14" d="M150.84,45.17a11.86,11.86,0,1,1,0-23.71"/><path class="cls-11" d="M150.84,21.46a11.86,11.86,0,1,1,0,23.71"/><path class="cls-10" d="M265.16,62.91V83.63a5.12,5.12,0,1,0,10.23,0,5.12,5.12,0,1,0,10.23,0,5.12,5.12,0,0,0,10.24,0,5.12,5.12,0,1,0,10.23,0V62.91Z"/><path class="cls-11" d="M276.21,62.17h8.59a.82.82,0,0,1,.82.82V79.16a5.12,5.12,0,0,1-5.12,5.12h0a5.12,5.12,0,0,1-5.12-5.12V63A.82.82,0,0,1,276.21,62.17Z"/><path class="cls-12" d="M266,62.17h8.59a.82.82,0,0,1,.82.82V79.16a5.12,5.12,0,0,1-5.12,5.12h0a5.12,5.12,0,0,1-5.12-5.12V63a.82.82,0,0,1,.82-.82Z"/><path class="cls-11" d="M296.68,62.17h8.59a.82.82,0,0,1,.82.82V79.16A5.12,5.12,0,0,1,301,84.28h0a5.12,5.12,0,0,1-5.12-5.12V63a.82.82,0,0,1,.82-.82Z"/><path class="cls-12" d="M286.45,62.17H295a.82.82,0,0,1,.82.82V79.16a5.12,5.12,0,0,1-5.12,5.12h0a5.12,5.12,0,0,1-5.12-5.12V63A.82.82,0,0,1,286.45,62.17Z"/><rect class="cls-13" x="265.16" y="58.44" width="40.93" height="4.89"/><path class="cls-10" d="M265.16,58.44V79.16a5.12,5.12,0,1,0,10.23,0,5.12,5.12,0,1,0,10.23,0,5.12,5.12,0,0,0,10.24,0,5.12,5.12,0,1,0,10.23,0V58.44Z"/><path class="cls-14" d="M297.22,21.66c-4.36,6.64-11,10.41-16.77,9.54-.34-.05-.62.55-.36.78,4.42,3.84,5.84,11.32,3.61,19-.13.44.31.64.56.25,4.36-6.64,11-10.4,16.77-9.53.34.05.62-.56.36-.78C297,37,295.55,29.55,297.77,21.92,297.9,21.48,297.47,21.28,297.22,21.66Z"/><path class="cls-14" d="M17.23,103c-4.36,6.64-11,10.4-16.77,9.54-.34-.05-.62.55-.36.78,4.42,3.84,5.84,11.32,3.62,19-.13.44.3.64.55.25,4.36-6.64,11-10.4,16.77-9.53.34.05.62-.56.36-.78-4.41-3.85-5.84-11.33-3.61-18.95C17.92,102.81,17.48,102.61,17.23,103Z"/><path class="cls-14" d="M55.82,25.05c.91,3.66.1,7.17-2.06,8.91-.13.1,0,.39.15.37,2.76-.3,5.82,1.6,7.77,4.83.11.19.32.1.26-.11-.91-3.66-.1-7.17,2.07-8.91.12-.1,0-.39-.16-.37-2.76.3-5.82-1.6-7.76-4.83C56,24.75,55.77,24.84,55.82,25.05Z"/><path class="cls-14" d="M314.53,142.88c.92,3.65.1,7.17-2.06,8.91-.12.1,0,.39.16.37,2.76-.3,5.82,1.6,7.76,4.83.11.18.32.1.27-.11-.92-3.66-.1-7.17,2.06-8.91.13-.1,0-.39-.16-.37-2.75.3-5.82-1.6-7.76-4.83C314.69,142.58,314.48,142.67,314.53,142.88Z"/><path class="cls-14" d="M246.92,180.36c1.93,7.71.21,15.12-4.36,18.79-.26.22,0,.83.33.79,5.82-.64,12.29,3.38,16.39,10.19.23.4.67.21.56-.23-1.93-7.71-.21-15.13,4.36-18.8.26-.21,0-.83-.33-.79-5.82.64-12.29-3.38-16.39-10.19C247.25,179.73,246.81,179.91,246.92,180.36Z"/><path class="cls-14" d="M41.18,186.72c-.12,4.18-2.06,7.69-4.9,8.9-.16.07-.12.42.06.45,3,.5,5.74,3.47,6.84,7.5.06.24.31.21.32,0,.13-4.18,2.06-7.69,4.9-8.89.16-.07.12-.42,0-.45-3.05-.51-5.75-3.47-6.85-7.51C41.44,186.45,41.19,186.48,41.18,186.72Z"/><circle class="cls-15" cx="65.57" cy="134.93" r="6.69"/><path class="cls-14" d="M64.85,127.9a6.69,6.69,0,1,1,0,13.37"/><path class="cls-16" d="M64.85,141.27a6.69,6.69,0,0,1,0-13.37"/><circle class="cls-15" cx="65.57" cy="111.42" r="6.69"/><path class="cls-14" d="M64.85,104.39a6.69,6.69,0,1,1,0,13.37"/><path class="cls-16" d="M64.85,117.76a6.69,6.69,0,0,1,0-13.37"/></g></g></g></svg>